<?xml version="1.0" encoding="utf-8" standalone="no"?>
<!DOCTYPE svg PUBLIC "-//W3C//DTD SVG 1.1//EN"
  "http://www.w3.org/Graphics/SVG/1.1/DTD/svg11.dtd">
<!-- Created with matplotlib (http://matplotlib.org/) -->
<svg height="345pt" version="1.1" viewBox="0 0 460 345" width="460pt" xmlns="http://www.w3.org/2000/svg" xmlns:xlink="http://www.w3.org/1999/xlink">
 <defs>
  <style type="text/css">
*{stroke-linecap:butt;stroke-linejoin:round;}
  </style>
 </defs>
 <g id="figure_1">
  <g id="patch_1">
   <path d="M 0 345.6 
L 460.8 345.6 
L 460.8 0 
L 0 0 
z
" style="fill:#ffffff;"/>
  </g>
  <g id="axes_1">
   <g id="patch_2">
    <path d="M 57.6 307.584 
L 414.72 307.584 
L 414.72 41.472 
L 57.6 41.472 
z
" style="fill:#ffffff;"/>
   </g>
   <g id="matplotlib.axis_1">
    <g id="xtick_1">
     <g id="line2d_1">
      <defs>
       <path d="M 0 0 
L 0 3.5 
" id="m20b402b58c" style="stroke:#000000;stroke-width:0.8;"/>
      </defs>
      <g>
       <use style="stroke:#000000;stroke-width:0.8;" x="73.832727" xlink:href="#m20b402b58c" y="307.584"/>
      </g>
     </g>
     <g id="text_1">
      <!-- 0 -->
      <defs>
       <path d="M 31.78125 66.40625 
Q 24.171875 66.40625 20.328125 58.90625 
Q 16.5 51.421875 16.5 36.375 
Q 16.5 21.390625 20.328125 13.890625 
Q 24.171875 6.390625 31.78125 6.390625 
Q 39.453125 6.390625 43.28125 13.890625 
Q 47.125 21.390625 47.125 36.375 
Q 47.125 51.421875 43.28125 58.90625 
Q 39.453125 66.40625 31.78125 66.40625 
z
M 31.78125 74.21875 
Q 44.046875 74.21875 50.515625 64.515625 
Q 56.984375 54.828125 56.984375 36.375 
Q 56.984375 17.96875 50.515625 8.265625 
Q 44.046875 -1.421875 31.78125 -1.421875 
Q 19.53125 -1.421875 13.0625 8.265625 
Q 6.59375 17.96875 6.59375 36.375 
Q 6.59375 54.828125 13.0625 64.515625 
Q 19.53125 74.21875 31.78125 74.21875 
z
" id="DejaVuSans-30"/>
      </defs>
      <g transform="translate(70.651477 322.182437)scale(0.1 -0.1)">
       <use xlink:href="#DejaVuSans-30"/>
      </g>
     </g>
    </g>
    <g id="xtick_2">
     <g id="line2d_2">
      <g>
       <use style="stroke:#000000;stroke-width:0.8;" x="115.973764" xlink:href="#m20b402b58c" y="307.584"/>
      </g>
     </g>
     <g id="text_2">
      <!-- 500 -->
      <defs>
       <path d="M 10.796875 72.90625 
L 49.515625 72.90625 
L 49.515625 64.59375 
L 19.828125 64.59375 
L 19.828125 46.734375 
Q 21.96875 47.46875 24.109375 47.828125 
Q 26.265625 48.1875 28.421875 48.1875 
Q 40.625 48.1875 47.75 41.5 
Q 54.890625 34.8125 54.890625 23.390625 
Q 54.890625 11.625 47.5625 5.09375 
Q 40.234375 -1.421875 26.90625 -1.421875 
Q 22.3125 -1.421875 17.546875 -0.640625 
Q 12.796875 0.140625 7.71875 1.703125 
L 7.71875 11.625 
Q 12.109375 9.234375 16.796875 8.0625 
Q 21.484375 6.890625 26.703125 6.890625 
Q 35.15625 6.890625 40.078125 11.328125 
Q 45.015625 15.765625 45.015625 23.390625 
Q 45.015625 31 40.078125 35.4375 
Q 35.15625 39.890625 26.703125 39.890625 
Q 22.75 39.890625 18.8125 39.015625 
Q 14.890625 38.140625 10.796875 36.28125 
z
" id="DejaVuSans-35"/>
      </defs>
      <g transform="translate(106.430014 322.182437)scale(0.1 -0.1)">
       <use xlink:href="#DejaVuSans-35"/>
       <use x="63.623047" xlink:href="#DejaVuSans-30"/>
       <use x="127.246094" xlink:href="#DejaVuSans-30"/>
      </g>
     </g>
    </g>
    <g id="xtick_3">
     <g id="line2d_3">
      <g>
       <use style="stroke:#000000;stroke-width:0.8;" x="158.1148" xlink:href="#m20b402b58c" y="307.584"/>
      </g>
     </g>
     <g id="text_3">
      <!-- 1000 -->
      <defs>
       <path d="M 12.40625 8.296875 
L 28.515625 8.296875 
L 28.515625 63.921875 
L 10.984375 60.40625 
L 10.984375 69.390625 
L 28.421875 72.90625 
L 38.28125 72.90625 
L 38.28125 8.296875 
L 54.390625 8.296875 
L 54.390625 0 
L 12.40625 0 
z
" id="DejaVuSans-31"/>
      </defs>
      <g transform="translate(145.3898 322.182437)scale(0.1 -0.1)">
       <use xlink:href="#DejaVuSans-31"/>
       <use x="63.623047" xlink:href="#DejaVuSans-30"/>
       <use x="127.246094" xlink:href="#DejaVuSans-30"/>
       <use x="190.869141" xlink:href="#DejaVuSans-30"/>
      </g>
     </g>
    </g>
    <g id="xtick_4">
     <g id="line2d_4">
      <g>
       <use style="stroke:#000000;stroke-width:0.8;" x="200.255837" xlink:href="#m20b402b58c" y="307.584"/>
      </g>
     </g>
     <g id="text_4">
      <!-- 1500 -->
      <g transform="translate(187.530837 322.182437)scale(0.1 -0.1)">
       <use xlink:href="#DejaVuSans-31"/>
       <use x="63.623047" xlink:href="#DejaVuSans-35"/>
       <use x="127.246094" xlink:href="#DejaVuSans-30"/>
       <use x="190.869141" xlink:href="#DejaVuSans-30"/>
      </g>
     </g>
    </g>
    <g id="xtick_5">
     <g id="line2d_5">
      <g>
       <use style="stroke:#000000;stroke-width:0.8;" x="242.396873" xlink:href="#m20b402b58c" y="307.584"/>
      </g>
     </g>
     <g id="text_5">
      <!-- 2000 -->
      <defs>
       <path d="M 19.1875 8.296875 
L 53.609375 8.296875 
L 53.609375 0 
L 7.328125 0 
L 7.328125 8.296875 
Q 12.9375 14.109375 22.625 23.890625 
Q 32.328125 33.6875 34.8125 36.53125 
Q 39.546875 41.84375 41.421875 45.53125 
Q 43.3125 49.21875 43.3125 52.78125 
Q 43.3125 58.59375 39.234375 62.25 
Q 35.15625 65.921875 28.609375 65.921875 
Q 23.96875 65.921875 18.8125 64.3125 
Q 13.671875 62.703125 7.8125 59.421875 
L 7.8125 69.390625 
Q 13.765625 71.78125 18.9375 73 
Q 24.125 74.21875 28.421875 74.21875 
Q 39.75 74.21875 46.484375 68.546875 
Q 53.21875 62.890625 53.21875 53.421875 
Q 53.21875 48.921875 51.53125 44.890625 
Q 49.859375 40.875 45.40625 35.40625 
Q 44.1875 33.984375 37.640625 27.21875 
Q 31.109375 20.453125 19.1875 8.296875 
z
" id="DejaVuSans-32"/>
      </defs>
      <g transform="translate(229.671873 322.182437)scale(0.1 -0.1)">
       <use xlink:href="#DejaVuSans-32"/>
       <use x="63.623047" xlink:href="#DejaVuSans-30"/>
       <use x="127.246094" xlink:href="#DejaVuSans-30"/>
       <use x="190.869141" xlink:href="#DejaVuSans-30"/>
      </g>
     </g>
    </g>
    <g id="xtick_6">
     <g id="line2d_6">
      <g>
       <use style="stroke:#000000;stroke-width:0.8;" x="284.53791" xlink:href="#m20b402b58c" y="307.584"/>
      </g>
     </g>
     <g id="text_6">
      <!-- 2500 -->
      <g transform="translate(271.81291 322.182437)scale(0.1 -0.1)">
       <use xlink:href="#DejaVuSans-32"/>
       <use x="63.623047" xlink:href="#DejaVuSans-35"/>
       <use x="127.246094" xlink:href="#DejaVuSans-30"/>
       <use x="190.869141" xlink:href="#DejaVuSans-30"/>
      </g>
     </g>
    </g>
    <g id="xtick_7">
     <g id="line2d_7">
      <g>
       <use style="stroke:#000000;stroke-width:0.8;" x="326.678946" xlink:href="#m20b402b58c" y="307.584"/>
      </g>
     </g>
     <g id="text_7">
      <!-- 3000 -->
      <defs>
       <path d="M 40.578125 39.3125 
Q 47.65625 37.796875 51.625 33 
Q 55.609375 28.21875 55.609375 21.1875 
Q 55.609375 10.40625 48.1875 4.484375 
Q 40.765625 -1.421875 27.09375 -1.421875 
Q 22.515625 -1.421875 17.65625 -0.515625 
Q 12.796875 0.390625 7.625 2.203125 
L 7.625 11.71875 
Q 11.71875 9.328125 16.59375 8.109375 
Q 21.484375 6.890625 26.8125 6.890625 
Q 36.078125 6.890625 40.9375 10.546875 
Q 45.796875 14.203125 45.796875 21.1875 
Q 45.796875 27.640625 41.28125 31.265625 
Q 36.765625 34.90625 28.71875 34.90625 
L 20.21875 34.90625 
L 20.21875 43.015625 
L 29.109375 43.015625 
Q 36.375 43.015625 40.234375 45.921875 
Q 44.09375 48.828125 44.09375 54.296875 
Q 44.09375 59.90625 40.109375 62.90625 
Q 36.140625 65.921875 28.71875 65.921875 
Q 24.65625 65.921875 20.015625 65.03125 
Q 15.375 64.15625 9.8125 62.3125 
L 9.8125 71.09375 
Q 15.4375 72.65625 20.34375 73.4375 
Q 25.25 74.21875 29.59375 74.21875 
Q 40.828125 74.21875 47.359375 69.109375 
Q 53.90625 64.015625 53.90625 55.328125 
Q 53.90625 49.265625 50.4375 45.09375 
Q 46.96875 40.921875 40.578125 39.3125 
z
" id="DejaVuSans-33"/>
      </defs>
      <g transform="translate(313.953946 322.182437)scale(0.1 -0.1)">
       <use xlink:href="#DejaVuSans-33"/>
       <use x="63.623047" xlink:href="#DejaVuSans-30"/>
       <use x="127.246094" xlink:href="#DejaVuSans-30"/>
       <use x="190.869141" xlink:href="#DejaVuSans-30"/>
      </g>
     </g>
    </g>
    <g id="xtick_8">
     <g id="line2d_8">
      <g>
       <use style="stroke:#000000;stroke-width:0.8;" x="368.819983" xlink:href="#m20b402b58c" y="307.584"/>
      </g>
     </g>
     <g id="text_8">
      <!-- 3500 -->
      <g transform="translate(356.094983 322.182437)scale(0.1 -0.1)">
       <use xlink:href="#DejaVuSans-33"/>
       <use x="63.623047" xlink:href="#DejaVuSans-35"/>
       <use x="127.246094" xlink:href="#DejaVuSans-30"/>
       <use x="190.869141" xlink:href="#DejaVuSans-30"/>
      </g>
     </g>
    </g>
    <g id="xtick_9">
     <g id="line2d_9">
      <g>
       <use style="stroke:#000000;stroke-width:0.8;" x="410.96102" xlink:href="#m20b402b58c" y="307.584"/>
      </g>
     </g>
     <g id="text_9">
      <!-- 4000 -->
      <defs>
       <path d="M 37.796875 64.3125 
L 12.890625 25.390625 
L 37.796875 25.390625 
z
M 35.203125 72.90625 
L 47.609375 72.90625 
L 47.609375 25.390625 
L 58.015625 25.390625 
L 58.015625 17.1875 
L 47.609375 17.1875 
L 47.609375 0 
L 37.796875 0 
L 37.796875 17.1875 
L 4.890625 17.1875 
L 4.890625 26.703125 
z
" id="DejaVuSans-34"/>
      </defs>
      <g transform="translate(398.23602 322.182437)scale(0.1 -0.1)">
       <use xlink:href="#DejaVuSans-34"/>
       <use x="63.623047" xlink:href="#DejaVuSans-30"/>
       <use x="127.246094" xlink:href="#DejaVuSans-30"/>
       <use x="190.869141" xlink:href="#DejaVuSans-30"/>
      </g>
     </g>
    </g>
   </g>
   <g id="matplotlib.axis_2">
    <g id="ytick_1">
     <g id="line2d_10">
      <defs>
       <path d="M 0 0 
L -3.5 0 
" id="m7387fde87f" style="stroke:#000000;stroke-width:0.8;"/>
      </defs>
      <g>
       <use style="stroke:#000000;stroke-width:0.8;" x="57.6" xlink:href="#m7387fde87f" y="306.223636"/>
      </g>
     </g>
     <g id="text_10">
      <!-- 1420 -->
      <g transform="translate(25.15 310.022855)scale(0.1 -0.1)">
       <use xlink:href="#DejaVuSans-31"/>
       <use x="63.623047" xlink:href="#DejaVuSans-34"/>
       <use x="127.246094" xlink:href="#DejaVuSans-32"/>
       <use x="190.869141" xlink:href="#DejaVuSans-30"/>
      </g>
     </g>
    </g>
    <g id="ytick_2">
     <g id="line2d_11">
      <g>
       <use style="stroke:#000000;stroke-width:0.8;" x="57.6" xlink:href="#m7387fde87f" y="276.416844"/>
      </g>
     </g>
     <g id="text_11">
      <!-- 1440 -->
      <g transform="translate(25.15 280.216063)scale(0.1 -0.1)">
       <use xlink:href="#DejaVuSans-31"/>
       <use x="63.623047" xlink:href="#DejaVuSans-34"/>
       <use x="127.246094" xlink:href="#DejaVuSans-34"/>
       <use x="190.869141" xlink:href="#DejaVuSans-30"/>
      </g>
     </g>
    </g>
    <g id="ytick_3">
     <g id="line2d_12">
      <g>
       <use style="stroke:#000000;stroke-width:0.8;" x="57.6" xlink:href="#m7387fde87f" y="246.610052"/>
      </g>
     </g>
     <g id="text_12">
      <!-- 1460 -->
      <defs>
       <path d="M 33.015625 40.375 
Q 26.375 40.375 22.484375 35.828125 
Q 18.609375 31.296875 18.609375 23.390625 
Q 18.609375 15.53125 22.484375 10.953125 
Q 26.375 6.390625 33.015625 6.390625 
Q 39.65625 6.390625 43.53125 10.953125 
Q 47.40625 15.53125 47.40625 23.390625 
Q 47.40625 31.296875 43.53125 35.828125 
Q 39.65625 40.375 33.015625 40.375 
z
M 52.59375 71.296875 
L 52.59375 62.3125 
Q 48.875 64.0625 45.09375 64.984375 
Q 41.3125 65.921875 37.59375 65.921875 
Q 27.828125 65.921875 22.671875 59.328125 
Q 17.53125 52.734375 16.796875 39.40625 
Q 19.671875 43.65625 24.015625 45.921875 
Q 28.375 48.1875 33.59375 48.1875 
Q 44.578125 48.1875 50.953125 41.515625 
Q 57.328125 34.859375 57.328125 23.390625 
Q 57.328125 12.15625 50.6875 5.359375 
Q 44.046875 -1.421875 33.015625 -1.421875 
Q 20.359375 -1.421875 13.671875 8.265625 
Q 6.984375 17.96875 6.984375 36.375 
Q 6.984375 53.65625 15.1875 63.9375 
Q 23.390625 74.21875 37.203125 74.21875 
Q 40.921875 74.21875 44.703125 73.484375 
Q 48.484375 72.75 52.59375 71.296875 
z
" id="DejaVuSans-36"/>
      </defs>
      <g transform="translate(25.15 250.40927)scale(0.1 -0.1)">
       <use xlink:href="#DejaVuSans-31"/>
       <use x="63.623047" xlink:href="#DejaVuSans-34"/>
       <use x="127.246094" xlink:href="#DejaVuSans-36"/>
       <use x="190.869141" xlink:href="#DejaVuSans-30"/>
      </g>
     </g>
    </g>
    <g id="ytick_4">
     <g id="line2d_13">
      <g>
       <use style="stroke:#000000;stroke-width:0.8;" x="57.6" xlink:href="#m7387fde87f" y="216.803259"/>
      </g>
     </g>
     <g id="text_13">
      <!-- 1480 -->
      <defs>
       <path d="M 31.78125 34.625 
Q 24.75 34.625 20.71875 30.859375 
Q 16.703125 27.09375 16.703125 20.515625 
Q 16.703125 13.921875 20.71875 10.15625 
Q 24.75 6.390625 31.78125 6.390625 
Q 38.8125 6.390625 42.859375 10.171875 
Q 46.921875 13.96875 46.921875 20.515625 
Q 46.921875 27.09375 42.890625 30.859375 
Q 38.875 34.625 31.78125 34.625 
z
M 21.921875 38.8125 
Q 15.578125 40.375 12.03125 44.71875 
Q 8.5 49.078125 8.5 55.328125 
Q 8.5 64.0625 14.71875 69.140625 
Q 20.953125 74.21875 31.78125 74.21875 
Q 42.671875 74.21875 48.875 69.140625 
Q 55.078125 64.0625 55.078125 55.328125 
Q 55.078125 49.078125 51.53125 44.71875 
Q 48 40.375 41.703125 38.8125 
Q 48.828125 37.15625 52.796875 32.3125 
Q 56.78125 27.484375 56.78125 20.515625 
Q 56.78125 9.90625 50.3125 4.234375 
Q 43.84375 -1.421875 31.78125 -1.421875 
Q 19.734375 -1.421875 13.25 4.234375 
Q 6.78125 9.90625 6.78125 20.515625 
Q 6.78125 27.484375 10.78125 32.3125 
Q 14.796875 37.15625 21.921875 38.8125 
z
M 18.3125 54.390625 
Q 18.3125 48.734375 21.84375 45.5625 
Q 25.390625 42.390625 31.78125 42.390625 
Q 38.140625 42.390625 41.71875 45.5625 
Q 45.3125 48.734375 45.3125 54.390625 
Q 45.3125 60.0625 41.71875 63.234375 
Q 38.140625 66.40625 31.78125 66.40625 
Q 25.390625 66.40625 21.84375 63.234375 
Q 18.3125 60.0625 18.3125 54.390625 
z
" id="DejaVuSans-38"/>
      </defs>
      <g transform="translate(25.15 220.602478)scale(0.1 -0.1)">
       <use xlink:href="#DejaVuSans-31"/>
       <use x="63.623047" xlink:href="#DejaVuSans-34"/>
       <use x="127.246094" xlink:href="#DejaVuSans-38"/>
       <use x="190.869141" xlink:href="#DejaVuSans-30"/>
      </g>
     </g>
    </g>
    <g id="ytick_5">
     <g id="line2d_14">
      <g>
       <use style="stroke:#000000;stroke-width:0.8;" x="57.6" xlink:href="#m7387fde87f" y="186.996467"/>
      </g>
     </g>
     <g id="text_14">
      <!-- 1500 -->
      <g transform="translate(25.15 190.795685)scale(0.1 -0.1)">
       <use xlink:href="#DejaVuSans-31"/>
       <use x="63.623047" xlink:href="#DejaVuSans-35"/>
       <use x="127.246094" xlink:href="#DejaVuSans-30"/>
       <use x="190.869141" xlink:href="#DejaVuSans-30"/>
      </g>
     </g>
    </g>
    <g id="ytick_6">
     <g id="line2d_15">
      <g>
       <use style="stroke:#000000;stroke-width:0.8;" x="57.6" xlink:href="#m7387fde87f" y="157.189674"/>
      </g>
     </g>
     <g id="text_15">
      <!-- 1520 -->
      <g transform="translate(25.15 160.988893)scale(0.1 -0.1)">
       <use xlink:href="#DejaVuSans-31"/>
       <use x="63.623047" xlink:href="#DejaVuSans-35"/>
       <use x="127.246094" xlink:href="#DejaVuSans-32"/>
       <use x="190.869141" xlink:href="#DejaVuSans-30"/>
      </g>
     </g>
    </g>
    <g id="ytick_7">
     <g id="line2d_16">
      <g>
       <use style="stroke:#000000;stroke-width:0.8;" x="57.6" xlink:href="#m7387fde87f" y="127.382882"/>
      </g>
     </g>
     <g id="text_16">
      <!-- 1540 -->
      <g transform="translate(25.15 131.1821)scale(0.1 -0.1)">
       <use xlink:href="#DejaVuSans-31"/>
       <use x="63.623047" xlink:href="#DejaVuSans-35"/>
       <use x="127.246094" xlink:href="#DejaVuSans-34"/>
       <use x="190.869141" xlink:href="#DejaVuSans-30"/>
      </g>
     </g>
    </g>
    <g id="ytick_8">
     <g id="line2d_17">
      <g>
       <use style="stroke:#000000;stroke-width:0.8;" x="57.6" xlink:href="#m7387fde87f" y="97.576089"/>
      </g>
     </g>
     <g id="text_17">
      <!-- 1560 -->
      <g transform="translate(25.15 101.375308)scale(0.1 -0.1)">
       <use xlink:href="#DejaVuSans-31"/>
       <use x="63.623047" xlink:href="#DejaVuSans-35"/>
       <use x="127.246094" xlink:href="#DejaVuSans-36"/>
       <use x="190.869141" xlink:href="#DejaVuSans-30"/>
      </g>
     </g>
    </g>
    <g id="ytick_9">
     <g id="line2d_18">
      <g>
       <use style="stroke:#000000;stroke-width:0.8;" x="57.6" xlink:href="#m7387fde87f" y="67.769297"/>
      </g>
     </g>
     <g id="text_18">
      <!-- 1580 -->
      <g transform="translate(25.15 71.568515)scale(0.1 -0.1)">
       <use xlink:href="#DejaVuSans-31"/>
       <use x="63.623047" xlink:href="#DejaVuSans-35"/>
       <use x="127.246094" xlink:href="#DejaVuSans-38"/>
       <use x="190.869141" xlink:href="#DejaVuSans-30"/>
      </g>
     </g>
    </g>
   </g>
   <g id="line2d_19">
    <path clip-path="url(#p79e368ba0c)" d="M 73.832727 147.195017 
L 73.917009 147.195017 
L 74.085573 145.650251 
L 74.254138 236.586646 
L 74.33842 225.851897 
L 74.506984 141.2372 
L 74.675548 140.111267 
L 74.75983 145.769038 
L 74.844112 225.314814 
L 75.012676 137.677017 
L 75.096958 144.349179 
L 75.265523 226.140611 
L 75.349805 225.863753 
L 75.518369 233.503313 
L 75.602651 226.30503 
L 75.771215 143.238609 
L 75.855497 141.152687 
L 75.939779 148.542003 
L 76.024061 229.891019 
L 76.108343 225.957323 
L 76.192625 146.614001 
L 76.276907 146.960807 
L 76.361189 147.27794 
L 76.445472 149.269099 
L 76.529754 224.469767 
L 76.698318 138.520864 
L 76.866882 147.062837 
L 76.951164 145.226416 
L 77.035446 147.910301 
L 77.20401 226.676221 
L 77.288292 226.994872 
L 77.372574 143.59821 
L 77.456856 149.216448 
L 77.541138 233.314673 
L 77.625421 228.764119 
L 77.709703 225.205077 
L 77.878267 145.26609 
L 77.962549 145.384288 
L 78.131113 234.41072 
L 78.299677 135.707298 
L 78.636805 148.326581 
L 78.721088 226.001554 
L 78.889652 143.063984 
L 79.058216 136.268806 
L 79.142498 143.909178 
L 79.22678 224.375667 
L 79.395344 136.449648 
L 79.479626 139.705718 
L 79.64819 230.828798 
L 79.816754 143.310931 
L 79.985319 147.344451 
L 80.069601 146.767355 
L 80.153883 147.003204 
L 80.238165 149.41036 
L 80.406729 142.763598 
L 80.575293 148.49137 
L 80.912421 144.679553 
L 81.080986 145.427842 
L 81.24955 134.574894 
L 81.418114 146.221129 
L 81.502396 225.18178 
L 81.67096 141.172474 
L 81.923806 146.255116 
L 82.008088 225.99699 
L 82.09237 224.786221 
L 82.176653 147.956426 
L 82.345217 230.50578 
L 82.429499 227.314033 
L 82.598063 144.824214 
L 82.682345 142.142848 
L 82.850909 148.491636 
L 83.019473 137.86178 
L 83.103755 146.576654 
L 83.272319 226.269645 
L 83.440884 143.657152 
L 83.525166 140.821152 
L 83.609448 141.220153 
L 83.69373 144.117635 
L 83.862294 136.765494 
L 83.946576 144.165981 
L 84.030858 226.274418 
L 84.11514 225.589435 
L 84.199422 149.633159 
L 84.283704 149.698956 
L 84.367986 224.271012 
L 84.536551 142.214611 
L 84.620833 148.688115 
L 84.705115 226.793488 
L 84.873679 137.055136 
L 84.957961 141.035287 
L 85.126525 131.012893 
L 85.210807 133.57786 
L 85.379371 139.939768 
L 85.547935 142.554587 
L 85.7165 131.360922 
L 85.800782 131.257554 
L 85.969346 136.435253 
L 86.13791 137.058833 
L 86.306474 128.076921 
L 86.475038 141.542141 
L 86.727884 130.28647 
L 86.812167 129.769351 
L 86.896449 132.757472 
L 87.065013 124.186901 
L 87.233577 130.39672 
L 87.402141 118.411129 
L 87.570705 138.915778 
L 87.907833 119.0569 
L 88.076398 127.50304 
L 88.329244 119.679353 
L 88.413526 120.719216 
L 88.497808 125.666961 
L 88.666372 116.272512 
L 88.834936 125.03931 
L 89.0035 120.097408 
L 89.172065 120.097408 
L 89.593475 111.884 
L 89.762039 121.477258 
L 89.930603 104.456614 
L 90.014885 112.306089 
L 90.099167 112.148166 
L 90.267732 108.48019 
L 90.436296 105.412659 
L 90.60486 110.868996 
L 90.773424 105.444074 
L 90.941988 112.601306 
L 91.110552 98.345337 
L 91.279116 126.342984 
L 91.447681 105.101571 
L 91.616245 114.057632 
L 91.953373 93.169583 
L 92.121937 104.766559 
L 92.206219 103.392004 
L 92.290501 102.765364 
L 92.459065 98.990909 
L 92.62763 104.004402 
L 92.796194 88.871328 
L 93.133322 94.77295 
L 93.386168 88.893924 
L 93.47045 88.326746 
L 93.639014 95.124498 
L 93.807579 83.497112 
L 93.976143 80.768663 
L 94.060425 87.768109 
L 94.228989 78.91654 
L 94.397553 89.996885 
L 94.481835 88.334079 
L 94.566117 88.99292 
L 94.734681 100.306176 
L 94.818963 86.05851 
L 94.903246 86.871061 
L 94.987528 96.291062 
L 95.156092 81.739769 
L 95.240374 82.256361 
L 95.324656 83.991934 
L 95.49322 95.466725 
L 95.661784 91.005234 
L 95.746066 94.643751 
L 95.91463 87.463852 
L 96.083195 92.425065 
L 96.167477 89.075106 
L 96.336041 73.24284 
L 96.504605 99.587268 
L 96.841733 78.060728 
L 96.926015 82.83655 
L 97.010297 82.708883 
L 97.178862 76.080977 
L 97.263144 78.011789 
L 97.347426 75.974095 
L 97.51599 78.854604 
L 97.600272 78.646091 
L 97.768836 75.068961 
L 97.9374 82.096634 
L 98.105964 71.628977 
L 98.274528 89.551606 
L 98.780221 69.593649 
L 98.864503 71.324089 
L 98.948785 94.743481 
L 99.033067 91.028201 
L 99.201631 78.551497 
L 99.285913 78.582828 
L 99.370195 74.204585 
L 99.454477 74.269511 
L 99.53876 76.602963 
L 99.707324 101.625831 
L 99.875888 64.480187 
L 100.044452 102.647619 
L 100.213016 61.907555 
L 100.38158 77.814026 
L 100.465862 75.8941 
L 100.634427 80.296071 
L 100.802991 62.317085 
L 101.055837 82.480258 
L 101.224401 66.597447 
L 101.477247 78.782125 
L 101.561529 77.128782 
L 101.730093 88.570856 
L 101.814376 87.237684 
L 101.98294 73.858226 
L 102.151504 94.653022 
L 102.40435 75.97023 
L 102.741478 105.801152 
L 102.910042 79.320743 
L 103.078607 99.615098 
L 103.162889 91.307689 
L 103.247171 93.774815 
L 103.331453 95.833284 
L 103.668581 88.927104 
L 103.752863 91.231062 
L 103.921427 105.319881 
L 104.089992 84.441049 
L 104.258556 91.266235 
L 104.342838 100.591209 
L 104.42712 99.656479 
L 104.511402 90.488787 
L 104.679966 101.979091 
L 104.84853 119.5194 
L 104.932812 119.5194 
L 105.101376 103.020983 
L 105.269941 112.121769 
L 105.438505 104.709861 
L 105.522787 105.573686 
L 105.607069 105.37883 
L 105.691351 114.01583 
L 105.775633 110.316342 
L 105.859915 101.613865 
L 106.197043 117.925187 
L 106.44989 105.306215 
L 106.618454 147.843397 
L 106.702736 147.843397 
L 106.955582 107.064631 
L 107.124146 124.87211 
L 107.29271 113.486016 
L 107.461274 138.751006 
L 107.629839 105.637765 
L 107.798403 129.401321 
L 107.882685 125.082691 
L 108.135531 129.83562 
L 108.219813 128.891469 
L 108.388377 120.470941 
L 108.472659 124.532852 
L 108.641223 135.242647 
L 108.809788 129.711009 
L 108.89407 130.92172 
L 108.978352 131.98109 
L 109.146916 129.159613 
L 109.399762 142.300718 
L 109.568326 129.450116 
L 109.821172 140.745412 
L 110.074019 127.101576 
L 110.158301 143.320715 
L 110.242583 227.508794 
L 110.411147 136.151336 
L 110.579711 145.3038 
L 110.748275 136.269341 
L 110.832557 136.925141 
L 110.916839 138.912583 
L 111.085404 230.07953 
L 111.253968 126.389233 
L 111.33825 144.912414 
L 111.422532 234.572457 
L 111.591096 138.393201 
L 111.75966 141.324082 
L 111.928224 235.900906 
L 112.012506 235.900906 
L 112.181071 224.261866 
L 112.349635 143.091627 
L 112.433917 140.677918 
L 112.518199 148.685007 
L 112.686763 226.688275 
L 112.855327 139.464433 
L 112.939609 146.865588 
L 113.108173 229.944517 
L 113.192455 231.115835 
L 113.276737 227.4891 
L 113.36102 148.56935 
L 113.445302 229.363967 
L 113.529584 228.097153 
L 113.613866 146.477965 
L 113.78243 232.573264 
L 113.866712 232.995831 
L 113.950994 232.836137 
L 114.119558 237.755359 
L 114.288122 226.052875 
L 114.372404 146.805084 
L 114.540969 237.302289 
L 114.625251 228.635694 
L 114.709533 146.304702 
L 114.878097 236.884136 
L 115.130943 225.285127 
L 115.215225 225.315887 
L 115.383789 238.794628 
L 115.552353 226.829186 
L 115.636636 228.35674 
L 115.720918 230.08478 
L 115.889482 238.157315 
L 115.973764 229.687436 
L 116.058046 149.553859 
L 116.22661 235.200186 
L 116.310892 228.000146 
L 116.395174 148.525315 
L 116.563738 238.527319 
L 116.816585 229.886794 
L 116.900867 225.590454 
L 117.069431 227.110327 
L 117.237995 239.684839 
L 117.406559 236.949113 
L 117.490841 231.749792 
L 117.659405 249.159607 
L 118.080816 234.02035 
L 118.165098 233.513343 
L 118.333662 228.775011 
L 118.586508 232.55452 
L 118.755072 227.476267 
L 118.923636 236.427291 
L 119.092201 228.62867 
L 119.260765 141.891561 
L 119.429329 236.520176 
L 119.513611 226.888344 
L 119.682175 143.301725 
L 119.766457 142.800818 
L 119.850739 146.662665 
L 119.935021 226.634657 
L 120.103585 145.1032 
L 120.27215 231.024752 
L 120.524996 225.882927 
L 120.609278 227.511892 
L 120.69356 226.688739 
L 120.777842 226.865668 
L 120.862124 226.865668 
L 120.946406 229.815907 
L 121.11497 226.678366 
L 121.283534 240.380313 
L 121.452099 226.82642 
L 121.620663 230.998378 
L 121.704945 225.963769 
L 121.873509 145.261937 
L 121.957791 144.635029 
L 122.042073 148.867655 
L 122.210637 231.639092 
L 122.294919 226.105957 
L 122.463483 146.387955 
L 122.632048 142.434475 
L 122.71633 141.37589 
L 122.800612 147.940331 
L 122.884894 226.723907 
L 122.969176 225.329315 
L 123.053458 148.181422 
L 123.13774 149.486208 
L 123.306304 225.593739 
L 123.390586 225.630678 
L 123.474868 225.192985 
L 123.55915 225.424164 
L 123.727715 236.08994 
L 123.896279 225.795274 
L 124.064843 147.394107 
L 124.233407 227.98329 
L 124.317689 225.26052 
L 124.486253 146.149978 
L 124.654817 146.806432 
L 124.823381 141.912912 
L 124.991946 136.841442 
L 125.076228 227.12694 
L 125.16051 226.677352 
L 125.244792 142.468827 
L 125.329074 146.406181 
L 125.413356 149.44171 
L 125.58192 146.261342 
L 125.750484 233.267072 
L 125.919048 229.080264 
L 126.003331 224.412178 
L 126.087613 147.562727 
L 126.256177 233.338359 
L 126.340459 229.723667 
L 126.509023 146.357847 
L 126.593305 144.43835 
L 126.677587 144.84736 
L 126.846151 145.635132 
L 127.014715 232.251608 
L 127.18328 139.010561 
L 127.436126 148.606637 
L 127.60469 226.853318 
L 127.773254 146.849126 
L 127.941818 228.06911 
L 128.0261 228.058037 
L 128.110382 228.871403 
L 128.278946 238.898231 
L 128.363229 225.631083 
L 128.447511 141.170044 
L 128.531793 145.420503 
L 128.616075 149.399096 
L 128.784639 227.80496 
L 128.868921 227.566821 
L 128.953203 225.7626 
L 129.121767 140.379535 
L 129.206049 146.819883 
L 129.290331 225.990559 
L 129.458895 145.588882 
L 129.796024 139.958261 
L 129.880306 149.456967 
L 129.964588 228.874344 
L 130.133152 140.346353 
L 130.301716 234.293725 
L 130.47028 225.541826 
L 130.554562 226.64517 
L 130.638845 226.921368 
L 130.723127 226.630018 
L 130.807409 227.444228 
L 130.975973 232.058776 
L 131.144537 225.863949 
L 131.228819 225.927477 
L 131.397383 225.98396 
L 131.481665 225.289902 
L 131.650229 226.316631 
L 131.818794 140.695339 
L 131.903076 149.251104 
L 131.987358 231.206161 
L 132.07164 228.209706 
L 132.155922 225.21325 
L 132.324486 148.582148 
L 132.49305 226.722202 
L 132.661614 229.699559 
L 132.830178 227.157552 
L 132.91446 226.727423 
L 132.998743 225.274064 
L 133.335871 227.684457 
L 133.504435 224.627445 
L 133.672999 141.881136 
L 133.841563 234.735946 
L 133.925845 225.375463 
L 134.09441 142.521636 
L 134.178692 140.938434 
L 134.262974 142.113816 
L 134.51582 148.077355 
L 134.600102 147.793683 
L 134.768666 140.550348 
L 134.852948 140.935952 
L 135.021512 235.347327 
L 135.105794 226.212527 
L 135.190076 144.213241 
L 135.274359 145.490286 
L 135.358641 147.380765 
L 135.527205 226.811269 
L 135.695769 144.402628 
L 135.780051 142.541114 
L 135.948615 231.574585 
L 136.117179 129.685034 
L 136.285743 145.328888 
L 136.370025 144.832425 
L 136.622872 138.547056 
L 136.707154 144.289454 
L 136.791436 143.652067 
L 136.875718 139.881052 
L 136.96 140.477487 
L 137.044282 142.770266 
L 137.128564 148.158451 
L 137.212846 225.967787 
L 137.38141 147.2946 
L 137.465692 144.758778 
L 137.549975 146.232477 
L 137.634257 145.156911 
L 137.718539 147.577938 
L 137.802821 225.014802 
L 137.971385 145.039191 
L 138.139949 148.302694 
L 138.308513 136.127149 
L 138.477077 148.04181 
L 138.645641 137.285755 
L 138.729924 138.105623 
L 138.898488 134.742843 
L 139.067052 137.527702 
L 139.235616 142.736669 
L 139.40418 132.668918 
L 139.488462 133.707593 
L 139.572744 133.553529 
L 139.657026 134.005881 
L 139.82559 126.758031 
L 139.994155 147.141526 
L 140.162719 133.972304 
L 140.331283 139.837401 
L 140.415565 138.572605 
L 140.584129 139.969202 
L 140.836975 128.308061 
L 140.921257 129.429115 
L 141.00554 134.059644 
L 141.174104 127.463567 
L 141.511232 145.375928 
L 141.679796 135.000316 
L 141.764078 139.798716 
L 141.84836 138.840363 
L 141.932642 138.915591 
L 142.101206 145.002265 
L 142.269771 136.693049 
L 142.438335 140.69618 
L 142.522617 147.064105 
L 142.606899 224.365179 
L 142.775463 148.856011 
L 142.859745 148.856011 
L 142.944027 224.597147 
L 143.112591 147.159997 
L 143.196873 145.922711 
L 143.365438 136.830681 
L 143.534002 147.292634 
L 143.955412 134.963199 
L 144.123976 142.505668 
L 144.29254 136.296007 
L 144.376822 136.742394 
L 144.545387 132.003013 
L 144.798233 139.828215 
L 144.966797 122.903692 
L 145.135361 144.907482 
L 145.303925 130.957216 
L 145.472489 142.201026 
L 145.641054 136.633034 
L 145.725336 137.388818 
L 145.8939 149.105715 
L 146.062464 134.763524 
L 146.231028 148.748192 
L 146.31531 143.808234 
L 146.399592 148.444178 
L 146.568156 228.757134 
L 146.652438 231.876023 
L 146.821003 126.067049 
L 146.989567 146.355462 
L 147.073849 226.611659 
L 147.242413 143.261726 
L 147.326695 146.141226 
L 147.495259 286.076396 
L 147.579541 287.038465 
L 147.748105 278.955876 
L 147.916669 289.415507 
L 148.169516 278.2419 
L 148.253798 277.985265 
L 148.422362 279.504888 
L 148.506644 274.691094 
L 148.590926 274.784363 
L 148.675208 276.736623 
L 148.928054 265.718513 
L 149.012336 261.690149 
L 149.096619 262.57362 
L 149.349465 272.730685 
L 149.602311 258.887947 
L 149.770875 266.589437 
L 150.108003 252.646825 
L 150.276568 258.55196 
L 150.445132 271.292549 
L 150.613696 252.877983 
L 150.78226 266.103107 
L 150.950824 260.59711 
L 151.035106 261.711357 
L 151.20367 250.368898 
L 151.372234 262.255477 
L 151.456517 261.137917 
L 151.625081 246.970793 
L 151.793645 265.6142 
L 151.962209 245.06796 
L 152.130773 250.225139 
L 152.299337 254.780061 
L 152.383619 248.41142 
L 152.552184 262.968626 
L 152.720748 237.685463 
L 152.80503 237.685463 
L 152.973594 256.534875 
L 153.142158 243.454671 
L 153.22644 244.47061 
L 153.395004 251.319282 
L 153.479286 250.984509 
L 153.64785 245.576372 
L 153.732133 245.981432 
L 153.816415 247.892789 
L 153.900697 231.067667 
L 153.984979 146.4382 
L 154.153543 239.565925 
L 154.406389 230.812624 
L 154.490671 232.235128 
L 154.574953 240.204424 
L 154.659235 237.8685 
L 154.827799 230.684375 
L 154.912082 231.922751 
L 155.080646 246.376254 
L 155.24921 228.389613 
L 155.417774 244.460082 
L 155.67062 231.87099 
L 155.839184 239.083849 
L 155.923466 225.112668 
L 156.007749 139.639038 
L 156.176313 238.112766 
L 156.344877 232.778133 
L 156.513441 240.189812 
L 156.766287 231.192458 
L 156.934851 235.597585 
L 157.103415 228.56746 
L 157.187698 145.117795 
L 157.356262 238.77979 
L 157.69339 225.923794 
L 157.861954 228.717796 
L 157.946236 228.250713 
L 158.030518 229.461442 
L 158.199082 224.707647 
L 158.283364 226.574617 
L 158.451929 238.970266 
L 158.536211 228.818677 
L 158.620493 146.905554 
L 158.704775 226.65586 
L 158.873339 136.601075 
L 159.041903 239.53106 
L 159.126185 230.664845 
L 159.294749 140.533061 
L 159.379031 138.708172 
L 159.463314 148.517387 
L 159.631878 129.963098 
L 159.800442 242.814451 
L 159.884724 225.300273 
L 159.969006 136.541683 
L 160.053288 145.237451 
L 160.13757 225.562827 
L 160.221852 132.188077 
L 160.306134 143.227307 
L 160.390416 237.896858 
L 160.474698 228.740247 
L 160.55898 145.077207 
L 160.727545 231.188595 
L 160.896109 130.189661 
L 161.064673 225.600653 
L 161.148955 142.718955 
L 161.317519 235.381159 
L 161.401801 224.837754 
L 161.570365 132.422646 
L 161.654647 128.888002 
L 161.991776 139.747267 
L 162.076058 140.388203 
L 162.16034 146.056206 
L 162.328904 230.109411 
L 162.497468 131.291919 
L 162.666032 142.999992 
L 162.834596 133.434227 
L 162.918879 148.423529 
L 163.171725 128.207033 
L 163.256007 129.571294 
L 163.340289 85.029245 
L 163.424571 92.91171 
L 163.508853 92.241355 
L 163.677417 72.827608 
L 163.845981 84.332756 
L 164.014545 65.541246 
L 164.18311 77.745459 
L 164.351674 74.463199 
L 164.435956 73.226616 
L 164.60452 86.626534 
L 164.773084 61.299556 
L 164.857366 66.543365 
L 165.02593 100.477639 
L 165.278777 66.122481 
L 165.447341 94.323052 
L 165.615905 83.584309 
L 165.868751 91.50536 
L 165.953033 90.933345 
L 166.121597 71.971067 
L 166.290161 111.642066 
L 166.458726 77.667863 
L 166.543008 77.762995 
L 166.795854 98.66576 
L 166.880136 98.33197 
L 166.964418 93.111492 
L 167.132982 113.948637 
L 167.385828 86.566393 
L 167.47011 86.483621 
L 167.807239 104.034323 
L 167.891521 104.555517 
L 168.060085 109.26319 
L 168.228649 94.673486 
L 168.312931 96.22646 
L 168.481495 106.914304 
L 168.650059 98.878762 
L 168.818624 123.954346 
L 169.07147 106.038521 
L 169.155752 103.237015 
L 169.324316 104.404797 
L 169.49288 124.816521 
L 169.745726 107.2783 
L 169.914291 110.206587 
L 170.082855 99.319444 
L 170.251419 107.023645 
L 170.419983 132.967522 
L 170.672829 97.758068 
L 170.925675 125.837566 
L 171.009958 127.456572 
L 171.178522 119.11679 
L 171.262804 119.61112 
L 171.347086 119.691923 
L 171.431368 130.614258 
L 171.51565 127.546366 
L 171.684214 117.524266 
L 171.768496 119.628553 
L 171.93706 133.383398 
L 172.021342 118.619277 
L 172.105624 124.38895 
L 172.189907 137.774927 
L 172.274189 136.010442 
L 172.442753 119.066868 
L 172.527035 111.911054 
L 172.779881 134.667795 
L 172.948445 135.143935 
L 173.032727 134.326187 
L 173.117009 135.257882 
L 173.201291 135.157219 
L 173.369856 128.001568 
L 173.53842 146.649339 
L 173.706984 139.646464 
L 173.791266 142.399436 
L 173.875548 142.127514 
L 174.044112 134.646915 
L 174.128394 135.221483 
L 174.212676 133.968492 
L 174.38124 142.428346 
L 174.549805 144.586983 
L 174.718369 134.327776 
L 174.886933 148.644687 
L 175.139779 137.748177 
L 175.224061 138.330368 
L 175.308343 145.941668 
L 175.476907 226.671891 
L 175.561189 226.640213 
L 175.729754 141.120038 
L 175.814036 146.991638 
L 175.898318 225.091698 
L 176.066882 141.04944 
L 176.235446 231.583376 
L 176.40401 225.970894 
L 176.572574 145.891986 
L 176.741138 142.402874 
L 176.909703 231.82056 
L 177.078267 224.765084 
L 177.162549 225.498135 
L 177.246831 224.743553 
L 177.415395 232.704097 
L 177.499677 224.803411 
L 177.583959 143.252324 
L 177.752523 231.806905 
L 177.836805 231.806905 
L 178.00537 234.13151 
L 178.173934 230.658591 
L 178.342498 236.705356 
L 178.511062 229.630684 
L 178.679626 235.508389 
L 178.84819 226.121251 
L 179.016754 237.522209 
L 179.101037 237.522209 
L 179.269601 226.382663 
L 179.522447 233.62852 
L 179.775293 232.434963 
L 179.943857 248.003954 
L 180.028139 228.25313 
L 180.112421 140.40958 
L 180.280986 239.473299 
L 180.365268 228.143455 
L 180.44955 145.935141 
L 180.618114 235.21657 
L 180.87096 226.831382 
L 180.955242 226.648267 
L 181.29237 230.934176 
L 181.376653 230.344882 
L 181.460935 230.461772 
L 181.629499 226.826334 
L 181.798063 238.325824 
L 181.966627 229.241182 
L 182.135191 238.13591 
L 182.219473 232.373215 
L 182.388037 241.073253 
L 182.556602 226.649527 
L 182.725166 237.714337 
L 182.89373 228.506228 
L 183.062294 232.113848 
L 183.230858 242.32693 
L 183.483704 232.591141 
L 183.567986 232.460278 
L 183.905115 235.18299 
L 183.989397 235.18299 
L 184.157961 240.159238 
L 184.242243 232.27716 
L 184.495089 246.931058 
L 184.747935 234.985923 
L 184.832218 235.042983 
L 185.000782 235.702653 
L 185.169346 233.561791 
L 185.33791 231.665283 
L 185.422192 224.771946 
L 185.506474 144.929324 
L 185.675038 238.034948 
L 185.75932 238.599127 
L 186.096449 226.842837 
L 186.180731 228.966706 
L 186.265013 231.682823 
L 186.349295 231.469811 
L 186.602141 228.899486 
L 186.686423 228.931135 
L 186.854987 232.252964 
L 186.939269 229.045088 
L 187.023551 229.673361 
L 187.107833 231.76938 
L 187.192116 231.468689 
L 187.276398 231.47029 
L 187.444962 228.167322 
L 187.529244 228.483887 
L 187.613526 230.06887 
L 187.78209 146.246602 
L 187.950654 237.638208 
L 188.034936 237.638208 
L 188.372065 226.599987 
L 188.540629 148.006933 
L 188.624911 146.071193 
L 188.793475 232.709007 
L 188.962039 224.925391 
L 189.046321 225.755505 
L 189.130603 226.719519 
L 189.299167 225.540879 
L 189.636296 231.493114 
L 189.973424 224.292637 
L 190.141988 227.708274 
L 190.310552 224.937604 
L 190.479116 229.523249 
L 190.563398 229.796637 
L 190.647681 229.62503 
L 190.731963 225.040616 
L 190.900527 147.806363 
L 190.984809 147.405058 
L 191.069091 146.212868 
L 191.321937 147.633446 
L 191.490501 137.033136 
L 191.659065 147.028716 
L 191.82763 131.195406 
L 191.911912 143.665976 
L 191.996194 229.952015 
L 192.080476 229.074403 
L 192.24904 142.127435 
L 192.417604 144.352018 
L 192.501886 143.859941 
L 192.586168 145.214995 
L 192.754732 138.273112 
L 192.923297 148.783389 
L 193.091861 227.218084 
L 193.260425 140.649635 
L 193.428989 147.605223 
L 193.597553 140.243864 
L 193.681835 140.571485 
L 193.766117 141.784437 
L 193.934681 134.841516 
L 194.103246 137.332224 
L 194.187528 135.546917 
L 194.356092 142.921345 
L 194.524656 135.12734 
L 194.69322 143.815026 
L 194.861784 133.839705 
L 195.030348 140.747928 
L 195.11463 137.49387 
L 195.283195 149.032441 
L 195.451759 136.790287 
L 195.620323 145.914613 
L 195.788887 142.565791 
L 195.957451 146.84295 
L 196.126015 141.037676 
L 196.378862 146.252535 
L 196.463144 146.457621 
L 196.631708 136.724392 
L 196.71599 149.403815 
L 196.800272 232.505454 
L 196.884554 230.793861 
L 197.053118 224.904739 
L 197.221682 145.957518 
L 197.305964 145.780479 
L 197.474528 229.140227 
L 197.558811 149.26009 
L 197.727375 235.583796 
L 197.895939 141.195977 
L 197.980221 149.733035 
L 198.064503 229.84055 
L 198.148785 228.725889 
L 198.233067 226.824231 
L 198.401631 146.21154 
L 198.485913 148.465875 
L 198.570195 224.84558 
L 198.73876 141.471036 
L 198.823042 141.471036 
L 198.991606 229.050422 
L 199.075888 224.857476 
L 199.16017 148.041404 
L 199.328734 229.532322 
L 199.58158 224.828358 
L 199.665862 225.117815 
L 199.834427 229.588225 
L 200.087273 225.471147 
L 200.171555 225.380477 
L 200.255837 225.608774 
L 200.340119 224.602016 
L 200.508683 225.732796 
L 200.677247 137.928273 
L 200.761529 144.97952 
L 200.845811 224.898346 
L 201.014376 145.627137 
L 201.098658 145.627137 
L 201.18294 146.417678 
L 201.351504 145.411711 
L 201.520068 149.256609 
L 201.60435 225.096947 
L 201.688632 224.284759 
L 201.772914 224.284759 
L 201.941478 229.036961 
L 202.02576 225.705185 
L 202.110042 148.816942 
L 202.278607 230.630053 
L 202.447171 146.316942 
L 202.615735 226.84256 
L 202.700017 227.103604 
L 202.868581 224.557771 
L 203.037145 146.787224 
L 203.205709 147.933027 
L 203.374274 228.634309 
L 203.542838 143.156286 
L 203.711402 230.682825 
L 203.879966 143.33131 
L 203.964248 146.955324 
L 204.132812 226.214253 
L 204.301376 227.878696 
L 204.385658 227.878696 
L 204.554223 144.285223 
L 204.722787 149.201394 
L 204.891351 230.586492 
L 204.975633 230.62586 
L 205.059915 229.4901 
L 205.228479 130.124969 
L 205.312761 145.383795 
L 205.397043 232.141709 
L 205.481325 229.512349 
L 205.565607 226.918031 
L 205.734172 146.007953 
L 205.818454 148.128279 
L 205.987018 146.899122 
L 206.0713 149.374043 
L 206.155582 226.432424 
L 206.324146 139.857729 
L 206.408428 139.857729 
L 206.49271 146.699774 
L 206.576992 227.091905 
L 206.661274 224.317743 
L 206.829839 145.785481 
L 206.998403 146.366115 
L 207.166967 148.653976 
L 207.335531 140.340239 
L 207.504095 145.993257 
L 207.672659 140.523546 
L 207.841223 148.526827 
L 208.009788 135.861769 
L 208.262634 144.53439 
L 208.346916 144.53439 
L 208.599762 145.839565 
L 208.768326 227.892512 
L 208.93689 143.231251 
L 209.105455 286.334774 
L 209.274019 277.861501 
L 209.442583 285.812798 
L 209.779711 278.706045 
L 210.032557 283.635855 
L 210.201121 279.94338 
L 210.285404 277.972307 
L 210.453968 267.785786 
L 210.706814 275.237822 
L 210.791096 275.096911 
L 210.875378 276.916733 
L 211.043942 263.961761 
L 211.212506 275.11384 
L 211.549635 264.160889 
L 211.633917 269.899533 
L 211.802481 262.601996 
L 211.971045 266.896417 
L 212.223891 260.711244 
L 212.308173 261.547909 
L 212.476737 257.266771 
L 212.645302 268.678683 
L 212.813866 257.975422 
L 212.898148 262.03976 
L 213.066712 258.424589 
L 213.235276 266.800736 
L 213.40384 255.18162 
L 213.656686 262.793517 
L 213.825251 255.455638 
L 213.993815 262.911433 
L 214.162379 242.067698 
L 214.415225 260.639996 
L 214.583789 257.408082 
L 214.752353 244.253764 
L 215.0052 257.640364 
L 215.089482 257.807162 
L 215.342328 244.330276 
L 215.510892 264.40098 
L 215.763738 238.428343 
L 215.932302 270.236791 
L 216.185149 237.374808 
L 216.269431 234.909999 
L 216.522277 250.93388 
L 216.690841 235.67981 
L 216.859405 245.55558 
L 217.196534 235.067134 
L 217.280816 229.243729 
L 217.44938 246.672871 
L 217.617944 232.783669 
L 217.786508 245.802518 
L 217.87079 229.332932 
L 217.955072 143.365348 
L 218.039354 146.660961 
L 218.207918 234.512624 
L 218.292201 240.860752 
L 218.376483 148.985584 
L 218.545047 233.517345 
L 218.713611 134.897143 
L 218.882175 238.707834 
L 219.050739 227.989328 
L 219.135021 148.306887 
L 219.303585 242.865294 
L 219.556432 224.270043 
L 219.640714 148.141494 
L 219.809278 239.487562 
L 219.89356 228.643288 
L 219.977842 147.70932 
L 220.062124 224.550218 
L 220.230688 144.856795 
L 220.31497 148.127294 
L 220.399252 226.093986 
L 220.567816 144.747338 
L 220.736381 230.283667 
L 220.904945 134.80584 
L 221.157791 147.177398 
L 221.326355 134.642102 
L 221.579201 147.281135 
L 221.747766 225.140598 
L 221.91633 143.163599 
L 222.000612 142.993746 
L 222.084894 148.917637 
L 222.169176 228.530026 
L 222.253458 228.120481 
L 222.33774 225.841118 
L 222.506304 142.80039 
L 222.590586 142.80039 
L 222.674868 224.595253 
L 222.843432 139.20016 
L 223.011997 144.768729 
L 223.180561 116.85501 
L 223.433407 145.842773 
L 223.517689 226.282242 
L 223.686253 138.881062 
L 223.854817 129.464774 
L 224.023381 146.2055 
L 224.191946 128.85266 
L 224.36051 143.359678 
L 224.529074 120.877899 
L 224.613356 139.764075 
L 224.78192 226.752416 
L 224.866202 232.846593 
L 225.034766 89.049888 
L 225.287613 74.057946 
L 225.456177 79.909888 
L 225.540459 79.09325 
L 225.709023 60.929472 
L 225.793305 71.999193 
L 225.961869 59.104956 
L 226.046151 62.376132 
L 226.130433 66.585146 
L 226.298997 88.779528 
L 226.467562 68.163775 
L 226.551844 80.022176 
L 226.720408 71.888612 
L 226.888972 73.55665 
L 227.057536 53.568 
L 227.394664 79.871663 
L 227.478946 75.796668 
L 227.647511 57.934005 
L 227.816075 79.933175 
L 227.900357 74.690778 
L 228.068921 78.864794 
L 228.237485 63.106127 
L 228.490331 81.48123 
L 228.574613 78.270834 
L 228.658895 78.445181 
L 228.911742 96.972973 
L 229.164588 71.64778 
L 229.24887 73.981509 
L 229.417434 86.223692 
L 229.585998 76.819338 
L 229.838845 94.810001 
L 230.007409 77.83265 
L 230.175973 100.923405 
L 230.344537 80.768112 
L 230.597383 99.793425 
L 230.765947 86.826506 
L 230.850229 92.063664 
L 231.018794 79.431014 
L 231.187358 106.382784 
L 231.355922 90.887467 
L 231.524486 103.609158 
L 231.608768 102.501078 
L 231.861614 113.475454 
L 231.945896 113.093785 
L 232.11446 92.144912 
L 232.198743 96.085596 
L 232.367307 121.286853 
L 232.535871 107.588245 
L 232.620153 111.039766 
L 232.704435 110.691143 
L 232.872999 104.454449 
L 232.957281 109.767637 
L 233.041563 108.697357 
L 233.125845 105.81835 
L 233.547256 121.714385 
L 233.71582 110.630361 
L 233.884384 124.738386 
L 233.968666 124.015366 
L 234.13723 116.935156 
L 234.305794 128.642535 
L 234.474359 118.45049 
L 234.727205 135.152303 
L 234.895769 110.927892 
L 235.064333 137.671529 
L 235.148615 128.614701 
L 235.317179 149.632115 
L 235.485743 122.344081 
L 235.73859 137.638834 
L 235.822872 135.87052 
L 235.907154 137.009582 
L 236.075718 142.216123 
L 236.244282 121.424443 
L 236.412846 147.775023 
L 236.58141 139.675823 
L 236.749975 148.827605 
L 236.834257 225.177288 
L 237.002821 141.205993 
L 237.171385 147.013877 
L 237.339949 228.849684 
L 237.508513 138.215681 
L 237.677077 234.547512 
L 237.845641 226.252411 
L 237.929924 227.206326 
L 238.098488 231.925963 
L 238.267052 139.806376 
L 238.351334 149.570081 
L 238.519898 231.225337 
L 238.60418 228.944305 
L 238.772744 232.814494 
L 238.857026 232.814494 
L 238.941308 224.92696 
L 239.02559 144.309449 
L 239.109873 226.109655 
L 239.278437 143.48754 
L 239.447001 250.535209 
L 239.531283 234.635753 
L 239.615565 146.781027 
L 239.699847 149.618838 
L 239.868411 237.981237 
L 240.036975 245.938966 
L 240.121257 243.564578 
L 240.289822 228.603075 
L 240.458386 241.817743 
L 240.62695 234.554439 
L 240.795514 233.456905 
L 241.132642 236.843207 
L 241.216924 235.957639 
L 241.301206 233.905688 
L 241.469771 237.890235 
L 241.638335 230.506194 
L 241.806899 244.034227 
L 241.891181 239.424737 
L 241.975463 239.982226 
L 242.059745 243.296631 
L 242.228309 235.364875 
L 242.312591 235.895749 
L 242.396873 236.817894 
L 242.64972 247.373448 
L 242.734002 247.362409 
L 242.902566 237.858216 
L 243.07113 247.754779 
L 243.239694 237.432453 
L 243.408258 242.318708 
L 243.576822 240.017807 
L 243.661105 240.017807 
L 243.829669 236.244786 
L 243.998233 236.704396 
L 244.166797 241.008031 
L 244.335361 239.70755 
L 244.503925 232.457738 
L 244.588207 232.457738 
L 244.756771 224.752173 
L 244.925336 235.806813 
L 245.0939 226.331505 
L 245.346746 239.137778 
L 245.51531 229.513377 
L 245.599592 233.557775 
L 245.683874 226.123161 
L 245.852438 146.087237 
L 246.021003 230.109356 
L 246.105285 226.691215 
L 246.189567 149.68502 
L 246.358131 234.165742 
L 246.442413 224.912955 
L 246.526695 148.504715 
L 246.695259 234.120867 
L 246.779541 237.923413 
L 246.948105 232.277486 
L 247.032387 232.446432 
L 247.116669 232.90303 
L 247.285234 235.071765 
L 247.453798 228.182873 
L 247.790926 247.915227 
L 247.875208 233.923842 
L 248.043772 148.497245 
L 248.128054 149.521593 
L 248.212336 147.944055 
L 248.296619 148.451201 
L 248.465183 232.190991 
L 248.633747 141.103406 
L 248.718029 147.512158 
L 248.886593 229.297579 
L 248.970875 230.6433 
L 249.139439 224.946122 
L 249.729414 235.72769 
L 249.813696 234.77034 
L 249.98226 142.940984 
L 250.150824 231.360533 
L 250.235106 226.252535 
L 250.319388 148.912414 
L 250.40367 225.906409 
L 250.572234 146.614017 
L 250.656517 149.465679 
L 250.740799 224.872585 
L 250.825081 224.812905 
L 250.909363 225.137785 
L 251.077927 144.267993 
L 251.246491 231.618519 
L 251.415055 142.388256 
L 251.499337 148.052139 
L 251.667901 227.422355 
L 251.920748 243.472333 
L 252.00503 228.00967 
L 252.089312 142.280748 
L 252.257876 234.484915 
L 252.42644 225.94138 
L 252.510722 228.234263 
L 252.595004 225.744548 
L 252.679286 148.954427 
L 252.84785 227.530721 
L 253.016415 231.094344 
L 253.100697 225.74375 
L 253.184979 147.972529 
L 253.269261 148.956059 
L 253.353543 149.642638 
L 253.522107 132.709283 
L 253.690671 148.492802 
L 253.943517 140.958636 
L 254.112082 232.867474 
L 254.280646 135.079146 
L 254.364928 145.430629 
L 254.44921 228.60664 
L 254.617774 144.908757 
L 254.786338 149.332385 
L 254.954902 141.756491 
L 255.123466 149.001975 
L 255.376313 145.655034 
L 255.544877 143.028993 
L 255.629159 147.090464 
L 255.713441 224.408086 
L 255.882005 134.70331 
L 255.966287 144.278576 
L 256.050569 226.622642 
L 256.219133 143.829089 
L 256.387698 141.843675 
L 256.556262 142.504381 
L 256.89339 147.71155 
L 256.977672 147.532396 
L 257.061954 148.879426 
L 257.230518 137.441091 
L 257.399082 143.922317 
L 257.567647 231.673751 
L 257.651929 149.442541 
L 257.820493 228.446112 
L 258.073339 225.120018 
L 258.241903 231.429105 
L 258.410467 225.939011 
L 258.494749 227.652609 
L 258.663314 143.080684 
L 258.831878 231.926827 
L 259.000442 144.932898 
L 259.084724 143.863649 
L 259.169006 144.819497 
L 259.33757 227.572543 
L 259.506134 139.17692 
L 259.590416 146.201696 
L 259.674698 224.657716 
L 259.75898 146.206579 
L 259.843263 147.303762 
L 259.927545 148.457702 
L 260.011827 148.297325 
L 260.096109 148.027205 
L 260.264673 228.230129 
L 260.348955 227.766761 
L 260.433237 226.270606 
L 260.601801 148.276013 
L 260.686083 147.979207 
L 260.854647 230.843541 
L 261.023212 224.611549 
L 261.191776 147.111126 
L 261.36034 145.827012 
L 261.528904 226.712172 
L 261.697468 142.331747 
L 261.78175 147.741932 
L 261.866032 226.964812 
L 261.950314 225.721707 
L 262.118879 145.557004 
L 262.203161 143.335991 
L 262.456007 148.934213 
L 262.624571 226.369095 
L 262.708853 226.523428 
L 262.793135 224.971709 
L 262.877417 147.20692 
L 262.961699 147.642986 
L 263.130263 147.082978 
L 263.298828 232.711516 
L 263.38311 227.708548 
L 263.551674 138.441449 
L 263.635956 135.175586 
L 263.720238 147.619854 
L 263.80452 230.988896 
L 263.888802 226.943961 
L 264.057366 147.4321 
L 264.141648 146.851054 
L 264.310212 138.731231 
L 264.478777 146.340084 
L 264.647341 227.665027 
L 264.815905 143.808174 
L 265.068751 141.480904 
L 265.321597 144.720859 
L 265.405879 144.24299 
L 265.490161 144.456381 
L 265.658726 229.577055 
L 265.82729 138.634998 
L 266.080136 146.141759 
L 266.164418 145.978188 
L 266.332982 145.275446 
L 266.417264 145.104188 
L 266.585828 136.767338 
L 266.754393 144.846865 
L 266.922957 136.727133 
L 267.007239 146.018985 
L 267.091521 227.582694 
L 267.175803 224.417779 
L 267.260085 147.776967 
L 267.428649 228.326715 
L 267.597213 139.516235 
L 267.765777 232.964515 
L 267.850059 224.924423 
L 268.018624 144.481966 
L 268.187188 148.72003 
L 268.355752 146.170865 
L 268.440034 149.178095 
L 268.524316 226.538923 
L 268.69288 140.31091 
L 268.861444 146.759024 
L 269.030008 139.272801 
L 269.198573 146.975902 
L 269.367137 228.286141 
L 269.451419 224.746167 
L 269.535701 148.082678 
L 269.704265 226.401678 
L 269.872829 224.634442 
L 270.041393 147.784575 
L 270.209958 229.327011 
L 270.29424 226.10238 
L 270.462804 144.221927 
L 270.547086 141.358133 
L 270.631368 146.997238 
L 270.71565 225.219271 
L 270.884214 144.027363 
L 271.052778 141.104362 
L 271.221342 236.566077 
L 271.389907 224.2848 
L 271.558471 142.630118 
L 271.642753 149.595241 
L 271.811317 231.964122 
L 271.895599 230.728579 
L 271.979881 225.025371 
L 272.064163 148.25902 
L 272.232727 234.772453 
L 272.401291 226.640756 
L 272.569856 227.612213 
L 272.654138 226.857653 
L 272.73842 227.718345 
L 272.822702 226.068289 
L 272.906984 149.27368 
L 273.075548 225.585245 
L 273.244112 146.003726 
L 273.58124 140.553082 
L 273.749805 147.883939 
L 273.918369 226.338077 
L 274.086933 146.408081 
L 274.171215 148.973632 
L 274.255497 225.193092 
L 274.424061 148.823084 
L 274.508343 149.727624 
L 274.592625 149.372969 
L 274.676907 228.143536 
L 274.761189 225.965261 
L 274.929754 146.269068 
L 275.098318 147.221645 
L 275.1826 147.747553 
L 275.351164 146.125339 
L 275.519728 146.857005 
L 275.688292 133.327468 
L 275.856856 148.256718 
L 275.941138 147.845611 
L 276.193985 145.909299 
L 276.278267 144.328039 
L 276.446831 146.649873 
L 276.615395 227.206294 
L 276.783959 225.360602 
L 276.952523 147.577113 
L 277.121088 137.082536 
L 277.289652 239.309465 
L 277.373934 225.88504 
L 277.458216 141.246517 
L 277.542498 148.189968 
L 277.62678 226.855244 
L 277.795344 146.866956 
L 277.963908 146.077283 
L 278.04819 148.739572 
L 278.132472 224.811683 
L 278.301037 137.974235 
L 278.385319 144.926508 
L 278.469601 226.036291 
L 278.638165 147.4648 
L 278.722447 148.047726 
L 278.806729 147.600644 
L 278.891011 145.966794 
L 278.975293 146.554347 
L 279.059575 148.770117 
L 279.228139 226.462634 
L 279.312421 227.278331 
L 279.396703 225.148259 
L 279.480986 148.549475 
L 279.64955 225.925982 
L 279.733832 148.628235 
L 279.818114 148.816228 
L 279.986678 225.539321 
L 280.07096 226.167707 
L 280.239524 146.486473 
L 280.323806 148.937529 
L 280.408088 148.285953 
L 280.49237 145.187675 
L 280.660935 149.323631 
L 280.745217 148.623688 
L 280.829499 147.348152 
L 280.998063 228.929727 
L 281.082345 229.796593 
L 281.166627 228.455664 
L 281.335191 138.530798 
L 281.503755 148.086322 
L 281.588037 147.984305 
L 281.756602 149.378533 
L 281.925166 146.778623 
L 282.09373 229.666428 
L 282.178012 225.561343 
L 282.346576 145.838911 
L 282.430858 145.347198 
L 282.599422 227.557542 
L 282.767986 230.083636 
L 282.936551 225.929983 
L 283.020833 225.466402 
L 283.189397 228.524827 
L 283.357961 226.004802 
L 283.526525 232.617922 
L 283.695089 138.052621 
L 283.779371 145.553215 
L 283.863653 227.313579 
L 283.947935 225.274582 
L 284.032218 148.627066 
L 284.200782 225.767527 
L 284.369346 136.953173 
L 284.453628 144.406363 
L 284.53791 226.521878 
L 284.622192 224.829462 
L 284.706474 147.178519 
L 284.790756 149.198669 
L 284.875038 226.000295 
L 284.95932 225.238921 
L 285.127884 149.010018 
L 285.296449 232.129218 
L 285.380731 226.203826 
L 285.465013 146.26939 
L 285.549295 147.986489 
L 285.633577 149.365072 
L 285.802141 226.92175 
L 285.886423 227.482403 
L 285.970705 226.014822 
L 286.139269 149.08921 
L 286.307833 145.939964 
L 286.392116 146.869711 
L 286.56068 228.113028 
L 286.729244 145.367289 
L 286.813526 149.02777 
L 286.897808 226.469982 
L 286.98209 225.180591 
L 287.150654 146.949873 
L 287.234936 146.605883 
L 287.319218 148.707787 
L 287.487782 226.625241 
L 287.572065 227.939418 
L 287.656347 227.854588 
L 287.740629 226.62447 
L 287.909193 230.786692 
L 288.077757 144.608767 
L 288.246321 231.093083 
L 288.414885 224.607796 
L 288.583449 231.831507 
L 288.667732 225.241433 
L 288.752014 147.728273 
L 288.836296 148.651787 
L 288.920578 148.496107 
L 289.00486 147.85802 
L 289.089142 147.957306 
L 289.257706 228.51253 
L 289.42627 226.176438 
L 289.594834 135.010319 
L 289.679116 146.704289 
L 289.763398 230.954572 
L 289.847681 227.921431 
L 289.931963 148.683844 
L 290.100527 231.306219 
L 290.269091 227.898261 
L 290.437655 229.407396 
L 290.606219 145.254829 
L 290.690501 144.980574 
L 290.774783 145.044801 
L 290.943347 229.128821 
L 291.196194 224.42389 
L 291.280476 224.737626 
L 291.364758 226.290175 
L 291.533322 146.005436 
L 291.701886 149.627929 
L 291.87045 136.13535 
L 291.954732 149.454399 
L 292.039014 235.05453 
L 292.123297 230.399521 
L 292.207579 225.780616 
L 292.376143 144.05492 
L 292.460425 147.352061 
L 292.628989 226.906656 
L 292.797553 229.60294 
L 292.881835 229.191391 
L 293.050399 145.214457 
L 293.134681 142.567331 
L 293.303246 248.452268 
L 293.387528 248.452268 
L 293.47181 234.48874 
L 293.640374 139.194165 
L 293.724656 138.100293 
L 293.808938 145.160322 
L 293.89322 225.056172 
L 293.977502 224.489463 
L 294.061784 148.929668 
L 294.146066 226.606117 
L 294.230348 224.38464 
L 294.31463 146.195984 
L 294.483195 228.59923 
L 294.651759 230.133644 
L 294.736041 227.951034 
L 294.904605 145.828103 
L 294.988887 149.303695 
L 295.157451 229.702609 
L 295.241733 230.020666 
L 295.410297 225.391903 
L 295.578862 133.795264 
L 295.663144 143.544642 
L 295.747426 226.455938 
L 295.831708 225.923 
L 296.000272 144.905386 
L 296.168836 142.925347 
L 296.3374 126.927867 
L 296.421682 144.154361 
L 296.505964 232.745497 
L 296.590246 229.221722 
L 296.674528 224.935506 
L 296.843093 141.520661 
L 296.927375 226.082084 
L 297.011657 225.90905 
L 297.095939 146.460884 
L 297.180221 147.483642 
L 297.264503 148.50251 
L 297.433067 146.380342 
L 297.517349 148.701841 
L 297.601631 148.39524 
L 297.770195 148.479604 
L 297.93876 138.784458 
L 298.023042 145.006051 
L 298.191606 224.863432 
L 298.36017 143.577387 
L 298.528734 147.746402 
L 298.697298 228.058909 
L 298.865862 145.371338 
L 298.950144 144.209542 
L 299.118709 230.810027 
L 299.202991 230.860426 
L 299.287273 229.871596 
L 299.371555 225.740363 
L 299.455837 148.250456 
L 299.624401 228.780763 
L 299.708683 228.780763 
L 299.792965 229.565163 
L 299.961529 144.090053 
L 300.130093 233.830603 
L 300.551504 225.262274 
L 300.635786 149.317193 
L 300.80435 227.156714 
L 300.888632 224.979767 
L 301.057196 145.182639 
L 301.141478 142.872134 
L 301.310042 235.290742 
L 301.478607 227.211582 
L 301.647171 234.556531 
L 301.731453 229.265486 
L 301.815735 149.178888 
L 301.984299 229.30162 
L 302.068581 228.869328 
L 302.152863 227.692644 
L 302.237145 228.280441 
L 302.321427 227.982041 
L 302.489992 144.509752 
L 302.658556 229.440134 
L 302.742838 225.807162 
L 302.911402 139.702548 
L 302.995684 145.921539 
L 303.164248 229.116805 
L 303.24853 229.063228 
L 303.332812 229.752556 
L 303.501376 144.288362 
L 303.585658 147.282686 
L 303.754223 238.321988 
L 303.838505 244.390367 
L 303.922787 231.611423 
L 304.007069 147.524366 
L 304.175633 228.354969 
L 304.259915 228.447531 
L 304.428479 236.513831 
L 304.597043 234.191419 
L 304.681325 225.962043 
L 304.765607 144.833322 
L 304.84989 148.34659 
L 305.018454 231.243214 
L 305.102736 234.343083 
L 305.187018 232.857049 
L 305.2713 290.721683 
L 305.355582 286.602249 
L 305.439864 283.075931 
L 305.608428 286.122375 
L 305.776992 284.244569 
L 305.861274 284.012276 
L 306.029839 294.750987 
L 306.198403 284.877982 
L 306.366967 295.488 
L 306.535531 286.706158 
L 306.704095 294.076172 
L 306.872659 281.777348 
L 306.956941 282.559382 
L 307.125506 272.418489 
L 307.29407 294.328636 
L 307.462634 282.393135 
L 307.799762 287.573676 
L 307.968326 278.597932 
L 308.052608 278.597932 
L 308.13689 277.634378 
L 308.221172 278.149908 
L 308.389737 286.179833 
L 308.558301 270.251675 
L 308.642583 270.251675 
L 308.895429 280.837759 
L 309.148275 271.101921 
L 309.401121 275.003332 
L 309.569686 273.366363 
L 309.822532 260.730687 
L 309.906814 260.713327 
L 310.243942 268.394474 
L 310.412506 256.858578 
L 310.496788 256.858578 
L 310.665353 272.925354 
L 310.833917 255.85262 
L 311.002481 268.748623 
L 311.171045 249.124505 
L 311.423891 264.105833 
L 311.676737 259.869267 
L 311.845302 249.465005 
L 311.929584 251.413679 
L 312.013866 251.12182 
L 312.098148 251.744029 
L 312.18243 250.877751 
L 312.266712 251.028415 
L 312.435276 253.047232 
L 312.519558 252.986148 
L 312.60384 252.024541 
L 312.772404 248.322105 
L 312.856686 248.758023 
L 312.940969 247.169406 
L 313.025251 247.380035 
L 313.193815 238.025415 
L 313.530943 246.951935 
L 313.783789 236.921156 
L 313.952353 249.388186 
L 314.289482 229.40017 
L 314.458046 252.350566 
L 314.62661 227.289702 
L 314.710892 232.100767 
L 314.795174 231.446333 
L 314.879456 230.097555 
L 315.04802 238.886412 
L 315.132302 227.094394 
L 315.216585 144.411378 
L 315.385149 246.069828 
L 315.469431 228.782206 
L 315.553713 148.18022 
L 315.722277 230.955981 
L 315.806559 233.837128 
L 315.975123 225.936569 
L 316.059405 225.991582 
L 316.227969 146.234396 
L 316.396534 134.692891 
L 316.480816 145.661867 
L 316.565098 229.232786 
L 316.733662 127.377433 
L 316.902226 227.933903 
L 316.986508 139.522008 
L 317.07079 145.952959 
L 317.155072 225.653065 
L 317.323636 125.908684 
L 317.492201 142.655406 
L 317.576483 141.165941 
L 317.660765 142.518616 
L 317.745047 142.029334 
L 317.829329 145.015762 
L 317.997893 133.448757 
L 318.250739 146.131427 
L 318.419303 128.043503 
L 318.756432 145.766157 
L 319.009278 126.994581 
L 319.09356 128.246619 
L 319.346406 136.781216 
L 319.51497 127.067807 
L 319.683534 132.977498 
L 319.767816 144.496089 
L 319.852099 140.649202 
L 320.020663 127.785577 
L 320.104945 128.107228 
L 320.273509 130.435739 
L 320.357791 135.543034 
L 320.526355 125.979921 
L 320.779201 137.294299 
L 320.863483 136.637367 
L 321.032048 127.088297 
L 321.11633 127.021057 
L 321.369176 132.735235 
L 321.453458 132.843437 
L 321.622022 118.249667 
L 321.706304 121.843928 
L 321.874868 139.937502 
L 322.127715 130.741588 
L 322.296279 119.607193 
L 322.380561 60.845988 
L 322.464843 67.371391 
L 322.633407 61.778948 
L 322.801971 64.682839 
L 322.970535 81.553474 
L 323.054817 77.748361 
L 323.223381 64.926997 
L 323.307664 63.317776 
L 323.391946 65.996995 
L 323.56051 78.838555 
L 323.644792 74.232514 
L 323.813356 89.416705 
L 323.98192 72.027207 
L 324.150484 87.522558 
L 324.234766 81.597774 
L 324.571895 93.725166 
L 324.740459 62.887461 
L 324.909023 93.294084 
L 324.993305 82.814383 
L 325.246151 92.435312 
L 325.498997 81.11025 
L 325.58328 88.762146 
L 325.667562 86.364328 
L 325.751844 81.049495 
L 325.920408 89.049697 
L 326.088972 84.144077 
L 326.257536 99.438953 
L 326.4261 78.057165 
L 326.594664 109.282456 
L 326.763229 97.212971 
L 326.931793 104.80118 
L 327.016075 104.344519 
L 327.184639 77.009338 
L 327.437485 105.769485 
L 327.690331 100.162282 
L 327.774613 101.831152 
L 327.943178 108.33981 
L 328.02746 108.494042 
L 328.111742 106.230641 
L 328.44887 119.031256 
L 328.617434 90.626705 
L 328.785998 122.944064 
L 329.038845 112.382062 
L 329.123127 112.531952 
L 329.207409 112.079567 
L 329.291691 109.083377 
L 329.544537 121.380379 
L 329.713101 115.24738 
L 329.881665 122.593495 
L 330.050229 119.635332 
L 330.218794 122.406325 
L 330.303076 112.374962 
L 330.47164 137.958246 
L 330.555922 134.722727 
L 330.724486 118.581485 
L 330.977332 134.550639 
L 331.061614 139.623965 
L 331.398743 114.089538 
L 331.567307 145.060754 
L 331.735871 126.752976 
L 331.904435 129.113941 
L 331.988717 135.425158 
L 332.157281 124.093952 
L 332.325845 143.865527 
L 332.578692 130.177313 
L 332.662974 130.41775 
L 332.831538 143.177392 
L 332.91582 142.701238 
L 333.000102 140.724381 
L 333.168666 142.098064 
L 333.252948 142.152824 
L 333.33723 141.185402 
L 333.505794 146.39855 
L 333.590076 147.197754 
L 333.674359 146.720988 
L 333.842923 129.602939 
L 333.927205 143.075671 
L 334.095769 230.44337 
L 334.264333 140.491145 
L 334.432897 234.409438 
L 334.517179 224.735726 
L 334.685743 242.592945 
L 334.854308 225.176955 
L 334.93859 227.33554 
L 335.022872 228.009292 
L 335.191436 145.568815 
L 335.275718 145.837488 
L 335.36 146.86728 
L 335.528564 140.516916 
L 335.697128 236.882005 
L 335.78141 228.677428 
L 335.865692 147.074009 
L 336.034257 232.823775 
L 336.118539 227.264381 
L 336.287103 149.573959 
L 336.455667 228.608625 
L 336.624231 236.636308 
L 336.708513 236.636308 
L 336.877077 231.954049 
L 337.045641 233.033199 
L 337.129924 233.033199 
L 337.298488 238.643921 
L 337.467052 235.549036 
L 337.635616 239.076913 
L 337.80418 235.634356 
L 337.972744 236.587943 
L 338.057026 234.920923 
L 338.22559 235.731477 
L 338.394155 228.843405 
L 338.562719 231.368822 
L 338.731283 230.286879 
L 339.068411 235.799451 
L 339.236975 227.856854 
L 339.321257 231.485204 
L 339.40554 227.7707 
L 339.489822 149.051868 
L 339.658386 236.034394 
L 339.742668 236.034394 
L 339.911232 230.269344 
L 340.079796 233.124985 
L 340.24836 232.179135 
L 340.332642 232.566477 
L 340.416924 232.879145 
L 340.501206 231.644132 
L 340.669771 235.217697 
L 340.838335 231.116567 
L 341.006899 224.793219 
L 341.175463 238.784672 
L 341.596873 228.920423 
L 341.681155 227.990424 
L 342.018284 236.268235 
L 342.186848 226.683572 
L 342.355412 240.872802 
L 342.523976 230.183189 
L 342.69254 234.151279 
L 342.776822 234.855523 
L 342.945387 233.352756 
L 343.029669 233.352756 
L 343.113951 234.432901 
L 343.282515 224.878496 
L 343.366797 224.469318 
L 343.451079 225.212031 
L 343.619643 233.243915 
L 343.788207 231.896187 
L 343.956771 225.136349 
L 344.125336 234.163605 
L 344.209618 230.6061 
L 344.378182 141.668257 
L 344.462464 147.163403 
L 344.631028 227.896927 
L 344.71531 228.494228 
L 344.799592 226.32799 
L 344.883874 149.648287 
L 345.052438 233.248244 
L 345.221003 227.937606 
L 345.305285 228.915064 
L 345.389567 231.251494 
L 345.558131 229.898689 
L 345.810977 234.227932 
L 345.895259 233.941768 
L 346.063823 230.862278 
L 346.232387 243.781871 
L 346.316669 241.879068 
L 346.485234 232.348319 
L 346.569516 235.928661 
L 346.653798 241.124015 
L 346.822362 233.083492 
L 346.906644 233.592137 
L 347.15949 237.26076 
L 347.328054 232.160967 
L 347.496619 237.540213 
L 347.665183 233.369312 
L 347.833747 238.987394 
L 348.002311 236.270591 
L 348.170875 226.474039 
L 348.339439 240.481632 
L 348.508003 233.177297 
L 348.592285 233.7598 
L 348.76085 228.669745 
L 348.929414 232.884517 
L 349.013696 231.808385 
L 349.097978 231.884124 
L 349.266542 142.853947 
L 349.435106 242.126845 
L 349.60367 230.927942 
L 349.772234 236.177578 
L 349.940799 226.28 
L 350.025081 230.634072 
L 350.277927 225.19747 
L 350.362209 224.995005 
L 350.446491 224.383776 
L 350.530773 224.49812 
L 350.699337 143.858626 
L 350.783619 148.717294 
L 350.867901 226.967833 
L 350.952184 226.54982 
L 351.036466 227.198209 
L 351.120748 229.575252 
L 351.20503 229.496173 
L 351.457876 224.533716 
L 351.542158 148.837267 
L 351.710722 235.425618 
L 351.795004 227.222413 
L 351.879286 147.035926 
L 351.963568 148.980673 
L 352.04785 226.000902 
L 352.132133 224.901775 
L 352.216415 224.463292 
L 352.384979 145.52543 
L 352.553543 229.279523 
L 352.637825 229.279523 
L 352.722107 228.649943 
L 352.890671 224.348888 
L 353.059235 145.825745 
L 353.143517 145.210078 
L 353.227799 147.266564 
L 353.480646 139.238233 
L 353.733492 143.376539 
L 353.817774 147.726611 
L 353.902056 225.078006 
L 354.07062 140.188098 
L 354.154902 141.196927 
L 354.323466 145.940593 
L 354.492031 227.23838 
L 354.660595 225.859336 
L 354.829159 133.956674 
L 354.913441 143.914707 
L 354.997723 226.977067 
L 355.166287 144.320113 
L 355.250569 143.889674 
L 355.419133 147.633335 
L 355.503415 146.597454 
L 355.587698 147.421869 
L 355.67198 146.685875 
L 355.756262 144.324201 
L 355.840544 147.734189 
L 355.924826 225.128373 
L 356.09339 146.364591 
L 356.261954 136.272126 
L 356.430518 148.609985 
L 356.5148 148.537347 
L 356.683364 139.05689 
L 356.767647 149.163496 
L 356.851929 229.801963 
L 357.020493 140.876097 
L 357.189057 149.087067 
L 357.357621 144.558895 
L 357.441903 149.616142 
L 357.526185 148.699527 
L 357.779031 142.276665 
L 357.947596 147.007049 
L 358.11616 141.130214 
L 358.284724 142.378758 
L 358.453288 141.096499 
L 358.53757 141.714766 
L 358.706134 145.938737 
L 358.874698 134.112448 
L 359.043263 145.392329 
L 359.127545 144.254241 
L 359.296109 147.082237 
L 359.380391 147.033243 
L 359.548955 147.556138 
L 359.717519 140.524902 
L 359.801801 142.608847 
L 359.886083 141.856041 
L 359.970365 142.047951 
L 360.138929 144.717125 
L 360.307494 134.872106 
L 360.644622 146.348498 
L 360.98175 137.742141 
L 361.234596 147.072924 
L 361.403161 138.425884 
L 361.487443 145.319673 
L 361.571725 226.087594 
L 361.656007 224.444798 
L 361.824571 142.870086 
L 361.908853 140.428511 
L 361.993135 141.042311 
L 362.077417 148.8513 
L 362.161699 227.651236 
L 362.330263 139.24714 
L 362.498828 145.869089 
L 362.751674 143.385606 
L 362.835956 148.125825 
L 362.920238 147.869479 
L 363.00452 145.397818 
L 363.173084 228.114361 
L 363.257366 228.114361 
L 363.42593 224.32835 
L 363.594494 148.625863 
L 363.678777 148.40338 
L 363.847341 226.612112 
L 364.015905 235.87735 
L 364.184469 226.884573 
L 364.353033 145.895494 
L 364.437315 148.641802 
L 364.521597 225.095244 
L 364.690161 139.783932 
L 364.774444 137.950006 
L 365.02729 140.59284 
L 365.364418 148.26309 
L 365.532982 139.646257 
L 365.617264 139.646257 
L 365.701546 148.088057 
L 365.785828 230.139779 
L 365.87011 227.986523 
L 366.038675 144.723963 
L 366.207239 147.907912 
L 366.375803 235.274113 
L 366.460085 229.165639 
L 366.628649 147.616466 
L 366.712931 146.94119 
L 366.797213 148.554225 
L 366.965777 230.055751 
L 367.050059 232.997687 
L 367.134342 226.01217 
L 367.302906 142.373798 
L 367.387188 142.843525 
L 367.724316 149.732478 
L 368.061444 141.358658 
L 368.230008 234.771899 
L 368.314291 233.213904 
L 368.398573 225.314914 
L 368.482855 148.095545 
L 368.651419 244.793029 
L 368.904265 226.288505 
L 368.988547 227.107008 
L 369.157111 229.307335 
L 369.241393 229.307335 
L 369.409958 227.700878 
L 369.578522 140.883388 
L 369.747086 148.158248 
L 369.831368 146.527044 
L 369.999932 142.83331 
L 370.252778 145.860319 
L 370.421342 143.889371 
L 370.589907 235.245422 
L 370.758471 226.410983 
L 370.842753 143.115004 
L 371.011317 235.60283 
L 371.095599 229.640883 
L 371.179881 148.629019 
L 371.348445 227.43091 
L 371.517009 235.502267 
L 371.601291 228.320604 
L 371.769856 142.579974 
L 371.854138 140.238326 
L 371.93842 145.954427 
L 372.022702 225.446407 
L 372.191266 142.82751 
L 372.275548 146.56484 
L 372.35983 224.308259 
L 372.528394 142.326112 
L 372.612676 147.609077 
L 372.78124 227.988646 
L 372.865523 229.304116 
L 373.034087 145.409489 
L 373.118369 149.002279 
L 373.202651 226.759155 
L 373.286933 224.558051 
L 373.371215 149.106879 
L 373.455497 149.194299 
L 373.624061 224.467177 
L 373.792625 228.476625 
L 373.961189 145.759413 
L 374.129754 145.850511 
L 374.298318 137.63577 
L 374.466882 147.736357 
L 374.719728 137.485975 
L 374.888292 142.146398 
L 374.972574 141.563705 
L 375.056856 142.61693 
L 375.225421 141.01444 
L 375.309703 144.749774 
L 375.562549 139.754143 
L 375.646831 139.966313 
L 375.731113 147.908489 
L 375.815395 226.545535 
L 375.983959 144.51478 
L 376.152523 145.816065 
L 376.321088 142.768016 
L 376.489652 143.855444 
L 376.658216 141.99184 
L 376.82678 145.066912 
L 376.911062 145.066912 
L 377.079626 141.363494 
L 377.332472 143.871312 
L 377.416754 148.561962 
L 377.501037 225.335674 
L 377.669601 141.17333 
L 377.922447 147.334129 
L 378.006729 147.912698 
L 378.175293 142.411263 
L 378.343857 147.107818 
L 378.512421 229.992282 
L 378.596703 227.123772 
L 378.765268 138.803185 
L 378.84955 136.31987 
L 378.933832 146.479945 
L 379.018114 227.334573 
L 379.102396 225.768739 
L 379.27096 140.819214 
L 379.355242 134.796395 
L 379.439524 144.563247 
L 379.523806 227.83091 
L 379.608088 225.210204 
L 379.776653 145.915511 
L 379.945217 284.244669 
L 380.029499 288.799997 
L 380.198063 270.830156 
L 380.535191 281.156198 
L 380.619473 281.459496 
L 380.788037 280.335357 
L 380.872319 282.720793 
L 380.956602 282.671638 
L 381.040884 275.712116 
L 381.29373 283.226487 
L 381.630858 271.970032 
L 381.799422 276.460453 
L 381.967986 275.749908 
L 382.136551 278.999638 
L 382.305115 274.122273 
L 382.389397 279.112652 
L 382.473679 276.871356 
L 382.726525 267.365475 
L 382.810807 264.326184 
L 382.895089 264.911252 
L 383.063653 272.824688 
L 383.232218 259.620235 
L 383.400782 271.544913 
L 383.73791 253.212467 
L 383.906474 269.599655 
L 383.990756 268.73825 
L 384.075038 266.397605 
L 384.15932 266.632369 
L 384.243602 266.034993 
L 384.412167 259.21722 
L 384.580731 268.637506 
L 384.833577 253.79706 
L 385.002141 269.419887 
L 385.170705 245.405971 
L 385.507833 257.566417 
L 385.592116 256.073383 
L 385.76068 242.601732 
L 385.929244 252.330108 
L 386.013526 250.426628 
L 386.097808 248.640613 
L 386.266372 252.542312 
L 386.350654 252.677444 
L 386.519218 255.008488 
L 386.772065 248.791443 
L 386.856347 249.599794 
L 387.024911 254.591405 
L 387.109193 253.022423 
L 387.277757 244.595438 
L 387.446321 250.588699 
L 387.614885 261.448664 
L 387.699167 238.48431 
L 387.783449 144.745413 
L 387.952014 247.753033 
L 388.036296 243.188436 
L 388.289142 255.510574 
L 388.373424 254.025451 
L 388.62627 242.118702 
L 388.710552 242.423444 
L 388.879116 236.429038 
L 388.963398 238.953315 
L 389.131963 236.30638 
L 389.300527 247.799979 
L 389.469091 239.006993 
L 389.637655 239.917695 
L 389.721937 240.316446 
L 389.806219 237.210432 
L 389.890501 237.286301 
L 390.059065 256.633604 
L 390.143347 237.795012 
L 390.22763 148.423153 
L 390.396194 243.455892 
L 390.564758 233.630359 
L 390.64904 234.545669 
L 390.817604 239.571213 
L 390.901886 230.927549 
L 390.986168 232.727695 
L 391.239014 242.396298 
L 391.407579 230.812335 
L 391.576143 233.337693 
L 391.744707 233.178033 
L 391.913271 231.636914 
L 392.081835 253.857249 
L 392.250399 224.340851 
L 392.418963 233.598004 
L 392.503246 230.924264 
L 392.587528 228.111185 
L 392.756092 244.006538 
L 393.09322 228.206972 
L 393.346066 235.544323 
L 393.51463 229.214157 
L 393.767477 238.724995 
L 393.936041 134.614468 
L 394.104605 140.400337 
L 394.273169 244.329189 
L 394.526015 224.7194 
L 394.694579 140.898134 
L 394.863144 146.045144 
L 395.031708 227.956221 
L 395.200272 239.813049 
L 395.284554 224.889166 
L 395.368836 142.039555 
L 395.453118 144.805023 
L 395.621682 149.456385 
L 395.705964 225.489334 
L 395.874528 148.196734 
L 395.958811 148.982151 
L 396.127375 131.664101 
L 396.380221 148.643259 
L 396.464503 224.710304 
L 396.633067 145.748337 
L 396.717349 147.224097 
L 396.885913 232.604987 
L 397.054477 63.104616 
L 397.223042 87.223254 
L 397.391606 74.748333 
L 397.475888 77.825927 
L 397.644452 106.852708 
L 397.813016 82.152356 
L 398.065862 106.11518 
L 398.318709 79.601411 
L 398.487273 98.921169 
L 398.487273 98.921169 
" style="fill:none;stroke:#1f77b4;stroke-linecap:square;stroke-width:1.5;"/>
   </g>
   <g id="patch_3">
    <path d="M 57.6 307.584 
L 57.6 41.472 
" style="fill:none;stroke:#000000;stroke-linecap:square;stroke-linejoin:miter;stroke-width:0.8;"/>
   </g>
   <g id="patch_4">
    <path d="M 414.72 307.584 
L 414.72 41.472 
" style="fill:none;stroke:#000000;stroke-linecap:square;stroke-linejoin:miter;stroke-width:0.8;"/>
   </g>
   <g id="patch_5">
    <path d="M 57.6 307.584 
L 414.72 307.584 
" style="fill:none;stroke:#000000;stroke-linecap:square;stroke-linejoin:miter;stroke-width:0.8;"/>
   </g>
   <g id="patch_6">
    <path d="M 57.6 41.472 
L 414.72 41.472 
" style="fill:none;stroke:#000000;stroke-linecap:square;stroke-linejoin:miter;stroke-width:0.8;"/>
   </g>
   <g id="text_19">
    <!-- Motor 5 speed history -->
    <defs>
     <path d="M 9.8125 72.90625 
L 24.515625 72.90625 
L 43.109375 23.296875 
L 61.8125 72.90625 
L 76.515625 72.90625 
L 76.515625 0 
L 66.890625 0 
L 66.890625 64.015625 
L 48.09375 14.015625 
L 38.1875 14.015625 
L 19.390625 64.015625 
L 19.390625 0 
L 9.8125 0 
z
" id="DejaVuSans-4d"/>
     <path d="M 30.609375 48.390625 
Q 23.390625 48.390625 19.1875 42.75 
Q 14.984375 37.109375 14.984375 27.296875 
Q 14.984375 17.484375 19.15625 11.84375 
Q 23.34375 6.203125 30.609375 6.203125 
Q 37.796875 6.203125 41.984375 11.859375 
Q 46.1875 17.53125 46.1875 27.296875 
Q 46.1875 37.015625 41.984375 42.703125 
Q 37.796875 48.390625 30.609375 48.390625 
z
M 30.609375 56 
Q 42.328125 56 49.015625 48.375 
Q 55.71875 40.765625 55.71875 27.296875 
Q 55.71875 13.875 49.015625 6.21875 
Q 42.328125 -1.421875 30.609375 -1.421875 
Q 18.84375 -1.421875 12.171875 6.21875 
Q 5.515625 13.875 5.515625 27.296875 
Q 5.515625 40.765625 12.171875 48.375 
Q 18.84375 56 30.609375 56 
z
" id="DejaVuSans-6f"/>
     <path d="M 18.3125 70.21875 
L 18.3125 54.6875 
L 36.8125 54.6875 
L 36.8125 47.703125 
L 18.3125 47.703125 
L 18.3125 18.015625 
Q 18.3125 11.328125 20.140625 9.421875 
Q 21.96875 7.515625 27.59375 7.515625 
L 36.8125 7.515625 
L 36.8125 0 
L 27.59375 0 
Q 17.1875 0 13.234375 3.875 
Q 9.28125 7.765625 9.28125 18.015625 
L 9.28125 47.703125 
L 2.6875 47.703125 
L 2.6875 54.6875 
L 9.28125 54.6875 
L 9.28125 70.21875 
z
" id="DejaVuSans-74"/>
     <path d="M 41.109375 46.296875 
Q 39.59375 47.171875 37.8125 47.578125 
Q 36.03125 48 33.890625 48 
Q 26.265625 48 22.1875 43.046875 
Q 18.109375 38.09375 18.109375 28.8125 
L 18.109375 0 
L 9.078125 0 
L 9.078125 54.6875 
L 18.109375 54.6875 
L 18.109375 46.1875 
Q 20.953125 51.171875 25.484375 53.578125 
Q 30.03125 56 36.53125 56 
Q 37.453125 56 38.578125 55.875 
Q 39.703125 55.765625 41.0625 55.515625 
z
" id="DejaVuSans-72"/>
     <path id="DejaVuSans-20"/>
     <path d="M 44.28125 53.078125 
L 44.28125 44.578125 
Q 40.484375 46.53125 36.375 47.5 
Q 32.28125 48.484375 27.875 48.484375 
Q 21.1875 48.484375 17.84375 46.4375 
Q 14.5 44.390625 14.5 40.28125 
Q 14.5 37.15625 16.890625 35.375 
Q 19.28125 33.59375 26.515625 31.984375 
L 29.59375 31.296875 
Q 39.15625 29.25 43.1875 25.515625 
Q 47.21875 21.78125 47.21875 15.09375 
Q 47.21875 7.46875 41.1875 3.015625 
Q 35.15625 -1.421875 24.609375 -1.421875 
Q 20.21875 -1.421875 15.453125 -0.5625 
Q 10.6875 0.296875 5.421875 2 
L 5.421875 11.28125 
Q 10.40625 8.6875 15.234375 7.390625 
Q 20.0625 6.109375 24.8125 6.109375 
Q 31.15625 6.109375 34.5625 8.28125 
Q 37.984375 10.453125 37.984375 14.40625 
Q 37.984375 18.0625 35.515625 20.015625 
Q 33.0625 21.96875 24.703125 23.78125 
L 21.578125 24.515625 
Q 13.234375 26.265625 9.515625 29.90625 
Q 5.8125 33.546875 5.8125 39.890625 
Q 5.8125 47.609375 11.28125 51.796875 
Q 16.75 56 26.8125 56 
Q 31.78125 56 36.171875 55.265625 
Q 40.578125 54.546875 44.28125 53.078125 
z
" id="DejaVuSans-73"/>
     <path d="M 18.109375 8.203125 
L 18.109375 -20.796875 
L 9.078125 -20.796875 
L 9.078125 54.6875 
L 18.109375 54.6875 
L 18.109375 46.390625 
Q 20.953125 51.265625 25.265625 53.625 
Q 29.59375 56 35.59375 56 
Q 45.5625 56 51.78125 48.09375 
Q 58.015625 40.1875 58.015625 27.296875 
Q 58.015625 14.40625 51.78125 6.484375 
Q 45.5625 -1.421875 35.59375 -1.421875 
Q 29.59375 -1.421875 25.265625 0.953125 
Q 20.953125 3.328125 18.109375 8.203125 
z
M 48.6875 27.296875 
Q 48.6875 37.203125 44.609375 42.84375 
Q 40.53125 48.484375 33.40625 48.484375 
Q 26.265625 48.484375 22.1875 42.84375 
Q 18.109375 37.203125 18.109375 27.296875 
Q 18.109375 17.390625 22.1875 11.75 
Q 26.265625 6.109375 33.40625 6.109375 
Q 40.53125 6.109375 44.609375 11.75 
Q 48.6875 17.390625 48.6875 27.296875 
z
" id="DejaVuSans-70"/>
     <path d="M 56.203125 29.59375 
L 56.203125 25.203125 
L 14.890625 25.203125 
Q 15.484375 15.921875 20.484375 11.0625 
Q 25.484375 6.203125 34.421875 6.203125 
Q 39.59375 6.203125 44.453125 7.46875 
Q 49.3125 8.734375 54.109375 11.28125 
L 54.109375 2.78125 
Q 49.265625 0.734375 44.1875 -0.34375 
Q 39.109375 -1.421875 33.890625 -1.421875 
Q 20.796875 -1.421875 13.15625 6.1875 
Q 5.515625 13.8125 5.515625 26.8125 
Q 5.515625 40.234375 12.765625 48.109375 
Q 20.015625 56 32.328125 56 
Q 43.359375 56 49.78125 48.890625 
Q 56.203125 41.796875 56.203125 29.59375 
z
M 47.21875 32.234375 
Q 47.125 39.59375 43.09375 43.984375 
Q 39.0625 48.390625 32.421875 48.390625 
Q 24.90625 48.390625 20.390625 44.140625 
Q 15.875 39.890625 15.1875 32.171875 
z
" id="DejaVuSans-65"/>
     <path d="M 45.40625 46.390625 
L 45.40625 75.984375 
L 54.390625 75.984375 
L 54.390625 0 
L 45.40625 0 
L 45.40625 8.203125 
Q 42.578125 3.328125 38.25 0.953125 
Q 33.9375 -1.421875 27.875 -1.421875 
Q 17.96875 -1.421875 11.734375 6.484375 
Q 5.515625 14.40625 5.515625 27.296875 
Q 5.515625 40.1875 11.734375 48.09375 
Q 17.96875 56 27.875 56 
Q 33.9375 56 38.25 53.625 
Q 42.578125 51.265625 45.40625 46.390625 
z
M 14.796875 27.296875 
Q 14.796875 17.390625 18.875 11.75 
Q 22.953125 6.109375 30.078125 6.109375 
Q 37.203125 6.109375 41.296875 11.75 
Q 45.40625 17.390625 45.40625 27.296875 
Q 45.40625 37.203125 41.296875 42.84375 
Q 37.203125 48.484375 30.078125 48.484375 
Q 22.953125 48.484375 18.875 42.84375 
Q 14.796875 37.203125 14.796875 27.296875 
z
" id="DejaVuSans-64"/>
     <path d="M 54.890625 33.015625 
L 54.890625 0 
L 45.90625 0 
L 45.90625 32.71875 
Q 45.90625 40.484375 42.875 44.328125 
Q 39.84375 48.1875 33.796875 48.1875 
Q 26.515625 48.1875 22.3125 43.546875 
Q 18.109375 38.921875 18.109375 30.90625 
L 18.109375 0 
L 9.078125 0 
L 9.078125 75.984375 
L 18.109375 75.984375 
L 18.109375 46.1875 
Q 21.34375 51.125 25.703125 53.5625 
Q 30.078125 56 35.796875 56 
Q 45.21875 56 50.046875 50.171875 
Q 54.890625 44.34375 54.890625 33.015625 
z
" id="DejaVuSans-68"/>
     <path d="M 9.421875 54.6875 
L 18.40625 54.6875 
L 18.40625 0 
L 9.421875 0 
z
M 9.421875 75.984375 
L 18.40625 75.984375 
L 18.40625 64.59375 
L 9.421875 64.59375 
z
" id="DejaVuSans-69"/>
     <path d="M 32.171875 -5.078125 
Q 28.375 -14.84375 24.75 -17.8125 
Q 21.140625 -20.796875 15.09375 -20.796875 
L 7.90625 -20.796875 
L 7.90625 -13.28125 
L 13.1875 -13.28125 
Q 16.890625 -13.28125 18.9375 -11.515625 
Q 21 -9.765625 23.484375 -3.21875 
L 25.09375 0.875 
L 2.984375 54.6875 
L 12.5 54.6875 
L 29.59375 11.921875 
L 46.6875 54.6875 
L 56.203125 54.6875 
z
" id="DejaVuSans-79"/>
    </defs>
    <g transform="translate(170.52 35.472)scale(0.12 -0.12)">
     <use xlink:href="#DejaVuSans-4d"/>
     <use x="86.279297" xlink:href="#DejaVuSans-6f"/>
     <use x="147.460938" xlink:href="#DejaVuSans-74"/>
     <use x="186.669922" xlink:href="#DejaVuSans-6f"/>
     <use x="247.851562" xlink:href="#DejaVuSans-72"/>
     <use x="288.964844" xlink:href="#DejaVuSans-20"/>
     <use x="320.751953" xlink:href="#DejaVuSans-35"/>
     <use x="384.375" xlink:href="#DejaVuSans-20"/>
     <use x="416.162109" xlink:href="#DejaVuSans-73"/>
     <use x="468.261719" xlink:href="#DejaVuSans-70"/>
     <use x="531.738281" xlink:href="#DejaVuSans-65"/>
     <use x="593.261719" xlink:href="#DejaVuSans-65"/>
     <use x="654.785156" xlink:href="#DejaVuSans-64"/>
     <use x="718.261719" xlink:href="#DejaVuSans-20"/>
     <use x="750.048828" xlink:href="#DejaVuSans-68"/>
     <use x="813.427734" xlink:href="#DejaVuSans-69"/>
     <use x="841.210938" xlink:href="#DejaVuSans-73"/>
     <use x="893.310547" xlink:href="#DejaVuSans-74"/>
     <use x="932.519531" xlink:href="#DejaVuSans-6f"/>
     <use x="993.701172" xlink:href="#DejaVuSans-72"/>
     <use x="1034.814453" xlink:href="#DejaVuSans-79"/>
    </g>
   </g>
   <g id="legend_1">
    <g id="patch_7">
     <path d="M 64.6 302.584 
L 120.867188 302.584 
Q 122.867188 302.584 122.867188 300.584 
L 122.867188 286.905875 
Q 122.867188 284.905875 120.867188 284.905875 
L 64.6 284.905875 
Q 62.6 284.905875 62.6 286.905875 
L 62.6 300.584 
Q 62.6 302.584 64.6 302.584 
z
" style="fill:#ffffff;opacity:0.8;stroke:#cccccc;stroke-linejoin:miter;"/>
    </g>
    <g id="line2d_20">
     <path d="M 66.6 293.004312 
L 86.6 293.004312 
" style="fill:none;stroke:#1f77b4;stroke-linecap:square;stroke-width:1.5;"/>
    </g>
    <g id="line2d_21"/>
    <g id="text_20">
     <!-- pwm -->
     <defs>
      <path d="M 4.203125 54.6875 
L 13.1875 54.6875 
L 24.421875 12.015625 
L 35.59375 54.6875 
L 46.1875 54.6875 
L 57.421875 12.015625 
L 68.609375 54.6875 
L 77.59375 54.6875 
L 63.28125 0 
L 52.6875 0 
L 40.921875 44.828125 
L 29.109375 0 
L 18.5 0 
z
" id="DejaVuSans-77"/>
      <path d="M 52 44.1875 
Q 55.375 50.25 60.0625 53.125 
Q 64.75 56 71.09375 56 
Q 79.640625 56 84.28125 50.015625 
Q 88.921875 44.046875 88.921875 33.015625 
L 88.921875 0 
L 79.890625 0 
L 79.890625 32.71875 
Q 79.890625 40.578125 77.09375 44.375 
Q 74.3125 48.1875 68.609375 48.1875 
Q 61.625 48.1875 57.5625 43.546875 
Q 53.515625 38.921875 53.515625 30.90625 
L 53.515625 0 
L 44.484375 0 
L 44.484375 32.71875 
Q 44.484375 40.625 41.703125 44.40625 
Q 38.921875 48.1875 33.109375 48.1875 
Q 26.21875 48.1875 22.15625 43.53125 
Q 18.109375 38.875 18.109375 30.90625 
L 18.109375 0 
L 9.078125 0 
L 9.078125 54.6875 
L 18.109375 54.6875 
L 18.109375 46.1875 
Q 21.1875 51.21875 25.484375 53.609375 
Q 29.78125 56 35.6875 56 
Q 41.65625 56 45.828125 52.96875 
Q 50 49.953125 52 44.1875 
z
" id="DejaVuSans-6d"/>
     </defs>
     <g transform="translate(94.6 296.504312)scale(0.1 -0.1)">
      <use xlink:href="#DejaVuSans-70"/>
      <use x="63.476562" xlink:href="#DejaVuSans-77"/>
      <use x="145.263672" xlink:href="#DejaVuSans-6d"/>
     </g>
    </g>
   </g>
  </g>
 </g>
 <defs>
  <clipPath id="p79e368ba0c">
   <rect height="266.112" width="357.12" x="57.6" y="41.472"/>
  </clipPath>
 </defs>
</svg>
