<?xml version="1.0" encoding="utf-8" standalone="no"?>
<!DOCTYPE svg PUBLIC "-//W3C//DTD SVG 1.1//EN"
  "http://www.w3.org/Graphics/SVG/1.1/DTD/svg11.dtd">
<!-- Created with matplotlib (http://matplotlib.org/) -->
<svg height="345pt" version="1.1" viewBox="0 0 460 345" width="460pt" xmlns="http://www.w3.org/2000/svg" xmlns:xlink="http://www.w3.org/1999/xlink">
 <defs>
  <style type="text/css">
*{stroke-linecap:butt;stroke-linejoin:round;}
  </style>
 </defs>
 <g id="figure_1">
  <g id="patch_1">
   <path d="M 0 345.6 
L 460.8 345.6 
L 460.8 0 
L 0 0 
z
" style="fill:#ffffff;"/>
  </g>
  <g id="axes_1">
   <g id="patch_2">
    <path d="M 57.6 307.584 
L 414.72 307.584 
L 414.72 41.472 
L 57.6 41.472 
z
" style="fill:#ffffff;"/>
   </g>
   <g id="matplotlib.axis_1">
    <g id="xtick_1">
     <g id="line2d_1">
      <defs>
       <path d="M 0 0 
L 0 3.5 
" id="mab80f81807" style="stroke:#000000;stroke-width:0.8;"/>
      </defs>
      <g>
       <use style="stroke:#000000;stroke-width:0.8;" x="73.832727" xlink:href="#mab80f81807" y="307.584"/>
      </g>
     </g>
     <g id="text_1">
      <!-- 0 -->
      <defs>
       <path d="M 31.78125 66.40625 
Q 24.171875 66.40625 20.328125 58.90625 
Q 16.5 51.421875 16.5 36.375 
Q 16.5 21.390625 20.328125 13.890625 
Q 24.171875 6.390625 31.78125 6.390625 
Q 39.453125 6.390625 43.28125 13.890625 
Q 47.125 21.390625 47.125 36.375 
Q 47.125 51.421875 43.28125 58.90625 
Q 39.453125 66.40625 31.78125 66.40625 
z
M 31.78125 74.21875 
Q 44.046875 74.21875 50.515625 64.515625 
Q 56.984375 54.828125 56.984375 36.375 
Q 56.984375 17.96875 50.515625 8.265625 
Q 44.046875 -1.421875 31.78125 -1.421875 
Q 19.53125 -1.421875 13.0625 8.265625 
Q 6.59375 17.96875 6.59375 36.375 
Q 6.59375 54.828125 13.0625 64.515625 
Q 19.53125 74.21875 31.78125 74.21875 
z
" id="DejaVuSans-30"/>
      </defs>
      <g transform="translate(70.651477 322.182437)scale(0.1 -0.1)">
       <use xlink:href="#DejaVuSans-30"/>
      </g>
     </g>
    </g>
    <g id="xtick_2">
     <g id="line2d_2">
      <g>
       <use style="stroke:#000000;stroke-width:0.8;" x="115.973764" xlink:href="#mab80f81807" y="307.584"/>
      </g>
     </g>
     <g id="text_2">
      <!-- 500 -->
      <defs>
       <path d="M 10.796875 72.90625 
L 49.515625 72.90625 
L 49.515625 64.59375 
L 19.828125 64.59375 
L 19.828125 46.734375 
Q 21.96875 47.46875 24.109375 47.828125 
Q 26.265625 48.1875 28.421875 48.1875 
Q 40.625 48.1875 47.75 41.5 
Q 54.890625 34.8125 54.890625 23.390625 
Q 54.890625 11.625 47.5625 5.09375 
Q 40.234375 -1.421875 26.90625 -1.421875 
Q 22.3125 -1.421875 17.546875 -0.640625 
Q 12.796875 0.140625 7.71875 1.703125 
L 7.71875 11.625 
Q 12.109375 9.234375 16.796875 8.0625 
Q 21.484375 6.890625 26.703125 6.890625 
Q 35.15625 6.890625 40.078125 11.328125 
Q 45.015625 15.765625 45.015625 23.390625 
Q 45.015625 31 40.078125 35.4375 
Q 35.15625 39.890625 26.703125 39.890625 
Q 22.75 39.890625 18.8125 39.015625 
Q 14.890625 38.140625 10.796875 36.28125 
z
" id="DejaVuSans-35"/>
      </defs>
      <g transform="translate(106.430014 322.182437)scale(0.1 -0.1)">
       <use xlink:href="#DejaVuSans-35"/>
       <use x="63.623047" xlink:href="#DejaVuSans-30"/>
       <use x="127.246094" xlink:href="#DejaVuSans-30"/>
      </g>
     </g>
    </g>
    <g id="xtick_3">
     <g id="line2d_3">
      <g>
       <use style="stroke:#000000;stroke-width:0.8;" x="158.1148" xlink:href="#mab80f81807" y="307.584"/>
      </g>
     </g>
     <g id="text_3">
      <!-- 1000 -->
      <defs>
       <path d="M 12.40625 8.296875 
L 28.515625 8.296875 
L 28.515625 63.921875 
L 10.984375 60.40625 
L 10.984375 69.390625 
L 28.421875 72.90625 
L 38.28125 72.90625 
L 38.28125 8.296875 
L 54.390625 8.296875 
L 54.390625 0 
L 12.40625 0 
z
" id="DejaVuSans-31"/>
      </defs>
      <g transform="translate(145.3898 322.182437)scale(0.1 -0.1)">
       <use xlink:href="#DejaVuSans-31"/>
       <use x="63.623047" xlink:href="#DejaVuSans-30"/>
       <use x="127.246094" xlink:href="#DejaVuSans-30"/>
       <use x="190.869141" xlink:href="#DejaVuSans-30"/>
      </g>
     </g>
    </g>
    <g id="xtick_4">
     <g id="line2d_4">
      <g>
       <use style="stroke:#000000;stroke-width:0.8;" x="200.255837" xlink:href="#mab80f81807" y="307.584"/>
      </g>
     </g>
     <g id="text_4">
      <!-- 1500 -->
      <g transform="translate(187.530837 322.182437)scale(0.1 -0.1)">
       <use xlink:href="#DejaVuSans-31"/>
       <use x="63.623047" xlink:href="#DejaVuSans-35"/>
       <use x="127.246094" xlink:href="#DejaVuSans-30"/>
       <use x="190.869141" xlink:href="#DejaVuSans-30"/>
      </g>
     </g>
    </g>
    <g id="xtick_5">
     <g id="line2d_5">
      <g>
       <use style="stroke:#000000;stroke-width:0.8;" x="242.396873" xlink:href="#mab80f81807" y="307.584"/>
      </g>
     </g>
     <g id="text_5">
      <!-- 2000 -->
      <defs>
       <path d="M 19.1875 8.296875 
L 53.609375 8.296875 
L 53.609375 0 
L 7.328125 0 
L 7.328125 8.296875 
Q 12.9375 14.109375 22.625 23.890625 
Q 32.328125 33.6875 34.8125 36.53125 
Q 39.546875 41.84375 41.421875 45.53125 
Q 43.3125 49.21875 43.3125 52.78125 
Q 43.3125 58.59375 39.234375 62.25 
Q 35.15625 65.921875 28.609375 65.921875 
Q 23.96875 65.921875 18.8125 64.3125 
Q 13.671875 62.703125 7.8125 59.421875 
L 7.8125 69.390625 
Q 13.765625 71.78125 18.9375 73 
Q 24.125 74.21875 28.421875 74.21875 
Q 39.75 74.21875 46.484375 68.546875 
Q 53.21875 62.890625 53.21875 53.421875 
Q 53.21875 48.921875 51.53125 44.890625 
Q 49.859375 40.875 45.40625 35.40625 
Q 44.1875 33.984375 37.640625 27.21875 
Q 31.109375 20.453125 19.1875 8.296875 
z
" id="DejaVuSans-32"/>
      </defs>
      <g transform="translate(229.671873 322.182437)scale(0.1 -0.1)">
       <use xlink:href="#DejaVuSans-32"/>
       <use x="63.623047" xlink:href="#DejaVuSans-30"/>
       <use x="127.246094" xlink:href="#DejaVuSans-30"/>
       <use x="190.869141" xlink:href="#DejaVuSans-30"/>
      </g>
     </g>
    </g>
    <g id="xtick_6">
     <g id="line2d_6">
      <g>
       <use style="stroke:#000000;stroke-width:0.8;" x="284.53791" xlink:href="#mab80f81807" y="307.584"/>
      </g>
     </g>
     <g id="text_6">
      <!-- 2500 -->
      <g transform="translate(271.81291 322.182437)scale(0.1 -0.1)">
       <use xlink:href="#DejaVuSans-32"/>
       <use x="63.623047" xlink:href="#DejaVuSans-35"/>
       <use x="127.246094" xlink:href="#DejaVuSans-30"/>
       <use x="190.869141" xlink:href="#DejaVuSans-30"/>
      </g>
     </g>
    </g>
    <g id="xtick_7">
     <g id="line2d_7">
      <g>
       <use style="stroke:#000000;stroke-width:0.8;" x="326.678946" xlink:href="#mab80f81807" y="307.584"/>
      </g>
     </g>
     <g id="text_7">
      <!-- 3000 -->
      <defs>
       <path d="M 40.578125 39.3125 
Q 47.65625 37.796875 51.625 33 
Q 55.609375 28.21875 55.609375 21.1875 
Q 55.609375 10.40625 48.1875 4.484375 
Q 40.765625 -1.421875 27.09375 -1.421875 
Q 22.515625 -1.421875 17.65625 -0.515625 
Q 12.796875 0.390625 7.625 2.203125 
L 7.625 11.71875 
Q 11.71875 9.328125 16.59375 8.109375 
Q 21.484375 6.890625 26.8125 6.890625 
Q 36.078125 6.890625 40.9375 10.546875 
Q 45.796875 14.203125 45.796875 21.1875 
Q 45.796875 27.640625 41.28125 31.265625 
Q 36.765625 34.90625 28.71875 34.90625 
L 20.21875 34.90625 
L 20.21875 43.015625 
L 29.109375 43.015625 
Q 36.375 43.015625 40.234375 45.921875 
Q 44.09375 48.828125 44.09375 54.296875 
Q 44.09375 59.90625 40.109375 62.90625 
Q 36.140625 65.921875 28.71875 65.921875 
Q 24.65625 65.921875 20.015625 65.03125 
Q 15.375 64.15625 9.8125 62.3125 
L 9.8125 71.09375 
Q 15.4375 72.65625 20.34375 73.4375 
Q 25.25 74.21875 29.59375 74.21875 
Q 40.828125 74.21875 47.359375 69.109375 
Q 53.90625 64.015625 53.90625 55.328125 
Q 53.90625 49.265625 50.4375 45.09375 
Q 46.96875 40.921875 40.578125 39.3125 
z
" id="DejaVuSans-33"/>
      </defs>
      <g transform="translate(313.953946 322.182437)scale(0.1 -0.1)">
       <use xlink:href="#DejaVuSans-33"/>
       <use x="63.623047" xlink:href="#DejaVuSans-30"/>
       <use x="127.246094" xlink:href="#DejaVuSans-30"/>
       <use x="190.869141" xlink:href="#DejaVuSans-30"/>
      </g>
     </g>
    </g>
    <g id="xtick_8">
     <g id="line2d_8">
      <g>
       <use style="stroke:#000000;stroke-width:0.8;" x="368.819983" xlink:href="#mab80f81807" y="307.584"/>
      </g>
     </g>
     <g id="text_8">
      <!-- 3500 -->
      <g transform="translate(356.094983 322.182437)scale(0.1 -0.1)">
       <use xlink:href="#DejaVuSans-33"/>
       <use x="63.623047" xlink:href="#DejaVuSans-35"/>
       <use x="127.246094" xlink:href="#DejaVuSans-30"/>
       <use x="190.869141" xlink:href="#DejaVuSans-30"/>
      </g>
     </g>
    </g>
    <g id="xtick_9">
     <g id="line2d_9">
      <g>
       <use style="stroke:#000000;stroke-width:0.8;" x="410.96102" xlink:href="#mab80f81807" y="307.584"/>
      </g>
     </g>
     <g id="text_9">
      <!-- 4000 -->
      <defs>
       <path d="M 37.796875 64.3125 
L 12.890625 25.390625 
L 37.796875 25.390625 
z
M 35.203125 72.90625 
L 47.609375 72.90625 
L 47.609375 25.390625 
L 58.015625 25.390625 
L 58.015625 17.1875 
L 47.609375 17.1875 
L 47.609375 0 
L 37.796875 0 
L 37.796875 17.1875 
L 4.890625 17.1875 
L 4.890625 26.703125 
z
" id="DejaVuSans-34"/>
      </defs>
      <g transform="translate(398.23602 322.182437)scale(0.1 -0.1)">
       <use xlink:href="#DejaVuSans-34"/>
       <use x="63.623047" xlink:href="#DejaVuSans-30"/>
       <use x="127.246094" xlink:href="#DejaVuSans-30"/>
       <use x="190.869141" xlink:href="#DejaVuSans-30"/>
      </g>
     </g>
    </g>
   </g>
   <g id="matplotlib.axis_2">
    <g id="ytick_1">
     <g id="line2d_10">
      <defs>
       <path d="M 0 0 
L -3.5 0 
" id="mf00a1b6990" style="stroke:#000000;stroke-width:0.8;"/>
      </defs>
      <g>
       <use style="stroke:#000000;stroke-width:0.8;" x="57.6" xlink:href="#mf00a1b6990" y="283.542239"/>
      </g>
     </g>
     <g id="text_10">
      <!-- 1420 -->
      <g transform="translate(25.15 287.341457)scale(0.1 -0.1)">
       <use xlink:href="#DejaVuSans-31"/>
       <use x="63.623047" xlink:href="#DejaVuSans-34"/>
       <use x="127.246094" xlink:href="#DejaVuSans-32"/>
       <use x="190.869141" xlink:href="#DejaVuSans-30"/>
      </g>
     </g>
    </g>
    <g id="ytick_2">
     <g id="line2d_11">
      <g>
       <use style="stroke:#000000;stroke-width:0.8;" x="57.6" xlink:href="#mf00a1b6990" y="253.85911"/>
      </g>
     </g>
     <g id="text_11">
      <!-- 1440 -->
      <g transform="translate(25.15 257.658329)scale(0.1 -0.1)">
       <use xlink:href="#DejaVuSans-31"/>
       <use x="63.623047" xlink:href="#DejaVuSans-34"/>
       <use x="127.246094" xlink:href="#DejaVuSans-34"/>
       <use x="190.869141" xlink:href="#DejaVuSans-30"/>
      </g>
     </g>
    </g>
    <g id="ytick_3">
     <g id="line2d_12">
      <g>
       <use style="stroke:#000000;stroke-width:0.8;" x="57.6" xlink:href="#mf00a1b6990" y="224.175981"/>
      </g>
     </g>
     <g id="text_12">
      <!-- 1460 -->
      <defs>
       <path d="M 33.015625 40.375 
Q 26.375 40.375 22.484375 35.828125 
Q 18.609375 31.296875 18.609375 23.390625 
Q 18.609375 15.53125 22.484375 10.953125 
Q 26.375 6.390625 33.015625 6.390625 
Q 39.65625 6.390625 43.53125 10.953125 
Q 47.40625 15.53125 47.40625 23.390625 
Q 47.40625 31.296875 43.53125 35.828125 
Q 39.65625 40.375 33.015625 40.375 
z
M 52.59375 71.296875 
L 52.59375 62.3125 
Q 48.875 64.0625 45.09375 64.984375 
Q 41.3125 65.921875 37.59375 65.921875 
Q 27.828125 65.921875 22.671875 59.328125 
Q 17.53125 52.734375 16.796875 39.40625 
Q 19.671875 43.65625 24.015625 45.921875 
Q 28.375 48.1875 33.59375 48.1875 
Q 44.578125 48.1875 50.953125 41.515625 
Q 57.328125 34.859375 57.328125 23.390625 
Q 57.328125 12.15625 50.6875 5.359375 
Q 44.046875 -1.421875 33.015625 -1.421875 
Q 20.359375 -1.421875 13.671875 8.265625 
Q 6.984375 17.96875 6.984375 36.375 
Q 6.984375 53.65625 15.1875 63.9375 
Q 23.390625 74.21875 37.203125 74.21875 
Q 40.921875 74.21875 44.703125 73.484375 
Q 48.484375 72.75 52.59375 71.296875 
z
" id="DejaVuSans-36"/>
      </defs>
      <g transform="translate(25.15 227.9752)scale(0.1 -0.1)">
       <use xlink:href="#DejaVuSans-31"/>
       <use x="63.623047" xlink:href="#DejaVuSans-34"/>
       <use x="127.246094" xlink:href="#DejaVuSans-36"/>
       <use x="190.869141" xlink:href="#DejaVuSans-30"/>
      </g>
     </g>
    </g>
    <g id="ytick_4">
     <g id="line2d_13">
      <g>
       <use style="stroke:#000000;stroke-width:0.8;" x="57.6" xlink:href="#mf00a1b6990" y="194.492852"/>
      </g>
     </g>
     <g id="text_13">
      <!-- 1480 -->
      <defs>
       <path d="M 31.78125 34.625 
Q 24.75 34.625 20.71875 30.859375 
Q 16.703125 27.09375 16.703125 20.515625 
Q 16.703125 13.921875 20.71875 10.15625 
Q 24.75 6.390625 31.78125 6.390625 
Q 38.8125 6.390625 42.859375 10.171875 
Q 46.921875 13.96875 46.921875 20.515625 
Q 46.921875 27.09375 42.890625 30.859375 
Q 38.875 34.625 31.78125 34.625 
z
M 21.921875 38.8125 
Q 15.578125 40.375 12.03125 44.71875 
Q 8.5 49.078125 8.5 55.328125 
Q 8.5 64.0625 14.71875 69.140625 
Q 20.953125 74.21875 31.78125 74.21875 
Q 42.671875 74.21875 48.875 69.140625 
Q 55.078125 64.0625 55.078125 55.328125 
Q 55.078125 49.078125 51.53125 44.71875 
Q 48 40.375 41.703125 38.8125 
Q 48.828125 37.15625 52.796875 32.3125 
Q 56.78125 27.484375 56.78125 20.515625 
Q 56.78125 9.90625 50.3125 4.234375 
Q 43.84375 -1.421875 31.78125 -1.421875 
Q 19.734375 -1.421875 13.25 4.234375 
Q 6.78125 9.90625 6.78125 20.515625 
Q 6.78125 27.484375 10.78125 32.3125 
Q 14.796875 37.15625 21.921875 38.8125 
z
M 18.3125 54.390625 
Q 18.3125 48.734375 21.84375 45.5625 
Q 25.390625 42.390625 31.78125 42.390625 
Q 38.140625 42.390625 41.71875 45.5625 
Q 45.3125 48.734375 45.3125 54.390625 
Q 45.3125 60.0625 41.71875 63.234375 
Q 38.140625 66.40625 31.78125 66.40625 
Q 25.390625 66.40625 21.84375 63.234375 
Q 18.3125 60.0625 18.3125 54.390625 
z
" id="DejaVuSans-38"/>
      </defs>
      <g transform="translate(25.15 198.292071)scale(0.1 -0.1)">
       <use xlink:href="#DejaVuSans-31"/>
       <use x="63.623047" xlink:href="#DejaVuSans-34"/>
       <use x="127.246094" xlink:href="#DejaVuSans-38"/>
       <use x="190.869141" xlink:href="#DejaVuSans-30"/>
      </g>
     </g>
    </g>
    <g id="ytick_5">
     <g id="line2d_14">
      <g>
       <use style="stroke:#000000;stroke-width:0.8;" x="57.6" xlink:href="#mf00a1b6990" y="164.809724"/>
      </g>
     </g>
     <g id="text_14">
      <!-- 1500 -->
      <g transform="translate(25.15 168.608942)scale(0.1 -0.1)">
       <use xlink:href="#DejaVuSans-31"/>
       <use x="63.623047" xlink:href="#DejaVuSans-35"/>
       <use x="127.246094" xlink:href="#DejaVuSans-30"/>
       <use x="190.869141" xlink:href="#DejaVuSans-30"/>
      </g>
     </g>
    </g>
    <g id="ytick_6">
     <g id="line2d_15">
      <g>
       <use style="stroke:#000000;stroke-width:0.8;" x="57.6" xlink:href="#mf00a1b6990" y="135.126595"/>
      </g>
     </g>
     <g id="text_15">
      <!-- 1520 -->
      <g transform="translate(25.15 138.925814)scale(0.1 -0.1)">
       <use xlink:href="#DejaVuSans-31"/>
       <use x="63.623047" xlink:href="#DejaVuSans-35"/>
       <use x="127.246094" xlink:href="#DejaVuSans-32"/>
       <use x="190.869141" xlink:href="#DejaVuSans-30"/>
      </g>
     </g>
    </g>
    <g id="ytick_7">
     <g id="line2d_16">
      <g>
       <use style="stroke:#000000;stroke-width:0.8;" x="57.6" xlink:href="#mf00a1b6990" y="105.443466"/>
      </g>
     </g>
     <g id="text_16">
      <!-- 1540 -->
      <g transform="translate(25.15 109.242685)scale(0.1 -0.1)">
       <use xlink:href="#DejaVuSans-31"/>
       <use x="63.623047" xlink:href="#DejaVuSans-35"/>
       <use x="127.246094" xlink:href="#DejaVuSans-34"/>
       <use x="190.869141" xlink:href="#DejaVuSans-30"/>
      </g>
     </g>
    </g>
    <g id="ytick_8">
     <g id="line2d_17">
      <g>
       <use style="stroke:#000000;stroke-width:0.8;" x="57.6" xlink:href="#mf00a1b6990" y="75.760337"/>
      </g>
     </g>
     <g id="text_17">
      <!-- 1560 -->
      <g transform="translate(25.15 79.559556)scale(0.1 -0.1)">
       <use xlink:href="#DejaVuSans-31"/>
       <use x="63.623047" xlink:href="#DejaVuSans-35"/>
       <use x="127.246094" xlink:href="#DejaVuSans-36"/>
       <use x="190.869141" xlink:href="#DejaVuSans-30"/>
      </g>
     </g>
    </g>
    <g id="ytick_9">
     <g id="line2d_18">
      <g>
       <use style="stroke:#000000;stroke-width:0.8;" x="57.6" xlink:href="#mf00a1b6990" y="46.077209"/>
      </g>
     </g>
     <g id="text_18">
      <!-- 1580 -->
      <g transform="translate(25.15 49.876427)scale(0.1 -0.1)">
       <use xlink:href="#DejaVuSans-31"/>
       <use x="63.623047" xlink:href="#DejaVuSans-35"/>
       <use x="127.246094" xlink:href="#DejaVuSans-38"/>
       <use x="190.869141" xlink:href="#DejaVuSans-30"/>
      </g>
     </g>
    </g>
   </g>
   <g id="line2d_19">
    <path clip-path="url(#p57c4499448)" d="M 73.832727 215.678928 
L 74.085573 220.315308 
L 74.254138 210.991215 
L 74.422702 220.40236 
L 74.591266 217.128386 
L 74.675548 217.56592 
L 74.75983 212.418319 
L 74.844112 126.787227 
L 75.012676 216.16655 
L 75.096958 210.578577 
L 75.18124 124.954558 
L 75.265523 125.383175 
L 75.349805 127.356908 
L 75.518369 119.273034 
L 75.602651 125.43079 
L 75.771215 215.883506 
L 75.855497 219.005975 
L 75.939779 213.950303 
L 76.024061 127.172663 
L 76.192625 217.867805 
L 76.529754 211.730125 
L 76.698318 216.386619 
L 76.866882 210.886948 
L 76.951164 214.058064 
L 77.035446 210.417149 
L 77.119728 124.223199 
L 77.20401 124.234259 
L 77.288292 125.448869 
L 77.372574 212.903826 
L 77.541138 122.309149 
L 77.709703 123.416107 
L 77.793985 126.608923 
L 77.962549 210.898798 
L 78.131113 121.114766 
L 78.299677 219.140829 
L 78.383959 219.084039 
L 78.468241 218.191348 
L 78.552523 219.676714 
L 78.636805 218.912973 
L 78.889652 221.987022 
L 79.058216 228.362515 
L 79.22678 217.654341 
L 79.311062 220.757989 
L 79.395344 220.577453 
L 79.479626 218.401333 
L 79.563908 210.583353 
L 79.64819 124.337005 
L 79.732472 125.715374 
L 79.816754 125.227392 
L 79.901037 126.902473 
L 79.985319 211.258002 
L 80.153883 125.176482 
L 80.238165 124.901384 
L 80.406729 215.736097 
L 80.491011 214.989518 
L 80.659575 217.936295 
L 80.743857 220.202309 
L 80.828139 220.195417 
L 80.996703 218.021908 
L 81.080986 217.795309 
L 81.24955 223.753166 
L 81.586678 211.95812 
L 81.755242 125.808939 
L 81.923806 122.982913 
L 82.09237 127.354209 
L 82.176653 126.29109 
L 82.345217 120.770161 
L 82.429499 125.172534 
L 82.598063 214.442765 
L 82.935191 222.525873 
L 83.019473 221.391696 
L 83.188037 215.550419 
L 83.272319 214.842701 
L 83.440884 218.559593 
L 83.525166 217.817726 
L 83.69373 211.575839 
L 83.862294 217.379229 
L 84.030858 120.253119 
L 84.199422 127.190538 
L 84.283704 126.558266 
L 84.367986 125.441486 
L 84.536551 211.878286 
L 84.620833 211.094895 
L 84.705115 213.179828 
L 84.873679 230.950104 
L 85.042243 225.380168 
L 85.210807 229.952974 
L 85.295089 230.654477 
L 85.547935 223.749374 
L 85.632218 224.46433 
L 85.7165 222.31381 
L 85.800782 223.23671 
L 85.885064 223.095381 
L 85.969346 223.792215 
L 86.13791 219.410366 
L 86.222192 220.897405 
L 86.306474 220.24923 
L 86.390756 217.149849 
L 86.475038 217.490812 
L 86.812167 230.415657 
L 86.896449 230.845527 
L 87.065013 238.558268 
L 87.149295 238.155149 
L 87.233577 237.703241 
L 87.402141 249.525272 
L 87.570705 231.639114 
L 87.907833 243.848192 
L 88.076398 239.207875 
L 88.329244 244.212053 
L 88.497808 232.410952 
L 88.666372 242.718199 
L 88.919218 233.289443 
L 89.087782 230.978282 
L 89.172065 231.725786 
L 89.593475 250.331738 
L 89.762039 247.696751 
L 89.930603 255.050226 
L 90.014885 255.487559 
L 90.099167 257.500378 
L 90.267732 254.360785 
L 90.436296 258.826859 
L 90.60486 250.022398 
L 90.773424 257.421153 
L 90.941988 254.854785 
L 91.110552 268.472409 
L 91.279116 240.376495 
L 91.447681 252.480255 
L 91.616245 245.036606 
L 91.784809 254.463462 
L 91.869091 252.533664 
L 92.121937 244.132388 
L 92.206219 243.793541 
L 92.290501 243.951965 
L 92.459065 247.5185 
L 92.62763 243.336072 
L 92.711912 244.174184 
L 92.796194 242.47775 
L 92.964758 260.92517 
L 93.04904 258.371215 
L 93.133322 255.482184 
L 93.639014 276.562671 
L 93.723297 273.488639 
L 93.807579 264.350262 
L 93.976143 281.299419 
L 94.144707 267.803108 
L 94.228989 267.758956 
L 94.481835 258.461032 
L 94.566117 252.838919 
L 94.650399 255.145202 
L 94.818963 265.521883 
L 94.987528 261.431022 
L 95.324656 274.873499 
L 95.408938 272.69814 
L 95.49322 273.945352 
L 95.577502 273.886767 
L 95.746066 264.879736 
L 95.91463 274.428975 
L 96.083195 271.180621 
L 96.251759 263.027924 
L 96.336041 265.484484 
L 96.504605 251.757429 
L 96.757451 262.278646 
L 96.841733 262.640836 
L 96.926015 261.805933 
L 97.178862 276.566517 
L 97.263144 275.085147 
L 97.768836 288.079879 
L 97.9374 286.509697 
L 98.021682 288.616747 
L 98.105964 287.712696 
L 98.274528 274.887186 
L 98.358811 277.188769 
L 98.527375 267.849777 
L 98.695939 282.08316 
L 98.948785 267.254004 
L 99.033067 271.912404 
L 99.117349 268.454203 
L 99.285913 278.827703 
L 99.370195 278.369807 
L 99.53876 276.342682 
L 99.707324 267.877915 
L 99.875888 278.992728 
L 100.044452 267.273754 
L 100.128734 269.482817 
L 100.297298 265.553237 
L 100.465862 267.438177 
L 100.634427 262.493839 
L 100.887273 272.420747 
L 101.055837 277.304812 
L 101.224401 295.488 
L 101.392965 277.083196 
L 101.561529 289.192293 
L 101.730093 279.786203 
L 101.898658 292.48485 
L 101.98294 289.631891 
L 102.151504 272.718968 
L 102.320068 278.498553 
L 102.40435 277.829266 
L 102.488632 275.031063 
L 102.572914 277.322487 
L 102.741478 257.350682 
L 102.910042 263.01103 
L 102.994325 256.857973 
L 103.078607 257.58953 
L 103.500017 267.561169 
L 103.668581 274.410793 
L 103.837145 264.527234 
L 103.921427 265.420746 
L 104.089992 276.9568 
L 104.342838 263.008808 
L 104.511402 277.083397 
L 104.764248 248.442321 
L 104.932812 249.853151 
L 105.101376 260.550386 
L 105.354223 252.121929 
L 105.438505 248.721127 
L 105.607069 254.714318 
L 105.775633 243.372088 
L 105.859915 248.148177 
L 106.028479 238.217389 
L 106.112761 239.845905 
L 106.281325 247.29901 
L 106.44989 249.323197 
L 106.618454 229.743906 
L 106.702736 231.199515 
L 106.955582 252.598352 
L 107.461274 234.27862 
L 107.629839 247.225282 
L 107.798403 240.684762 
L 107.882685 243.369399 
L 108.051249 230.846537 
L 108.388377 241.765543 
L 108.556941 231.168778 
L 108.725506 236.307025 
L 108.809788 237.748284 
L 109.146916 229.607128 
L 109.231198 231.211864 
L 109.31548 230.760171 
L 109.399762 227.818122 
L 109.484044 229.288012 
L 109.568326 229.027724 
L 109.821172 220.2569 
L 109.989737 222.688313 
L 110.074019 221.818023 
L 110.158301 216.680311 
L 110.242583 217.519952 
L 110.411147 220.918723 
L 110.579711 214.101759 
L 110.748275 223.780449 
L 111.001121 212.232362 
L 111.085404 213.125396 
L 111.253968 221.207479 
L 111.33825 209.584432 
L 111.422532 119.591586 
L 111.506814 126.935321 
L 111.591096 215.95726 
L 111.675378 214.646271 
L 111.75966 214.567157 
L 111.843942 209.587514 
L 111.928224 126.912816 
L 112.012506 127.492743 
L 112.096788 127.390082 
L 112.265353 216.728113 
L 112.433917 219.905404 
L 112.518199 220.214372 
L 112.771045 229.053839 
L 112.939609 227.277439 
L 113.023891 229.171051 
L 113.192455 221.15061 
L 113.276737 222.534878 
L 113.36102 222.614207 
L 113.445302 215.133392 
L 113.529584 215.720277 
L 113.613866 221.859148 
L 113.698148 213.836594 
L 113.866712 124.036797 
L 113.950994 123.636894 
L 114.119558 121.562293 
L 114.20384 127.274912 
L 114.372404 216.378619 
L 114.456686 209.61454 
L 114.540969 124.76027 
L 114.709533 218.211719 
L 114.793815 211.917475 
L 114.878097 126.308385 
L 115.046661 210.700314 
L 115.215225 211.458631 
L 115.383789 119.142145 
L 115.552353 125.835922 
L 115.8052 116.948734 
L 115.889482 117.142643 
L 116.22661 123.477651 
L 116.395174 213.157364 
L 116.479456 210.241965 
L 116.563738 210.649896 
L 116.732302 122.371697 
L 116.816585 127.25392 
L 116.900867 213.166832 
L 116.985149 210.321815 
L 117.153713 120.846325 
L 117.406559 106.99422 
L 117.490841 110.035082 
L 117.743687 102.443848 
L 117.827969 102.921407 
L 117.912251 102.123605 
L 117.996534 102.49175 
L 118.165098 109.017793 
L 118.417944 115.940921 
L 118.67079 118.298423 
L 118.755072 117.948103 
L 118.839354 118.769843 
L 119.007918 123.690773 
L 119.092201 123.397835 
L 119.260765 127.055388 
L 119.429329 120.629762 
L 119.513611 126.102334 
L 119.682175 216.388955 
L 119.766457 219.552813 
L 119.850739 215.022109 
L 119.935021 126.740936 
L 120.103585 214.917104 
L 120.27215 121.143105 
L 120.440714 123.070135 
L 120.69356 116.469155 
L 120.862124 113.652722 
L 120.946406 113.159476 
L 121.11497 115.898759 
L 121.199252 113.519774 
L 121.283534 113.589401 
L 121.452099 121.276939 
L 121.620663 116.053114 
L 121.873509 122.618113 
L 121.957791 122.227761 
L 122.126355 117.360906 
L 122.210637 118.170852 
L 122.294919 123.399639 
L 122.463483 212.325614 
L 122.71633 218.925532 
L 122.884894 212.500692 
L 122.969176 213.597633 
L 123.053458 215.450575 
L 123.13774 212.111037 
L 123.306304 124.643775 
L 123.55915 117.498308 
L 123.727715 112.017197 
L 123.896279 113.251599 
L 124.064843 122.678368 
L 124.233407 119.686782 
L 124.317689 120.16194 
L 124.486253 127.331902 
L 124.654817 215.640548 
L 124.907664 228.263579 
L 124.991946 224.310934 
L 125.16051 213.902037 
L 125.244792 216.634608 
L 125.329074 215.953197 
L 125.497638 211.086065 
L 125.666202 118.79429 
L 125.834766 111.957419 
L 125.919048 112.231588 
L 126.256177 117.480336 
L 126.340459 115.263281 
L 126.677587 126.720418 
L 126.846151 216.214568 
L 126.930433 214.446304 
L 127.014715 215.109239 
L 127.18328 225.390782 
L 127.351844 219.328149 
L 127.436126 213.947798 
L 127.520408 125.965336 
L 127.60469 126.372016 
L 127.688972 210.52154 
L 127.773254 209.613598 
L 127.941818 122.775879 
L 128.194664 107.109219 
L 128.278946 107.990543 
L 128.531793 124.29836 
L 128.616075 126.169967 
L 128.784639 120.545355 
L 128.868921 124.958009 
L 129.037485 218.807797 
L 129.206049 221.703138 
L 129.374613 222.847464 
L 129.880306 209.670649 
L 129.964588 125.473443 
L 130.04887 126.329814 
L 130.301716 117.477514 
L 130.554562 125.635726 
L 130.638845 209.629873 
L 130.807409 124.522509 
L 130.891691 126.00135 
L 131.060255 213.930736 
L 131.228819 216.591427 
L 131.313101 216.716087 
L 131.650229 210.893075 
L 131.818794 213.559325 
L 131.987358 124.370483 
L 132.155922 126.801713 
L 132.324486 213.117131 
L 132.408768 211.463883 
L 132.49305 212.260679 
L 132.661614 219.073717 
L 132.745896 218.422248 
L 132.830178 215.312777 
L 132.998743 226.17114 
L 133.335871 216.818428 
L 133.420153 217.381782 
L 133.588717 219.740063 
L 133.672999 218.198948 
L 133.757281 210.008561 
L 133.841563 122.724379 
L 134.010127 215.85957 
L 134.09441 215.761497 
L 134.178692 214.918978 
L 134.347256 212.218354 
L 134.600102 214.22588 
L 134.768666 217.19677 
L 134.852948 214.474015 
L 135.021512 121.855906 
L 135.105794 121.747014 
L 135.442923 118.874509 
L 135.780051 122.631927 
L 135.948615 118.34316 
L 136.032897 126.975716 
L 136.117179 215.958671 
L 136.201461 211.432382 
L 136.285743 125.434589 
L 136.454308 216.895184 
L 136.53859 217.543044 
L 136.622872 217.511919 
L 136.707154 214.880302 
L 136.791436 216.345578 
L 136.875718 216.06456 
L 136.96 212.406199 
L 137.128564 121.522611 
L 137.212846 119.664412 
L 137.297128 119.908291 
L 137.38141 119.506754 
L 137.549975 108.683653 
L 137.718539 122.585491 
L 137.887103 118.487544 
L 137.971385 119.899836 
L 138.055667 118.618279 
L 138.139949 119.790229 
L 138.308513 126.000623 
L 138.392795 124.462723 
L 138.477077 127.106886 
L 138.645641 119.90741 
L 138.729924 123.657749 
L 138.898488 213.669967 
L 139.067052 210.860201 
L 139.151334 211.932486 
L 139.235616 216.17608 
L 139.40418 212.091945 
L 139.488462 212.427629 
L 139.572744 213.037871 
L 139.657026 212.726427 
L 139.82559 217.757807 
L 139.909873 211.250752 
L 139.994155 127.303731 
L 140.078437 127.660191 
L 140.499847 121.125895 
L 140.584129 122.681035 
L 140.752693 232.558802 
L 140.836975 233.311503 
L 141.00554 213.89772 
L 141.174104 224.246496 
L 141.342668 223.768902 
L 141.511232 215.851505 
L 141.679796 223.16766 
L 141.932642 214.964467 
L 142.016924 211.946133 
L 142.101206 126.802744 
L 142.269771 214.25149 
L 142.354053 212.016623 
L 142.522617 122.439532 
L 142.775463 116.489979 
L 142.944027 120.254817 
L 143.112591 125.03811 
L 143.196873 124.236517 
L 143.365438 213.003092 
L 143.534002 125.718734 
L 143.618284 209.643271 
L 143.702566 209.411136 
L 143.786848 126.730548 
L 143.955412 217.642105 
L 144.208258 213.492289 
L 144.29254 214.339714 
L 144.461105 218.372066 
L 144.629669 217.859435 
L 144.713951 218.227679 
L 144.798233 211.0449 
L 144.882515 211.304481 
L 144.966797 212.868493 
L 145.135361 126.787916 
L 145.303925 212.007735 
L 145.388207 210.132346 
L 145.641054 212.011526 
L 145.725336 215.959509 
L 145.809618 211.048006 
L 145.8939 125.439233 
L 146.062464 215.792216 
L 146.231028 210.195558 
L 146.31531 211.912638 
L 146.399592 210.697885 
L 146.483874 210.709002 
L 146.652438 118.926403 
L 146.821003 228.219673 
L 146.989567 214.781618 
L 147.073849 209.920837 
L 147.242413 215.329088 
L 147.326695 211.792281 
L 147.495259 67.063955 
L 147.579541 67.014594 
L 147.832387 59.072269 
L 147.916669 60.41662 
L 148.085234 65.464249 
L 148.169516 64.989854 
L 148.253798 63.111629 
L 148.33808 63.524264 
L 148.506644 68.533548 
L 148.675208 74.056882 
L 148.843772 73.665069 
L 149.096619 82.848529 
L 149.180901 83.182732 
L 149.518029 91.468151 
L 149.602311 94.532628 
L 149.686593 93.568727 
L 149.770875 91.805577 
L 150.023721 95.817494 
L 150.108003 93.653078 
L 150.192285 94.652701 
L 150.276568 93.84215 
L 150.445132 89.389093 
L 150.529414 93.138683 
L 150.613696 93.126854 
L 150.78226 83.659408 
L 150.866542 84.550253 
L 151.540799 98.392586 
L 151.625081 96.303304 
L 151.709363 97.858596 
L 151.962209 107.90285 
L 152.046491 105.995254 
L 152.215055 101.369398 
L 152.299337 101.333315 
L 152.383619 101.442962 
L 152.552184 95.531946 
L 152.636466 98.95483 
L 152.889312 94.27302 
L 152.973594 94.970983 
L 153.142158 102.284609 
L 153.310722 94.502458 
L 153.479286 104.468989 
L 153.563568 104.164234 
L 153.64785 103.958925 
L 153.816415 100.78731 
L 153.984979 121.226209 
L 154.153543 118.39963 
L 154.237825 120.862237 
L 154.322107 120.569695 
L 154.406389 120.14057 
L 154.490671 116.978052 
L 154.574953 118.019866 
L 154.743517 124.178867 
L 154.996364 117.643462 
L 155.080646 117.9159 
L 155.164928 118.49771 
L 155.24921 115.021403 
L 155.333492 115.366184 
L 155.67062 120.832772 
L 155.839184 106.301537 
L 155.923466 121.702602 
L 156.007749 217.322739 
L 156.092031 211.126333 
L 156.176313 124.621641 
L 156.260595 211.652885 
L 156.429159 115.843684 
L 156.513441 121.526314 
L 156.682005 210.972885 
L 156.850569 126.632002 
L 156.934851 124.754147 
L 157.187698 127.684181 
L 157.27198 123.507625 
L 157.356262 124.721137 
L 157.440544 123.881847 
L 157.524826 121.915995 
L 157.69339 127.204691 
L 157.777672 127.365643 
L 157.861954 209.60157 
L 158.030518 121.017202 
L 158.283364 126.891354 
L 158.451929 117.317459 
L 158.620493 126.394603 
L 158.789057 213.731702 
L 158.957621 123.761989 
L 159.041903 124.314713 
L 159.210467 214.461691 
L 159.294749 216.190088 
L 159.463314 212.262981 
L 159.631878 220.620869 
L 159.800442 114.336452 
L 159.884724 123.115402 
L 159.969006 211.508068 
L 160.13757 125.602118 
L 160.221852 216.973543 
L 160.390416 116.676051 
L 160.474698 123.35751 
L 160.55898 213.073729 
L 160.643263 212.454963 
L 160.727545 212.951132 
L 160.896109 222.153079 
L 160.980391 220.196504 
L 161.064673 221.322472 
L 161.317519 211.40196 
L 161.570365 224.01711 
L 161.991776 211.770342 
L 162.076058 210.863196 
L 162.244622 119.968782 
L 162.328904 114.351177 
L 162.413186 125.357018 
L 162.497468 219.394864 
L 162.58175 213.228109 
L 162.666032 124.051409 
L 162.834596 224.171458 
L 162.918879 217.789807 
L 163.171725 232.342948 
L 163.256007 231.238399 
L 163.340289 285.848197 
L 163.424571 279.850401 
L 163.508853 272.209469 
L 163.677417 280.361766 
L 163.845981 263.54266 
L 164.098828 271.702717 
L 164.18311 270.890591 
L 164.267392 266.769968 
L 164.351674 268.929286 
L 164.435956 274.170581 
L 164.60452 264.778626 
L 164.773084 280.910728 
L 164.857366 278.076287 
L 165.02593 264.402996 
L 165.278777 278.928707 
L 165.363059 275.323073 
L 165.447341 276.102857 
L 165.868751 264.445564 
L 166.037315 266.426669 
L 166.205879 255.930524 
L 166.290161 257.899227 
L 166.374444 258.947199 
L 166.543008 274.375709 
L 166.711572 255.645847 
L 166.880136 267.377594 
L 166.964418 266.395992 
L 167.0487 263.696513 
L 167.132982 270.140265 
L 167.301546 258.568103 
L 167.47011 272.398347 
L 167.638675 263.2038 
L 167.722957 265.244104 
L 168.060085 257.546642 
L 168.228649 259.370452 
L 168.312931 261.618355 
L 168.481495 253.288263 
L 168.650059 260.373139 
L 168.818624 237.096572 
L 168.902906 238.944788 
L 169.07147 248.581113 
L 169.240034 245.428738 
L 169.324316 250.263667 
L 169.408598 246.215006 
L 169.49288 246.490502 
L 169.661444 248.492553 
L 170.082855 257.330608 
L 170.419983 240.030938 
L 170.672829 254.324301 
L 171.09424 234.135686 
L 171.262804 232.007694 
L 171.347086 232.87015 
L 171.431368 226.889465 
L 171.599932 237.689042 
L 171.684214 234.594797 
L 171.768496 231.422845 
L 171.852778 231.70707 
L 171.93706 234.603056 
L 172.021342 242.537687 
L 172.189907 233.66123 
L 172.274189 234.883211 
L 172.442753 241.88052 
L 172.527035 241.812727 
L 172.779881 233.872954 
L 172.864163 234.424039 
L 173.032727 230.984814 
L 173.454138 220.9452 
L 173.53842 222.02519 
L 173.706984 214.966063 
L 173.791266 216.973951 
L 173.95983 223.50823 
L 174.044112 223.623591 
L 174.212676 236.706927 
L 174.296958 233.20022 
L 174.38124 231.990628 
L 174.549805 223.316508 
L 174.718369 236.578124 
L 174.886933 225.327203 
L 175.055497 228.318197 
L 175.224061 223.757571 
L 175.561189 211.198531 
L 175.645472 212.667794 
L 175.729754 212.350839 
L 175.898318 127.104553 
L 176.066882 214.902102 
L 176.151164 210.881205 
L 176.235446 211.038851 
L 176.40401 218.321915 
L 176.488292 218.159905 
L 176.572574 217.404545 
L 176.741138 227.992617 
L 176.909703 217.147045 
L 177.078267 222.727254 
L 177.246831 218.850805 
L 177.331113 213.376715 
L 177.415395 127.696458 
L 177.583959 218.719186 
L 177.668241 210.570073 
L 177.836805 121.679063 
L 177.921088 121.433962 
L 178.00537 123.02974 
L 178.258216 118.818179 
L 178.342498 119.085451 
L 178.42678 119.473371 
L 178.511062 118.778427 
L 178.595344 119.434834 
L 178.679626 123.086044 
L 178.763908 120.904064 
L 178.932472 112.727565 
L 179.185319 119.110751 
L 179.269601 122.755879 
L 179.438165 116.278523 
L 179.522447 117.417993 
L 179.775293 122.926008 
L 179.943857 114.2483 
L 180.028139 125.38328 
L 180.112421 213.610672 
L 180.196703 209.67856 
L 180.280986 126.314935 
L 180.44955 212.70915 
L 180.533832 209.438253 
L 180.618114 127.022051 
L 180.702396 127.530998 
L 180.786678 127.238832 
L 180.87096 127.697067 
L 180.955242 126.968506 
L 181.208088 120.019303 
L 181.29237 119.93835 
L 181.460935 117.276211 
L 181.629499 121.147252 
L 181.798063 117.14334 
L 181.966627 121.429123 
L 182.050909 115.161623 
L 182.135191 115.405518 
L 182.219473 119.929047 
L 182.388037 116.226221 
L 182.556602 119.830012 
L 182.640884 118.026799 
L 182.89373 121.28374 
L 182.978012 121.202905 
L 183.062294 120.952551 
L 183.230858 111.932836 
L 183.399422 122.704429 
L 183.483704 120.920662 
L 183.652268 118.641733 
L 183.736551 118.561285 
L 183.989397 114.430664 
L 184.073679 111.765621 
L 184.157961 112.354378 
L 184.242243 113.844617 
L 184.410807 107.113006 
L 184.495089 107.904203 
L 184.663653 115.135329 
L 184.747935 115.01337 
L 184.832218 115.403167 
L 185.000782 120.445616 
L 185.085064 120.001918 
L 185.169346 118.010406 
L 185.33791 127.429144 
L 185.506474 219.999048 
L 185.590756 212.352665 
L 185.675038 122.820199 
L 185.75932 127.58573 
L 185.843602 214.581428 
L 185.927884 212.115312 
L 186.012167 125.3877 
L 186.096449 210.041129 
L 186.265013 123.322892 
L 186.602141 116.118923 
L 186.770705 109.513526 
L 186.939269 111.264974 
L 187.023551 111.49357 
L 187.192116 113.543533 
L 187.276398 114.813871 
L 187.444962 123.473706 
L 187.529244 121.603955 
L 187.613526 118.942599 
L 187.78209 125.398916 
L 187.866372 123.2409 
L 187.950654 125.309885 
L 188.034936 124.285109 
L 188.2035 118.890244 
L 188.372065 121.780426 
L 188.456347 122.804761 
L 188.540629 122.395619 
L 188.624911 125.740842 
L 188.793475 115.230322 
L 188.962039 125.819415 
L 189.130603 120.769652 
L 189.467732 123.787312 
L 189.636296 121.546583 
L 190.057706 126.43304 
L 190.22627 210.755088 
L 190.310552 210.642838 
L 190.479116 214.147579 
L 190.563398 212.064337 
L 190.731963 126.089103 
L 190.816245 123.5298 
L 190.984809 126.605434 
L 191.153373 123.897177 
L 191.237655 124.076028 
L 191.321937 124.747838 
L 191.406219 127.683182 
L 191.490501 210.083304 
L 191.574783 127.489933 
L 191.743347 217.175421 
L 191.82763 221.503196 
L 191.911912 210.068833 
L 191.996194 117.952233 
L 192.080476 120.963602 
L 192.164758 127.543895 
L 192.24904 127.449691 
L 192.417604 211.784789 
L 192.501886 209.337885 
L 192.586168 123.377557 
L 192.754732 216.609751 
L 192.839014 211.687684 
L 193.007579 125.291674 
L 193.091861 125.694136 
L 193.260425 215.245048 
L 193.344707 215.87109 
L 193.513271 219.946882 
L 193.766117 214.803183 
L 193.934681 222.384454 
L 194.103246 217.586386 
L 194.187528 217.856189 
L 194.356092 210.184524 
L 194.440374 210.888212 
L 194.524656 210.392419 
L 194.608938 127.032444 
L 194.69322 209.83102 
L 194.861784 123.137225 
L 194.946066 121.163245 
L 195.11463 126.493728 
L 195.283195 117.601393 
L 195.367477 122.966397 
L 195.451759 211.270404 
L 195.536041 211.182204 
L 195.620323 211.294208 
L 195.788887 217.195663 
L 195.957451 213.34024 
L 196.126015 220.963516 
L 196.210297 220.254586 
L 196.378862 218.010089 
L 196.631708 211.557895 
L 196.800272 122.096456 
L 196.968836 120.098928 
L 197.1374 127.690161 
L 197.221682 126.378324 
L 197.474528 117.473724 
L 197.558811 121.343098 
L 197.727375 118.364581 
L 197.895939 125.140794 
L 197.980221 123.647796 
L 198.064503 125.514497 
L 198.233067 212.54988 
L 198.401631 219.856494 
L 198.570195 216.90419 
L 198.654477 218.73889 
L 199.075888 213.277229 
L 199.16017 209.584586 
L 199.328734 121.718657 
L 199.497298 124.095056 
L 199.665862 119.396611 
L 199.750144 120.211118 
L 199.918709 124.402747 
L 200.087273 211.607682 
L 200.171555 211.047883 
L 200.255837 211.223685 
L 200.424401 215.102103 
L 200.508683 215.725613 
L 200.677247 219.450296 
L 200.930093 210.249391 
L 201.098658 125.802013 
L 201.267222 125.0334 
L 201.520068 117.096311 
L 201.60435 118.030209 
L 201.772914 125.045231 
L 201.941478 121.548931 
L 202.110042 126.980403 
L 202.194325 126.089353 
L 202.278607 126.808009 
L 202.447171 213.210574 
L 202.531453 213.548929 
L 202.700017 212.91597 
L 202.784299 211.159122 
L 202.952863 125.424574 
L 203.205709 120.427193 
L 203.374274 117.058647 
L 203.458556 118.18777 
L 203.542838 117.903672 
L 203.62712 115.644767 
L 203.711402 116.149374 
L 203.964248 126.155397 
L 204.132812 216.371255 
L 204.301376 214.245321 
L 204.385658 215.160636 
L 204.469941 217.491666 
L 204.554223 216.754267 
L 204.722787 215.962506 
L 204.891351 210.007946 
L 205.059915 120.068258 
L 205.144197 126.556022 
L 205.228479 211.450475 
L 205.397043 114.027138 
L 205.565607 111.921266 
L 205.902736 121.83704 
L 205.987018 122.604558 
L 206.155582 118.840932 
L 206.239864 125.546086 
L 206.408428 213.423424 
L 206.576992 124.027301 
L 206.661274 126.576905 
L 206.745556 210.673667 
L 206.914121 124.373621 
L 207.166967 119.067811 
L 207.335531 124.007048 
L 207.504095 116.435436 
L 207.672659 125.899187 
L 207.756941 123.922205 
L 207.841223 122.660933 
L 208.009788 221.915195 
L 208.09407 221.53308 
L 208.346916 216.090484 
L 208.51548 221.197793 
L 208.684044 213.509729 
L 208.768326 127.612192 
L 208.852608 209.657988 
L 209.105455 64.412832 
L 209.189737 64.863802 
L 209.274019 64.582593 
L 209.442583 54.404139 
L 209.611147 57.524125 
L 209.779711 71.402074 
L 209.863993 68.290864 
L 209.948275 66.723146 
L 210.53825 86.043311 
L 210.706814 87.531303 
L 210.791096 87.399038 
L 211.043942 76.758413 
L 211.212506 84.918835 
L 211.381071 74.067268 
L 211.549635 83.021006 
L 211.633917 79.986114 
L 211.802481 81.88789 
L 212.476737 105.826729 
L 212.645302 101.713819 
L 212.729584 105.84882 
L 212.813866 103.480121 
L 212.898148 95.979424 
L 213.066712 103.448369 
L 213.235276 95.022067 
L 213.40384 106.648608 
L 213.572404 104.832648 
L 213.656686 101.069697 
L 213.740969 102.162553 
L 213.825251 105.822525 
L 213.993815 102.774433 
L 214.162379 107.955352 
L 214.415225 100.033924 
L 214.668071 103.077616 
L 214.752353 101.590854 
L 214.920918 92.725568 
L 215.089482 97.447651 
L 215.342328 106.846355 
L 215.42661 104.1877 
L 215.510892 104.622405 
L 215.763738 117.001213 
L 215.932302 106.508686 
L 216.185149 114.513991 
L 216.269431 112.459599 
L 216.353713 113.541537 
L 216.437995 112.009131 
L 216.522277 107.362129 
L 216.690841 113.083566 
L 216.859405 108.576888 
L 217.112251 112.61979 
L 217.196534 111.264983 
L 217.280816 115.848895 
L 217.365098 115.830465 
L 217.617944 119.448109 
L 217.786508 110.849006 
L 217.87079 122.854261 
L 218.039354 215.246364 
L 218.123636 217.484721 
L 218.207918 211.103942 
L 218.292201 124.555295 
L 218.460765 216.106095 
L 218.545047 223.634321 
L 218.629329 222.341716 
L 218.797893 210.745376 
L 218.882175 124.84009 
L 219.050739 211.849428 
L 219.135021 213.408037 
L 219.303585 120.703458 
L 219.47215 126.3242 
L 219.724996 109.156165 
L 219.809278 109.781435 
L 219.977842 119.864952 
L 220.062124 119.944283 
L 220.146406 123.252533 
L 220.230688 209.334842 
L 220.399252 121.877753 
L 220.483534 126.273104 
L 220.567816 212.546702 
L 220.652099 212.517934 
L 220.736381 214.544993 
L 220.904945 223.354891 
L 221.157791 217.486919 
L 221.326355 221.659983 
L 221.579201 213.869283 
L 221.663483 210.321252 
L 221.747766 127.234675 
L 221.91633 210.905725 
L 222.000612 210.602823 
L 222.169176 117.644556 
L 222.33774 125.36022 
L 222.506304 210.334615 
L 222.590586 210.856222 
L 222.674868 124.174163 
L 222.843432 217.806862 
L 223.011997 214.660248 
L 223.264843 232.315419 
L 223.349125 236.675759 
L 223.517689 218.787331 
L 223.854817 229.860708 
L 224.107664 226.169974 
L 224.36051 215.995737 
L 224.529074 221.706663 
L 224.697638 216.32834 
L 224.78192 217.092147 
L 224.866202 209.895152 
L 225.034766 270.421688 
L 225.287613 279.349238 
L 225.371895 278.113267 
L 225.540459 282.083758 
L 225.624741 279.492134 
L 225.793305 268.882432 
L 226.046151 276.228058 
L 226.130433 277.535019 
L 226.298997 261.837137 
L 226.38328 271.039927 
L 226.467562 270.894431 
L 226.551844 266.651266 
L 226.636126 267.912419 
L 226.888972 276.443471 
L 227.057536 279.932852 
L 227.2261 278.525424 
L 227.394664 267.246701 
L 227.478946 269.165417 
L 227.647511 285.889628 
L 227.984639 268.997838 
L 228.153203 277.121857 
L 228.321767 261.144147 
L 228.490331 282.946734 
L 228.658895 252.898173 
L 228.743178 255.004492 
L 228.82746 255.729997 
L 228.911742 254.71003 
L 229.080306 262.296743 
L 229.333152 253.44778 
L 229.585998 259.297499 
L 229.67028 261.84578 
L 229.838845 248.411324 
L 230.007409 262.834212 
L 230.175973 246.264564 
L 230.344537 270.615691 
L 230.428819 270.506227 
L 230.597383 253.93546 
L 230.765947 275.271088 
L 230.934511 262.157501 
L 231.018794 261.499991 
L 231.187358 253.668689 
L 231.355922 261.895982 
L 231.608768 243.877406 
L 231.777332 237.181777 
L 232.030178 247.019641 
L 232.11446 243.206988 
L 232.198743 245.826063 
L 232.367307 242.127574 
L 232.535871 243.34784 
L 232.704435 248.823591 
L 232.957281 236.315643 
L 233.041563 237.828672 
L 233.125845 236.41643 
L 233.29441 243.341473 
L 233.378692 240.323185 
L 233.547256 234.198035 
L 233.71582 238.363598 
L 233.884384 234.066329 
L 233.968666 229.65869 
L 234.13723 243.74053 
L 234.305794 240.722084 
L 234.390076 242.321641 
L 234.474359 241.757402 
L 234.558641 245.759775 
L 234.642923 245.634786 
L 234.727205 241.429308 
L 234.895769 249.11777 
L 235.064333 231.718295 
L 235.148615 235.476652 
L 235.317179 227.910931 
L 235.401461 230.787086 
L 235.485743 230.165849 
L 235.73859 225.358292 
L 235.822872 225.254247 
L 235.991436 217.047487 
L 236.244282 227.734461 
L 236.328564 224.415461 
L 236.412846 225.701052 
L 236.665692 221.248655 
L 236.834257 215.436165 
L 237.002821 220.244354 
L 237.171385 213.00354 
L 237.339949 121.451695 
L 237.424231 126.457086 
L 237.508513 212.084998 
L 237.677077 118.290791 
L 237.761359 118.150684 
L 237.845641 119.069051 
L 238.014206 121.994855 
L 238.098488 121.6807 
L 238.267052 216.420651 
L 238.351334 213.575034 
L 238.435616 214.183067 
L 238.519898 215.754057 
L 238.60418 219.454831 
L 238.857026 214.020967 
L 239.02559 219.93413 
L 239.278437 214.83941 
L 239.447001 116.565369 
L 239.531283 124.412526 
L 239.615565 211.253429 
L 239.784129 121.465676 
L 239.952693 110.702102 
L 240.036975 109.734543 
L 240.289822 117.891703 
L 240.374104 110.137188 
L 240.458386 110.237082 
L 240.62695 121.555274 
L 240.711232 123.578549 
L 240.879796 121.075758 
L 240.964078 124.357784 
L 241.04836 209.703231 
L 241.132642 209.448389 
L 241.301206 213.819976 
L 241.385489 213.142955 
L 241.554053 211.825903 
L 241.722617 121.294415 
L 241.806899 116.670213 
L 241.891181 118.520063 
L 242.059745 114.143337 
L 242.228309 119.088204 
L 242.565438 112.546673 
L 242.64972 112.530507 
L 242.734002 113.706606 
L 242.902566 122.44854 
L 243.07113 115.248636 
L 243.323976 124.855351 
L 243.408258 125.450192 
L 243.661105 120.043597 
L 243.829669 125.341833 
L 244.335361 113.889345 
L 244.503925 116.873304 
L 244.588207 115.881481 
L 244.756771 119.713544 
L 244.925336 114.097847 
L 245.0939 124.526549 
L 245.262464 111.372391 
L 245.346746 112.045132 
L 245.51531 120.855798 
L 245.599592 119.708714 
L 245.683874 126.306922 
L 245.852438 213.50746 
L 245.93672 209.61044 
L 246.021003 124.505496 
L 246.105285 126.371508 
L 246.189567 209.684054 
L 246.358131 121.37223 
L 246.442413 124.277878 
L 246.526695 123.712056 
L 246.610977 122.884932 
L 246.779541 119.561088 
L 246.948105 118.829085 
L 247.200952 119.837164 
L 247.285234 121.354725 
L 247.369516 125.495 
L 247.453798 210.358046 
L 247.622362 121.287103 
L 247.790926 114.26957 
L 247.95949 126.956317 
L 248.043772 209.521305 
L 248.212336 125.695281 
L 248.380901 121.674798 
L 248.465183 121.983343 
L 248.549465 126.8967 
L 248.633747 211.361038 
L 248.802311 122.486027 
L 248.970875 120.077137 
L 249.139439 126.874447 
L 249.308003 209.955844 
L 249.476568 123.288683 
L 249.56085 123.303358 
L 249.645132 124.39862 
L 249.729414 124.101853 
L 249.813696 124.337761 
L 249.897978 210.209922 
L 249.98226 210.084291 
L 250.066542 209.500858 
L 250.150824 210.93794 
L 250.319388 121.669233 
L 250.40367 121.743389 
L 250.656517 127.612077 
L 250.740799 212.439954 
L 250.825081 209.842278 
L 250.909363 126.111093 
L 251.077927 212.54208 
L 251.246491 210.899905 
L 251.415055 218.306021 
L 251.583619 209.412058 
L 251.752184 118.325566 
L 251.920748 112.125937 
L 252.089312 117.237398 
L 252.257876 110.014139 
L 252.679286 115.683163 
L 252.84785 114.597677 
L 252.932133 112.791437 
L 253.353543 123.673347 
L 253.522107 216.071476 
L 253.606389 211.864872 
L 253.690671 126.472584 
L 253.774953 127.367529 
L 253.859235 209.714968 
L 254.027799 118.746185 
L 254.112082 115.401329 
L 254.280646 122.298108 
L 254.44921 110.939917 
L 254.617774 113.78114 
L 254.702056 112.830835 
L 254.786338 114.353958 
L 254.954902 121.412004 
L 255.123466 118.732447 
L 255.376313 124.052821 
L 255.460595 127.657725 
L 255.544877 212.19554 
L 255.629159 209.686126 
L 255.713441 126.327551 
L 255.882005 215.225609 
L 255.966287 210.154813 
L 256.050569 124.172009 
L 256.134851 126.659274 
L 256.219133 212.100887 
L 256.303415 210.865733 
L 256.47198 124.310804 
L 256.640544 118.099019 
L 256.724826 118.530359 
L 256.89339 120.45691 
L 257.061954 114.08143 
L 257.146236 122.254815 
L 257.230518 212.43065 
L 257.3148 212.280362 
L 257.399082 211.295293 
L 257.483364 211.419597 
L 257.651929 218.826766 
L 257.820493 214.059752 
L 257.904775 215.018951 
L 257.989057 214.786283 
L 258.073339 213.149805 
L 258.241903 119.489304 
L 258.410467 122.890554 
L 258.663314 114.28784 
L 258.747596 113.401329 
L 258.831878 115.590546 
L 258.91616 115.048875 
L 259.000442 114.392779 
L 259.33757 127.556397 
L 259.506134 220.373897 
L 259.590416 214.798509 
L 259.674698 215.354967 
L 259.843263 223.66187 
L 259.927545 222.262011 
L 260.011827 222.978232 
L 260.180391 214.846121 
L 260.348955 125.852753 
L 260.601801 121.155401 
L 260.686083 122.557562 
L 260.854647 110.754782 
L 261.023212 118.363463 
L 261.107494 117.653397 
L 261.191776 116.214515 
L 261.36034 126.245763 
L 261.444622 125.37103 
L 261.528904 127.199397 
L 261.697468 216.289781 
L 261.78175 215.647446 
L 261.866032 215.971252 
L 262.118879 222.520401 
L 262.287443 215.686958 
L 262.371725 210.723425 
L 262.540289 120.318944 
L 262.624571 119.57179 
L 262.708853 119.684595 
L 262.793135 119.517042 
L 262.961699 115.183025 
L 263.130263 122.462223 
L 263.298828 117.279906 
L 263.38311 124.886989 
L 263.551674 215.25506 
L 263.720238 211.181761 
L 263.80452 212.251635 
L 264.057366 216.458901 
L 264.141648 215.413806 
L 264.310212 221.130869 
L 264.478777 209.727837 
L 264.647341 123.239232 
L 264.731623 124.566769 
L 264.815905 123.432112 
L 264.984469 126.898642 
L 265.153033 123.435759 
L 265.237315 124.660307 
L 265.321597 127.670044 
L 265.490161 211.84403 
L 265.658726 126.223063 
L 265.82729 218.732035 
L 266.2487 226.473244 
L 266.332982 226.136293 
L 266.417264 224.03388 
L 266.501546 226.339887 
L 266.585828 226.186969 
L 266.67011 225.909522 
L 266.754393 224.968713 
L 266.838675 225.845269 
L 266.922957 223.661035 
L 267.175803 211.972512 
L 267.344367 125.181933 
L 267.428649 123.954492 
L 267.597213 125.818673 
L 267.681495 120.248691 
L 267.765777 120.609523 
L 267.850059 125.919874 
L 268.018624 214.119866 
L 268.355752 223.48797 
L 268.440034 223.032193 
L 268.524316 221.68738 
L 268.69288 229.744079 
L 269.535701 213.282351 
L 269.619983 209.70285 
L 269.788547 122.969529 
L 269.872829 123.789931 
L 269.957111 127.327813 
L 270.125675 215.000027 
L 270.29424 217.147875 
L 270.378522 216.913073 
L 270.547086 224.872138 
L 270.631368 224.409418 
L 271.052778 232.728534 
L 271.221342 219.105354 
L 271.474189 226.686866 
L 271.811317 218.511493 
L 271.895599 218.879035 
L 271.979881 214.008726 
L 272.148445 122.373207 
L 272.232727 122.120832 
L 272.569856 124.898198 
L 272.73842 121.006981 
L 272.822702 127.371103 
L 272.906984 216.573132 
L 272.991266 215.694286 
L 273.075548 216.682149 
L 273.58124 230.726729 
L 274.086933 215.298397 
L 274.255497 211.71073 
L 274.424061 120.796994 
L 274.508343 121.949659 
L 274.592625 125.487106 
L 274.676907 120.683006 
L 274.761189 122.479453 
L 274.929754 213.390043 
L 275.014036 213.250737 
L 275.098318 214.148768 
L 275.266882 222.636391 
L 275.351164 220.5605 
L 275.435446 218.671791 
L 275.688292 232.10845 
L 276.025421 215.811713 
L 276.109703 214.209112 
L 276.278267 216.464985 
L 276.446831 211.605851 
L 276.615395 124.536864 
L 276.699677 125.737367 
L 276.868241 215.407638 
L 277.036805 221.700542 
L 277.20537 215.765547 
L 277.289652 216.445534 
L 277.458216 226.5246 
L 277.62678 224.854501 
L 277.711062 224.52755 
L 277.795344 222.550211 
L 277.879626 222.784468 
L 277.963908 222.791459 
L 278.132472 217.890907 
L 278.301037 221.420825 
L 278.469601 209.952586 
L 278.553883 210.837982 
L 278.638165 211.500989 
L 278.722447 211.133057 
L 278.806729 211.992506 
L 278.891011 209.358343 
L 278.975293 125.086697 
L 279.059575 127.194107 
L 279.228139 213.696018 
L 279.312421 214.201306 
L 279.480986 216.122689 
L 279.565268 211.867322 
L 279.64955 212.056375 
L 279.733832 215.157133 
L 279.902396 210.064243 
L 280.07096 124.382101 
L 280.323806 121.387736 
L 280.408088 124.431382 
L 280.49237 210.346862 
L 280.660935 120.228416 
L 280.829499 126.476841 
L 280.998063 120.71492 
L 281.082345 122.643767 
L 281.166627 127.194631 
L 281.335191 215.500194 
L 281.925166 223.323482 
L 282.09373 213.647183 
L 282.262294 218.132498 
L 282.346576 217.763229 
L 282.599422 211.498511 
L 282.767986 116.698505 
L 282.852268 120.266413 
L 282.936551 119.167876 
L 283.020833 119.041032 
L 283.105115 118.681355 
L 283.273679 119.81514 
L 283.357961 118.883097 
L 283.442243 116.593879 
L 283.610807 125.433412 
L 283.695089 211.35791 
L 283.863653 126.367681 
L 284.032218 217.273322 
L 284.200782 219.972914 
L 284.369346 226.538496 
L 284.53791 216.605825 
L 284.706474 226.057754 
L 284.875038 216.273163 
L 284.95932 216.479099 
L 285.043602 216.011527 
L 285.127884 213.594959 
L 285.296449 117.10234 
L 285.465013 124.588354 
L 285.802141 113.28047 
L 285.886423 115.350229 
L 285.970705 120.165454 
L 286.139269 117.38357 
L 286.223551 122.288134 
L 286.392116 210.002734 
L 286.476398 209.894359 
L 286.729244 220.280846 
L 286.897808 216.609663 
L 286.98209 216.967895 
L 287.066372 217.822257 
L 287.4035 210.198054 
L 287.572065 123.513508 
L 287.740629 126.245129 
L 287.909193 113.519171 
L 288.077757 126.37433 
L 288.162039 124.743192 
L 288.246321 124.860645 
L 288.414885 214.51093 
L 288.583449 209.411885 
L 288.920578 219.6589 
L 289.00486 218.273986 
L 289.341988 210.267 
L 289.42627 125.605314 
L 289.594834 214.778253 
L 289.763398 119.442063 
L 289.931963 127.497842 
L 290.100527 115.489626 
L 290.437655 127.314149 
L 290.521937 210.229139 
L 290.606219 127.275664 
L 290.774783 219.6088 
L 290.943347 217.505043 
L 291.02763 217.350057 
L 291.280476 213.701504 
L 291.364758 210.064664 
L 291.533322 218.117693 
L 291.617604 213.517177 
L 291.701886 125.968277 
L 291.87045 213.766787 
L 292.039014 114.304217 
L 292.376143 124.742236 
L 292.628989 119.437793 
L 292.713271 119.619806 
L 292.797553 120.533853 
L 293.050399 127.627482 
L 293.134681 126.453814 
L 293.303246 108.694437 
L 293.387528 110.327324 
L 293.556092 125.754638 
L 293.640374 123.896093 
L 293.724656 117.556652 
L 293.808938 118.088956 
L 293.89322 120.605181 
L 293.977502 120.00565 
L 294.061784 120.438844 
L 294.230348 116.404519 
L 294.31463 117.107938 
L 294.483195 111.403885 
L 294.820323 120.845199 
L 294.988887 115.988227 
L 295.241733 122.405298 
L 295.410297 124.520304 
L 295.578862 215.074039 
L 295.831708 209.485709 
L 296.000272 125.826141 
L 296.168836 121.674485 
L 296.3374 213.535588 
L 296.505964 109.056694 
L 296.843093 115.290357 
L 296.927375 113.835799 
L 297.348785 120.863934 
L 297.433067 120.651409 
L 297.517349 123.76918 
L 297.685913 211.488588 
L 297.770195 127.65493 
L 297.93876 214.987557 
L 298.023042 211.096016 
L 298.191606 122.885028 
L 298.444452 122.93686 
L 298.528734 124.174507 
L 298.697298 113.167473 
L 298.865862 118.981799 
L 298.950144 124.127173 
L 299.118709 112.172382 
L 299.455837 124.752675 
L 299.540119 123.950559 
L 299.624401 124.293227 
L 299.792965 126.889086 
L 299.961529 216.884645 
L 300.045811 212.157729 
L 300.214376 123.913114 
L 300.298658 121.239938 
L 300.38294 121.74961 
L 300.467222 121.110933 
L 300.635786 121.940968 
L 300.972914 118.150241 
L 301.141478 122.942846 
L 301.310042 118.374703 
L 301.562889 123.930083 
L 301.647171 125.002043 
L 301.815735 215.613183 
L 301.900017 210.688963 
L 301.984299 121.908477 
L 302.068581 126.552337 
L 302.152863 212.0382 
L 302.237145 210.144466 
L 302.321427 126.028121 
L 302.489992 210.249206 
L 302.658556 120.232173 
L 302.742838 125.890595 
L 302.82712 209.674361 
L 302.995684 121.869418 
L 303.079966 116.674193 
L 303.164248 116.693847 
L 303.417094 125.941737 
L 303.501376 209.938273 
L 303.669941 124.406323 
L 303.754223 121.028835 
L 303.838505 123.247752 
L 304.007069 213.637138 
L 304.175633 209.40597 
L 304.259915 211.530049 
L 304.344197 210.112432 
L 304.512761 122.551538 
L 304.597043 120.197565 
L 304.681325 125.997005 
L 304.765607 211.452698 
L 304.934172 123.898586 
L 305.102736 120.207835 
L 305.187018 121.155969 
L 305.2713 63.719219 
L 305.355582 69.938185 
L 305.524146 77.868975 
L 305.608428 78.3854 
L 305.861274 93.67586 
L 306.029839 81.590337 
L 306.198403 91.03016 
L 306.366967 83.936324 
L 306.451249 84.729778 
L 306.619813 83.000695 
L 306.704095 82.460019 
L 307.041223 92.799352 
L 307.125506 92.410768 
L 307.29407 83.22439 
L 307.462634 86.008974 
L 307.71548 80.085752 
L 307.799762 76.737646 
L 307.968326 80.331308 
L 308.052608 79.494008 
L 308.13689 79.724199 
L 308.221172 78.942221 
L 308.305455 75.71837 
L 308.389737 76.33745 
L 308.642583 87.623841 
L 308.811147 84.242933 
L 308.895429 85.368291 
L 309.063993 93.688226 
L 309.148275 93.699621 
L 309.232557 92.625636 
L 309.485404 99.838184 
L 309.569686 98.399253 
L 309.822532 105.589851 
L 309.906814 106.516049 
L 310.15966 99.518164 
L 310.243942 99.382168 
L 310.412506 105.639091 
L 310.496788 105.458573 
L 310.665353 96.709147 
L 310.749635 99.583338 
L 310.833917 99.216622 
L 310.918199 99.861423 
L 311.171045 106.691569 
L 311.423891 95.101447 
L 311.508173 96.559153 
L 311.592455 98.978978 
L 311.676737 97.896859 
L 311.76102 98.52701 
L 311.845302 98.178168 
L 311.929584 100.138018 
L 312.013866 100.117333 
L 312.098148 100.229094 
L 312.519558 107.074095 
L 312.688122 111.904854 
L 312.856686 114.000532 
L 312.940969 112.95258 
L 313.025251 110.227812 
L 313.278097 115.923175 
L 313.362379 115.634427 
L 313.615225 108.993749 
L 313.868071 106.984296 
L 313.952353 109.67078 
L 314.120918 105.677753 
L 314.289482 116.0997 
L 314.458046 111.469661 
L 314.62661 122.388835 
L 314.795174 127.012395 
L 314.963738 124.107037 
L 315.04802 123.727936 
L 315.216585 212.864947 
L 315.385149 117.515913 
L 315.469431 125.950987 
L 315.553713 210.685752 
L 315.722277 117.796488 
L 315.806559 111.291807 
L 315.975123 121.251082 
L 316.059405 119.896715 
L 316.143687 120.329821 
L 316.396534 127.439917 
L 316.565098 122.054547 
L 316.733662 221.136108 
L 316.902226 124.483086 
L 316.986508 215.801262 
L 317.07079 213.321076 
L 317.155072 211.312479 
L 317.323636 220.206558 
L 317.492201 216.291813 
L 317.660765 217.945822 
L 317.745047 212.080066 
L 317.829329 119.797492 
L 317.913611 127.632984 
L 317.997893 215.572223 
L 318.082175 212.513349 
L 318.250739 126.976346 
L 318.335021 212.030237 
L 318.419303 210.740855 
L 318.503585 209.501674 
L 318.67215 126.338463 
L 318.840714 210.745013 
L 319.009278 221.750979 
L 319.177842 212.421297 
L 319.346406 224.000108 
L 319.430688 221.420964 
L 319.51497 217.556671 
L 319.683534 222.524569 
L 319.767816 217.305375 
L 319.936381 222.907971 
L 320.020663 221.62732 
L 320.104945 217.655014 
L 320.273509 226.059003 
L 320.526355 219.666133 
L 320.694919 224.375749 
L 320.863483 221.627192 
L 321.032048 225.172773 
L 321.11633 225.329607 
L 321.284894 223.60715 
L 321.453458 218.917844 
L 321.622022 224.835167 
L 321.790586 215.587672 
L 321.874868 218.290675 
L 321.95915 211.493567 
L 322.043432 122.639508 
L 322.211997 220.865829 
L 322.296279 220.002378 
L 322.464843 278.519501 
L 322.801971 292.953182 
L 322.970535 279.604207 
L 323.139099 289.09031 
L 323.223381 288.343373 
L 323.813356 262.105668 
L 323.98192 278.787137 
L 324.150484 250.211383 
L 324.403331 276.111737 
L 324.571895 265.489326 
L 324.740459 278.740966 
L 324.824741 272.205917 
L 324.993305 279.426436 
L 325.161869 265.263122 
L 325.330433 280.062753 
L 325.498997 259.882996 
L 325.58328 260.673064 
L 325.667562 265.03645 
L 325.751844 264.95886 
L 325.920408 261.134275 
L 326.088972 262.031906 
L 326.257536 257.148687 
L 326.4261 268.194066 
L 326.594664 257.178789 
L 326.763229 255.736829 
L 326.931793 258.097157 
L 327.016075 257.397351 
L 327.184639 271.302019 
L 327.353203 257.480045 
L 327.521767 264.437195 
L 327.606049 262.514947 
L 327.690331 260.497997 
L 327.943178 248.361765 
L 328.111742 252.405384 
L 328.364588 239.795874 
L 328.44887 238.914631 
L 328.533152 246.431531 
L 328.617434 245.995174 
L 328.701716 245.900288 
L 328.785998 252.43958 
L 328.954562 241.049295 
L 329.038845 242.494916 
L 329.123127 244.186067 
L 329.291691 260.025551 
L 329.460255 247.750367 
L 329.544537 248.793707 
L 329.713101 237.842043 
L 329.797383 238.050228 
L 329.881665 240.909098 
L 330.134511 232.312133 
L 330.218794 232.391458 
L 330.303076 237.166858 
L 330.555922 224.548908 
L 330.724486 233.528953 
L 330.808768 232.23975 
L 330.89305 232.103948 
L 331.061614 228.048527 
L 331.398743 243.626987 
L 331.483025 238.8322 
L 331.567307 240.694672 
L 331.651589 239.439882 
L 331.735871 235.527431 
L 331.904435 239.246078 
L 331.988717 234.72945 
L 332.072999 235.657538 
L 332.157281 237.164893 
L 332.325845 230.34515 
L 332.49441 237.657316 
L 332.578692 237.013309 
L 332.662974 234.968308 
L 332.91582 223.58115 
L 333.000102 224.340447 
L 333.252948 219.514126 
L 333.33723 220.139833 
L 333.505794 216.394551 
L 333.674359 213.961144 
L 333.842923 219.752671 
L 333.927205 212.915495 
L 334.095769 120.185331 
L 334.264333 124.084866 
L 334.348615 121.637214 
L 334.432897 125.635298 
L 334.517179 211.899293 
L 334.685743 118.871397 
L 334.770025 124.940299 
L 334.93859 214.117182 
L 335.107154 216.681628 
L 335.191436 214.699004 
L 335.528564 222.666232 
L 335.612846 211.223952 
L 335.697128 120.38341 
L 335.78141 124.317587 
L 335.865692 127.242092 
L 335.949975 125.790295 
L 336.034257 209.695539 
L 336.202821 121.782261 
L 336.371385 120.629932 
L 336.455667 121.044367 
L 336.624231 113.579187 
L 336.708513 112.979368 
L 336.961359 107.589431 
L 337.045641 108.563342 
L 337.129924 108.176387 
L 337.298488 100.637291 
L 337.635616 106.354261 
L 337.80418 105.050303 
L 337.888462 104.93765 
L 338.057026 111.036722 
L 338.22559 107.85371 
L 338.562719 115.578584 
L 338.731283 113.330835 
L 338.815565 113.756766 
L 338.899847 115.245034 
L 339.068411 109.920758 
L 339.321257 121.51926 
L 339.489822 126.638103 
L 339.742668 115.271749 
L 339.911232 121.747524 
L 339.995514 117.193075 
L 340.079796 117.79542 
L 340.164078 118.690392 
L 340.332642 111.434534 
L 340.416924 113.203702 
L 340.501206 115.47706 
L 340.669771 109.364413 
L 340.838335 118.539018 
L 340.922617 118.350565 
L 341.006899 117.359947 
L 341.175463 113.256105 
L 341.428309 124.030748 
L 341.512591 123.374104 
L 341.596873 125.20345 
L 341.681155 125.093801 
L 341.934002 120.936388 
L 342.018284 118.085838 
L 342.186848 126.738284 
L 342.355412 115.108946 
L 342.523976 124.48394 
L 342.608258 124.025801 
L 343.029669 115.584112 
L 343.113951 115.196365 
L 343.198233 118.579289 
L 343.282515 118.217254 
L 343.451079 120.447718 
L 343.619643 118.349525 
L 343.703925 118.346555 
L 343.788207 119.139761 
L 343.956771 125.793674 
L 344.041054 123.486566 
L 344.125336 123.980387 
L 344.209618 124.060141 
L 344.378182 218.119165 
L 344.631028 209.379895 
L 344.71531 127.264528 
L 344.883874 214.02783 
L 344.968156 210.473643 
L 345.052438 126.358672 
L 345.221003 211.833867 
L 345.389567 122.695189 
L 345.558131 125.676047 
L 345.810977 123.36129 
L 345.895259 123.927655 
L 346.063823 127.246129 
L 346.232387 112.338839 
L 346.485234 124.969187 
L 346.653798 121.596816 
L 346.822362 125.367629 
L 346.990926 120.394375 
L 347.243772 125.02377 
L 347.496619 122.494749 
L 347.665183 123.304464 
L 347.833747 119.49986 
L 348.002311 122.667225 
L 348.170875 127.450147 
L 348.508003 116.95065 
L 348.592285 115.234595 
L 348.76085 117.425768 
L 348.845132 116.769731 
L 348.929414 117.942725 
L 349.097978 112.174613 
L 349.266542 120.674472 
L 349.435106 107.761173 
L 349.60367 119.756815 
L 349.772234 111.706315 
L 349.940799 123.314277 
L 350.025081 119.750526 
L 350.193645 127.43461 
L 350.362209 214.212868 
L 350.446491 218.006713 
L 350.530773 216.892843 
L 350.615055 218.579117 
L 350.699337 217.697875 
L 350.867901 211.331739 
L 351.036466 121.171806 
L 351.20503 124.409048 
L 351.457876 115.967477 
L 351.542158 115.669301 
L 351.710722 110.576814 
L 351.879286 122.683086 
L 352.04785 120.420433 
L 352.216415 123.436566 
L 352.300697 126.655145 
L 352.384979 210.296547 
L 352.553543 123.150333 
L 352.637825 123.452923 
L 352.722107 125.735563 
L 352.806389 210.809137 
L 352.890671 210.437013 
L 353.059235 126.783948 
L 353.143517 125.884275 
L 353.312082 215.482711 
L 353.480646 217.432702 
L 353.64921 214.917414 
L 353.733492 212.12343 
L 353.902056 123.535478 
L 354.07062 126.626845 
L 354.239184 120.00592 
L 354.323466 122.006781 
L 354.576313 117.52474 
L 354.660595 118.837892 
L 354.744877 126.280763 
L 354.829159 211.9655 
L 354.997723 124.039318 
L 355.166287 214.632015 
L 355.250569 217.685818 
L 355.503415 213.278229 
L 355.587698 127.083961 
L 355.756262 215.963605 
L 355.840544 210.094634 
L 355.924826 123.163042 
L 356.009108 125.546236 
L 356.177672 212.227299 
L 356.261954 210.523431 
L 356.430518 125.985614 
L 356.5148 126.232454 
L 356.599082 210.519891 
L 356.683364 210.328882 
L 356.767647 125.502886 
L 356.851929 125.605062 
L 356.936211 127.496228 
L 357.020493 127.138214 
L 357.104775 125.759146 
L 357.189057 125.912814 
L 357.273339 126.283424 
L 357.357621 125.841904 
L 357.441903 126.461768 
L 357.526185 210.653473 
L 357.610467 210.536691 
L 357.779031 221.684324 
L 357.947596 215.707295 
L 358.11616 219.816661 
L 358.200442 219.309004 
L 358.369006 222.179786 
L 358.621852 213.572507 
L 358.706134 209.824505 
L 358.874698 216.057331 
L 358.95898 211.792218 
L 359.127545 125.357646 
L 359.211827 124.813487 
L 359.296109 126.787501 
L 359.464673 121.986376 
L 359.548955 122.732362 
L 359.717519 212.71506 
L 359.801801 214.094075 
L 359.886083 213.854916 
L 360.054647 212.935702 
L 360.138929 211.176694 
L 360.307494 220.453213 
L 360.56034 210.939086 
L 360.728904 126.733477 
L 360.813186 125.381207 
L 360.897468 126.991981 
L 360.98175 210.38681 
L 361.150314 122.167429 
L 361.318879 124.254487 
L 361.571725 116.76239 
L 361.740289 125.876738 
L 361.908853 212.41791 
L 361.993135 214.519941 
L 362.161699 211.873788 
L 362.330263 219.137528 
L 362.414545 219.067811 
L 362.58311 220.92276 
L 362.751674 219.779533 
L 362.835956 217.07317 
L 362.920238 217.731261 
L 363.00452 217.166214 
L 363.173084 209.378151 
L 363.341648 122.128593 
L 363.510212 119.836116 
L 363.594494 119.380356 
L 363.678777 120.483983 
L 363.931623 117.448592 
L 364.015905 117.870804 
L 364.100187 118.721088 
L 364.268751 125.161481 
L 364.437315 215.197169 
L 364.774444 226.713106 
L 364.858726 224.669825 
L 364.943008 222.882591 
L 365.111572 225.516439 
L 365.532982 211.147134 
L 365.617264 209.850033 
L 365.785828 120.305274 
L 365.954393 122.231446 
L 366.038675 122.309753 
L 366.207239 124.917375 
L 366.375803 110.504155 
L 366.712931 123.037761 
L 366.965777 116.042393 
L 367.050059 117.173673 
L 367.134342 123.509716 
L 367.302906 213.249087 
L 367.387188 212.654778 
L 367.555752 216.15644 
L 367.724316 212.542072 
L 367.808598 213.183167 
L 367.977162 215.705 
L 368.061444 214.92482 
L 368.230008 118.762594 
L 368.314291 118.022632 
L 368.398573 120.100579 
L 368.482855 117.533625 
L 368.651419 110.582308 
L 368.904265 115.63153 
L 368.988547 114.841763 
L 369.072829 116.057924 
L 369.241393 119.579692 
L 369.325675 118.953107 
L 369.409958 119.389085 
L 369.49424 125.60171 
L 369.662804 212.100422 
L 369.747086 212.143184 
L 369.91565 223.769728 
L 370.252778 212.095189 
L 370.421342 214.075718 
L 370.589907 117.449699 
L 370.758471 120.992067 
L 370.842753 123.479966 
L 371.011317 112.778932 
L 371.179881 122.154643 
L 371.432727 117.062575 
L 371.517009 117.822633 
L 371.685573 127.678449 
L 371.854138 214.678743 
L 372.022702 213.561357 
L 372.191266 219.891851 
L 372.35983 209.873297 
L 372.444112 210.512849 
L 372.612676 124.257397 
L 372.696958 123.373744 
L 372.865523 116.102267 
L 372.949805 117.186653 
L 373.034087 117.129845 
L 373.202651 110.854841 
L 373.371215 113.131178 
L 373.539779 112.544032 
L 373.624061 113.204259 
L 373.708343 112.176934 
L 373.876907 115.196365 
L 373.961189 117.530529 
L 374.045472 116.77138 
L 374.129754 118.249476 
L 374.298318 126.627016 
L 374.3826 126.204881 
L 374.551164 213.647432 
L 374.719728 225.564608 
L 374.972574 218.171188 
L 375.056856 213.501912 
L 375.225421 215.885266 
L 375.309703 210.959012 
L 375.393985 127.402279 
L 375.478267 127.555327 
L 375.562549 209.927099 
L 375.731113 124.038054 
L 375.899677 123.442812 
L 375.983959 122.481793 
L 376.068241 123.182351 
L 376.152523 125.975494 
L 376.321088 213.679287 
L 376.40537 212.528181 
L 376.489652 214.042227 
L 376.658216 220.061113 
L 376.742498 219.613791 
L 376.911062 217.90322 
L 376.995344 218.327224 
L 377.079626 217.516147 
L 377.24819 212.06581 
L 377.332472 211.10292 
L 377.501037 123.966754 
L 377.585319 123.996175 
L 377.922447 119.855461 
L 378.091011 123.315329 
L 378.259575 126.945824 
L 378.343857 210.995925 
L 378.512421 119.166875 
L 378.596703 126.647704 
L 378.765268 222.810998 
L 379.018114 221.251095 
L 379.186678 215.114061 
L 379.355242 219.472426 
L 379.439524 211.293759 
L 379.523806 121.766552 
L 379.608088 124.4123 
L 379.69237 126.568956 
L 379.776653 124.656872 
L 379.945217 56.510178 
L 380.029499 53.568 
L 380.198063 74.956603 
L 380.282345 70.626252 
L 380.366627 67.039538 
L 380.703755 81.927362 
L 380.788037 81.778665 
L 380.872319 82.045838 
L 380.956602 84.579475 
L 381.040884 84.198929 
L 381.125166 82.306998 
L 381.209448 85.020369 
L 381.29373 84.462763 
L 381.462294 78.228555 
L 381.630858 87.637388 
L 381.799422 83.368712 
L 381.967986 76.6481 
L 382.052268 78.078935 
L 382.136551 81.857757 
L 382.305115 77.559592 
L 382.389397 72.804602 
L 382.473679 73.958062 
L 382.726525 85.688422 
L 382.979371 91.152591 
L 383.232218 99.719441 
L 383.485064 97.683584 
L 383.569346 94.081024 
L 383.73791 107.063815 
L 383.906474 91.871039 
L 383.990756 93.592895 
L 384.075038 95.366788 
L 384.327884 92.027993 
L 384.496449 87.573633 
L 384.749295 92.397222 
L 384.833577 98.794945 
L 385.002141 89.912655 
L 385.254987 109.749772 
L 385.339269 112.800048 
L 385.507833 108.951458 
L 385.592116 110.381762 
L 385.76068 118.034332 
L 385.929244 103.524065 
L 386.097808 113.422337 
L 386.266372 108.541464 
L 386.350654 104.690431 
L 386.6035 110.913477 
L 386.687782 114.59886 
L 386.940629 107.467988 
L 387.193475 112.033115 
L 387.446321 109.241692 
L 387.614885 99.867541 
L 387.783449 116.295748 
L 387.952014 99.897324 
L 388.036296 101.568286 
L 388.120578 99.909483 
L 388.457706 105.962207 
L 388.710552 115.656124 
L 388.963398 125.615951 
L 389.047681 127.220853 
L 389.300527 123.395108 
L 389.384809 125.853766 
L 389.469091 125.841167 
L 389.553373 126.575335 
L 389.637655 209.467006 
L 389.806219 124.870557 
L 389.974783 119.151634 
L 390.059065 119.66005 
L 390.22763 213.701186 
L 390.396194 118.594237 
L 390.480476 121.710996 
L 390.64904 113.408151 
L 390.733322 114.365351 
L 390.817604 115.615401 
L 391.07045 124.779716 
L 391.239014 118.146702 
L 391.323297 124.474205 
L 391.491861 213.338088 
L 391.576143 214.273724 
L 391.660425 213.603917 
L 391.744707 211.088319 
L 391.913271 213.432953 
L 392.081835 115.436248 
L 392.166117 125.902008 
L 392.250399 214.997033 
L 392.334681 212.48308 
L 392.418963 126.215395 
L 392.587528 215.001091 
L 392.756092 119.343466 
L 393.008938 126.960739 
L 393.09322 126.828015 
L 393.261784 125.513339 
L 393.346066 127.203506 
L 393.430348 127.161401 
L 393.51463 126.329821 
L 393.683195 216.895029 
L 393.767477 212.741978 
L 394.020323 225.480427 
L 394.104605 227.099378 
L 394.188887 214.174402 
L 394.273169 121.778354 
L 394.441733 216.417431 
L 394.610297 227.164827 
L 394.778862 224.29225 
L 394.863144 225.937608 
L 395.11599 209.465455 
L 395.200272 125.089021 
L 395.284554 125.991883 
L 395.368836 121.986026 
L 395.5374 127.678517 
L 395.705964 124.098461 
L 395.958811 127.422329 
L 396.127375 221.249444 
L 396.211657 223.194021 
L 396.295939 228.419086 
L 396.464503 221.618856 
L 396.633067 224.152796 
L 396.717349 222.614826 
L 396.885913 215.941272 
L 396.970195 226.339914 
L 397.054477 290.077957 
L 397.13876 285.485464 
L 397.223042 279.993099 
L 397.391606 286.058672 
L 397.644452 269.582542 
L 397.728734 273.589897 
L 397.98158 258.144438 
L 398.150144 263.187037 
L 398.234427 264.118469 
L 398.318709 271.823807 
L 398.487273 253.843146 
L 398.487273 253.843146 
" style="fill:none;stroke:#1f77b4;stroke-linecap:square;stroke-width:1.5;"/>
   </g>
   <g id="patch_3">
    <path d="M 57.6 307.584 
L 57.6 41.472 
" style="fill:none;stroke:#000000;stroke-linecap:square;stroke-linejoin:miter;stroke-width:0.8;"/>
   </g>
   <g id="patch_4">
    <path d="M 414.72 307.584 
L 414.72 41.472 
" style="fill:none;stroke:#000000;stroke-linecap:square;stroke-linejoin:miter;stroke-width:0.8;"/>
   </g>
   <g id="patch_5">
    <path d="M 57.6 307.584 
L 414.72 307.584 
" style="fill:none;stroke:#000000;stroke-linecap:square;stroke-linejoin:miter;stroke-width:0.8;"/>
   </g>
   <g id="patch_6">
    <path d="M 57.6 41.472 
L 414.72 41.472 
" style="fill:none;stroke:#000000;stroke-linecap:square;stroke-linejoin:miter;stroke-width:0.8;"/>
   </g>
   <g id="text_19">
    <!-- Motor 2 speed history -->
    <defs>
     <path d="M 9.8125 72.90625 
L 24.515625 72.90625 
L 43.109375 23.296875 
L 61.8125 72.90625 
L 76.515625 72.90625 
L 76.515625 0 
L 66.890625 0 
L 66.890625 64.015625 
L 48.09375 14.015625 
L 38.1875 14.015625 
L 19.390625 64.015625 
L 19.390625 0 
L 9.8125 0 
z
" id="DejaVuSans-4d"/>
     <path d="M 30.609375 48.390625 
Q 23.390625 48.390625 19.1875 42.75 
Q 14.984375 37.109375 14.984375 27.296875 
Q 14.984375 17.484375 19.15625 11.84375 
Q 23.34375 6.203125 30.609375 6.203125 
Q 37.796875 6.203125 41.984375 11.859375 
Q 46.1875 17.53125 46.1875 27.296875 
Q 46.1875 37.015625 41.984375 42.703125 
Q 37.796875 48.390625 30.609375 48.390625 
z
M 30.609375 56 
Q 42.328125 56 49.015625 48.375 
Q 55.71875 40.765625 55.71875 27.296875 
Q 55.71875 13.875 49.015625 6.21875 
Q 42.328125 -1.421875 30.609375 -1.421875 
Q 18.84375 -1.421875 12.171875 6.21875 
Q 5.515625 13.875 5.515625 27.296875 
Q 5.515625 40.765625 12.171875 48.375 
Q 18.84375 56 30.609375 56 
z
" id="DejaVuSans-6f"/>
     <path d="M 18.3125 70.21875 
L 18.3125 54.6875 
L 36.8125 54.6875 
L 36.8125 47.703125 
L 18.3125 47.703125 
L 18.3125 18.015625 
Q 18.3125 11.328125 20.140625 9.421875 
Q 21.96875 7.515625 27.59375 7.515625 
L 36.8125 7.515625 
L 36.8125 0 
L 27.59375 0 
Q 17.1875 0 13.234375 3.875 
Q 9.28125 7.765625 9.28125 18.015625 
L 9.28125 47.703125 
L 2.6875 47.703125 
L 2.6875 54.6875 
L 9.28125 54.6875 
L 9.28125 70.21875 
z
" id="DejaVuSans-74"/>
     <path d="M 41.109375 46.296875 
Q 39.59375 47.171875 37.8125 47.578125 
Q 36.03125 48 33.890625 48 
Q 26.265625 48 22.1875 43.046875 
Q 18.109375 38.09375 18.109375 28.8125 
L 18.109375 0 
L 9.078125 0 
L 9.078125 54.6875 
L 18.109375 54.6875 
L 18.109375 46.1875 
Q 20.953125 51.171875 25.484375 53.578125 
Q 30.03125 56 36.53125 56 
Q 37.453125 56 38.578125 55.875 
Q 39.703125 55.765625 41.0625 55.515625 
z
" id="DejaVuSans-72"/>
     <path id="DejaVuSans-20"/>
     <path d="M 44.28125 53.078125 
L 44.28125 44.578125 
Q 40.484375 46.53125 36.375 47.5 
Q 32.28125 48.484375 27.875 48.484375 
Q 21.1875 48.484375 17.84375 46.4375 
Q 14.5 44.390625 14.5 40.28125 
Q 14.5 37.15625 16.890625 35.375 
Q 19.28125 33.59375 26.515625 31.984375 
L 29.59375 31.296875 
Q 39.15625 29.25 43.1875 25.515625 
Q 47.21875 21.78125 47.21875 15.09375 
Q 47.21875 7.46875 41.1875 3.015625 
Q 35.15625 -1.421875 24.609375 -1.421875 
Q 20.21875 -1.421875 15.453125 -0.5625 
Q 10.6875 0.296875 5.421875 2 
L 5.421875 11.28125 
Q 10.40625 8.6875 15.234375 7.390625 
Q 20.0625 6.109375 24.8125 6.109375 
Q 31.15625 6.109375 34.5625 8.28125 
Q 37.984375 10.453125 37.984375 14.40625 
Q 37.984375 18.0625 35.515625 20.015625 
Q 33.0625 21.96875 24.703125 23.78125 
L 21.578125 24.515625 
Q 13.234375 26.265625 9.515625 29.90625 
Q 5.8125 33.546875 5.8125 39.890625 
Q 5.8125 47.609375 11.28125 51.796875 
Q 16.75 56 26.8125 56 
Q 31.78125 56 36.171875 55.265625 
Q 40.578125 54.546875 44.28125 53.078125 
z
" id="DejaVuSans-73"/>
     <path d="M 18.109375 8.203125 
L 18.109375 -20.796875 
L 9.078125 -20.796875 
L 9.078125 54.6875 
L 18.109375 54.6875 
L 18.109375 46.390625 
Q 20.953125 51.265625 25.265625 53.625 
Q 29.59375 56 35.59375 56 
Q 45.5625 56 51.78125 48.09375 
Q 58.015625 40.1875 58.015625 27.296875 
Q 58.015625 14.40625 51.78125 6.484375 
Q 45.5625 -1.421875 35.59375 -1.421875 
Q 29.59375 -1.421875 25.265625 0.953125 
Q 20.953125 3.328125 18.109375 8.203125 
z
M 48.6875 27.296875 
Q 48.6875 37.203125 44.609375 42.84375 
Q 40.53125 48.484375 33.40625 48.484375 
Q 26.265625 48.484375 22.1875 42.84375 
Q 18.109375 37.203125 18.109375 27.296875 
Q 18.109375 17.390625 22.1875 11.75 
Q 26.265625 6.109375 33.40625 6.109375 
Q 40.53125 6.109375 44.609375 11.75 
Q 48.6875 17.390625 48.6875 27.296875 
z
" id="DejaVuSans-70"/>
     <path d="M 56.203125 29.59375 
L 56.203125 25.203125 
L 14.890625 25.203125 
Q 15.484375 15.921875 20.484375 11.0625 
Q 25.484375 6.203125 34.421875 6.203125 
Q 39.59375 6.203125 44.453125 7.46875 
Q 49.3125 8.734375 54.109375 11.28125 
L 54.109375 2.78125 
Q 49.265625 0.734375 44.1875 -0.34375 
Q 39.109375 -1.421875 33.890625 -1.421875 
Q 20.796875 -1.421875 13.15625 6.1875 
Q 5.515625 13.8125 5.515625 26.8125 
Q 5.515625 40.234375 12.765625 48.109375 
Q 20.015625 56 32.328125 56 
Q 43.359375 56 49.78125 48.890625 
Q 56.203125 41.796875 56.203125 29.59375 
z
M 47.21875 32.234375 
Q 47.125 39.59375 43.09375 43.984375 
Q 39.0625 48.390625 32.421875 48.390625 
Q 24.90625 48.390625 20.390625 44.140625 
Q 15.875 39.890625 15.1875 32.171875 
z
" id="DejaVuSans-65"/>
     <path d="M 45.40625 46.390625 
L 45.40625 75.984375 
L 54.390625 75.984375 
L 54.390625 0 
L 45.40625 0 
L 45.40625 8.203125 
Q 42.578125 3.328125 38.25 0.953125 
Q 33.9375 -1.421875 27.875 -1.421875 
Q 17.96875 -1.421875 11.734375 6.484375 
Q 5.515625 14.40625 5.515625 27.296875 
Q 5.515625 40.1875 11.734375 48.09375 
Q 17.96875 56 27.875 56 
Q 33.9375 56 38.25 53.625 
Q 42.578125 51.265625 45.40625 46.390625 
z
M 14.796875 27.296875 
Q 14.796875 17.390625 18.875 11.75 
Q 22.953125 6.109375 30.078125 6.109375 
Q 37.203125 6.109375 41.296875 11.75 
Q 45.40625 17.390625 45.40625 27.296875 
Q 45.40625 37.203125 41.296875 42.84375 
Q 37.203125 48.484375 30.078125 48.484375 
Q 22.953125 48.484375 18.875 42.84375 
Q 14.796875 37.203125 14.796875 27.296875 
z
" id="DejaVuSans-64"/>
     <path d="M 54.890625 33.015625 
L 54.890625 0 
L 45.90625 0 
L 45.90625 32.71875 
Q 45.90625 40.484375 42.875 44.328125 
Q 39.84375 48.1875 33.796875 48.1875 
Q 26.515625 48.1875 22.3125 43.546875 
Q 18.109375 38.921875 18.109375 30.90625 
L 18.109375 0 
L 9.078125 0 
L 9.078125 75.984375 
L 18.109375 75.984375 
L 18.109375 46.1875 
Q 21.34375 51.125 25.703125 53.5625 
Q 30.078125 56 35.796875 56 
Q 45.21875 56 50.046875 50.171875 
Q 54.890625 44.34375 54.890625 33.015625 
z
" id="DejaVuSans-68"/>
     <path d="M 9.421875 54.6875 
L 18.40625 54.6875 
L 18.40625 0 
L 9.421875 0 
z
M 9.421875 75.984375 
L 18.40625 75.984375 
L 18.40625 64.59375 
L 9.421875 64.59375 
z
" id="DejaVuSans-69"/>
     <path d="M 32.171875 -5.078125 
Q 28.375 -14.84375 24.75 -17.8125 
Q 21.140625 -20.796875 15.09375 -20.796875 
L 7.90625 -20.796875 
L 7.90625 -13.28125 
L 13.1875 -13.28125 
Q 16.890625 -13.28125 18.9375 -11.515625 
Q 21 -9.765625 23.484375 -3.21875 
L 25.09375 0.875 
L 2.984375 54.6875 
L 12.5 54.6875 
L 29.59375 11.921875 
L 46.6875 54.6875 
L 56.203125 54.6875 
z
" id="DejaVuSans-79"/>
    </defs>
    <g transform="translate(170.52 35.472)scale(0.12 -0.12)">
     <use xlink:href="#DejaVuSans-4d"/>
     <use x="86.279297" xlink:href="#DejaVuSans-6f"/>
     <use x="147.460938" xlink:href="#DejaVuSans-74"/>
     <use x="186.669922" xlink:href="#DejaVuSans-6f"/>
     <use x="247.851562" xlink:href="#DejaVuSans-72"/>
     <use x="288.964844" xlink:href="#DejaVuSans-20"/>
     <use x="320.751953" xlink:href="#DejaVuSans-32"/>
     <use x="384.375" xlink:href="#DejaVuSans-20"/>
     <use x="416.162109" xlink:href="#DejaVuSans-73"/>
     <use x="468.261719" xlink:href="#DejaVuSans-70"/>
     <use x="531.738281" xlink:href="#DejaVuSans-65"/>
     <use x="593.261719" xlink:href="#DejaVuSans-65"/>
     <use x="654.785156" xlink:href="#DejaVuSans-64"/>
     <use x="718.261719" xlink:href="#DejaVuSans-20"/>
     <use x="750.048828" xlink:href="#DejaVuSans-68"/>
     <use x="813.427734" xlink:href="#DejaVuSans-69"/>
     <use x="841.210938" xlink:href="#DejaVuSans-73"/>
     <use x="893.310547" xlink:href="#DejaVuSans-74"/>
     <use x="932.519531" xlink:href="#DejaVuSans-6f"/>
     <use x="993.701172" xlink:href="#DejaVuSans-72"/>
     <use x="1034.814453" xlink:href="#DejaVuSans-79"/>
    </g>
   </g>
   <g id="legend_1">
    <g id="patch_7">
     <path d="M 64.6 64.150125 
L 120.867188 64.150125 
Q 122.867188 64.150125 122.867188 62.150125 
L 122.867188 48.472 
Q 122.867188 46.472 120.867188 46.472 
L 64.6 46.472 
Q 62.6 46.472 62.6 48.472 
L 62.6 62.150125 
Q 62.6 64.150125 64.6 64.150125 
z
" style="fill:#ffffff;opacity:0.8;stroke:#cccccc;stroke-linejoin:miter;"/>
    </g>
    <g id="line2d_20">
     <path d="M 66.6 54.570438 
L 86.6 54.570438 
" style="fill:none;stroke:#1f77b4;stroke-linecap:square;stroke-width:1.5;"/>
    </g>
    <g id="line2d_21"/>
    <g id="text_20">
     <!-- pwm -->
     <defs>
      <path d="M 4.203125 54.6875 
L 13.1875 54.6875 
L 24.421875 12.015625 
L 35.59375 54.6875 
L 46.1875 54.6875 
L 57.421875 12.015625 
L 68.609375 54.6875 
L 77.59375 54.6875 
L 63.28125 0 
L 52.6875 0 
L 40.921875 44.828125 
L 29.109375 0 
L 18.5 0 
z
" id="DejaVuSans-77"/>
      <path d="M 52 44.1875 
Q 55.375 50.25 60.0625 53.125 
Q 64.75 56 71.09375 56 
Q 79.640625 56 84.28125 50.015625 
Q 88.921875 44.046875 88.921875 33.015625 
L 88.921875 0 
L 79.890625 0 
L 79.890625 32.71875 
Q 79.890625 40.578125 77.09375 44.375 
Q 74.3125 48.1875 68.609375 48.1875 
Q 61.625 48.1875 57.5625 43.546875 
Q 53.515625 38.921875 53.515625 30.90625 
L 53.515625 0 
L 44.484375 0 
L 44.484375 32.71875 
Q 44.484375 40.625 41.703125 44.40625 
Q 38.921875 48.1875 33.109375 48.1875 
Q 26.21875 48.1875 22.15625 43.53125 
Q 18.109375 38.875 18.109375 30.90625 
L 18.109375 0 
L 9.078125 0 
L 9.078125 54.6875 
L 18.109375 54.6875 
L 18.109375 46.1875 
Q 21.1875 51.21875 25.484375 53.609375 
Q 29.78125 56 35.6875 56 
Q 41.65625 56 45.828125 52.96875 
Q 50 49.953125 52 44.1875 
z
" id="DejaVuSans-6d"/>
     </defs>
     <g transform="translate(94.6 58.070438)scale(0.1 -0.1)">
      <use xlink:href="#DejaVuSans-70"/>
      <use x="63.476562" xlink:href="#DejaVuSans-77"/>
      <use x="145.263672" xlink:href="#DejaVuSans-6d"/>
     </g>
    </g>
   </g>
  </g>
 </g>
 <defs>
  <clipPath id="p57c4499448">
   <rect height="266.112" width="357.12" x="57.6" y="41.472"/>
  </clipPath>
 </defs>
</svg>
