<?xml version="1.0" encoding="utf-8" standalone="no"?>
<!DOCTYPE svg PUBLIC "-//W3C//DTD SVG 1.1//EN"
  "http://www.w3.org/Graphics/SVG/1.1/DTD/svg11.dtd">
<!-- Created with matplotlib (http://matplotlib.org/) -->
<svg height="345pt" version="1.1" viewBox="0 0 460 345" width="460pt" xmlns="http://www.w3.org/2000/svg" xmlns:xlink="http://www.w3.org/1999/xlink">
 <defs>
  <style type="text/css">
*{stroke-linecap:butt;stroke-linejoin:round;}
  </style>
 </defs>
 <g id="figure_1">
  <g id="patch_1">
   <path d="M 0 345.6 
L 460.8 345.6 
L 460.8 0 
L 0 0 
z
" style="fill:#ffffff;"/>
  </g>
  <g id="axes_1">
   <g id="patch_2">
    <path d="M 57.6 307.584 
L 414.72 307.584 
L 414.72 41.472 
L 57.6 41.472 
z
" style="fill:#ffffff;"/>
   </g>
   <g id="matplotlib.axis_1">
    <g id="xtick_1">
     <g id="line2d_1">
      <defs>
       <path d="M 0 0 
L 0 3.5 
" id="mba5dbfe942" style="stroke:#000000;stroke-width:0.8;"/>
      </defs>
      <g>
       <use style="stroke:#000000;stroke-width:0.8;" x="73.832727" xlink:href="#mba5dbfe942" y="307.584"/>
      </g>
     </g>
     <g id="text_1">
      <!-- 0 -->
      <defs>
       <path d="M 31.78125 66.40625 
Q 24.171875 66.40625 20.328125 58.90625 
Q 16.5 51.421875 16.5 36.375 
Q 16.5 21.390625 20.328125 13.890625 
Q 24.171875 6.390625 31.78125 6.390625 
Q 39.453125 6.390625 43.28125 13.890625 
Q 47.125 21.390625 47.125 36.375 
Q 47.125 51.421875 43.28125 58.90625 
Q 39.453125 66.40625 31.78125 66.40625 
z
M 31.78125 74.21875 
Q 44.046875 74.21875 50.515625 64.515625 
Q 56.984375 54.828125 56.984375 36.375 
Q 56.984375 17.96875 50.515625 8.265625 
Q 44.046875 -1.421875 31.78125 -1.421875 
Q 19.53125 -1.421875 13.0625 8.265625 
Q 6.59375 17.96875 6.59375 36.375 
Q 6.59375 54.828125 13.0625 64.515625 
Q 19.53125 74.21875 31.78125 74.21875 
z
" id="DejaVuSans-30"/>
      </defs>
      <g transform="translate(70.651477 322.182437)scale(0.1 -0.1)">
       <use xlink:href="#DejaVuSans-30"/>
      </g>
     </g>
    </g>
    <g id="xtick_2">
     <g id="line2d_2">
      <g>
       <use style="stroke:#000000;stroke-width:0.8;" x="115.973764" xlink:href="#mba5dbfe942" y="307.584"/>
      </g>
     </g>
     <g id="text_2">
      <!-- 500 -->
      <defs>
       <path d="M 10.796875 72.90625 
L 49.515625 72.90625 
L 49.515625 64.59375 
L 19.828125 64.59375 
L 19.828125 46.734375 
Q 21.96875 47.46875 24.109375 47.828125 
Q 26.265625 48.1875 28.421875 48.1875 
Q 40.625 48.1875 47.75 41.5 
Q 54.890625 34.8125 54.890625 23.390625 
Q 54.890625 11.625 47.5625 5.09375 
Q 40.234375 -1.421875 26.90625 -1.421875 
Q 22.3125 -1.421875 17.546875 -0.640625 
Q 12.796875 0.140625 7.71875 1.703125 
L 7.71875 11.625 
Q 12.109375 9.234375 16.796875 8.0625 
Q 21.484375 6.890625 26.703125 6.890625 
Q 35.15625 6.890625 40.078125 11.328125 
Q 45.015625 15.765625 45.015625 23.390625 
Q 45.015625 31 40.078125 35.4375 
Q 35.15625 39.890625 26.703125 39.890625 
Q 22.75 39.890625 18.8125 39.015625 
Q 14.890625 38.140625 10.796875 36.28125 
z
" id="DejaVuSans-35"/>
      </defs>
      <g transform="translate(106.430014 322.182437)scale(0.1 -0.1)">
       <use xlink:href="#DejaVuSans-35"/>
       <use x="63.623047" xlink:href="#DejaVuSans-30"/>
       <use x="127.246094" xlink:href="#DejaVuSans-30"/>
      </g>
     </g>
    </g>
    <g id="xtick_3">
     <g id="line2d_3">
      <g>
       <use style="stroke:#000000;stroke-width:0.8;" x="158.1148" xlink:href="#mba5dbfe942" y="307.584"/>
      </g>
     </g>
     <g id="text_3">
      <!-- 1000 -->
      <defs>
       <path d="M 12.40625 8.296875 
L 28.515625 8.296875 
L 28.515625 63.921875 
L 10.984375 60.40625 
L 10.984375 69.390625 
L 28.421875 72.90625 
L 38.28125 72.90625 
L 38.28125 8.296875 
L 54.390625 8.296875 
L 54.390625 0 
L 12.40625 0 
z
" id="DejaVuSans-31"/>
      </defs>
      <g transform="translate(145.3898 322.182437)scale(0.1 -0.1)">
       <use xlink:href="#DejaVuSans-31"/>
       <use x="63.623047" xlink:href="#DejaVuSans-30"/>
       <use x="127.246094" xlink:href="#DejaVuSans-30"/>
       <use x="190.869141" xlink:href="#DejaVuSans-30"/>
      </g>
     </g>
    </g>
    <g id="xtick_4">
     <g id="line2d_4">
      <g>
       <use style="stroke:#000000;stroke-width:0.8;" x="200.255837" xlink:href="#mba5dbfe942" y="307.584"/>
      </g>
     </g>
     <g id="text_4">
      <!-- 1500 -->
      <g transform="translate(187.530837 322.182437)scale(0.1 -0.1)">
       <use xlink:href="#DejaVuSans-31"/>
       <use x="63.623047" xlink:href="#DejaVuSans-35"/>
       <use x="127.246094" xlink:href="#DejaVuSans-30"/>
       <use x="190.869141" xlink:href="#DejaVuSans-30"/>
      </g>
     </g>
    </g>
    <g id="xtick_5">
     <g id="line2d_5">
      <g>
       <use style="stroke:#000000;stroke-width:0.8;" x="242.396873" xlink:href="#mba5dbfe942" y="307.584"/>
      </g>
     </g>
     <g id="text_5">
      <!-- 2000 -->
      <defs>
       <path d="M 19.1875 8.296875 
L 53.609375 8.296875 
L 53.609375 0 
L 7.328125 0 
L 7.328125 8.296875 
Q 12.9375 14.109375 22.625 23.890625 
Q 32.328125 33.6875 34.8125 36.53125 
Q 39.546875 41.84375 41.421875 45.53125 
Q 43.3125 49.21875 43.3125 52.78125 
Q 43.3125 58.59375 39.234375 62.25 
Q 35.15625 65.921875 28.609375 65.921875 
Q 23.96875 65.921875 18.8125 64.3125 
Q 13.671875 62.703125 7.8125 59.421875 
L 7.8125 69.390625 
Q 13.765625 71.78125 18.9375 73 
Q 24.125 74.21875 28.421875 74.21875 
Q 39.75 74.21875 46.484375 68.546875 
Q 53.21875 62.890625 53.21875 53.421875 
Q 53.21875 48.921875 51.53125 44.890625 
Q 49.859375 40.875 45.40625 35.40625 
Q 44.1875 33.984375 37.640625 27.21875 
Q 31.109375 20.453125 19.1875 8.296875 
z
" id="DejaVuSans-32"/>
      </defs>
      <g transform="translate(229.671873 322.182437)scale(0.1 -0.1)">
       <use xlink:href="#DejaVuSans-32"/>
       <use x="63.623047" xlink:href="#DejaVuSans-30"/>
       <use x="127.246094" xlink:href="#DejaVuSans-30"/>
       <use x="190.869141" xlink:href="#DejaVuSans-30"/>
      </g>
     </g>
    </g>
    <g id="xtick_6">
     <g id="line2d_6">
      <g>
       <use style="stroke:#000000;stroke-width:0.8;" x="284.53791" xlink:href="#mba5dbfe942" y="307.584"/>
      </g>
     </g>
     <g id="text_6">
      <!-- 2500 -->
      <g transform="translate(271.81291 322.182437)scale(0.1 -0.1)">
       <use xlink:href="#DejaVuSans-32"/>
       <use x="63.623047" xlink:href="#DejaVuSans-35"/>
       <use x="127.246094" xlink:href="#DejaVuSans-30"/>
       <use x="190.869141" xlink:href="#DejaVuSans-30"/>
      </g>
     </g>
    </g>
    <g id="xtick_7">
     <g id="line2d_7">
      <g>
       <use style="stroke:#000000;stroke-width:0.8;" x="326.678946" xlink:href="#mba5dbfe942" y="307.584"/>
      </g>
     </g>
     <g id="text_7">
      <!-- 3000 -->
      <defs>
       <path d="M 40.578125 39.3125 
Q 47.65625 37.796875 51.625 33 
Q 55.609375 28.21875 55.609375 21.1875 
Q 55.609375 10.40625 48.1875 4.484375 
Q 40.765625 -1.421875 27.09375 -1.421875 
Q 22.515625 -1.421875 17.65625 -0.515625 
Q 12.796875 0.390625 7.625 2.203125 
L 7.625 11.71875 
Q 11.71875 9.328125 16.59375 8.109375 
Q 21.484375 6.890625 26.8125 6.890625 
Q 36.078125 6.890625 40.9375 10.546875 
Q 45.796875 14.203125 45.796875 21.1875 
Q 45.796875 27.640625 41.28125 31.265625 
Q 36.765625 34.90625 28.71875 34.90625 
L 20.21875 34.90625 
L 20.21875 43.015625 
L 29.109375 43.015625 
Q 36.375 43.015625 40.234375 45.921875 
Q 44.09375 48.828125 44.09375 54.296875 
Q 44.09375 59.90625 40.109375 62.90625 
Q 36.140625 65.921875 28.71875 65.921875 
Q 24.65625 65.921875 20.015625 65.03125 
Q 15.375 64.15625 9.8125 62.3125 
L 9.8125 71.09375 
Q 15.4375 72.65625 20.34375 73.4375 
Q 25.25 74.21875 29.59375 74.21875 
Q 40.828125 74.21875 47.359375 69.109375 
Q 53.90625 64.015625 53.90625 55.328125 
Q 53.90625 49.265625 50.4375 45.09375 
Q 46.96875 40.921875 40.578125 39.3125 
z
" id="DejaVuSans-33"/>
      </defs>
      <g transform="translate(313.953946 322.182437)scale(0.1 -0.1)">
       <use xlink:href="#DejaVuSans-33"/>
       <use x="63.623047" xlink:href="#DejaVuSans-30"/>
       <use x="127.246094" xlink:href="#DejaVuSans-30"/>
       <use x="190.869141" xlink:href="#DejaVuSans-30"/>
      </g>
     </g>
    </g>
    <g id="xtick_8">
     <g id="line2d_8">
      <g>
       <use style="stroke:#000000;stroke-width:0.8;" x="368.819983" xlink:href="#mba5dbfe942" y="307.584"/>
      </g>
     </g>
     <g id="text_8">
      <!-- 3500 -->
      <g transform="translate(356.094983 322.182437)scale(0.1 -0.1)">
       <use xlink:href="#DejaVuSans-33"/>
       <use x="63.623047" xlink:href="#DejaVuSans-35"/>
       <use x="127.246094" xlink:href="#DejaVuSans-30"/>
       <use x="190.869141" xlink:href="#DejaVuSans-30"/>
      </g>
     </g>
    </g>
    <g id="xtick_9">
     <g id="line2d_9">
      <g>
       <use style="stroke:#000000;stroke-width:0.8;" x="410.96102" xlink:href="#mba5dbfe942" y="307.584"/>
      </g>
     </g>
     <g id="text_9">
      <!-- 4000 -->
      <defs>
       <path d="M 37.796875 64.3125 
L 12.890625 25.390625 
L 37.796875 25.390625 
z
M 35.203125 72.90625 
L 47.609375 72.90625 
L 47.609375 25.390625 
L 58.015625 25.390625 
L 58.015625 17.1875 
L 47.609375 17.1875 
L 47.609375 0 
L 37.796875 0 
L 37.796875 17.1875 
L 4.890625 17.1875 
L 4.890625 26.703125 
z
" id="DejaVuSans-34"/>
      </defs>
      <g transform="translate(398.23602 322.182437)scale(0.1 -0.1)">
       <use xlink:href="#DejaVuSans-34"/>
       <use x="63.623047" xlink:href="#DejaVuSans-30"/>
       <use x="127.246094" xlink:href="#DejaVuSans-30"/>
       <use x="190.869141" xlink:href="#DejaVuSans-30"/>
      </g>
     </g>
    </g>
   </g>
   <g id="matplotlib.axis_2">
    <g id="ytick_1">
     <g id="line2d_10">
      <defs>
       <path d="M 0 0 
L -3.5 0 
" id="mb49302c4de" style="stroke:#000000;stroke-width:0.8;"/>
      </defs>
      <g>
       <use style="stroke:#000000;stroke-width:0.8;" x="57.6" xlink:href="#mb49302c4de" y="274.004409"/>
      </g>
     </g>
     <g id="text_10">
      <!-- 1460 -->
      <defs>
       <path d="M 33.015625 40.375 
Q 26.375 40.375 22.484375 35.828125 
Q 18.609375 31.296875 18.609375 23.390625 
Q 18.609375 15.53125 22.484375 10.953125 
Q 26.375 6.390625 33.015625 6.390625 
Q 39.65625 6.390625 43.53125 10.953125 
Q 47.40625 15.53125 47.40625 23.390625 
Q 47.40625 31.296875 43.53125 35.828125 
Q 39.65625 40.375 33.015625 40.375 
z
M 52.59375 71.296875 
L 52.59375 62.3125 
Q 48.875 64.0625 45.09375 64.984375 
Q 41.3125 65.921875 37.59375 65.921875 
Q 27.828125 65.921875 22.671875 59.328125 
Q 17.53125 52.734375 16.796875 39.40625 
Q 19.671875 43.65625 24.015625 45.921875 
Q 28.375 48.1875 33.59375 48.1875 
Q 44.578125 48.1875 50.953125 41.515625 
Q 57.328125 34.859375 57.328125 23.390625 
Q 57.328125 12.15625 50.6875 5.359375 
Q 44.046875 -1.421875 33.015625 -1.421875 
Q 20.359375 -1.421875 13.671875 8.265625 
Q 6.984375 17.96875 6.984375 36.375 
Q 6.984375 53.65625 15.1875 63.9375 
Q 23.390625 74.21875 37.203125 74.21875 
Q 40.921875 74.21875 44.703125 73.484375 
Q 48.484375 72.75 52.59375 71.296875 
z
" id="DejaVuSans-36"/>
      </defs>
      <g transform="translate(25.15 277.803628)scale(0.1 -0.1)">
       <use xlink:href="#DejaVuSans-31"/>
       <use x="63.623047" xlink:href="#DejaVuSans-34"/>
       <use x="127.246094" xlink:href="#DejaVuSans-36"/>
       <use x="190.869141" xlink:href="#DejaVuSans-30"/>
      </g>
     </g>
    </g>
    <g id="ytick_2">
     <g id="line2d_11">
      <g>
       <use style="stroke:#000000;stroke-width:0.8;" x="57.6" xlink:href="#mb49302c4de" y="219.674583"/>
      </g>
     </g>
     <g id="text_11">
      <!-- 1480 -->
      <defs>
       <path d="M 31.78125 34.625 
Q 24.75 34.625 20.71875 30.859375 
Q 16.703125 27.09375 16.703125 20.515625 
Q 16.703125 13.921875 20.71875 10.15625 
Q 24.75 6.390625 31.78125 6.390625 
Q 38.8125 6.390625 42.859375 10.171875 
Q 46.921875 13.96875 46.921875 20.515625 
Q 46.921875 27.09375 42.890625 30.859375 
Q 38.875 34.625 31.78125 34.625 
z
M 21.921875 38.8125 
Q 15.578125 40.375 12.03125 44.71875 
Q 8.5 49.078125 8.5 55.328125 
Q 8.5 64.0625 14.71875 69.140625 
Q 20.953125 74.21875 31.78125 74.21875 
Q 42.671875 74.21875 48.875 69.140625 
Q 55.078125 64.0625 55.078125 55.328125 
Q 55.078125 49.078125 51.53125 44.71875 
Q 48 40.375 41.703125 38.8125 
Q 48.828125 37.15625 52.796875 32.3125 
Q 56.78125 27.484375 56.78125 20.515625 
Q 56.78125 9.90625 50.3125 4.234375 
Q 43.84375 -1.421875 31.78125 -1.421875 
Q 19.734375 -1.421875 13.25 4.234375 
Q 6.78125 9.90625 6.78125 20.515625 
Q 6.78125 27.484375 10.78125 32.3125 
Q 14.796875 37.15625 21.921875 38.8125 
z
M 18.3125 54.390625 
Q 18.3125 48.734375 21.84375 45.5625 
Q 25.390625 42.390625 31.78125 42.390625 
Q 38.140625 42.390625 41.71875 45.5625 
Q 45.3125 48.734375 45.3125 54.390625 
Q 45.3125 60.0625 41.71875 63.234375 
Q 38.140625 66.40625 31.78125 66.40625 
Q 25.390625 66.40625 21.84375 63.234375 
Q 18.3125 60.0625 18.3125 54.390625 
z
" id="DejaVuSans-38"/>
      </defs>
      <g transform="translate(25.15 223.473802)scale(0.1 -0.1)">
       <use xlink:href="#DejaVuSans-31"/>
       <use x="63.623047" xlink:href="#DejaVuSans-34"/>
       <use x="127.246094" xlink:href="#DejaVuSans-38"/>
       <use x="190.869141" xlink:href="#DejaVuSans-30"/>
      </g>
     </g>
    </g>
    <g id="ytick_3">
     <g id="line2d_12">
      <g>
       <use style="stroke:#000000;stroke-width:0.8;" x="57.6" xlink:href="#mb49302c4de" y="165.344757"/>
      </g>
     </g>
     <g id="text_12">
      <!-- 1500 -->
      <g transform="translate(25.15 169.143975)scale(0.1 -0.1)">
       <use xlink:href="#DejaVuSans-31"/>
       <use x="63.623047" xlink:href="#DejaVuSans-35"/>
       <use x="127.246094" xlink:href="#DejaVuSans-30"/>
       <use x="190.869141" xlink:href="#DejaVuSans-30"/>
      </g>
     </g>
    </g>
    <g id="ytick_4">
     <g id="line2d_13">
      <g>
       <use style="stroke:#000000;stroke-width:0.8;" x="57.6" xlink:href="#mb49302c4de" y="111.01493"/>
      </g>
     </g>
     <g id="text_13">
      <!-- 1520 -->
      <g transform="translate(25.15 114.814149)scale(0.1 -0.1)">
       <use xlink:href="#DejaVuSans-31"/>
       <use x="63.623047" xlink:href="#DejaVuSans-35"/>
       <use x="127.246094" xlink:href="#DejaVuSans-32"/>
       <use x="190.869141" xlink:href="#DejaVuSans-30"/>
      </g>
     </g>
    </g>
    <g id="ytick_5">
     <g id="line2d_14">
      <g>
       <use style="stroke:#000000;stroke-width:0.8;" x="57.6" xlink:href="#mb49302c4de" y="56.685104"/>
      </g>
     </g>
     <g id="text_14">
      <!-- 1540 -->
      <g transform="translate(25.15 60.484323)scale(0.1 -0.1)">
       <use xlink:href="#DejaVuSans-31"/>
       <use x="63.623047" xlink:href="#DejaVuSans-35"/>
       <use x="127.246094" xlink:href="#DejaVuSans-34"/>
       <use x="190.869141" xlink:href="#DejaVuSans-30"/>
      </g>
     </g>
    </g>
   </g>
   <g id="line2d_15">
    <path clip-path="url(#pdddb60d16a)" d="M 73.832727 251.87022 
L 73.917009 251.87022 
L 74.085573 250.356575 
L 74.254138 271.36662 
L 74.506984 247.589598 
L 74.591266 110.586342 
L 74.75983 251.444796 
L 74.844112 253.517919 
L 74.928394 249.00788 
L 75.012676 110.761887 
L 75.18124 252.720606 
L 75.349805 259.560666 
L 75.518369 256.175316 
L 75.686933 247.321188 
L 75.771215 109.967135 
L 75.855497 110.081038 
L 76.024061 250.11457 
L 76.192625 255.458714 
L 76.361189 252.218479 
L 76.529754 256.723967 
L 76.614036 250.461315 
L 76.698318 110.84968 
L 76.866882 252.24292 
L 76.951164 253.870527 
L 77.119728 247.957142 
L 77.288292 253.750121 
L 77.372574 109.192216 
L 77.541138 259.113041 
L 77.625421 250.340177 
L 77.793985 106.309465 
L 77.962549 107.373297 
L 78.131113 258.720929 
L 78.215395 247.240501 
L 78.299677 103.593362 
L 78.383959 104.018795 
L 78.552523 106.322788 
L 78.721088 257.412714 
L 78.80537 251.330053 
L 78.973934 110.418837 
L 79.142498 253.29382 
L 79.22678 256.602695 
L 79.311062 247.208473 
L 79.395344 105.222285 
L 79.479626 110.03082 
L 79.64819 260.720346 
L 79.816754 100.391394 
L 79.901037 109.958964 
L 79.985319 252.92307 
L 80.069601 247.205362 
L 80.153883 107.650119 
L 80.238165 248.325255 
L 80.406729 107.849746 
L 80.575293 251.68831 
L 80.659575 252.073502 
L 80.743857 251.475908 
L 80.996703 247.304928 
L 81.080986 247.438198 
L 81.24955 97.446537 
L 81.418114 255.875616 
L 81.502396 259.504865 
L 81.67096 94.412451 
L 81.755242 95.839061 
L 81.923806 100.235047 
L 82.09237 254.000915 
L 82.176653 109.852235 
L 82.260935 110.565956 
L 82.345217 247.214145 
L 82.513781 110.580324 
L 82.682345 98.825441 
L 82.766627 109.189806 
L 82.850909 252.221691 
L 83.019473 96.575418 
L 83.103755 110.37843 
L 83.272319 253.855483 
L 83.356602 253.82658 
L 83.440884 252.292694 
L 83.525166 247.155736 
L 83.609448 107.600415 
L 83.69373 108.769378 
L 83.862294 109.407472 
L 84.030858 105.786644 
L 84.11514 108.91363 
L 84.199422 246.945704 
L 84.367986 107.801376 
L 84.536551 97.442887 
L 84.620833 109.851526 
L 84.789397 254.411516 
L 84.873679 253.036451 
L 84.957961 247.482871 
L 85.126525 99.54922 
L 85.210807 107.733835 
L 85.379371 255.071829 
L 85.547935 256.557526 
L 85.7165 101.307524 
L 85.800782 101.80646 
L 85.969346 253.269098 
L 86.053628 252.390598 
L 86.13791 250.04453 
L 86.306474 97.719666 
L 86.390756 110.555854 
L 86.475038 254.669526 
L 86.55932 249.2428 
L 86.643602 108.647108 
L 86.727884 109.320394 
L 86.812167 109.982429 
L 86.896449 250.231334 
L 87.065013 106.544421 
L 87.149295 110.625913 
L 87.317859 249.662125 
L 87.402141 249.301724 
L 87.570705 260.610966 
L 87.739269 249.844999 
L 87.907833 109.944837 
L 88.076398 253.709297 
L 88.329244 248.928806 
L 88.497808 107.38201 
L 88.666372 250.860597 
L 88.834936 257.732882 
L 88.919218 248.357561 
L 89.087782 106.39314 
L 89.172065 106.39314 
L 89.256347 107.670552 
L 89.424911 248.712538 
L 89.593475 246.899107 
L 89.762039 258.427753 
L 89.930603 97.54189 
L 90.099167 254.533054 
L 90.267732 109.900969 
L 90.352014 110.997807 
L 90.436296 248.413862 
L 90.60486 103.313779 
L 90.689142 103.208159 
L 90.773424 104.876349 
L 90.941988 250.611769 
L 91.02627 251.878213 
L 91.110552 251.727716 
L 91.279116 259.717148 
L 91.363398 250.467755 
L 91.447681 109.201966 
L 91.616245 254.074507 
L 91.784809 259.59712 
L 91.953373 93.390351 
L 92.206219 110.055127 
L 92.290501 110.457846 
L 92.459065 249.246306 
L 92.62763 257.072517 
L 92.796194 86.117457 
L 92.880476 104.652978 
L 92.964758 254.13904 
L 93.04904 246.908592 
L 93.217604 103.131233 
L 93.301886 103.292962 
L 93.47045 96.654288 
L 93.639014 263.187877 
L 93.807579 74.915985 
L 93.976143 109.184557 
L 94.060425 109.02907 
L 94.228989 89.536911 
L 94.397553 106.992463 
L 94.566117 89.084948 
L 94.734681 271.782297 
L 94.818963 247.501014 
L 94.903246 106.815839 
L 94.987528 252.657842 
L 95.156092 81.448947 
L 95.324656 95.697541 
L 95.49322 259.387802 
L 95.577502 250.366186 
L 95.746066 102.24963 
L 95.830348 108.364254 
L 95.998912 259.906977 
L 96.083195 265.764515 
L 96.167477 249.568366 
L 96.336041 89.836608 
L 96.420323 107.022877 
L 96.504605 255.029246 
L 96.588887 253.835374 
L 96.673169 250.758834 
L 96.841733 95.550722 
L 97.094579 108.477508 
L 97.263144 94.844755 
L 97.347426 92.877817 
L 97.600272 103.631087 
L 97.768836 98.1324 
L 97.853118 107.674218 
L 97.9374 248.861771 
L 98.105964 101.679004 
L 98.190246 109.820814 
L 98.358811 259.711383 
L 98.527375 90.263513 
L 98.611657 104.378962 
L 98.695939 251.120524 
L 98.864503 79.64293 
L 98.948785 268.181958 
L 99.033067 259.778219 
L 99.117349 92.2629 
L 99.201631 101.164659 
L 99.285913 110.10637 
L 99.454477 96.588447 
L 99.53876 100.083609 
L 99.707324 273.150614 
L 99.875888 84.224811 
L 100.044452 284.933071 
L 100.213016 74.968267 
L 100.38158 107.07603 
L 100.634427 100.343442 
L 100.802991 72.105401 
L 100.971555 95.962095 
L 101.140119 251.567503 
L 101.308683 104.86656 
L 101.392965 101.175288 
L 101.561529 254.759705 
L 101.645811 255.482854 
L 101.730093 253.165479 
L 101.814376 260.145751 
L 101.898658 247.709003 
L 101.98294 103.490794 
L 102.151504 255.286114 
L 102.235786 247.101284 
L 102.40435 90.093617 
L 102.572914 267.553246 
L 102.657196 269.285591 
L 102.741478 265.267916 
L 102.910042 89.968091 
L 102.994325 255.583042 
L 103.078607 253.984418 
L 103.162889 103.467644 
L 103.247171 107.756388 
L 103.331453 248.198342 
L 103.500017 109.814994 
L 103.584299 110.064731 
L 103.668581 110.703726 
L 103.752863 104.051745 
L 103.921427 256.699233 
L 104.005709 247.462397 
L 104.174274 102.507641 
L 104.258556 102.542554 
L 104.42712 259.537786 
L 104.511402 259.912358 
L 104.679966 90.367288 
L 104.764248 110.423651 
L 104.932812 260.120575 
L 105.101376 251.784772 
L 105.269941 257.849294 
L 105.438505 94.273729 
L 105.522787 103.208728 
L 105.691351 248.344309 
L 105.859915 98.14027 
L 105.944197 95.435228 
L 106.028479 95.909851 
L 106.197043 261.789358 
L 106.281325 247.285796 
L 106.44989 100.630181 
L 106.618454 280.533552 
L 106.702736 280.533552 
L 106.787018 252.035503 
L 106.955582 95.006415 
L 107.124146 262.57303 
L 107.29271 98.954228 
L 107.461274 268.815206 
L 107.629839 88.491059 
L 107.714121 110.814219 
L 107.798403 262.470452 
L 107.882685 259.289988 
L 107.966967 248.652719 
L 108.051249 105.587041 
L 108.219813 253.23257 
L 108.304095 247.761612 
L 108.472659 100.799272 
L 108.641223 259.471177 
L 108.809788 253.150375 
L 108.89407 248.031337 
L 109.062634 98.255198 
L 109.146916 93.610101 
L 109.231198 109.628782 
L 109.31548 258.511927 
L 109.399762 256.972376 
L 109.568326 101.785357 
L 109.652608 105.015578 
L 109.821172 249.71003 
L 109.989737 97.683773 
L 110.074019 91.249501 
L 110.242583 272.23888 
L 110.326865 255.791164 
L 110.411147 106.568268 
L 110.495429 106.595821 
L 110.579711 108.243683 
L 110.663993 106.835933 
L 110.748275 106.879088 
L 110.916839 96.440465 
L 111.085404 264.043804 
L 111.253968 87.800406 
L 111.33825 104.916669 
L 111.422532 254.256848 
L 111.506814 247.450626 
L 111.675378 105.087584 
L 111.75966 105.570424 
L 111.928224 269.382216 
L 112.012506 269.382216 
L 112.181071 247.945957 
L 112.265353 250.523648 
L 112.433917 98.894524 
L 112.602481 261.840252 
L 112.686763 261.840252 
L 112.855327 96.092874 
L 112.939609 110.372775 
L 113.108173 258.973981 
L 113.192455 258.022726 
L 113.445302 249.699122 
L 113.529584 250.046571 
L 113.613866 251.023045 
L 113.866712 249.120826 
L 113.950994 249.008769 
L 114.119558 256.994588 
L 114.288122 254.012423 
L 114.372404 106.875362 
L 114.540969 254.865413 
L 114.625251 248.914381 
L 114.709533 108.834092 
L 114.878097 257.882434 
L 115.046661 103.210984 
L 115.130943 104.361188 
L 115.215225 107.068283 
L 115.383789 255.43855 
L 115.552353 249.270081 
L 115.720918 109.729459 
L 115.889482 262.388916 
L 116.058046 99.836939 
L 116.22661 257.972433 
L 116.310892 247.097258 
L 116.395174 104.695669 
L 116.563738 267.123175 
L 116.732302 247.966397 
L 116.816585 249.34187 
L 116.985149 108.464767 
L 117.069431 108.464767 
L 117.237995 264.369686 
L 117.490841 246.843498 
L 117.659405 275.275244 
L 117.996534 247.149867 
L 118.165098 253.044979 
L 118.333662 247.809141 
L 118.417944 247.677813 
L 118.502226 248.479501 
L 118.586508 252.250642 
L 118.755072 103.224112 
L 118.923636 264.638347 
L 119.092201 250.346538 
L 119.260765 97.954041 
L 119.429329 261.53875 
L 119.513611 249.376565 
L 119.597893 104.77173 
L 119.682175 106.954479 
L 119.766457 109.885538 
L 119.935021 101.440715 
L 120.103585 107.582177 
L 120.27215 254.228575 
L 120.356432 256.536067 
L 120.524996 255.571876 
L 120.609278 255.81668 
L 120.69356 247.511085 
L 120.862124 108.623788 
L 120.946406 249.588829 
L 121.11497 104.266789 
L 121.283534 257.130957 
L 121.367816 250.968089 
L 121.452099 110.439294 
L 121.536381 110.980399 
L 121.620663 247.847788 
L 121.789227 105.53162 
L 121.957791 99.973071 
L 122.042073 105.549752 
L 122.210637 252.990683 
L 122.463483 247.935869 
L 122.632048 98.853597 
L 122.71633 100.112583 
L 122.800612 110.684988 
L 122.969176 253.917074 
L 123.053458 254.181963 
L 123.13774 250.236145 
L 123.222022 110.622786 
L 123.390586 247.826893 
L 123.55915 107.445896 
L 123.727715 262.342479 
L 123.811997 247.372551 
L 123.896279 101.732131 
L 123.980561 104.0181 
L 124.064843 107.465889 
L 124.233407 252.916749 
L 124.401971 105.758953 
L 124.486253 105.918678 
L 124.654817 109.618419 
L 124.823381 254.477547 
L 124.991946 99.224799 
L 125.076228 252.383844 
L 125.16051 248.541316 
L 125.244792 102.453176 
L 125.329074 110.251655 
L 125.413356 251.84054 
L 125.497638 248.044227 
L 125.58192 109.376277 
L 125.750484 253.063505 
L 125.919048 248.327701 
L 126.087613 97.409729 
L 126.256177 259.423855 
L 126.340459 248.873292 
L 126.424741 110.149138 
L 126.509023 249.659023 
L 126.677587 101.115913 
L 126.846151 107.775054 
L 127.014715 260.310775 
L 127.098997 247.447284 
L 127.18328 102.712981 
L 127.267562 106.29238 
L 127.351844 109.621 
L 127.520408 105.457357 
L 127.688972 248.353282 
L 127.773254 108.830147 
L 127.941818 256.966868 
L 128.0261 249.077715 
L 128.110382 107.678244 
L 128.278946 261.402432 
L 128.447511 99.203239 
L 128.531793 106.300657 
L 128.616075 248.355793 
L 128.784639 104.747093 
L 128.953203 255.823284 
L 129.121767 99.325878 
L 129.290331 255.306296 
L 129.458895 247.542535 
L 129.62746 105.58107 
L 129.796024 102.287946 
L 129.964588 259.629972 
L 130.133152 91.810514 
L 130.217434 108.574878 
L 130.301716 256.781157 
L 130.385998 251.722783 
L 130.47028 247.035728 
L 130.638845 251.927427 
L 130.807409 104.508468 
L 130.975973 260.38757 
L 131.144537 251.283289 
L 131.228819 251.310538 
L 131.397383 251.233302 
L 131.481665 249.004903 
L 131.650229 253.880844 
L 131.818794 102.370658 
L 131.987358 258.939562 
L 132.155922 249.018925 
L 132.240204 249.27867 
L 132.324486 249.380223 
L 132.49305 109.59296 
L 132.661614 253.668169 
L 132.830178 96.189193 
L 132.91446 105.890471 
L 132.998743 249.441668 
L 133.083025 247.499877 
L 133.167307 109.796554 
L 133.251589 109.821131 
L 133.335871 109.858502 
L 133.504435 251.13647 
L 133.672999 105.836866 
L 133.841563 260.589109 
L 134.09441 248.870643 
L 134.262974 101.986214 
L 134.347256 108.448487 
L 134.51582 249.782312 
L 134.600102 249.394142 
L 134.768666 99.905835 
L 134.852948 96.593619 
L 135.021512 260.637832 
L 135.105794 247.200746 
L 135.274359 100.907275 
L 135.358641 102.214303 
L 135.527205 109.696006 
L 135.780051 96.332556 
L 135.948615 256.260657 
L 136.117179 90.109653 
L 136.285743 97.246874 
L 136.454308 109.07069 
L 136.622872 92.786549 
L 136.791436 107.517397 
L 137.044282 94.678549 
L 137.212846 105.994465 
L 137.38141 102.887988 
L 137.549975 74.524124 
L 137.802821 105.614728 
L 137.971385 99.470784 
L 138.139949 102.718843 
L 138.308513 83.856966 
L 138.392795 105.196682 
L 138.477077 254.269313 
L 138.645641 82.024179 
L 138.814206 96.342799 
L 138.898488 95.185168 
L 139.067052 90.413052 
L 139.151334 107.506507 
L 139.235616 252.63109 
L 139.40418 87.220689 
L 139.572744 91.145184 
L 139.657026 92.292562 
L 139.82559 89.054112 
L 139.909873 109.067833 
L 139.994155 254.942138 
L 140.162719 90.639759 
L 140.331283 99.919244 
L 140.499847 86.312336 
L 140.584129 86.312336 
L 140.668411 107.234015 
L 140.836975 255.745351 
L 141.00554 87.48845 
L 141.089822 82.202176 
L 141.174104 82.752228 
L 141.42695 105.789913 
L 141.511232 104.72917 
L 141.595514 101.083016 
L 141.679796 101.086964 
L 141.764078 102.826227 
L 141.932642 92.385216 
L 142.269771 95.565023 
L 142.438335 97.979897 
L 142.606899 108.226253 
L 142.859745 98.927683 
L 143.028309 110.216329 
L 143.281155 96.162614 
L 143.365438 95.959871 
L 143.618284 106.853589 
L 143.786848 97.165259 
L 143.955412 101.784823 
L 144.123976 110.534907 
L 144.208258 95.714468 
L 144.29254 96.256969 
L 144.376822 103.744126 
L 144.545387 97.116196 
L 144.629669 107.372464 
L 144.798233 249.272555 
L 144.966797 81.32237 
L 145.051079 101.087849 
L 145.135361 250.602075 
L 145.303925 92.022928 
L 145.388207 105.126664 
L 145.472489 249.303106 
L 145.641054 98.214615 
L 145.809618 106.778458 
L 145.8939 107.643349 
L 146.062464 95.640734 
L 146.146746 247.372957 
L 146.31531 103.126387 
L 146.399592 110.263983 
L 146.483874 250.326817 
L 146.652438 102.847178 
L 146.821003 94.239296 
L 146.905285 97.494349 
L 147.073849 109.366828 
L 147.158131 110.117396 
L 147.242413 109.117752 
L 147.410977 110.572471 
L 147.579541 261.975898 
L 147.663823 248.173759 
L 147.748105 103.791841 
L 147.916669 258.509182 
L 148.000952 249.52872 
L 148.169516 101.302253 
L 148.253798 99.433183 
L 148.422362 106.494384 
L 148.506644 101.338359 
L 148.590926 108.47362 
L 148.675208 250.861116 
L 148.843772 107.127018 
L 149.096619 98.867696 
L 149.180901 99.457183 
L 149.349465 256.524663 
L 149.433747 250.058199 
L 149.602311 100.316399 
L 149.686593 105.955673 
L 149.770875 248.830549 
L 149.855157 247.293321 
L 150.023721 96.686376 
L 150.108003 90.060197 
L 150.276568 99.815921 
L 150.445132 260.804242 
L 150.613696 98.889931 
L 150.697978 106.144867 
L 150.78226 246.855986 
L 150.866542 102.783973 
L 150.950824 109.052797 
L 151.035106 252.423676 
L 151.20367 96.386592 
L 151.372234 258.437762 
L 151.456517 255.888509 
L 151.625081 81.868901 
L 151.793645 269.381366 
L 151.877927 250.566708 
L 152.046491 99.148172 
L 152.130773 100.590045 
L 152.215055 108.789627 
L 152.299337 249.879987 
L 152.383619 101.089997 
L 152.552184 266.135391 
L 152.720748 82.379878 
L 152.80503 82.379878 
L 152.889312 104.463369 
L 152.973594 255.980806 
L 153.057876 249.273073 
L 153.22644 99.587212 
L 153.310722 96.245023 
L 153.479286 261.823036 
L 153.732133 247.652801 
L 153.900697 92.119963 
L 153.984979 85.20663 
L 154.069261 100.763467 
L 154.153543 248.716139 
L 154.322107 100.458941 
L 154.490671 90.195879 
L 154.659235 252.656902 
L 154.827799 101.847817 
L 154.912082 98.448209 
L 155.080646 264.983569 
L 155.24921 84.771257 
L 155.333492 108.333677 
L 155.417774 260.511472 
L 155.502056 253.112691 
L 155.586338 248.730986 
L 155.67062 250.187962 
L 155.839184 98.228143 
L 155.923466 96.02325 
L 156.007749 97.023493 
L 156.092031 109.926198 
L 156.260595 255.281186 
L 156.429159 102.828274 
L 156.597723 265.96565 
L 156.766287 250.788243 
L 156.934851 257.922282 
L 157.103415 251.103428 
L 157.187698 94.885295 
L 157.356262 266.240046 
L 157.440544 254.320712 
L 157.609108 108.200839 
L 157.69339 109.102919 
L 157.861954 254.251637 
L 158.030518 105.126601 
L 158.1148 102.758329 
L 158.199082 103.788788 
L 158.367647 258.762812 
L 158.451929 258.881418 
L 158.536211 247.794449 
L 158.620493 104.748383 
L 158.704775 257.056172 
L 158.873339 77.303859 
L 158.957621 108.879418 
L 159.041903 267.398227 
L 159.126185 259.364561 
L 159.210467 250.756268 
L 159.379031 89.56858 
L 159.463314 109.53727 
L 159.547596 104.689378 
L 159.631878 92.60093 
L 159.800442 263.978796 
L 159.884724 247.087955 
L 159.969006 98.960363 
L 160.13757 257.430772 
L 160.221852 97.768732 
L 160.306134 107.403809 
L 160.390416 261.037784 
L 160.474698 255.923035 
L 160.55898 249.90868 
L 160.727545 262.358216 
L 160.896109 82.579635 
L 160.980391 264.416017 
L 161.064673 262.118827 
L 161.148955 101.410928 
L 161.317519 266.527785 
L 161.486083 253.210426 
L 161.654647 97.260524 
L 161.738929 98.574921 
L 161.907494 106.441711 
L 162.076058 108.094525 
L 162.244622 261.752178 
L 162.497468 253.446149 
L 162.666032 96.994519 
L 162.834596 104.148925 
L 162.918879 257.903253 
L 163.003161 248.479146 
L 163.171725 94.680126 
L 163.256007 95.69135 
L 163.424571 260.39069 
L 163.593135 248.852462 
L 163.761699 249.981143 
L 163.845981 250.692695 
L 164.014545 87.858247 
L 164.18311 250.919411 
L 164.267392 105.201411 
L 164.435956 254.93887 
L 164.520238 254.172267 
L 164.60452 252.260677 
L 164.773084 88.210699 
L 164.857366 92.87039 
L 165.02593 265.770393 
L 165.194494 93.140518 
L 165.278777 74.083422 
L 165.363059 104.110852 
L 165.447341 264.667882 
L 165.531623 250.781806 
L 165.615905 102.297225 
L 165.700187 107.627573 
L 165.784469 110.876991 
L 165.953033 256.173615 
L 166.121597 72.966858 
L 166.290161 287.97078 
L 166.458726 95.510648 
L 166.543008 110.472356 
L 166.711572 95.299491 
L 166.880136 256.763743 
L 166.964418 105.687669 
L 167.132982 295.488 
L 167.217264 247.788096 
L 167.301546 77.620299 
L 167.385828 86.865167 
L 167.638675 110.342838 
L 167.807239 255.927385 
L 167.891521 255.845352 
L 168.060085 261.228863 
L 168.228649 93.309962 
L 168.481495 108.451428 
L 168.650059 249.838697 
L 168.734342 268.923598 
L 168.902906 249.401237 
L 168.987188 109.884756 
L 169.07147 110.005132 
L 169.240034 92.276092 
L 169.324316 100.382378 
L 169.49288 272.323872 
L 169.577162 258.294088 
L 169.745726 104.547932 
L 169.830008 105.052715 
L 169.914291 107.947883 
L 170.167137 97.764081 
L 170.251419 98.713028 
L 170.419983 270.285304 
L 170.588547 84.112457 
L 170.672829 85.406547 
L 170.757111 109.722686 
L 170.925675 262.127548 
L 171.009958 258.272071 
L 171.178522 102.967786 
L 171.347086 105.931824 
L 171.431368 253.938385 
L 171.51565 253.440965 
L 171.599932 246.906476 
L 171.768496 93.619639 
L 171.852778 109.949697 
L 171.93706 257.033963 
L 172.021342 102.981243 
L 172.105624 109.111211 
L 172.189907 257.718375 
L 172.274189 257.249617 
L 172.358471 253.220186 
L 172.527035 84.311107 
L 172.695599 106.287043 
L 172.864163 252.512195 
L 172.948445 252.512195 
L 173.117009 249.316633 
L 173.201291 249.950037 
L 173.369856 92.806995 
L 173.53842 267.81345 
L 173.622702 252.944213 
L 173.706984 105.327128 
L 173.875548 256.386625 
L 174.044112 96.086176 
L 174.128394 107.190269 
L 174.296958 256.797962 
L 174.38124 257.774652 
L 174.549805 103.640086 
L 174.634087 104.290796 
L 174.718369 106.556955 
L 174.886933 255.149547 
L 175.055497 247.371392 
L 175.224061 104.73989 
L 175.392625 255.848592 
L 175.561189 252.563324 
L 175.729754 98.737567 
L 175.814036 107.721221 
L 175.898318 249.964705 
L 176.066882 101.975117 
L 176.235446 256.199318 
L 176.319728 257.354242 
L 176.40401 255.556739 
L 176.572574 99.548621 
L 176.825421 110.643591 
L 176.993985 251.895275 
L 177.078267 252.617331 
L 177.162549 251.936659 
L 177.246831 250.121761 
L 177.415395 253.92597 
L 177.499677 249.025761 
L 177.583959 110.01397 
L 177.668241 110.127055 
L 177.836805 246.85855 
L 178.00537 255.3774 
L 178.173934 248.067952 
L 178.342498 256.060711 
L 178.511062 100.086721 
L 178.679626 259.464093 
L 178.84819 90.724676 
L 178.932472 105.977026 
L 179.101037 252.125718 
L 179.185319 246.97538 
L 179.353883 105.970519 
L 179.438165 105.979297 
L 179.522447 109.980661 
L 179.691011 254.266655 
L 179.775293 254.266655 
L 179.943857 270.980417 
L 180.112421 90.394739 
L 180.280986 262.775903 
L 180.44955 97.156037 
L 180.618114 257.701165 
L 180.702396 250.603733 
L 180.786678 109.386394 
L 180.87096 109.731535 
L 180.955242 110.659639 
L 181.123806 108.027102 
L 181.29237 250.73585 
L 181.460935 106.707551 
L 181.629499 102.961809 
L 181.798063 253.374163 
L 181.966627 104.257969 
L 182.135191 249.09365 
L 182.219473 110.474335 
L 182.388037 259.668259 
L 182.556602 98.861015 
L 182.725166 258.292441 
L 182.809448 247.268233 
L 182.89373 104.783845 
L 182.978012 107.287754 
L 183.062294 110.312557 
L 183.230858 249.214742 
L 183.399422 255.181134 
L 183.483704 248.566378 
L 183.567986 108.252409 
L 183.652268 109.418989 
L 183.736551 110.934251 
L 183.905115 109.760558 
L 183.989397 109.760558 
L 184.157961 259.940426 
L 184.242243 107.901329 
L 184.410807 261.630405 
L 184.495089 261.630405 
L 184.832218 251.056895 
L 185.000782 256.458377 
L 185.169346 104.040046 
L 185.253628 110.515361 
L 185.33791 251.48613 
L 185.422192 247.118074 
L 185.506474 108.663579 
L 185.590756 108.941826 
L 185.675038 110.028286 
L 185.843602 264.341973 
L 185.927884 253.288442 
L 186.096449 106.752266 
L 186.265013 251.434756 
L 186.433577 255.505697 
L 186.517859 255.505697 
L 186.602141 247.586291 
L 186.686423 106.541893 
L 186.854987 254.191114 
L 186.939269 247.000066 
L 187.023551 110.650122 
L 187.107833 250.000449 
L 187.192116 248.105813 
L 187.276398 246.857566 
L 187.444962 252.112971 
L 187.613526 106.185221 
L 187.78209 92.202573 
L 187.950654 268.400828 
L 188.034936 268.400828 
L 188.2035 250.428734 
L 188.372065 109.61486 
L 188.540629 99.895971 
L 188.793475 105.354358 
L 188.962039 250.695747 
L 189.046321 247.78329 
L 189.214885 107.151622 
L 189.299167 106.21187 
L 189.383449 110.191558 
L 189.552014 251.695364 
L 189.636296 253.155742 
L 189.80486 248.438759 
L 189.973424 103.601448 
L 190.057706 109.9906 
L 190.141988 249.884898 
L 190.310552 105.009161 
L 190.479116 254.766786 
L 190.647681 251.148114 
L 190.816245 102.404076 
L 190.900527 107.039234 
L 190.984809 246.853585 
L 191.153373 104.755851 
L 191.321937 108.459887 
L 191.490501 91.248057 
L 191.659065 110.833617 
L 191.82763 99.361111 
L 191.996194 106.198378 
L 192.080476 250.921543 
L 192.24904 102.697548 
L 192.333322 108.852241 
L 192.417604 248.760817 
L 192.586168 98.857538 
L 192.754732 108.268237 
L 192.923297 248.260638 
L 193.007579 249.408827 
L 193.091861 248.959469 
L 193.260425 99.012516 
L 193.344707 106.008782 
L 193.428989 247.075707 
L 193.597553 101.001394 
L 193.766117 99.402256 
L 193.934681 101.883205 
L 194.018963 101.339382 
L 194.187528 101.839417 
L 194.356092 108.574415 
L 194.524656 97.900268 
L 194.69322 255.258419 
L 194.861784 89.757475 
L 195.030348 103.709284 
L 195.11463 102.587072 
L 195.283195 109.309497 
L 195.451759 98.939442 
L 195.620323 103.034145 
L 195.957451 99.664265 
L 196.126015 102.255158 
L 196.294579 108.443746 
L 196.378862 108.765278 
L 196.463144 107.33789 
L 196.631708 84.92678 
L 196.71599 105.810241 
L 196.800272 255.66646 
L 196.884554 250.788635 
L 196.968836 108.688055 
L 197.053118 109.33655 
L 197.1374 109.41039 
L 197.305964 99.050312 
L 197.474528 110.15033 
L 197.558811 104.005435 
L 197.727375 256.469791 
L 197.895939 89.966265 
L 197.980221 106.021592 
L 198.064503 252.833301 
L 198.148785 251.504689 
L 198.233067 248.872513 
L 198.401631 106.56699 
L 198.570195 110.598255 
L 198.73876 93.643827 
L 198.823042 93.643827 
L 198.991606 259.536594 
L 199.075888 247.40789 
L 199.16017 103.415425 
L 199.244452 106.901016 
L 199.328734 109.610764 
L 199.497298 249.835009 
L 199.665862 103.929281 
L 199.750144 110.610734 
L 199.918709 251.539569 
L 200.087273 251.106766 
L 200.171555 109.817329 
L 200.255837 109.868112 
L 200.424401 250.24984 
L 200.508683 251.028591 
L 200.677247 99.753016 
L 200.761529 110.072737 
L 200.845811 252.836455 
L 200.930093 247.328524 
L 201.098658 107.332801 
L 201.18294 246.972464 
L 201.351504 106.244764 
L 201.520068 103.583673 
L 201.688632 251.387048 
L 201.772914 251.387048 
L 201.941478 249.553507 
L 202.110042 105.561797 
L 202.278607 253.900318 
L 202.447171 100.10755 
L 202.531453 107.581516 
L 202.700017 253.160876 
L 202.784299 250.169535 
L 202.952863 106.879329 
L 203.037145 104.559268 
L 203.121427 108.874067 
L 203.289992 253.636191 
L 203.374274 255.62804 
L 203.542838 95.69448 
L 203.62712 107.247402 
L 203.711402 251.496651 
L 203.879966 95.130252 
L 203.964248 102.692982 
L 204.132812 255.636887 
L 204.385658 247.111125 
L 204.554223 96.621044 
L 204.722787 110.372137 
L 204.891351 257.501094 
L 205.059915 251.602147 
L 205.228479 91.644861 
L 205.312761 110.223646 
L 205.397043 259.195549 
L 205.481325 253.306487 
L 205.565607 247.690257 
L 205.64989 101.035132 
L 205.734172 105.023478 
L 205.818454 247.795568 
L 205.987018 105.959485 
L 206.0713 105.35174 
L 206.155582 105.432156 
L 206.324146 100.676482 
L 206.408428 100.676482 
L 206.661274 108.670801 
L 206.829839 107.909016 
L 206.998403 109.970651 
L 207.166967 248.98981 
L 207.251249 247.508174 
L 207.419813 107.443066 
L 207.504095 106.084373 
L 207.672659 108.638893 
L 207.925506 103.42736 
L 208.009788 103.207012 
L 208.09407 107.487217 
L 208.346916 102.092286 
L 208.51548 250.940772 
L 208.599762 247.838629 
L 208.768326 253.246575 
L 208.93689 99.45541 
L 209.105455 261.45591 
L 209.358301 247.106314 
L 209.526865 106.898978 
L 209.611147 106.371612 
L 209.779711 253.700202 
L 209.948275 250.368155 
L 210.116839 258.148328 
L 210.285404 252.765221 
L 210.453968 103.950837 
L 210.622532 253.313626 
L 210.791096 261.638722 
L 210.875378 262.018842 
L 211.043942 91.203997 
L 211.212506 271.920897 
L 211.296788 255.003314 
L 211.381071 106.123929 
L 211.465353 110.556462 
L 211.633917 260.879194 
L 211.718199 250.873016 
L 211.802481 106.46622 
L 211.971045 251.669363 
L 212.139609 248.305592 
L 212.223891 248.016703 
L 212.476737 249.828639 
L 212.645302 265.66896 
L 212.729584 262.326837 
L 212.813866 249.189175 
L 212.898148 108.148528 
L 213.066712 252.24939 
L 213.235276 252.881039 
L 213.40384 252.652563 
L 213.656686 259.243335 
L 213.825251 254.464032 
L 213.993815 266.018826 
L 214.162379 94.974255 
L 214.246661 106.853309 
L 214.415225 259.398711 
L 214.583789 265.220879 
L 214.668071 251.097742 
L 214.752353 106.288684 
L 214.836636 109.567433 
L 215.0052 254.097486 
L 215.089482 256.752848 
L 215.173764 256.591455 
L 215.258046 247.89873 
L 215.342328 107.925779 
L 215.510892 276.261708 
L 215.595174 255.43967 
L 215.679456 105.389978 
L 215.763738 105.52993 
L 215.932302 290.042587 
L 216.100867 256.474887 
L 216.269431 96.608494 
L 216.437995 263.89981 
L 216.606559 249.063691 
L 216.690841 108.388224 
L 216.859405 259.484839 
L 216.943687 258.921235 
L 217.027969 257.37992 
L 217.196534 103.951107 
L 217.280816 98.292073 
L 217.44938 273.178302 
L 217.617944 253.0039 
L 217.786508 259.301952 
L 217.955072 98.164754 
L 218.039354 107.936264 
L 218.207918 263.175882 
L 218.292201 265.902367 
L 218.376483 101.163846 
L 218.545047 289.235751 
L 218.629329 251.814098 
L 218.713611 89.204467 
L 218.882175 264.696375 
L 219.050739 254.951146 
L 219.135021 109.099558 
L 219.303585 268.76677 
L 219.387867 274.646181 
L 219.47215 274.065755 
L 219.556432 247.247146 
L 219.640714 95.014993 
L 219.724996 111.013599 
L 219.809278 260.078655 
L 219.977842 100.847816 
L 220.230688 110.907595 
L 220.31497 247.086101 
L 220.399252 246.921879 
L 220.567816 108.732583 
L 220.736381 264.077008 
L 220.904945 98.329243 
L 221.073509 256.196363 
L 221.157791 256.635813 
L 221.326355 104.962473 
L 221.410637 109.864745 
L 221.579201 251.071602 
L 221.747766 251.300565 
L 221.832048 247.252364 
L 221.91633 110.833819 
L 222.084894 250.69067 
L 222.169176 251.887565 
L 222.33774 261.295291 
L 222.422022 252.316595 
L 222.590586 109.97578 
L 222.674868 251.481428 
L 222.75915 251.282553 
L 222.927715 247.970095 
L 223.011997 248.001304 
L 223.180561 76.92997 
L 223.264843 108.078617 
L 223.349125 266.300237 
L 223.433407 264.860922 
L 223.686253 248.553928 
L 223.854817 102.508209 
L 224.023381 275.377319 
L 224.107664 250.527718 
L 224.191946 96.601479 
L 224.276228 110.579815 
L 224.36051 257.160075 
L 224.529074 86.981385 
L 224.697638 275.891354 
L 224.78192 275.891354 
L 224.866202 277.940015 
L 224.950484 272.935536 
L 225.119048 248.880047 
L 225.203331 106.131001 
L 225.287613 108.65716 
L 225.456177 263.0812 
L 225.540459 270.302376 
L 225.709023 86.918784 
L 225.793305 104.09623 
L 225.961869 78.597469 
L 226.214715 109.882178 
L 226.298997 252.418597 
L 226.38328 93.831691 
L 226.467562 95.563811 
L 226.551844 107.973961 
L 226.720408 95.304612 
L 226.888972 108.435254 
L 227.057536 70.992709 
L 227.310382 95.11283 
L 227.647511 85.427693 
L 227.816075 110.852295 
L 227.900357 89.326377 
L 227.984639 94.081094 
L 228.068921 105.235366 
L 228.321767 53.568 
L 228.406049 100.309386 
L 228.490331 266.280644 
L 228.658895 70.053448 
L 228.743178 91.689426 
L 228.911742 258.036506 
L 229.080306 93.456484 
L 229.24887 75.182886 
L 229.417434 96.229017 
L 229.585998 79.155663 
L 229.754562 105.112755 
L 230.007409 85.832257 
L 230.175973 89.955063 
L 230.260255 74.626793 
L 230.428819 106.903144 
L 230.597383 87.390314 
L 230.765947 102.667572 
L 230.850229 94.723049 
L 231.018794 65.7357 
L 231.103076 93.484745 
L 231.187358 247.403777 
L 231.355922 103.619987 
L 231.440204 101.782117 
L 231.608768 95.476558 
L 231.69305 95.189956 
L 231.777332 95.333183 
L 231.945896 258.362841 
L 232.11446 66.362118 
L 232.198743 76.227901 
L 232.283025 107.893366 
L 232.367307 254.736176 
L 232.535871 95.058899 
L 232.620153 108.890895 
L 232.704435 252.270699 
L 232.872999 81.654547 
L 233.041563 94.855915 
L 233.125845 88.629764 
L 233.29441 106.792206 
L 233.462974 100.962557 
L 233.547256 247.183614 
L 233.71582 91.303867 
L 233.800102 247.533192 
L 233.968666 92.331439 
L 234.13723 100.652776 
L 234.221512 110.370357 
L 234.305794 251.148204 
L 234.474359 88.537129 
L 234.558641 106.568702 
L 234.642923 258.177316 
L 234.727205 256.84986 
L 234.895769 86.922684 
L 235.064333 109.163112 
L 235.148615 99.084595 
L 235.317179 273.198906 
L 235.485743 88.143931 
L 235.570025 102.616991 
L 235.654308 250.121178 
L 235.73859 249.909109 
L 235.822872 247.973716 
L 235.907154 104.996317 
L 235.991436 106.78715 
L 236.075718 247.204484 
L 236.244282 77.940344 
L 236.328564 107.559137 
L 236.412846 263.691514 
L 236.497128 253.921833 
L 236.58141 108.415748 
L 236.665692 110.06599 
L 236.834257 250.607931 
L 237.002821 106.556946 
L 237.171385 109.171916 
L 237.339949 107.228055 
L 237.508513 94.147327 
L 237.677077 259.120582 
L 237.761359 251.161059 
L 237.845641 108.777183 
L 237.929924 248.899745 
L 238.014206 248.878123 
L 238.18277 97.316537 
L 238.267052 91.658708 
L 238.351334 106.628473 
L 238.519898 257.932771 
L 238.60418 258.379576 
L 238.857026 251.162525 
L 239.02559 101.318208 
L 239.109873 248.29821 
L 239.278437 92.778029 
L 239.447001 268.851728 
L 239.531283 250.472689 
L 239.699847 100.785297 
L 239.784129 102.622271 
L 239.952693 255.137819 
L 240.121257 260.601405 
L 240.20554 250.955282 
L 240.289822 108.498587 
L 240.458386 254.476178 
L 240.542668 251.189126 
L 240.62695 251.442797 
L 240.711232 251.749313 
L 240.879796 104.507184 
L 240.964078 110.220128 
L 241.132642 251.332136 
L 241.301206 250.859231 
L 241.469771 260.58664 
L 241.554053 250.769726 
L 241.638335 108.415491 
L 241.806899 257.460291 
L 241.891181 252.093429 
L 241.975463 252.546658 
L 242.059745 255.356066 
L 242.396873 248.865586 
L 242.565438 256.813384 
L 242.734002 254.827796 
L 242.902566 247.753191 
L 243.07113 252.082562 
L 243.155412 248.044989 
L 243.239694 109.886034 
L 243.408258 257.502692 
L 243.49254 250.360125 
L 243.661105 109.740486 
L 243.745387 110.664502 
L 243.913951 248.525904 
L 243.998233 248.525904 
L 244.166797 251.992993 
L 244.335361 249.793903 
L 244.503925 106.9981 
L 244.588207 106.9981 
L 244.756771 100.059243 
L 244.841054 108.368133 
L 245.009618 249.965832 
L 245.0939 249.644461 
L 245.178182 250.82005 
L 245.262464 250.720827 
L 245.346746 250.720827 
L 245.51531 108.951717 
L 245.599592 110.349552 
L 245.768156 102.641009 
L 245.852438 102.641009 
L 245.93672 107.85707 
L 246.021003 247.415572 
L 246.189567 109.888924 
L 246.358131 255.807001 
L 246.526695 99.404432 
L 246.610977 105.568436 
L 246.779541 259.014832 
L 246.948105 247.320438 
L 247.116669 109.57143 
L 247.285234 248.634025 
L 247.453798 109.285113 
L 247.622362 248.560477 
L 247.790926 259.146547 
L 247.95949 99.039209 
L 248.043772 99.768659 
L 248.128054 102.844642 
L 248.296619 96.380105 
L 248.380901 109.297368 
L 248.465183 251.766002 
L 248.633747 101.217581 
L 248.718029 107.683754 
L 248.802311 248.047313 
L 248.886593 247.455995 
L 249.055157 106.434448 
L 249.139439 104.731003 
L 249.308003 108.819373 
L 249.476568 105.328701 
L 249.645132 110.453471 
L 249.813696 249.238017 
L 249.98226 85.588058 
L 250.066542 108.06795 
L 250.150824 259.778972 
L 250.319388 96.74362 
L 250.40367 102.070259 
L 250.487952 100.629152 
L 250.572234 97.380633 
L 250.656517 108.846627 
L 250.740799 251.577212 
L 250.825081 247.179894 
L 250.993645 100.610009 
L 251.077927 97.302044 
L 251.162209 107.833868 
L 251.246491 250.836291 
L 251.415055 100.182623 
L 251.499337 106.75435 
L 251.583619 247.006801 
L 251.667901 109.956128 
L 251.836466 261.998918 
L 251.920748 261.998918 
L 252.089312 88.27984 
L 252.173594 102.775932 
L 252.257876 249.965187 
L 252.42644 102.190957 
L 252.510722 108.937991 
L 252.679286 101.412931 
L 252.84785 108.319445 
L 253.016415 253.078925 
L 253.184979 100.269738 
L 253.353543 109.097843 
L 253.522107 91.098589 
L 253.690671 107.076211 
L 253.774953 106.540692 
L 253.943517 100.824206 
L 254.112082 261.354057 
L 254.280646 96.022963 
L 254.364928 107.031515 
L 254.44921 250.751965 
L 254.617774 103.177459 
L 254.702056 108.332411 
L 254.786338 247.203444 
L 254.954902 98.772962 
L 255.123466 102.244828 
L 255.207749 101.440234 
L 255.292031 101.706705 
L 255.376313 103.333928 
L 255.544877 109.300472 
L 255.713441 248.299912 
L 255.882005 93.67448 
L 255.966287 104.456698 
L 256.134851 248.253902 
L 256.303415 108.679153 
L 256.640544 98.837078 
L 256.724826 106.463261 
L 256.89339 252.89797 
L 257.061954 100.950358 
L 257.146236 99.997065 
L 257.230518 101.091578 
L 257.3148 99.867345 
L 257.399082 100.090698 
L 257.567647 268.488966 
L 257.651929 251.604799 
L 257.736211 110.487783 
L 257.820493 251.143605 
L 257.904775 250.730275 
L 258.073339 249.457032 
L 258.157621 249.586313 
L 258.241903 249.202557 
L 258.410467 259.156839 
L 258.494749 258.070719 
L 258.663314 100.144909 
L 258.831878 273.197189 
L 258.91616 253.383149 
L 259.000442 103.697628 
L 259.084724 104.326906 
L 259.169006 108.280418 
L 259.33757 258.647567 
L 259.421852 251.727552 
L 259.590416 110.125097 
L 259.75898 253.826508 
L 259.927545 250.402226 
L 260.180391 253.920387 
L 260.348955 256.594574 
L 260.433237 256.264465 
L 260.517519 249.526548 
L 260.601801 251.42651 
L 260.770365 256.172041 
L 260.854647 255.785501 
L 261.023212 263.136753 
L 261.107494 250.335862 
L 261.191776 106.249617 
L 261.276058 109.141726 
L 261.444622 254.486396 
L 261.528904 257.058838 
L 261.613186 247.649773 
L 261.697468 106.010796 
L 261.866032 253.656477 
L 262.034596 258.675394 
L 262.203161 250.680859 
L 262.287443 250.801975 
L 262.371725 251.449362 
L 262.540289 247.4777 
L 262.708853 259.873718 
L 262.793135 260.032926 
L 262.877417 250.663875 
L 262.961699 110.311988 
L 263.130263 254.677611 
L 263.467392 264.688065 
L 263.635956 96.164198 
L 263.80452 267.449336 
L 264.057366 252.633408 
L 264.141648 251.4832 
L 264.22593 251.511164 
L 264.310212 252.216298 
L 264.394494 252.115385 
L 264.478777 252.411364 
L 264.647341 263.314115 
L 264.815905 248.578587 
L 264.984469 253.463849 
L 265.068751 248.310584 
L 265.153033 110.264788 
L 265.321597 250.763671 
L 265.490161 247.014537 
L 265.658726 260.904661 
L 265.743008 249.077548 
L 265.82729 105.975064 
L 265.995854 254.877393 
L 266.080136 254.877393 
L 266.164418 255.176872 
L 266.417264 253.67168 
L 266.585828 106.022369 
L 266.754393 257.757664 
L 266.838675 248.244673 
L 266.922957 106.519896 
L 267.091521 257.954908 
L 267.175803 250.363604 
L 267.260085 109.634244 
L 267.428649 261.865034 
L 267.512931 247.759656 
L 267.597213 103.469536 
L 267.765777 263.375599 
L 267.850059 250.86143 
L 268.018624 106.635192 
L 268.187188 256.788146 
L 268.27147 256.826792 
L 268.524316 254.283416 
L 268.608598 248.590854 
L 268.69288 110.323334 
L 268.861444 257.302075 
L 269.030008 101.625988 
L 269.114291 110.165283 
L 269.282855 262.67271 
L 269.367137 266.547136 
L 269.535701 249.978547 
L 270.041393 253.362429 
L 270.209958 264.009404 
L 270.378522 250.382214 
L 270.547086 108.229116 
L 270.71565 257.381085 
L 270.884214 247.670128 
L 270.968496 247.896675 
L 271.052778 249.349954 
L 271.221342 267.796287 
L 271.389907 257.219344 
L 271.558471 100.584904 
L 271.642753 110.667616 
L 271.811317 265.643493 
L 271.895599 270.066321 
L 271.979881 250.275298 
L 272.064163 101.966592 
L 272.232727 264.02827 
L 272.401291 251.389757 
L 272.569856 256.107428 
L 272.654138 247.394839 
L 272.73842 106.72018 
L 272.906984 254.991069 
L 272.991266 255.17228 
L 273.075548 254.584745 
L 273.15983 248.20264 
L 273.244112 109.113842 
L 273.412676 251.948427 
L 273.496958 251.948427 
L 273.58124 109.980051 
L 273.749805 255.446933 
L 273.834087 257.019382 
L 273.918369 255.790748 
L 274.002651 248.31007 
L 274.086933 108.609546 
L 274.255497 254.778101 
L 274.424061 104.637916 
L 274.592625 256.484048 
L 274.761189 246.888324 
L 274.929754 106.887298 
L 275.098318 105.356671 
L 275.266882 255.432356 
L 275.435446 104.330518 
L 275.519728 110.055611 
L 275.688292 98.764877 
L 275.772574 108.64953 
L 275.856856 251.831574 
L 275.941138 249.646397 
L 276.109703 247.116114 
L 276.278267 248.909565 
L 276.446831 246.93244 
L 276.615395 250.184082 
L 276.699677 247.365083 
L 276.783959 109.863558 
L 276.952523 252.03132 
L 277.121088 81.79066 
L 277.289652 270.801536 
L 277.373934 251.180476 
L 277.458216 101.541885 
L 277.62678 255.394849 
L 277.711062 248.816833 
L 277.795344 107.906591 
L 277.879626 110.428161 
L 278.04819 251.660285 
L 278.132472 253.060874 
L 278.301037 103.453853 
L 278.469601 110.756013 
L 278.638165 108.51848 
L 278.806729 250.962684 
L 278.975293 99.561867 
L 279.228139 110.633173 
L 279.312421 110.844604 
L 279.480986 107.957202 
L 279.565268 108.120257 
L 279.733832 110.331391 
L 279.902396 102.661894 
L 280.07096 108.068809 
L 280.239524 101.987119 
L 280.49237 110.871046 
L 280.660935 98.247064 
L 280.913781 107.437963 
L 280.998063 107.028319 
L 281.166627 252.332845 
L 281.335191 89.239879 
L 281.672319 109.186487 
L 281.756602 110.952249 
L 282.430858 97.092926 
L 282.599422 256.881512 
L 282.767986 106.022775 
L 282.852268 109.396991 
L 283.020833 103.295223 
L 283.189397 107.650841 
L 283.357961 96.980769 
L 283.526525 254.285422 
L 283.695089 94.040254 
L 283.947935 106.960174 
L 284.032218 107.128643 
L 284.200782 250.869704 
L 284.369346 95.066707 
L 284.53791 101.987161 
L 284.706474 110.91628 
L 284.875038 104.526141 
L 285.043602 110.95848 
L 285.127884 247.064543 
L 285.296449 108.073277 
L 285.465013 106.917049 
L 285.633577 110.335274 
L 285.802141 104.665038 
L 285.970705 255.028283 
L 286.139269 99.562255 
L 286.223551 100.031739 
L 286.307833 102.796859 
L 286.392116 100.241073 
L 286.476398 108.938175 
L 286.56068 250.589573 
L 286.729244 103.963722 
L 286.897808 109.49384 
L 287.066372 247.038635 
L 287.234936 99.844461 
L 287.487782 110.435997 
L 287.572065 110.559084 
L 287.740629 252.526938 
L 287.909193 103.077231 
L 287.993475 100.278245 
L 288.077757 100.413067 
L 288.162039 109.310887 
L 288.246321 250.570656 
L 288.330603 249.349561 
L 288.414885 247.148925 
L 288.583449 251.46031 
L 288.752014 92.033227 
L 288.836296 103.151127 
L 288.920578 247.589044 
L 289.089142 105.161653 
L 289.257706 254.739345 
L 289.341988 249.962503 
L 289.510552 97.700398 
L 289.594834 91.92899 
L 289.679116 103.59494 
L 289.847681 253.183301 
L 289.931963 254.289905 
L 290.016245 248.509665 
L 290.100527 108.119931 
L 290.184809 108.619631 
L 290.269091 109.577428 
L 290.437655 250.070849 
L 290.606219 87.598782 
L 290.774783 102.899087 
L 290.943347 253.092488 
L 291.02763 249.292125 
L 291.196194 108.508436 
L 291.364758 107.333175 
L 291.533322 254.55896 
L 291.617604 247.937697 
L 291.786168 99.13475 
L 291.87045 96.097037 
L 291.954732 106.887574 
L 292.039014 250.242743 
L 292.207579 107.325386 
L 292.376143 102.57283 
L 292.460425 102.878378 
L 292.628989 104.156979 
L 292.713271 104.5831 
L 292.797553 110.506216 
L 292.881835 249.100806 
L 293.050399 103.039587 
L 293.134681 98.901551 
L 293.303246 271.047578 
L 293.387528 271.047578 
L 293.556092 249.176202 
L 293.724656 77.915546 
L 293.808938 96.094939 
L 293.89322 246.866685 
L 294.061784 107.043117 
L 294.146066 108.741408 
L 294.31463 105.533259 
L 294.483195 107.203693 
L 294.651759 250.451062 
L 294.736041 250.28771 
L 294.904605 99.252927 
L 294.988887 102.696269 
L 295.073169 110.830338 
L 295.241733 253.097023 
L 295.326015 248.233719 
L 295.494579 94.058668 
L 295.578862 87.715207 
L 295.663144 104.98344 
L 295.747426 255.154295 
L 295.831708 253.798624 
L 296.000272 247.779706 
L 296.168836 102.77004 
L 296.3374 92.626317 
L 296.421682 108.010297 
L 296.505964 253.955708 
L 296.590246 251.452069 
L 296.674528 247.552205 
L 296.843093 94.438196 
L 296.927375 249.851806 
L 297.011657 248.189062 
L 297.095939 101.022622 
L 297.180221 103.587877 
L 297.264503 106.254032 
L 297.433067 97.983526 
L 297.601631 255.283998 
L 297.685913 255.283998 
L 297.770195 248.405159 
L 297.93876 97.433896 
L 298.191606 106.683001 
L 298.36017 100.015175 
L 298.528734 253.122154 
L 298.697298 247.448563 
L 298.78158 101.455459 
L 298.865862 107.578781 
L 298.950144 250.114778 
L 299.118709 103.444356 
L 299.287273 109.721121 
L 299.455837 99.777086 
L 299.708683 106.960352 
L 299.792965 110.312701 
L 299.961529 102.459468 
L 300.130093 257.145013 
L 300.214376 251.863465 
L 300.298658 110.885332 
L 300.467222 248.256668 
L 300.551504 247.218716 
L 300.635786 110.689408 
L 300.80435 255.035834 
L 300.888632 248.822324 
L 301.057196 102.138306 
L 301.141478 98.90153 
L 301.310042 257.37721 
L 301.394325 248.956634 
L 301.478607 107.234216 
L 301.647171 256.78892 
L 301.815735 252.622072 
L 301.984299 96.268193 
L 302.068581 104.837274 
L 302.237145 249.201867 
L 302.321427 248.888248 
L 302.489992 104.774109 
L 302.574274 104.700984 
L 302.742838 255.016431 
L 302.911402 100.928222 
L 303.079966 107.373171 
L 303.24853 256.944189 
L 303.332812 259.046931 
L 303.417094 247.003153 
L 303.585658 102.402502 
L 303.669941 103.201458 
L 303.838505 272.884868 
L 303.922787 253.408794 
L 304.091351 102.843698 
L 304.175633 104.723385 
L 304.259915 110.046623 
L 304.428479 257.211415 
L 304.597043 250.574121 
L 304.765607 108.315053 
L 304.84989 110.992186 
L 305.018454 254.639936 
L 305.102736 257.010491 
L 305.2713 249.383118 
L 305.355582 249.43452 
L 305.439864 249.925141 
L 305.608428 247.382158 
L 305.69271 247.155663 
L 305.945556 257.345716 
L 306.029839 258.203709 
L 306.114121 258.072797 
L 306.198403 256.61644 
L 306.366967 269.217796 
L 306.535531 252.806013 
L 306.704095 268.180174 
L 306.872659 249.231214 
L 306.956941 255.045339 
L 307.041223 248.339353 
L 307.125506 106.145534 
L 307.29407 269.314575 
L 307.462634 255.232539 
L 307.631198 262.95597 
L 307.799762 261.044323 
L 307.968326 252.674001 
L 308.052608 252.674001 
L 308.13689 251.561047 
L 308.221172 252.309502 
L 308.389737 268.990956 
L 308.558301 248.77768 
L 308.642583 248.77768 
L 308.726865 110.450552 
L 308.895429 261.237497 
L 308.979711 259.322775 
L 309.148275 250.057567 
L 309.232557 249.780648 
L 309.401121 265.196978 
L 309.569686 260.606145 
L 309.73825 247.687341 
L 309.991096 254.252911 
L 310.075378 254.480466 
L 310.243942 259.886745 
L 310.412506 249.302216 
L 310.496788 249.302216 
L 310.665353 270.330896 
L 310.749635 251.494639 
L 310.833917 103.94909 
L 311.002481 274.928046 
L 311.086763 254.838938 
L 311.171045 105.980066 
L 311.255327 110.21675 
L 311.423891 255.135431 
L 311.592455 262.702941 
L 311.676737 262.702941 
L 311.845302 109.115112 
L 311.929584 252.266952 
L 312.013866 251.742484 
L 312.266712 249.717211 
L 312.350994 250.210114 
L 312.435276 250.682371 
L 312.60384 260.397608 
L 312.772404 253.413901 
L 312.856686 256.411846 
L 313.025251 247.913952 
L 313.193815 101.5075 
L 313.278097 109.767004 
L 313.446661 257.894937 
L 313.530943 259.736181 
L 313.615225 247.835964 
L 313.699507 101.018412 
L 313.783789 101.216293 
L 313.952353 269.586886 
L 314.120918 246.884956 
L 314.289482 99.744453 
L 314.458046 269.553945 
L 314.62661 96.391099 
L 314.710892 247.150636 
L 314.879456 101.668055 
L 315.04802 255.131401 
L 315.216585 96.171392 
L 315.385149 261.898547 
L 315.553713 106.756053 
L 315.637995 251.35502 
L 315.722277 247.821927 
L 315.806559 108.867959 
L 315.975123 250.27131 
L 316.143687 103.379668 
L 316.227969 102.132186 
L 316.396534 85.497699 
L 316.480816 102.254076 
L 316.565098 250.116052 
L 316.733662 88.348506 
L 316.902226 110.352968 
L 316.986508 101.191435 
L 317.07079 110.34825 
L 317.155072 251.513714 
L 317.323636 81.18298 
L 317.576483 108.055217 
L 317.660765 252.518306 
L 317.829329 91.683677 
L 318.082175 108.543327 
L 318.250739 255.071633 
L 318.419303 83.273621 
L 318.587867 102.859048 
L 318.756432 254.048753 
L 318.924996 95.569465 
L 319.009278 96.614181 
L 319.177842 83.505974 
L 319.262124 103.149281 
L 319.346406 252.073208 
L 319.51497 87.666178 
L 319.683534 108.390752 
L 319.767816 259.45654 
L 319.852099 254.088158 
L 320.020663 95.642269 
L 320.104945 89.815385 
L 320.273509 109.667934 
L 320.357791 252.621166 
L 320.526355 79.638912 
L 320.610637 98.319081 
L 320.779201 248.776042 
L 320.947766 100.027057 
L 321.032048 93.530596 
L 321.11633 94.132493 
L 321.284894 104.341094 
L 321.453458 102.554935 
L 321.622022 89.239037 
L 321.706304 88.357578 
L 321.874868 263.647558 
L 322.043432 97.246993 
L 322.211997 105.639739 
L 322.380561 73.569407 
L 322.464843 92.005674 
L 322.549125 88.588365 
L 322.633407 78.606736 
L 322.886253 108.432107 
L 322.970535 109.733418 
L 323.054817 247.237942 
L 323.223381 99.852156 
L 323.391946 85.622155 
L 323.56051 110.071551 
L 323.644792 100.369493 
L 323.729074 104.399216 
L 323.897638 250.029077 
L 323.98192 249.584124 
L 324.150484 81.814622 
L 324.234766 90.288847 
L 324.403331 259.539621 
L 324.487613 252.642703 
L 324.656177 81.3925 
L 324.740459 66.521781 
L 324.824741 104.294765 
L 324.909023 252.108305 
L 325.077587 96.784667 
L 325.161869 93.549588 
L 325.330433 265.335716 
L 325.498997 77.078937 
L 325.667562 94.899004 
L 325.751844 86.857488 
L 325.920408 96.535204 
L 326.088972 89.193102 
L 326.257536 109.654959 
L 326.4261 83.131701 
L 326.594664 262.504006 
L 326.763229 94.528094 
L 326.931793 109.417544 
L 327.016075 105.918633 
L 327.184639 71.687525 
L 327.437485 107.971578 
L 327.521767 248.977983 
L 327.690331 105.084169 
L 327.774613 99.165537 
L 327.858895 100.631114 
L 328.02746 110.45842 
L 328.111742 248.644536 
L 328.280306 108.036879 
L 328.364588 102.913333 
L 328.44887 255.118154 
L 328.617434 66.525234 
L 328.701716 109.553778 
L 328.785998 275.146415 
L 328.87028 247.290671 
L 329.038845 86.514326 
L 329.123127 87.821597 
L 329.291691 110.19946 
L 329.375973 107.207467 
L 329.544537 253.559961 
L 329.713101 86.010067 
L 329.797383 102.958784 
L 329.881665 250.749724 
L 330.050229 97.125033 
L 330.218794 101.309492 
L 330.303076 88.706295 
L 330.387358 108.480995 
L 330.47164 261.350073 
L 330.555922 252.492012 
L 330.724486 98.665681 
L 330.808768 98.739105 
L 330.89305 99.919352 
L 330.977332 109.209193 
L 331.061614 250.37087 
L 331.230178 95.896124 
L 331.398743 80.989333 
L 331.567307 276.404777 
L 331.651589 249.661541 
L 331.735871 93.802534 
L 331.820153 101.29156 
L 331.904435 107.539808 
L 331.988717 247.17321 
L 332.157281 89.821581 
L 332.241563 106.372559 
L 332.325845 252.950224 
L 332.410127 247.416566 
L 332.578692 99.599167 
L 332.662974 96.449 
L 333.000102 104.200138 
L 333.168666 99.999652 
L 333.33723 101.920198 
L 333.505794 109.370763 
L 333.590076 109.532594 
L 333.674359 108.770714 
L 333.842923 85.208753 
L 333.927205 102.538479 
L 334.011487 248.700008 
L 334.180051 93.532322 
L 334.264333 84.722444 
L 334.348615 109.717244 
L 334.432897 261.362568 
L 334.517179 110.639883 
L 334.685743 254.140381 
L 334.770025 247.725503 
L 334.854308 106.618159 
L 334.93859 110.260684 
L 335.022872 248.368838 
L 335.191436 89.344322 
L 335.275718 91.28897 
L 335.612846 108.345475 
L 335.697128 247.234176 
L 335.865692 95.890751 
L 336.034257 263.42756 
L 336.202821 97.71055 
L 336.287103 97.71055 
L 336.455667 108.818233 
L 336.624231 255.201325 
L 336.708513 255.201325 
L 336.877077 103.091985 
L 337.129924 108.868876 
L 337.38277 101.410265 
L 337.467052 101.492555 
L 337.551334 108.586998 
L 337.635616 248.347107 
L 337.80418 100.828531 
L 337.888462 102.518326 
L 337.972744 109.23435 
L 338.057026 247.71943 
L 338.22559 107.665928 
L 338.394155 99.794054 
L 338.478437 107.9939 
L 338.562719 248.855513 
L 338.731283 105.889086 
L 338.815565 110.104671 
L 338.899847 248.244013 
L 339.068411 108.579021 
L 339.236975 107.764376 
L 339.321257 250.384794 
L 339.489822 103.365582 
L 339.574104 103.588693 
L 339.742668 105.057936 
L 339.82695 110.264398 
L 339.995514 103.651246 
L 340.079796 110.519905 
L 340.164078 250.721945 
L 340.332642 103.678654 
L 340.501206 251.916048 
L 340.669771 247.175553 
L 340.838335 256.598861 
L 341.006899 101.854595 
L 341.091181 109.344015 
L 341.259745 254.944645 
L 341.344027 255.996459 
L 341.512591 247.346604 
L 341.681155 108.164167 
L 341.84972 250.043757 
L 341.934002 250.742364 
L 342.018284 250.604991 
L 342.102566 248.170999 
L 342.186848 110.949891 
L 342.355412 252.151745 
L 342.439694 110.649738 
L 342.608258 254.462519 
L 342.776822 250.28176 
L 342.945387 108.94746 
L 343.029669 108.94746 
L 343.113951 251.301358 
L 343.282515 104.489716 
L 343.366797 104.583034 
L 343.451079 106.449801 
L 343.619643 252.485389 
L 343.703925 252.422347 
L 343.788207 251.377924 
L 343.872489 248.589236 
L 343.956771 110.931162 
L 344.041054 261.142357 
L 344.125336 256.769868 
L 344.209618 247.736087 
L 344.378182 103.704599 
L 344.462464 108.611399 
L 344.631028 249.523763 
L 344.71531 249.601783 
L 344.883874 251.382076 
L 345.052438 259.900905 
L 345.13672 259.830051 
L 345.221003 258.019293 
L 345.389567 247.742723 
L 345.473849 247.008771 
L 345.895259 252.227443 
L 346.063823 253.008434 
L 346.232387 248.406624 
L 346.400952 259.495885 
L 346.485234 250.154825 
L 346.653798 263.335871 
L 346.990926 247.696503 
L 347.15949 262.472739 
L 347.328054 251.309221 
L 347.496619 259.402657 
L 347.665183 251.547465 
L 348.002311 257.359112 
L 348.170875 106.902621 
L 348.339439 267.297334 
L 348.676568 248.340915 
L 348.76085 110.724463 
L 348.929414 260.901273 
L 349.097978 250.35576 
L 349.266542 103.248322 
L 349.435106 261.443254 
L 349.60367 255.937936 
L 349.687952 250.122777 
L 349.772234 110.930851 
L 349.856517 247.4986 
L 349.940799 247.052111 
L 350.109363 109.453895 
L 350.277927 109.526601 
L 350.446491 249.595327 
L 350.530773 248.969222 
L 350.699337 105.22166 
L 350.867901 254.90054 
L 350.952184 247.117306 
L 351.036466 105.699313 
L 351.20503 262.005891 
L 351.457876 248.579217 
L 351.542158 247.40506 
L 351.710722 259.026821 
L 351.795004 250.658159 
L 351.963568 109.67184 
L 352.04785 110.30744 
L 352.384979 106.953121 
L 352.553543 249.973275 
L 352.637825 249.973275 
L 352.806389 258.066478 
L 352.974953 250.901333 
L 353.143517 103.517887 
L 353.227799 247.982187 
L 353.396364 104.467881 
L 353.480646 104.633766 
L 353.733492 108.304006 
L 353.902056 252.393194 
L 354.07062 105.810996 
L 354.239184 98.952138 
L 354.323466 108.826893 
L 354.407749 253.806761 
L 354.492031 253.494044 
L 354.660595 250.216277 
L 354.829159 93.110141 
L 354.913441 103.653971 
L 354.997723 247.862591 
L 355.082005 108.390524 
L 355.166287 110.780854 
L 355.334851 250.645794 
L 355.419133 249.990029 
L 355.587698 99.358963 
L 355.67198 110.575121 
L 355.756262 253.79525 
L 355.840544 251.459713 
L 355.924826 248.422693 
L 356.09339 253.611525 
L 356.261954 92.045565 
L 356.5148 110.110091 
L 356.683364 92.42173 
L 356.767647 110.530387 
L 356.851929 257.448701 
L 357.020493 94.200385 
L 357.189057 109.51452 
L 357.357621 98.958355 
L 357.441903 249.173799 
L 357.526185 247.959365 
L 357.610467 104.93632 
L 357.694749 107.478868 
L 357.779031 109.517084 
L 358.11616 101.043722 
L 358.200442 102.150902 
L 358.369006 107.257798 
L 358.53757 99.860426 
L 358.706134 104.374258 
L 358.874698 96.726542 
L 359.043263 106.777961 
L 359.127545 103.348889 
L 359.211827 110.367557 
L 359.296109 249.467062 
L 359.464673 103.337403 
L 359.548955 103.337403 
L 359.633237 97.303775 
L 359.717519 99.013352 
L 359.801801 102.862587 
L 359.970365 96.88829 
L 360.054647 96.953614 
L 360.307494 100.693699 
L 360.644622 108.284081 
L 360.897468 104.228664 
L 360.98175 103.151905 
L 361.150314 109.0439 
L 361.234596 248.03993 
L 361.403161 88.75495 
L 361.740289 110.574582 
L 361.908853 99.178465 
L 361.993135 99.146806 
L 362.077417 108.467401 
L 362.161699 248.802553 
L 362.330263 97.656453 
L 362.414545 106.94456 
L 362.498828 248.390885 
L 362.667392 106.357562 
L 362.751674 106.357562 
L 362.835956 247.885464 
L 363.00452 106.113773 
L 363.173084 252.536069 
L 363.257366 252.536069 
L 363.341648 247.575948 
L 363.510212 105.950293 
L 363.594494 105.523097 
L 363.678777 106.826629 
L 363.847341 247.949703 
L 364.015905 263.076871 
L 364.184469 252.75943 
L 364.353033 108.575821 
L 364.521597 253.668076 
L 364.690161 101.349739 
L 364.774444 97.008584 
L 364.858726 97.066665 
L 364.943008 97.066665 
L 365.02729 106.746901 
L 365.111572 249.71704 
L 365.195854 247.876652 
L 365.364418 253.215003 
L 365.532982 94.811837 
L 365.617264 94.811837 
L 365.701546 105.804499 
L 365.785828 255.138686 
L 365.87011 255.080334 
L 366.038675 102.544952 
L 366.122957 107.643596 
L 366.207239 248.017792 
L 366.291521 247.843777 
L 366.375803 247.484334 
L 366.544367 108.803059 
L 366.628649 107.941829 
L 366.712931 108.216115 
L 366.797213 108.02263 
L 366.881495 108.164986 
L 367.050059 258.328704 
L 367.218624 250.267526 
L 367.387188 98.7396 
L 367.555752 110.951295 
L 367.724316 249.579759 
L 367.808598 249.729674 
L 367.89288 249.251512 
L 368.061444 105.514006 
L 368.230008 252.695599 
L 368.314291 251.836548 
L 368.482855 100.649467 
L 368.651419 273.607633 
L 368.735701 255.551069 
L 368.904265 102.967828 
L 368.988547 103.78756 
L 369.157111 255.196438 
L 369.241393 255.196438 
L 369.409958 250.101717 
L 369.578522 102.971437 
L 369.747086 108.9817 
L 369.91565 254.938652 
L 370.084214 99.913545 
L 370.421342 109.507035 
L 370.589907 256.98678 
L 370.674189 255.963795 
L 370.758471 253.384588 
L 370.842753 100.924146 
L 370.927035 109.406828 
L 371.011317 257.098642 
L 371.095599 254.300983 
L 371.264163 249.137389 
L 371.348445 248.006547 
L 371.517009 257.529027 
L 371.601291 250.995202 
L 371.769856 103.577804 
L 371.854138 101.309072 
L 371.93842 107.785675 
L 372.022702 248.777818 
L 372.191266 108.081774 
L 372.275548 110.483656 
L 372.35983 247.811402 
L 372.528394 99.637601 
L 372.612676 109.634008 
L 372.78124 252.865057 
L 372.865523 252.051384 
L 373.034087 107.128554 
L 373.202651 110.786368 
L 373.455497 101.772237 
L 373.624061 102.384527 
L 373.708343 108.147733 
L 373.792625 247.564219 
L 373.961189 105.436567 
L 374.129754 108.094946 
L 374.298318 101.869834 
L 374.466882 253.103061 
L 374.635446 107.296997 
L 374.719728 248.012771 
L 374.888292 108.511812 
L 375.056856 99.127471 
L 375.309703 110.687985 
L 375.478267 100.756439 
L 375.562549 100.662984 
L 375.646831 102.01964 
L 375.815395 262.572631 
L 375.899677 252.81325 
L 376.068241 105.53019 
L 376.152523 105.53019 
L 376.321088 107.430996 
L 376.40537 101.687031 
L 376.742498 109.013362 
L 376.911062 108.674446 
L 377.163908 105.739071 
L 377.332472 110.284694 
L 377.501037 255.903682 
L 377.669601 100.54881 
L 377.922447 110.345807 
L 378.006729 110.867465 
L 378.175293 99.62504 
L 378.259575 108.285922 
L 378.343857 249.930144 
L 378.512421 108.154173 
L 378.680986 258.65605 
L 378.84955 92.074819 
L 379.018114 260.89276 
L 379.186678 251.565056 
L 379.355242 103.93158 
L 379.439524 108.622284 
L 379.608088 249.874073 
L 379.69237 249.802189 
L 379.776653 247.599342 
L 379.860935 110.276899 
L 380.029499 250.588434 
L 380.198063 249.444677 
L 380.366627 101.76174 
L 380.450909 101.76174 
L 380.535191 107.380074 
L 380.619473 247.478591 
L 380.788037 106.429899 
L 380.956602 259.283023 
L 381.040884 105.720752 
L 381.209448 264.782951 
L 381.29373 264.782951 
L 381.378012 251.258819 
L 381.462294 104.972776 
L 381.546576 106.266491 
L 381.630858 108.71361 
L 381.71514 251.164157 
L 381.883704 104.939166 
L 381.967986 104.939166 
L 382.136551 266.625401 
L 382.305115 251.230171 
L 382.389397 254.03326 
L 382.642243 248.513123 
L 382.726525 249.148281 
L 382.895089 97.403223 
L 383.063653 261.492483 
L 383.147935 247.515111 
L 383.232218 102.305019 
L 383.400782 262.786288 
L 383.485064 251.004449 
L 383.569346 106.921809 
L 383.653628 107.161199 
L 383.73791 109.270301 
L 383.906474 250.355659 
L 384.15932 263.395483 
L 384.243602 263.629741 
L 384.327884 250.409662 
L 384.412167 106.325593 
L 384.580731 267.608252 
L 384.749295 248.894699 
L 384.833577 248.230728 
L 385.002141 258.639581 
L 385.170705 96.458043 
L 385.254987 107.027612 
L 385.423551 255.694758 
L 385.592116 259.220465 
L 385.76068 251.41252 
L 385.929244 104.225735 
L 386.097808 253.227602 
L 386.18209 259.596681 
L 386.266372 252.039264 
L 386.350654 109.473327 
L 386.519218 256.573712 
L 386.687782 262.686624 
L 386.856347 247.980399 
L 387.109193 262.3814 
L 387.193475 250.708531 
L 387.277757 108.236817 
L 387.446321 254.829754 
L 387.614885 268.033062 
L 387.783449 86.234936 
L 387.867732 98.301392 
L 387.952014 247.955697 
L 388.036296 105.644765 
L 388.20486 265.671915 
L 388.289142 271.625882 
L 388.373424 271.117182 
L 388.541988 251.932012 
L 388.710552 255.024739 
L 388.879116 251.577149 
L 388.963398 252.885988 
L 389.047681 247.103618 
L 389.131963 108.879639 
L 389.300527 267.573383 
L 389.469091 254.453888 
L 389.637655 261.962112 
L 389.721937 260.278304 
L 389.806219 248.194835 
L 389.890501 105.770144 
L 390.059065 281.632188 
L 390.143347 260.538107 
L 390.22763 109.071045 
L 390.396194 271.523798 
L 390.64904 251.455563 
L 390.733322 257.178075 
L 390.817604 262.092654 
L 390.901886 249.518018 
L 391.07045 270.14386 
L 391.154732 267.213817 
L 391.407579 256.78418 
L 391.576143 258.632635 
L 391.744707 254.621493 
L 391.913271 259.423191 
L 392.081835 274.060726 
L 392.250399 249.699021 
L 392.334681 249.743736 
L 392.503246 257.852583 
L 392.587528 261.535899 
L 392.756092 274.073138 
L 393.09322 252.49525 
L 393.177502 255.58577 
L 393.346066 267.308831 
L 393.51463 249.95574 
L 393.767477 274.315778 
L 393.851759 250.897317 
L 393.936041 101.41185 
L 394.104605 257.319215 
L 394.273169 269.055834 
L 394.357451 269.42624 
L 394.441733 267.375669 
L 394.610297 256.895035 
L 394.694579 106.643617 
L 394.863144 257.825793 
L 395.031708 261.419136 
L 395.200272 280.964583 
L 395.284554 249.155923 
L 395.368836 93.673553 
L 395.453118 106.752347 
L 395.621682 255.280646 
L 395.705964 255.337846 
L 395.874528 251.795042 
L 395.958811 252.89435 
L 396.127375 96.721634 
L 396.295939 273.81278 
L 396.633067 254.922928 
L 396.717349 257.351398 
L 396.885913 270.108027 
L 397.054477 90.641755 
L 397.13876 105.750716 
L 397.223042 254.830591 
L 397.307324 250.66316 
L 397.475888 107.686491 
L 397.644452 289.940388 
L 397.728734 253.951165 
L 397.813016 101.363783 
L 397.897298 110.400684 
L 398.065862 284.782233 
L 398.234427 249.550009 
L 398.402991 97.083838 
L 398.487273 96.033862 
L 398.487273 96.033862 
" style="fill:none;stroke:#1f77b4;stroke-linecap:square;stroke-width:1.5;"/>
   </g>
   <g id="patch_3">
    <path d="M 57.6 307.584 
L 57.6 41.472 
" style="fill:none;stroke:#000000;stroke-linecap:square;stroke-linejoin:miter;stroke-width:0.8;"/>
   </g>
   <g id="patch_4">
    <path d="M 414.72 307.584 
L 414.72 41.472 
" style="fill:none;stroke:#000000;stroke-linecap:square;stroke-linejoin:miter;stroke-width:0.8;"/>
   </g>
   <g id="patch_5">
    <path d="M 57.6 307.584 
L 414.72 307.584 
" style="fill:none;stroke:#000000;stroke-linecap:square;stroke-linejoin:miter;stroke-width:0.8;"/>
   </g>
   <g id="patch_6">
    <path d="M 57.6 41.472 
L 414.72 41.472 
" style="fill:none;stroke:#000000;stroke-linecap:square;stroke-linejoin:miter;stroke-width:0.8;"/>
   </g>
   <g id="text_15">
    <!-- Motor 7 speed history -->
    <defs>
     <path d="M 9.8125 72.90625 
L 24.515625 72.90625 
L 43.109375 23.296875 
L 61.8125 72.90625 
L 76.515625 72.90625 
L 76.515625 0 
L 66.890625 0 
L 66.890625 64.015625 
L 48.09375 14.015625 
L 38.1875 14.015625 
L 19.390625 64.015625 
L 19.390625 0 
L 9.8125 0 
z
" id="DejaVuSans-4d"/>
     <path d="M 30.609375 48.390625 
Q 23.390625 48.390625 19.1875 42.75 
Q 14.984375 37.109375 14.984375 27.296875 
Q 14.984375 17.484375 19.15625 11.84375 
Q 23.34375 6.203125 30.609375 6.203125 
Q 37.796875 6.203125 41.984375 11.859375 
Q 46.1875 17.53125 46.1875 27.296875 
Q 46.1875 37.015625 41.984375 42.703125 
Q 37.796875 48.390625 30.609375 48.390625 
z
M 30.609375 56 
Q 42.328125 56 49.015625 48.375 
Q 55.71875 40.765625 55.71875 27.296875 
Q 55.71875 13.875 49.015625 6.21875 
Q 42.328125 -1.421875 30.609375 -1.421875 
Q 18.84375 -1.421875 12.171875 6.21875 
Q 5.515625 13.875 5.515625 27.296875 
Q 5.515625 40.765625 12.171875 48.375 
Q 18.84375 56 30.609375 56 
z
" id="DejaVuSans-6f"/>
     <path d="M 18.3125 70.21875 
L 18.3125 54.6875 
L 36.8125 54.6875 
L 36.8125 47.703125 
L 18.3125 47.703125 
L 18.3125 18.015625 
Q 18.3125 11.328125 20.140625 9.421875 
Q 21.96875 7.515625 27.59375 7.515625 
L 36.8125 7.515625 
L 36.8125 0 
L 27.59375 0 
Q 17.1875 0 13.234375 3.875 
Q 9.28125 7.765625 9.28125 18.015625 
L 9.28125 47.703125 
L 2.6875 47.703125 
L 2.6875 54.6875 
L 9.28125 54.6875 
L 9.28125 70.21875 
z
" id="DejaVuSans-74"/>
     <path d="M 41.109375 46.296875 
Q 39.59375 47.171875 37.8125 47.578125 
Q 36.03125 48 33.890625 48 
Q 26.265625 48 22.1875 43.046875 
Q 18.109375 38.09375 18.109375 28.8125 
L 18.109375 0 
L 9.078125 0 
L 9.078125 54.6875 
L 18.109375 54.6875 
L 18.109375 46.1875 
Q 20.953125 51.171875 25.484375 53.578125 
Q 30.03125 56 36.53125 56 
Q 37.453125 56 38.578125 55.875 
Q 39.703125 55.765625 41.0625 55.515625 
z
" id="DejaVuSans-72"/>
     <path id="DejaVuSans-20"/>
     <path d="M 8.203125 72.90625 
L 55.078125 72.90625 
L 55.078125 68.703125 
L 28.609375 0 
L 18.3125 0 
L 43.21875 64.59375 
L 8.203125 64.59375 
z
" id="DejaVuSans-37"/>
     <path d="M 44.28125 53.078125 
L 44.28125 44.578125 
Q 40.484375 46.53125 36.375 47.5 
Q 32.28125 48.484375 27.875 48.484375 
Q 21.1875 48.484375 17.84375 46.4375 
Q 14.5 44.390625 14.5 40.28125 
Q 14.5 37.15625 16.890625 35.375 
Q 19.28125 33.59375 26.515625 31.984375 
L 29.59375 31.296875 
Q 39.15625 29.25 43.1875 25.515625 
Q 47.21875 21.78125 47.21875 15.09375 
Q 47.21875 7.46875 41.1875 3.015625 
Q 35.15625 -1.421875 24.609375 -1.421875 
Q 20.21875 -1.421875 15.453125 -0.5625 
Q 10.6875 0.296875 5.421875 2 
L 5.421875 11.28125 
Q 10.40625 8.6875 15.234375 7.390625 
Q 20.0625 6.109375 24.8125 6.109375 
Q 31.15625 6.109375 34.5625 8.28125 
Q 37.984375 10.453125 37.984375 14.40625 
Q 37.984375 18.0625 35.515625 20.015625 
Q 33.0625 21.96875 24.703125 23.78125 
L 21.578125 24.515625 
Q 13.234375 26.265625 9.515625 29.90625 
Q 5.8125 33.546875 5.8125 39.890625 
Q 5.8125 47.609375 11.28125 51.796875 
Q 16.75 56 26.8125 56 
Q 31.78125 56 36.171875 55.265625 
Q 40.578125 54.546875 44.28125 53.078125 
z
" id="DejaVuSans-73"/>
     <path d="M 18.109375 8.203125 
L 18.109375 -20.796875 
L 9.078125 -20.796875 
L 9.078125 54.6875 
L 18.109375 54.6875 
L 18.109375 46.390625 
Q 20.953125 51.265625 25.265625 53.625 
Q 29.59375 56 35.59375 56 
Q 45.5625 56 51.78125 48.09375 
Q 58.015625 40.1875 58.015625 27.296875 
Q 58.015625 14.40625 51.78125 6.484375 
Q 45.5625 -1.421875 35.59375 -1.421875 
Q 29.59375 -1.421875 25.265625 0.953125 
Q 20.953125 3.328125 18.109375 8.203125 
z
M 48.6875 27.296875 
Q 48.6875 37.203125 44.609375 42.84375 
Q 40.53125 48.484375 33.40625 48.484375 
Q 26.265625 48.484375 22.1875 42.84375 
Q 18.109375 37.203125 18.109375 27.296875 
Q 18.109375 17.390625 22.1875 11.75 
Q 26.265625 6.109375 33.40625 6.109375 
Q 40.53125 6.109375 44.609375 11.75 
Q 48.6875 17.390625 48.6875 27.296875 
z
" id="DejaVuSans-70"/>
     <path d="M 56.203125 29.59375 
L 56.203125 25.203125 
L 14.890625 25.203125 
Q 15.484375 15.921875 20.484375 11.0625 
Q 25.484375 6.203125 34.421875 6.203125 
Q 39.59375 6.203125 44.453125 7.46875 
Q 49.3125 8.734375 54.109375 11.28125 
L 54.109375 2.78125 
Q 49.265625 0.734375 44.1875 -0.34375 
Q 39.109375 -1.421875 33.890625 -1.421875 
Q 20.796875 -1.421875 13.15625 6.1875 
Q 5.515625 13.8125 5.515625 26.8125 
Q 5.515625 40.234375 12.765625 48.109375 
Q 20.015625 56 32.328125 56 
Q 43.359375 56 49.78125 48.890625 
Q 56.203125 41.796875 56.203125 29.59375 
z
M 47.21875 32.234375 
Q 47.125 39.59375 43.09375 43.984375 
Q 39.0625 48.390625 32.421875 48.390625 
Q 24.90625 48.390625 20.390625 44.140625 
Q 15.875 39.890625 15.1875 32.171875 
z
" id="DejaVuSans-65"/>
     <path d="M 45.40625 46.390625 
L 45.40625 75.984375 
L 54.390625 75.984375 
L 54.390625 0 
L 45.40625 0 
L 45.40625 8.203125 
Q 42.578125 3.328125 38.25 0.953125 
Q 33.9375 -1.421875 27.875 -1.421875 
Q 17.96875 -1.421875 11.734375 6.484375 
Q 5.515625 14.40625 5.515625 27.296875 
Q 5.515625 40.1875 11.734375 48.09375 
Q 17.96875 56 27.875 56 
Q 33.9375 56 38.25 53.625 
Q 42.578125 51.265625 45.40625 46.390625 
z
M 14.796875 27.296875 
Q 14.796875 17.390625 18.875 11.75 
Q 22.953125 6.109375 30.078125 6.109375 
Q 37.203125 6.109375 41.296875 11.75 
Q 45.40625 17.390625 45.40625 27.296875 
Q 45.40625 37.203125 41.296875 42.84375 
Q 37.203125 48.484375 30.078125 48.484375 
Q 22.953125 48.484375 18.875 42.84375 
Q 14.796875 37.203125 14.796875 27.296875 
z
" id="DejaVuSans-64"/>
     <path d="M 54.890625 33.015625 
L 54.890625 0 
L 45.90625 0 
L 45.90625 32.71875 
Q 45.90625 40.484375 42.875 44.328125 
Q 39.84375 48.1875 33.796875 48.1875 
Q 26.515625 48.1875 22.3125 43.546875 
Q 18.109375 38.921875 18.109375 30.90625 
L 18.109375 0 
L 9.078125 0 
L 9.078125 75.984375 
L 18.109375 75.984375 
L 18.109375 46.1875 
Q 21.34375 51.125 25.703125 53.5625 
Q 30.078125 56 35.796875 56 
Q 45.21875 56 50.046875 50.171875 
Q 54.890625 44.34375 54.890625 33.015625 
z
" id="DejaVuSans-68"/>
     <path d="M 9.421875 54.6875 
L 18.40625 54.6875 
L 18.40625 0 
L 9.421875 0 
z
M 9.421875 75.984375 
L 18.40625 75.984375 
L 18.40625 64.59375 
L 9.421875 64.59375 
z
" id="DejaVuSans-69"/>
     <path d="M 32.171875 -5.078125 
Q 28.375 -14.84375 24.75 -17.8125 
Q 21.140625 -20.796875 15.09375 -20.796875 
L 7.90625 -20.796875 
L 7.90625 -13.28125 
L 13.1875 -13.28125 
Q 16.890625 -13.28125 18.9375 -11.515625 
Q 21 -9.765625 23.484375 -3.21875 
L 25.09375 0.875 
L 2.984375 54.6875 
L 12.5 54.6875 
L 29.59375 11.921875 
L 46.6875 54.6875 
L 56.203125 54.6875 
z
" id="DejaVuSans-79"/>
    </defs>
    <g transform="translate(170.52 35.472)scale(0.12 -0.12)">
     <use xlink:href="#DejaVuSans-4d"/>
     <use x="86.279297" xlink:href="#DejaVuSans-6f"/>
     <use x="147.460938" xlink:href="#DejaVuSans-74"/>
     <use x="186.669922" xlink:href="#DejaVuSans-6f"/>
     <use x="247.851562" xlink:href="#DejaVuSans-72"/>
     <use x="288.964844" xlink:href="#DejaVuSans-20"/>
     <use x="320.751953" xlink:href="#DejaVuSans-37"/>
     <use x="384.375" xlink:href="#DejaVuSans-20"/>
     <use x="416.162109" xlink:href="#DejaVuSans-73"/>
     <use x="468.261719" xlink:href="#DejaVuSans-70"/>
     <use x="531.738281" xlink:href="#DejaVuSans-65"/>
     <use x="593.261719" xlink:href="#DejaVuSans-65"/>
     <use x="654.785156" xlink:href="#DejaVuSans-64"/>
     <use x="718.261719" xlink:href="#DejaVuSans-20"/>
     <use x="750.048828" xlink:href="#DejaVuSans-68"/>
     <use x="813.427734" xlink:href="#DejaVuSans-69"/>
     <use x="841.210938" xlink:href="#DejaVuSans-73"/>
     <use x="893.310547" xlink:href="#DejaVuSans-74"/>
     <use x="932.519531" xlink:href="#DejaVuSans-6f"/>
     <use x="993.701172" xlink:href="#DejaVuSans-72"/>
     <use x="1034.814453" xlink:href="#DejaVuSans-79"/>
    </g>
   </g>
   <g id="legend_1">
    <g id="patch_7">
     <path d="M 351.452813 64.150125 
L 407.72 64.150125 
Q 409.72 64.150125 409.72 62.150125 
L 409.72 48.472 
Q 409.72 46.472 407.72 46.472 
L 351.452813 46.472 
Q 349.452813 46.472 349.452813 48.472 
L 349.452813 62.150125 
Q 349.452813 64.150125 351.452813 64.150125 
z
" style="fill:#ffffff;opacity:0.8;stroke:#cccccc;stroke-linejoin:miter;"/>
    </g>
    <g id="line2d_16">
     <path d="M 353.452813 54.570438 
L 373.452813 54.570438 
" style="fill:none;stroke:#1f77b4;stroke-linecap:square;stroke-width:1.5;"/>
    </g>
    <g id="line2d_17"/>
    <g id="text_16">
     <!-- pwm -->
     <defs>
      <path d="M 4.203125 54.6875 
L 13.1875 54.6875 
L 24.421875 12.015625 
L 35.59375 54.6875 
L 46.1875 54.6875 
L 57.421875 12.015625 
L 68.609375 54.6875 
L 77.59375 54.6875 
L 63.28125 0 
L 52.6875 0 
L 40.921875 44.828125 
L 29.109375 0 
L 18.5 0 
z
" id="DejaVuSans-77"/>
      <path d="M 52 44.1875 
Q 55.375 50.25 60.0625 53.125 
Q 64.75 56 71.09375 56 
Q 79.640625 56 84.28125 50.015625 
Q 88.921875 44.046875 88.921875 33.015625 
L 88.921875 0 
L 79.890625 0 
L 79.890625 32.71875 
Q 79.890625 40.578125 77.09375 44.375 
Q 74.3125 48.1875 68.609375 48.1875 
Q 61.625 48.1875 57.5625 43.546875 
Q 53.515625 38.921875 53.515625 30.90625 
L 53.515625 0 
L 44.484375 0 
L 44.484375 32.71875 
Q 44.484375 40.625 41.703125 44.40625 
Q 38.921875 48.1875 33.109375 48.1875 
Q 26.21875 48.1875 22.15625 43.53125 
Q 18.109375 38.875 18.109375 30.90625 
L 18.109375 0 
L 9.078125 0 
L 9.078125 54.6875 
L 18.109375 54.6875 
L 18.109375 46.1875 
Q 21.1875 51.21875 25.484375 53.609375 
Q 29.78125 56 35.6875 56 
Q 41.65625 56 45.828125 52.96875 
Q 50 49.953125 52 44.1875 
z
" id="DejaVuSans-6d"/>
     </defs>
     <g transform="translate(381.452813 58.070438)scale(0.1 -0.1)">
      <use xlink:href="#DejaVuSans-70"/>
      <use x="63.476562" xlink:href="#DejaVuSans-77"/>
      <use x="145.263672" xlink:href="#DejaVuSans-6d"/>
     </g>
    </g>
   </g>
  </g>
 </g>
 <defs>
  <clipPath id="pdddb60d16a">
   <rect height="266.112" width="357.12" x="57.6" y="41.472"/>
  </clipPath>
 </defs>
</svg>
