<?xml version="1.0" encoding="utf-8" standalone="no"?>
<!DOCTYPE svg PUBLIC "-//W3C//DTD SVG 1.1//EN"
  "http://www.w3.org/Graphics/SVG/1.1/DTD/svg11.dtd">
<!-- Created with matplotlib (http://matplotlib.org/) -->
<svg height="345pt" version="1.1" viewBox="0 0 460 345" width="460pt" xmlns="http://www.w3.org/2000/svg" xmlns:xlink="http://www.w3.org/1999/xlink">
 <defs>
  <style type="text/css">
*{stroke-linecap:butt;stroke-linejoin:round;}
  </style>
 </defs>
 <g id="figure_1">
  <g id="patch_1">
   <path d="M 0 345.6 
L 460.8 345.6 
L 460.8 0 
L 0 0 
z
" style="fill:#ffffff;"/>
  </g>
  <g id="axes_1">
   <g id="patch_2">
    <path d="M 57.6 307.584 
L 414.72 307.584 
L 414.72 41.472 
L 57.6 41.472 
z
" style="fill:#ffffff;"/>
   </g>
   <g id="matplotlib.axis_1">
    <g id="xtick_1">
     <g id="line2d_1">
      <defs>
       <path d="M 0 0 
L 0 3.5 
" id="mcd5ec9e4f1" style="stroke:#000000;stroke-width:0.8;"/>
      </defs>
      <g>
       <use style="stroke:#000000;stroke-width:0.8;" x="73.832727" xlink:href="#mcd5ec9e4f1" y="307.584"/>
      </g>
     </g>
     <g id="text_1">
      <!-- 0 -->
      <defs>
       <path d="M 31.78125 66.40625 
Q 24.171875 66.40625 20.328125 58.90625 
Q 16.5 51.421875 16.5 36.375 
Q 16.5 21.390625 20.328125 13.890625 
Q 24.171875 6.390625 31.78125 6.390625 
Q 39.453125 6.390625 43.28125 13.890625 
Q 47.125 21.390625 47.125 36.375 
Q 47.125 51.421875 43.28125 58.90625 
Q 39.453125 66.40625 31.78125 66.40625 
z
M 31.78125 74.21875 
Q 44.046875 74.21875 50.515625 64.515625 
Q 56.984375 54.828125 56.984375 36.375 
Q 56.984375 17.96875 50.515625 8.265625 
Q 44.046875 -1.421875 31.78125 -1.421875 
Q 19.53125 -1.421875 13.0625 8.265625 
Q 6.59375 17.96875 6.59375 36.375 
Q 6.59375 54.828125 13.0625 64.515625 
Q 19.53125 74.21875 31.78125 74.21875 
z
" id="DejaVuSans-30"/>
      </defs>
      <g transform="translate(70.651477 322.182437)scale(0.1 -0.1)">
       <use xlink:href="#DejaVuSans-30"/>
      </g>
     </g>
    </g>
    <g id="xtick_2">
     <g id="line2d_2">
      <g>
       <use style="stroke:#000000;stroke-width:0.8;" x="115.973764" xlink:href="#mcd5ec9e4f1" y="307.584"/>
      </g>
     </g>
     <g id="text_2">
      <!-- 500 -->
      <defs>
       <path d="M 10.796875 72.90625 
L 49.515625 72.90625 
L 49.515625 64.59375 
L 19.828125 64.59375 
L 19.828125 46.734375 
Q 21.96875 47.46875 24.109375 47.828125 
Q 26.265625 48.1875 28.421875 48.1875 
Q 40.625 48.1875 47.75 41.5 
Q 54.890625 34.8125 54.890625 23.390625 
Q 54.890625 11.625 47.5625 5.09375 
Q 40.234375 -1.421875 26.90625 -1.421875 
Q 22.3125 -1.421875 17.546875 -0.640625 
Q 12.796875 0.140625 7.71875 1.703125 
L 7.71875 11.625 
Q 12.109375 9.234375 16.796875 8.0625 
Q 21.484375 6.890625 26.703125 6.890625 
Q 35.15625 6.890625 40.078125 11.328125 
Q 45.015625 15.765625 45.015625 23.390625 
Q 45.015625 31 40.078125 35.4375 
Q 35.15625 39.890625 26.703125 39.890625 
Q 22.75 39.890625 18.8125 39.015625 
Q 14.890625 38.140625 10.796875 36.28125 
z
" id="DejaVuSans-35"/>
      </defs>
      <g transform="translate(106.430014 322.182437)scale(0.1 -0.1)">
       <use xlink:href="#DejaVuSans-35"/>
       <use x="63.623047" xlink:href="#DejaVuSans-30"/>
       <use x="127.246094" xlink:href="#DejaVuSans-30"/>
      </g>
     </g>
    </g>
    <g id="xtick_3">
     <g id="line2d_3">
      <g>
       <use style="stroke:#000000;stroke-width:0.8;" x="158.1148" xlink:href="#mcd5ec9e4f1" y="307.584"/>
      </g>
     </g>
     <g id="text_3">
      <!-- 1000 -->
      <defs>
       <path d="M 12.40625 8.296875 
L 28.515625 8.296875 
L 28.515625 63.921875 
L 10.984375 60.40625 
L 10.984375 69.390625 
L 28.421875 72.90625 
L 38.28125 72.90625 
L 38.28125 8.296875 
L 54.390625 8.296875 
L 54.390625 0 
L 12.40625 0 
z
" id="DejaVuSans-31"/>
      </defs>
      <g transform="translate(145.3898 322.182437)scale(0.1 -0.1)">
       <use xlink:href="#DejaVuSans-31"/>
       <use x="63.623047" xlink:href="#DejaVuSans-30"/>
       <use x="127.246094" xlink:href="#DejaVuSans-30"/>
       <use x="190.869141" xlink:href="#DejaVuSans-30"/>
      </g>
     </g>
    </g>
    <g id="xtick_4">
     <g id="line2d_4">
      <g>
       <use style="stroke:#000000;stroke-width:0.8;" x="200.255837" xlink:href="#mcd5ec9e4f1" y="307.584"/>
      </g>
     </g>
     <g id="text_4">
      <!-- 1500 -->
      <g transform="translate(187.530837 322.182437)scale(0.1 -0.1)">
       <use xlink:href="#DejaVuSans-31"/>
       <use x="63.623047" xlink:href="#DejaVuSans-35"/>
       <use x="127.246094" xlink:href="#DejaVuSans-30"/>
       <use x="190.869141" xlink:href="#DejaVuSans-30"/>
      </g>
     </g>
    </g>
    <g id="xtick_5">
     <g id="line2d_5">
      <g>
       <use style="stroke:#000000;stroke-width:0.8;" x="242.396873" xlink:href="#mcd5ec9e4f1" y="307.584"/>
      </g>
     </g>
     <g id="text_5">
      <!-- 2000 -->
      <defs>
       <path d="M 19.1875 8.296875 
L 53.609375 8.296875 
L 53.609375 0 
L 7.328125 0 
L 7.328125 8.296875 
Q 12.9375 14.109375 22.625 23.890625 
Q 32.328125 33.6875 34.8125 36.53125 
Q 39.546875 41.84375 41.421875 45.53125 
Q 43.3125 49.21875 43.3125 52.78125 
Q 43.3125 58.59375 39.234375 62.25 
Q 35.15625 65.921875 28.609375 65.921875 
Q 23.96875 65.921875 18.8125 64.3125 
Q 13.671875 62.703125 7.8125 59.421875 
L 7.8125 69.390625 
Q 13.765625 71.78125 18.9375 73 
Q 24.125 74.21875 28.421875 74.21875 
Q 39.75 74.21875 46.484375 68.546875 
Q 53.21875 62.890625 53.21875 53.421875 
Q 53.21875 48.921875 51.53125 44.890625 
Q 49.859375 40.875 45.40625 35.40625 
Q 44.1875 33.984375 37.640625 27.21875 
Q 31.109375 20.453125 19.1875 8.296875 
z
" id="DejaVuSans-32"/>
      </defs>
      <g transform="translate(229.671873 322.182437)scale(0.1 -0.1)">
       <use xlink:href="#DejaVuSans-32"/>
       <use x="63.623047" xlink:href="#DejaVuSans-30"/>
       <use x="127.246094" xlink:href="#DejaVuSans-30"/>
       <use x="190.869141" xlink:href="#DejaVuSans-30"/>
      </g>
     </g>
    </g>
    <g id="xtick_6">
     <g id="line2d_6">
      <g>
       <use style="stroke:#000000;stroke-width:0.8;" x="284.53791" xlink:href="#mcd5ec9e4f1" y="307.584"/>
      </g>
     </g>
     <g id="text_6">
      <!-- 2500 -->
      <g transform="translate(271.81291 322.182437)scale(0.1 -0.1)">
       <use xlink:href="#DejaVuSans-32"/>
       <use x="63.623047" xlink:href="#DejaVuSans-35"/>
       <use x="127.246094" xlink:href="#DejaVuSans-30"/>
       <use x="190.869141" xlink:href="#DejaVuSans-30"/>
      </g>
     </g>
    </g>
    <g id="xtick_7">
     <g id="line2d_7">
      <g>
       <use style="stroke:#000000;stroke-width:0.8;" x="326.678946" xlink:href="#mcd5ec9e4f1" y="307.584"/>
      </g>
     </g>
     <g id="text_7">
      <!-- 3000 -->
      <defs>
       <path d="M 40.578125 39.3125 
Q 47.65625 37.796875 51.625 33 
Q 55.609375 28.21875 55.609375 21.1875 
Q 55.609375 10.40625 48.1875 4.484375 
Q 40.765625 -1.421875 27.09375 -1.421875 
Q 22.515625 -1.421875 17.65625 -0.515625 
Q 12.796875 0.390625 7.625 2.203125 
L 7.625 11.71875 
Q 11.71875 9.328125 16.59375 8.109375 
Q 21.484375 6.890625 26.8125 6.890625 
Q 36.078125 6.890625 40.9375 10.546875 
Q 45.796875 14.203125 45.796875 21.1875 
Q 45.796875 27.640625 41.28125 31.265625 
Q 36.765625 34.90625 28.71875 34.90625 
L 20.21875 34.90625 
L 20.21875 43.015625 
L 29.109375 43.015625 
Q 36.375 43.015625 40.234375 45.921875 
Q 44.09375 48.828125 44.09375 54.296875 
Q 44.09375 59.90625 40.109375 62.90625 
Q 36.140625 65.921875 28.71875 65.921875 
Q 24.65625 65.921875 20.015625 65.03125 
Q 15.375 64.15625 9.8125 62.3125 
L 9.8125 71.09375 
Q 15.4375 72.65625 20.34375 73.4375 
Q 25.25 74.21875 29.59375 74.21875 
Q 40.828125 74.21875 47.359375 69.109375 
Q 53.90625 64.015625 53.90625 55.328125 
Q 53.90625 49.265625 50.4375 45.09375 
Q 46.96875 40.921875 40.578125 39.3125 
z
" id="DejaVuSans-33"/>
      </defs>
      <g transform="translate(313.953946 322.182437)scale(0.1 -0.1)">
       <use xlink:href="#DejaVuSans-33"/>
       <use x="63.623047" xlink:href="#DejaVuSans-30"/>
       <use x="127.246094" xlink:href="#DejaVuSans-30"/>
       <use x="190.869141" xlink:href="#DejaVuSans-30"/>
      </g>
     </g>
    </g>
    <g id="xtick_8">
     <g id="line2d_8">
      <g>
       <use style="stroke:#000000;stroke-width:0.8;" x="368.819983" xlink:href="#mcd5ec9e4f1" y="307.584"/>
      </g>
     </g>
     <g id="text_8">
      <!-- 3500 -->
      <g transform="translate(356.094983 322.182437)scale(0.1 -0.1)">
       <use xlink:href="#DejaVuSans-33"/>
       <use x="63.623047" xlink:href="#DejaVuSans-35"/>
       <use x="127.246094" xlink:href="#DejaVuSans-30"/>
       <use x="190.869141" xlink:href="#DejaVuSans-30"/>
      </g>
     </g>
    </g>
    <g id="xtick_9">
     <g id="line2d_9">
      <g>
       <use style="stroke:#000000;stroke-width:0.8;" x="410.96102" xlink:href="#mcd5ec9e4f1" y="307.584"/>
      </g>
     </g>
     <g id="text_9">
      <!-- 4000 -->
      <defs>
       <path d="M 37.796875 64.3125 
L 12.890625 25.390625 
L 37.796875 25.390625 
z
M 35.203125 72.90625 
L 47.609375 72.90625 
L 47.609375 25.390625 
L 58.015625 25.390625 
L 58.015625 17.1875 
L 47.609375 17.1875 
L 47.609375 0 
L 37.796875 0 
L 37.796875 17.1875 
L 4.890625 17.1875 
L 4.890625 26.703125 
z
" id="DejaVuSans-34"/>
      </defs>
      <g transform="translate(398.23602 322.182437)scale(0.1 -0.1)">
       <use xlink:href="#DejaVuSans-34"/>
       <use x="63.623047" xlink:href="#DejaVuSans-30"/>
       <use x="127.246094" xlink:href="#DejaVuSans-30"/>
       <use x="190.869141" xlink:href="#DejaVuSans-30"/>
      </g>
     </g>
    </g>
   </g>
   <g id="matplotlib.axis_2">
    <g id="ytick_1">
     <g id="line2d_10">
      <defs>
       <path d="M 0 0 
L -3.5 0 
" id="mb5197817f7" style="stroke:#000000;stroke-width:0.8;"/>
      </defs>
      <g>
       <use style="stroke:#000000;stroke-width:0.8;" x="57.6" xlink:href="#mb5197817f7" y="281.121528"/>
      </g>
     </g>
     <g id="text_10">
      <!-- 1460 -->
      <defs>
       <path d="M 33.015625 40.375 
Q 26.375 40.375 22.484375 35.828125 
Q 18.609375 31.296875 18.609375 23.390625 
Q 18.609375 15.53125 22.484375 10.953125 
Q 26.375 6.390625 33.015625 6.390625 
Q 39.65625 6.390625 43.53125 10.953125 
Q 47.40625 15.53125 47.40625 23.390625 
Q 47.40625 31.296875 43.53125 35.828125 
Q 39.65625 40.375 33.015625 40.375 
z
M 52.59375 71.296875 
L 52.59375 62.3125 
Q 48.875 64.0625 45.09375 64.984375 
Q 41.3125 65.921875 37.59375 65.921875 
Q 27.828125 65.921875 22.671875 59.328125 
Q 17.53125 52.734375 16.796875 39.40625 
Q 19.671875 43.65625 24.015625 45.921875 
Q 28.375 48.1875 33.59375 48.1875 
Q 44.578125 48.1875 50.953125 41.515625 
Q 57.328125 34.859375 57.328125 23.390625 
Q 57.328125 12.15625 50.6875 5.359375 
Q 44.046875 -1.421875 33.015625 -1.421875 
Q 20.359375 -1.421875 13.671875 8.265625 
Q 6.984375 17.96875 6.984375 36.375 
Q 6.984375 53.65625 15.1875 63.9375 
Q 23.390625 74.21875 37.203125 74.21875 
Q 40.921875 74.21875 44.703125 73.484375 
Q 48.484375 72.75 52.59375 71.296875 
z
" id="DejaVuSans-36"/>
      </defs>
      <g transform="translate(25.15 284.920747)scale(0.1 -0.1)">
       <use xlink:href="#DejaVuSans-31"/>
       <use x="63.623047" xlink:href="#DejaVuSans-34"/>
       <use x="127.246094" xlink:href="#DejaVuSans-36"/>
       <use x="190.869141" xlink:href="#DejaVuSans-30"/>
      </g>
     </g>
    </g>
    <g id="ytick_2">
     <g id="line2d_11">
      <g>
       <use style="stroke:#000000;stroke-width:0.8;" x="57.6" xlink:href="#mb5197817f7" y="249.829005"/>
      </g>
     </g>
     <g id="text_11">
      <!-- 1470 -->
      <defs>
       <path d="M 8.203125 72.90625 
L 55.078125 72.90625 
L 55.078125 68.703125 
L 28.609375 0 
L 18.3125 0 
L 43.21875 64.59375 
L 8.203125 64.59375 
z
" id="DejaVuSans-37"/>
      </defs>
      <g transform="translate(25.15 253.628223)scale(0.1 -0.1)">
       <use xlink:href="#DejaVuSans-31"/>
       <use x="63.623047" xlink:href="#DejaVuSans-34"/>
       <use x="127.246094" xlink:href="#DejaVuSans-37"/>
       <use x="190.869141" xlink:href="#DejaVuSans-30"/>
      </g>
     </g>
    </g>
    <g id="ytick_3">
     <g id="line2d_12">
      <g>
       <use style="stroke:#000000;stroke-width:0.8;" x="57.6" xlink:href="#mb5197817f7" y="218.536481"/>
      </g>
     </g>
     <g id="text_12">
      <!-- 1480 -->
      <defs>
       <path d="M 31.78125 34.625 
Q 24.75 34.625 20.71875 30.859375 
Q 16.703125 27.09375 16.703125 20.515625 
Q 16.703125 13.921875 20.71875 10.15625 
Q 24.75 6.390625 31.78125 6.390625 
Q 38.8125 6.390625 42.859375 10.171875 
Q 46.921875 13.96875 46.921875 20.515625 
Q 46.921875 27.09375 42.890625 30.859375 
Q 38.875 34.625 31.78125 34.625 
z
M 21.921875 38.8125 
Q 15.578125 40.375 12.03125 44.71875 
Q 8.5 49.078125 8.5 55.328125 
Q 8.5 64.0625 14.71875 69.140625 
Q 20.953125 74.21875 31.78125 74.21875 
Q 42.671875 74.21875 48.875 69.140625 
Q 55.078125 64.0625 55.078125 55.328125 
Q 55.078125 49.078125 51.53125 44.71875 
Q 48 40.375 41.703125 38.8125 
Q 48.828125 37.15625 52.796875 32.3125 
Q 56.78125 27.484375 56.78125 20.515625 
Q 56.78125 9.90625 50.3125 4.234375 
Q 43.84375 -1.421875 31.78125 -1.421875 
Q 19.734375 -1.421875 13.25 4.234375 
Q 6.78125 9.90625 6.78125 20.515625 
Q 6.78125 27.484375 10.78125 32.3125 
Q 14.796875 37.15625 21.921875 38.8125 
z
M 18.3125 54.390625 
Q 18.3125 48.734375 21.84375 45.5625 
Q 25.390625 42.390625 31.78125 42.390625 
Q 38.140625 42.390625 41.71875 45.5625 
Q 45.3125 48.734375 45.3125 54.390625 
Q 45.3125 60.0625 41.71875 63.234375 
Q 38.140625 66.40625 31.78125 66.40625 
Q 25.390625 66.40625 21.84375 63.234375 
Q 18.3125 60.0625 18.3125 54.390625 
z
" id="DejaVuSans-38"/>
      </defs>
      <g transform="translate(25.15 222.3357)scale(0.1 -0.1)">
       <use xlink:href="#DejaVuSans-31"/>
       <use x="63.623047" xlink:href="#DejaVuSans-34"/>
       <use x="127.246094" xlink:href="#DejaVuSans-38"/>
       <use x="190.869141" xlink:href="#DejaVuSans-30"/>
      </g>
     </g>
    </g>
    <g id="ytick_4">
     <g id="line2d_13">
      <g>
       <use style="stroke:#000000;stroke-width:0.8;" x="57.6" xlink:href="#mb5197817f7" y="187.243958"/>
      </g>
     </g>
     <g id="text_13">
      <!-- 1490 -->
      <defs>
       <path d="M 10.984375 1.515625 
L 10.984375 10.5 
Q 14.703125 8.734375 18.5 7.8125 
Q 22.3125 6.890625 25.984375 6.890625 
Q 35.75 6.890625 40.890625 13.453125 
Q 46.046875 20.015625 46.78125 33.40625 
Q 43.953125 29.203125 39.59375 26.953125 
Q 35.25 24.703125 29.984375 24.703125 
Q 19.046875 24.703125 12.671875 31.3125 
Q 6.296875 37.9375 6.296875 49.421875 
Q 6.296875 60.640625 12.9375 67.421875 
Q 19.578125 74.21875 30.609375 74.21875 
Q 43.265625 74.21875 49.921875 64.515625 
Q 56.59375 54.828125 56.59375 36.375 
Q 56.59375 19.140625 48.40625 8.859375 
Q 40.234375 -1.421875 26.421875 -1.421875 
Q 22.703125 -1.421875 18.890625 -0.6875 
Q 15.09375 0.046875 10.984375 1.515625 
z
M 30.609375 32.421875 
Q 37.25 32.421875 41.125 36.953125 
Q 45.015625 41.5 45.015625 49.421875 
Q 45.015625 57.28125 41.125 61.84375 
Q 37.25 66.40625 30.609375 66.40625 
Q 23.96875 66.40625 20.09375 61.84375 
Q 16.21875 57.28125 16.21875 49.421875 
Q 16.21875 41.5 20.09375 36.953125 
Q 23.96875 32.421875 30.609375 32.421875 
z
" id="DejaVuSans-39"/>
      </defs>
      <g transform="translate(25.15 191.043176)scale(0.1 -0.1)">
       <use xlink:href="#DejaVuSans-31"/>
       <use x="63.623047" xlink:href="#DejaVuSans-34"/>
       <use x="127.246094" xlink:href="#DejaVuSans-39"/>
       <use x="190.869141" xlink:href="#DejaVuSans-30"/>
      </g>
     </g>
    </g>
    <g id="ytick_5">
     <g id="line2d_14">
      <g>
       <use style="stroke:#000000;stroke-width:0.8;" x="57.6" xlink:href="#mb5197817f7" y="155.951434"/>
      </g>
     </g>
     <g id="text_14">
      <!-- 1500 -->
      <g transform="translate(25.15 159.750653)scale(0.1 -0.1)">
       <use xlink:href="#DejaVuSans-31"/>
       <use x="63.623047" xlink:href="#DejaVuSans-35"/>
       <use x="127.246094" xlink:href="#DejaVuSans-30"/>
       <use x="190.869141" xlink:href="#DejaVuSans-30"/>
      </g>
     </g>
    </g>
    <g id="ytick_6">
     <g id="line2d_15">
      <g>
       <use style="stroke:#000000;stroke-width:0.8;" x="57.6" xlink:href="#mb5197817f7" y="124.658911"/>
      </g>
     </g>
     <g id="text_15">
      <!-- 1510 -->
      <g transform="translate(25.15 128.458129)scale(0.1 -0.1)">
       <use xlink:href="#DejaVuSans-31"/>
       <use x="63.623047" xlink:href="#DejaVuSans-35"/>
       <use x="127.246094" xlink:href="#DejaVuSans-31"/>
       <use x="190.869141" xlink:href="#DejaVuSans-30"/>
      </g>
     </g>
    </g>
    <g id="ytick_7">
     <g id="line2d_16">
      <g>
       <use style="stroke:#000000;stroke-width:0.8;" x="57.6" xlink:href="#mb5197817f7" y="93.366387"/>
      </g>
     </g>
     <g id="text_16">
      <!-- 1520 -->
      <g transform="translate(25.15 97.165606)scale(0.1 -0.1)">
       <use xlink:href="#DejaVuSans-31"/>
       <use x="63.623047" xlink:href="#DejaVuSans-35"/>
       <use x="127.246094" xlink:href="#DejaVuSans-32"/>
       <use x="190.869141" xlink:href="#DejaVuSans-30"/>
      </g>
     </g>
    </g>
    <g id="ytick_8">
     <g id="line2d_17">
      <g>
       <use style="stroke:#000000;stroke-width:0.8;" x="57.6" xlink:href="#mb5197817f7" y="62.073864"/>
      </g>
     </g>
     <g id="text_17">
      <!-- 1530 -->
      <g transform="translate(25.15 65.873082)scale(0.1 -0.1)">
       <use xlink:href="#DejaVuSans-31"/>
       <use x="63.623047" xlink:href="#DejaVuSans-35"/>
       <use x="127.246094" xlink:href="#DejaVuSans-33"/>
       <use x="190.869141" xlink:href="#DejaVuSans-30"/>
      </g>
     </g>
    </g>
   </g>
   <g id="line2d_18">
    <path clip-path="url(#p1845af37d0)" d="M 73.832727 252.071464 
L 74.085573 260.347091 
L 74.254138 250.961062 
L 74.33842 250.760125 
L 74.422702 92.840348 
L 74.506984 93.260144 
L 74.675548 88.614069 
L 74.844112 85.961793 
L 75.012676 82.738727 
L 75.096958 80.847816 
L 75.18124 81.976619 
L 75.265523 80.018632 
L 75.518369 84.250716 
L 75.686933 91.944585 
L 75.855497 253.270231 
L 76.024061 256.766169 
L 76.192625 251.33287 
L 76.276907 93.146486 
L 76.361189 93.178402 
L 76.529754 87.482245 
L 76.614036 87.821665 
L 76.7826 84.823936 
L 76.866882 84.798385 
L 76.951164 85.753654 
L 77.035446 87.98016 
L 77.119728 87.479846 
L 77.20401 85.898401 
L 77.288292 86.400064 
L 77.372574 90.100328 
L 77.456856 86.585839 
L 77.541138 86.87199 
L 77.793985 91.554766 
L 77.878267 90.852702 
L 77.962549 91.718356 
L 78.046831 87.038977 
L 78.131113 87.106758 
L 78.299677 93.131765 
L 78.468241 259.707473 
L 78.552523 262.839275 
L 78.636805 261.344354 
L 78.80537 264.387019 
L 79.142498 258.884125 
L 79.22678 256.377823 
L 79.311062 257.479628 
L 79.395344 252.305692 
L 79.563908 86.07146 
L 79.64819 84.076503 
L 79.732472 87.774662 
L 79.816754 86.883728 
L 79.901037 84.967759 
L 79.985319 85.388534 
L 80.069601 86.45686 
L 80.153883 86.167357 
L 80.238165 85.054017 
L 80.322447 92.01997 
L 80.406729 252.328639 
L 80.491011 252.196611 
L 80.743857 259.163045 
L 80.828139 260.065505 
L 80.996703 257.465736 
L 81.080986 257.928653 
L 81.165268 264.712476 
L 81.24955 264.022327 
L 81.418114 255.0142 
L 81.502396 92.87288 
L 81.586678 252.405172 
L 81.67096 91.667821 
L 81.755242 92.883838 
L 82.008088 83.244686 
L 82.345217 91.436214 
L 82.513781 254.347976 
L 82.682345 263.56346 
L 82.766627 262.934581 
L 82.850909 264.213645 
L 82.935191 269.040273 
L 83.019473 266.948241 
L 83.188037 259.083244 
L 83.272319 257.591065 
L 83.440884 250.230078 
L 83.609448 90.9665 
L 83.946576 84.505514 
L 84.199422 91.937535 
L 84.283704 92.977134 
L 84.367986 92.327746 
L 84.536551 255.030123 
L 84.620833 252.676662 
L 85.042243 267.819431 
L 85.126525 266.646636 
L 85.463653 256.643057 
L 85.547935 253.944508 
L 85.632218 254.391158 
L 85.7165 93.328918 
L 85.800782 250.945626 
L 85.969346 88.511603 
L 86.13791 84.296596 
L 86.222192 86.975927 
L 86.306474 86.213514 
L 86.390756 81.337784 
L 86.727884 91.984666 
L 86.896449 255.622833 
L 87.149295 263.901326 
L 87.317859 266.815924 
L 87.402141 265.955899 
L 87.570705 258.269819 
L 87.654987 258.531469 
L 87.739269 256.707258 
L 87.823551 260.108031 
L 87.907833 259.41109 
L 87.992116 258.150937 
L 88.076398 258.215218 
L 88.16068 259.183858 
L 88.329244 257.845763 
L 88.413526 256.217702 
L 88.497808 252.127699 
L 88.666372 88.854816 
L 88.834936 81.016482 
L 88.919218 82.78617 
L 89.087782 82.089171 
L 89.256347 87.047792 
L 89.340629 86.810639 
L 89.424911 92.827953 
L 89.593475 256.719017 
L 89.677757 255.620866 
L 89.762039 258.025803 
L 89.930603 266.661331 
L 90.014885 262.140005 
L 90.099167 263.594421 
L 90.267732 259.418959 
L 90.352014 259.908699 
L 90.436296 259.297724 
L 90.520578 262.92584 
L 90.60486 262.875579 
L 90.773424 265.284742 
L 90.941988 263.484915 
L 91.02627 262.849677 
L 91.110552 260.978199 
L 91.363398 251.270952 
L 91.531963 87.97157 
L 91.616245 85.39022 
L 91.784809 75.566212 
L 91.869091 78.003023 
L 92.459065 64.54951 
L 92.62763 57.242525 
L 92.796194 64.126476 
L 92.880476 62.744237 
L 93.301886 91.470842 
L 93.47045 258.292806 
L 93.554732 255.426837 
L 93.639014 258.07176 
L 93.723297 269.495575 
L 93.807579 268.325242 
L 94.060425 253.197624 
L 94.144707 254.223329 
L 94.313271 87.673736 
L 94.397553 84.069554 
L 94.481835 85.38599 
L 94.566117 82.809279 
L 94.734681 71.103681 
L 94.987528 84.284452 
L 95.156092 262.121212 
L 95.324656 267.612573 
L 95.49322 257.649358 
L 95.661784 262.240742 
L 95.746066 261.359207 
L 95.830348 260.203289 
L 95.91463 255.826398 
L 96.083195 81.625298 
L 96.588887 66.829703 
L 96.673169 66.458313 
L 97.094579 84.890591 
L 97.263144 256.484729 
L 97.768836 273.9171 
L 98.190246 255.728896 
L 98.358811 88.60152 
L 98.443093 92.886336 
L 98.695939 82.420408 
L 98.780221 89.187811 
L 98.864503 88.672347 
L 98.948785 75.429461 
L 99.117349 91.876301 
L 99.201631 92.655632 
L 99.285913 91.531504 
L 99.370195 93.335435 
L 99.454477 250.277666 
L 99.53876 250.143186 
L 99.707324 85.472122 
L 99.791606 93.138185 
L 99.875888 92.082431 
L 100.044452 72.770963 
L 100.128734 77.130063 
L 100.38158 66.872193 
L 100.550144 68.830176 
L 100.634427 71.936209 
L 100.887273 88.272951 
L 100.971555 92.464668 
L 101.140119 256.796347 
L 101.224401 258.173261 
L 101.477247 252.724234 
L 101.730093 262.653021 
L 101.814376 262.654306 
L 101.898658 271.065259 
L 101.98294 268.474669 
L 102.151504 258.080003 
L 102.235786 259.739971 
L 102.320068 257.462283 
L 102.40435 263.456948 
L 102.488632 254.267793 
L 102.657196 84.785182 
L 102.741478 81.123425 
L 102.82576 85.860116 
L 102.910042 82.930633 
L 102.994325 75.263525 
L 103.247171 86.264933 
L 103.331453 87.533717 
L 103.415735 90.888729 
L 103.584299 256.477449 
L 103.752863 264.534191 
L 103.837145 262.608227 
L 104.005709 264.634979 
L 104.089992 262.42675 
L 104.174274 263.152203 
L 104.342838 257.578885 
L 104.511402 253.209342 
L 104.595684 260.534551 
L 104.679966 260.512573 
L 104.764248 256.078006 
L 104.84853 256.451459 
L 104.932812 256.511503 
L 105.269941 250.399083 
L 105.354223 258.436153 
L 105.438505 257.613303 
L 105.607069 252.287168 
L 105.691351 90.661975 
L 105.775633 91.081191 
L 105.859915 88.987976 
L 105.944197 89.113364 
L 106.028479 88.745032 
L 106.112761 83.599159 
L 106.281325 91.459934 
L 106.44989 252.812599 
L 106.534172 89.036108 
L 106.702736 253.138439 
L 106.955582 269.888468 
L 107.124146 262.913434 
L 107.208428 265.486978 
L 107.29271 263.211517 
L 107.461274 254.038241 
L 107.545556 263.088527 
L 107.629839 263.069043 
L 107.798403 255.222564 
L 107.882685 255.478894 
L 107.966967 258.0531 
L 108.051249 258.041028 
L 108.219813 256.943121 
L 108.472659 264.304125 
L 108.556941 260.770425 
L 108.641223 260.978135 
L 108.725506 260.266609 
L 108.809788 260.417659 
L 109.146916 269.413999 
L 109.399762 261.512281 
L 109.484044 263.276911 
L 109.821172 250.670082 
L 109.905455 91.611392 
L 109.989737 251.979476 
L 110.074019 251.389194 
L 110.158301 86.142272 
L 110.242583 88.198409 
L 110.326865 92.592306 
L 110.495429 252.061212 
L 110.916839 260.822317 
L 111.085404 250.233414 
L 111.169686 255.5451 
L 111.253968 252.579372 
L 111.422532 89.377207 
L 111.506814 89.521141 
L 111.591096 88.637869 
L 111.75966 93.004501 
L 111.843942 88.198905 
L 112.012506 91.402029 
L 112.181071 253.748906 
L 112.686763 274.266565 
L 112.855327 284.173509 
L 112.939609 282.369362 
L 113.023891 284.558675 
L 113.108173 282.272622 
L 113.36102 270.124626 
L 113.445302 269.488992 
L 113.613866 264.57239 
L 113.866712 257.818274 
L 113.950994 256.768878 
L 114.119558 253.524321 
L 114.288122 257.508773 
L 114.372404 263.291667 
L 114.456686 260.895297 
L 114.540969 261.768446 
L 114.625251 263.972315 
L 114.709533 263.849642 
L 114.793815 260.52864 
L 114.878097 260.679112 
L 114.962379 265.120669 
L 115.046661 264.830743 
L 115.130943 263.969465 
L 115.468071 250.554683 
L 115.636636 91.998998 
L 115.720918 90.5074 
L 115.889482 82.373148 
L 116.058046 88.060663 
L 116.142328 88.308509 
L 116.310892 259.245879 
L 116.395174 262.622691 
L 116.479456 257.569837 
L 116.64802 259.693409 
L 116.816585 257.818731 
L 116.900867 261.864077 
L 116.985149 260.843917 
L 117.069431 257.505519 
L 117.237995 82.860429 
L 117.575123 63.07902 
L 117.659405 62.653204 
L 117.743687 59.668178 
L 117.827969 59.976378 
L 117.912251 59.820298 
L 118.080816 61.560399 
L 118.502226 83.108714 
L 118.586508 81.335786 
L 118.755072 88.531219 
L 118.839354 84.821568 
L 119.176483 92.652635 
L 119.345047 85.851281 
L 119.429329 87.267385 
L 119.513611 92.592283 
L 119.682175 255.866349 
L 119.766457 258.108976 
L 119.935021 263.82024 
L 120.019303 261.75612 
L 120.103585 255.822508 
L 120.27215 85.231977 
L 120.609278 71.560106 
L 120.69356 74.011142 
L 120.946406 71.205523 
L 121.283534 85.605853 
L 121.367816 86.824671 
L 121.452099 85.873884 
L 121.620663 81.79499 
L 121.704945 82.941622 
L 121.789227 82.31764 
L 121.873509 84.612957 
L 122.042073 82.56053 
L 122.126355 79.284207 
L 122.463483 91.376172 
L 122.632048 258.880695 
L 122.71633 265.052404 
L 123.053458 250.998138 
L 123.13774 251.241944 
L 123.306304 89.175044 
L 123.727715 67.279107 
L 123.980561 80.706054 
L 124.064843 81.933235 
L 124.149125 77.254254 
L 124.233407 77.286433 
L 124.401971 85.930137 
L 124.486253 90.914943 
L 124.654817 258.578466 
L 124.823381 263.634967 
L 124.907664 269.95457 
L 124.991946 267.908934 
L 125.076228 259.875677 
L 125.16051 262.585425 
L 125.413356 252.733337 
L 125.58192 83.906359 
L 125.834766 70.648706 
L 125.919048 69.157259 
L 126.087613 77.735983 
L 126.171895 74.848642 
L 126.256177 76.382429 
L 126.340459 76.271852 
L 126.424741 74.615642 
L 126.509023 78.046004 
L 126.677587 92.423101 
L 126.846151 259.45284 
L 126.930433 258.79612 
L 127.18328 270.722008 
L 127.436126 261.877768 
L 127.60469 250.739182 
L 127.773254 90.406086 
L 128.194664 64.127215 
L 128.278946 65.768583 
L 128.531793 82.547215 
L 128.784639 92.943123 
L 128.868921 91.089185 
L 129.037485 262.897394 
L 129.206049 269.581085 
L 129.290331 271.078857 
L 129.374613 270.182144 
L 129.62746 255.198018 
L 129.711742 254.88055 
L 129.796024 250.820777 
L 129.964588 83.624914 
L 130.04887 89.27942 
L 130.217434 81.272798 
L 130.301716 81.426697 
L 130.385998 83.143091 
L 130.554562 90.120153 
L 130.723127 254.983581 
L 130.807409 257.308784 
L 130.891691 253.737457 
L 131.313101 263.961745 
L 131.565947 253.924075 
L 131.650229 92.870342 
L 131.734511 251.954456 
L 131.903076 88.832479 
L 131.987358 86.990802 
L 132.155922 90.961683 
L 132.324486 252.450961 
L 132.408768 255.529909 
L 132.830178 285.607016 
L 132.91446 285.532458 
L 133.083025 283.61822 
L 133.504435 264.682421 
L 133.588717 264.010406 
L 133.672999 257.98724 
L 133.841563 89.03136 
L 133.925845 89.728179 
L 134.010127 89.632417 
L 134.09441 89.425636 
L 134.262974 251.236741 
L 134.347256 93.280805 
L 134.51582 251.437876 
L 134.600102 253.117125 
L 134.768666 259.912196 
L 134.852948 258.79658 
L 135.021512 88.427822 
L 135.190076 78.509653 
L 135.274359 79.391147 
L 135.695769 84.997918 
L 135.780051 84.470535 
L 135.864333 76.838472 
L 135.948615 78.142094 
L 136.201461 92.302601 
L 136.285743 251.642611 
L 136.370025 93.27898 
L 136.53859 259.816698 
L 136.622872 264.571409 
L 136.875718 251.236825 
L 136.96 252.227009 
L 137.128564 87.743112 
L 137.38141 80.310648 
L 137.465692 88.028557 
L 137.549975 87.934325 
L 137.634257 87.550745 
L 137.887103 79.597072 
L 137.971385 80.340209 
L 138.055667 79.338393 
L 138.308513 92.477091 
L 138.477077 79.983413 
L 138.645641 84.173914 
L 138.729924 84.270373 
L 138.898488 89.257524 
L 138.98277 92.814047 
L 139.067052 251.140487 
L 139.235616 86.419426 
L 139.40418 90.750413 
L 139.488462 89.734648 
L 139.572744 90.081442 
L 139.82559 88.173493 
L 139.994155 77.733072 
L 140.162719 81.361954 
L 140.247001 80.329503 
L 140.331283 80.455088 
L 140.584129 90.716615 
L 140.668411 85.530497 
L 140.752693 87.078311 
L 140.836975 88.665333 
L 141.00554 253.632044 
L 141.174104 267.057952 
L 141.764078 258.025413 
L 141.84836 261.114453 
L 141.932642 260.436389 
L 142.016924 259.768553 
L 142.269771 250.603503 
L 142.438335 89.298529 
L 142.606899 80.382134 
L 142.691181 80.355593 
L 143.028309 87.690082 
L 143.196873 93.152443 
L 143.281155 92.634439 
L 143.618284 88.570899 
L 143.702566 89.876915 
L 143.87113 89.357965 
L 143.955412 90.492761 
L 144.123976 87.859868 
L 144.208258 250.05207 
L 144.376822 92.632396 
L 144.545387 90.433806 
L 144.798233 73.362649 
L 144.882515 79.175751 
L 144.966797 78.678309 
L 145.051079 74.304807 
L 145.303925 81.446894 
L 145.388207 76.663426 
L 145.472489 78.348739 
L 145.725336 89.616536 
L 145.809618 89.786192 
L 145.8939 91.143772 
L 145.978182 250.507274 
L 146.146746 88.443815 
L 146.231028 93.25442 
L 146.31531 251.90158 
L 146.399592 250.852271 
L 146.483874 251.874014 
L 146.73672 261.161887 
L 146.821003 259.270408 
L 146.905285 259.59149 
L 146.989567 259.358305 
L 147.158131 254.915532 
L 147.242413 251.055724 
L 147.410977 89.42095 
L 147.579541 79.792322 
L 147.663823 79.775431 
L 147.832387 72.096304 
L 147.916669 74.865425 
L 148.169516 85.678024 
L 148.33808 81.885171 
L 148.422362 82.597798 
L 148.506644 85.652498 
L 148.590926 84.31749 
L 148.675208 85.813504 
L 148.843772 83.942381 
L 149.096619 93.237876 
L 149.180901 254.788373 
L 149.265183 253.693461 
L 149.602311 264.928094 
L 149.686593 262.518603 
L 149.939439 257.413601 
L 150.023721 263.140483 
L 150.108003 261.783784 
L 150.192285 263.823613 
L 150.276568 263.343319 
L 150.445132 251.71832 
L 150.529414 253.819253 
L 150.613696 250.988255 
L 150.78226 88.346438 
L 150.866542 89.020386 
L 150.950824 85.063562 
L 151.035106 86.105522 
L 151.20367 91.839137 
L 151.287952 87.420559 
L 151.372234 91.766768 
L 151.540799 262.897608 
L 151.625081 264.889646 
L 151.709363 256.991841 
L 151.793645 258.4921 
L 151.877927 264.16314 
L 151.962209 264.066055 
L 152.046491 264.732223 
L 152.299337 254.815015 
L 152.383619 256.609496 
L 152.552184 84.58867 
L 152.636466 92.194233 
L 152.720748 89.91695 
L 152.80503 87.661337 
L 152.889312 81.366611 
L 152.973594 81.594563 
L 153.142158 84.437235 
L 153.310722 90.502195 
L 153.395004 82.817249 
L 153.479286 83.236536 
L 153.563568 80.132939 
L 153.64785 81.385322 
L 153.816415 88.805878 
L 153.984979 258.968428 
L 154.069261 258.155201 
L 154.406389 268.554002 
L 154.490671 267.948505 
L 154.574953 262.060822 
L 154.659235 263.585267 
L 154.743517 261.687906 
L 154.827799 263.096573 
L 154.912082 261.90754 
L 155.080646 254.734461 
L 155.164928 262.323981 
L 155.24921 261.997513 
L 155.417774 254.289174 
L 155.502056 254.634699 
L 155.586338 250.816975 
L 155.67062 91.009066 
L 155.754902 250.764594 
L 155.839184 250.56519 
L 156.007749 261.584629 
L 156.092031 260.953643 
L 156.176313 264.473075 
L 156.260595 263.407828 
L 156.344877 266.779719 
L 156.429159 266.667443 
L 156.597723 258.712529 
L 156.682005 260.244134 
L 156.766287 259.634782 
L 157.103415 250.258717 
L 157.187698 258.662919 
L 157.356262 251.685265 
L 157.524826 255.5431 
L 157.609108 255.75176 
L 157.861954 251.224473 
L 158.1148 255.038271 
L 158.199082 254.462347 
L 158.283364 249.837848 
L 158.451929 88.489136 
L 158.620493 91.873298 
L 158.704775 91.196166 
L 158.873339 258.081846 
L 159.041903 251.071614 
L 159.210467 252.050326 
L 159.379031 260.287083 
L 159.463314 255.143029 
L 159.547596 257.125101 
L 159.631878 253.316606 
L 159.800442 84.403559 
L 159.884724 85.596418 
L 159.969006 84.127478 
L 160.053288 78.478074 
L 160.13757 79.476415 
L 160.221852 87.882563 
L 160.306134 82.33252 
L 160.390416 82.39892 
L 160.474698 83.152233 
L 160.643263 91.380691 
L 160.811827 266.417927 
L 160.896109 268.566883 
L 160.980391 255.031102 
L 161.064673 260.329657 
L 161.148955 259.894809 
L 161.317519 254.870021 
L 161.401801 255.793232 
L 161.486083 252.319643 
L 161.570365 253.132924 
L 161.738929 88.681494 
L 162.076058 80.322243 
L 162.328904 65.301431 
L 162.413186 64.191877 
L 162.497468 68.236697 
L 162.666032 87.664381 
L 162.834596 254.788431 
L 162.918879 252.151887 
L 163.171725 271.94957 
L 163.256007 271.320347 
L 163.340289 262.841091 
L 163.424571 263.579775 
L 163.593135 250.648611 
L 163.761699 72.769459 
L 163.845981 65.89171 
L 164.014545 72.604604 
L 164.351674 57.971872 
L 164.520238 63.50093 
L 164.773084 84.856544 
L 164.857366 84.522964 
L 164.941648 79.894809 
L 165.110212 92.149915 
L 165.278777 263.54071 
L 165.447341 253.714595 
L 165.531623 252.682801 
L 165.700187 87.683841 
L 165.953033 77.433684 
L 166.037315 87.645572 
L 166.121597 85.836367 
L 166.290161 68.391633 
L 166.374444 77.105067 
L 166.458726 75.940408 
L 166.543008 80.001755 
L 166.62729 89.547414 
L 166.711572 251.241246 
L 166.795854 249.918904 
L 166.964418 257.378431 
L 167.0487 88.00852 
L 167.132982 90.384757 
L 167.301546 262.161215 
L 167.385828 265.160307 
L 167.554393 263.605574 
L 167.807239 255.872365 
L 167.891521 254.642093 
L 168.060085 249.921196 
L 168.228649 260.103673 
L 168.312931 259.636917 
L 168.397213 258.406721 
L 168.565777 250.889652 
L 168.734342 79.88261 
L 168.818624 80.150465 
L 168.902906 79.116884 
L 169.07147 85.523517 
L 169.240034 252.039003 
L 169.324316 253.188277 
L 169.408598 89.441796 
L 169.49288 90.02372 
L 169.661444 92.023745 
L 169.830008 257.790034 
L 169.998573 260.580133 
L 170.082855 258.813803 
L 170.251419 260.468778 
L 170.335701 252.283361 
L 170.419983 252.329647 
L 170.588547 265.049847 
L 170.672829 265.045152 
L 170.841393 253.622699 
L 171.009958 87.640553 
L 171.09424 90.091497 
L 171.262804 85.833109 
L 171.347086 85.758075 
L 171.431368 82.048691 
L 171.599932 85.719437 
L 171.684214 92.409497 
L 171.852778 253.40529 
L 172.021342 263.750785 
L 172.189907 263.470002 
L 172.274189 262.881585 
L 172.358471 263.911624 
L 172.442753 271.02967 
L 172.527035 269.644054 
L 172.864163 265.551308 
L 173.201291 254.673362 
L 173.285573 258.052782 
L 173.369856 255.995761 
L 173.53842 89.478047 
L 173.622702 90.66068 
L 173.706984 90.603356 
L 173.791266 89.753892 
L 173.875548 93.090656 
L 174.044112 265.46741 
L 174.128394 265.707757 
L 174.212676 269.126714 
L 174.296958 267.767113 
L 174.38124 269.653553 
L 174.634087 280.165408 
L 174.718369 280.049375 
L 175.055497 264.996634 
L 175.139779 265.223436 
L 175.224061 263.515398 
L 175.476907 254.968817 
L 175.561189 252.174131 
L 175.645472 255.727541 
L 175.729754 252.236805 
L 175.898318 90.255492 
L 176.066882 253.738268 
L 176.151164 252.411652 
L 176.488292 268.873678 
L 176.825421 279.634657 
L 176.909703 280.050205 
L 177.752523 253.61429 
L 177.836805 252.956782 
L 177.921088 250.711199 
L 178.00537 250.872292 
L 178.089652 250.326934 
L 178.258216 89.185549 
L 178.342498 90.710529 
L 178.511062 254.882239 
L 178.679626 92.711758 
L 178.763908 254.636853 
L 178.84819 251.899289 
L 179.016754 87.452142 
L 179.353883 93.011082 
L 179.438165 250.379221 
L 179.606729 90.214586 
L 179.775293 91.908258 
L 179.859575 85.015722 
L 179.943857 87.048555 
L 180.112421 263.011832 
L 180.196703 259.725478 
L 180.280986 260.492352 
L 180.365268 266.147471 
L 180.44955 264.924346 
L 180.618114 258.891272 
L 180.702396 258.995623 
L 181.039524 252.428722 
L 181.208088 88.787521 
L 181.29237 86.525075 
L 181.545217 92.892613 
L 181.629499 250.676544 
L 181.713781 90.742449 
L 181.798063 93.112948 
L 181.966627 254.84818 
L 182.135191 250.443636 
L 182.219473 251.100742 
L 182.388037 89.697551 
L 182.556602 252.251881 
L 182.640884 90.132489 
L 182.725166 90.588802 
L 182.89373 252.392693 
L 182.978012 252.944685 
L 183.062294 252.900505 
L 183.230858 251.782055 
L 183.399422 93.039535 
L 183.567986 251.309911 
L 183.736551 252.014323 
L 183.820833 251.894914 
L 183.989397 89.767014 
L 184.157961 79.301335 
L 184.242243 84.571758 
L 184.326525 78.816611 
L 184.410807 80.52219 
L 184.495089 82.19038 
L 184.579371 81.802932 
L 184.747935 83.350793 
L 185.000782 91.014896 
L 185.169346 256.963003 
L 185.253628 257.578905 
L 185.506474 264.92667 
L 185.675038 269.598271 
L 185.843602 266.18838 
L 185.927884 266.038458 
L 186.012167 260.365623 
L 186.096449 261.663172 
L 186.265013 250.890614 
L 186.433577 82.112976 
L 186.854987 65.900949 
L 187.613526 92.660676 
L 187.78209 259.305078 
L 187.950654 91.577912 
L 188.2035 85.485612 
L 188.287782 88.467931 
L 188.372065 87.409718 
L 188.540629 91.343961 
L 188.624911 91.700107 
L 188.709193 92.727911 
L 188.793475 91.33415 
L 188.962039 86.354545 
L 189.046321 85.903558 
L 189.130603 86.100958 
L 189.299167 89.211929 
L 189.467732 89.918565 
L 189.552014 88.135003 
L 189.636296 88.301944 
L 189.720578 87.949918 
L 189.80486 88.938817 
L 189.889142 93.260417 
L 190.057706 253.022729 
L 190.394834 260.961653 
L 190.479116 261.907233 
L 190.731963 252.97863 
L 190.900527 89.504213 
L 190.984809 86.131672 
L 191.069091 86.740973 
L 191.237655 85.222665 
L 191.321937 85.654091 
L 191.490501 91.039514 
L 191.574783 87.646671 
L 191.659065 90.670661 
L 191.743347 250.072494 
L 191.82763 249.977038 
L 191.996194 90.312035 
L 192.080476 84.567899 
L 192.164758 86.511619 
L 192.24904 86.427766 
L 192.333322 84.360541 
L 192.417604 85.010741 
L 192.501886 88.965603 
L 192.586168 88.748329 
L 192.839014 85.925617 
L 193.007579 88.486177 
L 193.091861 92.904446 
L 193.260425 257.03464 
L 193.344707 258.466211 
L 193.513271 265.157727 
L 193.681835 260.00276 
L 193.766117 258.036767 
L 193.850399 258.938113 
L 194.103246 252.156685 
L 194.27181 86.111021 
L 194.524656 80.02669 
L 194.69322 72.278934 
L 194.777502 76.11232 
L 195.030348 72.532214 
L 195.11463 74.810387 
L 195.198912 72.108673 
L 195.283195 72.545004 
L 195.451759 84.17247 
L 195.536041 91.46981 
L 195.704605 258.976335 
L 195.957451 265.271734 
L 196.041733 266.179286 
L 196.126015 266.171093 
L 196.378862 263.394255 
L 196.463144 258.306683 
L 196.547426 262.377393 
L 196.631708 257.244722 
L 196.800272 88.694707 
L 196.968836 86.91481 
L 197.221682 92.032022 
L 197.474528 83.046188 
L 197.558811 87.022146 
L 197.643093 84.477746 
L 197.727375 86.36445 
L 197.811657 92.301622 
L 197.895939 250.732197 
L 197.980221 90.551994 
L 198.148785 254.432554 
L 198.485913 269.741769 
L 198.570195 267.509517 
L 198.654477 271.907462 
L 198.823042 267.382316 
L 198.991606 255.711681 
L 199.075888 258.752526 
L 199.328734 249.903814 
L 199.497298 84.72636 
L 199.58158 84.150804 
L 200.002991 91.227401 
L 200.171555 257.184558 
L 200.255837 257.976081 
L 200.424401 260.673168 
L 200.592965 263.59363 
L 200.761529 252.336503 
L 200.930093 90.170558 
L 201.267222 81.199471 
L 201.435786 78.307077 
L 201.520068 78.546596 
L 201.60435 73.841712 
L 202.02576 92.92303 
L 202.110042 252.647354 
L 202.194325 251.381089 
L 202.278607 253.188082 
L 202.447171 263.383247 
L 202.531453 263.606012 
L 202.784299 253.394494 
L 202.952863 89.559346 
L 203.289992 70.043767 
L 203.374274 69.988849 
L 203.542838 76.528001 
L 203.62712 74.169132 
L 203.711402 77.13209 
L 203.879966 90.057561 
L 204.04853 251.914026 
L 204.301376 267.479172 
L 204.469941 273.334411 
L 204.722787 263.417729 
L 204.891351 252.261777 
L 205.059915 82.768935 
L 205.144197 83.729546 
L 205.565607 64.697243 
L 205.818454 76.127568 
L 206.408428 93.151682 
L 206.576992 250.974346 
L 206.661274 250.280915 
L 206.829839 86.71502 
L 207.166967 70.400582 
L 207.419813 66.326751 
L 207.588377 68.532118 
L 207.841223 86.771186 
L 208.009788 256.213358 
L 208.262634 264.028705 
L 208.346916 263.426243 
L 208.768326 249.888741 
L 208.852608 250.583267 
L 209.021172 78.842596 
L 209.274019 68.81716 
L 209.442583 69.364653 
L 209.948275 85.395992 
L 210.032557 86.212149 
L 210.201121 92.742922 
L 210.369686 257.138341 
L 210.622532 260.94031 
L 210.791096 254.549123 
L 210.875378 92.861958 
L 210.95966 253.708477 
L 211.128224 83.070406 
L 211.212506 81.048182 
L 211.296788 84.060241 
L 211.549635 78.346572 
L 211.633917 72.418861 
L 211.886763 88.469765 
L 212.055327 255.594633 
L 212.476737 269.569574 
L 212.645302 266.612043 
L 212.729584 265.355627 
L 212.813866 266.846473 
L 213.066712 264.197433 
L 213.150994 264.043886 
L 213.235276 263.290789 
L 213.319558 264.211827 
L 213.40384 263.671274 
L 213.656686 260.298897 
L 213.740969 260.645224 
L 213.825251 260.418166 
L 213.993815 256.335813 
L 214.078097 264.543676 
L 214.162379 264.065621 
L 214.330943 260.131334 
L 214.415225 253.414321 
L 214.583789 86.794749 
L 214.668071 88.602169 
L 214.836636 84.690152 
L 215.0052 85.232472 
L 215.258046 92.047092 
L 215.342328 251.558624 
L 215.42661 91.239038 
L 215.595174 258.861915 
L 215.763738 263.337171 
L 215.932302 251.916158 
L 216.016585 252.889635 
L 216.100867 250.951955 
L 216.185149 257.579061 
L 216.269431 256.651039 
L 216.437995 251.555141 
L 216.522277 93.140966 
L 216.606559 93.250615 
L 216.943687 81.882627 
L 217.027969 83.492897 
L 217.196534 89.541285 
L 217.280816 249.960354 
L 217.365098 86.341632 
L 217.44938 87.338666 
L 217.533662 86.401863 
L 217.617944 86.762121 
L 217.702226 86.500825 
L 217.786508 88.711982 
L 217.955072 258.554354 
L 218.039354 259.37966 
L 218.123636 262.288261 
L 218.292201 256.093962 
L 218.376483 265.052362 
L 218.545047 250.589409 
L 218.629329 258.618663 
L 218.713611 257.970869 
L 218.882175 253.56321 
L 218.966457 253.722336 
L 219.050739 253.628588 
L 219.135021 257.619543 
L 219.219303 251.306356 
L 219.387867 82.269067 
L 219.47215 74.801196 
L 219.556432 78.115954 
L 219.724996 70.053021 
L 219.809278 72.3069 
L 220.062124 85.945763 
L 220.146406 82.525378 
L 220.230688 83.241958 
L 220.31497 82.267473 
L 220.567816 92.289639 
L 220.652099 91.941083 
L 220.820663 261.734316 
L 220.904945 262.650674 
L 221.157791 250.3568 
L 221.242073 252.995874 
L 221.410637 250.546681 
L 221.494919 249.948426 
L 221.663483 92.167729 
L 222.253458 72.584644 
L 222.590586 83.205281 
L 222.674868 81.287381 
L 223.011997 92.823352 
L 223.180561 263.198917 
L 223.264843 258.60988 
L 223.349125 260.088235 
L 223.433407 258.81235 
L 223.601971 259.534363 
L 223.686253 257.391243 
L 223.770535 261.334253 
L 223.854817 260.339256 
L 223.939099 252.266257 
L 224.023381 92.961622 
L 224.107664 251.172139 
L 224.276228 85.310496 
L 224.36051 82.130164 
L 224.444792 87.892409 
L 224.529074 86.540623 
L 224.613356 78.404022 
L 224.697638 79.89035 
L 224.78192 81.50079 
L 224.866202 76.762311 
L 224.950484 77.753999 
L 225.203331 85.479769 
L 225.287613 84.799686 
L 225.371895 85.002998 
L 225.540459 71.39383 
L 225.624741 73.880224 
L 225.793305 63.662274 
L 225.961869 78.042446 
L 226.130433 77.092642 
L 226.298997 69.64442 
L 226.38328 73.572452 
L 226.467562 69.680146 
L 226.888972 77.876112 
L 227.057536 86.395078 
L 227.141818 86.904302 
L 227.2261 88.876795 
L 227.310382 88.814476 
L 227.647511 91.493506 
L 227.731793 86.876375 
L 227.816075 87.513143 
L 227.900357 250.176326 
L 228.068921 87.775301 
L 228.153203 91.619209 
L 228.237485 257.798005 
L 228.321767 256.823749 
L 228.490331 82.860201 
L 228.574613 85.407597 
L 228.658895 82.71049 
L 228.911742 65.349526 
L 228.996024 65.887473 
L 229.080306 65.117759 
L 229.24887 70.445078 
L 229.333152 69.9768 
L 229.585998 82.304041 
L 229.67028 75.276424 
L 229.754562 76.885146 
L 229.838845 77.701199 
L 230.175973 92.99566 
L 230.260255 259.370684 
L 230.344537 257.334244 
L 230.597383 266.213732 
L 230.681665 265.173874 
L 230.850229 267.82551 
L 230.934511 271.880777 
L 231.187358 251.622566 
L 231.355922 89.139915 
L 231.440204 89.39942 
L 231.861614 80.367625 
L 231.945896 82.348942 
L 232.11446 251.757254 
L 232.198743 254.188775 
L 232.283025 92.193324 
L 232.451589 252.152796 
L 232.535871 251.423304 
L 232.704435 88.384147 
L 232.788717 93.364669 
L 233.125845 84.03602 
L 233.210127 82.395328 
L 233.462974 89.987416 
L 233.547256 86.552514 
L 233.631538 92.872417 
L 233.71582 251.627435 
L 233.800102 90.96452 
L 233.968666 260.194337 
L 234.13723 265.433042 
L 234.221512 264.358294 
L 234.305794 266.750662 
L 234.474359 278.390046 
L 234.642923 275.414139 
L 234.727205 275.342297 
L 234.811487 282.476318 
L 235.064333 273.82142 
L 235.148615 274.339057 
L 235.317179 258.409538 
L 235.401461 265.158317 
L 235.822872 252.971056 
L 235.907154 254.439976 
L 235.991436 253.23887 
L 236.075718 255.712385 
L 236.244282 267.27485 
L 236.328564 259.973898 
L 236.412846 260.802832 
L 236.497128 261.076061 
L 236.58141 261.742221 
L 236.665692 261.531511 
L 236.749975 259.971015 
L 236.834257 260.289739 
L 236.918539 262.154421 
L 237.339949 250.652366 
L 237.424231 252.654197 
L 237.508513 250.865754 
L 237.677077 80.979424 
L 237.761359 81.230983 
L 237.845641 81.928108 
L 238.014206 90.506098 
L 238.18277 263.530784 
L 238.267052 266.213933 
L 238.351334 263.470523 
L 238.435616 266.306674 
L 238.519898 265.221205 
L 238.772744 273.416014 
L 238.857026 272.70279 
L 238.941308 274.303606 
L 239.109873 269.910547 
L 239.194155 274.246167 
L 239.447001 256.163559 
L 239.531283 260.496531 
L 239.784129 253.74028 
L 239.952693 90.952411 
L 240.121257 84.340813 
L 240.20554 85.416438 
L 240.289822 84.702337 
L 240.374104 82.247988 
L 240.458386 84.614017 
L 240.542668 92.371127 
L 240.711232 256.003318 
L 241.04836 269.067969 
L 241.301206 274.919561 
L 242.144027 249.830366 
L 242.228309 91.670165 
L 242.312591 91.717206 
L 242.396873 91.801259 
L 242.481155 91.508726 
L 242.64972 255.67427 
L 242.986848 266.461992 
L 243.07113 266.866444 
L 243.239694 272.724675 
L 243.408258 270.718029 
L 243.49254 271.734739 
L 243.661105 268.238895 
L 243.829669 268.572043 
L 244.251079 252.400381 
L 244.335361 93.277564 
L 244.419643 250.683409 
L 244.588207 90.28599 
L 244.672489 91.186511 
L 244.756771 90.179547 
L 244.841054 84.385832 
L 244.925336 86.203086 
L 245.009618 85.52177 
L 245.0939 87.792044 
L 245.262464 85.706611 
L 245.431028 90.080581 
L 245.51531 92.341321 
L 245.683874 257.508414 
L 245.852438 260.608495 
L 246.105285 252.328387 
L 246.189567 251.752101 
L 246.358131 90.491918 
L 246.526695 252.193619 
L 246.610977 252.492755 
L 246.695259 90.505414 
L 246.779541 90.867933 
L 246.863823 90.497317 
L 246.948105 90.941163 
L 247.116669 252.118429 
L 247.285234 257.082879 
L 247.53808 263.584659 
L 247.622362 264.331579 
L 247.790926 257.001704 
L 247.875208 261.539623 
L 247.95949 260.54306 
L 248.043772 260.572996 
L 248.128054 256.790862 
L 248.212336 257.067938 
L 248.296619 255.817938 
L 248.465183 92.289061 
L 248.549465 93.10161 
L 248.718029 86.52305 
L 248.802311 88.123457 
L 248.970875 91.279394 
L 249.139439 256.766101 
L 249.308003 260.558118 
L 249.392285 260.486256 
L 249.56085 262.563893 
L 249.645132 265.773698 
L 249.813696 262.04376 
L 249.897978 268.849892 
L 249.98226 266.428881 
L 250.150824 253.223866 
L 250.235106 253.80474 
L 250.40367 251.028924 
L 250.572234 255.117802 
L 250.656517 251.557399 
L 250.740799 252.216072 
L 250.825081 251.679197 
L 250.909363 252.837522 
L 251.162209 262.007836 
L 251.330773 267.255586 
L 251.415055 265.791176 
L 251.667901 252.458612 
L 251.836466 87.217855 
L 251.920748 83.404887 
L 252.00503 86.320158 
L 252.257876 73.943703 
L 252.42644 74.95914 
L 252.510722 73.061317 
L 252.679286 77.433152 
L 252.84785 75.711837 
L 252.932133 70.387293 
L 253.437825 93.193262 
L 253.522107 251.221246 
L 253.690671 92.688912 
L 253.943517 81.401928 
L 254.112082 68.786767 
L 254.196364 70.59504 
L 254.533492 62.417354 
L 254.617774 62.895554 
L 254.702056 60.476419 
L 254.87062 70.784514 
L 255.123466 83.003911 
L 255.207749 83.236135 
L 255.544877 87.287064 
L 255.629159 87.23187 
L 255.713441 89.09961 
L 255.797723 251.598508 
L 255.882005 250.657338 
L 256.050569 89.55239 
L 256.387698 82.265197 
L 256.47198 77.918351 
L 256.556262 78.048441 
L 256.724826 70.750153 
L 256.809108 66.455005 
L 256.89339 66.848618 
L 257.3148 92.624736 
L 257.399082 254.336436 
L 257.483364 93.013077 
L 257.651929 263.733343 
L 257.736211 265.68446 
L 258.073339 256.674615 
L 258.157621 252.000099 
L 258.326185 80.559015 
L 258.494749 66.671827 
L 258.579031 67.815402 
L 258.831878 53.568 
L 259.421852 91.049488 
L 259.590416 254.949653 
L 260.011827 270.524942 
L 260.180391 256.585017 
L 260.348955 85.595701 
L 260.601801 71.201585 
L 260.854647 61.154856 
L 260.938929 55.061393 
L 261.023212 55.643786 
L 261.36034 79.589941 
L 261.444622 79.742913 
L 261.528904 85.685898 
L 261.697468 254.707665 
L 261.950314 261.684451 
L 262.118879 260.519235 
L 262.287443 250.430888 
L 262.456007 85.474692 
L 262.793135 62.407703 
L 262.877417 63.605221 
L 262.961699 63.373782 
L 263.045981 63.243488 
L 263.298828 76.653985 
L 263.38311 76.249899 
L 263.467392 77.462078 
L 263.635956 88.644299 
L 263.720238 85.706622 
L 263.888802 93.319118 
L 264.057366 253.334637 
L 264.141648 251.23608 
L 264.310212 88.93393 
L 264.900187 67.616695 
L 264.984469 67.676971 
L 265.321597 78.236136 
L 265.490161 87.366398 
L 265.574444 84.436716 
L 265.658726 85.212544 
L 265.743008 90.500263 
L 265.911572 255.331703 
L 266.164418 266.914448 
L 266.2487 268.1264 
L 266.332982 267.245541 
L 266.417264 263.222085 
L 266.501546 265.937057 
L 266.754393 259.94599 
L 266.838675 261.888042 
L 267.091521 250.024845 
L 267.175803 251.673559 
L 267.344367 82.5507 
L 267.428649 76.697779 
L 267.512931 77.865253 
L 267.597213 76.616865 
L 267.681495 71.572164 
L 267.934342 92.535259 
L 268.102906 254.092059 
L 268.27147 256.404089 
L 268.608598 276.068531 
L 268.861444 267.395873 
L 268.945726 271.317762 
L 269.114291 266.001978 
L 269.367137 251.351614 
L 269.451419 253.916864 
L 269.535701 251.061349 
L 269.704265 84.392359 
L 269.872829 80.08053 
L 270.041393 91.726313 
L 270.209958 255.544579 
L 270.547086 268.203363 
L 270.631368 269.401152 
L 270.799932 280.24418 
L 270.884214 278.892286 
L 270.968496 279.87971 
L 271.052778 278.134226 
L 271.221342 272.138868 
L 271.305624 274.620956 
L 271.389907 273.385394 
L 271.474189 279.225544 
L 271.558471 278.686557 
L 271.727035 272.409472 
L 271.895599 256.789792 
L 271.979881 257.344269 
L 272.064163 250.89337 
L 272.232727 83.873744 
L 272.401291 86.573211 
L 272.485573 83.225682 
L 272.569856 83.819744 
L 272.73842 91.461679 
L 272.906984 254.726337 
L 272.991266 255.006894 
L 273.412676 275.404989 
L 273.496958 275.279535 
L 273.58124 276.840065 
L 274.171215 252.882487 
L 274.339779 89.373702 
L 274.592625 76.811972 
L 274.761189 85.881793 
L 274.845472 93.17778 
L 275.014036 259.32082 
L 275.098318 261.214262 
L 275.1826 258.953217 
L 275.519728 272.907134 
L 275.60401 279.108051 
L 275.688292 277.501063 
L 276.025421 257.848612 
L 276.278267 251.119565 
L 276.446831 91.564439 
L 276.615395 89.028967 
L 276.699677 92.782356 
L 276.868241 259.061013 
L 276.952523 263.601055 
L 277.121088 277.496312 
L 277.289652 268.829183 
L 277.458216 279.156448 
L 277.542498 277.30941 
L 277.711062 278.522541 
L 278.301037 259.322188 
L 278.638165 252.499901 
L 278.806729 89.733378 
L 278.891011 92.492277 
L 279.059575 253.735385 
L 279.312421 266.634899 
L 279.396703 266.568513 
L 279.733832 260.563131 
L 279.818114 262.476444 
L 279.902396 261.319856 
L 280.07096 250.23112 
L 280.239524 86.425586 
L 280.408088 84.477001 
L 280.660935 91.438659 
L 280.745217 88.840958 
L 280.998063 93.034455 
L 281.082345 91.188565 
L 281.250909 259.659522 
L 281.588037 272.865848 
L 281.756602 275.509221 
L 281.840884 277.735646 
L 281.925166 277.580778 
L 282.009448 278.033122 
L 282.09373 276.028 
L 282.178012 277.048827 
L 282.430858 268.457466 
L 282.51514 256.357487 
L 282.683704 91.722445 
L 282.936551 85.022808 
L 283.189397 89.550216 
L 283.357961 251.067587 
L 283.442243 84.505134 
L 283.526525 85.694278 
L 283.695089 92.651084 
L 283.863653 258.728397 
L 284.1165 269.003269 
L 284.200782 270.792966 
L 284.369346 277.630112 
L 284.53791 280.319662 
L 284.622192 280.395369 
L 284.790756 279.464171 
L 285.043602 262.983426 
L 285.212167 253.041149 
L 285.380731 87.862266 
L 285.717859 76.34948 
L 285.802141 75.865618 
L 285.886423 70.550856 
L 285.970705 71.730134 
L 286.223551 88.43743 
L 286.392116 257.626547 
L 286.476398 258.34488 
L 286.813526 273.036504 
L 286.897808 271.571494 
L 287.319218 257.545575 
L 287.487782 251.716713 
L 287.656347 90.104676 
L 287.909193 86.313157 
L 287.993475 87.872895 
L 288.162039 93.0536 
L 288.330603 257.537589 
L 288.414885 261.127769 
L 288.499167 259.254336 
L 288.583449 260.577825 
L 288.752014 271.138982 
L 289.089142 266.489147 
L 289.42627 250.938794 
L 289.510552 254.328163 
L 289.594834 252.369452 
L 289.763398 88.57574 
L 289.931963 82.132072 
L 290.100527 85.749664 
L 290.269091 92.284163 
L 290.437655 256.099388 
L 290.606219 266.48299 
L 290.774783 270.986707 
L 290.859065 269.218114 
L 291.02763 270.904993 
L 291.196194 266.077009 
L 291.364758 259.8832 
L 291.533322 251.618413 
L 291.617604 252.430097 
L 291.701886 250.448577 
L 291.786168 251.188099 
L 291.954732 86.204163 
L 292.123297 83.475885 
L 292.207579 82.319113 
L 292.713271 92.001138 
L 292.881835 91.572312 
L 292.966117 251.690547 
L 293.134681 89.62445 
L 293.218963 75.410167 
L 293.303246 76.202531 
L 293.387528 79.645372 
L 293.47181 79.445733 
L 293.556092 79.254965 
L 293.640374 87.446793 
L 293.724656 85.660688 
L 293.89322 80.046126 
L 293.977502 79.320158 
L 294.061784 80.922551 
L 294.146066 79.228666 
L 294.398912 68.656384 
L 294.651759 78.876605 
L 294.736041 76.726199 
L 294.904605 79.344621 
L 294.988887 77.331376 
L 295.410297 92.318049 
L 295.578862 255.295909 
L 295.663144 250.801753 
L 295.831708 89.171211 
L 296.084554 78.026168 
L 296.168836 75.842961 
L 296.253118 78.522897 
L 296.3374 75.512819 
L 296.505964 63.675883 
L 296.590246 62.114314 
L 296.674528 62.703855 
L 296.843093 69.030854 
L 296.927375 64.4887 
L 297.348785 84.631414 
L 297.433067 86.454099 
L 297.517349 82.350873 
L 297.601631 83.148875 
L 297.770195 88.813354 
L 297.93876 254.393925 
L 298.107324 250.453076 
L 298.275888 86.148374 
L 298.697298 69.998705 
L 298.78158 73.664733 
L 298.865862 69.762013 
L 298.950144 70.440093 
L 299.287273 92.822257 
L 299.371555 253.485859 
L 299.455837 253.424558 
L 299.540119 254.279639 
L 299.877247 264.342175 
L 299.961529 263.744737 
L 300.214376 251.758689 
L 300.38294 88.464054 
L 300.551504 82.584954 
L 300.972914 75.187329 
L 301.141478 82.861807 
L 301.22576 80.982152 
L 301.394325 90.845305 
L 301.562889 252.389653 
L 301.647171 254.297189 
L 301.731453 253.86106 
L 301.815735 255.232268 
L 301.984299 265.189563 
L 302.068581 264.202053 
L 302.237145 257.267889 
L 302.405709 250.852289 
L 302.574274 90.188554 
L 302.742838 83.378872 
L 302.82712 85.773996 
L 303.079966 79.235046 
L 303.164248 73.740106 
L 303.332812 76.830854 
L 303.501376 90.713772 
L 303.669941 255.737925 
L 303.754223 92.17225 
L 303.922787 261.370599 
L 304.007069 262.422164 
L 304.175633 265.836149 
L 304.259915 264.376907 
L 304.681325 250.525431 
L 304.84989 88.511188 
L 305.018454 85.647658 
L 305.102736 87.022867 
L 305.187018 90.77908 
L 305.355582 255.950229 
L 305.861274 295.488 
L 306.029839 287.526265 
L 306.114121 289.250831 
L 306.198403 288.527743 
L 306.366967 281.332497 
L 306.451249 283.135891 
L 306.704095 276.450683 
L 306.788377 280.391041 
L 306.956941 278.599647 
L 307.041223 283.51035 
L 307.125506 282.149385 
L 307.29407 277.285638 
L 307.378352 277.420946 
L 308.052608 255.559793 
L 308.13689 255.304034 
L 308.221172 253.875555 
L 308.305455 88.580248 
L 308.389737 89.565158 
L 308.558301 255.113295 
L 308.811147 269.622998 
L 308.895429 262.783611 
L 309.148275 272.786139 
L 309.401121 276.170306 
L 309.485404 276.632235 
L 309.569686 275.298254 
L 309.653968 277.498234 
L 310.243942 267.75995 
L 310.328224 269.781993 
L 310.496788 268.542672 
L 310.665353 259.606394 
L 310.749635 264.784054 
L 310.833917 264.246092 
L 311.002481 257.591508 
L 311.171045 263.540022 
L 311.255327 263.021794 
L 311.423891 255.202752 
L 311.592455 89.302828 
L 311.676737 87.021247 
L 311.76102 90.888726 
L 311.929584 86.014171 
L 312.013866 85.961903 
L 312.266712 92.74052 
L 312.435276 256.747068 
L 312.519558 254.606241 
L 312.688122 260.942532 
L 312.772404 260.851053 
L 312.940969 261.898667 
L 313.025251 260.295515 
L 313.109533 262.935927 
L 313.193815 262.445675 
L 313.362379 257.152166 
L 313.446661 250.216122 
L 313.530943 89.982923 
L 313.615225 91.484369 
L 313.699507 92.70111 
L 313.783789 89.59437 
L 313.868071 80.849404 
L 313.952353 81.90887 
L 314.289482 92.681955 
L 314.373764 87.604626 
L 314.458046 91.959725 
L 314.62661 261.836382 
L 314.710892 259.869254 
L 314.879456 266.333634 
L 315.04802 262.611597 
L 315.132302 264.975609 
L 315.216585 263.187662 
L 315.385149 256.801491 
L 315.469431 259.76769 
L 315.553713 254.313404 
L 315.722277 85.411557 
L 315.890841 79.125854 
L 315.975123 79.334585 
L 316.396534 90.610219 
L 316.480816 85.955859 
L 316.565098 88.128527 
L 316.64938 93.343163 
L 316.733662 253.872423 
L 316.817944 92.489564 
L 316.986508 253.329715 
L 317.07079 251.055244 
L 317.155072 251.550773 
L 317.239354 258.196823 
L 317.323636 257.082906 
L 317.576483 251.480426 
L 317.660765 89.822895 
L 317.745047 92.03066 
L 318.166457 73.711448 
L 318.250739 74.772734 
L 318.335021 83.10003 
L 318.419303 82.736591 
L 318.503585 81.386812 
L 318.587867 82.768552 
L 318.67215 76.372166 
L 318.756432 77.401393 
L 319.009278 88.380738 
L 319.177842 252.38982 
L 319.346406 91.053949 
L 319.430688 91.351429 
L 319.767816 84.632162 
L 320.020663 90.900448 
L 320.189227 88.259365 
L 320.273509 89.652086 
L 320.357791 88.219833 
L 320.526355 257.871714 
L 320.779201 250.117471 
L 320.863483 91.885392 
L 321.032048 255.806896 
L 321.11633 255.303034 
L 321.284894 251.435793 
L 321.453458 87.844605 
L 321.53774 87.485522 
L 321.706304 84.40065 
L 321.874868 72.310155 
L 321.95915 72.571025 
L 322.127715 69.815049 
L 322.211997 71.960338 
L 322.380561 88.996128 
L 322.464843 88.192158 
L 322.633407 255.543186 
L 322.717689 254.920082 
L 322.801971 257.234722 
L 322.886253 254.620344 
L 322.970535 256.298389 
L 323.223381 251.196607 
L 323.307664 253.892179 
L 323.391946 250.387251 
L 323.56051 83.524804 
L 323.644792 84.322494 
L 323.897638 74.505971 
L 323.98192 73.472919 
L 324.234766 86.879551 
L 324.319048 86.320383 
L 324.403331 91.392925 
L 324.571895 252.920299 
L 324.740459 265.062933 
L 324.824741 259.017842 
L 325.077587 268.102952 
L 325.161869 264.823094 
L 325.246151 254.989384 
L 325.330433 93.221892 
L 325.414715 254.713295 
L 325.498997 251.403009 
L 325.58328 92.98792 
L 325.667562 252.772928 
L 325.751844 250.713224 
L 325.920408 91.836443 
L 326.00469 92.711122 
L 326.088972 91.886466 
L 326.173254 88.424309 
L 326.257536 90.134048 
L 326.4261 255.543396 
L 326.510382 90.392803 
L 326.594664 91.25454 
L 326.763229 256.371315 
L 326.847511 256.666212 
L 327.016075 261.725178 
L 327.184639 273.079287 
L 327.268921 272.94594 
L 327.353203 271.654801 
L 327.521767 267.065323 
L 327.943178 252.674234 
L 328.111742 90.747607 
L 328.280306 86.414609 
L 328.364588 87.536861 
L 328.44887 81.723258 
L 328.617434 254.260305 
L 328.701716 89.898364 
L 328.87028 262.864828 
L 329.038845 269.533387 
L 329.123127 271.907892 
L 329.207409 271.032442 
L 329.375973 272.5363 
L 329.544537 265.742685 
L 329.628819 270.449925 
L 330.050229 254.038353 
L 330.134511 253.748008 
L 330.218794 252.235483 
L 330.303076 255.759567 
L 330.47164 89.222049 
L 330.555922 87.406428 
L 330.724486 93.185751 
L 330.89305 261.027999 
L 330.977332 260.813272 
L 331.230178 271.611634 
L 331.398743 281.869956 
L 331.483025 270.591358 
L 331.567307 272.07183 
L 331.651589 278.39983 
L 331.735871 276.621726 
L 331.988717 272.935954 
L 332.072999 279.517907 
L 332.157281 279.076929 
L 332.325845 274.759283 
L 332.578692 280.267246 
L 332.747256 279.922717 
L 333.674359 255.834648 
L 333.758641 260.589297 
L 333.842923 259.245232 
L 334.011487 249.84104 
L 334.095769 92.381492 
L 334.264333 253.066511 
L 334.348615 89.234502 
L 334.517179 256.67839 
L 334.601461 257.094878 
L 334.854308 266.623215 
L 334.93859 267.250293 
L 335.022872 269.065067 
L 335.191436 277.349337 
L 335.275718 279.234673 
L 335.697128 260.448417 
L 335.78141 262.335687 
L 335.865692 260.680014 
L 335.949975 251.350785 
L 336.034257 93.011099 
L 336.118539 254.196692 
L 336.202821 252.32111 
L 336.287103 251.268968 
L 336.455667 90.992974 
L 336.624231 79.945897 
L 336.708513 78.681217 
L 336.792795 79.463986 
L 337.129924 73.093529 
L 337.214206 73.820849 
L 337.38277 77.610612 
L 337.467052 80.20734 
L 337.551334 76.441098 
L 337.80418 81.226047 
L 337.888462 80.78553 
L 337.972744 78.625244 
L 338.057026 79.60223 
L 338.141308 78.561862 
L 338.22559 79.464468 
L 338.394155 82.423311 
L 338.478437 79.51479 
L 338.562719 80.411445 
L 338.731283 81.627504 
L 338.815565 79.873341 
L 338.984129 81.588724 
L 339.068411 82.9136 
L 339.321257 91.419711 
L 339.489822 254.948828 
L 339.574104 258.249962 
L 339.658386 257.35347 
L 339.82695 252.238661 
L 339.911232 253.868818 
L 339.995514 252.653094 
L 340.164078 87.88345 
L 340.24836 87.968071 
L 340.585489 76.535838 
L 340.669771 77.325921 
L 340.754053 75.651703 
L 340.838335 77.20376 
L 341.175463 88.638816 
L 341.259745 89.582152 
L 341.344027 91.852545 
L 341.512591 254.183813 
L 341.596873 256.722757 
L 342.018284 250.4324 
L 342.102566 253.085063 
L 342.186848 252.963293 
L 342.355412 252.042195 
L 342.439694 253.957655 
L 342.523976 252.047821 
L 342.608258 252.083197 
L 342.69254 252.306367 
L 342.776822 251.628935 
L 342.861105 252.384289 
L 343.029669 89.292708 
L 343.113951 83.221699 
L 343.198233 84.064367 
L 343.282515 82.186281 
L 343.451079 85.331485 
L 343.535361 84.594712 
L 343.619643 86.009499 
L 343.703925 85.13551 
L 343.872489 88.381317 
L 343.956771 91.281907 
L 344.041054 88.462099 
L 344.209618 254.444942 
L 344.2939 260.087694 
L 344.378182 259.8283 
L 344.631028 254.47977 
L 344.71531 254.617734 
L 344.799592 254.857942 
L 344.883874 254.30365 
L 345.052438 250.82572 
L 345.221003 249.95284 
L 345.473849 255.934657 
L 345.558131 255.734377 
L 345.642413 256.68705 
L 345.726695 256.636916 
L 345.810977 255.867249 
L 345.895259 255.995674 
L 345.979541 256.118067 
L 346.063823 255.626836 
L 346.148105 256.787058 
L 346.232387 256.623922 
L 346.400952 253.887045 
L 346.485234 257.233475 
L 346.653798 253.365426 
L 346.73808 254.125076 
L 346.822362 253.819111 
L 346.990926 256.463962 
L 347.15949 252.924313 
L 347.243772 254.538363 
L 347.328054 254.066012 
L 347.496619 252.26464 
L 347.665183 254.26303 
L 348.002311 252.316536 
L 348.086593 259.140771 
L 348.170875 258.686494 
L 348.255157 251.960011 
L 348.423721 86.540528 
L 348.592285 80.350989 
L 348.676568 81.712763 
L 348.76085 81.29584 
L 348.929414 74.702514 
L 349.097978 72.588156 
L 349.18226 73.681555 
L 349.266542 73.033622 
L 349.350824 68.920915 
L 350.025081 90.305841 
L 350.193645 252.950651 
L 350.446491 265.209917 
L 350.530773 263.822717 
L 350.615055 265.120731 
L 350.783619 255.427368 
L 350.867901 250.450547 
L 350.952184 251.452538 
L 351.120748 84.228211 
L 351.62644 62.435233 
L 352.132133 83.379484 
L 352.384979 91.228923 
L 352.469261 90.356585 
L 352.637825 91.33952 
L 352.806389 87.64937 
L 352.890671 87.12303 
L 352.974953 84.509576 
L 353.143517 88.654793 
L 353.227799 88.340695 
L 353.312082 93.092765 
L 353.480646 252.208285 
L 353.564928 251.039644 
L 353.733492 89.01264 
L 353.902056 79.904079 
L 353.986338 79.382368 
L 354.07062 77.034313 
L 354.239184 79.347767 
L 354.492031 71.301678 
L 354.576313 71.014936 
L 354.660595 74.147754 
L 354.829159 86.403367 
L 354.913441 85.912323 
L 354.997723 90.172848 
L 355.082005 249.976039 
L 355.166287 249.89247 
L 355.503415 258.808436 
L 355.587698 257.081809 
L 355.756262 87.963712 
L 356.09339 80.507073 
L 356.261954 89.45092 
L 356.430518 88.468055 
L 356.5148 88.781279 
L 356.599082 251.014654 
L 356.683364 250.917166 
L 356.767647 88.073591 
L 356.851929 88.362844 
L 356.936211 93.178664 
L 357.020493 92.93189 
L 357.189057 89.947643 
L 357.357621 92.450512 
L 357.441903 87.79859 
L 357.526185 92.677084 
L 357.694749 258.221449 
L 357.863314 265.103261 
L 357.947596 264.290024 
L 358.031878 266.098943 
L 358.369006 263.815292 
L 358.453288 263.843151 
L 358.621852 256.750691 
L 358.706134 250.534797 
L 358.874698 91.191917 
L 359.043263 86.406392 
L 359.127545 85.732142 
L 359.211827 81.485982 
L 359.296109 82.827138 
L 359.548955 87.143088 
L 359.717519 251.437451 
L 360.054647 260.005078 
L 360.476058 251.909889 
L 360.644622 89.031721 
L 361.066032 76.761908 
L 361.150314 77.960302 
L 361.234596 76.734815 
L 361.403161 82.456417 
L 361.487443 81.570761 
L 361.571725 83.374157 
L 361.656007 81.153861 
L 361.740289 83.75225 
L 361.824571 89.855517 
L 361.993135 256.175598 
L 362.161699 260.052913 
L 362.330263 263.859 
L 362.414545 261.850289 
L 362.498828 262.815278 
L 362.58311 265.221751 
L 362.667392 264.774963 
L 362.751674 263.878915 
L 362.835956 261.555772 
L 362.920238 265.159205 
L 363.00452 262.874748 
L 363.173084 251.462624 
L 363.341648 84.58056 
L 363.510212 80.959388 
L 363.763059 78.278997 
L 363.847341 80.128238 
L 363.931623 76.618654 
L 364.015905 78.328724 
L 364.100187 76.634074 
L 364.184469 77.987283 
L 364.268751 84.535341 
L 364.437315 256.406811 
L 364.774444 277.854367 
L 364.858726 274.972233 
L 365.364418 251.830696 
L 365.4487 254.037998 
L 365.532982 251.126613 
L 365.701546 87.805585 
L 365.87011 79.005278 
L 366.038675 81.218213 
L 366.207239 82.287235 
L 366.375803 79.491755 
L 366.460085 78.317626 
L 366.628649 81.419622 
L 366.712931 80.875787 
L 366.965777 73.626076 
L 367.134342 79.319715 
L 367.218624 85.382404 
L 367.387188 256.494089 
L 367.555752 259.404815 
L 367.808598 250.663276 
L 367.89288 92.639957 
L 367.977162 251.938994 
L 368.061444 250.358817 
L 368.230008 89.846571 
L 368.482855 80.410817 
L 368.567137 68.261991 
L 368.651419 69.550675 
L 368.904265 81.448159 
L 368.988547 80.557301 
L 369.072829 76.433235 
L 369.157111 76.533865 
L 369.409958 79.308544 
L 369.578522 89.703486 
L 369.747086 254.77635 
L 369.91565 258.694155 
L 369.999932 262.102603 
L 370.33706 251.274556 
L 370.505624 87.4108 
L 370.758471 76.198262 
L 370.842753 82.1743 
L 371.011317 73.903018 
L 371.095599 73.391104 
L 371.685573 89.746244 
L 371.854138 252.331489 
L 372.106984 262.73386 
L 372.191266 260.957701 
L 372.35983 249.957534 
L 372.444112 250.550259 
L 372.612676 83.216334 
L 372.696958 81.047719 
L 373.034087 66.456025 
L 373.118369 62.586051 
L 373.202651 63.358485 
L 373.371215 70.552221 
L 373.539779 71.786066 
L 373.624061 73.178113 
L 373.708343 70.087309 
L 373.792625 70.804436 
L 373.876907 69.953424 
L 373.961189 69.984653 
L 374.045472 66.569291 
L 374.214036 71.943314 
L 374.551164 90.62993 
L 374.719728 256.972399 
L 374.972574 261.396951 
L 375.141138 252.842015 
L 375.309703 86.694689 
L 375.393985 86.879994 
L 375.646831 82.647147 
L 375.815395 71.7414 
L 375.899677 73.20033 
L 376.321088 92.021017 
L 376.489652 255.339751 
L 376.82678 261.991844 
L 376.995344 258.130652 
L 377.079626 255.498999 
L 377.24819 88.72676 
L 377.753883 73.446079 
L 377.922447 72.537865 
L 378.091011 81.259928 
L 378.175293 86.60562 
L 378.259575 86.001849 
L 378.512421 90.704611 
L 378.596703 89.2195 
L 378.680986 92.797928 
L 378.84955 270.662506 
L 379.102396 259.257817 
L 379.27096 252.414739 
L 379.439524 89.38841 
L 379.776653 78.036588 
L 379.945217 66.868414 
L 380.113781 70.194276 
L 380.366627 93.325883 
L 380.535191 260.347854 
L 380.788037 276.027654 
L 380.956602 267.222468 
L 381.040884 272.240152 
L 381.209448 262.981457 
L 381.29373 261.80578 
L 381.546576 269.094235 
L 381.630858 268.185102 
L 381.71514 265.233185 
L 381.799422 266.230845 
L 381.967986 257.299393 
L 382.136551 88.853187 
L 382.220833 88.945549 
L 382.389397 84.507934 
L 382.473679 85.115573 
L 382.726525 92.634468 
L 382.895089 264.885117 
L 382.979371 265.092833 
L 383.063653 267.18833 
L 383.232218 275.110962 
L 383.400782 269.801341 
L 383.485064 272.057453 
L 383.569346 269.724433 
L 383.653628 270.405659 
L 383.906474 265.433006 
L 384.075038 254.781692 
L 384.243602 89.656381 
L 384.327884 91.277337 
L 384.412167 88.544966 
L 384.580731 82.080068 
L 384.833577 92.836261 
L 384.917859 91.47637 
L 385.086423 261.371478 
L 385.339269 268.937298 
L 385.423551 268.201461 
L 385.507833 268.653078 
L 385.76068 262.691959 
L 385.844962 266.206808 
L 385.929244 265.613205 
L 386.18209 260.339838 
L 386.266372 262.826999 
L 386.350654 262.756771 
L 386.6035 257.938355 
L 386.687782 258.18524 
L 386.772065 260.256616 
L 386.856347 260.221977 
L 387.109193 256.116364 
L 387.193475 260.328278 
L 387.277757 259.873912 
L 387.446321 256.986911 
L 387.614885 88.352539 
L 387.699167 89.546507 
L 387.952014 82.786792 
L 388.036296 84.197618 
L 388.120578 77.19222 
L 388.20486 78.66443 
L 388.289142 74.864114 
L 388.457706 81.037399 
L 388.62627 90.355902 
L 388.794834 259.158527 
L 389.047681 273.924098 
L 389.131963 272.36107 
L 389.300527 266.293088 
L 389.384809 269.022223 
L 389.469091 268.100857 
L 389.553373 265.477953 
L 389.637655 265.575025 
L 389.721937 264.603114 
L 389.806219 269.492256 
L 389.890501 268.371238 
L 390.059065 260.770841 
L 390.143347 262.733646 
L 390.22763 258.514597 
L 390.396194 86.036225 
L 390.564758 81.061312 
L 390.64904 79.510502 
L 390.733322 80.109427 
L 390.817604 82.463081 
L 390.901886 88.375994 
L 390.986168 84.419838 
L 391.239014 92.409642 
L 391.407579 256.536462 
L 391.660425 266.028157 
L 392.081835 254.757645 
L 392.166117 259.123979 
L 392.250399 258.654614 
L 392.334681 261.298819 
L 392.418963 259.981525 
L 392.587528 252.944257 
L 392.756092 85.835413 
L 392.840374 85.796595 
L 393.09322 93.298491 
L 393.177502 250.730263 
L 393.261784 91.042867 
L 393.346066 92.431907 
L 393.51463 253.750851 
L 393.598912 253.085948 
L 393.683195 257.405679 
L 393.767477 255.745039 
L 393.851759 262.220635 
L 394.188887 252.752835 
L 394.357451 255.504376 
L 394.694579 271.818539 
L 394.778862 268.44612 
L 395.031708 252.123649 
L 395.200272 81.205953 
L 395.284554 88.415914 
L 395.621682 78.007827 
L 395.705964 78.562676 
L 396.043093 91.405617 
L 396.127375 253.466669 
L 396.211657 91.541882 
L 396.380221 254.138396 
L 396.633067 263.383954 
L 396.885913 254.487531 
L 396.970195 263.00428 
L 397.054477 261.637321 
L 397.13876 260.718067 
L 397.223042 258.341582 
L 397.307324 259.069186 
L 397.475888 253.898456 
L 397.644452 80.700128 
L 397.728734 86.106382 
L 397.897298 81.326135 
L 398.065862 69.591634 
L 398.234427 74.714363 
L 398.402991 92.429203 
L 398.487273 254.230726 
L 398.487273 254.230726 
" style="fill:none;stroke:#1f77b4;stroke-linecap:square;stroke-width:1.5;"/>
   </g>
   <g id="patch_3">
    <path d="M 57.6 307.584 
L 57.6 41.472 
" style="fill:none;stroke:#000000;stroke-linecap:square;stroke-linejoin:miter;stroke-width:0.8;"/>
   </g>
   <g id="patch_4">
    <path d="M 414.72 307.584 
L 414.72 41.472 
" style="fill:none;stroke:#000000;stroke-linecap:square;stroke-linejoin:miter;stroke-width:0.8;"/>
   </g>
   <g id="patch_5">
    <path d="M 57.6 307.584 
L 414.72 307.584 
" style="fill:none;stroke:#000000;stroke-linecap:square;stroke-linejoin:miter;stroke-width:0.8;"/>
   </g>
   <g id="patch_6">
    <path d="M 57.6 41.472 
L 414.72 41.472 
" style="fill:none;stroke:#000000;stroke-linecap:square;stroke-linejoin:miter;stroke-width:0.8;"/>
   </g>
   <g id="text_18">
    <!-- Motor 8 speed history -->
    <defs>
     <path d="M 9.8125 72.90625 
L 24.515625 72.90625 
L 43.109375 23.296875 
L 61.8125 72.90625 
L 76.515625 72.90625 
L 76.515625 0 
L 66.890625 0 
L 66.890625 64.015625 
L 48.09375 14.015625 
L 38.1875 14.015625 
L 19.390625 64.015625 
L 19.390625 0 
L 9.8125 0 
z
" id="DejaVuSans-4d"/>
     <path d="M 30.609375 48.390625 
Q 23.390625 48.390625 19.1875 42.75 
Q 14.984375 37.109375 14.984375 27.296875 
Q 14.984375 17.484375 19.15625 11.84375 
Q 23.34375 6.203125 30.609375 6.203125 
Q 37.796875 6.203125 41.984375 11.859375 
Q 46.1875 17.53125 46.1875 27.296875 
Q 46.1875 37.015625 41.984375 42.703125 
Q 37.796875 48.390625 30.609375 48.390625 
z
M 30.609375 56 
Q 42.328125 56 49.015625 48.375 
Q 55.71875 40.765625 55.71875 27.296875 
Q 55.71875 13.875 49.015625 6.21875 
Q 42.328125 -1.421875 30.609375 -1.421875 
Q 18.84375 -1.421875 12.171875 6.21875 
Q 5.515625 13.875 5.515625 27.296875 
Q 5.515625 40.765625 12.171875 48.375 
Q 18.84375 56 30.609375 56 
z
" id="DejaVuSans-6f"/>
     <path d="M 18.3125 70.21875 
L 18.3125 54.6875 
L 36.8125 54.6875 
L 36.8125 47.703125 
L 18.3125 47.703125 
L 18.3125 18.015625 
Q 18.3125 11.328125 20.140625 9.421875 
Q 21.96875 7.515625 27.59375 7.515625 
L 36.8125 7.515625 
L 36.8125 0 
L 27.59375 0 
Q 17.1875 0 13.234375 3.875 
Q 9.28125 7.765625 9.28125 18.015625 
L 9.28125 47.703125 
L 2.6875 47.703125 
L 2.6875 54.6875 
L 9.28125 54.6875 
L 9.28125 70.21875 
z
" id="DejaVuSans-74"/>
     <path d="M 41.109375 46.296875 
Q 39.59375 47.171875 37.8125 47.578125 
Q 36.03125 48 33.890625 48 
Q 26.265625 48 22.1875 43.046875 
Q 18.109375 38.09375 18.109375 28.8125 
L 18.109375 0 
L 9.078125 0 
L 9.078125 54.6875 
L 18.109375 54.6875 
L 18.109375 46.1875 
Q 20.953125 51.171875 25.484375 53.578125 
Q 30.03125 56 36.53125 56 
Q 37.453125 56 38.578125 55.875 
Q 39.703125 55.765625 41.0625 55.515625 
z
" id="DejaVuSans-72"/>
     <path id="DejaVuSans-20"/>
     <path d="M 44.28125 53.078125 
L 44.28125 44.578125 
Q 40.484375 46.53125 36.375 47.5 
Q 32.28125 48.484375 27.875 48.484375 
Q 21.1875 48.484375 17.84375 46.4375 
Q 14.5 44.390625 14.5 40.28125 
Q 14.5 37.15625 16.890625 35.375 
Q 19.28125 33.59375 26.515625 31.984375 
L 29.59375 31.296875 
Q 39.15625 29.25 43.1875 25.515625 
Q 47.21875 21.78125 47.21875 15.09375 
Q 47.21875 7.46875 41.1875 3.015625 
Q 35.15625 -1.421875 24.609375 -1.421875 
Q 20.21875 -1.421875 15.453125 -0.5625 
Q 10.6875 0.296875 5.421875 2 
L 5.421875 11.28125 
Q 10.40625 8.6875 15.234375 7.390625 
Q 20.0625 6.109375 24.8125 6.109375 
Q 31.15625 6.109375 34.5625 8.28125 
Q 37.984375 10.453125 37.984375 14.40625 
Q 37.984375 18.0625 35.515625 20.015625 
Q 33.0625 21.96875 24.703125 23.78125 
L 21.578125 24.515625 
Q 13.234375 26.265625 9.515625 29.90625 
Q 5.8125 33.546875 5.8125 39.890625 
Q 5.8125 47.609375 11.28125 51.796875 
Q 16.75 56 26.8125 56 
Q 31.78125 56 36.171875 55.265625 
Q 40.578125 54.546875 44.28125 53.078125 
z
" id="DejaVuSans-73"/>
     <path d="M 18.109375 8.203125 
L 18.109375 -20.796875 
L 9.078125 -20.796875 
L 9.078125 54.6875 
L 18.109375 54.6875 
L 18.109375 46.390625 
Q 20.953125 51.265625 25.265625 53.625 
Q 29.59375 56 35.59375 56 
Q 45.5625 56 51.78125 48.09375 
Q 58.015625 40.1875 58.015625 27.296875 
Q 58.015625 14.40625 51.78125 6.484375 
Q 45.5625 -1.421875 35.59375 -1.421875 
Q 29.59375 -1.421875 25.265625 0.953125 
Q 20.953125 3.328125 18.109375 8.203125 
z
M 48.6875 27.296875 
Q 48.6875 37.203125 44.609375 42.84375 
Q 40.53125 48.484375 33.40625 48.484375 
Q 26.265625 48.484375 22.1875 42.84375 
Q 18.109375 37.203125 18.109375 27.296875 
Q 18.109375 17.390625 22.1875 11.75 
Q 26.265625 6.109375 33.40625 6.109375 
Q 40.53125 6.109375 44.609375 11.75 
Q 48.6875 17.390625 48.6875 27.296875 
z
" id="DejaVuSans-70"/>
     <path d="M 56.203125 29.59375 
L 56.203125 25.203125 
L 14.890625 25.203125 
Q 15.484375 15.921875 20.484375 11.0625 
Q 25.484375 6.203125 34.421875 6.203125 
Q 39.59375 6.203125 44.453125 7.46875 
Q 49.3125 8.734375 54.109375 11.28125 
L 54.109375 2.78125 
Q 49.265625 0.734375 44.1875 -0.34375 
Q 39.109375 -1.421875 33.890625 -1.421875 
Q 20.796875 -1.421875 13.15625 6.1875 
Q 5.515625 13.8125 5.515625 26.8125 
Q 5.515625 40.234375 12.765625 48.109375 
Q 20.015625 56 32.328125 56 
Q 43.359375 56 49.78125 48.890625 
Q 56.203125 41.796875 56.203125 29.59375 
z
M 47.21875 32.234375 
Q 47.125 39.59375 43.09375 43.984375 
Q 39.0625 48.390625 32.421875 48.390625 
Q 24.90625 48.390625 20.390625 44.140625 
Q 15.875 39.890625 15.1875 32.171875 
z
" id="DejaVuSans-65"/>
     <path d="M 45.40625 46.390625 
L 45.40625 75.984375 
L 54.390625 75.984375 
L 54.390625 0 
L 45.40625 0 
L 45.40625 8.203125 
Q 42.578125 3.328125 38.25 0.953125 
Q 33.9375 -1.421875 27.875 -1.421875 
Q 17.96875 -1.421875 11.734375 6.484375 
Q 5.515625 14.40625 5.515625 27.296875 
Q 5.515625 40.1875 11.734375 48.09375 
Q 17.96875 56 27.875 56 
Q 33.9375 56 38.25 53.625 
Q 42.578125 51.265625 45.40625 46.390625 
z
M 14.796875 27.296875 
Q 14.796875 17.390625 18.875 11.75 
Q 22.953125 6.109375 30.078125 6.109375 
Q 37.203125 6.109375 41.296875 11.75 
Q 45.40625 17.390625 45.40625 27.296875 
Q 45.40625 37.203125 41.296875 42.84375 
Q 37.203125 48.484375 30.078125 48.484375 
Q 22.953125 48.484375 18.875 42.84375 
Q 14.796875 37.203125 14.796875 27.296875 
z
" id="DejaVuSans-64"/>
     <path d="M 54.890625 33.015625 
L 54.890625 0 
L 45.90625 0 
L 45.90625 32.71875 
Q 45.90625 40.484375 42.875 44.328125 
Q 39.84375 48.1875 33.796875 48.1875 
Q 26.515625 48.1875 22.3125 43.546875 
Q 18.109375 38.921875 18.109375 30.90625 
L 18.109375 0 
L 9.078125 0 
L 9.078125 75.984375 
L 18.109375 75.984375 
L 18.109375 46.1875 
Q 21.34375 51.125 25.703125 53.5625 
Q 30.078125 56 35.796875 56 
Q 45.21875 56 50.046875 50.171875 
Q 54.890625 44.34375 54.890625 33.015625 
z
" id="DejaVuSans-68"/>
     <path d="M 9.421875 54.6875 
L 18.40625 54.6875 
L 18.40625 0 
L 9.421875 0 
z
M 9.421875 75.984375 
L 18.40625 75.984375 
L 18.40625 64.59375 
L 9.421875 64.59375 
z
" id="DejaVuSans-69"/>
     <path d="M 32.171875 -5.078125 
Q 28.375 -14.84375 24.75 -17.8125 
Q 21.140625 -20.796875 15.09375 -20.796875 
L 7.90625 -20.796875 
L 7.90625 -13.28125 
L 13.1875 -13.28125 
Q 16.890625 -13.28125 18.9375 -11.515625 
Q 21 -9.765625 23.484375 -3.21875 
L 25.09375 0.875 
L 2.984375 54.6875 
L 12.5 54.6875 
L 29.59375 11.921875 
L 46.6875 54.6875 
L 56.203125 54.6875 
z
" id="DejaVuSans-79"/>
    </defs>
    <g transform="translate(170.52 35.472)scale(0.12 -0.12)">
     <use xlink:href="#DejaVuSans-4d"/>
     <use x="86.279297" xlink:href="#DejaVuSans-6f"/>
     <use x="147.460938" xlink:href="#DejaVuSans-74"/>
     <use x="186.669922" xlink:href="#DejaVuSans-6f"/>
     <use x="247.851562" xlink:href="#DejaVuSans-72"/>
     <use x="288.964844" xlink:href="#DejaVuSans-20"/>
     <use x="320.751953" xlink:href="#DejaVuSans-38"/>
     <use x="384.375" xlink:href="#DejaVuSans-20"/>
     <use x="416.162109" xlink:href="#DejaVuSans-73"/>
     <use x="468.261719" xlink:href="#DejaVuSans-70"/>
     <use x="531.738281" xlink:href="#DejaVuSans-65"/>
     <use x="593.261719" xlink:href="#DejaVuSans-65"/>
     <use x="654.785156" xlink:href="#DejaVuSans-64"/>
     <use x="718.261719" xlink:href="#DejaVuSans-20"/>
     <use x="750.048828" xlink:href="#DejaVuSans-68"/>
     <use x="813.427734" xlink:href="#DejaVuSans-69"/>
     <use x="841.210938" xlink:href="#DejaVuSans-73"/>
     <use x="893.310547" xlink:href="#DejaVuSans-74"/>
     <use x="932.519531" xlink:href="#DejaVuSans-6f"/>
     <use x="993.701172" xlink:href="#DejaVuSans-72"/>
     <use x="1034.814453" xlink:href="#DejaVuSans-79"/>
    </g>
   </g>
   <g id="legend_1">
    <g id="patch_7">
     <path d="M 64.6 302.584 
L 120.867188 302.584 
Q 122.867188 302.584 122.867188 300.584 
L 122.867188 286.905875 
Q 122.867188 284.905875 120.867188 284.905875 
L 64.6 284.905875 
Q 62.6 284.905875 62.6 286.905875 
L 62.6 300.584 
Q 62.6 302.584 64.6 302.584 
z
" style="fill:#ffffff;opacity:0.8;stroke:#cccccc;stroke-linejoin:miter;"/>
    </g>
    <g id="line2d_19">
     <path d="M 66.6 293.004312 
L 86.6 293.004312 
" style="fill:none;stroke:#1f77b4;stroke-linecap:square;stroke-width:1.5;"/>
    </g>
    <g id="line2d_20"/>
    <g id="text_19">
     <!-- pwm -->
     <defs>
      <path d="M 4.203125 54.6875 
L 13.1875 54.6875 
L 24.421875 12.015625 
L 35.59375 54.6875 
L 46.1875 54.6875 
L 57.421875 12.015625 
L 68.609375 54.6875 
L 77.59375 54.6875 
L 63.28125 0 
L 52.6875 0 
L 40.921875 44.828125 
L 29.109375 0 
L 18.5 0 
z
" id="DejaVuSans-77"/>
      <path d="M 52 44.1875 
Q 55.375 50.25 60.0625 53.125 
Q 64.75 56 71.09375 56 
Q 79.640625 56 84.28125 50.015625 
Q 88.921875 44.046875 88.921875 33.015625 
L 88.921875 0 
L 79.890625 0 
L 79.890625 32.71875 
Q 79.890625 40.578125 77.09375 44.375 
Q 74.3125 48.1875 68.609375 48.1875 
Q 61.625 48.1875 57.5625 43.546875 
Q 53.515625 38.921875 53.515625 30.90625 
L 53.515625 0 
L 44.484375 0 
L 44.484375 32.71875 
Q 44.484375 40.625 41.703125 44.40625 
Q 38.921875 48.1875 33.109375 48.1875 
Q 26.21875 48.1875 22.15625 43.53125 
Q 18.109375 38.875 18.109375 30.90625 
L 18.109375 0 
L 9.078125 0 
L 9.078125 54.6875 
L 18.109375 54.6875 
L 18.109375 46.1875 
Q 21.1875 51.21875 25.484375 53.609375 
Q 29.78125 56 35.6875 56 
Q 41.65625 56 45.828125 52.96875 
Q 50 49.953125 52 44.1875 
z
" id="DejaVuSans-6d"/>
     </defs>
     <g transform="translate(94.6 296.504312)scale(0.1 -0.1)">
      <use xlink:href="#DejaVuSans-70"/>
      <use x="63.476562" xlink:href="#DejaVuSans-77"/>
      <use x="145.263672" xlink:href="#DejaVuSans-6d"/>
     </g>
    </g>
   </g>
  </g>
 </g>
 <defs>
  <clipPath id="p1845af37d0">
   <rect height="266.112" width="357.12" x="57.6" y="41.472"/>
  </clipPath>
 </defs>
</svg>
