<?xml version="1.0" encoding="utf-8" standalone="no"?>
<!DOCTYPE svg PUBLIC "-//W3C//DTD SVG 1.1//EN"
  "http://www.w3.org/Graphics/SVG/1.1/DTD/svg11.dtd">
<!-- Created with matplotlib (http://matplotlib.org/) -->
<svg height="345pt" version="1.1" viewBox="0 0 460 345" width="460pt" xmlns="http://www.w3.org/2000/svg" xmlns:xlink="http://www.w3.org/1999/xlink">
 <defs>
  <style type="text/css">
*{stroke-linecap:butt;stroke-linejoin:round;}
  </style>
 </defs>
 <g id="figure_1">
  <g id="patch_1">
   <path d="M 0 345.6 
L 460.8 345.6 
L 460.8 0 
L 0 0 
z
" style="fill:#ffffff;"/>
  </g>
  <g id="axes_1">
   <g id="patch_2">
    <path d="M 57.6 307.584 
L 414.72 307.584 
L 414.72 41.472 
L 57.6 41.472 
z
" style="fill:#ffffff;"/>
   </g>
   <g id="matplotlib.axis_1">
    <g id="xtick_1">
     <g id="line2d_1">
      <defs>
       <path d="M 0 0 
L 0 3.5 
" id="mb8a5360822" style="stroke:#000000;stroke-width:0.8;"/>
      </defs>
      <g>
       <use style="stroke:#000000;stroke-width:0.8;" x="73.832727" xlink:href="#mb8a5360822" y="307.584"/>
      </g>
     </g>
     <g id="text_1">
      <!-- 0 -->
      <defs>
       <path d="M 31.78125 66.40625 
Q 24.171875 66.40625 20.328125 58.90625 
Q 16.5 51.421875 16.5 36.375 
Q 16.5 21.390625 20.328125 13.890625 
Q 24.171875 6.390625 31.78125 6.390625 
Q 39.453125 6.390625 43.28125 13.890625 
Q 47.125 21.390625 47.125 36.375 
Q 47.125 51.421875 43.28125 58.90625 
Q 39.453125 66.40625 31.78125 66.40625 
z
M 31.78125 74.21875 
Q 44.046875 74.21875 50.515625 64.515625 
Q 56.984375 54.828125 56.984375 36.375 
Q 56.984375 17.96875 50.515625 8.265625 
Q 44.046875 -1.421875 31.78125 -1.421875 
Q 19.53125 -1.421875 13.0625 8.265625 
Q 6.59375 17.96875 6.59375 36.375 
Q 6.59375 54.828125 13.0625 64.515625 
Q 19.53125 74.21875 31.78125 74.21875 
z
" id="DejaVuSans-30"/>
      </defs>
      <g transform="translate(70.651477 322.182437)scale(0.1 -0.1)">
       <use xlink:href="#DejaVuSans-30"/>
      </g>
     </g>
    </g>
    <g id="xtick_2">
     <g id="line2d_2">
      <g>
       <use style="stroke:#000000;stroke-width:0.8;" x="136.811301" xlink:href="#mb8a5360822" y="307.584"/>
      </g>
     </g>
     <g id="text_2">
      <!-- 200 -->
      <defs>
       <path d="M 19.1875 8.296875 
L 53.609375 8.296875 
L 53.609375 0 
L 7.328125 0 
L 7.328125 8.296875 
Q 12.9375 14.109375 22.625 23.890625 
Q 32.328125 33.6875 34.8125 36.53125 
Q 39.546875 41.84375 41.421875 45.53125 
Q 43.3125 49.21875 43.3125 52.78125 
Q 43.3125 58.59375 39.234375 62.25 
Q 35.15625 65.921875 28.609375 65.921875 
Q 23.96875 65.921875 18.8125 64.3125 
Q 13.671875 62.703125 7.8125 59.421875 
L 7.8125 69.390625 
Q 13.765625 71.78125 18.9375 73 
Q 24.125 74.21875 28.421875 74.21875 
Q 39.75 74.21875 46.484375 68.546875 
Q 53.21875 62.890625 53.21875 53.421875 
Q 53.21875 48.921875 51.53125 44.890625 
Q 49.859375 40.875 45.40625 35.40625 
Q 44.1875 33.984375 37.640625 27.21875 
Q 31.109375 20.453125 19.1875 8.296875 
z
" id="DejaVuSans-32"/>
      </defs>
      <g transform="translate(127.267551 322.182437)scale(0.1 -0.1)">
       <use xlink:href="#DejaVuSans-32"/>
       <use x="63.623047" xlink:href="#DejaVuSans-30"/>
       <use x="127.246094" xlink:href="#DejaVuSans-30"/>
      </g>
     </g>
    </g>
    <g id="xtick_3">
     <g id="line2d_3">
      <g>
       <use style="stroke:#000000;stroke-width:0.8;" x="199.789874" xlink:href="#mb8a5360822" y="307.584"/>
      </g>
     </g>
     <g id="text_3">
      <!-- 400 -->
      <defs>
       <path d="M 37.796875 64.3125 
L 12.890625 25.390625 
L 37.796875 25.390625 
z
M 35.203125 72.90625 
L 47.609375 72.90625 
L 47.609375 25.390625 
L 58.015625 25.390625 
L 58.015625 17.1875 
L 47.609375 17.1875 
L 47.609375 0 
L 37.796875 0 
L 37.796875 17.1875 
L 4.890625 17.1875 
L 4.890625 26.703125 
z
" id="DejaVuSans-34"/>
      </defs>
      <g transform="translate(190.246124 322.182437)scale(0.1 -0.1)">
       <use xlink:href="#DejaVuSans-34"/>
       <use x="63.623047" xlink:href="#DejaVuSans-30"/>
       <use x="127.246094" xlink:href="#DejaVuSans-30"/>
      </g>
     </g>
    </g>
    <g id="xtick_4">
     <g id="line2d_4">
      <g>
       <use style="stroke:#000000;stroke-width:0.8;" x="262.768447" xlink:href="#mb8a5360822" y="307.584"/>
      </g>
     </g>
     <g id="text_4">
      <!-- 600 -->
      <defs>
       <path d="M 33.015625 40.375 
Q 26.375 40.375 22.484375 35.828125 
Q 18.609375 31.296875 18.609375 23.390625 
Q 18.609375 15.53125 22.484375 10.953125 
Q 26.375 6.390625 33.015625 6.390625 
Q 39.65625 6.390625 43.53125 10.953125 
Q 47.40625 15.53125 47.40625 23.390625 
Q 47.40625 31.296875 43.53125 35.828125 
Q 39.65625 40.375 33.015625 40.375 
z
M 52.59375 71.296875 
L 52.59375 62.3125 
Q 48.875 64.0625 45.09375 64.984375 
Q 41.3125 65.921875 37.59375 65.921875 
Q 27.828125 65.921875 22.671875 59.328125 
Q 17.53125 52.734375 16.796875 39.40625 
Q 19.671875 43.65625 24.015625 45.921875 
Q 28.375 48.1875 33.59375 48.1875 
Q 44.578125 48.1875 50.953125 41.515625 
Q 57.328125 34.859375 57.328125 23.390625 
Q 57.328125 12.15625 50.6875 5.359375 
Q 44.046875 -1.421875 33.015625 -1.421875 
Q 20.359375 -1.421875 13.671875 8.265625 
Q 6.984375 17.96875 6.984375 36.375 
Q 6.984375 53.65625 15.1875 63.9375 
Q 23.390625 74.21875 37.203125 74.21875 
Q 40.921875 74.21875 44.703125 73.484375 
Q 48.484375 72.75 52.59375 71.296875 
z
" id="DejaVuSans-36"/>
      </defs>
      <g transform="translate(253.224697 322.182437)scale(0.1 -0.1)">
       <use xlink:href="#DejaVuSans-36"/>
       <use x="63.623047" xlink:href="#DejaVuSans-30"/>
       <use x="127.246094" xlink:href="#DejaVuSans-30"/>
      </g>
     </g>
    </g>
    <g id="xtick_5">
     <g id="line2d_5">
      <g>
       <use style="stroke:#000000;stroke-width:0.8;" x="325.747021" xlink:href="#mb8a5360822" y="307.584"/>
      </g>
     </g>
     <g id="text_5">
      <!-- 800 -->
      <defs>
       <path d="M 31.78125 34.625 
Q 24.75 34.625 20.71875 30.859375 
Q 16.703125 27.09375 16.703125 20.515625 
Q 16.703125 13.921875 20.71875 10.15625 
Q 24.75 6.390625 31.78125 6.390625 
Q 38.8125 6.390625 42.859375 10.171875 
Q 46.921875 13.96875 46.921875 20.515625 
Q 46.921875 27.09375 42.890625 30.859375 
Q 38.875 34.625 31.78125 34.625 
z
M 21.921875 38.8125 
Q 15.578125 40.375 12.03125 44.71875 
Q 8.5 49.078125 8.5 55.328125 
Q 8.5 64.0625 14.71875 69.140625 
Q 20.953125 74.21875 31.78125 74.21875 
Q 42.671875 74.21875 48.875 69.140625 
Q 55.078125 64.0625 55.078125 55.328125 
Q 55.078125 49.078125 51.53125 44.71875 
Q 48 40.375 41.703125 38.8125 
Q 48.828125 37.15625 52.796875 32.3125 
Q 56.78125 27.484375 56.78125 20.515625 
Q 56.78125 9.90625 50.3125 4.234375 
Q 43.84375 -1.421875 31.78125 -1.421875 
Q 19.734375 -1.421875 13.25 4.234375 
Q 6.78125 9.90625 6.78125 20.515625 
Q 6.78125 27.484375 10.78125 32.3125 
Q 14.796875 37.15625 21.921875 38.8125 
z
M 18.3125 54.390625 
Q 18.3125 48.734375 21.84375 45.5625 
Q 25.390625 42.390625 31.78125 42.390625 
Q 38.140625 42.390625 41.71875 45.5625 
Q 45.3125 48.734375 45.3125 54.390625 
Q 45.3125 60.0625 41.71875 63.234375 
Q 38.140625 66.40625 31.78125 66.40625 
Q 25.390625 66.40625 21.84375 63.234375 
Q 18.3125 60.0625 18.3125 54.390625 
z
" id="DejaVuSans-38"/>
      </defs>
      <g transform="translate(316.203271 322.182437)scale(0.1 -0.1)">
       <use xlink:href="#DejaVuSans-38"/>
       <use x="63.623047" xlink:href="#DejaVuSans-30"/>
       <use x="127.246094" xlink:href="#DejaVuSans-30"/>
      </g>
     </g>
    </g>
    <g id="xtick_6">
     <g id="line2d_6">
      <g>
       <use style="stroke:#000000;stroke-width:0.8;" x="388.725594" xlink:href="#mb8a5360822" y="307.584"/>
      </g>
     </g>
     <g id="text_6">
      <!-- 1000 -->
      <defs>
       <path d="M 12.40625 8.296875 
L 28.515625 8.296875 
L 28.515625 63.921875 
L 10.984375 60.40625 
L 10.984375 69.390625 
L 28.421875 72.90625 
L 38.28125 72.90625 
L 38.28125 8.296875 
L 54.390625 8.296875 
L 54.390625 0 
L 12.40625 0 
z
" id="DejaVuSans-31"/>
      </defs>
      <g transform="translate(376.000594 322.182437)scale(0.1 -0.1)">
       <use xlink:href="#DejaVuSans-31"/>
       <use x="63.623047" xlink:href="#DejaVuSans-30"/>
       <use x="127.246094" xlink:href="#DejaVuSans-30"/>
       <use x="190.869141" xlink:href="#DejaVuSans-30"/>
      </g>
     </g>
    </g>
   </g>
   <g id="matplotlib.axis_2">
    <g id="ytick_1">
     <g id="line2d_7">
      <defs>
       <path d="M 0 0 
L -3.5 0 
" id="md7b4bcaddc" style="stroke:#000000;stroke-width:0.8;"/>
      </defs>
      <g>
       <use style="stroke:#000000;stroke-width:0.8;" x="57.6" xlink:href="#md7b4bcaddc" y="277.656266"/>
      </g>
     </g>
     <g id="text_7">
      <!-- 1460 -->
      <g transform="translate(25.15 281.455484)scale(0.1 -0.1)">
       <use xlink:href="#DejaVuSans-31"/>
       <use x="63.623047" xlink:href="#DejaVuSans-34"/>
       <use x="127.246094" xlink:href="#DejaVuSans-36"/>
       <use x="190.869141" xlink:href="#DejaVuSans-30"/>
      </g>
     </g>
    </g>
    <g id="ytick_2">
     <g id="line2d_8">
      <g>
       <use style="stroke:#000000;stroke-width:0.8;" x="57.6" xlink:href="#md7b4bcaddc" y="219.020238"/>
      </g>
     </g>
     <g id="text_8">
      <!-- 1480 -->
      <g transform="translate(25.15 222.819457)scale(0.1 -0.1)">
       <use xlink:href="#DejaVuSans-31"/>
       <use x="63.623047" xlink:href="#DejaVuSans-34"/>
       <use x="127.246094" xlink:href="#DejaVuSans-38"/>
       <use x="190.869141" xlink:href="#DejaVuSans-30"/>
      </g>
     </g>
    </g>
    <g id="ytick_3">
     <g id="line2d_9">
      <g>
       <use style="stroke:#000000;stroke-width:0.8;" x="57.6" xlink:href="#md7b4bcaddc" y="160.38421"/>
      </g>
     </g>
     <g id="text_9">
      <!-- 1500 -->
      <defs>
       <path d="M 10.796875 72.90625 
L 49.515625 72.90625 
L 49.515625 64.59375 
L 19.828125 64.59375 
L 19.828125 46.734375 
Q 21.96875 47.46875 24.109375 47.828125 
Q 26.265625 48.1875 28.421875 48.1875 
Q 40.625 48.1875 47.75 41.5 
Q 54.890625 34.8125 54.890625 23.390625 
Q 54.890625 11.625 47.5625 5.09375 
Q 40.234375 -1.421875 26.90625 -1.421875 
Q 22.3125 -1.421875 17.546875 -0.640625 
Q 12.796875 0.140625 7.71875 1.703125 
L 7.71875 11.625 
Q 12.109375 9.234375 16.796875 8.0625 
Q 21.484375 6.890625 26.703125 6.890625 
Q 35.15625 6.890625 40.078125 11.328125 
Q 45.015625 15.765625 45.015625 23.390625 
Q 45.015625 31 40.078125 35.4375 
Q 35.15625 39.890625 26.703125 39.890625 
Q 22.75 39.890625 18.8125 39.015625 
Q 14.890625 38.140625 10.796875 36.28125 
z
" id="DejaVuSans-35"/>
      </defs>
      <g transform="translate(25.15 164.183429)scale(0.1 -0.1)">
       <use xlink:href="#DejaVuSans-31"/>
       <use x="63.623047" xlink:href="#DejaVuSans-35"/>
       <use x="127.246094" xlink:href="#DejaVuSans-30"/>
       <use x="190.869141" xlink:href="#DejaVuSans-30"/>
      </g>
     </g>
    </g>
    <g id="ytick_4">
     <g id="line2d_10">
      <g>
       <use style="stroke:#000000;stroke-width:0.8;" x="57.6" xlink:href="#md7b4bcaddc" y="101.748183"/>
      </g>
     </g>
     <g id="text_10">
      <!-- 1520 -->
      <g transform="translate(25.15 105.547401)scale(0.1 -0.1)">
       <use xlink:href="#DejaVuSans-31"/>
       <use x="63.623047" xlink:href="#DejaVuSans-35"/>
       <use x="127.246094" xlink:href="#DejaVuSans-32"/>
       <use x="190.869141" xlink:href="#DejaVuSans-30"/>
      </g>
     </g>
    </g>
    <g id="ytick_5">
     <g id="line2d_11">
      <g>
       <use style="stroke:#000000;stroke-width:0.8;" x="57.6" xlink:href="#md7b4bcaddc" y="43.112155"/>
      </g>
     </g>
     <g id="text_11">
      <!-- 1540 -->
      <g transform="translate(25.15 46.911374)scale(0.1 -0.1)">
       <use xlink:href="#DejaVuSans-31"/>
       <use x="63.623047" xlink:href="#DejaVuSans-35"/>
       <use x="127.246094" xlink:href="#DejaVuSans-34"/>
       <use x="190.869141" xlink:href="#DejaVuSans-30"/>
      </g>
     </g>
    </g>
   </g>
   <g id="line2d_12">
    <path clip-path="url(#pc8c9ff6db1)" d="M 73.832727 274.790711 
L 74.462513 288.976157 
L 74.777406 293.037428 
L 75.092299 295.38786 
L 75.407192 295.488 
L 76.036977 286.738195 
L 76.35187 289.822729 
L 76.666763 291.690585 
L 77.611442 282.753665 
L 77.926335 283.17783 
L 78.241227 279.301517 
L 78.55612 278.767551 
L 78.871013 272.858788 
L 79.185906 269.148699 
L 79.500799 267.475136 
L 79.815692 264.406795 
L 80.130585 259.695495 
L 80.445477 257.44127 
L 80.76037 263.679264 
L 81.075263 261.69117 
L 81.390156 250.951845 
L 81.705049 250.30153 
L 82.019942 98.269488 
L 82.334835 249.720388 
L 82.649728 249.421464 
L 82.96462 251.899275 
L 83.279513 257.02377 
L 83.594406 257.49242 
L 83.909299 262.962411 
L 84.224192 266.009549 
L 84.539085 267.499994 
L 84.853978 268.015776 
L 85.16887 269.470925 
L 85.483763 268.630599 
L 86.113549 272.489155 
L 86.428442 280.190345 
L 86.743335 280.227213 
L 87.058228 274.5113 
L 87.373121 271.97991 
L 87.688013 271.590686 
L 88.002906 270.178075 
L 88.317799 273.846344 
L 88.632692 273.359473 
L 88.947585 268.381766 
L 89.262478 267.448929 
L 90.522049 252.838069 
L 91.151835 248.599391 
L 91.466728 100.729684 
L 92.096514 96.818296 
L 92.411406 97.886633 
L 92.726299 96.304417 
L 93.041192 101.040741 
L 93.356085 255.123475 
L 93.670978 259.205141 
L 93.985871 260.307119 
L 94.300764 259.691483 
L 94.615656 261.36334 
L 94.930549 268.071803 
L 95.560335 272.67389 
L 95.875228 273.17659 
L 96.505014 267.864389 
L 96.819907 267.108883 
L 97.134799 268.647943 
L 97.449692 268.224665 
L 97.764585 267.422932 
L 98.079478 267.389398 
L 98.394371 270.332512 
L 98.709264 270.344509 
L 99.024157 269.256639 
L 99.339049 269.036789 
L 99.653942 263.927714 
L 99.968835 272.622651 
L 100.283728 272.108358 
L 100.598621 263.168545 
L 100.913514 260.405088 
L 101.228407 261.542066 
L 101.5433 258.139203 
L 101.858192 257.50335 
L 102.487978 249.842307 
L 102.802871 249.637926 
L 103.117764 101.470208 
L 103.432657 94.41981 
L 103.74755 92.7298 
L 104.062442 91.89145 
L 104.377335 90.650654 
L 104.692228 89.908333 
L 105.322014 100.164258 
L 105.636907 249.210255 
L 106.581585 257.429886 
L 106.896478 257.188088 
L 107.211371 261.621473 
L 107.526264 263.695103 
L 107.841157 262.238551 
L 108.15605 262.811246 
L 108.470943 262.922644 
L 109.415621 257.440032 
L 109.730514 262.206228 
L 110.045407 260.415705 
L 110.3603 255.101225 
L 110.990086 248.730461 
L 111.304978 93.408779 
L 111.619871 90.663799 
L 111.934764 92.623342 
L 112.249657 90.825143 
L 112.56455 86.38946 
L 112.879443 93.093803 
L 113.194336 95.069624 
L 113.509228 94.116292 
L 113.824121 94.981382 
L 114.139014 88.514601 
L 114.453907 91.48227 
L 114.7688 92.505316 
L 115.083693 253.663094 
L 115.398586 255.911233 
L 115.713479 251.632941 
L 116.028371 252.951879 
L 116.343264 253.747555 
L 116.658157 252.255948 
L 116.97305 252.864934 
L 117.287943 252.517966 
L 117.602836 257.206582 
L 117.917729 255.484556 
L 118.232621 101.457026 
L 118.547514 97.49204 
L 119.1773 95.487712 
L 119.492193 93.758202 
L 119.807086 89.063206 
L 120.121979 89.940284 
L 120.436872 92.540293 
L 120.751764 93.381101 
L 121.066657 88.31468 
L 121.38155 89.104432 
L 121.696443 92.574902 
L 122.011336 87.89538 
L 122.326229 91.218328 
L 122.641122 98.060358 
L 122.956014 250.044323 
L 123.5858 261.243389 
L 123.900693 261.141387 
L 124.215586 269.2966 
L 124.530479 270.816497 
L 124.845372 265.325282 
L 125.160265 264.601673 
L 125.475157 261.249722 
L 125.79005 259.182225 
L 126.104943 262.460852 
L 126.419836 268.372518 
L 126.734729 264.672254 
L 127.049622 255.106699 
L 127.364515 250.438842 
L 127.679407 255.051713 
L 127.9943 252.040545 
L 128.309193 96.129211 
L 128.624086 91.038557 
L 128.938979 83.833326 
L 129.253872 89.1918 
L 129.568765 89.6202 
L 129.883658 94.026864 
L 130.19855 96.313694 
L 130.513443 90.094225 
L 131.143229 92.235651 
L 131.458122 84.023733 
L 131.773015 84.173684 
L 132.087908 90.779783 
L 132.4028 84.324886 
L 132.717693 84.844369 
L 133.032586 89.291204 
L 133.347479 88.822798 
L 133.662372 86.153338 
L 133.977265 85.794796 
L 134.292158 91.217671 
L 134.607051 91.395986 
L 134.921943 84.277206 
L 135.236836 84.353214 
L 135.551729 86.635323 
L 135.866622 86.5624 
L 136.181515 87.301439 
L 136.496408 87.432276 
L 137.126193 89.035174 
L 137.441086 89.461866 
L 137.755979 97.109325 
L 138.070872 97.897312 
L 138.385765 96.099895 
L 138.700658 91.763057 
L 139.015551 92.405324 
L 139.330444 95.490384 
L 139.645336 95.647335 
L 139.960229 94.182516 
L 140.275122 94.785281 
L 140.590015 89.233496 
L 140.904908 89.362727 
L 141.219801 88.712228 
L 141.534694 90.254385 
L 141.849586 98.255843 
L 142.164479 248.624472 
L 142.479372 250.586858 
L 143.109158 256.633809 
L 143.424051 256.709459 
L 143.738944 253.241325 
L 144.053837 99.828641 
L 144.368729 98.575312 
L 144.683622 250.145664 
L 144.998515 248.853282 
L 145.313408 252.251364 
L 145.628301 249.966426 
L 145.943194 88.125273 
L 146.258087 84.955862 
L 146.572979 90.381831 
L 146.887872 85.708092 
L 147.202765 83.735134 
L 147.517658 87.326576 
L 147.832551 89.46536 
L 148.147444 88.922609 
L 148.462337 90.466938 
L 148.77723 92.717786 
L 149.092122 93.320105 
L 149.407015 95.662979 
L 149.721908 96.873644 
L 150.036801 100.574185 
L 150.351694 99.357376 
L 150.666587 249.666213 
L 150.98148 253.45986 
L 151.296372 255.782723 
L 151.611265 252.916611 
L 151.926158 252.580516 
L 152.241051 256.049471 
L 152.555944 252.793375 
L 152.870837 254.339732 
L 153.18573 259.214704 
L 153.500623 256.953116 
L 153.815515 101.187066 
L 154.130408 97.847059 
L 154.445301 98.579676 
L 154.760194 96.83967 
L 155.38998 95.094672 
L 155.704873 94.937403 
L 156.019765 92.498679 
L 156.964444 99.581604 
L 157.279337 249.06409 
L 157.59423 253.35723 
L 157.909123 256.040895 
L 158.224016 264.927997 
L 158.853801 267.679156 
L 159.168694 268.251527 
L 159.483587 257.541587 
L 159.79848 257.407688 
L 160.113373 254.874906 
L 160.428266 259.4624 
L 160.743158 258.414422 
L 161.372944 251.406064 
L 161.687837 99.405433 
L 162.00273 95.67344 
L 162.317623 100.500207 
L 162.632516 91.913606 
L 162.947409 89.359929 
L 163.262301 94.055502 
L 163.577194 94.834745 
L 163.892087 96.252469 
L 164.20698 98.625876 
L 164.521873 95.517446 
L 165.151659 99.58195 
L 165.466551 252.715671 
L 165.781444 256.697621 
L 166.096337 255.487952 
L 166.41123 258.231763 
L 166.726123 266.585035 
L 167.041016 267.228026 
L 167.355909 257.181165 
L 167.670802 256.367376 
L 167.985694 254.662944 
L 168.300587 260.67013 
L 168.61548 260.052135 
L 168.930373 251.752123 
L 169.245266 251.402625 
L 169.875052 263.555098 
L 170.189944 260.202339 
L 170.504837 253.575407 
L 170.81973 251.383464 
L 171.134623 99.122193 
L 171.764409 94.510327 
L 172.079302 82.683873 
L 172.394195 82.42381 
L 172.709087 94.022529 
L 173.02398 96.604297 
L 173.338873 101.128053 
L 173.653766 252.433106 
L 173.968659 259.755778 
L 174.283552 263.185411 
L 174.598445 260.645918 
L 174.913337 262.413762 
L 175.22823 266.427681 
L 175.858016 270.479076 
L 176.172909 266.642301 
L 176.487802 264.520892 
L 177.117588 256.377686 
L 177.43248 254.232299 
L 177.747373 250.372479 
L 178.062266 250.904775 
L 178.377159 248.608703 
L 178.692052 97.130554 
L 179.006945 95.14697 
L 179.321838 97.177245 
L 179.63673 92.386732 
L 179.951623 93.283441 
L 180.266516 97.486766 
L 180.581409 98.985169 
L 181.211195 100.53048 
L 181.840981 101.607046 
L 182.155873 250.061461 
L 182.470766 98.874025 
L 182.785659 99.572575 
L 183.100552 98.169918 
L 183.415445 98.057788 
L 183.730338 99.685111 
L 184.045231 99.26797 
L 184.360123 249.494026 
L 184.675016 252.765978 
L 184.989909 259.284409 
L 185.304802 262.525591 
L 185.619695 258.472882 
L 185.934588 258.110111 
L 186.249481 252.338799 
L 186.564374 251.438376 
L 186.879266 257.500643 
L 187.194159 256.492033 
L 187.509052 256.850638 
L 187.823945 99.857747 
L 188.138838 94.989749 
L 188.453731 95.312443 
L 188.768624 90.720475 
L 189.083516 88.681817 
L 189.398409 88.995553 
L 189.713302 89.128978 
L 190.343088 96.196839 
L 190.657981 96.588775 
L 190.972874 92.750605 
L 191.287767 92.75533 
L 191.602659 92.484462 
L 191.917552 93.626162 
L 192.232445 96.617973 
L 192.547338 97.359893 
L 192.862231 96.958529 
L 193.177124 249.434473 
L 193.492017 254.741283 
L 194.121802 268.455612 
L 194.436695 271.834429 
L 194.751588 272.860733 
L 195.066481 271.331378 
L 195.381374 273.747101 
L 195.696267 270.364474 
L 196.01116 264.457542 
L 196.326052 266.947047 
L 197.270731 254.425543 
L 197.585624 257.628735 
L 198.21541 251.173052 
L 198.530302 100.625785 
L 199.160088 99.668566 
L 199.474981 97.260508 
L 199.789874 96.310686 
L 200.104767 99.12122 
L 200.41966 250.862669 
L 201.364338 261.347712 
L 201.679231 261.370575 
L 201.994124 263.498191 
L 202.309017 266.868341 
L 202.62391 268.236539 
L 202.938803 268.562971 
L 203.253695 267.820452 
L 203.883481 258.361949 
L 204.198374 257.072141 
L 204.82816 249.603182 
L 205.143053 253.97458 
L 205.772838 249.409815 
L 206.087731 101.523484 
L 206.402624 101.014264 
L 206.717517 98.348324 
L 207.03241 91.426532 
L 207.347303 89.698522 
L 207.662196 92.95569 
L 207.977088 94.656994 
L 208.291981 89.41585 
L 209.23666 94.187231 
L 209.551553 95.630743 
L 209.866446 89.325297 
L 210.181339 88.92797 
L 210.496231 91.689157 
L 210.811124 93.077987 
L 211.126017 98.04262 
L 211.44091 248.926395 
L 212.070696 254.568391 
L 212.385589 254.074584 
L 213.330267 260.13498 
L 213.64516 261.608559 
L 213.960053 260.561655 
L 214.274946 257.719246 
L 214.589839 252.015723 
L 214.904732 101.560026 
L 215.534517 88.684347 
L 215.84941 83.438495 
L 216.164303 75.573058 
L 217.108982 61.916475 
L 217.423874 64.712228 
L 217.738767 65.816191 
L 218.05366 69.66979 
L 218.368553 56.179794 
L 218.683446 59.508168 
L 219.313232 69.761373 
L 220.25791 81.712304 
L 220.572803 88.518395 
L 220.887696 90.544487 
L 221.517482 98.98865 
L 221.832375 249.256154 
L 222.147267 249.836241 
L 222.46216 251.935715 
L 222.777053 252.473948 
L 223.091946 252.727422 
L 223.406839 250.194296 
L 223.721732 100.033353 
L 224.036625 93.341799 
L 224.981303 81.821307 
L 225.296196 84.591934 
L 225.611089 81.675184 
L 225.925982 75.191303 
L 226.240875 73.857749 
L 226.555768 73.289686 
L 226.87066 75.433097 
L 227.185553 76.163002 
L 227.500446 84.343961 
L 227.815339 87.547268 
L 228.130232 88.825417 
L 228.445125 90.616702 
L 228.760018 89.104445 
L 229.074911 92.132524 
L 229.389803 88.644064 
L 229.704696 95.642419 
L 230.019589 97.112101 
L 230.334482 96.650578 
L 230.649375 98.067709 
L 230.964268 98.053754 
L 231.279161 96.69593 
L 231.594053 97.800979 
L 231.908946 95.221438 
L 232.223839 88.450309 
L 232.538732 88.707779 
L 232.853625 84.957632 
L 233.168518 85.145752 
L 233.483411 85.87311 
L 234.113196 90.632037 
L 234.428089 87.530402 
L 234.742982 89.431144 
L 235.057875 94.210069 
L 235.372768 93.778409 
L 235.687661 98.254821 
L 236.002554 251.201599 
L 236.947232 263.653102 
L 237.262125 263.071866 
L 237.577018 260.143086 
L 237.891911 260.220283 
L 238.206804 257.394411 
L 238.521696 256.596684 
L 239.151482 251.871115 
L 239.466375 101.575286 
L 239.781268 99.874556 
L 240.725947 92.83513 
L 241.040839 91.725206 
L 241.670625 87.517514 
L 241.985518 87.439591 
L 242.300411 88.433651 
L 242.615304 89.826089 
L 243.245089 86.889654 
L 243.559982 88.185363 
L 244.189768 96.282 
L 244.504661 97.357566 
L 244.819554 99.639748 
L 245.134447 249.582949 
L 245.764232 253.727728 
L 246.079125 258.534293 
L 246.394018 259.614863 
L 246.708911 259.407232 
L 247.023804 258.182415 
L 247.968482 248.581765 
L 248.283375 99.655904 
L 248.598268 98.817838 
L 248.913161 250.60896 
L 249.228054 248.90342 
L 249.542947 249.700229 
L 249.85784 248.751131 
L 250.172733 248.401872 
L 250.487625 249.086199 
L 250.802518 99.402071 
L 251.117411 94.553935 
L 251.432304 92.981459 
L 251.747197 88.021779 
L 252.06209 88.161928 
L 252.376983 96.110358 
L 252.691875 95.843097 
L 253.006768 90.361543 
L 253.321661 94.727913 
L 253.636554 95.611638 
L 253.951447 94.775976 
L 254.26634 95.605285 
L 254.581233 98.11728 
L 254.896126 98.606878 
L 255.211018 97.955661 
L 255.525911 98.193748 
L 255.840804 248.747292 
L 256.155697 254.858739 
L 256.47059 258.50869 
L 256.785483 252.620285 
L 257.100376 249.947792 
L 257.415268 249.629802 
L 257.730161 250.414965 
L 258.045054 248.687227 
L 258.359947 101.521731 
L 258.67484 251.855724 
L 258.989733 250.157296 
L 259.304626 249.109391 
L 259.619519 249.264516 
L 259.934411 101.671675 
L 260.249304 100.691049 
L 260.564197 101.352604 
L 260.87909 95.119364 
L 261.193983 91.901718 
L 261.508876 90.046786 
L 261.823769 86.344397 
L 262.138661 87.158406 
L 262.453554 92.342836 
L 262.768447 83.892052 
L 263.08334 81.785831 
L 263.398233 81.777495 
L 263.713126 82.285064 
L 264.028019 84.360889 
L 264.972697 93.640831 
L 265.28759 91.074413 
L 265.602483 93.934419 
L 265.917376 94.734206 
L 266.232269 98.941137 
L 266.547162 249.206283 
L 266.862054 255.380825 
L 267.176947 255.625663 
L 267.806733 250.333479 
L 268.121626 98.714613 
L 268.436519 96.003763 
L 268.751412 90.193231 
L 269.066305 87.785189 
L 269.381197 80.998648 
L 269.69609 77.831341 
L 270.010983 79.335072 
L 270.325876 79.40322 
L 270.640769 75.827939 
L 270.955662 67.877764 
L 271.585447 59.657513 
L 271.90034 64.901091 
L 272.215233 68.0827 
L 272.530126 62.883105 
L 272.845019 63.624019 
L 273.159912 65.332823 
L 273.474805 68.576545 
L 273.789698 66.671406 
L 274.10459 69.81754 
L 274.734376 84.61177 
L 275.049269 83.68851 
L 275.364162 85.43154 
L 275.993948 87.158271 
L 276.30884 91.32636 
L 276.623733 100.113689 
L 276.938626 250.83501 
L 277.253519 249.951129 
L 277.568412 250.09047 
L 277.883305 250.405053 
L 278.198198 96.469793 
L 278.827983 83.262125 
L 279.142876 81.336345 
L 279.772662 70.629478 
L 280.087555 62.429535 
L 280.717341 56.235762 
L 281.032233 53.568 
L 281.347126 53.918754 
L 281.662019 55.034839 
L 281.976912 53.913841 
L 282.291805 53.577653 
L 282.606698 57.032314 
L 282.921591 65.635824 
L 283.236484 70.667395 
L 283.551376 68.548129 
L 283.866269 74.71325 
L 284.496055 81.41683 
L 285.125841 89.681753 
L 285.440734 89.735604 
L 285.755626 93.31559 
L 286.070519 249.816912 
L 286.385412 250.909395 
L 286.700305 253.935281 
L 287.015198 260.701825 
L 287.330091 261.950306 
L 287.644984 258.657571 
L 287.959877 252.563934 
L 288.274769 101.403053 
L 288.589662 95.858797 
L 288.904555 93.274648 
L 289.219448 94.068037 
L 290.164127 84.070217 
L 290.479019 78.027927 
L 290.793912 75.184516 
L 291.108805 79.26428 
L 291.423698 76.520459 
L 292.68327 92.808185 
L 292.998162 94.104329 
L 293.313055 98.50982 
L 293.627948 100.112713 
L 293.942841 99.605278 
L 294.257734 248.345534 
L 294.88752 251.507367 
L 295.202412 250.426377 
L 295.517305 99.930021 
L 295.832198 97.576496 
L 296.147091 93.969739 
L 296.461984 88.934207 
L 296.776877 91.865435 
L 297.09177 87.673538 
L 297.406663 87.838515 
L 297.721555 81.678786 
L 298.666234 74.717527 
L 298.981127 70.74503 
L 299.29602 70.323188 
L 299.925805 81.349897 
L 300.240698 80.658454 
L 300.555591 84.480007 
L 300.870484 89.91456 
L 301.185377 91.861901 
L 301.50027 95.575829 
L 301.815163 97.757378 
L 302.130056 95.9257 
L 302.444948 97.880814 
L 302.759841 249.215561 
L 303.074734 251.95474 
L 303.70452 254.055364 
L 304.019413 248.91963 
L 304.334306 100.258441 
L 304.964091 89.640188 
L 305.278984 87.411591 
L 305.593877 88.761463 
L 305.90877 86.453944 
L 306.223663 82.434441 
L 306.538556 81.689746 
L 307.168341 79.333971 
L 307.483234 82.096406 
L 307.798127 88.979149 
L 308.427913 95.81807 
L 308.742806 101.559735 
L 309.057699 253.550682 
L 309.372591 256.132432 
L 310.002377 264.020528 
L 310.31727 270.256389 
L 310.632163 271.936816 
L 310.947056 271.651995 
L 311.261949 271.527074 
L 311.576842 269.057091 
L 311.891734 269.366494 
L 312.206627 265.360264 
L 312.52152 255.529789 
L 312.836413 100.795696 
L 313.151306 100.833902 
L 313.781092 94.266868 
L 314.095984 92.482294 
L 314.410877 91.886337 
L 315.040663 87.810246 
L 315.355556 85.649425 
L 315.670449 90.451277 
L 315.985342 93.272141 
L 316.300235 92.131551 
L 316.615127 92.720503 
L 316.93002 92.138449 
L 317.244913 92.661281 
L 317.559806 100.24423 
L 317.874699 252.250142 
L 318.189592 250.476647 
L 318.819377 256.021031 
L 319.13427 255.345621 
L 319.449163 250.013553 
L 319.764056 248.794891 
L 320.078949 250.223987 
L 320.393842 249.494495 
L 320.708735 249.504126 
L 321.023628 101.552147 
L 321.33852 100.405424 
L 321.653413 97.252678 
L 321.968306 92.019324 
L 322.283199 90.672326 
L 322.598092 93.611014 
L 322.912985 93.257916 
L 323.227878 88.14446 
L 323.54277 90.437589 
L 323.857663 95.355332 
L 324.172556 95.761671 
L 324.802342 101.514671 
L 325.117235 252.504349 
L 325.432128 252.225616 
L 326.061913 255.198853 
L 326.376806 256.058778 
L 327.006592 252.196687 
L 327.321485 249.205194 
L 327.636378 249.877493 
L 327.951271 248.771557 
L 328.266163 252.377785 
L 328.581056 252.027246 
L 328.895949 251.968172 
L 329.210842 257.713359 
L 329.525735 258.164782 
L 329.840628 253.120437 
L 330.155521 251.595383 
L 330.470414 249.241961 
L 330.785306 98.896087 
L 331.100199 93.251522 
L 331.415092 93.125871 
L 331.729985 96.410977 
L 332.044878 96.741732 
L 332.359771 98.344733 
L 332.674664 96.711447 
L 332.989556 97.369374 
L 333.304449 96.239 
L 333.619342 96.663118 
L 333.934235 250.733308 
L 334.249128 254.725378 
L 334.564021 253.793731 
L 335.193807 257.460766 
L 335.823592 254.210448 
L 336.138485 260.21007 
L 336.453378 249.749117 
L 336.768271 248.89721 
L 337.083164 256.763308 
L 337.712949 256.417176 
L 338.027842 255.286553 
L 338.342735 96.970223 
L 338.657628 100.70213 
L 338.972521 98.159988 
L 339.287414 96.828421 
L 339.602307 97.979985 
L 339.9172 97.657562 
L 340.232092 98.691762 
L 340.546985 97.685295 
L 340.861878 98.248776 
L 341.176771 249.679099 
L 341.491664 250.557309 
L 341.806557 248.690937 
L 342.12145 101.515353 
L 342.436342 250.46719 
L 342.751235 260.092602 
L 343.066128 261.434987 
L 343.381021 256.20076 
L 343.695914 254.937714 
L 344.010807 252.661929 
L 344.3257 251.36368 
L 344.640593 255.036524 
L 344.955485 250.311369 
L 345.270378 249.946113 
L 345.585271 257.257834 
L 345.900164 257.315357 
L 346.215057 255.506618 
L 346.52995 256.301872 
L 346.844843 254.285882 
L 347.159735 261.047059 
L 347.474628 263.207336 
L 347.789521 262.896927 
L 348.104414 263.574765 
L 348.419307 265.960179 
L 348.7342 267.078051 
L 349.049093 271.997612 
L 349.363986 273.084843 
L 349.678878 271.969021 
L 349.993771 272.269804 
L 350.308664 270.895519 
L 350.93845 261.500523 
L 351.253343 251.772033 
L 351.568236 101.383804 
L 351.883128 254.40181 
L 352.198021 249.225525 
L 352.512914 96.759414 
L 352.827807 88.115045 
L 353.1427 85.712546 
L 353.457593 84.37947 
L 353.772486 84.18184 
L 354.087379 85.74388 
L 354.402271 87.910813 
L 355.032057 95.291887 
L 355.34695 97.745125 
L 355.661843 249.101735 
L 355.976736 253.100196 
L 356.291629 100.463494 
L 356.606521 250.724217 
L 356.921414 251.350861 
L 357.236307 253.966355 
L 357.5512 258.895342 
L 358.180986 254.646798 
L 358.495879 249.413328 
L 358.810772 98.804035 
L 359.125664 96.640862 
L 359.440557 92.584145 
L 359.75545 85.202015 
L 360.070343 80.756851 
L 360.385236 73.198559 
L 360.700129 72.272315 
L 361.015022 72.832891 
L 361.644807 81.326827 
L 361.9597 82.520801 
L 362.274593 87.695822 
L 362.589486 87.17396 
L 362.904379 90.868849 
L 363.219272 88.437828 
L 363.534165 97.019649 
L 363.849057 99.237016 
L 364.16395 99.232217 
L 364.478843 101.649799 
L 364.793736 249.275383 
L 365.108629 250.061399 
L 365.423522 249.173014 
L 365.738415 99.060777 
L 366.053307 100.218751 
L 366.3682 91.688229 
L 366.683093 88.897127 
L 366.997986 84.630768 
L 367.312879 82.48728 
L 367.627772 83.500025 
L 368.257558 79.276151 
L 368.57245 77.461696 
L 368.887343 77.186673 
L 369.202236 77.774969 
L 369.517129 83.487192 
L 369.832022 81.461846 
L 370.146915 84.519919 
L 370.461808 98.989543 
L 370.7767 101.056202 
L 371.091593 95.227154 
L 371.406486 94.484651 
L 371.721379 249.509931 
L 372.036272 251.871937 
L 372.351165 101.445657 
L 372.666058 250.37828 
L 372.980951 254.030847 
L 373.295843 249.595581 
L 373.610736 248.496649 
L 373.925629 95.818371 
L 374.240522 88.108195 
L 374.555415 85.931564 
L 374.870308 85.964873 
L 375.185201 80.364743 
L 375.500093 78.347222 
L 375.814986 78.994744 
L 376.129879 76.975383 
L 376.444772 77.775094 
L 376.759665 77.902438 
L 377.074558 69.79296 
L 377.389451 78.440491 
L 377.704344 80.727959 
L 378.019236 77.349426 
L 378.334129 78.914297 
L 378.649022 78.058232 
L 379.593701 90.661657 
L 379.908594 92.867875 
L 380.223486 94.17408 
L 380.538379 100.06257 
L 380.853272 248.65368 
L 381.168165 249.814539 
L 381.483058 251.937215 
L 381.797951 249.067325 
L 382.112844 250.259702 
L 382.427737 98.870847 
L 382.742629 99.801358 
L 383.057522 96.041377 
L 383.372415 87.844783 
L 383.687308 85.087352 
L 384.002201 80.541523 
L 384.317094 78.378074 
L 384.631987 77.797506 
L 384.946879 79.560974 
L 385.261772 76.099265 
L 385.576665 79.780383 
L 385.891558 79.780383 
L 386.206451 86.330905 
L 386.521344 87.236697 
L 387.15113 97.501074 
L 387.466022 100.548343 
L 387.780915 250.971757 
L 388.095808 252.695985 
L 388.410701 261.97677 
L 388.725594 263.196758 
L 389.040487 254.740172 
L 389.35538 255.244078 
L 389.670272 265.825129 
L 389.985165 259.855771 
L 390.300058 97.059078 
L 390.614951 249.543949 
L 390.929844 98.824057 
L 391.55963 94.306052 
L 391.874523 99.151432 
L 392.189415 98.364202 
L 392.504308 91.905152 
L 392.819201 90.450112 
L 393.448987 100.310601 
L 393.76388 250.421395 
L 394.078773 101.338355 
L 394.393665 101.579802 
L 394.708558 101.634937 
L 395.023451 251.382096 
L 395.653237 260.491414 
L 395.96813 261.209191 
L 396.597916 264.4277 
L 397.227701 260.025212 
L 397.542594 259.865758 
L 398.17238 258.407555 
L 398.487273 255.551256 
L 398.487273 255.551256 
" style="fill:none;stroke:#1f77b4;stroke-linecap:square;stroke-width:1.5;"/>
   </g>
   <g id="patch_3">
    <path d="M 57.6 307.584 
L 57.6 41.472 
" style="fill:none;stroke:#000000;stroke-linecap:square;stroke-linejoin:miter;stroke-width:0.8;"/>
   </g>
   <g id="patch_4">
    <path d="M 414.72 307.584 
L 414.72 41.472 
" style="fill:none;stroke:#000000;stroke-linecap:square;stroke-linejoin:miter;stroke-width:0.8;"/>
   </g>
   <g id="patch_5">
    <path d="M 57.6 307.584 
L 414.72 307.584 
" style="fill:none;stroke:#000000;stroke-linecap:square;stroke-linejoin:miter;stroke-width:0.8;"/>
   </g>
   <g id="patch_6">
    <path d="M 57.6 41.472 
L 414.72 41.472 
" style="fill:none;stroke:#000000;stroke-linecap:square;stroke-linejoin:miter;stroke-width:0.8;"/>
   </g>
   <g id="text_12">
    <!-- Motor 8 speed history -->
    <defs>
     <path d="M 9.8125 72.90625 
L 24.515625 72.90625 
L 43.109375 23.296875 
L 61.8125 72.90625 
L 76.515625 72.90625 
L 76.515625 0 
L 66.890625 0 
L 66.890625 64.015625 
L 48.09375 14.015625 
L 38.1875 14.015625 
L 19.390625 64.015625 
L 19.390625 0 
L 9.8125 0 
z
" id="DejaVuSans-4d"/>
     <path d="M 30.609375 48.390625 
Q 23.390625 48.390625 19.1875 42.75 
Q 14.984375 37.109375 14.984375 27.296875 
Q 14.984375 17.484375 19.15625 11.84375 
Q 23.34375 6.203125 30.609375 6.203125 
Q 37.796875 6.203125 41.984375 11.859375 
Q 46.1875 17.53125 46.1875 27.296875 
Q 46.1875 37.015625 41.984375 42.703125 
Q 37.796875 48.390625 30.609375 48.390625 
z
M 30.609375 56 
Q 42.328125 56 49.015625 48.375 
Q 55.71875 40.765625 55.71875 27.296875 
Q 55.71875 13.875 49.015625 6.21875 
Q 42.328125 -1.421875 30.609375 -1.421875 
Q 18.84375 -1.421875 12.171875 6.21875 
Q 5.515625 13.875 5.515625 27.296875 
Q 5.515625 40.765625 12.171875 48.375 
Q 18.84375 56 30.609375 56 
z
" id="DejaVuSans-6f"/>
     <path d="M 18.3125 70.21875 
L 18.3125 54.6875 
L 36.8125 54.6875 
L 36.8125 47.703125 
L 18.3125 47.703125 
L 18.3125 18.015625 
Q 18.3125 11.328125 20.140625 9.421875 
Q 21.96875 7.515625 27.59375 7.515625 
L 36.8125 7.515625 
L 36.8125 0 
L 27.59375 0 
Q 17.1875 0 13.234375 3.875 
Q 9.28125 7.765625 9.28125 18.015625 
L 9.28125 47.703125 
L 2.6875 47.703125 
L 2.6875 54.6875 
L 9.28125 54.6875 
L 9.28125 70.21875 
z
" id="DejaVuSans-74"/>
     <path d="M 41.109375 46.296875 
Q 39.59375 47.171875 37.8125 47.578125 
Q 36.03125 48 33.890625 48 
Q 26.265625 48 22.1875 43.046875 
Q 18.109375 38.09375 18.109375 28.8125 
L 18.109375 0 
L 9.078125 0 
L 9.078125 54.6875 
L 18.109375 54.6875 
L 18.109375 46.1875 
Q 20.953125 51.171875 25.484375 53.578125 
Q 30.03125 56 36.53125 56 
Q 37.453125 56 38.578125 55.875 
Q 39.703125 55.765625 41.0625 55.515625 
z
" id="DejaVuSans-72"/>
     <path id="DejaVuSans-20"/>
     <path d="M 44.28125 53.078125 
L 44.28125 44.578125 
Q 40.484375 46.53125 36.375 47.5 
Q 32.28125 48.484375 27.875 48.484375 
Q 21.1875 48.484375 17.84375 46.4375 
Q 14.5 44.390625 14.5 40.28125 
Q 14.5 37.15625 16.890625 35.375 
Q 19.28125 33.59375 26.515625 31.984375 
L 29.59375 31.296875 
Q 39.15625 29.25 43.1875 25.515625 
Q 47.21875 21.78125 47.21875 15.09375 
Q 47.21875 7.46875 41.1875 3.015625 
Q 35.15625 -1.421875 24.609375 -1.421875 
Q 20.21875 -1.421875 15.453125 -0.5625 
Q 10.6875 0.296875 5.421875 2 
L 5.421875 11.28125 
Q 10.40625 8.6875 15.234375 7.390625 
Q 20.0625 6.109375 24.8125 6.109375 
Q 31.15625 6.109375 34.5625 8.28125 
Q 37.984375 10.453125 37.984375 14.40625 
Q 37.984375 18.0625 35.515625 20.015625 
Q 33.0625 21.96875 24.703125 23.78125 
L 21.578125 24.515625 
Q 13.234375 26.265625 9.515625 29.90625 
Q 5.8125 33.546875 5.8125 39.890625 
Q 5.8125 47.609375 11.28125 51.796875 
Q 16.75 56 26.8125 56 
Q 31.78125 56 36.171875 55.265625 
Q 40.578125 54.546875 44.28125 53.078125 
z
" id="DejaVuSans-73"/>
     <path d="M 18.109375 8.203125 
L 18.109375 -20.796875 
L 9.078125 -20.796875 
L 9.078125 54.6875 
L 18.109375 54.6875 
L 18.109375 46.390625 
Q 20.953125 51.265625 25.265625 53.625 
Q 29.59375 56 35.59375 56 
Q 45.5625 56 51.78125 48.09375 
Q 58.015625 40.1875 58.015625 27.296875 
Q 58.015625 14.40625 51.78125 6.484375 
Q 45.5625 -1.421875 35.59375 -1.421875 
Q 29.59375 -1.421875 25.265625 0.953125 
Q 20.953125 3.328125 18.109375 8.203125 
z
M 48.6875 27.296875 
Q 48.6875 37.203125 44.609375 42.84375 
Q 40.53125 48.484375 33.40625 48.484375 
Q 26.265625 48.484375 22.1875 42.84375 
Q 18.109375 37.203125 18.109375 27.296875 
Q 18.109375 17.390625 22.1875 11.75 
Q 26.265625 6.109375 33.40625 6.109375 
Q 40.53125 6.109375 44.609375 11.75 
Q 48.6875 17.390625 48.6875 27.296875 
z
" id="DejaVuSans-70"/>
     <path d="M 56.203125 29.59375 
L 56.203125 25.203125 
L 14.890625 25.203125 
Q 15.484375 15.921875 20.484375 11.0625 
Q 25.484375 6.203125 34.421875 6.203125 
Q 39.59375 6.203125 44.453125 7.46875 
Q 49.3125 8.734375 54.109375 11.28125 
L 54.109375 2.78125 
Q 49.265625 0.734375 44.1875 -0.34375 
Q 39.109375 -1.421875 33.890625 -1.421875 
Q 20.796875 -1.421875 13.15625 6.1875 
Q 5.515625 13.8125 5.515625 26.8125 
Q 5.515625 40.234375 12.765625 48.109375 
Q 20.015625 56 32.328125 56 
Q 43.359375 56 49.78125 48.890625 
Q 56.203125 41.796875 56.203125 29.59375 
z
M 47.21875 32.234375 
Q 47.125 39.59375 43.09375 43.984375 
Q 39.0625 48.390625 32.421875 48.390625 
Q 24.90625 48.390625 20.390625 44.140625 
Q 15.875 39.890625 15.1875 32.171875 
z
" id="DejaVuSans-65"/>
     <path d="M 45.40625 46.390625 
L 45.40625 75.984375 
L 54.390625 75.984375 
L 54.390625 0 
L 45.40625 0 
L 45.40625 8.203125 
Q 42.578125 3.328125 38.25 0.953125 
Q 33.9375 -1.421875 27.875 -1.421875 
Q 17.96875 -1.421875 11.734375 6.484375 
Q 5.515625 14.40625 5.515625 27.296875 
Q 5.515625 40.1875 11.734375 48.09375 
Q 17.96875 56 27.875 56 
Q 33.9375 56 38.25 53.625 
Q 42.578125 51.265625 45.40625 46.390625 
z
M 14.796875 27.296875 
Q 14.796875 17.390625 18.875 11.75 
Q 22.953125 6.109375 30.078125 6.109375 
Q 37.203125 6.109375 41.296875 11.75 
Q 45.40625 17.390625 45.40625 27.296875 
Q 45.40625 37.203125 41.296875 42.84375 
Q 37.203125 48.484375 30.078125 48.484375 
Q 22.953125 48.484375 18.875 42.84375 
Q 14.796875 37.203125 14.796875 27.296875 
z
" id="DejaVuSans-64"/>
     <path d="M 54.890625 33.015625 
L 54.890625 0 
L 45.90625 0 
L 45.90625 32.71875 
Q 45.90625 40.484375 42.875 44.328125 
Q 39.84375 48.1875 33.796875 48.1875 
Q 26.515625 48.1875 22.3125 43.546875 
Q 18.109375 38.921875 18.109375 30.90625 
L 18.109375 0 
L 9.078125 0 
L 9.078125 75.984375 
L 18.109375 75.984375 
L 18.109375 46.1875 
Q 21.34375 51.125 25.703125 53.5625 
Q 30.078125 56 35.796875 56 
Q 45.21875 56 50.046875 50.171875 
Q 54.890625 44.34375 54.890625 33.015625 
z
" id="DejaVuSans-68"/>
     <path d="M 9.421875 54.6875 
L 18.40625 54.6875 
L 18.40625 0 
L 9.421875 0 
z
M 9.421875 75.984375 
L 18.40625 75.984375 
L 18.40625 64.59375 
L 9.421875 64.59375 
z
" id="DejaVuSans-69"/>
     <path d="M 32.171875 -5.078125 
Q 28.375 -14.84375 24.75 -17.8125 
Q 21.140625 -20.796875 15.09375 -20.796875 
L 7.90625 -20.796875 
L 7.90625 -13.28125 
L 13.1875 -13.28125 
Q 16.890625 -13.28125 18.9375 -11.515625 
Q 21 -9.765625 23.484375 -3.21875 
L 25.09375 0.875 
L 2.984375 54.6875 
L 12.5 54.6875 
L 29.59375 11.921875 
L 46.6875 54.6875 
L 56.203125 54.6875 
z
" id="DejaVuSans-79"/>
    </defs>
    <g transform="translate(170.52 35.472)scale(0.12 -0.12)">
     <use xlink:href="#DejaVuSans-4d"/>
     <use x="86.279297" xlink:href="#DejaVuSans-6f"/>
     <use x="147.460938" xlink:href="#DejaVuSans-74"/>
     <use x="186.669922" xlink:href="#DejaVuSans-6f"/>
     <use x="247.851562" xlink:href="#DejaVuSans-72"/>
     <use x="288.964844" xlink:href="#DejaVuSans-20"/>
     <use x="320.751953" xlink:href="#DejaVuSans-38"/>
     <use x="384.375" xlink:href="#DejaVuSans-20"/>
     <use x="416.162109" xlink:href="#DejaVuSans-73"/>
     <use x="468.261719" xlink:href="#DejaVuSans-70"/>
     <use x="531.738281" xlink:href="#DejaVuSans-65"/>
     <use x="593.261719" xlink:href="#DejaVuSans-65"/>
     <use x="654.785156" xlink:href="#DejaVuSans-64"/>
     <use x="718.261719" xlink:href="#DejaVuSans-20"/>
     <use x="750.048828" xlink:href="#DejaVuSans-68"/>
     <use x="813.427734" xlink:href="#DejaVuSans-69"/>
     <use x="841.210938" xlink:href="#DejaVuSans-73"/>
     <use x="893.310547" xlink:href="#DejaVuSans-74"/>
     <use x="932.519531" xlink:href="#DejaVuSans-6f"/>
     <use x="993.701172" xlink:href="#DejaVuSans-72"/>
     <use x="1034.814453" xlink:href="#DejaVuSans-79"/>
    </g>
   </g>
   <g id="legend_1">
    <g id="patch_7">
     <path d="M 351.452813 64.150125 
L 407.72 64.150125 
Q 409.72 64.150125 409.72 62.150125 
L 409.72 48.472 
Q 409.72 46.472 407.72 46.472 
L 351.452813 46.472 
Q 349.452813 46.472 349.452813 48.472 
L 349.452813 62.150125 
Q 349.452813 64.150125 351.452813 64.150125 
z
" style="fill:#ffffff;opacity:0.8;stroke:#cccccc;stroke-linejoin:miter;"/>
    </g>
    <g id="line2d_13">
     <path d="M 353.452813 54.570438 
L 373.452813 54.570438 
" style="fill:none;stroke:#1f77b4;stroke-linecap:square;stroke-width:1.5;"/>
    </g>
    <g id="line2d_14"/>
    <g id="text_13">
     <!-- pwm -->
     <defs>
      <path d="M 4.203125 54.6875 
L 13.1875 54.6875 
L 24.421875 12.015625 
L 35.59375 54.6875 
L 46.1875 54.6875 
L 57.421875 12.015625 
L 68.609375 54.6875 
L 77.59375 54.6875 
L 63.28125 0 
L 52.6875 0 
L 40.921875 44.828125 
L 29.109375 0 
L 18.5 0 
z
" id="DejaVuSans-77"/>
      <path d="M 52 44.1875 
Q 55.375 50.25 60.0625 53.125 
Q 64.75 56 71.09375 56 
Q 79.640625 56 84.28125 50.015625 
Q 88.921875 44.046875 88.921875 33.015625 
L 88.921875 0 
L 79.890625 0 
L 79.890625 32.71875 
Q 79.890625 40.578125 77.09375 44.375 
Q 74.3125 48.1875 68.609375 48.1875 
Q 61.625 48.1875 57.5625 43.546875 
Q 53.515625 38.921875 53.515625 30.90625 
L 53.515625 0 
L 44.484375 0 
L 44.484375 32.71875 
Q 44.484375 40.625 41.703125 44.40625 
Q 38.921875 48.1875 33.109375 48.1875 
Q 26.21875 48.1875 22.15625 43.53125 
Q 18.109375 38.875 18.109375 30.90625 
L 18.109375 0 
L 9.078125 0 
L 9.078125 54.6875 
L 18.109375 54.6875 
L 18.109375 46.1875 
Q 21.1875 51.21875 25.484375 53.609375 
Q 29.78125 56 35.6875 56 
Q 41.65625 56 45.828125 52.96875 
Q 50 49.953125 52 44.1875 
z
" id="DejaVuSans-6d"/>
     </defs>
     <g transform="translate(381.452813 58.070438)scale(0.1 -0.1)">
      <use xlink:href="#DejaVuSans-70"/>
      <use x="63.476562" xlink:href="#DejaVuSans-77"/>
      <use x="145.263672" xlink:href="#DejaVuSans-6d"/>
     </g>
    </g>
   </g>
  </g>
 </g>
 <defs>
  <clipPath id="pc8c9ff6db1">
   <rect height="266.112" width="357.12" x="57.6" y="41.472"/>
  </clipPath>
 </defs>
</svg>
