<?xml version="1.0" encoding="utf-8" standalone="no"?>
<!DOCTYPE svg PUBLIC "-//W3C//DTD SVG 1.1//EN"
  "http://www.w3.org/Graphics/SVG/1.1/DTD/svg11.dtd">
<!-- Created with matplotlib (http://matplotlib.org/) -->
<svg height="345pt" version="1.1" viewBox="0 0 460 345" width="460pt" xmlns="http://www.w3.org/2000/svg" xmlns:xlink="http://www.w3.org/1999/xlink">
 <defs>
  <style type="text/css">
*{stroke-linecap:butt;stroke-linejoin:round;}
  </style>
 </defs>
 <g id="figure_1">
  <g id="patch_1">
   <path d="M 0 345.6 
L 460.8 345.6 
L 460.8 0 
L 0 0 
z
" style="fill:#ffffff;"/>
  </g>
  <g id="axes_1">
   <g id="patch_2">
    <path d="M 57.6 307.584 
L 414.72 307.584 
L 414.72 41.472 
L 57.6 41.472 
z
" style="fill:#ffffff;"/>
   </g>
   <g id="matplotlib.axis_1">
    <g id="xtick_1">
     <g id="line2d_1">
      <defs>
       <path d="M 0 0 
L 0 3.5 
" id="m9bc7cf0004" style="stroke:#000000;stroke-width:0.8;"/>
      </defs>
      <g>
       <use style="stroke:#000000;stroke-width:0.8;" x="73.832727" xlink:href="#m9bc7cf0004" y="307.584"/>
      </g>
     </g>
     <g id="text_1">
      <!-- 0 -->
      <defs>
       <path d="M 31.78125 66.40625 
Q 24.171875 66.40625 20.328125 58.90625 
Q 16.5 51.421875 16.5 36.375 
Q 16.5 21.390625 20.328125 13.890625 
Q 24.171875 6.390625 31.78125 6.390625 
Q 39.453125 6.390625 43.28125 13.890625 
Q 47.125 21.390625 47.125 36.375 
Q 47.125 51.421875 43.28125 58.90625 
Q 39.453125 66.40625 31.78125 66.40625 
z
M 31.78125 74.21875 
Q 44.046875 74.21875 50.515625 64.515625 
Q 56.984375 54.828125 56.984375 36.375 
Q 56.984375 17.96875 50.515625 8.265625 
Q 44.046875 -1.421875 31.78125 -1.421875 
Q 19.53125 -1.421875 13.0625 8.265625 
Q 6.59375 17.96875 6.59375 36.375 
Q 6.59375 54.828125 13.0625 64.515625 
Q 19.53125 74.21875 31.78125 74.21875 
z
" id="DejaVuSans-30"/>
      </defs>
      <g transform="translate(70.651477 322.182437)scale(0.1 -0.1)">
       <use xlink:href="#DejaVuSans-30"/>
      </g>
     </g>
    </g>
    <g id="xtick_2">
     <g id="line2d_2">
      <g>
       <use style="stroke:#000000;stroke-width:0.8;" x="136.811301" xlink:href="#m9bc7cf0004" y="307.584"/>
      </g>
     </g>
     <g id="text_2">
      <!-- 200 -->
      <defs>
       <path d="M 19.1875 8.296875 
L 53.609375 8.296875 
L 53.609375 0 
L 7.328125 0 
L 7.328125 8.296875 
Q 12.9375 14.109375 22.625 23.890625 
Q 32.328125 33.6875 34.8125 36.53125 
Q 39.546875 41.84375 41.421875 45.53125 
Q 43.3125 49.21875 43.3125 52.78125 
Q 43.3125 58.59375 39.234375 62.25 
Q 35.15625 65.921875 28.609375 65.921875 
Q 23.96875 65.921875 18.8125 64.3125 
Q 13.671875 62.703125 7.8125 59.421875 
L 7.8125 69.390625 
Q 13.765625 71.78125 18.9375 73 
Q 24.125 74.21875 28.421875 74.21875 
Q 39.75 74.21875 46.484375 68.546875 
Q 53.21875 62.890625 53.21875 53.421875 
Q 53.21875 48.921875 51.53125 44.890625 
Q 49.859375 40.875 45.40625 35.40625 
Q 44.1875 33.984375 37.640625 27.21875 
Q 31.109375 20.453125 19.1875 8.296875 
z
" id="DejaVuSans-32"/>
      </defs>
      <g transform="translate(127.267551 322.182437)scale(0.1 -0.1)">
       <use xlink:href="#DejaVuSans-32"/>
       <use x="63.623047" xlink:href="#DejaVuSans-30"/>
       <use x="127.246094" xlink:href="#DejaVuSans-30"/>
      </g>
     </g>
    </g>
    <g id="xtick_3">
     <g id="line2d_3">
      <g>
       <use style="stroke:#000000;stroke-width:0.8;" x="199.789874" xlink:href="#m9bc7cf0004" y="307.584"/>
      </g>
     </g>
     <g id="text_3">
      <!-- 400 -->
      <defs>
       <path d="M 37.796875 64.3125 
L 12.890625 25.390625 
L 37.796875 25.390625 
z
M 35.203125 72.90625 
L 47.609375 72.90625 
L 47.609375 25.390625 
L 58.015625 25.390625 
L 58.015625 17.1875 
L 47.609375 17.1875 
L 47.609375 0 
L 37.796875 0 
L 37.796875 17.1875 
L 4.890625 17.1875 
L 4.890625 26.703125 
z
" id="DejaVuSans-34"/>
      </defs>
      <g transform="translate(190.246124 322.182437)scale(0.1 -0.1)">
       <use xlink:href="#DejaVuSans-34"/>
       <use x="63.623047" xlink:href="#DejaVuSans-30"/>
       <use x="127.246094" xlink:href="#DejaVuSans-30"/>
      </g>
     </g>
    </g>
    <g id="xtick_4">
     <g id="line2d_4">
      <g>
       <use style="stroke:#000000;stroke-width:0.8;" x="262.768447" xlink:href="#m9bc7cf0004" y="307.584"/>
      </g>
     </g>
     <g id="text_4">
      <!-- 600 -->
      <defs>
       <path d="M 33.015625 40.375 
Q 26.375 40.375 22.484375 35.828125 
Q 18.609375 31.296875 18.609375 23.390625 
Q 18.609375 15.53125 22.484375 10.953125 
Q 26.375 6.390625 33.015625 6.390625 
Q 39.65625 6.390625 43.53125 10.953125 
Q 47.40625 15.53125 47.40625 23.390625 
Q 47.40625 31.296875 43.53125 35.828125 
Q 39.65625 40.375 33.015625 40.375 
z
M 52.59375 71.296875 
L 52.59375 62.3125 
Q 48.875 64.0625 45.09375 64.984375 
Q 41.3125 65.921875 37.59375 65.921875 
Q 27.828125 65.921875 22.671875 59.328125 
Q 17.53125 52.734375 16.796875 39.40625 
Q 19.671875 43.65625 24.015625 45.921875 
Q 28.375 48.1875 33.59375 48.1875 
Q 44.578125 48.1875 50.953125 41.515625 
Q 57.328125 34.859375 57.328125 23.390625 
Q 57.328125 12.15625 50.6875 5.359375 
Q 44.046875 -1.421875 33.015625 -1.421875 
Q 20.359375 -1.421875 13.671875 8.265625 
Q 6.984375 17.96875 6.984375 36.375 
Q 6.984375 53.65625 15.1875 63.9375 
Q 23.390625 74.21875 37.203125 74.21875 
Q 40.921875 74.21875 44.703125 73.484375 
Q 48.484375 72.75 52.59375 71.296875 
z
" id="DejaVuSans-36"/>
      </defs>
      <g transform="translate(253.224697 322.182437)scale(0.1 -0.1)">
       <use xlink:href="#DejaVuSans-36"/>
       <use x="63.623047" xlink:href="#DejaVuSans-30"/>
       <use x="127.246094" xlink:href="#DejaVuSans-30"/>
      </g>
     </g>
    </g>
    <g id="xtick_5">
     <g id="line2d_5">
      <g>
       <use style="stroke:#000000;stroke-width:0.8;" x="325.747021" xlink:href="#m9bc7cf0004" y="307.584"/>
      </g>
     </g>
     <g id="text_5">
      <!-- 800 -->
      <defs>
       <path d="M 31.78125 34.625 
Q 24.75 34.625 20.71875 30.859375 
Q 16.703125 27.09375 16.703125 20.515625 
Q 16.703125 13.921875 20.71875 10.15625 
Q 24.75 6.390625 31.78125 6.390625 
Q 38.8125 6.390625 42.859375 10.171875 
Q 46.921875 13.96875 46.921875 20.515625 
Q 46.921875 27.09375 42.890625 30.859375 
Q 38.875 34.625 31.78125 34.625 
z
M 21.921875 38.8125 
Q 15.578125 40.375 12.03125 44.71875 
Q 8.5 49.078125 8.5 55.328125 
Q 8.5 64.0625 14.71875 69.140625 
Q 20.953125 74.21875 31.78125 74.21875 
Q 42.671875 74.21875 48.875 69.140625 
Q 55.078125 64.0625 55.078125 55.328125 
Q 55.078125 49.078125 51.53125 44.71875 
Q 48 40.375 41.703125 38.8125 
Q 48.828125 37.15625 52.796875 32.3125 
Q 56.78125 27.484375 56.78125 20.515625 
Q 56.78125 9.90625 50.3125 4.234375 
Q 43.84375 -1.421875 31.78125 -1.421875 
Q 19.734375 -1.421875 13.25 4.234375 
Q 6.78125 9.90625 6.78125 20.515625 
Q 6.78125 27.484375 10.78125 32.3125 
Q 14.796875 37.15625 21.921875 38.8125 
z
M 18.3125 54.390625 
Q 18.3125 48.734375 21.84375 45.5625 
Q 25.390625 42.390625 31.78125 42.390625 
Q 38.140625 42.390625 41.71875 45.5625 
Q 45.3125 48.734375 45.3125 54.390625 
Q 45.3125 60.0625 41.71875 63.234375 
Q 38.140625 66.40625 31.78125 66.40625 
Q 25.390625 66.40625 21.84375 63.234375 
Q 18.3125 60.0625 18.3125 54.390625 
z
" id="DejaVuSans-38"/>
      </defs>
      <g transform="translate(316.203271 322.182437)scale(0.1 -0.1)">
       <use xlink:href="#DejaVuSans-38"/>
       <use x="63.623047" xlink:href="#DejaVuSans-30"/>
       <use x="127.246094" xlink:href="#DejaVuSans-30"/>
      </g>
     </g>
    </g>
    <g id="xtick_6">
     <g id="line2d_6">
      <g>
       <use style="stroke:#000000;stroke-width:0.8;" x="388.725594" xlink:href="#m9bc7cf0004" y="307.584"/>
      </g>
     </g>
     <g id="text_6">
      <!-- 1000 -->
      <defs>
       <path d="M 12.40625 8.296875 
L 28.515625 8.296875 
L 28.515625 63.921875 
L 10.984375 60.40625 
L 10.984375 69.390625 
L 28.421875 72.90625 
L 38.28125 72.90625 
L 38.28125 8.296875 
L 54.390625 8.296875 
L 54.390625 0 
L 12.40625 0 
z
" id="DejaVuSans-31"/>
      </defs>
      <g transform="translate(376.000594 322.182437)scale(0.1 -0.1)">
       <use xlink:href="#DejaVuSans-31"/>
       <use x="63.623047" xlink:href="#DejaVuSans-30"/>
       <use x="127.246094" xlink:href="#DejaVuSans-30"/>
       <use x="190.869141" xlink:href="#DejaVuSans-30"/>
      </g>
     </g>
    </g>
   </g>
   <g id="matplotlib.axis_2">
    <g id="ytick_1">
     <g id="line2d_7">
      <defs>
       <path d="M 0 0 
L -3.5 0 
" id="md718c11953" style="stroke:#000000;stroke-width:0.8;"/>
      </defs>
      <g>
       <use style="stroke:#000000;stroke-width:0.8;" x="57.6" xlink:href="#md718c11953" y="276.785738"/>
      </g>
     </g>
     <g id="text_7">
      <!-- 1425 -->
      <defs>
       <path d="M 10.796875 72.90625 
L 49.515625 72.90625 
L 49.515625 64.59375 
L 19.828125 64.59375 
L 19.828125 46.734375 
Q 21.96875 47.46875 24.109375 47.828125 
Q 26.265625 48.1875 28.421875 48.1875 
Q 40.625 48.1875 47.75 41.5 
Q 54.890625 34.8125 54.890625 23.390625 
Q 54.890625 11.625 47.5625 5.09375 
Q 40.234375 -1.421875 26.90625 -1.421875 
Q 22.3125 -1.421875 17.546875 -0.640625 
Q 12.796875 0.140625 7.71875 1.703125 
L 7.71875 11.625 
Q 12.109375 9.234375 16.796875 8.0625 
Q 21.484375 6.890625 26.703125 6.890625 
Q 35.15625 6.890625 40.078125 11.328125 
Q 45.015625 15.765625 45.015625 23.390625 
Q 45.015625 31 40.078125 35.4375 
Q 35.15625 39.890625 26.703125 39.890625 
Q 22.75 39.890625 18.8125 39.015625 
Q 14.890625 38.140625 10.796875 36.28125 
z
" id="DejaVuSans-35"/>
      </defs>
      <g transform="translate(25.15 280.584957)scale(0.1 -0.1)">
       <use xlink:href="#DejaVuSans-31"/>
       <use x="63.623047" xlink:href="#DejaVuSans-34"/>
       <use x="127.246094" xlink:href="#DejaVuSans-32"/>
       <use x="190.869141" xlink:href="#DejaVuSans-35"/>
      </g>
     </g>
    </g>
    <g id="ytick_2">
     <g id="line2d_8">
      <g>
       <use style="stroke:#000000;stroke-width:0.8;" x="57.6" xlink:href="#md718c11953" y="241.578713"/>
      </g>
     </g>
     <g id="text_8">
      <!-- 1450 -->
      <g transform="translate(25.15 245.377932)scale(0.1 -0.1)">
       <use xlink:href="#DejaVuSans-31"/>
       <use x="63.623047" xlink:href="#DejaVuSans-34"/>
       <use x="127.246094" xlink:href="#DejaVuSans-35"/>
       <use x="190.869141" xlink:href="#DejaVuSans-30"/>
      </g>
     </g>
    </g>
    <g id="ytick_3">
     <g id="line2d_9">
      <g>
       <use style="stroke:#000000;stroke-width:0.8;" x="57.6" xlink:href="#md718c11953" y="206.371689"/>
      </g>
     </g>
     <g id="text_9">
      <!-- 1475 -->
      <defs>
       <path d="M 8.203125 72.90625 
L 55.078125 72.90625 
L 55.078125 68.703125 
L 28.609375 0 
L 18.3125 0 
L 43.21875 64.59375 
L 8.203125 64.59375 
z
" id="DejaVuSans-37"/>
      </defs>
      <g transform="translate(25.15 210.170907)scale(0.1 -0.1)">
       <use xlink:href="#DejaVuSans-31"/>
       <use x="63.623047" xlink:href="#DejaVuSans-34"/>
       <use x="127.246094" xlink:href="#DejaVuSans-37"/>
       <use x="190.869141" xlink:href="#DejaVuSans-35"/>
      </g>
     </g>
    </g>
    <g id="ytick_4">
     <g id="line2d_10">
      <g>
       <use style="stroke:#000000;stroke-width:0.8;" x="57.6" xlink:href="#md718c11953" y="171.164664"/>
      </g>
     </g>
     <g id="text_10">
      <!-- 1500 -->
      <g transform="translate(25.15 174.963883)scale(0.1 -0.1)">
       <use xlink:href="#DejaVuSans-31"/>
       <use x="63.623047" xlink:href="#DejaVuSans-35"/>
       <use x="127.246094" xlink:href="#DejaVuSans-30"/>
       <use x="190.869141" xlink:href="#DejaVuSans-30"/>
      </g>
     </g>
    </g>
    <g id="ytick_5">
     <g id="line2d_11">
      <g>
       <use style="stroke:#000000;stroke-width:0.8;" x="57.6" xlink:href="#md718c11953" y="135.95764"/>
      </g>
     </g>
     <g id="text_11">
      <!-- 1525 -->
      <g transform="translate(25.15 139.756858)scale(0.1 -0.1)">
       <use xlink:href="#DejaVuSans-31"/>
       <use x="63.623047" xlink:href="#DejaVuSans-35"/>
       <use x="127.246094" xlink:href="#DejaVuSans-32"/>
       <use x="190.869141" xlink:href="#DejaVuSans-35"/>
      </g>
     </g>
    </g>
    <g id="ytick_6">
     <g id="line2d_12">
      <g>
       <use style="stroke:#000000;stroke-width:0.8;" x="57.6" xlink:href="#md718c11953" y="100.750615"/>
      </g>
     </g>
     <g id="text_12">
      <!-- 1550 -->
      <g transform="translate(25.15 104.549834)scale(0.1 -0.1)">
       <use xlink:href="#DejaVuSans-31"/>
       <use x="63.623047" xlink:href="#DejaVuSans-35"/>
       <use x="127.246094" xlink:href="#DejaVuSans-35"/>
       <use x="190.869141" xlink:href="#DejaVuSans-30"/>
      </g>
     </g>
    </g>
    <g id="ytick_7">
     <g id="line2d_13">
      <g>
       <use style="stroke:#000000;stroke-width:0.8;" x="57.6" xlink:href="#md718c11953" y="65.543591"/>
      </g>
     </g>
     <g id="text_13">
      <!-- 1575 -->
      <g transform="translate(25.15 69.342809)scale(0.1 -0.1)">
       <use xlink:href="#DejaVuSans-31"/>
       <use x="63.623047" xlink:href="#DejaVuSans-35"/>
       <use x="127.246094" xlink:href="#DejaVuSans-37"/>
       <use x="190.869141" xlink:href="#DejaVuSans-35"/>
      </g>
     </g>
    </g>
   </g>
   <g id="line2d_14">
    <path clip-path="url(#pae6ebb845a)" d="M 73.832727 228.580765 
L 74.14762 232.462364 
L 74.777406 244.01804 
L 75.407192 234.652388 
L 76.036977 239.821463 
L 76.35187 239.02342 
L 76.666763 239.301151 
L 76.981656 239.383399 
L 77.611442 232.903377 
L 77.926335 235.841924 
L 78.241227 236.355665 
L 78.55612 234.868703 
L 78.871013 230.620334 
L 79.185906 231.231088 
L 79.500799 230.723909 
L 79.815692 227.3551 
L 80.130585 225.92399 
L 80.445477 225.380307 
L 80.76037 233.729059 
L 81.075263 237.322005 
L 81.390156 229.484935 
L 81.705049 226.076515 
L 82.019942 223.896514 
L 82.334835 228.868455 
L 83.279513 234.847681 
L 83.594406 232.082752 
L 83.909299 231.44436 
L 84.539085 237.250358 
L 85.16887 242.770529 
L 85.798656 234.998311 
L 86.428442 249.030781 
L 87.373121 243.706768 
L 87.688013 245.963775 
L 88.317799 248.454308 
L 88.632692 247.236395 
L 88.947585 246.845744 
L 89.262478 247.056636 
L 89.577371 244.002726 
L 89.892263 246.23139 
L 90.207156 247.22396 
L 90.836942 235.329045 
L 91.151835 237.1376 
L 91.466728 239.749129 
L 92.096514 238.84645 
L 92.411406 239.202369 
L 92.726299 237.328615 
L 93.041192 238.026591 
L 93.670978 254.008357 
L 93.985871 249.942636 
L 94.300764 248.026259 
L 94.615656 251.306038 
L 94.930549 253.163312 
L 95.245442 252.339939 
L 95.875228 263.745272 
L 96.505014 253.493163 
L 96.819907 257.350242 
L 97.134799 257.811112 
L 97.449692 253.562439 
L 98.079478 264.840311 
L 98.394371 265.103113 
L 98.709264 262.944824 
L 99.339049 260.69897 
L 99.653942 253.177517 
L 100.283728 263.240728 
L 100.598621 263.875467 
L 100.913514 266.228058 
L 101.228407 259.662495 
L 101.5433 250.669508 
L 101.858192 256.960493 
L 102.173085 253.14495 
L 102.487978 244.469595 
L 103.117764 257.78238 
L 103.432657 252.684037 
L 103.74755 249.46404 
L 104.377335 245.186059 
L 104.692228 248.697295 
L 105.007121 254.606672 
L 105.322014 256.833635 
L 105.9518 270.990205 
L 106.581585 261.905899 
L 107.211371 267.377732 
L 107.526264 265.652318 
L 108.15605 268.384244 
L 108.470943 272.900753 
L 108.785835 275.465987 
L 109.415621 269.384387 
L 109.730514 273.488504 
L 110.045407 273.496206 
L 110.3603 270.563593 
L 110.990086 272.625018 
L 111.619871 258.892383 
L 111.934764 262.647395 
L 112.249657 263.912978 
L 112.56455 262.580052 
L 112.879443 263.915587 
L 113.194336 262.756861 
L 113.824121 267.151112 
L 114.139014 261.133217 
L 114.453907 259.328812 
L 114.7688 262.352408 
L 115.083693 273.041364 
L 115.398586 275.145476 
L 115.713479 275.129365 
L 116.028371 276.959913 
L 116.343264 276.280343 
L 116.658157 273.431369 
L 116.97305 272.32351 
L 117.287943 270.41655 
L 117.602836 275.880212 
L 117.917729 277.596383 
L 118.547514 269.627836 
L 118.862407 274.780284 
L 119.1773 277.335561 
L 120.121979 268.174312 
L 120.436872 270.117034 
L 120.751764 270.750594 
L 121.066657 270.920067 
L 121.38155 273.148841 
L 121.696443 270.437765 
L 122.011336 268.869896 
L 122.326229 274.918775 
L 122.956014 269.883283 
L 123.900693 288.884262 
L 124.215586 288.632665 
L 124.530479 279.442229 
L 124.845372 279.183928 
L 125.160265 281.050878 
L 125.79005 295.488 
L 126.734729 282.926063 
L 127.049622 281.12394 
L 127.679407 281.31023 
L 127.9943 277.448158 
L 128.309193 279.269172 
L 128.624086 282.362291 
L 128.938979 271.896074 
L 129.253872 272.679883 
L 129.568765 277.446777 
L 129.883658 279.518558 
L 130.19855 280.050038 
L 130.513443 270.136568 
L 130.828336 264.126447 
L 131.143229 273.014051 
L 131.458122 275.966579 
L 131.773015 274.34662 
L 132.087908 276.838301 
L 132.4028 276.261443 
L 132.717693 279.38584 
L 133.032586 277.01764 
L 133.347479 272.211771 
L 133.977265 283.366578 
L 134.292158 277.491551 
L 134.607051 269.318005 
L 134.921943 270.804633 
L 135.551729 278.610539 
L 135.866622 278.803757 
L 136.181515 277.40727 
L 136.811301 284.038319 
L 137.441086 273.484673 
L 137.755979 283.013663 
L 138.070872 288.659717 
L 138.385765 281.373843 
L 138.700658 278.540994 
L 139.015551 283.846724 
L 139.330444 281.478009 
L 139.645336 277.72421 
L 139.960229 277.983281 
L 140.275122 279.147202 
L 140.590015 273.753023 
L 140.904908 271.321371 
L 141.849586 278.984547 
L 142.164479 278.486223 
L 142.479372 278.635585 
L 143.109158 280.48012 
L 143.424051 278.709414 
L 143.738944 275.642771 
L 144.053837 274.286354 
L 144.683622 277.616537 
L 144.998515 276.675564 
L 145.313408 272.271973 
L 145.628301 266.051791 
L 145.943194 262.529816 
L 146.258087 265.139132 
L 146.572979 263.481447 
L 146.887872 256.191281 
L 147.202765 254.334405 
L 147.832551 258.829625 
L 148.147444 258.221566 
L 148.462337 259.366238 
L 149.092122 265.11328 
L 149.721908 257.59897 
L 150.036801 258.975351 
L 150.351694 264.015236 
L 150.666587 271.18012 
L 151.296372 260.69582 
L 151.611265 263.468833 
L 151.926158 267.795877 
L 152.241051 264.922257 
L 152.555944 259.6791 
L 152.870837 257.672354 
L 153.18573 258.167975 
L 153.500623 258.05321 
L 153.815515 254.9611 
L 154.130408 255.31547 
L 155.38998 249.877723 
L 155.704873 250.526983 
L 156.019765 248.05541 
L 156.334658 247.450194 
L 156.649551 246.279692 
L 156.964444 245.596581 
L 157.279337 249.490369 
L 157.59423 255.168453 
L 157.909123 250.528622 
L 158.224016 251.341326 
L 158.853801 258.165141 
L 159.168694 262.256889 
L 159.483587 251.802375 
L 159.79848 248.077105 
L 160.428266 248.597536 
L 161.058051 245.323271 
L 161.372944 244.663368 
L 161.687837 241.260937 
L 162.00273 239.487759 
L 162.317623 236.270272 
L 162.632516 231.140066 
L 162.947409 234.016704 
L 163.262301 234.760757 
L 163.577194 234.738759 
L 163.892087 232.334114 
L 164.20698 231.563121 
L 164.521873 233.557325 
L 164.836766 238.447902 
L 165.151659 238.842681 
L 165.781444 233.186292 
L 166.096337 234.567657 
L 166.41123 238.677877 
L 166.726123 240.766266 
L 167.041016 240.255002 
L 167.355909 238.707055 
L 167.670802 239.547728 
L 167.985694 236.864097 
L 168.300587 236.406809 
L 168.61548 233.928407 
L 168.930373 236.453705 
L 169.245266 242.945241 
L 169.560159 234.555037 
L 169.875052 233.597362 
L 170.189944 238.262825 
L 170.504837 228.836464 
L 170.81973 222.904088 
L 171.134623 221.144321 
L 171.449516 221.852905 
L 172.079302 217.9137 
L 172.394195 222.67491 
L 172.709087 222.431788 
L 173.02398 219.64183 
L 173.338873 219.354462 
L 173.653766 220.151437 
L 174.283552 227.450044 
L 174.598445 228.809964 
L 174.913337 232.750684 
L 175.543123 229.941245 
L 175.858016 229.240022 
L 176.172909 225.899921 
L 176.487802 224.332303 
L 176.802695 224.120886 
L 177.117588 224.800506 
L 177.747373 216.137525 
L 178.062266 216.284922 
L 178.377159 215.907973 
L 178.692052 135.147331 
L 179.006945 134.111785 
L 179.63673 128.720212 
L 179.951623 131.417904 
L 180.581409 124.222621 
L 181.211195 134.197923 
L 181.526088 133.326773 
L 181.840981 133.222476 
L 182.155873 135.172816 
L 182.470766 134.007511 
L 182.785659 134.332708 
L 183.100552 133.339027 
L 183.415445 133.479873 
L 183.730338 134.61389 
L 184.045231 135.234339 
L 184.360123 215.099703 
L 184.675016 217.653838 
L 185.304802 226.717899 
L 185.619695 219.968329 
L 185.934588 216.025569 
L 186.249481 217.820682 
L 186.564374 221.867122 
L 186.879266 217.706203 
L 187.194159 133.293834 
L 187.509052 134.994911 
L 188.138838 125.212199 
L 188.453731 125.137853 
L 188.768624 123.342659 
L 189.083516 119.295026 
L 189.398409 117.628953 
L 189.713302 122.276843 
L 190.028195 124.654686 
L 190.343088 122.341607 
L 190.972874 122.615725 
L 191.287767 125.07043 
L 191.602659 122.58207 
L 191.917552 121.483596 
L 192.547338 131.911887 
L 192.862231 130.78374 
L 193.492017 134.902892 
L 193.806909 216.435658 
L 194.121802 219.765383 
L 194.436695 221.388387 
L 194.751588 224.248498 
L 195.066481 225.757891 
L 195.381374 221.817073 
L 195.696267 215.490082 
L 196.01116 216.609941 
L 196.326052 215.88263 
L 196.640945 131.243712 
L 196.955838 129.499283 
L 197.270731 129.165928 
L 197.585624 130.510898 
L 197.900517 129.368052 
L 198.530302 122.567985 
L 199.160088 126.343301 
L 199.789874 117.822222 
L 200.104767 119.382326 
L 200.734553 119.643889 
L 201.364338 132.377624 
L 201.679231 131.064367 
L 201.994124 131.166343 
L 202.309017 134.148824 
L 202.62391 213.789943 
L 202.938803 215.137146 
L 203.253695 215.964766 
L 203.568588 128.301692 
L 203.883481 119.677952 
L 204.198374 129.392629 
L 204.513267 131.91293 
L 204.82816 125.288199 
L 205.143053 127.625928 
L 205.457946 127.076677 
L 205.772838 126.245447 
L 206.402624 126.001388 
L 206.717517 124.927119 
L 207.03241 118.386456 
L 207.347303 114.79123 
L 207.977088 118.97266 
L 208.291981 115.576559 
L 208.606874 116.010426 
L 209.23666 119.277511 
L 209.551553 119.993026 
L 209.866446 120.279216 
L 210.181339 122.814507 
L 210.496231 122.828388 
L 210.811124 122.18478 
L 211.44091 133.859326 
L 211.755803 133.043845 
L 212.070696 131.606744 
L 212.385589 129.552438 
L 212.700481 128.928345 
L 213.015374 134.962007 
L 213.330267 217.443912 
L 213.64516 217.463206 
L 214.274946 214.033056 
L 214.589839 133.302723 
L 214.904732 132.295806 
L 215.219624 129.127794 
L 215.84941 116.421236 
L 216.164303 116.089473 
L 216.479196 116.930849 
L 217.108982 110.896238 
L 217.423874 110.431493 
L 217.738767 109.276447 
L 218.05366 113.498417 
L 218.368553 108.335176 
L 218.683446 109.10782 
L 219.313232 116.222544 
L 219.943017 120.450126 
L 220.25791 118.460432 
L 220.572803 118.591061 
L 221.202589 135.647568 
L 221.517482 134.895353 
L 222.147267 132.529083 
L 222.46216 132.207919 
L 223.091946 125.779254 
L 223.406839 124.562475 
L 223.721732 127.655288 
L 224.036625 128.804685 
L 224.66641 120.990095 
L 224.981303 119.606515 
L 225.296196 120.368805 
L 225.925982 117.019397 
L 226.240875 117.932083 
L 226.555768 118.058851 
L 226.87066 119.356623 
L 227.500446 125.260781 
L 227.815339 124.165012 
L 228.760018 127.913914 
L 229.074911 130.91459 
L 229.389803 131.406373 
L 229.704696 133.034105 
L 230.019589 130.296865 
L 230.334482 215.199101 
L 230.649375 222.502046 
L 230.964268 134.251251 
L 231.279161 123.220916 
L 231.594053 132.421133 
L 231.908946 216.656702 
L 232.223839 133.556868 
L 232.853625 126.080858 
L 233.483411 127.741473 
L 234.113196 134.013746 
L 234.428089 134.668932 
L 234.742982 214.592598 
L 235.057875 214.273175 
L 235.372768 133.803467 
L 235.687661 135.790038 
L 236.002554 220.756546 
L 236.317446 226.704614 
L 236.632339 222.247661 
L 236.947232 215.991774 
L 237.577018 226.779502 
L 237.891911 224.522108 
L 238.206804 220.658915 
L 238.521696 221.585179 
L 238.836589 221.275636 
L 239.151482 219.037441 
L 239.466375 215.816301 
L 239.781268 217.942879 
L 240.096161 218.96364 
L 240.411054 213.590362 
L 240.725947 130.751163 
L 241.355732 133.20032 
L 241.670625 131.844801 
L 241.985518 131.508547 
L 242.615304 133.592094 
L 242.930197 130.079078 
L 243.245089 128.173178 
L 243.559982 130.305565 
L 243.874875 131.144124 
L 244.189768 131.589974 
L 244.504661 214.741959 
L 244.819554 220.580529 
L 245.134447 216.452069 
L 245.44934 134.724172 
L 245.764232 214.139654 
L 246.079125 219.181752 
L 246.708911 222.571501 
L 247.023804 223.397653 
L 247.338697 221.874614 
L 247.968482 215.749063 
L 248.598268 221.720958 
L 248.913161 220.866403 
L 249.228054 217.306549 
L 249.542947 218.308207 
L 250.172733 217.401669 
L 250.487625 135.761386 
L 250.802518 130.133168 
L 251.117411 131.508947 
L 251.432304 134.409887 
L 251.747197 132.480874 
L 252.06209 132.907911 
L 252.376983 134.354627 
L 252.691875 132.201713 
L 253.006768 128.405765 
L 253.321661 76.190789 
L 253.636554 79.024038 
L 253.951447 77.539505 
L 254.26634 76.943487 
L 254.581233 78.85569 
L 254.896126 79.802629 
L 255.525911 83.819258 
L 255.840804 86.815259 
L 256.155697 86.73612 
L 256.47059 84.854505 
L 256.785483 85.635471 
L 257.730161 91.563214 
L 258.359947 88.701058 
L 258.67484 88.476879 
L 259.304626 82.751795 
L 259.619519 80.754562 
L 260.249304 79.709554 
L 260.564197 79.885676 
L 261.193983 75.004521 
L 261.508876 73.928326 
L 261.823769 72.450513 
L 262.138661 73.283479 
L 262.453554 74.532345 
L 262.768447 70.43201 
L 263.08334 70.455384 
L 263.398233 71.088245 
L 263.713126 72.03619 
L 264.342912 80.016666 
L 264.972697 80.670647 
L 265.28759 80.610402 
L 265.602483 86.119002 
L 266.232269 91.271965 
L 266.547162 92.613811 
L 266.862054 93.091284 
L 268.121626 82.607945 
L 268.436519 82.859126 
L 268.751412 82.467775 
L 269.066305 81.027783 
L 270.010983 69.899375 
L 270.325876 69.091944 
L 270.955662 64.031716 
L 271.270555 63.408612 
L 271.585447 58.538487 
L 272.215233 68.440969 
L 272.530126 59.224477 
L 272.845019 53.568 
L 273.159912 54.388819 
L 273.474805 58.547497 
L 274.10459 72.557848 
L 274.419483 71.455232 
L 274.734376 69.145093 
L 275.364162 79.775485 
L 275.679055 79.919535 
L 275.993948 78.467094 
L 276.30884 79.04092 
L 276.623733 84.426523 
L 276.938626 87.416882 
L 277.568412 83.885173 
L 277.883305 87.712214 
L 278.198198 87.400662 
L 278.827983 71.634318 
L 279.142876 70.904851 
L 279.457769 71.042299 
L 279.772662 70.202774 
L 280.087555 65.239232 
L 280.402448 62.494407 
L 281.032233 54.681378 
L 281.662019 67.120419 
L 282.291805 58.217973 
L 282.606698 59.435907 
L 283.236484 67.531069 
L 283.551376 69.255949 
L 283.866269 74.682224 
L 284.496055 72.814724 
L 285.125841 83.90622 
L 285.440734 80.156818 
L 285.755626 78.196 
L 286.070519 84.998948 
L 286.385412 85.82052 
L 286.700305 85.869388 
L 287.015198 91.218481 
L 287.330091 93.753056 
L 287.644984 93.523826 
L 287.959877 91.664137 
L 288.589662 79.459963 
L 288.904555 78.49522 
L 289.219448 78.381431 
L 289.534341 76.058492 
L 289.849234 74.756203 
L 290.164127 73.977811 
L 290.479019 72.137233 
L 290.793912 71.789859 
L 291.108805 71.229879 
L 291.423698 69.684422 
L 291.738591 73.685418 
L 292.053484 74.141309 
L 292.368377 73.905839 
L 292.998162 82.64813 
L 293.627948 75.142598 
L 294.257734 82.160947 
L 294.572627 82.179449 
L 294.88752 83.914613 
L 295.202412 84.272943 
L 295.517305 84.416069 
L 295.832198 85.046108 
L 296.461984 77.719716 
L 296.776877 79.05949 
L 297.09177 76.96388 
L 297.406663 78.512871 
L 298.036448 69.350553 
L 298.666234 71.039869 
L 298.981127 70.059213 
L 299.29602 70.638309 
L 299.610913 70.924318 
L 299.925805 71.013938 
L 300.240698 72.833249 
L 300.870484 80.011857 
L 301.185377 81.452758 
L 301.815163 69.994102 
L 302.444948 88.429368 
L 302.759841 88.24195 
L 303.074734 86.875182 
L 303.70452 90.497617 
L 304.019413 83.297286 
L 304.334306 85.217326 
L 304.649198 89.588992 
L 305.278984 72.18373 
L 305.593877 75.627294 
L 305.90877 77.265027 
L 306.853449 71.333199 
L 307.168341 73.911535 
L 307.483234 78.09698 
L 307.798127 75.435146 
L 308.11302 71.73725 
L 308.742806 79.553375 
L 309.057699 81.466925 
L 309.687484 90.707909 
L 310.002377 92.697401 
L 310.31727 96.410364 
L 310.632163 97.719279 
L 311.261949 89.589902 
L 311.576842 88.851553 
L 312.206627 101.577595 
L 312.836413 69.940724 
L 313.466199 86.164076 
L 314.095984 70.147616 
L 314.410877 69.86135 
L 315.040663 74.56151 
L 315.355556 72.040831 
L 315.670449 71.360293 
L 315.985342 71.158361 
L 316.615127 77.90054 
L 316.93002 76.735227 
L 317.244913 76.163626 
L 317.874699 90.198058 
L 318.189592 91.012008 
L 318.504485 93.045068 
L 318.819377 92.971007 
L 319.13427 90.951875 
L 319.449163 93.253769 
L 319.764056 96.798015 
L 320.078949 94.964091 
L 320.393842 91.662623 
L 320.708735 91.757894 
L 321.023628 90.779214 
L 321.33852 93.522876 
L 321.653413 94.464813 
L 321.968306 93.311872 
L 322.283199 93.193081 
L 322.598092 92.144608 
L 323.227878 86.411556 
L 323.54277 86.988249 
L 323.857663 91.562623 
L 324.802342 96.649213 
L 325.117235 104.859083 
L 325.432128 103.447964 
L 325.747021 97.712476 
L 326.376806 109.716401 
L 327.006592 107.861259 
L 327.951271 102.078039 
L 328.266163 106.381493 
L 328.581056 108.045203 
L 328.895949 108.016827 
L 329.210842 109.607025 
L 329.525735 107.991789 
L 329.840628 109.854031 
L 330.155521 112.494482 
L 330.785306 103.361667 
L 331.100199 103.230991 
L 331.415092 104.869251 
L 331.729985 107.385348 
L 332.044878 105.065354 
L 332.359771 103.674529 
L 332.989556 112.188945 
L 333.619342 107.871106 
L 333.934235 113.767738 
L 334.249128 117.301752 
L 334.564021 117.576627 
L 334.878914 117.691293 
L 335.193807 120.32005 
L 335.508699 120.548889 
L 335.823592 119.717239 
L 336.453378 117.140399 
L 336.768271 123.123955 
L 337.083164 121.367696 
L 337.398057 115.413178 
L 338.027842 126.594892 
L 338.342735 115.00396 
L 338.657628 115.637756 
L 338.972521 118.729288 
L 339.287414 117.6666 
L 339.602307 117.186984 
L 340.232092 110.046564 
L 341.176771 123.184832 
L 341.491664 124.728829 
L 341.806557 121.47331 
L 342.12145 124.699963 
L 342.436342 131.061227 
L 342.751235 132.447179 
L 343.066128 129.157393 
L 343.381021 129.636126 
L 343.695914 130.510147 
L 344.3257 133.823029 
L 344.640593 132.380266 
L 344.955485 128.916694 
L 345.270378 130.590621 
L 345.585271 133.663751 
L 345.900164 132.540868 
L 346.215057 134.547766 
L 346.52995 214.368909 
L 346.844843 213.537496 
L 347.159735 135.631648 
L 347.474628 133.065629 
L 347.789521 214.607921 
L 348.104414 217.648873 
L 348.419307 217.266747 
L 348.7342 215.80957 
L 349.049093 219.455041 
L 349.363986 220.69228 
L 349.678878 220.835172 
L 349.993771 221.11489 
L 350.308664 218.531813 
L 350.623557 220.696461 
L 350.93845 224.301065 
L 351.253343 135.718172 
L 351.568236 127.220945 
L 351.883128 132.373317 
L 352.198021 131.524713 
L 352.827807 124.944756 
L 353.1427 124.896397 
L 353.772486 133.747434 
L 354.402271 130.523045 
L 354.717164 131.60377 
L 355.032057 131.625831 
L 355.34695 215.057496 
L 355.661843 220.515482 
L 355.976736 220.915338 
L 356.291629 216.184561 
L 356.606521 215.686473 
L 357.236307 219.597096 
L 357.5512 219.339231 
L 357.866093 215.299382 
L 358.180986 219.211361 
L 358.495879 220.754216 
L 358.810772 219.016858 
L 359.440557 227.601045 
L 359.75545 220.003829 
L 360.070343 135.048972 
L 360.385236 132.472897 
L 360.700129 132.303822 
L 361.015022 131.052957 
L 361.329914 214.903662 
L 361.644807 221.898714 
L 361.9597 217.867344 
L 362.274593 215.288396 
L 362.589486 214.875147 
L 362.904379 215.99574 
L 363.219272 219.492672 
L 363.534165 225.036128 
L 363.849057 223.382441 
L 364.478843 227.493517 
L 365.108629 222.355918 
L 365.423522 222.87625 
L 365.738415 221.770552 
L 366.053307 225.786737 
L 366.3682 218.199857 
L 366.683093 133.222459 
L 366.997986 135.199358 
L 367.312879 215.306096 
L 367.627772 217.46496 
L 367.942665 217.481035 
L 368.257558 215.27969 
L 368.57245 135.288516 
L 368.887343 217.710152 
L 369.202236 213.6802 
L 369.517129 130.765872 
L 369.832022 214.605664 
L 370.146915 222.688089 
L 370.461808 221.374531 
L 370.7767 214.448287 
L 371.091593 221.064846 
L 371.406486 230.410531 
L 371.721379 231.294312 
L 372.036272 228.233595 
L 372.351165 228.550009 
L 372.666058 287.242661 
L 372.980951 291.875948 
L 373.295843 291.9915 
L 373.610736 290.121053 
L 373.925629 285.323141 
L 374.240522 283.097514 
L 374.555415 283.001459 
L 374.870308 279.821958 
L 375.185201 274.638494 
L 375.500093 274.317698 
L 375.814986 273.724198 
L 376.129879 271.718536 
L 376.759665 263.971927 
L 377.074558 265.254563 
L 377.389451 274.182961 
L 377.704344 274.915642 
L 378.334129 260.349946 
L 378.963915 275.842162 
L 379.278808 269.005996 
L 379.593701 265.729331 
L 379.908594 270.890481 
L 381.483058 283.777897 
L 381.797951 279.025704 
L 382.427737 265.815126 
L 382.742629 268.90635 
L 383.057522 270.080475 
L 383.372415 268.742793 
L 383.687308 270.057933 
L 384.317094 259.803196 
L 384.631987 259.524322 
L 384.946879 259.424677 
L 385.261772 255.712724 
L 385.891558 258.204237 
L 386.206451 261.099956 
L 386.521344 259.663574 
L 386.836237 260.807864 
L 387.466022 271.091625 
L 387.780915 270.479737 
L 388.095808 269.28041 
L 388.410701 270.989797 
L 388.725594 269.537899 
L 389.040487 266.024629 
L 389.35538 267.855923 
L 389.670272 271.463067 
L 389.985165 267.734298 
L 390.300058 258.42652 
L 390.614951 259.259214 
L 390.929844 256.89081 
L 391.244737 257.784964 
L 391.55963 259.458077 
L 392.189415 245.518263 
L 392.504308 250.850826 
L 392.819201 258.854685 
L 393.448987 252.338732 
L 393.76388 254.470079 
L 394.078773 254.055866 
L 394.393665 255.54313 
L 394.708558 252.303369 
L 395.023451 251.437261 
L 395.653237 264.34782 
L 395.96813 260.860286 
L 396.283023 259.410834 
L 396.912808 254.217403 
L 397.227701 257.003211 
L 397.542594 258.413898 
L 397.857487 255.970227 
L 398.487273 246.989428 
L 398.487273 246.989428 
" style="fill:none;stroke:#1f77b4;stroke-linecap:square;stroke-width:1.5;"/>
   </g>
   <g id="patch_3">
    <path d="M 57.6 307.584 
L 57.6 41.472 
" style="fill:none;stroke:#000000;stroke-linecap:square;stroke-linejoin:miter;stroke-width:0.8;"/>
   </g>
   <g id="patch_4">
    <path d="M 414.72 307.584 
L 414.72 41.472 
" style="fill:none;stroke:#000000;stroke-linecap:square;stroke-linejoin:miter;stroke-width:0.8;"/>
   </g>
   <g id="patch_5">
    <path d="M 57.6 307.584 
L 414.72 307.584 
" style="fill:none;stroke:#000000;stroke-linecap:square;stroke-linejoin:miter;stroke-width:0.8;"/>
   </g>
   <g id="patch_6">
    <path d="M 57.6 41.472 
L 414.72 41.472 
" style="fill:none;stroke:#000000;stroke-linecap:square;stroke-linejoin:miter;stroke-width:0.8;"/>
   </g>
   <g id="text_14">
    <!-- Motor 2 speed history -->
    <defs>
     <path d="M 9.8125 72.90625 
L 24.515625 72.90625 
L 43.109375 23.296875 
L 61.8125 72.90625 
L 76.515625 72.90625 
L 76.515625 0 
L 66.890625 0 
L 66.890625 64.015625 
L 48.09375 14.015625 
L 38.1875 14.015625 
L 19.390625 64.015625 
L 19.390625 0 
L 9.8125 0 
z
" id="DejaVuSans-4d"/>
     <path d="M 30.609375 48.390625 
Q 23.390625 48.390625 19.1875 42.75 
Q 14.984375 37.109375 14.984375 27.296875 
Q 14.984375 17.484375 19.15625 11.84375 
Q 23.34375 6.203125 30.609375 6.203125 
Q 37.796875 6.203125 41.984375 11.859375 
Q 46.1875 17.53125 46.1875 27.296875 
Q 46.1875 37.015625 41.984375 42.703125 
Q 37.796875 48.390625 30.609375 48.390625 
z
M 30.609375 56 
Q 42.328125 56 49.015625 48.375 
Q 55.71875 40.765625 55.71875 27.296875 
Q 55.71875 13.875 49.015625 6.21875 
Q 42.328125 -1.421875 30.609375 -1.421875 
Q 18.84375 -1.421875 12.171875 6.21875 
Q 5.515625 13.875 5.515625 27.296875 
Q 5.515625 40.765625 12.171875 48.375 
Q 18.84375 56 30.609375 56 
z
" id="DejaVuSans-6f"/>
     <path d="M 18.3125 70.21875 
L 18.3125 54.6875 
L 36.8125 54.6875 
L 36.8125 47.703125 
L 18.3125 47.703125 
L 18.3125 18.015625 
Q 18.3125 11.328125 20.140625 9.421875 
Q 21.96875 7.515625 27.59375 7.515625 
L 36.8125 7.515625 
L 36.8125 0 
L 27.59375 0 
Q 17.1875 0 13.234375 3.875 
Q 9.28125 7.765625 9.28125 18.015625 
L 9.28125 47.703125 
L 2.6875 47.703125 
L 2.6875 54.6875 
L 9.28125 54.6875 
L 9.28125 70.21875 
z
" id="DejaVuSans-74"/>
     <path d="M 41.109375 46.296875 
Q 39.59375 47.171875 37.8125 47.578125 
Q 36.03125 48 33.890625 48 
Q 26.265625 48 22.1875 43.046875 
Q 18.109375 38.09375 18.109375 28.8125 
L 18.109375 0 
L 9.078125 0 
L 9.078125 54.6875 
L 18.109375 54.6875 
L 18.109375 46.1875 
Q 20.953125 51.171875 25.484375 53.578125 
Q 30.03125 56 36.53125 56 
Q 37.453125 56 38.578125 55.875 
Q 39.703125 55.765625 41.0625 55.515625 
z
" id="DejaVuSans-72"/>
     <path id="DejaVuSans-20"/>
     <path d="M 44.28125 53.078125 
L 44.28125 44.578125 
Q 40.484375 46.53125 36.375 47.5 
Q 32.28125 48.484375 27.875 48.484375 
Q 21.1875 48.484375 17.84375 46.4375 
Q 14.5 44.390625 14.5 40.28125 
Q 14.5 37.15625 16.890625 35.375 
Q 19.28125 33.59375 26.515625 31.984375 
L 29.59375 31.296875 
Q 39.15625 29.25 43.1875 25.515625 
Q 47.21875 21.78125 47.21875 15.09375 
Q 47.21875 7.46875 41.1875 3.015625 
Q 35.15625 -1.421875 24.609375 -1.421875 
Q 20.21875 -1.421875 15.453125 -0.5625 
Q 10.6875 0.296875 5.421875 2 
L 5.421875 11.28125 
Q 10.40625 8.6875 15.234375 7.390625 
Q 20.0625 6.109375 24.8125 6.109375 
Q 31.15625 6.109375 34.5625 8.28125 
Q 37.984375 10.453125 37.984375 14.40625 
Q 37.984375 18.0625 35.515625 20.015625 
Q 33.0625 21.96875 24.703125 23.78125 
L 21.578125 24.515625 
Q 13.234375 26.265625 9.515625 29.90625 
Q 5.8125 33.546875 5.8125 39.890625 
Q 5.8125 47.609375 11.28125 51.796875 
Q 16.75 56 26.8125 56 
Q 31.78125 56 36.171875 55.265625 
Q 40.578125 54.546875 44.28125 53.078125 
z
" id="DejaVuSans-73"/>
     <path d="M 18.109375 8.203125 
L 18.109375 -20.796875 
L 9.078125 -20.796875 
L 9.078125 54.6875 
L 18.109375 54.6875 
L 18.109375 46.390625 
Q 20.953125 51.265625 25.265625 53.625 
Q 29.59375 56 35.59375 56 
Q 45.5625 56 51.78125 48.09375 
Q 58.015625 40.1875 58.015625 27.296875 
Q 58.015625 14.40625 51.78125 6.484375 
Q 45.5625 -1.421875 35.59375 -1.421875 
Q 29.59375 -1.421875 25.265625 0.953125 
Q 20.953125 3.328125 18.109375 8.203125 
z
M 48.6875 27.296875 
Q 48.6875 37.203125 44.609375 42.84375 
Q 40.53125 48.484375 33.40625 48.484375 
Q 26.265625 48.484375 22.1875 42.84375 
Q 18.109375 37.203125 18.109375 27.296875 
Q 18.109375 17.390625 22.1875 11.75 
Q 26.265625 6.109375 33.40625 6.109375 
Q 40.53125 6.109375 44.609375 11.75 
Q 48.6875 17.390625 48.6875 27.296875 
z
" id="DejaVuSans-70"/>
     <path d="M 56.203125 29.59375 
L 56.203125 25.203125 
L 14.890625 25.203125 
Q 15.484375 15.921875 20.484375 11.0625 
Q 25.484375 6.203125 34.421875 6.203125 
Q 39.59375 6.203125 44.453125 7.46875 
Q 49.3125 8.734375 54.109375 11.28125 
L 54.109375 2.78125 
Q 49.265625 0.734375 44.1875 -0.34375 
Q 39.109375 -1.421875 33.890625 -1.421875 
Q 20.796875 -1.421875 13.15625 6.1875 
Q 5.515625 13.8125 5.515625 26.8125 
Q 5.515625 40.234375 12.765625 48.109375 
Q 20.015625 56 32.328125 56 
Q 43.359375 56 49.78125 48.890625 
Q 56.203125 41.796875 56.203125 29.59375 
z
M 47.21875 32.234375 
Q 47.125 39.59375 43.09375 43.984375 
Q 39.0625 48.390625 32.421875 48.390625 
Q 24.90625 48.390625 20.390625 44.140625 
Q 15.875 39.890625 15.1875 32.171875 
z
" id="DejaVuSans-65"/>
     <path d="M 45.40625 46.390625 
L 45.40625 75.984375 
L 54.390625 75.984375 
L 54.390625 0 
L 45.40625 0 
L 45.40625 8.203125 
Q 42.578125 3.328125 38.25 0.953125 
Q 33.9375 -1.421875 27.875 -1.421875 
Q 17.96875 -1.421875 11.734375 6.484375 
Q 5.515625 14.40625 5.515625 27.296875 
Q 5.515625 40.1875 11.734375 48.09375 
Q 17.96875 56 27.875 56 
Q 33.9375 56 38.25 53.625 
Q 42.578125 51.265625 45.40625 46.390625 
z
M 14.796875 27.296875 
Q 14.796875 17.390625 18.875 11.75 
Q 22.953125 6.109375 30.078125 6.109375 
Q 37.203125 6.109375 41.296875 11.75 
Q 45.40625 17.390625 45.40625 27.296875 
Q 45.40625 37.203125 41.296875 42.84375 
Q 37.203125 48.484375 30.078125 48.484375 
Q 22.953125 48.484375 18.875 42.84375 
Q 14.796875 37.203125 14.796875 27.296875 
z
" id="DejaVuSans-64"/>
     <path d="M 54.890625 33.015625 
L 54.890625 0 
L 45.90625 0 
L 45.90625 32.71875 
Q 45.90625 40.484375 42.875 44.328125 
Q 39.84375 48.1875 33.796875 48.1875 
Q 26.515625 48.1875 22.3125 43.546875 
Q 18.109375 38.921875 18.109375 30.90625 
L 18.109375 0 
L 9.078125 0 
L 9.078125 75.984375 
L 18.109375 75.984375 
L 18.109375 46.1875 
Q 21.34375 51.125 25.703125 53.5625 
Q 30.078125 56 35.796875 56 
Q 45.21875 56 50.046875 50.171875 
Q 54.890625 44.34375 54.890625 33.015625 
z
" id="DejaVuSans-68"/>
     <path d="M 9.421875 54.6875 
L 18.40625 54.6875 
L 18.40625 0 
L 9.421875 0 
z
M 9.421875 75.984375 
L 18.40625 75.984375 
L 18.40625 64.59375 
L 9.421875 64.59375 
z
" id="DejaVuSans-69"/>
     <path d="M 32.171875 -5.078125 
Q 28.375 -14.84375 24.75 -17.8125 
Q 21.140625 -20.796875 15.09375 -20.796875 
L 7.90625 -20.796875 
L 7.90625 -13.28125 
L 13.1875 -13.28125 
Q 16.890625 -13.28125 18.9375 -11.515625 
Q 21 -9.765625 23.484375 -3.21875 
L 25.09375 0.875 
L 2.984375 54.6875 
L 12.5 54.6875 
L 29.59375 11.921875 
L 46.6875 54.6875 
L 56.203125 54.6875 
z
" id="DejaVuSans-79"/>
    </defs>
    <g transform="translate(170.52 35.472)scale(0.12 -0.12)">
     <use xlink:href="#DejaVuSans-4d"/>
     <use x="86.279297" xlink:href="#DejaVuSans-6f"/>
     <use x="147.460938" xlink:href="#DejaVuSans-74"/>
     <use x="186.669922" xlink:href="#DejaVuSans-6f"/>
     <use x="247.851562" xlink:href="#DejaVuSans-72"/>
     <use x="288.964844" xlink:href="#DejaVuSans-20"/>
     <use x="320.751953" xlink:href="#DejaVuSans-32"/>
     <use x="384.375" xlink:href="#DejaVuSans-20"/>
     <use x="416.162109" xlink:href="#DejaVuSans-73"/>
     <use x="468.261719" xlink:href="#DejaVuSans-70"/>
     <use x="531.738281" xlink:href="#DejaVuSans-65"/>
     <use x="593.261719" xlink:href="#DejaVuSans-65"/>
     <use x="654.785156" xlink:href="#DejaVuSans-64"/>
     <use x="718.261719" xlink:href="#DejaVuSans-20"/>
     <use x="750.048828" xlink:href="#DejaVuSans-68"/>
     <use x="813.427734" xlink:href="#DejaVuSans-69"/>
     <use x="841.210938" xlink:href="#DejaVuSans-73"/>
     <use x="893.310547" xlink:href="#DejaVuSans-74"/>
     <use x="932.519531" xlink:href="#DejaVuSans-6f"/>
     <use x="993.701172" xlink:href="#DejaVuSans-72"/>
     <use x="1034.814453" xlink:href="#DejaVuSans-79"/>
    </g>
   </g>
   <g id="legend_1">
    <g id="patch_7">
     <path d="M 351.452813 64.150125 
L 407.72 64.150125 
Q 409.72 64.150125 409.72 62.150125 
L 409.72 48.472 
Q 409.72 46.472 407.72 46.472 
L 351.452813 46.472 
Q 349.452813 46.472 349.452813 48.472 
L 349.452813 62.150125 
Q 349.452813 64.150125 351.452813 64.150125 
z
" style="fill:#ffffff;opacity:0.8;stroke:#cccccc;stroke-linejoin:miter;"/>
    </g>
    <g id="line2d_15">
     <path d="M 353.452813 54.570438 
L 373.452813 54.570438 
" style="fill:none;stroke:#1f77b4;stroke-linecap:square;stroke-width:1.5;"/>
    </g>
    <g id="line2d_16"/>
    <g id="text_15">
     <!-- pwm -->
     <defs>
      <path d="M 4.203125 54.6875 
L 13.1875 54.6875 
L 24.421875 12.015625 
L 35.59375 54.6875 
L 46.1875 54.6875 
L 57.421875 12.015625 
L 68.609375 54.6875 
L 77.59375 54.6875 
L 63.28125 0 
L 52.6875 0 
L 40.921875 44.828125 
L 29.109375 0 
L 18.5 0 
z
" id="DejaVuSans-77"/>
      <path d="M 52 44.1875 
Q 55.375 50.25 60.0625 53.125 
Q 64.75 56 71.09375 56 
Q 79.640625 56 84.28125 50.015625 
Q 88.921875 44.046875 88.921875 33.015625 
L 88.921875 0 
L 79.890625 0 
L 79.890625 32.71875 
Q 79.890625 40.578125 77.09375 44.375 
Q 74.3125 48.1875 68.609375 48.1875 
Q 61.625 48.1875 57.5625 43.546875 
Q 53.515625 38.921875 53.515625 30.90625 
L 53.515625 0 
L 44.484375 0 
L 44.484375 32.71875 
Q 44.484375 40.625 41.703125 44.40625 
Q 38.921875 48.1875 33.109375 48.1875 
Q 26.21875 48.1875 22.15625 43.53125 
Q 18.109375 38.875 18.109375 30.90625 
L 18.109375 0 
L 9.078125 0 
L 9.078125 54.6875 
L 18.109375 54.6875 
L 18.109375 46.1875 
Q 21.1875 51.21875 25.484375 53.609375 
Q 29.78125 56 35.6875 56 
Q 41.65625 56 45.828125 52.96875 
Q 50 49.953125 52 44.1875 
z
" id="DejaVuSans-6d"/>
     </defs>
     <g transform="translate(381.452813 58.070438)scale(0.1 -0.1)">
      <use xlink:href="#DejaVuSans-70"/>
      <use x="63.476562" xlink:href="#DejaVuSans-77"/>
      <use x="145.263672" xlink:href="#DejaVuSans-6d"/>
     </g>
    </g>
   </g>
  </g>
 </g>
 <defs>
  <clipPath id="pae6ebb845a">
   <rect height="266.112" width="357.12" x="57.6" y="41.472"/>
  </clipPath>
 </defs>
</svg>
