<?xml version="1.0" encoding="utf-8" standalone="no"?>
<!DOCTYPE svg PUBLIC "-//W3C//DTD SVG 1.1//EN"
  "http://www.w3.org/Graphics/SVG/1.1/DTD/svg11.dtd">
<!-- Created with matplotlib (http://matplotlib.org/) -->
<svg height="345pt" version="1.1" viewBox="0 0 460 345" width="460pt" xmlns="http://www.w3.org/2000/svg" xmlns:xlink="http://www.w3.org/1999/xlink">
 <defs>
  <style type="text/css">
*{stroke-linecap:butt;stroke-linejoin:round;}
  </style>
 </defs>
 <g id="figure_1">
  <g id="patch_1">
   <path d="M 0 345.6 
L 460.8 345.6 
L 460.8 0 
L 0 0 
z
" style="fill:#ffffff;"/>
  </g>
  <g id="axes_1">
   <g id="patch_2">
    <path d="M 57.6 307.584 
L 414.72 307.584 
L 414.72 41.472 
L 57.6 41.472 
z
" style="fill:#ffffff;"/>
   </g>
   <g id="matplotlib.axis_1">
    <g id="xtick_1">
     <g id="line2d_1">
      <defs>
       <path d="M 0 0 
L 0 3.5 
" id="m332245c7c8" style="stroke:#000000;stroke-width:0.8;"/>
      </defs>
      <g>
       <use style="stroke:#000000;stroke-width:0.8;" x="73.832727" xlink:href="#m332245c7c8" y="307.584"/>
      </g>
     </g>
     <g id="text_1">
      <!-- 0 -->
      <defs>
       <path d="M 31.78125 66.40625 
Q 24.171875 66.40625 20.328125 58.90625 
Q 16.5 51.421875 16.5 36.375 
Q 16.5 21.390625 20.328125 13.890625 
Q 24.171875 6.390625 31.78125 6.390625 
Q 39.453125 6.390625 43.28125 13.890625 
Q 47.125 21.390625 47.125 36.375 
Q 47.125 51.421875 43.28125 58.90625 
Q 39.453125 66.40625 31.78125 66.40625 
z
M 31.78125 74.21875 
Q 44.046875 74.21875 50.515625 64.515625 
Q 56.984375 54.828125 56.984375 36.375 
Q 56.984375 17.96875 50.515625 8.265625 
Q 44.046875 -1.421875 31.78125 -1.421875 
Q 19.53125 -1.421875 13.0625 8.265625 
Q 6.59375 17.96875 6.59375 36.375 
Q 6.59375 54.828125 13.0625 64.515625 
Q 19.53125 74.21875 31.78125 74.21875 
z
" id="DejaVuSans-30"/>
      </defs>
      <g transform="translate(70.651477 322.182437)scale(0.1 -0.1)">
       <use xlink:href="#DejaVuSans-30"/>
      </g>
     </g>
    </g>
    <g id="xtick_2">
     <g id="line2d_2">
      <g>
       <use style="stroke:#000000;stroke-width:0.8;" x="136.811301" xlink:href="#m332245c7c8" y="307.584"/>
      </g>
     </g>
     <g id="text_2">
      <!-- 200 -->
      <defs>
       <path d="M 19.1875 8.296875 
L 53.609375 8.296875 
L 53.609375 0 
L 7.328125 0 
L 7.328125 8.296875 
Q 12.9375 14.109375 22.625 23.890625 
Q 32.328125 33.6875 34.8125 36.53125 
Q 39.546875 41.84375 41.421875 45.53125 
Q 43.3125 49.21875 43.3125 52.78125 
Q 43.3125 58.59375 39.234375 62.25 
Q 35.15625 65.921875 28.609375 65.921875 
Q 23.96875 65.921875 18.8125 64.3125 
Q 13.671875 62.703125 7.8125 59.421875 
L 7.8125 69.390625 
Q 13.765625 71.78125 18.9375 73 
Q 24.125 74.21875 28.421875 74.21875 
Q 39.75 74.21875 46.484375 68.546875 
Q 53.21875 62.890625 53.21875 53.421875 
Q 53.21875 48.921875 51.53125 44.890625 
Q 49.859375 40.875 45.40625 35.40625 
Q 44.1875 33.984375 37.640625 27.21875 
Q 31.109375 20.453125 19.1875 8.296875 
z
" id="DejaVuSans-32"/>
      </defs>
      <g transform="translate(127.267551 322.182437)scale(0.1 -0.1)">
       <use xlink:href="#DejaVuSans-32"/>
       <use x="63.623047" xlink:href="#DejaVuSans-30"/>
       <use x="127.246094" xlink:href="#DejaVuSans-30"/>
      </g>
     </g>
    </g>
    <g id="xtick_3">
     <g id="line2d_3">
      <g>
       <use style="stroke:#000000;stroke-width:0.8;" x="199.789874" xlink:href="#m332245c7c8" y="307.584"/>
      </g>
     </g>
     <g id="text_3">
      <!-- 400 -->
      <defs>
       <path d="M 37.796875 64.3125 
L 12.890625 25.390625 
L 37.796875 25.390625 
z
M 35.203125 72.90625 
L 47.609375 72.90625 
L 47.609375 25.390625 
L 58.015625 25.390625 
L 58.015625 17.1875 
L 47.609375 17.1875 
L 47.609375 0 
L 37.796875 0 
L 37.796875 17.1875 
L 4.890625 17.1875 
L 4.890625 26.703125 
z
" id="DejaVuSans-34"/>
      </defs>
      <g transform="translate(190.246124 322.182437)scale(0.1 -0.1)">
       <use xlink:href="#DejaVuSans-34"/>
       <use x="63.623047" xlink:href="#DejaVuSans-30"/>
       <use x="127.246094" xlink:href="#DejaVuSans-30"/>
      </g>
     </g>
    </g>
    <g id="xtick_4">
     <g id="line2d_4">
      <g>
       <use style="stroke:#000000;stroke-width:0.8;" x="262.768447" xlink:href="#m332245c7c8" y="307.584"/>
      </g>
     </g>
     <g id="text_4">
      <!-- 600 -->
      <defs>
       <path d="M 33.015625 40.375 
Q 26.375 40.375 22.484375 35.828125 
Q 18.609375 31.296875 18.609375 23.390625 
Q 18.609375 15.53125 22.484375 10.953125 
Q 26.375 6.390625 33.015625 6.390625 
Q 39.65625 6.390625 43.53125 10.953125 
Q 47.40625 15.53125 47.40625 23.390625 
Q 47.40625 31.296875 43.53125 35.828125 
Q 39.65625 40.375 33.015625 40.375 
z
M 52.59375 71.296875 
L 52.59375 62.3125 
Q 48.875 64.0625 45.09375 64.984375 
Q 41.3125 65.921875 37.59375 65.921875 
Q 27.828125 65.921875 22.671875 59.328125 
Q 17.53125 52.734375 16.796875 39.40625 
Q 19.671875 43.65625 24.015625 45.921875 
Q 28.375 48.1875 33.59375 48.1875 
Q 44.578125 48.1875 50.953125 41.515625 
Q 57.328125 34.859375 57.328125 23.390625 
Q 57.328125 12.15625 50.6875 5.359375 
Q 44.046875 -1.421875 33.015625 -1.421875 
Q 20.359375 -1.421875 13.671875 8.265625 
Q 6.984375 17.96875 6.984375 36.375 
Q 6.984375 53.65625 15.1875 63.9375 
Q 23.390625 74.21875 37.203125 74.21875 
Q 40.921875 74.21875 44.703125 73.484375 
Q 48.484375 72.75 52.59375 71.296875 
z
" id="DejaVuSans-36"/>
      </defs>
      <g transform="translate(253.224697 322.182437)scale(0.1 -0.1)">
       <use xlink:href="#DejaVuSans-36"/>
       <use x="63.623047" xlink:href="#DejaVuSans-30"/>
       <use x="127.246094" xlink:href="#DejaVuSans-30"/>
      </g>
     </g>
    </g>
    <g id="xtick_5">
     <g id="line2d_5">
      <g>
       <use style="stroke:#000000;stroke-width:0.8;" x="325.747021" xlink:href="#m332245c7c8" y="307.584"/>
      </g>
     </g>
     <g id="text_5">
      <!-- 800 -->
      <defs>
       <path d="M 31.78125 34.625 
Q 24.75 34.625 20.71875 30.859375 
Q 16.703125 27.09375 16.703125 20.515625 
Q 16.703125 13.921875 20.71875 10.15625 
Q 24.75 6.390625 31.78125 6.390625 
Q 38.8125 6.390625 42.859375 10.171875 
Q 46.921875 13.96875 46.921875 20.515625 
Q 46.921875 27.09375 42.890625 30.859375 
Q 38.875 34.625 31.78125 34.625 
z
M 21.921875 38.8125 
Q 15.578125 40.375 12.03125 44.71875 
Q 8.5 49.078125 8.5 55.328125 
Q 8.5 64.0625 14.71875 69.140625 
Q 20.953125 74.21875 31.78125 74.21875 
Q 42.671875 74.21875 48.875 69.140625 
Q 55.078125 64.0625 55.078125 55.328125 
Q 55.078125 49.078125 51.53125 44.71875 
Q 48 40.375 41.703125 38.8125 
Q 48.828125 37.15625 52.796875 32.3125 
Q 56.78125 27.484375 56.78125 20.515625 
Q 56.78125 9.90625 50.3125 4.234375 
Q 43.84375 -1.421875 31.78125 -1.421875 
Q 19.734375 -1.421875 13.25 4.234375 
Q 6.78125 9.90625 6.78125 20.515625 
Q 6.78125 27.484375 10.78125 32.3125 
Q 14.796875 37.15625 21.921875 38.8125 
z
M 18.3125 54.390625 
Q 18.3125 48.734375 21.84375 45.5625 
Q 25.390625 42.390625 31.78125 42.390625 
Q 38.140625 42.390625 41.71875 45.5625 
Q 45.3125 48.734375 45.3125 54.390625 
Q 45.3125 60.0625 41.71875 63.234375 
Q 38.140625 66.40625 31.78125 66.40625 
Q 25.390625 66.40625 21.84375 63.234375 
Q 18.3125 60.0625 18.3125 54.390625 
z
" id="DejaVuSans-38"/>
      </defs>
      <g transform="translate(316.203271 322.182437)scale(0.1 -0.1)">
       <use xlink:href="#DejaVuSans-38"/>
       <use x="63.623047" xlink:href="#DejaVuSans-30"/>
       <use x="127.246094" xlink:href="#DejaVuSans-30"/>
      </g>
     </g>
    </g>
    <g id="xtick_6">
     <g id="line2d_6">
      <g>
       <use style="stroke:#000000;stroke-width:0.8;" x="388.725594" xlink:href="#m332245c7c8" y="307.584"/>
      </g>
     </g>
     <g id="text_6">
      <!-- 1000 -->
      <defs>
       <path d="M 12.40625 8.296875 
L 28.515625 8.296875 
L 28.515625 63.921875 
L 10.984375 60.40625 
L 10.984375 69.390625 
L 28.421875 72.90625 
L 38.28125 72.90625 
L 38.28125 8.296875 
L 54.390625 8.296875 
L 54.390625 0 
L 12.40625 0 
z
" id="DejaVuSans-31"/>
      </defs>
      <g transform="translate(376.000594 322.182437)scale(0.1 -0.1)">
       <use xlink:href="#DejaVuSans-31"/>
       <use x="63.623047" xlink:href="#DejaVuSans-30"/>
       <use x="127.246094" xlink:href="#DejaVuSans-30"/>
       <use x="190.869141" xlink:href="#DejaVuSans-30"/>
      </g>
     </g>
    </g>
   </g>
   <g id="matplotlib.axis_2">
    <g id="ytick_1">
     <g id="line2d_7">
      <defs>
       <path d="M 0 0 
L -3.5 0 
" id="m6942be6b10" style="stroke:#000000;stroke-width:0.8;"/>
      </defs>
      <g>
       <use style="stroke:#000000;stroke-width:0.8;" x="57.6" xlink:href="#m6942be6b10" y="294.241177"/>
      </g>
     </g>
     <g id="text_7">
      <!-- 1425 -->
      <defs>
       <path d="M 10.796875 72.90625 
L 49.515625 72.90625 
L 49.515625 64.59375 
L 19.828125 64.59375 
L 19.828125 46.734375 
Q 21.96875 47.46875 24.109375 47.828125 
Q 26.265625 48.1875 28.421875 48.1875 
Q 40.625 48.1875 47.75 41.5 
Q 54.890625 34.8125 54.890625 23.390625 
Q 54.890625 11.625 47.5625 5.09375 
Q 40.234375 -1.421875 26.90625 -1.421875 
Q 22.3125 -1.421875 17.546875 -0.640625 
Q 12.796875 0.140625 7.71875 1.703125 
L 7.71875 11.625 
Q 12.109375 9.234375 16.796875 8.0625 
Q 21.484375 6.890625 26.703125 6.890625 
Q 35.15625 6.890625 40.078125 11.328125 
Q 45.015625 15.765625 45.015625 23.390625 
Q 45.015625 31 40.078125 35.4375 
Q 35.15625 39.890625 26.703125 39.890625 
Q 22.75 39.890625 18.8125 39.015625 
Q 14.890625 38.140625 10.796875 36.28125 
z
" id="DejaVuSans-35"/>
      </defs>
      <g transform="translate(25.15 298.040396)scale(0.1 -0.1)">
       <use xlink:href="#DejaVuSans-31"/>
       <use x="63.623047" xlink:href="#DejaVuSans-34"/>
       <use x="127.246094" xlink:href="#DejaVuSans-32"/>
       <use x="190.869141" xlink:href="#DejaVuSans-35"/>
      </g>
     </g>
    </g>
    <g id="ytick_2">
     <g id="line2d_8">
      <g>
       <use style="stroke:#000000;stroke-width:0.8;" x="57.6" xlink:href="#m6942be6b10" y="258.941516"/>
      </g>
     </g>
     <g id="text_8">
      <!-- 1450 -->
      <g transform="translate(25.15 262.740735)scale(0.1 -0.1)">
       <use xlink:href="#DejaVuSans-31"/>
       <use x="63.623047" xlink:href="#DejaVuSans-34"/>
       <use x="127.246094" xlink:href="#DejaVuSans-35"/>
       <use x="190.869141" xlink:href="#DejaVuSans-30"/>
      </g>
     </g>
    </g>
    <g id="ytick_3">
     <g id="line2d_9">
      <g>
       <use style="stroke:#000000;stroke-width:0.8;" x="57.6" xlink:href="#m6942be6b10" y="223.641855"/>
      </g>
     </g>
     <g id="text_9">
      <!-- 1475 -->
      <defs>
       <path d="M 8.203125 72.90625 
L 55.078125 72.90625 
L 55.078125 68.703125 
L 28.609375 0 
L 18.3125 0 
L 43.21875 64.59375 
L 8.203125 64.59375 
z
" id="DejaVuSans-37"/>
      </defs>
      <g transform="translate(25.15 227.441074)scale(0.1 -0.1)">
       <use xlink:href="#DejaVuSans-31"/>
       <use x="63.623047" xlink:href="#DejaVuSans-34"/>
       <use x="127.246094" xlink:href="#DejaVuSans-37"/>
       <use x="190.869141" xlink:href="#DejaVuSans-35"/>
      </g>
     </g>
    </g>
    <g id="ytick_4">
     <g id="line2d_10">
      <g>
       <use style="stroke:#000000;stroke-width:0.8;" x="57.6" xlink:href="#m6942be6b10" y="188.342194"/>
      </g>
     </g>
     <g id="text_10">
      <!-- 1500 -->
      <g transform="translate(25.15 192.141413)scale(0.1 -0.1)">
       <use xlink:href="#DejaVuSans-31"/>
       <use x="63.623047" xlink:href="#DejaVuSans-35"/>
       <use x="127.246094" xlink:href="#DejaVuSans-30"/>
       <use x="190.869141" xlink:href="#DejaVuSans-30"/>
      </g>
     </g>
    </g>
    <g id="ytick_5">
     <g id="line2d_11">
      <g>
       <use style="stroke:#000000;stroke-width:0.8;" x="57.6" xlink:href="#m6942be6b10" y="153.042533"/>
      </g>
     </g>
     <g id="text_11">
      <!-- 1525 -->
      <g transform="translate(25.15 156.841752)scale(0.1 -0.1)">
       <use xlink:href="#DejaVuSans-31"/>
       <use x="63.623047" xlink:href="#DejaVuSans-35"/>
       <use x="127.246094" xlink:href="#DejaVuSans-32"/>
       <use x="190.869141" xlink:href="#DejaVuSans-35"/>
      </g>
     </g>
    </g>
    <g id="ytick_6">
     <g id="line2d_12">
      <g>
       <use style="stroke:#000000;stroke-width:0.8;" x="57.6" xlink:href="#m6942be6b10" y="117.742872"/>
      </g>
     </g>
     <g id="text_12">
      <!-- 1550 -->
      <g transform="translate(25.15 121.542091)scale(0.1 -0.1)">
       <use xlink:href="#DejaVuSans-31"/>
       <use x="63.623047" xlink:href="#DejaVuSans-35"/>
       <use x="127.246094" xlink:href="#DejaVuSans-35"/>
       <use x="190.869141" xlink:href="#DejaVuSans-30"/>
      </g>
     </g>
    </g>
    <g id="ytick_7">
     <g id="line2d_13">
      <g>
       <use style="stroke:#000000;stroke-width:0.8;" x="57.6" xlink:href="#m6942be6b10" y="82.443211"/>
      </g>
     </g>
     <g id="text_13">
      <!-- 1575 -->
      <g transform="translate(25.15 86.24243)scale(0.1 -0.1)">
       <use xlink:href="#DejaVuSans-31"/>
       <use x="63.623047" xlink:href="#DejaVuSans-35"/>
       <use x="127.246094" xlink:href="#DejaVuSans-37"/>
       <use x="190.869141" xlink:href="#DejaVuSans-35"/>
      </g>
     </g>
    </g>
    <g id="ytick_8">
     <g id="line2d_14">
      <g>
       <use style="stroke:#000000;stroke-width:0.8;" x="57.6" xlink:href="#m6942be6b10" y="47.14355"/>
      </g>
     </g>
     <g id="text_14">
      <!-- 1600 -->
      <g transform="translate(25.15 50.942769)scale(0.1 -0.1)">
       <use xlink:href="#DejaVuSans-31"/>
       <use x="63.623047" xlink:href="#DejaVuSans-36"/>
       <use x="127.246094" xlink:href="#DejaVuSans-30"/>
       <use x="190.869141" xlink:href="#DejaVuSans-30"/>
      </g>
     </g>
    </g>
   </g>
   <g id="line2d_15">
    <path clip-path="url(#pa57238e29a)" d="M 73.832727 150.999175 
L 74.14762 150.999175 
L 74.777406 143.745904 
L 75.092299 225.176843 
L 75.407192 233.083987 
L 75.722084 229.099794 
L 76.036977 153.012389 
L 76.666763 143.828137 
L 76.981656 143.869669 
L 77.296549 152.215978 
L 77.611442 228.680763 
L 77.926335 223.681324 
L 78.241227 148.282252 
L 78.55612 148.162119 
L 78.871013 148.863759 
L 79.500799 148.807842 
L 79.815692 149.637937 
L 80.130585 152.155198 
L 80.445477 223.799564 
L 80.76037 135.943959 
L 81.075263 124.700748 
L 81.390156 144.282685 
L 81.705049 229.08064 
L 82.019942 227.662826 
L 82.334835 141.230795 
L 82.649728 133.112426 
L 83.279513 139.5192 
L 83.909299 152.410011 
L 84.539085 143.083306 
L 85.16887 140.375119 
L 85.798656 150.971369 
L 86.113549 143.367113 
L 86.428442 131.240817 
L 86.743335 130.031469 
L 87.373121 143.343578 
L 88.002906 134.101462 
L 88.317799 130.036186 
L 88.632692 129.017648 
L 88.947585 136.883883 
L 89.262478 136.867991 
L 90.207156 127.377207 
L 90.836942 138.828852 
L 91.151835 136.193593 
L 91.466728 131.593364 
L 92.096514 129.362749 
L 92.411406 129.574679 
L 93.041192 140.814769 
L 93.670978 119.37373 
L 94.300764 132.698246 
L 94.615656 131.024774 
L 94.930549 124.290239 
L 95.245442 121.426727 
L 95.560335 117.349381 
L 95.875228 115.3943 
L 96.505014 129.386113 
L 96.819907 123.663753 
L 97.134799 120.511312 
L 97.449692 123.652105 
L 98.079478 116.096546 
L 98.394371 113.281813 
L 98.709264 113.311834 
L 99.339049 119.827276 
L 99.653942 131.173443 
L 100.283728 104.413129 
L 100.598621 113.63661 
L 100.913514 119.536709 
L 101.228407 117.05674 
L 101.5433 117.665226 
L 101.858192 111.939501 
L 102.487978 129.166419 
L 103.117764 107.598937 
L 103.74755 122.207181 
L 104.062442 118.375477 
L 104.692228 114.95423 
L 105.007121 109.222082 
L 105.322014 108.119712 
L 105.9518 102.049443 
L 106.581585 109.868602 
L 106.896478 107.597868 
L 107.211371 104.126888 
L 107.526264 104.770552 
L 108.15605 111.15512 
L 108.785835 96.858293 
L 109.415621 106.192923 
L 109.730514 96.324481 
L 110.045407 91.050796 
L 110.3603 99.309681 
L 110.675193 100.42008 
L 110.990086 95.841585 
L 111.619871 114.300864 
L 112.249657 93.404064 
L 112.56455 99.692243 
L 113.194336 91.905419 
L 113.824121 98.126114 
L 114.139014 110.299054 
L 114.453907 117.669583 
L 114.7688 112.893659 
L 115.083693 86.163884 
L 115.398586 74.456695 
L 116.028371 104.135259 
L 116.343264 97.722802 
L 116.658157 94.176444 
L 116.97305 92.758388 
L 117.287943 93.544588 
L 117.602836 85.666476 
L 117.917729 81.746609 
L 118.547514 96.700191 
L 119.1773 78.886957 
L 119.492193 81.445747 
L 120.121979 94.736246 
L 120.751764 86.502567 
L 121.066657 91.151798 
L 121.38155 93.443235 
L 121.696443 90.033927 
L 122.011336 93.221284 
L 122.326229 94.444059 
L 122.641122 92.831164 
L 122.956014 93.147607 
L 124.215586 83.201711 
L 124.530479 87.518921 
L 124.845372 97.112708 
L 125.160265 102.949203 
L 125.79005 85.276616 
L 126.104943 83.30225 
L 126.419836 77.581606 
L 126.734729 76.461181 
L 127.049622 90.838152 
L 127.364515 99.686688 
L 127.679407 89.959281 
L 127.9943 84.358559 
L 128.309193 88.796866 
L 128.624086 89.930906 
L 128.938979 98.530737 
L 129.568765 73.593036 
L 129.883658 74.60911 
L 130.19855 77.984435 
L 130.828336 109.287324 
L 131.143229 92.873532 
L 131.458122 87.492945 
L 131.773015 92.873086 
L 132.087908 80.047503 
L 132.4028 82.802812 
L 132.717693 89.208767 
L 133.032586 82.159727 
L 133.347479 78.883407 
L 133.662372 78.689653 
L 133.977265 78.083191 
L 134.292158 76.126703 
L 134.607051 78.666914 
L 134.921943 87.412675 
L 135.236836 92.116491 
L 135.551729 80.34946 
L 135.866622 74.73525 
L 136.181515 78.783986 
L 136.496408 74.558146 
L 136.811301 72.129676 
L 137.441086 81.896437 
L 137.755979 64.441595 
L 138.070872 53.568 
L 138.700658 81.470902 
L 139.645336 73.573143 
L 140.275122 79.024697 
L 140.590015 88.944323 
L 140.904908 94.422827 
L 141.849586 77.730672 
L 142.164479 76.798509 
L 142.794265 88.17479 
L 143.109158 86.191684 
L 143.424051 86.319767 
L 143.738944 87.926308 
L 144.053837 94.17903 
L 144.368729 96.611346 
L 144.998515 79.782904 
L 145.313408 82.672417 
L 145.628301 87.880133 
L 145.943194 105.195671 
L 146.258087 112.767647 
L 146.572979 100.390544 
L 146.887872 101.387724 
L 147.202765 107.937057 
L 147.832551 95.743757 
L 148.147444 100.71846 
L 148.462337 103.437886 
L 149.092122 91.251955 
L 149.721908 99.883057 
L 150.036801 100.776042 
L 150.351694 103.22497 
L 150.666587 101.471912 
L 151.611265 107.987797 
L 151.926158 107.026414 
L 152.241051 100.725599 
L 152.555944 97.77675 
L 152.870837 100.382797 
L 153.18573 101.073236 
L 153.500623 99.842658 
L 153.815515 110.090212 
L 154.130408 115.060719 
L 154.760194 103.088051 
L 155.38998 107.662877 
L 155.704873 107.837282 
L 156.019765 114.647924 
L 156.334658 118.757663 
L 156.964444 113.946752 
L 157.279337 112.827196 
L 157.59423 110.460069 
L 157.909123 116.73711 
L 158.538908 105.129575 
L 158.853801 107.066036 
L 159.168694 108.041655 
L 159.483587 126.651344 
L 159.79848 128.324735 
L 160.113373 119.16795 
L 160.428266 115.456776 
L 160.743158 114.058783 
L 161.058051 122.148668 
L 161.372944 126.917008 
L 161.687837 129.220023 
L 162.00273 128.664165 
L 162.317623 121.358676 
L 162.947409 135.840993 
L 163.577194 118.168318 
L 164.20698 129.062254 
L 164.521873 131.555503 
L 164.836766 130.693943 
L 165.151659 127.103585 
L 165.466551 126.675085 
L 165.781444 130.34498 
L 166.096337 135.428425 
L 166.41123 137.045618 
L 166.726123 128.192847 
L 167.041016 122.531041 
L 167.355909 134.485666 
L 167.670802 136.26543 
L 168.300587 128.660962 
L 168.61548 127.862794 
L 168.930373 136.950645 
L 169.245266 140.047802 
L 169.560159 136.796487 
L 169.875052 123.588101 
L 170.189944 115.909999 
L 170.81973 143.855324 
L 171.134623 145.410135 
L 171.449516 143.728682 
L 171.764409 143.531318 
L 172.079302 149.858815 
L 172.394195 150.434619 
L 172.709087 139.886028 
L 173.02398 134.57403 
L 173.653766 144.347234 
L 174.283552 135.399808 
L 174.598445 140.655741 
L 174.913337 142.702279 
L 175.543123 140.370219 
L 175.858016 142.749673 
L 176.172909 150.269494 
L 176.487802 224.115606 
L 176.802695 151.953274 
L 177.117588 148.450106 
L 177.43248 149.337262 
L 177.747373 149.755152 
L 178.377159 145.7879 
L 178.692052 151.863325 
L 179.006945 225.714595 
L 179.321838 224.629996 
L 179.63673 227.733689 
L 179.951623 228.47843 
L 180.266516 228.60275 
L 180.581409 229.200035 
L 180.896302 226.150869 
L 181.211195 152.131083 
L 181.840981 151.553754 
L 182.155873 149.669202 
L 182.470766 226.607774 
L 182.785659 230.828913 
L 183.100552 229.314984 
L 183.415445 226.527215 
L 183.730338 152.382915 
L 184.045231 149.692191 
L 184.360123 148.653271 
L 184.675016 148.099277 
L 185.304802 140.416905 
L 185.619695 150.679602 
L 185.934588 227.848626 
L 186.249481 229.545657 
L 186.564374 227.532354 
L 186.879266 152.347975 
L 187.194159 150.782235 
L 187.509052 149.887142 
L 187.823945 234.049419 
L 188.138838 242.47973 
L 188.453731 230.798879 
L 188.768624 151.472449 
L 189.083516 229.181178 
L 189.398409 234.853789 
L 189.713302 231.936776 
L 190.028195 230.474138 
L 190.343088 232.911225 
L 190.657981 232.911225 
L 190.972874 234.290666 
L 191.287767 233.60175 
L 191.602659 234.944221 
L 191.917552 235.425975 
L 192.232445 227.971331 
L 192.547338 151.415961 
L 192.862231 226.944012 
L 193.177124 229.696773 
L 193.492017 231.435137 
L 194.121802 223.823478 
L 194.436695 223.823478 
L 194.751588 151.287438 
L 195.066481 150.093528 
L 195.381374 149.811438 
L 195.696267 152.025403 
L 196.01116 229.11321 
L 196.326052 231.239817 
L 196.640945 232.385113 
L 196.955838 237.270474 
L 197.270731 239.704274 
L 197.900517 226.555003 
L 198.530302 237.007342 
L 199.160088 228.389837 
L 199.789874 245.367305 
L 200.104767 244.079761 
L 200.41966 243.968345 
L 200.734553 243.499684 
L 201.364338 231.214232 
L 201.679231 236.79031 
L 201.994124 240.31793 
L 202.62391 231.452291 
L 202.938803 232.797879 
L 203.253695 233.166875 
L 203.883481 252.604194 
L 204.198374 238.759414 
L 204.513267 234.162498 
L 204.82816 240.941045 
L 205.143053 232.99206 
L 205.457946 228.270011 
L 206.087731 234.474005 
L 206.402624 232.867471 
L 206.717517 231.856187 
L 207.347303 246.821651 
L 207.977088 231.916557 
L 208.291981 241.983772 
L 208.606874 247.964676 
L 209.23666 235.593196 
L 209.551553 233.131195 
L 209.866446 236.779167 
L 210.181339 237.84885 
L 210.496231 232.575261 
L 210.811124 229.474572 
L 211.126017 224.364837 
L 211.44091 150.487549 
L 211.755803 224.640897 
L 212.700481 237.319759 
L 213.330267 224.539176 
L 213.64516 224.403477 
L 214.589839 227.888943 
L 214.904732 224.771162 
L 215.219624 152.2975 
L 215.534517 225.46072 
L 215.84941 229.086466 
L 216.164303 230.285084 
L 216.479196 229.761336 
L 216.794089 230.236969 
L 217.108982 230.233813 
L 217.423874 225.240414 
L 217.738767 152.80729 
L 218.05366 145.485138 
L 218.368553 229.094374 
L 218.683446 237.747491 
L 218.998339 226.524901 
L 219.313232 147.31704 
L 219.628125 145.691114 
L 219.943017 146.114541 
L 220.25791 151.883513 
L 220.572803 227.955537 
L 220.887696 152.143055 
L 221.202589 146.397556 
L 221.517482 146.346841 
L 221.832375 147.416594 
L 222.147267 151.065631 
L 222.46216 224.590464 
L 223.091946 231.842946 
L 223.406839 231.842946 
L 223.721732 225.501144 
L 224.036625 149.672143 
L 224.351518 152.460301 
L 224.66641 226.601854 
L 224.981303 226.590208 
L 225.296196 149.798936 
L 225.611089 146.402409 
L 225.925982 152.347343 
L 226.240875 226.8907 
L 226.555768 152.81148 
L 226.87066 149.926521 
L 227.185553 150.759048 
L 227.500446 145.829714 
L 227.815339 144.128725 
L 228.760018 149.567136 
L 229.074911 149.753148 
L 229.389803 151.365422 
L 229.704696 145.633797 
L 230.019589 143.694035 
L 230.649375 138.177625 
L 230.964268 149.32756 
L 231.279161 229.990228 
L 231.594053 147.713734 
L 231.908946 137.895183 
L 232.223839 146.785054 
L 232.538732 147.682859 
L 232.853625 144.650106 
L 233.168518 145.389405 
L 233.483411 146.720597 
L 234.113196 141.615983 
L 234.428089 144.771963 
L 234.742982 146.12114 
L 235.057875 143.372965 
L 235.687661 150.632279 
L 236.317446 136.635835 
L 236.947232 150.682839 
L 237.577018 139.505834 
L 237.891911 138.544325 
L 238.206804 139.46467 
L 239.466375 145.853985 
L 240.096161 141.432939 
L 240.725947 151.374293 
L 241.355732 145.3914 
L 241.985518 147.466755 
L 242.300411 145.605435 
L 242.615304 144.427968 
L 242.930197 150.585467 
L 243.245089 225.240687 
L 243.559982 152.987544 
L 243.874875 150.38322 
L 244.504661 147.468628 
L 244.819554 145.173822 
L 245.44934 151.65058 
L 245.764232 151.390663 
L 246.079125 148.22484 
L 246.394018 146.404485 
L 246.708911 147.620564 
L 247.023804 147.928089 
L 247.338697 147.928089 
L 247.65359 149.520212 
L 247.968482 150.495066 
L 248.598268 142.71902 
L 248.913161 144.89509 
L 249.228054 152.863984 
L 249.542947 226.062527 
L 249.85784 225.599996 
L 250.172733 224.067914 
L 250.487625 152.678463 
L 250.802518 224.054635 
L 251.117411 224.096002 
L 251.432304 152.78376 
L 251.747197 229.706812 
L 252.06209 232.34355 
L 252.376983 224.284675 
L 252.691875 149.817959 
L 253.321661 284.188917 
L 253.636554 276.745551 
L 254.26634 282.714929 
L 254.581233 278.871811 
L 254.896126 276.438523 
L 255.211018 276.791613 
L 255.525911 276.782016 
L 255.840804 274.231835 
L 256.155697 276.188483 
L 256.785483 283.101969 
L 257.100376 283.174388 
L 257.730161 272.84291 
L 258.045054 277.174956 
L 258.359947 279.941228 
L 258.67484 276.033906 
L 258.989733 274.688484 
L 259.619519 286.119098 
L 259.934411 287.475678 
L 260.249304 287.449396 
L 260.564197 281.278502 
L 260.87909 277.703405 
L 261.193983 279.133982 
L 261.508876 281.12235 
L 261.823769 287.80669 
L 262.138661 291.10676 
L 262.453554 283.03039 
L 263.08334 292.403393 
L 263.713126 280.086708 
L 264.657804 276.581211 
L 264.972697 276.468461 
L 265.28759 279.835106 
L 265.917376 267.470257 
L 266.547162 272.216352 
L 266.862054 272.931879 
L 267.176947 274.58237 
L 267.806733 281.064888 
L 268.121626 280.185094 
L 268.436519 274.200639 
L 268.751412 270.654605 
L 269.066305 270.994833 
L 269.381197 272.299681 
L 269.69609 283.558204 
L 270.010983 290.784356 
L 270.640769 280.896766 
L 270.955662 279.104311 
L 271.270555 278.571483 
L 271.585447 281.805038 
L 272.215233 268.234761 
L 272.845019 294.888352 
L 273.159912 294.888352 
L 273.474805 287.234348 
L 273.789698 276.419853 
L 274.419483 269.60145 
L 274.734376 270.12886 
L 275.049269 272.160354 
L 275.364162 273.129799 
L 275.679055 271.428218 
L 276.30884 278.812492 
L 276.938626 266.29058 
L 277.568412 281.303166 
L 278.198198 263.422534 
L 278.827983 276.845488 
L 279.142876 276.629946 
L 279.772662 270.921244 
L 280.402448 278.77512 
L 280.717341 278.807313 
L 281.032233 278.983912 
L 281.662019 262.27696 
L 282.291805 280.045759 
L 282.606698 280.659813 
L 282.921591 269.096866 
L 283.236484 262.510107 
L 283.866269 273.252502 
L 284.181162 275.315779 
L 284.496055 276.367273 
L 285.125841 262.788488 
L 285.755626 278.140044 
L 286.070519 270.566362 
L 286.385412 273.007368 
L 286.700305 277.916141 
L 287.330091 265.426994 
L 287.644984 268.53015 
L 288.904555 275.973578 
L 289.534341 273.698133 
L 289.849234 276.632931 
L 290.479019 279.986441 
L 290.793912 279.466243 
L 291.108805 274.23135 
L 291.738591 282.92069 
L 292.368377 279.210495 
L 292.998162 271.455039 
L 293.313055 274.202876 
L 293.627948 278.172858 
L 293.942841 279.545027 
L 294.572627 278.200892 
L 295.202412 274.412386 
L 295.517305 277.180788 
L 295.832198 277.952031 
L 296.147091 279.975595 
L 296.461984 280.492758 
L 296.776877 271.710404 
L 297.09177 266.729574 
L 297.406663 266.411196 
L 298.036448 284.545559 
L 298.666234 275.586487 
L 298.981127 276.963788 
L 299.29602 277.274669 
L 299.610913 273.699867 
L 299.925805 273.145177 
L 300.240698 277.542394 
L 300.555591 279.721244 
L 301.185377 266.8765 
L 301.815163 282.650851 
L 302.130056 278.636038 
L 302.444948 272.899657 
L 302.759841 270.327266 
L 303.074734 269.877208 
L 303.389627 270.523155 
L 303.70452 270.822533 
L 304.019413 278.988124 
L 304.334306 272.732098 
L 304.649198 262.29862 
L 305.278984 282.919098 
L 305.90877 269.217642 
L 306.223663 273.25525 
L 306.538556 274.610739 
L 306.853449 274.057646 
L 307.168341 274.116368 
L 307.483234 273.274963 
L 307.798127 273.399767 
L 308.427913 277.690209 
L 308.742806 278.416087 
L 309.057699 277.992642 
L 309.372591 276.919588 
L 309.687484 274.958908 
L 310.002377 274.958908 
L 310.31727 270.167777 
L 310.632163 267.204552 
L 311.261949 283.899377 
L 311.576842 283.223886 
L 312.206627 263.861681 
L 312.836413 295.488 
L 313.466199 270.979736 
L 314.095984 287.491355 
L 314.410877 287.491355 
L 315.040663 279.497161 
L 315.355556 281.937928 
L 315.670449 281.700498 
L 315.985342 281.195247 
L 316.300235 281.205891 
L 316.615127 280.341093 
L 316.93002 279.836711 
L 317.244913 279.576796 
L 317.559806 269.635314 
L 317.874699 263.537844 
L 318.189592 269.23851 
L 318.504485 272.825438 
L 318.819377 270.916621 
L 319.449163 269.52412 
L 320.078949 266.664676 
L 320.393842 266.771555 
L 320.708735 267.283957 
L 321.023628 268.458207 
L 321.33852 264.028417 
L 321.653413 261.180298 
L 321.968306 263.835859 
L 322.283199 265.547769 
L 322.598092 262.713982 
L 322.912985 262.402759 
L 323.227878 271.541254 
L 323.54277 277.177178 
L 324.172556 259.575089 
L 324.487449 258.578805 
L 324.802342 260.351207 
L 325.117235 254.363949 
L 325.747021 271.256981 
L 326.376806 256.298129 
L 327.006592 256.298129 
L 327.636378 259.720362 
L 327.951271 260.621089 
L 328.266163 253.449493 
L 328.581056 249.236698 
L 328.895949 249.236698 
L 329.210842 247.171101 
L 329.525735 248.823848 
L 329.840628 253.571883 
L 330.155521 256.04944 
L 330.470414 255.285959 
L 331.100199 255.280927 
L 331.415092 254.83054 
L 331.729985 250.636795 
L 332.044878 252.452513 
L 332.359771 255.502097 
L 332.989556 249.910485 
L 333.619342 254.271546 
L 333.934235 243.667159 
L 334.249128 237.080354 
L 334.878914 250.080318 
L 335.508699 240.990916 
L 335.823592 240.990916 
L 336.138485 239.106104 
L 336.453378 246.775793 
L 336.768271 247.408763 
L 337.083164 238.915712 
L 337.398057 235.761619 
L 337.712949 235.083319 
L 338.027842 235.239952 
L 338.342735 252.963824 
L 338.657628 244.086413 
L 338.972521 228.255862 
L 339.602307 243.355507 
L 340.232092 252.26335 
L 340.861878 242.058275 
L 341.176771 233.530263 
L 341.491664 229.001602 
L 341.806557 239.96438 
L 342.12145 245.71393 
L 342.436342 240.842316 
L 342.751235 231.11899 
L 343.066128 227.21178 
L 343.695914 239.430498 
L 344.3257 231.123963 
L 344.640593 229.594093 
L 344.955485 237.261717 
L 345.270378 240.897969 
L 345.585271 228.231758 
L 345.900164 150.654955 
L 346.215057 226.142014 
L 346.844843 235.694214 
L 347.474628 231.238355 
L 347.789521 230.922827 
L 348.104414 230.853329 
L 348.419307 230.572363 
L 348.7342 231.330678 
L 349.049093 227.281518 
L 349.363986 225.458426 
L 349.993771 233.456425 
L 350.308664 235.990733 
L 350.623557 233.513419 
L 350.93845 228.526744 
L 351.568236 248.702529 
L 351.883128 231.152026 
L 352.198021 149.416803 
L 352.512914 228.333711 
L 352.827807 238.290182 
L 353.1427 237.893359 
L 353.772486 226.325256 
L 354.087379 225.290975 
L 354.402271 226.2596 
L 354.717164 224.369854 
L 355.032057 225.011396 
L 355.34695 148.30674 
L 355.661843 141.453843 
L 355.976736 141.89129 
L 356.291629 229.508863 
L 356.606521 241.000479 
L 357.236307 225.956295 
L 357.5512 150.619545 
L 357.866093 149.864348 
L 358.180986 145.291869 
L 358.495879 143.114043 
L 358.810772 145.709405 
L 359.440557 134.975372 
L 360.070343 147.854473 
L 360.385236 149.848775 
L 360.700129 150.593481 
L 361.015022 149.260207 
L 361.329914 136.628078 
L 361.644807 128.70071 
L 362.274593 148.608092 
L 362.589486 149.16622 
L 362.904379 149.332845 
L 363.219272 148.738983 
L 363.534165 137.153957 
L 363.849057 132.930163 
L 364.478843 141.561506 
L 365.108629 145.678997 
L 365.423522 143.457467 
L 365.738415 142.351818 
L 366.053307 131.557088 
L 366.3682 144.024566 
L 366.683093 229.145967 
L 366.997986 152.638222 
L 367.627772 139.232176 
L 367.942665 134.781568 
L 368.57245 140.743465 
L 368.887343 136.398712 
L 369.517129 152.763951 
L 369.832022 149.325515 
L 370.146915 143.866608 
L 370.461808 130.053939 
L 370.7767 125.478268 
L 371.091593 133.182876 
L 371.406486 136.716721 
L 371.721379 128.111391 
L 372.036272 126.309506 
L 372.351165 136.245794 
L 372.666058 86.874376 
L 373.295843 65.240962 
L 373.610736 65.622429 
L 373.925629 68.633187 
L 374.240522 76.128517 
L 374.555415 80.86962 
L 374.870308 78.530564 
L 375.500093 83.676314 
L 375.814986 78.359457 
L 376.129879 75.236937 
L 376.444772 77.717603 
L 376.759665 81.722111 
L 377.074558 91.474997 
L 377.704344 66.360806 
L 378.334129 98.667272 
L 378.963915 83.329396 
L 379.278808 91.467194 
L 379.593701 92.060724 
L 379.908594 86.294181 
L 380.223486 85.838837 
L 380.538379 80.485825 
L 380.853272 77.783414 
L 381.483058 81.074198 
L 381.797951 89.46479 
L 382.112844 92.739891 
L 382.427737 91.834003 
L 382.742629 82.969118 
L 383.057522 77.606327 
L 383.372415 90.629534 
L 383.687308 98.193069 
L 384.002201 99.75859 
L 384.317094 99.106848 
L 384.631987 99.106848 
L 384.946879 94.316306 
L 385.261772 99.399143 
L 385.576665 98.199094 
L 385.891558 93.099849 
L 386.206451 93.979682 
L 386.521344 102.851076 
L 386.836237 107.401118 
L 387.466022 92.321594 
L 387.780915 93.109099 
L 388.095808 94.761861 
L 388.410701 89.3515 
L 388.725594 87.98858 
L 389.040487 104.872392 
L 389.35538 112.300785 
L 389.670272 93.460148 
L 389.985165 81.970165 
L 390.300058 109.700925 
L 390.614951 108.162778 
L 390.929844 93.733132 
L 391.55963 104.154589 
L 391.874523 105.270936 
L 392.504308 110.286288 
L 393.134094 105.989881 
L 393.448987 102.980971 
L 393.76388 102.433114 
L 394.078773 110.685953 
L 394.393665 115.293855 
L 394.708558 116.784666 
L 395.023451 116.571408 
L 395.653237 103.060338 
L 395.96813 110.777039 
L 396.283023 114.91726 
L 396.912808 115.708286 
L 397.227701 114.636029 
L 397.542594 113.972319 
L 397.857487 115.094814 
L 398.487273 123.528794 
L 398.487273 123.528794 
" style="fill:none;stroke:#1f77b4;stroke-linecap:square;stroke-width:1.5;"/>
   </g>
   <g id="patch_3">
    <path d="M 57.6 307.584 
L 57.6 41.472 
" style="fill:none;stroke:#000000;stroke-linecap:square;stroke-linejoin:miter;stroke-width:0.8;"/>
   </g>
   <g id="patch_4">
    <path d="M 414.72 307.584 
L 414.72 41.472 
" style="fill:none;stroke:#000000;stroke-linecap:square;stroke-linejoin:miter;stroke-width:0.8;"/>
   </g>
   <g id="patch_5">
    <path d="M 57.6 307.584 
L 414.72 307.584 
" style="fill:none;stroke:#000000;stroke-linecap:square;stroke-linejoin:miter;stroke-width:0.8;"/>
   </g>
   <g id="patch_6">
    <path d="M 57.6 41.472 
L 414.72 41.472 
" style="fill:none;stroke:#000000;stroke-linecap:square;stroke-linejoin:miter;stroke-width:0.8;"/>
   </g>
   <g id="text_15">
    <!-- Motor 5 speed history -->
    <defs>
     <path d="M 9.8125 72.90625 
L 24.515625 72.90625 
L 43.109375 23.296875 
L 61.8125 72.90625 
L 76.515625 72.90625 
L 76.515625 0 
L 66.890625 0 
L 66.890625 64.015625 
L 48.09375 14.015625 
L 38.1875 14.015625 
L 19.390625 64.015625 
L 19.390625 0 
L 9.8125 0 
z
" id="DejaVuSans-4d"/>
     <path d="M 30.609375 48.390625 
Q 23.390625 48.390625 19.1875 42.75 
Q 14.984375 37.109375 14.984375 27.296875 
Q 14.984375 17.484375 19.15625 11.84375 
Q 23.34375 6.203125 30.609375 6.203125 
Q 37.796875 6.203125 41.984375 11.859375 
Q 46.1875 17.53125 46.1875 27.296875 
Q 46.1875 37.015625 41.984375 42.703125 
Q 37.796875 48.390625 30.609375 48.390625 
z
M 30.609375 56 
Q 42.328125 56 49.015625 48.375 
Q 55.71875 40.765625 55.71875 27.296875 
Q 55.71875 13.875 49.015625 6.21875 
Q 42.328125 -1.421875 30.609375 -1.421875 
Q 18.84375 -1.421875 12.171875 6.21875 
Q 5.515625 13.875 5.515625 27.296875 
Q 5.515625 40.765625 12.171875 48.375 
Q 18.84375 56 30.609375 56 
z
" id="DejaVuSans-6f"/>
     <path d="M 18.3125 70.21875 
L 18.3125 54.6875 
L 36.8125 54.6875 
L 36.8125 47.703125 
L 18.3125 47.703125 
L 18.3125 18.015625 
Q 18.3125 11.328125 20.140625 9.421875 
Q 21.96875 7.515625 27.59375 7.515625 
L 36.8125 7.515625 
L 36.8125 0 
L 27.59375 0 
Q 17.1875 0 13.234375 3.875 
Q 9.28125 7.765625 9.28125 18.015625 
L 9.28125 47.703125 
L 2.6875 47.703125 
L 2.6875 54.6875 
L 9.28125 54.6875 
L 9.28125 70.21875 
z
" id="DejaVuSans-74"/>
     <path d="M 41.109375 46.296875 
Q 39.59375 47.171875 37.8125 47.578125 
Q 36.03125 48 33.890625 48 
Q 26.265625 48 22.1875 43.046875 
Q 18.109375 38.09375 18.109375 28.8125 
L 18.109375 0 
L 9.078125 0 
L 9.078125 54.6875 
L 18.109375 54.6875 
L 18.109375 46.1875 
Q 20.953125 51.171875 25.484375 53.578125 
Q 30.03125 56 36.53125 56 
Q 37.453125 56 38.578125 55.875 
Q 39.703125 55.765625 41.0625 55.515625 
z
" id="DejaVuSans-72"/>
     <path id="DejaVuSans-20"/>
     <path d="M 44.28125 53.078125 
L 44.28125 44.578125 
Q 40.484375 46.53125 36.375 47.5 
Q 32.28125 48.484375 27.875 48.484375 
Q 21.1875 48.484375 17.84375 46.4375 
Q 14.5 44.390625 14.5 40.28125 
Q 14.5 37.15625 16.890625 35.375 
Q 19.28125 33.59375 26.515625 31.984375 
L 29.59375 31.296875 
Q 39.15625 29.25 43.1875 25.515625 
Q 47.21875 21.78125 47.21875 15.09375 
Q 47.21875 7.46875 41.1875 3.015625 
Q 35.15625 -1.421875 24.609375 -1.421875 
Q 20.21875 -1.421875 15.453125 -0.5625 
Q 10.6875 0.296875 5.421875 2 
L 5.421875 11.28125 
Q 10.40625 8.6875 15.234375 7.390625 
Q 20.0625 6.109375 24.8125 6.109375 
Q 31.15625 6.109375 34.5625 8.28125 
Q 37.984375 10.453125 37.984375 14.40625 
Q 37.984375 18.0625 35.515625 20.015625 
Q 33.0625 21.96875 24.703125 23.78125 
L 21.578125 24.515625 
Q 13.234375 26.265625 9.515625 29.90625 
Q 5.8125 33.546875 5.8125 39.890625 
Q 5.8125 47.609375 11.28125 51.796875 
Q 16.75 56 26.8125 56 
Q 31.78125 56 36.171875 55.265625 
Q 40.578125 54.546875 44.28125 53.078125 
z
" id="DejaVuSans-73"/>
     <path d="M 18.109375 8.203125 
L 18.109375 -20.796875 
L 9.078125 -20.796875 
L 9.078125 54.6875 
L 18.109375 54.6875 
L 18.109375 46.390625 
Q 20.953125 51.265625 25.265625 53.625 
Q 29.59375 56 35.59375 56 
Q 45.5625 56 51.78125 48.09375 
Q 58.015625 40.1875 58.015625 27.296875 
Q 58.015625 14.40625 51.78125 6.484375 
Q 45.5625 -1.421875 35.59375 -1.421875 
Q 29.59375 -1.421875 25.265625 0.953125 
Q 20.953125 3.328125 18.109375 8.203125 
z
M 48.6875 27.296875 
Q 48.6875 37.203125 44.609375 42.84375 
Q 40.53125 48.484375 33.40625 48.484375 
Q 26.265625 48.484375 22.1875 42.84375 
Q 18.109375 37.203125 18.109375 27.296875 
Q 18.109375 17.390625 22.1875 11.75 
Q 26.265625 6.109375 33.40625 6.109375 
Q 40.53125 6.109375 44.609375 11.75 
Q 48.6875 17.390625 48.6875 27.296875 
z
" id="DejaVuSans-70"/>
     <path d="M 56.203125 29.59375 
L 56.203125 25.203125 
L 14.890625 25.203125 
Q 15.484375 15.921875 20.484375 11.0625 
Q 25.484375 6.203125 34.421875 6.203125 
Q 39.59375 6.203125 44.453125 7.46875 
Q 49.3125 8.734375 54.109375 11.28125 
L 54.109375 2.78125 
Q 49.265625 0.734375 44.1875 -0.34375 
Q 39.109375 -1.421875 33.890625 -1.421875 
Q 20.796875 -1.421875 13.15625 6.1875 
Q 5.515625 13.8125 5.515625 26.8125 
Q 5.515625 40.234375 12.765625 48.109375 
Q 20.015625 56 32.328125 56 
Q 43.359375 56 49.78125 48.890625 
Q 56.203125 41.796875 56.203125 29.59375 
z
M 47.21875 32.234375 
Q 47.125 39.59375 43.09375 43.984375 
Q 39.0625 48.390625 32.421875 48.390625 
Q 24.90625 48.390625 20.390625 44.140625 
Q 15.875 39.890625 15.1875 32.171875 
z
" id="DejaVuSans-65"/>
     <path d="M 45.40625 46.390625 
L 45.40625 75.984375 
L 54.390625 75.984375 
L 54.390625 0 
L 45.40625 0 
L 45.40625 8.203125 
Q 42.578125 3.328125 38.25 0.953125 
Q 33.9375 -1.421875 27.875 -1.421875 
Q 17.96875 -1.421875 11.734375 6.484375 
Q 5.515625 14.40625 5.515625 27.296875 
Q 5.515625 40.1875 11.734375 48.09375 
Q 17.96875 56 27.875 56 
Q 33.9375 56 38.25 53.625 
Q 42.578125 51.265625 45.40625 46.390625 
z
M 14.796875 27.296875 
Q 14.796875 17.390625 18.875 11.75 
Q 22.953125 6.109375 30.078125 6.109375 
Q 37.203125 6.109375 41.296875 11.75 
Q 45.40625 17.390625 45.40625 27.296875 
Q 45.40625 37.203125 41.296875 42.84375 
Q 37.203125 48.484375 30.078125 48.484375 
Q 22.953125 48.484375 18.875 42.84375 
Q 14.796875 37.203125 14.796875 27.296875 
z
" id="DejaVuSans-64"/>
     <path d="M 54.890625 33.015625 
L 54.890625 0 
L 45.90625 0 
L 45.90625 32.71875 
Q 45.90625 40.484375 42.875 44.328125 
Q 39.84375 48.1875 33.796875 48.1875 
Q 26.515625 48.1875 22.3125 43.546875 
Q 18.109375 38.921875 18.109375 30.90625 
L 18.109375 0 
L 9.078125 0 
L 9.078125 75.984375 
L 18.109375 75.984375 
L 18.109375 46.1875 
Q 21.34375 51.125 25.703125 53.5625 
Q 30.078125 56 35.796875 56 
Q 45.21875 56 50.046875 50.171875 
Q 54.890625 44.34375 54.890625 33.015625 
z
" id="DejaVuSans-68"/>
     <path d="M 9.421875 54.6875 
L 18.40625 54.6875 
L 18.40625 0 
L 9.421875 0 
z
M 9.421875 75.984375 
L 18.40625 75.984375 
L 18.40625 64.59375 
L 9.421875 64.59375 
z
" id="DejaVuSans-69"/>
     <path d="M 32.171875 -5.078125 
Q 28.375 -14.84375 24.75 -17.8125 
Q 21.140625 -20.796875 15.09375 -20.796875 
L 7.90625 -20.796875 
L 7.90625 -13.28125 
L 13.1875 -13.28125 
Q 16.890625 -13.28125 18.9375 -11.515625 
Q 21 -9.765625 23.484375 -3.21875 
L 25.09375 0.875 
L 2.984375 54.6875 
L 12.5 54.6875 
L 29.59375 11.921875 
L 46.6875 54.6875 
L 56.203125 54.6875 
z
" id="DejaVuSans-79"/>
    </defs>
    <g transform="translate(170.52 35.472)scale(0.12 -0.12)">
     <use xlink:href="#DejaVuSans-4d"/>
     <use x="86.279297" xlink:href="#DejaVuSans-6f"/>
     <use x="147.460938" xlink:href="#DejaVuSans-74"/>
     <use x="186.669922" xlink:href="#DejaVuSans-6f"/>
     <use x="247.851562" xlink:href="#DejaVuSans-72"/>
     <use x="288.964844" xlink:href="#DejaVuSans-20"/>
     <use x="320.751953" xlink:href="#DejaVuSans-35"/>
     <use x="384.375" xlink:href="#DejaVuSans-20"/>
     <use x="416.162109" xlink:href="#DejaVuSans-73"/>
     <use x="468.261719" xlink:href="#DejaVuSans-70"/>
     <use x="531.738281" xlink:href="#DejaVuSans-65"/>
     <use x="593.261719" xlink:href="#DejaVuSans-65"/>
     <use x="654.785156" xlink:href="#DejaVuSans-64"/>
     <use x="718.261719" xlink:href="#DejaVuSans-20"/>
     <use x="750.048828" xlink:href="#DejaVuSans-68"/>
     <use x="813.427734" xlink:href="#DejaVuSans-69"/>
     <use x="841.210938" xlink:href="#DejaVuSans-73"/>
     <use x="893.310547" xlink:href="#DejaVuSans-74"/>
     <use x="932.519531" xlink:href="#DejaVuSans-6f"/>
     <use x="993.701172" xlink:href="#DejaVuSans-72"/>
     <use x="1034.814453" xlink:href="#DejaVuSans-79"/>
    </g>
   </g>
   <g id="legend_1">
    <g id="patch_7">
     <path d="M 351.452813 64.150125 
L 407.72 64.150125 
Q 409.72 64.150125 409.72 62.150125 
L 409.72 48.472 
Q 409.72 46.472 407.72 46.472 
L 351.452813 46.472 
Q 349.452813 46.472 349.452813 48.472 
L 349.452813 62.150125 
Q 349.452813 64.150125 351.452813 64.150125 
z
" style="fill:#ffffff;opacity:0.8;stroke:#cccccc;stroke-linejoin:miter;"/>
    </g>
    <g id="line2d_16">
     <path d="M 353.452813 54.570438 
L 373.452813 54.570438 
" style="fill:none;stroke:#1f77b4;stroke-linecap:square;stroke-width:1.5;"/>
    </g>
    <g id="line2d_17"/>
    <g id="text_16">
     <!-- pwm -->
     <defs>
      <path d="M 4.203125 54.6875 
L 13.1875 54.6875 
L 24.421875 12.015625 
L 35.59375 54.6875 
L 46.1875 54.6875 
L 57.421875 12.015625 
L 68.609375 54.6875 
L 77.59375 54.6875 
L 63.28125 0 
L 52.6875 0 
L 40.921875 44.828125 
L 29.109375 0 
L 18.5 0 
z
" id="DejaVuSans-77"/>
      <path d="M 52 44.1875 
Q 55.375 50.25 60.0625 53.125 
Q 64.75 56 71.09375 56 
Q 79.640625 56 84.28125 50.015625 
Q 88.921875 44.046875 88.921875 33.015625 
L 88.921875 0 
L 79.890625 0 
L 79.890625 32.71875 
Q 79.890625 40.578125 77.09375 44.375 
Q 74.3125 48.1875 68.609375 48.1875 
Q 61.625 48.1875 57.5625 43.546875 
Q 53.515625 38.921875 53.515625 30.90625 
L 53.515625 0 
L 44.484375 0 
L 44.484375 32.71875 
Q 44.484375 40.625 41.703125 44.40625 
Q 38.921875 48.1875 33.109375 48.1875 
Q 26.21875 48.1875 22.15625 43.53125 
Q 18.109375 38.875 18.109375 30.90625 
L 18.109375 0 
L 9.078125 0 
L 9.078125 54.6875 
L 18.109375 54.6875 
L 18.109375 46.1875 
Q 21.1875 51.21875 25.484375 53.609375 
Q 29.78125 56 35.6875 56 
Q 41.65625 56 45.828125 52.96875 
Q 50 49.953125 52 44.1875 
z
" id="DejaVuSans-6d"/>
     </defs>
     <g transform="translate(381.452813 58.070438)scale(0.1 -0.1)">
      <use xlink:href="#DejaVuSans-70"/>
      <use x="63.476562" xlink:href="#DejaVuSans-77"/>
      <use x="145.263672" xlink:href="#DejaVuSans-6d"/>
     </g>
    </g>
   </g>
  </g>
 </g>
 <defs>
  <clipPath id="pa57238e29a">
   <rect height="266.112" width="357.12" x="57.6" y="41.472"/>
  </clipPath>
 </defs>
</svg>
