<?xml version="1.0" encoding="utf-8" standalone="no"?>
<!DOCTYPE svg PUBLIC "-//W3C//DTD SVG 1.1//EN"
  "http://www.w3.org/Graphics/SVG/1.1/DTD/svg11.dtd">
<!-- Created with matplotlib (http://matplotlib.org/) -->
<svg height="345pt" version="1.1" viewBox="0 0 460 345" width="460pt" xmlns="http://www.w3.org/2000/svg" xmlns:xlink="http://www.w3.org/1999/xlink">
 <defs>
  <style type="text/css">
*{stroke-linecap:butt;stroke-linejoin:round;}
  </style>
 </defs>
 <g id="figure_1">
  <g id="patch_1">
   <path d="M 0 345.6 
L 460.8 345.6 
L 460.8 0 
L 0 0 
z
" style="fill:#ffffff;"/>
  </g>
  <g id="axes_1">
   <g id="patch_2">
    <path d="M 57.6 307.584 
L 414.72 307.584 
L 414.72 41.472 
L 57.6 41.472 
z
" style="fill:#ffffff;"/>
   </g>
   <g id="matplotlib.axis_1">
    <g id="xtick_1">
     <g id="line2d_1">
      <defs>
       <path d="M 0 0 
L 0 3.5 
" id="m5c429fe3ff" style="stroke:#000000;stroke-width:0.8;"/>
      </defs>
      <g>
       <use style="stroke:#000000;stroke-width:0.8;" x="73.832727" xlink:href="#m5c429fe3ff" y="307.584"/>
      </g>
     </g>
     <g id="text_1">
      <!-- 0 -->
      <defs>
       <path d="M 31.78125 66.40625 
Q 24.171875 66.40625 20.328125 58.90625 
Q 16.5 51.421875 16.5 36.375 
Q 16.5 21.390625 20.328125 13.890625 
Q 24.171875 6.390625 31.78125 6.390625 
Q 39.453125 6.390625 43.28125 13.890625 
Q 47.125 21.390625 47.125 36.375 
Q 47.125 51.421875 43.28125 58.90625 
Q 39.453125 66.40625 31.78125 66.40625 
z
M 31.78125 74.21875 
Q 44.046875 74.21875 50.515625 64.515625 
Q 56.984375 54.828125 56.984375 36.375 
Q 56.984375 17.96875 50.515625 8.265625 
Q 44.046875 -1.421875 31.78125 -1.421875 
Q 19.53125 -1.421875 13.0625 8.265625 
Q 6.59375 17.96875 6.59375 36.375 
Q 6.59375 54.828125 13.0625 64.515625 
Q 19.53125 74.21875 31.78125 74.21875 
z
" id="DejaVuSans-30"/>
      </defs>
      <g transform="translate(70.651477 322.182437)scale(0.1 -0.1)">
       <use xlink:href="#DejaVuSans-30"/>
      </g>
     </g>
    </g>
    <g id="xtick_2">
     <g id="line2d_2">
      <g>
       <use style="stroke:#000000;stroke-width:0.8;" x="136.811301" xlink:href="#m5c429fe3ff" y="307.584"/>
      </g>
     </g>
     <g id="text_2">
      <!-- 200 -->
      <defs>
       <path d="M 19.1875 8.296875 
L 53.609375 8.296875 
L 53.609375 0 
L 7.328125 0 
L 7.328125 8.296875 
Q 12.9375 14.109375 22.625 23.890625 
Q 32.328125 33.6875 34.8125 36.53125 
Q 39.546875 41.84375 41.421875 45.53125 
Q 43.3125 49.21875 43.3125 52.78125 
Q 43.3125 58.59375 39.234375 62.25 
Q 35.15625 65.921875 28.609375 65.921875 
Q 23.96875 65.921875 18.8125 64.3125 
Q 13.671875 62.703125 7.8125 59.421875 
L 7.8125 69.390625 
Q 13.765625 71.78125 18.9375 73 
Q 24.125 74.21875 28.421875 74.21875 
Q 39.75 74.21875 46.484375 68.546875 
Q 53.21875 62.890625 53.21875 53.421875 
Q 53.21875 48.921875 51.53125 44.890625 
Q 49.859375 40.875 45.40625 35.40625 
Q 44.1875 33.984375 37.640625 27.21875 
Q 31.109375 20.453125 19.1875 8.296875 
z
" id="DejaVuSans-32"/>
      </defs>
      <g transform="translate(127.267551 322.182437)scale(0.1 -0.1)">
       <use xlink:href="#DejaVuSans-32"/>
       <use x="63.623047" xlink:href="#DejaVuSans-30"/>
       <use x="127.246094" xlink:href="#DejaVuSans-30"/>
      </g>
     </g>
    </g>
    <g id="xtick_3">
     <g id="line2d_3">
      <g>
       <use style="stroke:#000000;stroke-width:0.8;" x="199.789874" xlink:href="#m5c429fe3ff" y="307.584"/>
      </g>
     </g>
     <g id="text_3">
      <!-- 400 -->
      <defs>
       <path d="M 37.796875 64.3125 
L 12.890625 25.390625 
L 37.796875 25.390625 
z
M 35.203125 72.90625 
L 47.609375 72.90625 
L 47.609375 25.390625 
L 58.015625 25.390625 
L 58.015625 17.1875 
L 47.609375 17.1875 
L 47.609375 0 
L 37.796875 0 
L 37.796875 17.1875 
L 4.890625 17.1875 
L 4.890625 26.703125 
z
" id="DejaVuSans-34"/>
      </defs>
      <g transform="translate(190.246124 322.182437)scale(0.1 -0.1)">
       <use xlink:href="#DejaVuSans-34"/>
       <use x="63.623047" xlink:href="#DejaVuSans-30"/>
       <use x="127.246094" xlink:href="#DejaVuSans-30"/>
      </g>
     </g>
    </g>
    <g id="xtick_4">
     <g id="line2d_4">
      <g>
       <use style="stroke:#000000;stroke-width:0.8;" x="262.768447" xlink:href="#m5c429fe3ff" y="307.584"/>
      </g>
     </g>
     <g id="text_4">
      <!-- 600 -->
      <defs>
       <path d="M 33.015625 40.375 
Q 26.375 40.375 22.484375 35.828125 
Q 18.609375 31.296875 18.609375 23.390625 
Q 18.609375 15.53125 22.484375 10.953125 
Q 26.375 6.390625 33.015625 6.390625 
Q 39.65625 6.390625 43.53125 10.953125 
Q 47.40625 15.53125 47.40625 23.390625 
Q 47.40625 31.296875 43.53125 35.828125 
Q 39.65625 40.375 33.015625 40.375 
z
M 52.59375 71.296875 
L 52.59375 62.3125 
Q 48.875 64.0625 45.09375 64.984375 
Q 41.3125 65.921875 37.59375 65.921875 
Q 27.828125 65.921875 22.671875 59.328125 
Q 17.53125 52.734375 16.796875 39.40625 
Q 19.671875 43.65625 24.015625 45.921875 
Q 28.375 48.1875 33.59375 48.1875 
Q 44.578125 48.1875 50.953125 41.515625 
Q 57.328125 34.859375 57.328125 23.390625 
Q 57.328125 12.15625 50.6875 5.359375 
Q 44.046875 -1.421875 33.015625 -1.421875 
Q 20.359375 -1.421875 13.671875 8.265625 
Q 6.984375 17.96875 6.984375 36.375 
Q 6.984375 53.65625 15.1875 63.9375 
Q 23.390625 74.21875 37.203125 74.21875 
Q 40.921875 74.21875 44.703125 73.484375 
Q 48.484375 72.75 52.59375 71.296875 
z
" id="DejaVuSans-36"/>
      </defs>
      <g transform="translate(253.224697 322.182437)scale(0.1 -0.1)">
       <use xlink:href="#DejaVuSans-36"/>
       <use x="63.623047" xlink:href="#DejaVuSans-30"/>
       <use x="127.246094" xlink:href="#DejaVuSans-30"/>
      </g>
     </g>
    </g>
    <g id="xtick_5">
     <g id="line2d_5">
      <g>
       <use style="stroke:#000000;stroke-width:0.8;" x="325.747021" xlink:href="#m5c429fe3ff" y="307.584"/>
      </g>
     </g>
     <g id="text_5">
      <!-- 800 -->
      <defs>
       <path d="M 31.78125 34.625 
Q 24.75 34.625 20.71875 30.859375 
Q 16.703125 27.09375 16.703125 20.515625 
Q 16.703125 13.921875 20.71875 10.15625 
Q 24.75 6.390625 31.78125 6.390625 
Q 38.8125 6.390625 42.859375 10.171875 
Q 46.921875 13.96875 46.921875 20.515625 
Q 46.921875 27.09375 42.890625 30.859375 
Q 38.875 34.625 31.78125 34.625 
z
M 21.921875 38.8125 
Q 15.578125 40.375 12.03125 44.71875 
Q 8.5 49.078125 8.5 55.328125 
Q 8.5 64.0625 14.71875 69.140625 
Q 20.953125 74.21875 31.78125 74.21875 
Q 42.671875 74.21875 48.875 69.140625 
Q 55.078125 64.0625 55.078125 55.328125 
Q 55.078125 49.078125 51.53125 44.71875 
Q 48 40.375 41.703125 38.8125 
Q 48.828125 37.15625 52.796875 32.3125 
Q 56.78125 27.484375 56.78125 20.515625 
Q 56.78125 9.90625 50.3125 4.234375 
Q 43.84375 -1.421875 31.78125 -1.421875 
Q 19.734375 -1.421875 13.25 4.234375 
Q 6.78125 9.90625 6.78125 20.515625 
Q 6.78125 27.484375 10.78125 32.3125 
Q 14.796875 37.15625 21.921875 38.8125 
z
M 18.3125 54.390625 
Q 18.3125 48.734375 21.84375 45.5625 
Q 25.390625 42.390625 31.78125 42.390625 
Q 38.140625 42.390625 41.71875 45.5625 
Q 45.3125 48.734375 45.3125 54.390625 
Q 45.3125 60.0625 41.71875 63.234375 
Q 38.140625 66.40625 31.78125 66.40625 
Q 25.390625 66.40625 21.84375 63.234375 
Q 18.3125 60.0625 18.3125 54.390625 
z
" id="DejaVuSans-38"/>
      </defs>
      <g transform="translate(316.203271 322.182437)scale(0.1 -0.1)">
       <use xlink:href="#DejaVuSans-38"/>
       <use x="63.623047" xlink:href="#DejaVuSans-30"/>
       <use x="127.246094" xlink:href="#DejaVuSans-30"/>
      </g>
     </g>
    </g>
    <g id="xtick_6">
     <g id="line2d_6">
      <g>
       <use style="stroke:#000000;stroke-width:0.8;" x="388.725594" xlink:href="#m5c429fe3ff" y="307.584"/>
      </g>
     </g>
     <g id="text_6">
      <!-- 1000 -->
      <defs>
       <path d="M 12.40625 8.296875 
L 28.515625 8.296875 
L 28.515625 63.921875 
L 10.984375 60.40625 
L 10.984375 69.390625 
L 28.421875 72.90625 
L 38.28125 72.90625 
L 38.28125 8.296875 
L 54.390625 8.296875 
L 54.390625 0 
L 12.40625 0 
z
" id="DejaVuSans-31"/>
      </defs>
      <g transform="translate(376.000594 322.182437)scale(0.1 -0.1)">
       <use xlink:href="#DejaVuSans-31"/>
       <use x="63.623047" xlink:href="#DejaVuSans-30"/>
       <use x="127.246094" xlink:href="#DejaVuSans-30"/>
       <use x="190.869141" xlink:href="#DejaVuSans-30"/>
      </g>
     </g>
    </g>
   </g>
   <g id="matplotlib.axis_2">
    <g id="ytick_1">
     <g id="line2d_7">
      <defs>
       <path d="M 0 0 
L -3.5 0 
" id="ma4210f976e" style="stroke:#000000;stroke-width:0.8;"/>
      </defs>
      <g>
       <use style="stroke:#000000;stroke-width:0.8;" x="57.6" xlink:href="#ma4210f976e" y="283.949931"/>
      </g>
     </g>
     <g id="text_7">
      <!-- 1460 -->
      <g transform="translate(25.15 287.74915)scale(0.1 -0.1)">
       <use xlink:href="#DejaVuSans-31"/>
       <use x="63.623047" xlink:href="#DejaVuSans-34"/>
       <use x="127.246094" xlink:href="#DejaVuSans-36"/>
       <use x="190.869141" xlink:href="#DejaVuSans-30"/>
      </g>
     </g>
    </g>
    <g id="ytick_2">
     <g id="line2d_8">
      <g>
       <use style="stroke:#000000;stroke-width:0.8;" x="57.6" xlink:href="#ma4210f976e" y="225.291649"/>
      </g>
     </g>
     <g id="text_8">
      <!-- 1480 -->
      <g transform="translate(25.15 229.090867)scale(0.1 -0.1)">
       <use xlink:href="#DejaVuSans-31"/>
       <use x="63.623047" xlink:href="#DejaVuSans-34"/>
       <use x="127.246094" xlink:href="#DejaVuSans-38"/>
       <use x="190.869141" xlink:href="#DejaVuSans-30"/>
      </g>
     </g>
    </g>
    <g id="ytick_3">
     <g id="line2d_9">
      <g>
       <use style="stroke:#000000;stroke-width:0.8;" x="57.6" xlink:href="#ma4210f976e" y="166.633366"/>
      </g>
     </g>
     <g id="text_9">
      <!-- 1500 -->
      <defs>
       <path d="M 10.796875 72.90625 
L 49.515625 72.90625 
L 49.515625 64.59375 
L 19.828125 64.59375 
L 19.828125 46.734375 
Q 21.96875 47.46875 24.109375 47.828125 
Q 26.265625 48.1875 28.421875 48.1875 
Q 40.625 48.1875 47.75 41.5 
Q 54.890625 34.8125 54.890625 23.390625 
Q 54.890625 11.625 47.5625 5.09375 
Q 40.234375 -1.421875 26.90625 -1.421875 
Q 22.3125 -1.421875 17.546875 -0.640625 
Q 12.796875 0.140625 7.71875 1.703125 
L 7.71875 11.625 
Q 12.109375 9.234375 16.796875 8.0625 
Q 21.484375 6.890625 26.703125 6.890625 
Q 35.15625 6.890625 40.078125 11.328125 
Q 45.015625 15.765625 45.015625 23.390625 
Q 45.015625 31 40.078125 35.4375 
Q 35.15625 39.890625 26.703125 39.890625 
Q 22.75 39.890625 18.8125 39.015625 
Q 14.890625 38.140625 10.796875 36.28125 
z
" id="DejaVuSans-35"/>
      </defs>
      <g transform="translate(25.15 170.432585)scale(0.1 -0.1)">
       <use xlink:href="#DejaVuSans-31"/>
       <use x="63.623047" xlink:href="#DejaVuSans-35"/>
       <use x="127.246094" xlink:href="#DejaVuSans-30"/>
       <use x="190.869141" xlink:href="#DejaVuSans-30"/>
      </g>
     </g>
    </g>
    <g id="ytick_4">
     <g id="line2d_10">
      <g>
       <use style="stroke:#000000;stroke-width:0.8;" x="57.6" xlink:href="#ma4210f976e" y="107.975084"/>
      </g>
     </g>
     <g id="text_10">
      <!-- 1520 -->
      <g transform="translate(25.15 111.774302)scale(0.1 -0.1)">
       <use xlink:href="#DejaVuSans-31"/>
       <use x="63.623047" xlink:href="#DejaVuSans-35"/>
       <use x="127.246094" xlink:href="#DejaVuSans-32"/>
       <use x="190.869141" xlink:href="#DejaVuSans-30"/>
      </g>
     </g>
    </g>
    <g id="ytick_5">
     <g id="line2d_11">
      <g>
       <use style="stroke:#000000;stroke-width:0.8;" x="57.6" xlink:href="#ma4210f976e" y="49.316801"/>
      </g>
     </g>
     <g id="text_11">
      <!-- 1540 -->
      <g transform="translate(25.15 53.11602)scale(0.1 -0.1)">
       <use xlink:href="#DejaVuSans-31"/>
       <use x="63.623047" xlink:href="#DejaVuSans-35"/>
       <use x="127.246094" xlink:href="#DejaVuSans-34"/>
       <use x="190.869141" xlink:href="#DejaVuSans-30"/>
      </g>
     </g>
    </g>
   </g>
   <g id="line2d_12">
    <path clip-path="url(#pb32c82413d)" d="M 73.832727 255.502414 
L 74.14762 255.502414 
L 74.462513 254.991076 
L 74.777406 107.686879 
L 75.092299 265.658624 
L 75.407192 271.299292 
L 75.722084 273.197111 
L 76.036977 271.142256 
L 76.35187 255.740302 
L 76.666763 99.381558 
L 76.981656 102.54609 
L 77.296549 262.835054 
L 77.611442 271.249759 
L 78.55612 258.726448 
L 78.871013 257.247129 
L 79.185906 262.134187 
L 79.500799 262.732384 
L 79.815692 260.510178 
L 80.130585 267.471546 
L 80.445477 270.765063 
L 80.76037 99.422302 
L 81.075263 85.540005 
L 81.390156 267.282183 
L 81.705049 290.327059 
L 82.019942 288.285964 
L 82.334835 260.890968 
L 82.649728 101.635561 
L 82.96462 255.140765 
L 83.909299 276.229511 
L 84.539085 264.408884 
L 85.798656 273.141099 
L 86.113549 268.950509 
L 86.428442 105.003473 
L 86.743335 98.906776 
L 87.058228 263.204386 
L 87.373121 273.91414 
L 88.002906 263.571903 
L 88.317799 107.647103 
L 88.632692 103.482048 
L 88.947585 270.633158 
L 89.262478 271.972547 
L 89.577371 261.988015 
L 89.892263 262.235244 
L 90.207156 263.380532 
L 90.522049 266.738387 
L 90.836942 268.427646 
L 91.151835 268.770828 
L 91.466728 265.934387 
L 91.781621 264.251069 
L 92.096514 263.333991 
L 92.411406 263.446704 
L 92.726299 274.901532 
L 93.041192 281.190106 
L 93.670978 258.358974 
L 93.985871 263.7249 
L 94.300764 273.091089 
L 94.615656 274.773072 
L 94.930549 257.941387 
L 95.245442 101.504174 
L 95.560335 104.553246 
L 95.875228 256.394625 
L 96.190121 264.313155 
L 96.505014 269.420753 
L 96.819907 266.323149 
L 97.134799 259.195215 
L 97.449692 257.294194 
L 97.764585 262.577956 
L 98.079478 265.923236 
L 98.394371 257.679688 
L 98.709264 106.589441 
L 99.024157 259.045817 
L 99.339049 263.399684 
L 99.653942 276.414112 
L 99.968835 105.698982 
L 100.283728 86.957193 
L 100.598621 263.02662 
L 100.913514 282.946098 
L 101.228407 262.983838 
L 101.5433 102.277229 
L 101.858192 104.12184 
L 102.173085 263.026108 
L 102.487978 268.200674 
L 102.802871 259.040277 
L 103.117764 106.264152 
L 103.432657 267.018853 
L 103.74755 274.673224 
L 104.377335 255.57206 
L 104.692228 260.833422 
L 105.007121 256.815355 
L 105.322014 106.676454 
L 105.636907 260.051946 
L 105.9518 264.726463 
L 106.581585 256.83886 
L 106.896478 258.8563 
L 107.211371 105.469298 
L 107.526264 101.138489 
L 107.841157 259.765807 
L 108.15605 267.619685 
L 108.470943 260.24548 
L 108.785835 107.837405 
L 109.100728 260.793938 
L 109.415621 264.768607 
L 109.730514 101.403931 
L 110.045407 92.256916 
L 110.3603 255.266579 
L 110.675193 262.701696 
L 110.990086 258.729158 
L 111.304978 272.858722 
L 111.619871 279.953021 
L 111.934764 260.553762 
L 112.249657 100.196019 
L 112.56455 261.564632 
L 112.879443 102.67805 
L 113.194336 90.429254 
L 113.509228 102.205467 
L 113.824121 259.236137 
L 114.139014 278.457464 
L 114.453907 287.040506 
L 114.7688 282.393739 
L 115.083693 87.913955 
L 115.398586 65.729385 
L 115.713479 104.905888 
L 116.028371 280.761317 
L 116.343264 265.23039 
L 116.658157 106.777193 
L 116.97305 100.915205 
L 117.287943 98.923891 
L 117.602836 89.248168 
L 117.917729 86.40281 
L 118.232621 102.402354 
L 118.547514 258.920739 
L 118.862407 102.813752 
L 119.1773 93.331541 
L 119.492193 93.481136 
L 119.807086 105.107555 
L 120.121979 259.368806 
L 120.436872 104.04075 
L 120.751764 97.543767 
L 121.066657 259.267938 
L 121.38155 267.879244 
L 121.696443 105.033952 
L 122.011336 259.716313 
L 122.326229 271.529513 
L 122.641122 256.852031 
L 122.956014 99.463288 
L 123.270907 101.692482 
L 123.5858 104.737012 
L 123.900693 260.151822 
L 124.215586 98.592376 
L 124.530479 86.89923 
L 124.845372 258.428074 
L 125.160265 275.163405 
L 125.475157 276.96519 
L 125.79005 273.943255 
L 126.104943 257.729672 
L 126.419836 83.121145 
L 126.734729 77.332673 
L 127.049622 259.65762 
L 127.364515 282.861401 
L 127.679407 258.275046 
L 127.9943 94.964858 
L 128.309193 263.946895 
L 128.624086 277.836849 
L 128.938979 281.11084 
L 129.253872 104.673362 
L 129.568765 88.436611 
L 129.883658 90.453547 
L 130.19855 96.283793 
L 130.513443 265.902938 
L 130.828336 279.733768 
L 131.143229 263.282761 
L 131.458122 266.470476 
L 131.773015 274.122094 
L 132.087908 99.416289 
L 132.4028 257.041168 
L 132.717693 276.334578 
L 133.032586 105.666343 
L 133.347479 89.320706 
L 133.662372 102.884801 
L 133.977265 260.564612 
L 134.292158 92.194598 
L 134.607051 80.270235 
L 134.921943 255.299803 
L 135.236836 274.601216 
L 135.551729 107.880429 
L 135.866622 96.694199 
L 136.181515 101.456377 
L 136.496408 100.384834 
L 136.811301 100.403671 
L 137.126193 98.410561 
L 137.441086 97.590894 
L 137.755979 73.529392 
L 138.070872 61.913554 
L 138.385765 78.884785 
L 138.700658 104.935324 
L 139.015551 256.075545 
L 139.330444 93.726922 
L 139.645336 82.943654 
L 140.275122 98.093309 
L 140.590015 259.663479 
L 140.904908 265.84969 
L 141.219801 259.329232 
L 141.534694 105.274735 
L 141.849586 91.59479 
L 142.164479 84.840727 
L 142.794265 105.650867 
L 143.424051 96.99462 
L 143.738944 97.414451 
L 144.053837 261.048333 
L 144.368729 270.353242 
L 144.683622 102.28669 
L 144.998515 87.039968 
L 145.313408 80.471554 
L 145.628301 80.620315 
L 145.943194 271.155007 
L 146.258087 295.488 
L 146.572979 260.898486 
L 146.887872 105.816945 
L 147.202765 264.17317 
L 147.517658 104.560396 
L 147.832551 95.829526 
L 148.147444 105.439356 
L 148.462337 258.572732 
L 148.77723 102.001373 
L 149.092122 95.729617 
L 149.407015 93.540076 
L 150.036801 95.472811 
L 150.351694 258.918758 
L 150.666587 266.478935 
L 150.98148 256.159168 
L 151.296372 101.115083 
L 151.611265 260.702125 
L 151.926158 268.052995 
L 152.241051 98.86459 
L 152.555944 85.077203 
L 152.870837 84.764131 
L 153.18573 82.353649 
L 153.500623 81.820982 
L 153.815515 105.846509 
L 154.130408 266.896021 
L 154.445301 102.906863 
L 154.760194 89.459399 
L 155.38998 96.312523 
L 155.704873 98.184281 
L 156.019765 256.269045 
L 156.334658 261.024448 
L 156.649551 103.991705 
L 156.964444 95.960477 
L 157.59423 101.464385 
L 157.909123 102.155081 
L 158.224016 84.504118 
L 158.538908 75.248549 
L 159.168694 96.303533 
L 159.483587 270.545667 
L 159.79848 266.397188 
L 160.113373 103.895752 
L 160.428266 92.051108 
L 160.743158 87.010688 
L 161.058051 103.978701 
L 161.372944 262.367504 
L 161.687837 265.477866 
L 162.00273 264.363817 
L 162.317623 91.01408 
L 162.632516 105.978035 
L 162.947409 274.192977 
L 163.262301 103.099173 
L 163.577194 86.865266 
L 164.20698 99.087439 
L 164.521873 258.174787 
L 164.836766 264.808964 
L 165.151659 255.868806 
L 165.466551 95.963267 
L 165.781444 93.646273 
L 166.096337 254.938067 
L 166.41123 264.112401 
L 166.726123 95.070997 
L 167.041016 81.602547 
L 167.355909 259.906746 
L 167.670802 266.168494 
L 167.985694 107.230361 
L 168.300587 92.881402 
L 168.61548 86.680144 
L 168.930373 265.765122 
L 169.245266 286.067428 
L 169.560159 256.137058 
L 169.875052 73.607213 
L 170.189944 70.729026 
L 170.81973 105.611597 
L 171.134623 257.495312 
L 171.449516 258.04471 
L 171.764409 254.845718 
L 172.079302 276.452311 
L 172.394195 287.824301 
L 172.709087 107.158088 
L 173.02398 87.731075 
L 173.653766 99.850602 
L 173.968659 90.022936 
L 174.283552 85.709254 
L 174.598445 101.999295 
L 174.913337 259.334482 
L 175.22823 103.210828 
L 175.543123 95.872781 
L 175.858016 97.40747 
L 176.172909 256.55508 
L 176.487802 262.156625 
L 176.802695 262.932626 
L 177.117588 260.754774 
L 177.43248 255.637909 
L 177.747373 104.78564 
L 178.062266 99.804557 
L 178.377159 97.831419 
L 178.692052 255.10321 
L 179.006945 261.685694 
L 179.321838 105.167155 
L 179.63673 257.412354 
L 179.951623 263.680515 
L 180.266516 105.698707 
L 180.581409 97.844761 
L 181.211195 103.635205 
L 181.526088 100.602859 
L 182.155873 97.6098 
L 182.470766 259.595333 
L 182.785659 268.341738 
L 183.100552 264.530804 
L 183.415445 259.145677 
L 183.730338 105.870292 
L 184.045231 101.9907 
L 184.360123 101.214262 
L 184.675016 102.10963 
L 184.989909 97.08731 
L 185.304802 95.265832 
L 185.619695 106.580496 
L 185.934588 259.02413 
L 186.249481 272.061167 
L 186.564374 277.207186 
L 186.879266 106.307427 
L 187.194159 89.575523 
L 187.509052 90.900234 
L 187.823945 264.5634 
L 188.138838 278.132296 
L 188.453731 106.746007 
L 188.768624 89.473458 
L 189.398409 105.849785 
L 189.713302 255.982717 
L 190.028195 107.187682 
L 190.343088 104.425427 
L 190.657981 104.425427 
L 190.972874 257.954872 
L 191.287767 261.631375 
L 191.917552 257.079398 
L 192.232445 103.823152 
L 192.547338 100.560631 
L 192.862231 255.496087 
L 193.177124 260.079864 
L 193.492017 262.206541 
L 193.806909 106.819767 
L 194.121802 101.456753 
L 194.436695 101.456753 
L 194.751588 102.363721 
L 195.066481 104.557213 
L 195.381374 93.347403 
L 195.696267 88.153343 
L 196.01116 256.51805 
L 196.326052 256.93018 
L 196.640945 101.85391 
L 196.955838 260.217743 
L 197.270731 267.750762 
L 197.585624 104.50991 
L 197.900517 93.835909 
L 198.21541 101.847285 
L 198.530302 255.620234 
L 198.845195 102.989384 
L 199.160088 99.894769 
L 199.474981 258.957154 
L 199.789874 267.418285 
L 200.104767 265.18136 
L 200.734553 256.176026 
L 201.049445 104.793805 
L 201.364338 103.233872 
L 201.679231 258.704066 
L 201.994124 264.115431 
L 202.309017 256.700333 
L 202.62391 105.077562 
L 202.938803 256.997418 
L 203.253695 260.2303 
L 203.568588 267.453771 
L 203.883481 270.848141 
L 204.198374 263.61267 
L 204.513267 263.605208 
L 204.82816 267.068081 
L 205.143053 104.406648 
L 205.457946 95.486952 
L 205.772838 103.045834 
L 206.087731 256.897019 
L 206.402624 107.137222 
L 206.717517 105.466286 
L 207.03241 264.130028 
L 207.347303 270.741457 
L 207.662196 107.5634 
L 207.977088 96.883543 
L 208.291981 262.610754 
L 208.606874 274.132017 
L 208.921767 261.4845 
L 209.23666 105.625319 
L 209.551553 100.557449 
L 209.866446 261.684421 
L 210.181339 269.583843 
L 210.496231 255.896456 
L 210.811124 100.080392 
L 211.126017 97.373978 
L 211.44091 97.70963 
L 212.070696 102.939782 
L 212.385589 256.519392 
L 212.700481 260.376436 
L 213.015374 256.586012 
L 213.330267 106.432415 
L 213.64516 104.716591 
L 213.960053 104.316124 
L 214.589839 107.588893 
L 214.904732 102.882849 
L 215.534517 97.239749 
L 215.84941 96.914116 
L 216.164303 106.581315 
L 216.479196 258.698105 
L 216.794089 257.945389 
L 217.108982 255.966755 
L 217.423874 95.184286 
L 217.738767 87.865291 
L 218.05366 77.593746 
L 218.368553 107.359398 
L 218.683446 270.258452 
L 218.998339 102.756922 
L 219.313232 86.980595 
L 219.628125 83.578475 
L 219.943017 84.156766 
L 220.887696 98.551474 
L 221.202589 100.804948 
L 221.832375 90.2922 
L 222.46216 98.537419 
L 222.777053 99.724361 
L 223.091946 99.421471 
L 223.406839 99.421471 
L 223.721732 96.261952 
L 224.036625 94.486948 
L 224.351518 95.675246 
L 224.66641 99.237904 
L 224.981303 99.980528 
L 225.296196 85.934773 
L 225.611089 77.841949 
L 226.240875 105.084071 
L 226.87066 93.254109 
L 227.185553 99.720661 
L 227.815339 79.106469 
L 228.445125 89.634334 
L 228.760018 96.65266 
L 229.074911 100.259074 
L 229.389803 254.767705 
L 229.704696 92.605462 
L 230.019589 81.405407 
L 230.649375 99.709076 
L 230.964268 100.400581 
L 231.279161 99.690051 
L 231.594053 93.489847 
L 231.908946 89.796121 
L 232.223839 103.280359 
L 232.538732 96.330174 
L 232.853625 86.770056 
L 233.483411 93.61339 
L 233.798304 91.778427 
L 234.113196 91.312344 
L 234.428089 102.335119 
L 234.742982 255.022161 
L 235.057875 97.222093 
L 235.372768 99.515719 
L 235.687661 106.11425 
L 236.317446 94.194209 
L 236.632339 92.895927 
L 236.947232 93.123381 
L 237.577018 95.8851 
L 237.891911 89.109377 
L 238.206804 85.80246 
L 238.836589 96.543209 
L 239.151482 98.403177 
L 239.466375 98.221289 
L 239.781268 99.836888 
L 240.096161 99.705241 
L 240.411054 101.883216 
L 240.725947 102.583215 
L 241.355732 98.204343 
L 241.670625 100.244962 
L 241.985518 101.441583 
L 242.300411 98.722667 
L 242.615304 97.081386 
L 242.930197 103.919713 
L 243.245089 256.593904 
L 243.559982 256.303413 
L 243.874875 101.347211 
L 244.189768 95.982666 
L 244.504661 103.557024 
L 244.819554 255.312541 
L 245.134447 102.829099 
L 245.44934 98.816988 
L 245.764232 100.665522 
L 246.394018 98.799306 
L 246.708911 104.713114 
L 247.023804 254.943444 
L 247.338697 254.943444 
L 247.65359 255.13949 
L 247.968482 107.30493 
L 248.283375 107.451899 
L 248.598268 106.765131 
L 248.913161 104.302427 
L 249.228054 261.793122 
L 249.542947 268.481068 
L 249.85784 267.333747 
L 250.172733 263.748821 
L 250.487625 106.061901 
L 250.802518 99.049332 
L 251.117411 106.850459 
L 251.432304 259.629947 
L 251.747197 273.709475 
L 252.06209 279.935542 
L 252.376983 258.257525 
L 252.691875 99.362303 
L 253.006768 264.509298 
L 253.321661 262.937696 
L 253.636554 105.847488 
L 253.951447 256.825235 
L 254.26634 260.565872 
L 254.581233 107.406858 
L 254.896126 103.834876 
L 255.211018 255.897921 
L 255.525911 259.972469 
L 256.155697 254.735577 
L 256.47059 255.074461 
L 256.785483 269.043026 
L 257.100376 276.062557 
L 257.730161 262.284768 
L 258.045054 269.94668 
L 258.359947 273.372328 
L 258.67484 261.043989 
L 258.989733 107.173414 
L 259.304626 262.36864 
L 259.619519 268.502034 
L 259.934411 271.018068 
L 260.249304 271.073064 
L 260.564197 257.960154 
L 260.87909 103.968237 
L 261.193983 106.14883 
L 261.508876 256.539014 
L 261.823769 271.049493 
L 262.138661 278.824683 
L 262.453554 259.463329 
L 262.768447 268.011242 
L 263.08334 281.002756 
L 263.713126 258.211894 
L 264.342912 264.504788 
L 264.657804 260.045003 
L 264.972697 257.318449 
L 265.28759 266.753416 
L 265.602483 262.129942 
L 265.917376 254.978555 
L 266.547162 264.380446 
L 266.862054 260.684214 
L 267.176947 258.465058 
L 267.49184 264.597408 
L 267.806733 268.27789 
L 268.121626 263.997419 
L 268.436519 254.801774 
L 268.751412 105.788111 
L 269.066305 105.904815 
L 269.381197 107.630771 
L 269.69609 270.532274 
L 270.010983 278.9335 
L 270.640769 255.500182 
L 270.955662 107.268087 
L 271.270555 255.449947 
L 271.585447 256.306683 
L 271.90034 99.489466 
L 272.215233 93.668134 
L 272.530126 257.565333 
L 272.845019 269.163102 
L 273.159912 269.163102 
L 273.474805 258.680547 
L 273.789698 107.197989 
L 274.10459 256.537816 
L 274.419483 92.093371 
L 274.734376 82.533551 
L 275.049269 97.697578 
L 275.364162 256.731658 
L 275.679055 106.03739 
L 275.993948 256.972443 
L 276.30884 261.108611 
L 276.623733 101.542827 
L 276.938626 92.973419 
L 277.253519 107.616332 
L 277.568412 264.192204 
L 277.883305 103.767207 
L 278.198198 94.760365 
L 278.827983 103.019292 
L 279.142876 102.978889 
L 279.457769 101.203137 
L 279.772662 100.369802 
L 280.087555 107.8234 
L 280.402448 259.092042 
L 280.717341 106.690705 
L 281.032233 101.859993 
L 281.347126 94.757679 
L 281.662019 91.595473 
L 281.976912 101.167092 
L 282.291805 258.067047 
L 282.606698 258.423053 
L 282.921591 89.313195 
L 283.236484 77.296493 
L 283.551376 96.498137 
L 283.866269 257.101563 
L 284.181162 256.032114 
L 284.496055 106.3303 
L 284.810948 97.875595 
L 285.125841 92.956374 
L 285.440734 102.86138 
L 285.755626 255.962203 
L 286.070519 97.837729 
L 286.385412 103.5262 
L 286.700305 257.442925 
L 287.015198 100.859679 
L 287.330091 93.255947 
L 287.644984 102.518269 
L 287.959877 255.359127 
L 288.274769 104.229332 
L 288.589662 100.260811 
L 288.904555 105.48053 
L 289.534341 98.33338 
L 289.849234 105.448615 
L 290.164127 256.579375 
L 290.479019 262.47281 
L 290.793912 263.51332 
L 291.108805 100.746395 
L 291.423698 256.764028 
L 291.738591 269.224546 
L 292.053484 260.517408 
L 292.368377 106.408598 
L 292.68327 104.245038 
L 292.998162 103.913764 
L 293.313055 98.357859 
L 293.627948 96.225875 
L 293.942841 106.334526 
L 294.257734 257.304272 
L 294.572627 107.903322 
L 294.88752 105.15918 
L 295.202412 103.704825 
L 295.517305 260.306777 
L 295.832198 265.575318 
L 296.147091 266.519202 
L 296.461984 264.24028 
L 296.776877 99.210167 
L 297.09177 88.69334 
L 297.406663 91.092941 
L 297.721555 256.295618 
L 298.036448 264.629496 
L 298.351341 259.490194 
L 298.666234 107.713983 
L 298.981127 259.152229 
L 299.29602 261.426015 
L 299.610913 101.924732 
L 299.925805 95.954113 
L 300.240698 256.214157 
L 300.555591 265.026322 
L 300.870484 103.873528 
L 301.185377 94.157203 
L 301.50027 94.639151 
L 301.815163 97.161228 
L 302.130056 255.027859 
L 302.444948 261.822368 
L 302.759841 104.696609 
L 303.074734 98.175092 
L 303.70452 105.581413 
L 304.019413 259.330443 
L 304.334306 105.760624 
L 304.649198 98.340589 
L 304.964091 106.937162 
L 305.278984 259.274003 
L 305.593877 102.30198 
L 305.90877 95.708675 
L 306.223663 104.387246 
L 306.538556 103.822182 
L 306.853449 99.482712 
L 307.168341 106.022712 
L 307.483234 256.873896 
L 307.798127 98.058484 
L 308.11302 91.107057 
L 308.427913 100.123892 
L 308.742806 104.469503 
L 309.057699 102.172211 
L 309.372591 106.534078 
L 309.687484 255.431377 
L 310.002377 255.431377 
L 310.31727 100.328213 
L 310.632163 95.218045 
L 310.947056 105.993166 
L 311.261949 260.020977 
L 311.576842 259.5511 
L 311.891734 106.97822 
L 312.206627 102.888838 
L 312.52152 260.749326 
L 312.836413 267.321041 
L 313.151306 259.929851 
L 313.466199 107.291979 
L 313.781092 257.251221 
L 314.095984 259.458207 
L 314.410877 259.458207 
L 315.040663 256.719314 
L 315.355556 258.70119 
L 315.670449 105.341328 
L 315.985342 101.049362 
L 316.300235 255.070806 
L 316.615127 260.514102 
L 317.244913 255.368454 
L 317.559806 96.701412 
L 317.874699 91.632027 
L 318.189592 106.942508 
L 318.504485 262.576362 
L 318.819377 255.607271 
L 319.13427 103.695909 
L 319.449163 259.313475 
L 319.764056 264.898978 
L 320.078949 256.725407 
L 320.393842 104.155771 
L 320.708735 105.408886 
L 321.023628 107.172192 
L 321.33852 104.831998 
L 321.653413 104.031653 
L 321.968306 259.027573 
L 322.283199 263.683587 
L 322.598092 106.028295 
L 322.912985 99.243371 
L 323.227878 264.538468 
L 323.54277 275.152188 
L 323.857663 258.388365 
L 324.172556 99.955215 
L 324.487449 99.551875 
L 324.802342 102.595169 
L 325.117235 102.85547 
L 325.432128 261.930094 
L 325.747021 268.202091 
L 326.376806 260.078936 
L 327.006592 260.078936 
L 327.321485 262.521394 
L 327.636378 261.903055 
L 327.951271 260.440573 
L 328.266163 104.253216 
L 328.581056 99.318137 
L 328.895949 99.318137 
L 329.210842 92.591981 
L 329.525735 92.209477 
L 329.840628 257.642187 
L 330.155521 269.813146 
L 330.785306 255.242122 
L 331.100199 260.682746 
L 331.415092 263.284796 
L 331.729985 256.527459 
L 332.044878 255.136438 
L 332.359771 256.970729 
L 332.674664 261.84696 
L 333.304449 265.523259 
L 333.619342 264.836811 
L 333.934235 100.961639 
L 334.249128 90.646249 
L 334.564021 106.781406 
L 334.878914 264.343063 
L 335.193807 256.456609 
L 335.508699 104.314759 
L 335.823592 104.314759 
L 336.138485 91.387827 
L 336.453378 262.072995 
L 336.768271 276.701474 
L 337.083164 100.887684 
L 337.398057 82.169409 
L 338.027842 105.616139 
L 338.342735 276.668274 
L 338.657628 255.815153 
L 338.972521 85.268537 
L 339.287414 100.453663 
L 339.602307 260.246579 
L 339.9172 262.856971 
L 340.232092 263.166718 
L 340.546985 262.457659 
L 340.861878 260.77911 
L 341.176771 100.572575 
L 341.491664 93.502862 
L 341.806557 258.007025 
L 342.12145 277.255357 
L 342.436342 278.021692 
L 342.751235 104.436482 
L 343.066128 88.126334 
L 343.381021 255.728074 
L 343.695914 269.469217 
L 344.3257 262.690128 
L 344.640593 106.187678 
L 344.955485 266.273869 
L 345.270378 277.678475 
L 345.585271 103.808755 
L 345.900164 86.919365 
L 346.215057 103.060982 
L 346.52995 262.834095 
L 346.844843 273.964599 
L 347.159735 261.391831 
L 347.474628 102.856503 
L 347.789521 257.668666 
L 348.104414 263.179357 
L 348.7342 256.835702 
L 349.049093 104.449966 
L 349.363986 102.152177 
L 349.678878 259.683277 
L 349.993771 267.106449 
L 350.308664 268.365836 
L 350.623557 272.57752 
L 350.93845 274.275699 
L 351.253343 285.462151 
L 351.568236 288.844986 
L 351.883128 256.689935 
L 352.198021 90.324171 
L 352.512914 106.156125 
L 352.827807 275.75029 
L 353.1427 277.228724 
L 353.457593 275.613951 
L 353.772486 273.16462 
L 354.087379 266.42967 
L 354.402271 262.582678 
L 354.717164 256.554223 
L 355.032057 254.902771 
L 355.34695 105.567351 
L 355.661843 97.931387 
L 355.976736 95.672801 
L 356.291629 273.864562 
L 356.606521 293.025049 
L 357.236307 266.676927 
L 357.5512 104.722959 
L 357.866093 97.223624 
L 358.180986 97.640403 
L 358.495879 101.565357 
L 358.810772 107.358819 
L 359.125664 257.104414 
L 359.440557 255.80813 
L 359.75545 261.024985 
L 360.070343 262.951275 
L 360.385236 269.289924 
L 360.700129 271.411272 
L 361.015022 265.475988 
L 361.329914 101.361634 
L 361.644807 95.514783 
L 361.9597 107.335021 
L 362.274593 263.373006 
L 362.589486 264.193744 
L 362.904379 263.177328 
L 363.219272 271.658509 
L 363.534165 103.908746 
L 363.849057 89.473063 
L 364.16395 102.140546 
L 364.478843 260.195513 
L 365.108629 256.226291 
L 365.423522 106.938499 
L 365.738415 105.862651 
L 366.053307 90.646101 
L 366.3682 255.921858 
L 366.683093 273.213272 
L 366.997986 269.325673 
L 367.312879 262.932001 
L 367.627772 105.982419 
L 367.942665 99.280979 
L 368.887343 106.923267 
L 369.202236 259.521407 
L 369.517129 261.497573 
L 369.832022 269.677677 
L 370.146915 272.112068 
L 370.461808 79.564555 
L 370.7767 53.568 
L 371.091593 89.182702 
L 371.406486 263.375044 
L 371.721379 92.256905 
L 372.036272 79.776899 
L 372.351165 104.912742 
L 372.666058 268.897428 
L 372.980951 102.335562 
L 373.295843 87.9888 
L 373.610736 85.985083 
L 373.925629 88.337185 
L 374.240522 106.984112 
L 374.555415 265.455234 
L 374.870308 107.295932 
L 375.185201 254.754441 
L 375.500093 260.787418 
L 375.814986 101.213974 
L 376.129879 92.571113 
L 376.444772 88.850038 
L 376.759665 88.981172 
L 377.074558 266.66893 
L 377.389451 101.343818 
L 377.704344 77.038372 
L 378.019236 98.974805 
L 378.334129 262.269147 
L 378.649022 262.528068 
L 378.963915 258.932449 
L 379.278808 258.474533 
L 379.593701 101.352011 
L 379.908594 97.915671 
L 380.223486 100.831041 
L 380.538379 90.608868 
L 380.853272 86.159285 
L 381.483058 101.42854 
L 381.797951 258.476772 
L 382.112844 102.676571 
L 383.057522 75.008014 
L 383.372415 107.473049 
L 383.687308 275.326802 
L 384.002201 270.82131 
L 384.317094 262.579966 
L 384.631987 262.579966 
L 384.946879 104.011903 
L 385.261772 256.947883 
L 385.576665 106.595589 
L 385.891558 98.72393 
L 386.206451 100.029151 
L 386.521344 261.204541 
L 386.836237 267.725543 
L 387.15113 257.79924 
L 387.466022 103.171064 
L 387.780915 99.697704 
L 388.095808 98.90812 
L 388.410701 81.945659 
L 388.725594 74.870461 
L 389.040487 257.729445 
L 389.35538 276.469157 
L 389.670272 87.615779 
L 389.985165 61.955322 
L 390.300058 263.030316 
L 390.614951 255.672491 
L 390.929844 78.253086 
L 391.244737 95.359593 
L 391.55963 256.412129 
L 391.874523 94.10086 
L 392.189415 85.068092 
L 392.504308 106.979089 
L 392.819201 267.859947 
L 393.134094 103.886907 
L 393.448987 86.494919 
L 393.76388 86.27366 
L 394.078773 105.047352 
L 394.393665 264.120249 
L 394.708558 260.414548 
L 395.023451 255.009516 
L 395.338344 102.185085 
L 395.653237 98.074241 
L 395.96813 106.121763 
L 396.283023 256.749985 
L 396.597916 104.765791 
L 396.912808 101.24738 
L 397.227701 107.289091 
L 397.542594 255.653609 
L 397.857487 106.949314 
L 398.17238 255.214277 
L 398.487273 256.027192 
L 398.487273 256.027192 
" style="fill:none;stroke:#1f77b4;stroke-linecap:square;stroke-width:1.5;"/>
   </g>
   <g id="patch_3">
    <path d="M 57.6 307.584 
L 57.6 41.472 
" style="fill:none;stroke:#000000;stroke-linecap:square;stroke-linejoin:miter;stroke-width:0.8;"/>
   </g>
   <g id="patch_4">
    <path d="M 414.72 307.584 
L 414.72 41.472 
" style="fill:none;stroke:#000000;stroke-linecap:square;stroke-linejoin:miter;stroke-width:0.8;"/>
   </g>
   <g id="patch_5">
    <path d="M 57.6 307.584 
L 414.72 307.584 
" style="fill:none;stroke:#000000;stroke-linecap:square;stroke-linejoin:miter;stroke-width:0.8;"/>
   </g>
   <g id="patch_6">
    <path d="M 57.6 41.472 
L 414.72 41.472 
" style="fill:none;stroke:#000000;stroke-linecap:square;stroke-linejoin:miter;stroke-width:0.8;"/>
   </g>
   <g id="text_12">
    <!-- Motor 7 speed history -->
    <defs>
     <path d="M 9.8125 72.90625 
L 24.515625 72.90625 
L 43.109375 23.296875 
L 61.8125 72.90625 
L 76.515625 72.90625 
L 76.515625 0 
L 66.890625 0 
L 66.890625 64.015625 
L 48.09375 14.015625 
L 38.1875 14.015625 
L 19.390625 64.015625 
L 19.390625 0 
L 9.8125 0 
z
" id="DejaVuSans-4d"/>
     <path d="M 30.609375 48.390625 
Q 23.390625 48.390625 19.1875 42.75 
Q 14.984375 37.109375 14.984375 27.296875 
Q 14.984375 17.484375 19.15625 11.84375 
Q 23.34375 6.203125 30.609375 6.203125 
Q 37.796875 6.203125 41.984375 11.859375 
Q 46.1875 17.53125 46.1875 27.296875 
Q 46.1875 37.015625 41.984375 42.703125 
Q 37.796875 48.390625 30.609375 48.390625 
z
M 30.609375 56 
Q 42.328125 56 49.015625 48.375 
Q 55.71875 40.765625 55.71875 27.296875 
Q 55.71875 13.875 49.015625 6.21875 
Q 42.328125 -1.421875 30.609375 -1.421875 
Q 18.84375 -1.421875 12.171875 6.21875 
Q 5.515625 13.875 5.515625 27.296875 
Q 5.515625 40.765625 12.171875 48.375 
Q 18.84375 56 30.609375 56 
z
" id="DejaVuSans-6f"/>
     <path d="M 18.3125 70.21875 
L 18.3125 54.6875 
L 36.8125 54.6875 
L 36.8125 47.703125 
L 18.3125 47.703125 
L 18.3125 18.015625 
Q 18.3125 11.328125 20.140625 9.421875 
Q 21.96875 7.515625 27.59375 7.515625 
L 36.8125 7.515625 
L 36.8125 0 
L 27.59375 0 
Q 17.1875 0 13.234375 3.875 
Q 9.28125 7.765625 9.28125 18.015625 
L 9.28125 47.703125 
L 2.6875 47.703125 
L 2.6875 54.6875 
L 9.28125 54.6875 
L 9.28125 70.21875 
z
" id="DejaVuSans-74"/>
     <path d="M 41.109375 46.296875 
Q 39.59375 47.171875 37.8125 47.578125 
Q 36.03125 48 33.890625 48 
Q 26.265625 48 22.1875 43.046875 
Q 18.109375 38.09375 18.109375 28.8125 
L 18.109375 0 
L 9.078125 0 
L 9.078125 54.6875 
L 18.109375 54.6875 
L 18.109375 46.1875 
Q 20.953125 51.171875 25.484375 53.578125 
Q 30.03125 56 36.53125 56 
Q 37.453125 56 38.578125 55.875 
Q 39.703125 55.765625 41.0625 55.515625 
z
" id="DejaVuSans-72"/>
     <path id="DejaVuSans-20"/>
     <path d="M 8.203125 72.90625 
L 55.078125 72.90625 
L 55.078125 68.703125 
L 28.609375 0 
L 18.3125 0 
L 43.21875 64.59375 
L 8.203125 64.59375 
z
" id="DejaVuSans-37"/>
     <path d="M 44.28125 53.078125 
L 44.28125 44.578125 
Q 40.484375 46.53125 36.375 47.5 
Q 32.28125 48.484375 27.875 48.484375 
Q 21.1875 48.484375 17.84375 46.4375 
Q 14.5 44.390625 14.5 40.28125 
Q 14.5 37.15625 16.890625 35.375 
Q 19.28125 33.59375 26.515625 31.984375 
L 29.59375 31.296875 
Q 39.15625 29.25 43.1875 25.515625 
Q 47.21875 21.78125 47.21875 15.09375 
Q 47.21875 7.46875 41.1875 3.015625 
Q 35.15625 -1.421875 24.609375 -1.421875 
Q 20.21875 -1.421875 15.453125 -0.5625 
Q 10.6875 0.296875 5.421875 2 
L 5.421875 11.28125 
Q 10.40625 8.6875 15.234375 7.390625 
Q 20.0625 6.109375 24.8125 6.109375 
Q 31.15625 6.109375 34.5625 8.28125 
Q 37.984375 10.453125 37.984375 14.40625 
Q 37.984375 18.0625 35.515625 20.015625 
Q 33.0625 21.96875 24.703125 23.78125 
L 21.578125 24.515625 
Q 13.234375 26.265625 9.515625 29.90625 
Q 5.8125 33.546875 5.8125 39.890625 
Q 5.8125 47.609375 11.28125 51.796875 
Q 16.75 56 26.8125 56 
Q 31.78125 56 36.171875 55.265625 
Q 40.578125 54.546875 44.28125 53.078125 
z
" id="DejaVuSans-73"/>
     <path d="M 18.109375 8.203125 
L 18.109375 -20.796875 
L 9.078125 -20.796875 
L 9.078125 54.6875 
L 18.109375 54.6875 
L 18.109375 46.390625 
Q 20.953125 51.265625 25.265625 53.625 
Q 29.59375 56 35.59375 56 
Q 45.5625 56 51.78125 48.09375 
Q 58.015625 40.1875 58.015625 27.296875 
Q 58.015625 14.40625 51.78125 6.484375 
Q 45.5625 -1.421875 35.59375 -1.421875 
Q 29.59375 -1.421875 25.265625 0.953125 
Q 20.953125 3.328125 18.109375 8.203125 
z
M 48.6875 27.296875 
Q 48.6875 37.203125 44.609375 42.84375 
Q 40.53125 48.484375 33.40625 48.484375 
Q 26.265625 48.484375 22.1875 42.84375 
Q 18.109375 37.203125 18.109375 27.296875 
Q 18.109375 17.390625 22.1875 11.75 
Q 26.265625 6.109375 33.40625 6.109375 
Q 40.53125 6.109375 44.609375 11.75 
Q 48.6875 17.390625 48.6875 27.296875 
z
" id="DejaVuSans-70"/>
     <path d="M 56.203125 29.59375 
L 56.203125 25.203125 
L 14.890625 25.203125 
Q 15.484375 15.921875 20.484375 11.0625 
Q 25.484375 6.203125 34.421875 6.203125 
Q 39.59375 6.203125 44.453125 7.46875 
Q 49.3125 8.734375 54.109375 11.28125 
L 54.109375 2.78125 
Q 49.265625 0.734375 44.1875 -0.34375 
Q 39.109375 -1.421875 33.890625 -1.421875 
Q 20.796875 -1.421875 13.15625 6.1875 
Q 5.515625 13.8125 5.515625 26.8125 
Q 5.515625 40.234375 12.765625 48.109375 
Q 20.015625 56 32.328125 56 
Q 43.359375 56 49.78125 48.890625 
Q 56.203125 41.796875 56.203125 29.59375 
z
M 47.21875 32.234375 
Q 47.125 39.59375 43.09375 43.984375 
Q 39.0625 48.390625 32.421875 48.390625 
Q 24.90625 48.390625 20.390625 44.140625 
Q 15.875 39.890625 15.1875 32.171875 
z
" id="DejaVuSans-65"/>
     <path d="M 45.40625 46.390625 
L 45.40625 75.984375 
L 54.390625 75.984375 
L 54.390625 0 
L 45.40625 0 
L 45.40625 8.203125 
Q 42.578125 3.328125 38.25 0.953125 
Q 33.9375 -1.421875 27.875 -1.421875 
Q 17.96875 -1.421875 11.734375 6.484375 
Q 5.515625 14.40625 5.515625 27.296875 
Q 5.515625 40.1875 11.734375 48.09375 
Q 17.96875 56 27.875 56 
Q 33.9375 56 38.25 53.625 
Q 42.578125 51.265625 45.40625 46.390625 
z
M 14.796875 27.296875 
Q 14.796875 17.390625 18.875 11.75 
Q 22.953125 6.109375 30.078125 6.109375 
Q 37.203125 6.109375 41.296875 11.75 
Q 45.40625 17.390625 45.40625 27.296875 
Q 45.40625 37.203125 41.296875 42.84375 
Q 37.203125 48.484375 30.078125 48.484375 
Q 22.953125 48.484375 18.875 42.84375 
Q 14.796875 37.203125 14.796875 27.296875 
z
" id="DejaVuSans-64"/>
     <path d="M 54.890625 33.015625 
L 54.890625 0 
L 45.90625 0 
L 45.90625 32.71875 
Q 45.90625 40.484375 42.875 44.328125 
Q 39.84375 48.1875 33.796875 48.1875 
Q 26.515625 48.1875 22.3125 43.546875 
Q 18.109375 38.921875 18.109375 30.90625 
L 18.109375 0 
L 9.078125 0 
L 9.078125 75.984375 
L 18.109375 75.984375 
L 18.109375 46.1875 
Q 21.34375 51.125 25.703125 53.5625 
Q 30.078125 56 35.796875 56 
Q 45.21875 56 50.046875 50.171875 
Q 54.890625 44.34375 54.890625 33.015625 
z
" id="DejaVuSans-68"/>
     <path d="M 9.421875 54.6875 
L 18.40625 54.6875 
L 18.40625 0 
L 9.421875 0 
z
M 9.421875 75.984375 
L 18.40625 75.984375 
L 18.40625 64.59375 
L 9.421875 64.59375 
z
" id="DejaVuSans-69"/>
     <path d="M 32.171875 -5.078125 
Q 28.375 -14.84375 24.75 -17.8125 
Q 21.140625 -20.796875 15.09375 -20.796875 
L 7.90625 -20.796875 
L 7.90625 -13.28125 
L 13.1875 -13.28125 
Q 16.890625 -13.28125 18.9375 -11.515625 
Q 21 -9.765625 23.484375 -3.21875 
L 25.09375 0.875 
L 2.984375 54.6875 
L 12.5 54.6875 
L 29.59375 11.921875 
L 46.6875 54.6875 
L 56.203125 54.6875 
z
" id="DejaVuSans-79"/>
    </defs>
    <g transform="translate(170.52 35.472)scale(0.12 -0.12)">
     <use xlink:href="#DejaVuSans-4d"/>
     <use x="86.279297" xlink:href="#DejaVuSans-6f"/>
     <use x="147.460938" xlink:href="#DejaVuSans-74"/>
     <use x="186.669922" xlink:href="#DejaVuSans-6f"/>
     <use x="247.851562" xlink:href="#DejaVuSans-72"/>
     <use x="288.964844" xlink:href="#DejaVuSans-20"/>
     <use x="320.751953" xlink:href="#DejaVuSans-37"/>
     <use x="384.375" xlink:href="#DejaVuSans-20"/>
     <use x="416.162109" xlink:href="#DejaVuSans-73"/>
     <use x="468.261719" xlink:href="#DejaVuSans-70"/>
     <use x="531.738281" xlink:href="#DejaVuSans-65"/>
     <use x="593.261719" xlink:href="#DejaVuSans-65"/>
     <use x="654.785156" xlink:href="#DejaVuSans-64"/>
     <use x="718.261719" xlink:href="#DejaVuSans-20"/>
     <use x="750.048828" xlink:href="#DejaVuSans-68"/>
     <use x="813.427734" xlink:href="#DejaVuSans-69"/>
     <use x="841.210938" xlink:href="#DejaVuSans-73"/>
     <use x="893.310547" xlink:href="#DejaVuSans-74"/>
     <use x="932.519531" xlink:href="#DejaVuSans-6f"/>
     <use x="993.701172" xlink:href="#DejaVuSans-72"/>
     <use x="1034.814453" xlink:href="#DejaVuSans-79"/>
    </g>
   </g>
   <g id="legend_1">
    <g id="patch_7">
     <path d="M 64.6 64.150125 
L 120.867188 64.150125 
Q 122.867188 64.150125 122.867188 62.150125 
L 122.867188 48.472 
Q 122.867188 46.472 120.867188 46.472 
L 64.6 46.472 
Q 62.6 46.472 62.6 48.472 
L 62.6 62.150125 
Q 62.6 64.150125 64.6 64.150125 
z
" style="fill:#ffffff;opacity:0.8;stroke:#cccccc;stroke-linejoin:miter;"/>
    </g>
    <g id="line2d_13">
     <path d="M 66.6 54.570438 
L 86.6 54.570438 
" style="fill:none;stroke:#1f77b4;stroke-linecap:square;stroke-width:1.5;"/>
    </g>
    <g id="line2d_14"/>
    <g id="text_13">
     <!-- pwm -->
     <defs>
      <path d="M 4.203125 54.6875 
L 13.1875 54.6875 
L 24.421875 12.015625 
L 35.59375 54.6875 
L 46.1875 54.6875 
L 57.421875 12.015625 
L 68.609375 54.6875 
L 77.59375 54.6875 
L 63.28125 0 
L 52.6875 0 
L 40.921875 44.828125 
L 29.109375 0 
L 18.5 0 
z
" id="DejaVuSans-77"/>
      <path d="M 52 44.1875 
Q 55.375 50.25 60.0625 53.125 
Q 64.75 56 71.09375 56 
Q 79.640625 56 84.28125 50.015625 
Q 88.921875 44.046875 88.921875 33.015625 
L 88.921875 0 
L 79.890625 0 
L 79.890625 32.71875 
Q 79.890625 40.578125 77.09375 44.375 
Q 74.3125 48.1875 68.609375 48.1875 
Q 61.625 48.1875 57.5625 43.546875 
Q 53.515625 38.921875 53.515625 30.90625 
L 53.515625 0 
L 44.484375 0 
L 44.484375 32.71875 
Q 44.484375 40.625 41.703125 44.40625 
Q 38.921875 48.1875 33.109375 48.1875 
Q 26.21875 48.1875 22.15625 43.53125 
Q 18.109375 38.875 18.109375 30.90625 
L 18.109375 0 
L 9.078125 0 
L 9.078125 54.6875 
L 18.109375 54.6875 
L 18.109375 46.1875 
Q 21.1875 51.21875 25.484375 53.609375 
Q 29.78125 56 35.6875 56 
Q 41.65625 56 45.828125 52.96875 
Q 50 49.953125 52 44.1875 
z
" id="DejaVuSans-6d"/>
     </defs>
     <g transform="translate(94.6 58.070438)scale(0.1 -0.1)">
      <use xlink:href="#DejaVuSans-70"/>
      <use x="63.476562" xlink:href="#DejaVuSans-77"/>
      <use x="145.263672" xlink:href="#DejaVuSans-6d"/>
     </g>
    </g>
   </g>
  </g>
 </g>
 <defs>
  <clipPath id="pb32c82413d">
   <rect height="266.112" width="357.12" x="57.6" y="41.472"/>
  </clipPath>
 </defs>
</svg>
