<?xml version="1.0" encoding="utf-8" standalone="no"?>
<!DOCTYPE svg PUBLIC "-//W3C//DTD SVG 1.1//EN"
  "http://www.w3.org/Graphics/SVG/1.1/DTD/svg11.dtd">
<!-- Created with matplotlib (http://matplotlib.org/) -->
<svg height="1440pt" version="1.1" viewBox="0 0 1800 1440" width="1800pt" xmlns="http://www.w3.org/2000/svg" xmlns:xlink="http://www.w3.org/1999/xlink">
 <defs>
  <style type="text/css">
*{stroke-linecap:butt;stroke-linejoin:round;}
  </style>
 </defs>
 <g id="figure_1">
  <g id="patch_1">
   <path d="M 0 1440 
L 1800 1440 
L 1800 0 
L 0 0 
z
" style="fill:#ffffff;"/>
  </g>
  <g id="axes_1">
   <g id="patch_2">
    <path d="M 225 1281.6 
L 1620 1281.6 
L 1620 172.8 
L 225 172.8 
z
" style="fill:#ffffff;"/>
   </g>
   <g id="matplotlib.axis_1">
    <g id="xtick_1">
     <g id="line2d_1">
      <path clip-path="url(#p4b31069594)" d="M 288.409091 1281.6 
L 288.409091 172.8 
" style="fill:none;stroke:#b0b0b0;stroke-linecap:square;stroke-width:0.8;"/>
     </g>
     <g id="line2d_2">
      <defs>
       <path d="M 0 0 
L 0 3.5 
" id="m80dfe97268" style="stroke:#000000;stroke-width:0.8;"/>
      </defs>
      <g>
       <use style="stroke:#000000;stroke-width:0.8;" x="288.409091" xlink:href="#m80dfe97268" y="1281.6"/>
      </g>
     </g>
     <g id="text_1">
      <!-- 0 -->
      <defs>
       <path d="M 31.78125 66.40625 
Q 24.171875 66.40625 20.328125 58.90625 
Q 16.5 51.421875 16.5 36.375 
Q 16.5 21.390625 20.328125 13.890625 
Q 24.171875 6.390625 31.78125 6.390625 
Q 39.453125 6.390625 43.28125 13.890625 
Q 47.125 21.390625 47.125 36.375 
Q 47.125 51.421875 43.28125 58.90625 
Q 39.453125 66.40625 31.78125 66.40625 
z
M 31.78125 74.21875 
Q 44.046875 74.21875 50.515625 64.515625 
Q 56.984375 54.828125 56.984375 36.375 
Q 56.984375 17.96875 50.515625 8.265625 
Q 44.046875 -1.421875 31.78125 -1.421875 
Q 19.53125 -1.421875 13.0625 8.265625 
Q 6.59375 17.96875 6.59375 36.375 
Q 6.59375 54.828125 13.0625 64.515625 
Q 19.53125 74.21875 31.78125 74.21875 
z
" id="DejaVuSans-30"/>
      </defs>
      <g transform="translate(285.227841 1296.198437)scale(0.1 -0.1)">
       <use xlink:href="#DejaVuSans-30"/>
      </g>
     </g>
    </g>
    <g id="xtick_2">
     <g id="line2d_3">
      <path clip-path="url(#p4b31069594)" d="M 534.419143 1281.6 
L 534.419143 172.8 
" style="fill:none;stroke:#b0b0b0;stroke-linecap:square;stroke-width:0.8;"/>
     </g>
     <g id="line2d_4">
      <g>
       <use style="stroke:#000000;stroke-width:0.8;" x="534.419143" xlink:href="#m80dfe97268" y="1281.6"/>
      </g>
     </g>
     <g id="text_2">
      <!-- 200 -->
      <defs>
       <path d="M 19.1875 8.296875 
L 53.609375 8.296875 
L 53.609375 0 
L 7.328125 0 
L 7.328125 8.296875 
Q 12.9375 14.109375 22.625 23.890625 
Q 32.328125 33.6875 34.8125 36.53125 
Q 39.546875 41.84375 41.421875 45.53125 
Q 43.3125 49.21875 43.3125 52.78125 
Q 43.3125 58.59375 39.234375 62.25 
Q 35.15625 65.921875 28.609375 65.921875 
Q 23.96875 65.921875 18.8125 64.3125 
Q 13.671875 62.703125 7.8125 59.421875 
L 7.8125 69.390625 
Q 13.765625 71.78125 18.9375 73 
Q 24.125 74.21875 28.421875 74.21875 
Q 39.75 74.21875 46.484375 68.546875 
Q 53.21875 62.890625 53.21875 53.421875 
Q 53.21875 48.921875 51.53125 44.890625 
Q 49.859375 40.875 45.40625 35.40625 
Q 44.1875 33.984375 37.640625 27.21875 
Q 31.109375 20.453125 19.1875 8.296875 
z
" id="DejaVuSans-32"/>
      </defs>
      <g transform="translate(524.875393 1296.198437)scale(0.1 -0.1)">
       <use xlink:href="#DejaVuSans-32"/>
       <use x="63.623047" xlink:href="#DejaVuSans-30"/>
       <use x="127.246094" xlink:href="#DejaVuSans-30"/>
      </g>
     </g>
    </g>
    <g id="xtick_3">
     <g id="line2d_5">
      <path clip-path="url(#p4b31069594)" d="M 780.429195 1281.6 
L 780.429195 172.8 
" style="fill:none;stroke:#b0b0b0;stroke-linecap:square;stroke-width:0.8;"/>
     </g>
     <g id="line2d_6">
      <g>
       <use style="stroke:#000000;stroke-width:0.8;" x="780.429195" xlink:href="#m80dfe97268" y="1281.6"/>
      </g>
     </g>
     <g id="text_3">
      <!-- 400 -->
      <defs>
       <path d="M 37.796875 64.3125 
L 12.890625 25.390625 
L 37.796875 25.390625 
z
M 35.203125 72.90625 
L 47.609375 72.90625 
L 47.609375 25.390625 
L 58.015625 25.390625 
L 58.015625 17.1875 
L 47.609375 17.1875 
L 47.609375 0 
L 37.796875 0 
L 37.796875 17.1875 
L 4.890625 17.1875 
L 4.890625 26.703125 
z
" id="DejaVuSans-34"/>
      </defs>
      <g transform="translate(770.885445 1296.198437)scale(0.1 -0.1)">
       <use xlink:href="#DejaVuSans-34"/>
       <use x="63.623047" xlink:href="#DejaVuSans-30"/>
       <use x="127.246094" xlink:href="#DejaVuSans-30"/>
      </g>
     </g>
    </g>
    <g id="xtick_4">
     <g id="line2d_7">
      <path clip-path="url(#p4b31069594)" d="M 1026.439247 1281.6 
L 1026.439247 172.8 
" style="fill:none;stroke:#b0b0b0;stroke-linecap:square;stroke-width:0.8;"/>
     </g>
     <g id="line2d_8">
      <g>
       <use style="stroke:#000000;stroke-width:0.8;" x="1026.439247" xlink:href="#m80dfe97268" y="1281.6"/>
      </g>
     </g>
     <g id="text_4">
      <!-- 600 -->
      <defs>
       <path d="M 33.015625 40.375 
Q 26.375 40.375 22.484375 35.828125 
Q 18.609375 31.296875 18.609375 23.390625 
Q 18.609375 15.53125 22.484375 10.953125 
Q 26.375 6.390625 33.015625 6.390625 
Q 39.65625 6.390625 43.53125 10.953125 
Q 47.40625 15.53125 47.40625 23.390625 
Q 47.40625 31.296875 43.53125 35.828125 
Q 39.65625 40.375 33.015625 40.375 
z
M 52.59375 71.296875 
L 52.59375 62.3125 
Q 48.875 64.0625 45.09375 64.984375 
Q 41.3125 65.921875 37.59375 65.921875 
Q 27.828125 65.921875 22.671875 59.328125 
Q 17.53125 52.734375 16.796875 39.40625 
Q 19.671875 43.65625 24.015625 45.921875 
Q 28.375 48.1875 33.59375 48.1875 
Q 44.578125 48.1875 50.953125 41.515625 
Q 57.328125 34.859375 57.328125 23.390625 
Q 57.328125 12.15625 50.6875 5.359375 
Q 44.046875 -1.421875 33.015625 -1.421875 
Q 20.359375 -1.421875 13.671875 8.265625 
Q 6.984375 17.96875 6.984375 36.375 
Q 6.984375 53.65625 15.1875 63.9375 
Q 23.390625 74.21875 37.203125 74.21875 
Q 40.921875 74.21875 44.703125 73.484375 
Q 48.484375 72.75 52.59375 71.296875 
z
" id="DejaVuSans-36"/>
      </defs>
      <g transform="translate(1016.895497 1296.198437)scale(0.1 -0.1)">
       <use xlink:href="#DejaVuSans-36"/>
       <use x="63.623047" xlink:href="#DejaVuSans-30"/>
       <use x="127.246094" xlink:href="#DejaVuSans-30"/>
      </g>
     </g>
    </g>
    <g id="xtick_5">
     <g id="line2d_9">
      <path clip-path="url(#p4b31069594)" d="M 1272.449299 1281.6 
L 1272.449299 172.8 
" style="fill:none;stroke:#b0b0b0;stroke-linecap:square;stroke-width:0.8;"/>
     </g>
     <g id="line2d_10">
      <g>
       <use style="stroke:#000000;stroke-width:0.8;" x="1272.449299" xlink:href="#m80dfe97268" y="1281.6"/>
      </g>
     </g>
     <g id="text_5">
      <!-- 800 -->
      <defs>
       <path d="M 31.78125 34.625 
Q 24.75 34.625 20.71875 30.859375 
Q 16.703125 27.09375 16.703125 20.515625 
Q 16.703125 13.921875 20.71875 10.15625 
Q 24.75 6.390625 31.78125 6.390625 
Q 38.8125 6.390625 42.859375 10.171875 
Q 46.921875 13.96875 46.921875 20.515625 
Q 46.921875 27.09375 42.890625 30.859375 
Q 38.875 34.625 31.78125 34.625 
z
M 21.921875 38.8125 
Q 15.578125 40.375 12.03125 44.71875 
Q 8.5 49.078125 8.5 55.328125 
Q 8.5 64.0625 14.71875 69.140625 
Q 20.953125 74.21875 31.78125 74.21875 
Q 42.671875 74.21875 48.875 69.140625 
Q 55.078125 64.0625 55.078125 55.328125 
Q 55.078125 49.078125 51.53125 44.71875 
Q 48 40.375 41.703125 38.8125 
Q 48.828125 37.15625 52.796875 32.3125 
Q 56.78125 27.484375 56.78125 20.515625 
Q 56.78125 9.90625 50.3125 4.234375 
Q 43.84375 -1.421875 31.78125 -1.421875 
Q 19.734375 -1.421875 13.25 4.234375 
Q 6.78125 9.90625 6.78125 20.515625 
Q 6.78125 27.484375 10.78125 32.3125 
Q 14.796875 37.15625 21.921875 38.8125 
z
M 18.3125 54.390625 
Q 18.3125 48.734375 21.84375 45.5625 
Q 25.390625 42.390625 31.78125 42.390625 
Q 38.140625 42.390625 41.71875 45.5625 
Q 45.3125 48.734375 45.3125 54.390625 
Q 45.3125 60.0625 41.71875 63.234375 
Q 38.140625 66.40625 31.78125 66.40625 
Q 25.390625 66.40625 21.84375 63.234375 
Q 18.3125 60.0625 18.3125 54.390625 
z
" id="DejaVuSans-38"/>
      </defs>
      <g transform="translate(1262.905549 1296.198437)scale(0.1 -0.1)">
       <use xlink:href="#DejaVuSans-38"/>
       <use x="63.623047" xlink:href="#DejaVuSans-30"/>
       <use x="127.246094" xlink:href="#DejaVuSans-30"/>
      </g>
     </g>
    </g>
    <g id="xtick_6">
     <g id="line2d_11">
      <path clip-path="url(#p4b31069594)" d="M 1518.459351 1281.6 
L 1518.459351 172.8 
" style="fill:none;stroke:#b0b0b0;stroke-linecap:square;stroke-width:0.8;"/>
     </g>
     <g id="line2d_12">
      <g>
       <use style="stroke:#000000;stroke-width:0.8;" x="1518.459351" xlink:href="#m80dfe97268" y="1281.6"/>
      </g>
     </g>
     <g id="text_6">
      <!-- 1000 -->
      <defs>
       <path d="M 12.40625 8.296875 
L 28.515625 8.296875 
L 28.515625 63.921875 
L 10.984375 60.40625 
L 10.984375 69.390625 
L 28.421875 72.90625 
L 38.28125 72.90625 
L 38.28125 8.296875 
L 54.390625 8.296875 
L 54.390625 0 
L 12.40625 0 
z
" id="DejaVuSans-31"/>
      </defs>
      <g transform="translate(1505.734351 1296.198437)scale(0.1 -0.1)">
       <use xlink:href="#DejaVuSans-31"/>
       <use x="63.623047" xlink:href="#DejaVuSans-30"/>
       <use x="127.246094" xlink:href="#DejaVuSans-30"/>
       <use x="190.869141" xlink:href="#DejaVuSans-30"/>
      </g>
     </g>
    </g>
   </g>
   <g id="matplotlib.axis_2">
    <g id="ytick_1">
     <g id="line2d_13">
      <path clip-path="url(#p4b31069594)" d="M 225 1281.6 
L 1620 1281.6 
" style="fill:none;stroke:#b0b0b0;stroke-linecap:square;stroke-width:0.8;"/>
     </g>
     <g id="line2d_14">
      <defs>
       <path d="M 0 0 
L -3.5 0 
" id="m9b2156c0d9" style="stroke:#000000;stroke-width:0.8;"/>
      </defs>
      <g>
       <use style="stroke:#000000;stroke-width:0.8;" x="225" xlink:href="#m9b2156c0d9" y="1281.6"/>
      </g>
     </g>
     <g id="text_7">
      <!-- −0.08224 -->
      <defs>
       <path d="M 10.59375 35.5 
L 73.1875 35.5 
L 73.1875 27.203125 
L 10.59375 27.203125 
z
" id="DejaVuSans-2212"/>
       <path d="M 10.6875 12.40625 
L 21 12.40625 
L 21 0 
L 10.6875 0 
z
" id="DejaVuSans-2e"/>
      </defs>
      <g transform="translate(168.267188 1285.399219)scale(0.1 -0.1)">
       <use xlink:href="#DejaVuSans-2212"/>
       <use x="83.789062" xlink:href="#DejaVuSans-30"/>
       <use x="147.412109" xlink:href="#DejaVuSans-2e"/>
       <use x="179.199219" xlink:href="#DejaVuSans-30"/>
       <use x="242.822266" xlink:href="#DejaVuSans-38"/>
       <use x="306.445312" xlink:href="#DejaVuSans-32"/>
       <use x="370.068359" xlink:href="#DejaVuSans-32"/>
       <use x="433.691406" xlink:href="#DejaVuSans-34"/>
      </g>
     </g>
    </g>
    <g id="ytick_2">
     <g id="line2d_15">
      <path clip-path="url(#p4b31069594)" d="M 225 1152.90566 
L 1620 1152.90566 
" style="fill:none;stroke:#b0b0b0;stroke-linecap:square;stroke-width:0.8;"/>
     </g>
     <g id="line2d_16">
      <g>
       <use style="stroke:#000000;stroke-width:0.8;" x="225" xlink:href="#m9b2156c0d9" y="1152.90566"/>
      </g>
     </g>
     <g id="text_8">
      <!-- −0.07224 -->
      <defs>
       <path d="M 8.203125 72.90625 
L 55.078125 72.90625 
L 55.078125 68.703125 
L 28.609375 0 
L 18.3125 0 
L 43.21875 64.59375 
L 8.203125 64.59375 
z
" id="DejaVuSans-37"/>
      </defs>
      <g transform="translate(168.267188 1156.704878)scale(0.1 -0.1)">
       <use xlink:href="#DejaVuSans-2212"/>
       <use x="83.789062" xlink:href="#DejaVuSans-30"/>
       <use x="147.412109" xlink:href="#DejaVuSans-2e"/>
       <use x="179.199219" xlink:href="#DejaVuSans-30"/>
       <use x="242.822266" xlink:href="#DejaVuSans-37"/>
       <use x="306.445312" xlink:href="#DejaVuSans-32"/>
       <use x="370.068359" xlink:href="#DejaVuSans-32"/>
       <use x="433.691406" xlink:href="#DejaVuSans-34"/>
      </g>
     </g>
    </g>
    <g id="ytick_3">
     <g id="line2d_17">
      <path clip-path="url(#p4b31069594)" d="M 225 1024.211319 
L 1620 1024.211319 
" style="fill:none;stroke:#b0b0b0;stroke-linecap:square;stroke-width:0.8;"/>
     </g>
     <g id="line2d_18">
      <g>
       <use style="stroke:#000000;stroke-width:0.8;" x="225" xlink:href="#m9b2156c0d9" y="1024.211319"/>
      </g>
     </g>
     <g id="text_9">
      <!-- −0.06224 -->
      <g transform="translate(168.267188 1028.010538)scale(0.1 -0.1)">
       <use xlink:href="#DejaVuSans-2212"/>
       <use x="83.789062" xlink:href="#DejaVuSans-30"/>
       <use x="147.412109" xlink:href="#DejaVuSans-2e"/>
       <use x="179.199219" xlink:href="#DejaVuSans-30"/>
       <use x="242.822266" xlink:href="#DejaVuSans-36"/>
       <use x="306.445312" xlink:href="#DejaVuSans-32"/>
       <use x="370.068359" xlink:href="#DejaVuSans-32"/>
       <use x="433.691406" xlink:href="#DejaVuSans-34"/>
      </g>
     </g>
    </g>
    <g id="ytick_4">
     <g id="line2d_19">
      <path clip-path="url(#p4b31069594)" d="M 225 895.516979 
L 1620 895.516979 
" style="fill:none;stroke:#b0b0b0;stroke-linecap:square;stroke-width:0.8;"/>
     </g>
     <g id="line2d_20">
      <g>
       <use style="stroke:#000000;stroke-width:0.8;" x="225" xlink:href="#m9b2156c0d9" y="895.516979"/>
      </g>
     </g>
     <g id="text_10">
      <!-- −0.05224 -->
      <defs>
       <path d="M 10.796875 72.90625 
L 49.515625 72.90625 
L 49.515625 64.59375 
L 19.828125 64.59375 
L 19.828125 46.734375 
Q 21.96875 47.46875 24.109375 47.828125 
Q 26.265625 48.1875 28.421875 48.1875 
Q 40.625 48.1875 47.75 41.5 
Q 54.890625 34.8125 54.890625 23.390625 
Q 54.890625 11.625 47.5625 5.09375 
Q 40.234375 -1.421875 26.90625 -1.421875 
Q 22.3125 -1.421875 17.546875 -0.640625 
Q 12.796875 0.140625 7.71875 1.703125 
L 7.71875 11.625 
Q 12.109375 9.234375 16.796875 8.0625 
Q 21.484375 6.890625 26.703125 6.890625 
Q 35.15625 6.890625 40.078125 11.328125 
Q 45.015625 15.765625 45.015625 23.390625 
Q 45.015625 31 40.078125 35.4375 
Q 35.15625 39.890625 26.703125 39.890625 
Q 22.75 39.890625 18.8125 39.015625 
Q 14.890625 38.140625 10.796875 36.28125 
z
" id="DejaVuSans-35"/>
      </defs>
      <g transform="translate(168.267188 899.316198)scale(0.1 -0.1)">
       <use xlink:href="#DejaVuSans-2212"/>
       <use x="83.789062" xlink:href="#DejaVuSans-30"/>
       <use x="147.412109" xlink:href="#DejaVuSans-2e"/>
       <use x="179.199219" xlink:href="#DejaVuSans-30"/>
       <use x="242.822266" xlink:href="#DejaVuSans-35"/>
       <use x="306.445312" xlink:href="#DejaVuSans-32"/>
       <use x="370.068359" xlink:href="#DejaVuSans-32"/>
       <use x="433.691406" xlink:href="#DejaVuSans-34"/>
      </g>
     </g>
    </g>
    <g id="ytick_5">
     <g id="line2d_21">
      <path clip-path="url(#p4b31069594)" d="M 225 766.822638 
L 1620 766.822638 
" style="fill:none;stroke:#b0b0b0;stroke-linecap:square;stroke-width:0.8;"/>
     </g>
     <g id="line2d_22">
      <g>
       <use style="stroke:#000000;stroke-width:0.8;" x="225" xlink:href="#m9b2156c0d9" y="766.822638"/>
      </g>
     </g>
     <g id="text_11">
      <!-- −0.04224 -->
      <g transform="translate(168.267188 770.621857)scale(0.1 -0.1)">
       <use xlink:href="#DejaVuSans-2212"/>
       <use x="83.789062" xlink:href="#DejaVuSans-30"/>
       <use x="147.412109" xlink:href="#DejaVuSans-2e"/>
       <use x="179.199219" xlink:href="#DejaVuSans-30"/>
       <use x="242.822266" xlink:href="#DejaVuSans-34"/>
       <use x="306.445312" xlink:href="#DejaVuSans-32"/>
       <use x="370.068359" xlink:href="#DejaVuSans-32"/>
       <use x="433.691406" xlink:href="#DejaVuSans-34"/>
      </g>
     </g>
    </g>
    <g id="ytick_6">
     <g id="line2d_23">
      <path clip-path="url(#p4b31069594)" d="M 225 638.128298 
L 1620 638.128298 
" style="fill:none;stroke:#b0b0b0;stroke-linecap:square;stroke-width:0.8;"/>
     </g>
     <g id="line2d_24">
      <g>
       <use style="stroke:#000000;stroke-width:0.8;" x="225" xlink:href="#m9b2156c0d9" y="638.128298"/>
      </g>
     </g>
     <g id="text_12">
      <!-- −0.03224 -->
      <defs>
       <path d="M 40.578125 39.3125 
Q 47.65625 37.796875 51.625 33 
Q 55.609375 28.21875 55.609375 21.1875 
Q 55.609375 10.40625 48.1875 4.484375 
Q 40.765625 -1.421875 27.09375 -1.421875 
Q 22.515625 -1.421875 17.65625 -0.515625 
Q 12.796875 0.390625 7.625 2.203125 
L 7.625 11.71875 
Q 11.71875 9.328125 16.59375 8.109375 
Q 21.484375 6.890625 26.8125 6.890625 
Q 36.078125 6.890625 40.9375 10.546875 
Q 45.796875 14.203125 45.796875 21.1875 
Q 45.796875 27.640625 41.28125 31.265625 
Q 36.765625 34.90625 28.71875 34.90625 
L 20.21875 34.90625 
L 20.21875 43.015625 
L 29.109375 43.015625 
Q 36.375 43.015625 40.234375 45.921875 
Q 44.09375 48.828125 44.09375 54.296875 
Q 44.09375 59.90625 40.109375 62.90625 
Q 36.140625 65.921875 28.71875 65.921875 
Q 24.65625 65.921875 20.015625 65.03125 
Q 15.375 64.15625 9.8125 62.3125 
L 9.8125 71.09375 
Q 15.4375 72.65625 20.34375 73.4375 
Q 25.25 74.21875 29.59375 74.21875 
Q 40.828125 74.21875 47.359375 69.109375 
Q 53.90625 64.015625 53.90625 55.328125 
Q 53.90625 49.265625 50.4375 45.09375 
Q 46.96875 40.921875 40.578125 39.3125 
z
" id="DejaVuSans-33"/>
      </defs>
      <g transform="translate(168.267188 641.927517)scale(0.1 -0.1)">
       <use xlink:href="#DejaVuSans-2212"/>
       <use x="83.789062" xlink:href="#DejaVuSans-30"/>
       <use x="147.412109" xlink:href="#DejaVuSans-2e"/>
       <use x="179.199219" xlink:href="#DejaVuSans-30"/>
       <use x="242.822266" xlink:href="#DejaVuSans-33"/>
       <use x="306.445312" xlink:href="#DejaVuSans-32"/>
       <use x="370.068359" xlink:href="#DejaVuSans-32"/>
       <use x="433.691406" xlink:href="#DejaVuSans-34"/>
      </g>
     </g>
    </g>
    <g id="ytick_7">
     <g id="line2d_25">
      <path clip-path="url(#p4b31069594)" d="M 225 509.433958 
L 1620 509.433958 
" style="fill:none;stroke:#b0b0b0;stroke-linecap:square;stroke-width:0.8;"/>
     </g>
     <g id="line2d_26">
      <g>
       <use style="stroke:#000000;stroke-width:0.8;" x="225" xlink:href="#m9b2156c0d9" y="509.433958"/>
      </g>
     </g>
     <g id="text_13">
      <!-- −0.02224 -->
      <g transform="translate(168.267188 513.233176)scale(0.1 -0.1)">
       <use xlink:href="#DejaVuSans-2212"/>
       <use x="83.789062" xlink:href="#DejaVuSans-30"/>
       <use x="147.412109" xlink:href="#DejaVuSans-2e"/>
       <use x="179.199219" xlink:href="#DejaVuSans-30"/>
       <use x="242.822266" xlink:href="#DejaVuSans-32"/>
       <use x="306.445312" xlink:href="#DejaVuSans-32"/>
       <use x="370.068359" xlink:href="#DejaVuSans-32"/>
       <use x="433.691406" xlink:href="#DejaVuSans-34"/>
      </g>
     </g>
    </g>
    <g id="ytick_8">
     <g id="line2d_27">
      <path clip-path="url(#p4b31069594)" d="M 225 380.739617 
L 1620 380.739617 
" style="fill:none;stroke:#b0b0b0;stroke-linecap:square;stroke-width:0.8;"/>
     </g>
     <g id="line2d_28">
      <g>
       <use style="stroke:#000000;stroke-width:0.8;" x="225" xlink:href="#m9b2156c0d9" y="380.739617"/>
      </g>
     </g>
     <g id="text_14">
      <!-- −0.01224 -->
      <g transform="translate(168.267188 384.538836)scale(0.1 -0.1)">
       <use xlink:href="#DejaVuSans-2212"/>
       <use x="83.789062" xlink:href="#DejaVuSans-30"/>
       <use x="147.412109" xlink:href="#DejaVuSans-2e"/>
       <use x="179.199219" xlink:href="#DejaVuSans-30"/>
       <use x="242.822266" xlink:href="#DejaVuSans-31"/>
       <use x="306.445312" xlink:href="#DejaVuSans-32"/>
       <use x="370.068359" xlink:href="#DejaVuSans-32"/>
       <use x="433.691406" xlink:href="#DejaVuSans-34"/>
      </g>
     </g>
    </g>
    <g id="ytick_9">
     <g id="line2d_29">
      <path clip-path="url(#p4b31069594)" d="M 225 252.045277 
L 1620 252.045277 
" style="fill:none;stroke:#b0b0b0;stroke-linecap:square;stroke-width:0.8;"/>
     </g>
     <g id="line2d_30">
      <g>
       <use style="stroke:#000000;stroke-width:0.8;" x="225" xlink:href="#m9b2156c0d9" y="252.045277"/>
      </g>
     </g>
     <g id="text_15">
      <!-- −0.00224 -->
      <g transform="translate(168.267188 255.844496)scale(0.1 -0.1)">
       <use xlink:href="#DejaVuSans-2212"/>
       <use x="83.789062" xlink:href="#DejaVuSans-30"/>
       <use x="147.412109" xlink:href="#DejaVuSans-2e"/>
       <use x="179.199219" xlink:href="#DejaVuSans-30"/>
       <use x="242.822266" xlink:href="#DejaVuSans-30"/>
       <use x="306.445312" xlink:href="#DejaVuSans-32"/>
       <use x="370.068359" xlink:href="#DejaVuSans-32"/>
       <use x="433.691406" xlink:href="#DejaVuSans-34"/>
      </g>
     </g>
    </g>
   </g>
   <g id="patch_3">
    <path clip-path="url(#p4b31069594)" d="M 288.409091 1281.6 
L 1557.820959 1281.6 
L 1557.820959 172.8 
L 288.409091 172.8 
z
" style="opacity:0.3;"/>
   </g>
   <g id="line2d_31">
    <path clip-path="url(#p4b31069594)" d="M 288.409091 899.794793 
L 289.639141 899.794793 
L 290.869191 1004.69779 
L 292.099242 1004.69779 
L 293.329292 867.446434 
L 294.559342 867.446434 
L 295.789392 978.680073 
L 297.019443 978.680073 
L 298.249493 951.895515 
L 299.479543 1017.923483 
L 300.709594 1017.923483 
L 301.939644 926.828901 
L 303.169694 926.828901 
L 304.399744 966.968271 
L 305.629795 966.968271 
L 306.859845 956.763844 
L 308.089895 956.763844 
L 309.319945 972.048303 
L 310.549996 1052.790283 
L 311.780046 1052.790283 
L 313.010096 1006.721529 
L 314.240146 1006.721529 
L 315.470197 1039.576098 
L 316.700247 1039.576098 
L 317.930297 1083.012312 
L 319.160347 1083.012312 
L 320.390398 1051.627148 
L 321.620448 1078.306358 
L 322.850498 1078.306358 
L 324.080548 1066.340228 
L 325.310599 1066.340228 
L 326.540649 1020.754599 
L 327.770699 1020.754599 
L 329.000749 980.264607 
L 330.2308 980.264607 
L 331.46085 1000.263641 
L 332.6909 1000.263641 
L 333.920951 987.378527 
L 335.151001 987.378527 
L 336.381051 944.5282 
L 337.611101 1008.879622 
L 338.841152 1008.879622 
L 340.071202 968.569949 
L 341.301252 968.569949 
L 342.531302 938.753093 
L 343.761353 938.753093 
L 344.991403 949.38171 
L 346.221453 949.38171 
L 347.451503 1042.109781 
L 348.681554 970.326933 
L 349.911604 970.326933 
L 351.141654 985.465286 
L 352.371704 985.465286 
L 353.601755 944.000267 
L 354.831805 944.000267 
L 356.061855 1018.880924 
L 357.291905 1116.106929 
L 358.521956 1116.106929 
L 359.752006 1070.611511 
L 360.982056 1070.611511 
L 362.212107 1041.973749 
L 363.442157 1041.973749 
L 364.672207 1183.10707 
L 365.902257 1183.10707 
L 367.132308 1095.33332 
L 368.362358 1087.914027 
L 369.592408 1087.914027 
L 370.822458 1098.279762 
L 372.052509 1098.279762 
L 373.282559 1117.767883 
L 374.512609 1117.767883 
L 375.742659 1004.14811 
L 376.97271 1004.14811 
L 378.20276 1055.059192 
L 379.43281 1045.108139 
L 380.66286 1045.108139 
L 381.892911 1118.626392 
L 383.122961 1118.626392 
L 384.353011 1231.2 
L 385.583061 1231.2 
L 386.813112 1194.629462 
L 388.043162 1194.629462 
L 389.273212 1055.11758 
L 390.503262 1137.925589 
L 391.733313 1137.925589 
L 392.963363 1207.473307 
L 394.193413 1207.473307 
L 395.423464 1110.46682 
L 396.653514 1110.46682 
L 397.883564 1171.099211 
L 399.113614 1027.066104 
L 400.343665 1027.066104 
L 401.573715 1050.415866 
L 402.803765 1050.415866 
L 404.033815 1052.748355 
L 405.263866 1052.748355 
L 406.493916 1047.515354 
L 407.723966 1047.515354 
L 408.954016 1018.084179 
L 410.184067 975.170521 
L 411.414117 975.170521 
L 412.644167 1076.202236 
L 413.874217 1076.202236 
L 415.104268 950.779158 
L 416.334318 950.779158 
L 417.564368 999.422608 
L 418.794418 1015.887543 
L 420.024469 1015.887543 
L 421.254519 981.278002 
L 422.484569 981.278002 
L 423.71462 946.997984 
L 424.94467 946.997984 
L 426.17472 926.558869 
L 427.40477 926.558869 
L 428.634821 1004.219247 
L 429.864871 1004.219247 
L 431.094921 1061.55592 
L 432.324971 1101.969553 
L 433.555022 1101.969553 
L 434.785072 1085.637723 
L 436.015122 1085.637723 
L 437.245172 1043.08967 
L 438.475223 1043.08967 
L 439.705273 1055.847678 
L 440.935323 1019.382593 
L 442.165373 1019.382593 
L 443.395424 1019.89716 
L 444.625474 1019.89716 
L 445.855524 1042.313431 
L 447.085574 1042.313431 
L 448.315625 1028.489365 
L 449.545675 1059.070727 
L 450.775725 1059.070727 
L 452.005776 1080.350529 
L 453.235826 1080.350529 
L 454.465876 1060.195601 
L 455.695926 1060.195601 
L 456.925977 953.180949 
L 458.156027 953.180949 
L 459.386077 1128.160183 
L 460.616127 1128.160183 
L 461.846178 1024.470108 
L 463.076228 1024.470108 
L 464.306278 1050.107852 
L 465.536328 1040.438369 
L 466.766379 1040.438369 
L 467.996429 1014.766175 
L 469.226479 1014.766175 
L 470.456529 1026.807207 
L 471.68658 1026.807207 
L 472.91663 1012.679044 
L 474.14668 1012.679044 
L 475.37673 1115.077858 
L 476.606781 1026.413781 
L 477.836831 1026.413781 
L 479.066881 927.766823 
L 480.296931 927.766823 
L 481.526982 967.944705 
L 482.757032 967.944705 
L 483.987082 1067.805136 
L 485.217133 1091.801372 
L 486.447183 1091.801372 
L 487.677233 906.319542 
L 488.907283 906.319542 
L 490.137334 989.595661 
L 491.367384 989.595661 
L 492.597434 1070.447942 
L 493.827484 1134.016634 
L 495.057535 1134.016634 
L 496.287585 1024.427228 
L 497.517635 1024.427228 
L 498.747685 1042.897935 
L 499.977736 1042.897935 
L 501.207786 940.104352 
L 502.437836 940.104352 
L 503.667886 1016.715362 
L 504.897937 1127.669958 
L 506.127987 1127.669958 
L 507.358037 978.088055 
L 508.588087 978.088055 
L 509.818138 957.651784 
L 511.048188 957.651784 
L 512.278238 1001.313159 
L 513.508289 1051.788573 
L 514.738339 1051.788573 
L 515.968389 968.165412 
L 517.198439 936.634555 
L 518.42849 936.634555 
L 519.65854 983.731106 
L 520.88859 983.731106 
L 522.11864 1051.003062 
L 523.348691 1051.003062 
L 524.578741 976.734836 
L 525.808791 976.734836 
L 527.038841 981.514782 
L 528.268892 981.514782 
L 529.498942 1029.981899 
L 530.728992 975.284212 
L 531.959042 975.284212 
L 533.189093 1001.067482 
L 534.419143 1001.067482 
L 535.649193 1015.324855 
L 536.879243 1015.324855 
L 538.109294 1016.060114 
L 539.339344 1016.060114 
L 540.569394 993.728287 
L 541.799444 967.201371 
L 543.029495 967.201371 
L 544.259545 1036.444763 
L 545.489595 1036.444763 
L 546.719646 977.334187 
L 547.949696 977.334187 
L 549.179746 816.180911 
L 550.409796 816.180911 
L 551.639847 841.308887 
L 552.869897 841.308887 
L 554.099947 773.548554 
L 555.329997 773.548554 
L 556.560048 840.524006 
L 557.790098 840.524006 
L 559.020148 869.601744 
L 560.250198 920.979464 
L 561.480249 920.979464 
L 562.710299 859.475409 
L 563.940349 859.475409 
L 565.170399 837.393252 
L 566.40045 837.393252 
L 567.6305 900.082126 
L 568.86055 900.082126 
L 570.0906 885.425153 
L 571.320651 885.425153 
L 572.550701 1055.382691 
L 573.780751 900.225117 
L 575.010802 900.225117 
L 576.240852 978.947443 
L 577.470902 978.947443 
L 578.700952 901.341286 
L 579.931003 901.341286 
L 581.161053 916.833293 
L 582.391103 916.833293 
L 583.621153 992.469824 
L 584.851204 992.469824 
L 586.081254 961.16662 
L 587.311304 1005.937271 
L 588.541354 1005.937271 
L 589.771405 987.761539 
L 591.001455 987.761539 
L 592.231505 1058.403508 
L 593.461555 1058.403508 
L 594.691606 1004.137595 
L 595.921656 1004.137595 
L 597.151706 1043.81259 
L 598.381756 972.601527 
L 599.611807 972.601527 
L 600.841857 1078.172976 
L 602.071907 1078.172976 
L 603.301957 1078.784051 
L 604.532008 1078.784051 
L 605.762058 1082.716372 
L 606.992108 1082.716372 
L 608.222159 1074.938111 
L 609.452209 1088.488629 
L 610.682259 1088.488629 
L 611.912309 1118.030694 
L 613.14236 1118.030694 
L 614.37241 1140.241595 
L 615.60246 1140.241595 
L 616.83251 1039.71576 
L 618.062561 1097.034791 
L 619.292611 1097.034791 
L 620.522661 1111.912931 
L 621.752711 1111.912931 
L 622.982762 1017.398538 
L 624.212812 1016.088956 
L 625.442862 1016.088956 
L 626.672912 1023.626666 
L 627.902963 1023.626666 
L 629.133013 990.349172 
L 630.363063 990.349172 
L 631.593113 980.103426 
L 632.823164 980.103426 
L 634.053214 1007.759635 
L 635.283264 1039.970858 
L 636.513315 1039.970858 
L 637.743365 1055.283028 
L 638.973415 1055.283028 
L 640.203465 976.478637 
L 641.433516 976.478637 
L 642.663566 998.733456 
L 643.893616 998.733456 
L 645.123666 1066.446624 
L 646.353717 981.839245 
L 647.583767 981.839245 
L 648.813817 907.078862 
L 650.043867 907.078862 
L 651.273918 999.981009 
L 652.503968 999.981009 
L 653.734018 919.242332 
L 654.964068 956.297572 
L 656.194119 956.297572 
L 657.424169 968.479216 
L 658.654219 968.479216 
L 659.884269 1059.115947 
L 661.11432 1059.115947 
L 662.34437 966.366788 
L 663.57442 1021.01681 
L 664.804471 1021.01681 
L 666.034521 967.639041 
L 667.264571 967.639041 
L 668.494621 900.769773 
L 669.724672 900.769773 
L 670.954722 952.299468 
L 672.184772 968.753331 
L 673.414822 968.753331 
L 674.644873 1046.268934 
L 675.874923 1046.268934 
L 677.104973 1021.190755 
L 678.335023 1021.190755 
L 679.565074 1067.818636 
L 680.795124 1067.818636 
L 682.025174 1044.715258 
L 683.255224 1044.715258 
L 684.485275 953.894066 
L 685.715325 953.894066 
L 686.945375 1023.476025 
L 688.175425 984.834615 
L 689.405476 984.834615 
L 690.635526 1061.506343 
L 691.865576 1061.506343 
L 693.095626 979.319337 
L 694.325677 979.319337 
L 695.555727 985.592838 
L 696.785777 985.592838 
L 698.015828 1030.173124 
L 699.245878 1030.173124 
L 700.475928 1015.557602 
L 701.705978 996.4415 
L 702.936029 996.4415 
L 704.166079 949.994083 
L 705.396129 949.994083 
L 706.626179 977.170341 
L 707.85623 977.170341 
L 709.08628 973.497601 
L 710.31633 973.497601 
L 711.54638 926.635623 
L 712.776431 1016.962757 
L 714.006481 1016.962757 
L 715.236531 969.94936 
L 716.466581 969.94936 
L 717.696632 956.19825 
L 718.926682 956.19825 
L 720.156732 1009.184521 
L 721.386782 1009.184521 
L 722.616833 1055.629085 
L 723.846883 1055.629085 
L 725.076933 945.636994 
L 726.306984 945.636994 
L 727.537034 1043.791929 
L 728.767084 1043.791929 
L 729.997134 1041.394581 
L 731.227185 1041.394581 
L 733.687285 951.703184 
L 734.917335 951.703184 
L 736.147386 995.200578 
L 737.377436 995.200578 
L 738.607486 942.187427 
L 739.837536 942.187427 
L 741.067587 1109.685704 
L 742.297637 1038.839858 
L 744.757737 1038.839858 
L 745.987788 1096.863372 
L 747.217838 1096.863372 
L 748.447888 1070.360216 
L 749.677938 1070.360216 
L 750.907989 1045.290839 
L 752.138039 1045.290839 
L 753.368089 1059.902779 
L 754.598139 1059.902779 
L 755.82819 1007.807045 
L 757.05824 1022.623658 
L 759.518341 1022.623658 
L 760.748391 987.9042 
L 761.978441 987.9042 
L 763.208491 1034.990766 
L 764.438542 1034.990766 
L 765.668592 1123.502571 
L 766.898642 1066.878012 
L 768.128692 1066.878012 
L 769.358743 1063.68507 
L 770.588793 1063.68507 
L 771.818843 1059.494374 
L 773.048893 1059.494374 
L 774.278944 1070.182812 
L 775.508994 1070.182812 
L 776.739044 1105.911992 
L 777.969094 1105.911992 
L 779.199145 1038.555873 
L 780.429195 1013.789542 
L 781.659245 1013.789542 
L 782.889295 873.468739 
L 784.119346 873.468739 
L 785.349396 963.094349 
L 786.579446 963.094349 
L 787.809497 945.486153 
L 789.039547 945.486153 
L 790.269597 1003.310373 
L 791.499647 1003.310373 
L 792.729698 930.775119 
L 793.959748 930.775119 
L 795.189798 842.069548 
L 796.419848 842.069548 
L 797.649899 909.535282 
L 798.879949 871.109301 
L 800.109999 871.109301 
L 801.340049 899.479777 
L 802.5701 899.479777 
L 803.80015 867.32658 
L 805.0302 867.32658 
L 806.26025 839.314264 
L 807.490301 839.314264 
L 808.720351 757.805888 
L 809.950401 757.805888 
L 811.180451 876.248358 
L 812.410502 876.248358 
L 813.640552 813.450728 
L 814.870602 813.450728 
L 816.100652 814.768639 
L 817.330703 814.768639 
L 818.560753 830.175084 
L 819.790803 798.024724 
L 821.020854 798.024724 
L 822.250904 859.762336 
L 823.480954 859.762336 
L 824.711004 836.814794 
L 825.941055 836.814794 
L 827.171105 813.929897 
L 828.401155 813.929897 
L 829.631205 807.238752 
L 830.861256 807.238752 
L 832.091306 867.546304 
L 833.321356 867.546304 
L 834.551406 953.546888 
L 835.781457 953.546888 
L 837.011507 966.737921 
L 838.241557 966.737921 
L 839.471607 1038.316563 
L 840.701658 1038.316563 
L 841.931708 1016.658832 
L 843.161758 1016.658832 
L 844.391808 1092.993621 
L 845.621859 1092.993621 
L 846.851909 1108.299911 
L 848.081959 1108.299911 
L 849.31201 1128.700889 
L 850.54206 1128.700889 
L 851.77211 1191.174322 
L 853.00216 1099.259672 
L 854.232211 1099.259672 
L 855.462261 1175.920698 
L 856.692311 1175.920698 
L 857.922361 1138.982513 
L 859.152412 1138.982513 
L 860.382462 1128.816432 
L 861.612512 1128.816432 
L 862.842562 1141.031752 
L 864.072613 1141.031752 
L 865.302663 1128.019676 
L 866.532713 1128.019676 
L 867.762763 1211.120558 
L 868.992814 1211.120558 
L 870.222864 1023.326889 
L 872.682964 1023.326889 
L 873.913015 1026.665084 
L 875.143065 1026.665084 
L 876.373115 1028.027201 
L 877.603166 964.211288 
L 878.833216 964.211288 
L 880.063266 961.911037 
L 881.293316 961.911037 
L 882.523367 969.542694 
L 883.753417 969.542694 
L 884.983467 919.069965 
L 886.213517 919.069965 
L 887.443568 1002.483634 
L 888.673618 913.629688 
L 889.903668 913.629688 
L 891.133718 987.705034 
L 892.363769 987.705034 
L 893.593819 933.671021 
L 894.823869 933.671021 
L 896.053919 910.150271 
L 897.28397 929.639483 
L 898.51402 929.639483 
L 899.74407 977.340535 
L 900.97412 977.340535 
L 902.204171 915.09573 
L 903.434221 915.09573 
L 904.664271 1002.369162 
L 905.894321 1002.369162 
L 907.124372 878.920857 
L 908.354422 975.606148 
L 909.584472 975.606148 
L 910.814523 937.286441 
L 912.044573 937.286441 
L 913.274623 914.474723 
L 914.504673 914.474723 
L 915.734724 984.656012 
L 916.964774 984.656012 
L 918.194824 973.877938 
L 919.424874 998.456583 
L 920.654925 998.456583 
L 921.884975 1017.033713 
L 923.115025 1017.033713 
L 924.345075 1038.538051 
L 925.575126 1038.538051 
L 926.805176 1008.25853 
L 928.035226 1008.25853 
L 929.265276 1172.744341 
L 930.495327 1172.744341 
L 931.725377 1129.907145 
L 932.955427 1129.907145 
L 934.185477 1052.601594 
L 935.415528 1052.601594 
L 936.645578 1093.127064 
L 937.875628 1093.127064 
L 939.105679 1097.181236 
L 940.335729 1097.181236 
L 941.565779 1045.995152 
L 942.795829 1045.995152 
L 944.02588 1079.248384 
L 945.25593 1079.248384 
L 946.48598 1065.376249 
L 947.71603 1065.376249 
L 948.946081 975.756761 
L 950.176131 1016.745853 
L 951.406181 1016.745853 
L 952.636231 1070.861463 
L 953.866282 1070.861463 
L 955.096332 1083.26391 
L 956.326382 1083.26391 
L 957.556432 1038.108699 
L 958.786483 1038.108699 
L 960.016533 1011.7316 
L 961.246583 973.715933 
L 962.476633 973.715933 
L 963.706684 948.229641 
L 966.166784 948.229641 
L 967.396834 940.443713 
L 968.626885 940.443713 
L 969.856935 1076.830193 
L 971.086985 1076.830193 
L 972.317036 979.684743 
L 973.547086 961.081582 
L 974.777136 961.081582 
L 976.007186 929.446943 
L 977.237237 929.446943 
L 978.467287 902.800931 
L 979.697337 902.800931 
L 980.927387 940.643083 
L 982.157438 940.643083 
L 983.387488 1014.473426 
L 984.617538 1014.473426 
L 985.847588 1019.641076 
L 987.077639 1019.641076 
L 988.307689 1003.488002 
L 989.537739 1005.750512 
L 990.767789 1005.750512 
L 991.99784 968.886166 
L 993.22789 968.886166 
L 994.45794 1008.587616 
L 995.68799 1008.587616 
L 996.918041 1001.139522 
L 998.148091 1001.139522 
L 999.378141 943.40552 
L 1000.608192 904.461057 
L 1001.838242 904.461057 
L 1003.068292 948.159325 
L 1004.298342 948.159325 
L 1005.528393 984.020781 
L 1006.758443 984.020781 
L 1007.988493 986.888782 
L 1009.218543 986.888782 
L 1010.448594 984.46031 
L 1014.138744 984.503039 
L 1015.368795 1065.734503 
L 1016.598845 1065.734503 
L 1017.828895 974.196948 
L 1019.058945 974.196948 
L 1020.288996 1024.030679 
L 1021.519046 1024.030679 
L 1022.749096 1029.349512 
L 1023.979146 1029.349512 
L 1025.209197 1026.762611 
L 1026.439247 1055.880374 
L 1027.669297 1055.880374 
L 1028.899348 1008.596079 
L 1030.129398 1008.596079 
L 1031.359448 1068.313398 
L 1032.589498 1068.313398 
L 1033.819549 979.864293 
L 1035.049599 979.864293 
L 1036.279649 1002.927449 
L 1037.509699 1060.143377 
L 1038.73975 1060.143377 
L 1039.9698 1099.032107 
L 1041.19985 1099.032107 
L 1042.4299 1085.307485 
L 1043.659951 1085.307485 
L 1044.890001 972.287574 
L 1046.120051 972.287574 
L 1047.350101 811.457424 
L 1048.580152 774.235735 
L 1049.810202 774.235735 
L 1051.040252 740.030748 
L 1052.270302 740.030748 
L 1053.500353 728.712958 
L 1054.730403 728.712958 
L 1055.960453 669.206955 
L 1057.190503 669.206955 
L 1058.420554 621.875344 
L 1059.650604 621.875344 
L 1060.880654 644.212754 
L 1062.110705 661.58377 
L 1063.340755 661.58377 
L 1064.570805 525.687876 
L 1067.030906 525.687876 
L 1068.260956 513.073453 
L 1069.491006 537.452637 
L 1070.721056 537.452637 
L 1071.951107 410.504119 
L 1073.181157 410.504119 
L 1074.411207 388.39791 
L 1075.641257 388.39791 
L 1076.871308 510.955896 
L 1078.101358 538.555415 
L 1079.331408 538.555415 
L 1080.561458 548.433467 
L 1081.791509 548.433467 
L 1083.021559 543.206638 
L 1084.251609 543.206638 
L 1085.481659 678.198773 
L 1086.71171 678.198773 
L 1087.94176 549.953482 
L 1089.17181 549.953482 
L 1090.401861 605.007307 
L 1091.631911 621.856882 
L 1092.861961 621.856882 
L 1094.092011 612.664531 
L 1095.322062 612.664531 
L 1096.552112 551.195137 
L 1097.782162 551.195137 
L 1099.012212 574.162173 
L 1100.242263 574.162173 
L 1101.472313 647.684794 
L 1102.702363 549.916536 
L 1103.932413 549.916536 
L 1105.162464 590.444739 
L 1106.392514 590.444739 
L 1107.622564 590.983828 
L 1108.852614 590.983828 
L 1110.082665 499.243373 
L 1111.312715 499.243373 
L 1112.542765 577.55328 
L 1113.772815 577.55328 
L 1115.002866 487.213281 
L 1116.232916 487.213281 
L 1117.462966 536.064304 
L 1118.693016 524.728134 
L 1119.923067 524.728134 
L 1121.153117 552.43161 
L 1122.383167 552.43161 
L 1123.613218 519.540656 
L 1124.843268 519.540656 
L 1126.073318 459.380062 
L 1127.303368 459.380062 
L 1128.533419 556.727108 
L 1129.763469 483.163638 
L 1130.993519 483.163638 
L 1132.223569 510.497749 
L 1133.45362 510.497749 
L 1134.68367 428.209003 
L 1135.91372 428.209003 
L 1137.14377 431.427234 
L 1138.373821 435.870434 
L 1139.603871 435.870434 
L 1140.833921 491.278045 
L 1142.063971 491.278045 
L 1143.294022 466.825091 
L 1144.524072 466.825091 
L 1145.754122 324.954035 
L 1146.984172 324.954035 
L 1148.214223 359.801281 
L 1149.444273 363.277043 
L 1150.674323 363.277043 
L 1151.904374 392.427747 
L 1153.134424 392.427747 
L 1154.364474 409.179785 
L 1155.594524 409.179785 
L 1156.824575 399.539418 
L 1158.054625 399.539418 
L 1159.284675 443.929749 
L 1160.514725 443.929749 
L 1161.744776 489.77296 
L 1162.974826 401.576171 
L 1164.204876 401.576171 
L 1165.434926 421.189923 
L 1166.664977 421.189923 
L 1167.895027 534.101125 
L 1169.125077 534.101125 
L 1170.355127 510.674086 
L 1171.585178 510.674086 
L 1172.815228 554.560161 
L 1174.045278 554.560161 
L 1175.275328 557.54124 
L 1176.505379 557.54124 
L 1177.735429 524.325476 
L 1178.965479 524.325476 
L 1180.195529 588.82499 
L 1181.42558 588.82499 
L 1182.65563 530.080975 
L 1183.88568 530.080975 
L 1185.115731 514.215715 
L 1186.345781 514.215715 
L 1187.575831 538.931603 
L 1188.805881 620.735115 
L 1190.035932 620.735115 
L 1191.265982 562.723644 
L 1192.496032 562.723644 
L 1193.726082 578.737583 
L 1194.956133 578.737583 
L 1196.186183 626.132291 
L 1197.416233 522.92096 
L 1198.646283 522.92096 
L 1199.876334 634.953486 
L 1201.106384 634.953486 
L 1202.336434 588.00652 
L 1203.566484 588.00652 
L 1204.796535 579.691328 
L 1206.026585 584.534169 
L 1207.256635 584.534169 
L 1208.486685 507.854553 
L 1210.946786 507.854553 
L 1212.176836 692.995458 
L 1213.406887 692.995458 
L 1214.636937 531.922306 
L 1215.866987 526.236373 
L 1217.097037 526.236373 
L 1218.327088 621.914831 
L 1219.557138 621.914831 
L 1220.787188 503.603076 
L 1222.017238 503.603076 
L 1223.247289 522.700253 
L 1224.477339 522.700253 
L 1225.707389 602.374356 
L 1228.16749 602.374356 
L 1229.39754 542.88556 
L 1230.62759 542.88556 
L 1231.85764 532.118996 
L 1233.087691 572.100847 
L 1234.317741 572.100847 
L 1235.547791 469.364552 
L 1236.777841 469.364552 
L 1238.007892 476.598883 
L 1239.237942 476.598883 
L 1240.467992 507.647606 
L 1241.698043 507.647606 
L 1242.928093 444.175014 
L 1244.158143 444.175014 
L 1245.388193 442.058533 
L 1246.618244 442.058533 
L 1247.848294 586.435615 
L 1249.078344 586.435615 
L 1250.308394 539.447439 
L 1251.538445 539.447439 
L 1252.768495 511.625576 
L 1253.998545 511.625576 
L 1255.228595 491.432764 
L 1256.458646 491.432764 
L 1257.688696 501.026952 
L 1258.918746 501.026952 
L 1260.148796 459.629053 
L 1261.378847 459.629053 
L 1262.608897 474.15187 
L 1263.838947 474.15187 
L 1265.068997 463.575405 
L 1266.299048 463.575405 
L 1267.529098 424.482616 
L 1268.759148 424.482616 
L 1269.989198 528.708552 
L 1271.219249 482.211393 
L 1272.449299 482.211393 
L 1273.679349 428.395049 
L 1277.3695 428.395049 
L 1278.59955 447.749989 
L 1279.829601 459.94147 
L 1281.059651 459.94147 
L 1282.289701 471.958194 
L 1284.749802 471.958194 
L 1285.979852 431.342748 
L 1287.209902 431.342748 
L 1288.439952 473.324026 
L 1289.670003 473.324026 
L 1290.900053 569.183236 
L 1292.130103 569.183236 
L 1293.360153 525.239433 
L 1294.590204 525.239433 
L 1295.820254 560.231845 
L 1297.050304 591.272315 
L 1298.280354 591.272315 
L 1299.510405 679.332696 
L 1300.740455 679.332696 
L 1301.970505 598.339366 
L 1303.200556 598.339366 
L 1304.430606 648.06432 
L 1305.660656 648.06432 
L 1306.890706 628.293115 
L 1308.120757 628.293115 
L 1309.350807 695.837088 
L 1311.810907 695.837088 
L 1313.040958 622.784389 
L 1314.271008 782.700034 
L 1315.501058 782.700034 
L 1316.731108 705.892074 
L 1317.961159 705.892074 
L 1319.191209 700.139245 
L 1320.421259 700.139245 
L 1321.651309 653.990122 
L 1322.88136 627.699707 
L 1324.11141 627.699707 
L 1325.34146 686.563684 
L 1326.57151 686.563684 
L 1327.801561 749.519959 
L 1329.031611 749.519959 
L 1330.261661 634.390982 
L 1331.491711 634.390982 
L 1332.721762 628.103965 
L 1333.951812 628.103965 
L 1335.181862 630.314694 
L 1336.411913 596.895389 
L 1337.641963 596.895389 
L 1338.872013 586.857764 
L 1340.102063 586.857764 
L 1341.332114 651.224314 
L 1342.562164 651.224314 
L 1343.792214 703.488044 
L 1345.022264 703.488044 
L 1346.252315 655.721761 
L 1347.482365 535.794966 
L 1348.712415 535.794966 
L 1349.942465 447.282124 
L 1351.172516 447.282124 
L 1352.402566 546.519719 
L 1353.632616 546.519719 
L 1354.862666 624.431946 
L 1356.092717 561.56483 
L 1357.322767 561.56483 
L 1358.552817 513.113381 
L 1359.782867 513.113381 
L 1361.012918 428.776843 
L 1362.242968 428.776843 
L 1363.473018 431.563273 
L 1364.703069 431.563273 
L 1365.933119 547.574354 
L 1367.163169 547.574354 
L 1368.393219 435.694352 
L 1369.62327 497.181367 
L 1370.85332 497.181367 
L 1372.08337 542.576015 
L 1373.31342 542.576015 
L 1374.543471 530.505664 
L 1375.773521 530.505664 
L 1377.003571 479.151328 
L 1378.233621 465.047395 
L 1379.463672 465.047395 
L 1380.693722 516.10382 
L 1381.923772 516.10382 
L 1383.153822 535.574246 
L 1384.383873 535.574246 
L 1385.613923 532.111686 
L 1386.843973 532.111686 
L 1388.074023 568.974837 
L 1389.304074 686.631942 
L 1390.534124 686.631942 
L 1391.764174 521.387608 
L 1392.994224 521.387608 
L 1394.224275 621.763526 
L 1395.454325 621.763526 
L 1396.684375 582.293837 
L 1397.914426 582.293837 
L 1399.144476 577.786604 
L 1400.374526 577.786604 
L 1401.604576 561.185016 
L 1402.834627 697.932058 
L 1404.064677 697.932058 
L 1405.294727 619.637456 
L 1406.524777 619.637456 
L 1407.754828 646.691335 
L 1408.984878 646.691335 
L 1410.214928 594.673255 
L 1411.444978 627.636301 
L 1412.675029 627.636301 
L 1413.905079 664.286521 
L 1415.135129 664.286521 
L 1416.365179 530.864564 
L 1417.59523 530.864564 
L 1418.82528 529.698398 
L 1420.05533 710.714927 
L 1421.28538 710.714927 
L 1422.515431 642.355445 
L 1423.745481 642.355445 
L 1424.975531 567.544777 
L 1426.205582 567.544777 
L 1427.435632 503.806474 
L 1428.665682 503.806474 
L 1429.895732 639.647996 
L 1431.125783 555.824331 
L 1432.355833 555.824331 
L 1433.585883 493.988278 
L 1434.815933 493.988278 
L 1436.045984 649.478818 
L 1437.276034 649.478818 
L 1438.506084 433.879101 
L 1439.736134 433.879101 
L 1440.966185 512.456416 
L 1442.196235 454.264496 
L 1443.426285 454.264496 
L 1444.656335 520.862632 
L 1445.886386 520.862632 
L 1447.116436 383.051797 
L 1448.346486 383.051797 
L 1449.576536 401.952827 
L 1450.806587 465.762316 
L 1452.036637 480.574842 
L 1453.266687 480.574842 
L 1454.496738 487.975476 
L 1455.726788 487.975476 
L 1456.956838 500.568599 
L 1458.186888 500.568599 
L 1459.416939 567.689084 
L 1460.646989 567.689084 
L 1461.877039 496.073333 
L 1463.107089 496.073333 
L 1464.33714 420.844737 
L 1465.56719 469.600186 
L 1466.79724 469.600186 
L 1468.02729 537.452542 
L 1469.257341 537.452542 
L 1470.487391 392.572942 
L 1471.717441 392.572942 
L 1472.947491 359.569839 
L 1474.177542 385.590848 
L 1475.407592 385.590848 
L 1476.637642 443.704713 
L 1477.867692 443.704713 
L 1479.097743 578.103356 
L 1480.327793 578.103356 
L 1481.557843 256.085377 
L 1482.787893 363.423449 
L 1484.017944 374.113385 
L 1485.247994 374.113385 
L 1486.478044 392.405545 
L 1487.708095 392.405545 
L 1488.938145 411.56796 
L 1490.168195 411.56796 
L 1491.398245 408.635069 
L 1492.628296 369.263988 
L 1493.858346 369.263988 
L 1495.088396 370.173572 
L 1496.318446 370.173572 
L 1497.548497 427.541306 
L 1498.778547 427.541306 
L 1500.008597 368.856444 
L 1502.468698 368.856444 
L 1503.698748 372.638411 
L 1504.928798 317.81586 
L 1506.158848 455.84895 
L 1507.388899 455.84895 
L 1508.618949 391.396053 
L 1509.848999 375.678594 
L 1511.079049 375.678594 
L 1512.3091 440.220603 
L 1513.53915 440.220603 
L 1514.7692 370.282577 
L 1515.999251 370.282577 
L 1517.229301 507.868455 
L 1518.459351 507.868455 
L 1519.689401 470.476889 
L 1520.919452 470.476889 
L 1522.149502 492.717715 
L 1523.379552 492.717715 
L 1525.839653 451.653482 
L 1527.069703 451.653482 
L 1528.299753 509.159578 
L 1529.529803 509.159578 
L 1530.759854 463.363212 
L 1531.989904 463.363212 
L 1533.219954 540.416804 
L 1534.450004 540.416804 
L 1535.680055 573.035554 
L 1536.910105 575.479285 
L 1538.140155 575.479285 
L 1539.370205 587.867223 
L 1540.600256 587.867223 
L 1541.830306 489.876852 
L 1543.060356 489.876852 
L 1544.290406 623.92821 
L 1545.520457 623.92821 
L 1546.750507 556.57116 
L 1547.980557 556.57116 
L 1549.210608 545.870187 
L 1550.440658 545.870187 
L 1551.670708 695.920925 
L 1552.900758 616.113425 
L 1554.130809 616.113425 
L 1555.360859 645.741621 
L 1556.590909 645.741621 
L 1556.590909 645.741621 
" style="fill:none;stroke:#000000;stroke-linecap:square;stroke-width:1.5;"/>
   </g>
   <g id="line2d_32">
    <path clip-path="url(#p4b31069594)" d="M 288.409091 223.2 
L 1556.590909 223.2 
L 1556.590909 223.2 
" style="fill:none;stroke:#ff0000;stroke-linecap:square;stroke-width:1.5;"/>
   </g>
   <g id="patch_4">
    <path d="M 225 1281.6 
L 225 172.8 
" style="fill:none;stroke:#000000;stroke-linecap:square;stroke-linejoin:miter;stroke-width:0.8;"/>
   </g>
   <g id="patch_5">
    <path d="M 1620 1281.6 
L 1620 172.8 
" style="fill:none;stroke:#000000;stroke-linecap:square;stroke-linejoin:miter;stroke-width:0.8;"/>
   </g>
   <g id="patch_6">
    <path d="M 225 1281.6 
L 1620 1281.6 
" style="fill:none;stroke:#000000;stroke-linecap:square;stroke-linejoin:miter;stroke-width:0.8;"/>
   </g>
   <g id="patch_7">
    <path d="M 225 172.8 
L 1620 172.8 
" style="fill:none;stroke:#000000;stroke-linecap:square;stroke-linejoin:miter;stroke-width:0.8;"/>
   </g>
   <g id="patch_8">
    <path d="M 755.798059 50.183232 
Q 749.061521 543.510232 742.340249 1035.719301 
" style="fill:none;stroke:#000000;stroke-linecap:round;"/>
    <path d="M 744.394679 1031.746982 
L 742.340249 1035.719301 
L 740.395052 1031.692366 
" style="fill:none;stroke:#000000;stroke-linecap:round;"/>
   </g>
   <g id="text_16">
    <!-- Close -->
    <defs>
     <path d="M 64.40625 67.28125 
L 64.40625 56.890625 
Q 59.421875 61.53125 53.78125 63.8125 
Q 48.140625 66.109375 41.796875 66.109375 
Q 29.296875 66.109375 22.65625 58.46875 
Q 16.015625 50.828125 16.015625 36.375 
Q 16.015625 21.96875 22.65625 14.328125 
Q 29.296875 6.6875 41.796875 6.6875 
Q 48.140625 6.6875 53.78125 8.984375 
Q 59.421875 11.28125 64.40625 15.921875 
L 64.40625 5.609375 
Q 59.234375 2.09375 53.4375 0.328125 
Q 47.65625 -1.421875 41.21875 -1.421875 
Q 24.65625 -1.421875 15.125 8.703125 
Q 5.609375 18.84375 5.609375 36.375 
Q 5.609375 53.953125 15.125 64.078125 
Q 24.65625 74.21875 41.21875 74.21875 
Q 47.75 74.21875 53.53125 72.484375 
Q 59.328125 70.75 64.40625 67.28125 
z
" id="DejaVuSans-43"/>
     <path d="M 9.421875 75.984375 
L 18.40625 75.984375 
L 18.40625 0 
L 9.421875 0 
z
" id="DejaVuSans-6c"/>
     <path d="M 30.609375 48.390625 
Q 23.390625 48.390625 19.1875 42.75 
Q 14.984375 37.109375 14.984375 27.296875 
Q 14.984375 17.484375 19.15625 11.84375 
Q 23.34375 6.203125 30.609375 6.203125 
Q 37.796875 6.203125 41.984375 11.859375 
Q 46.1875 17.53125 46.1875 27.296875 
Q 46.1875 37.015625 41.984375 42.703125 
Q 37.796875 48.390625 30.609375 48.390625 
z
M 30.609375 56 
Q 42.328125 56 49.015625 48.375 
Q 55.71875 40.765625 55.71875 27.296875 
Q 55.71875 13.875 49.015625 6.21875 
Q 42.328125 -1.421875 30.609375 -1.421875 
Q 18.84375 -1.421875 12.171875 6.21875 
Q 5.515625 13.875 5.515625 27.296875 
Q 5.515625 40.765625 12.171875 48.375 
Q 18.84375 56 30.609375 56 
z
" id="DejaVuSans-6f"/>
     <path d="M 44.28125 53.078125 
L 44.28125 44.578125 
Q 40.484375 46.53125 36.375 47.5 
Q 32.28125 48.484375 27.875 48.484375 
Q 21.1875 48.484375 17.84375 46.4375 
Q 14.5 44.390625 14.5 40.28125 
Q 14.5 37.15625 16.890625 35.375 
Q 19.28125 33.59375 26.515625 31.984375 
L 29.59375 31.296875 
Q 39.15625 29.25 43.1875 25.515625 
Q 47.21875 21.78125 47.21875 15.09375 
Q 47.21875 7.46875 41.1875 3.015625 
Q 35.15625 -1.421875 24.609375 -1.421875 
Q 20.21875 -1.421875 15.453125 -0.5625 
Q 10.6875 0.296875 5.421875 2 
L 5.421875 11.28125 
Q 10.40625 8.6875 15.234375 7.390625 
Q 20.0625 6.109375 24.8125 6.109375 
Q 31.15625 6.109375 34.5625 8.28125 
Q 37.984375 10.453125 37.984375 14.40625 
Q 37.984375 18.0625 35.515625 20.015625 
Q 33.0625 21.96875 24.703125 23.78125 
L 21.578125 24.515625 
Q 13.234375 26.265625 9.515625 29.90625 
Q 5.8125 33.546875 5.8125 39.890625 
Q 5.8125 47.609375 11.28125 51.796875 
Q 16.75 56 26.8125 56 
Q 31.78125 56 36.171875 55.265625 
Q 40.578125 54.546875 44.28125 53.078125 
z
" id="DejaVuSans-73"/>
     <path d="M 56.203125 29.59375 
L 56.203125 25.203125 
L 14.890625 25.203125 
Q 15.484375 15.921875 20.484375 11.0625 
Q 25.484375 6.203125 34.421875 6.203125 
Q 39.59375 6.203125 44.453125 7.46875 
Q 49.3125 8.734375 54.109375 11.28125 
L 54.109375 2.78125 
Q 49.265625 0.734375 44.1875 -0.34375 
Q 39.109375 -1.421875 33.890625 -1.421875 
Q 20.796875 -1.421875 13.15625 6.1875 
Q 5.515625 13.8125 5.515625 26.8125 
Q 5.515625 40.234375 12.765625 48.109375 
Q 20.015625 56 32.328125 56 
Q 43.359375 56 49.78125 48.890625 
Q 56.203125 41.796875 56.203125 29.59375 
z
M 47.21875 32.234375 
Q 47.125 39.59375 43.09375 43.984375 
Q 39.0625 48.390625 32.421875 48.390625 
Q 24.90625 48.390625 20.390625 44.140625 
Q 15.875 39.890625 15.1875 32.171875 
z
" id="DejaVuSans-65"/>
    </defs>
    <g transform="translate(742.297637 44.10566)scale(0.1 -0.1)">
     <use xlink:href="#DejaVuSans-43"/>
     <use x="69.824219" xlink:href="#DejaVuSans-6c"/>
     <use x="97.607422" xlink:href="#DejaVuSans-6f"/>
     <use x="158.789062" xlink:href="#DejaVuSans-73"/>
     <use x="210.888672" xlink:href="#DejaVuSans-65"/>
    </g>
   </g>
   <g id="legend_1">
    <g id="patch_9">
     <path d="M 232 1276.6 
L 331.348437 1276.6 
Q 333.348437 1276.6 333.348437 1274.6 
L 333.348437 1231.565625 
Q 333.348437 1229.565625 331.348437 1229.565625 
L 232 1229.565625 
Q 230 1229.565625 230 1231.565625 
L 230 1274.6 
Q 230 1276.6 232 1276.6 
z
" style="fill:#ffffff;opacity:0.8;stroke:#cccccc;stroke-linejoin:miter;"/>
    </g>
    <g id="line2d_33">
     <path d="M 234 1237.664062 
L 254 1237.664062 
" style="fill:none;stroke:#000000;stroke-linecap:square;stroke-width:1.5;"/>
    </g>
    <g id="line2d_34"/>
    <g id="text_17">
     <!-- Pitch position -->
     <defs>
      <path d="M 19.671875 64.796875 
L 19.671875 37.40625 
L 32.078125 37.40625 
Q 38.96875 37.40625 42.71875 40.96875 
Q 46.484375 44.53125 46.484375 51.125 
Q 46.484375 57.671875 42.71875 61.234375 
Q 38.96875 64.796875 32.078125 64.796875 
z
M 9.8125 72.90625 
L 32.078125 72.90625 
Q 44.34375 72.90625 50.609375 67.359375 
Q 56.890625 61.8125 56.890625 51.125 
Q 56.890625 40.328125 50.609375 34.8125 
Q 44.34375 29.296875 32.078125 29.296875 
L 19.671875 29.296875 
L 19.671875 0 
L 9.8125 0 
z
" id="DejaVuSans-50"/>
      <path d="M 9.421875 54.6875 
L 18.40625 54.6875 
L 18.40625 0 
L 9.421875 0 
z
M 9.421875 75.984375 
L 18.40625 75.984375 
L 18.40625 64.59375 
L 9.421875 64.59375 
z
" id="DejaVuSans-69"/>
      <path d="M 18.3125 70.21875 
L 18.3125 54.6875 
L 36.8125 54.6875 
L 36.8125 47.703125 
L 18.3125 47.703125 
L 18.3125 18.015625 
Q 18.3125 11.328125 20.140625 9.421875 
Q 21.96875 7.515625 27.59375 7.515625 
L 36.8125 7.515625 
L 36.8125 0 
L 27.59375 0 
Q 17.1875 0 13.234375 3.875 
Q 9.28125 7.765625 9.28125 18.015625 
L 9.28125 47.703125 
L 2.6875 47.703125 
L 2.6875 54.6875 
L 9.28125 54.6875 
L 9.28125 70.21875 
z
" id="DejaVuSans-74"/>
      <path d="M 48.78125 52.59375 
L 48.78125 44.1875 
Q 44.96875 46.296875 41.140625 47.34375 
Q 37.3125 48.390625 33.40625 48.390625 
Q 24.65625 48.390625 19.8125 42.84375 
Q 14.984375 37.3125 14.984375 27.296875 
Q 14.984375 17.28125 19.8125 11.734375 
Q 24.65625 6.203125 33.40625 6.203125 
Q 37.3125 6.203125 41.140625 7.25 
Q 44.96875 8.296875 48.78125 10.40625 
L 48.78125 2.09375 
Q 45.015625 0.34375 40.984375 -0.53125 
Q 36.96875 -1.421875 32.421875 -1.421875 
Q 20.0625 -1.421875 12.78125 6.34375 
Q 5.515625 14.109375 5.515625 27.296875 
Q 5.515625 40.671875 12.859375 48.328125 
Q 20.21875 56 33.015625 56 
Q 37.15625 56 41.109375 55.140625 
Q 45.0625 54.296875 48.78125 52.59375 
z
" id="DejaVuSans-63"/>
      <path d="M 54.890625 33.015625 
L 54.890625 0 
L 45.90625 0 
L 45.90625 32.71875 
Q 45.90625 40.484375 42.875 44.328125 
Q 39.84375 48.1875 33.796875 48.1875 
Q 26.515625 48.1875 22.3125 43.546875 
Q 18.109375 38.921875 18.109375 30.90625 
L 18.109375 0 
L 9.078125 0 
L 9.078125 75.984375 
L 18.109375 75.984375 
L 18.109375 46.1875 
Q 21.34375 51.125 25.703125 53.5625 
Q 30.078125 56 35.796875 56 
Q 45.21875 56 50.046875 50.171875 
Q 54.890625 44.34375 54.890625 33.015625 
z
" id="DejaVuSans-68"/>
      <path id="DejaVuSans-20"/>
      <path d="M 18.109375 8.203125 
L 18.109375 -20.796875 
L 9.078125 -20.796875 
L 9.078125 54.6875 
L 18.109375 54.6875 
L 18.109375 46.390625 
Q 20.953125 51.265625 25.265625 53.625 
Q 29.59375 56 35.59375 56 
Q 45.5625 56 51.78125 48.09375 
Q 58.015625 40.1875 58.015625 27.296875 
Q 58.015625 14.40625 51.78125 6.484375 
Q 45.5625 -1.421875 35.59375 -1.421875 
Q 29.59375 -1.421875 25.265625 0.953125 
Q 20.953125 3.328125 18.109375 8.203125 
z
M 48.6875 27.296875 
Q 48.6875 37.203125 44.609375 42.84375 
Q 40.53125 48.484375 33.40625 48.484375 
Q 26.265625 48.484375 22.1875 42.84375 
Q 18.109375 37.203125 18.109375 27.296875 
Q 18.109375 17.390625 22.1875 11.75 
Q 26.265625 6.109375 33.40625 6.109375 
Q 40.53125 6.109375 44.609375 11.75 
Q 48.6875 17.390625 48.6875 27.296875 
z
" id="DejaVuSans-70"/>
      <path d="M 54.890625 33.015625 
L 54.890625 0 
L 45.90625 0 
L 45.90625 32.71875 
Q 45.90625 40.484375 42.875 44.328125 
Q 39.84375 48.1875 33.796875 48.1875 
Q 26.515625 48.1875 22.3125 43.546875 
Q 18.109375 38.921875 18.109375 30.90625 
L 18.109375 0 
L 9.078125 0 
L 9.078125 54.6875 
L 18.109375 54.6875 
L 18.109375 46.1875 
Q 21.34375 51.125 25.703125 53.5625 
Q 30.078125 56 35.796875 56 
Q 45.21875 56 50.046875 50.171875 
Q 54.890625 44.34375 54.890625 33.015625 
z
" id="DejaVuSans-6e"/>
     </defs>
     <g transform="translate(262 1241.164062)scale(0.1 -0.1)">
      <use xlink:href="#DejaVuSans-50"/>
      <use x="60.271484" xlink:href="#DejaVuSans-69"/>
      <use x="88.054688" xlink:href="#DejaVuSans-74"/>
      <use x="127.263672" xlink:href="#DejaVuSans-63"/>
      <use x="182.244141" xlink:href="#DejaVuSans-68"/>
      <use x="245.623047" xlink:href="#DejaVuSans-20"/>
      <use x="277.410156" xlink:href="#DejaVuSans-70"/>
      <use x="340.886719" xlink:href="#DejaVuSans-6f"/>
      <use x="402.068359" xlink:href="#DejaVuSans-73"/>
      <use x="454.167969" xlink:href="#DejaVuSans-69"/>
      <use x="481.951172" xlink:href="#DejaVuSans-74"/>
      <use x="521.160156" xlink:href="#DejaVuSans-69"/>
      <use x="548.943359" xlink:href="#DejaVuSans-6f"/>
      <use x="610.125" xlink:href="#DejaVuSans-6e"/>
     </g>
    </g>
    <g id="line2d_35">
     <path d="M 234 1252.342187 
L 254 1252.342187 
" style="fill:none;stroke:#ff0000;stroke-linecap:square;stroke-width:1.5;"/>
    </g>
    <g id="line2d_36"/>
    <g id="text_18">
     <!-- goal -->
     <defs>
      <path d="M 45.40625 27.984375 
Q 45.40625 37.75 41.375 43.109375 
Q 37.359375 48.484375 30.078125 48.484375 
Q 22.859375 48.484375 18.828125 43.109375 
Q 14.796875 37.75 14.796875 27.984375 
Q 14.796875 18.265625 18.828125 12.890625 
Q 22.859375 7.515625 30.078125 7.515625 
Q 37.359375 7.515625 41.375 12.890625 
Q 45.40625 18.265625 45.40625 27.984375 
z
M 54.390625 6.78125 
Q 54.390625 -7.171875 48.1875 -13.984375 
Q 42 -20.796875 29.203125 -20.796875 
Q 24.46875 -20.796875 20.265625 -20.09375 
Q 16.0625 -19.390625 12.109375 -17.921875 
L 12.109375 -9.1875 
Q 16.0625 -11.328125 19.921875 -12.34375 
Q 23.78125 -13.375 27.78125 -13.375 
Q 36.625 -13.375 41.015625 -8.765625 
Q 45.40625 -4.15625 45.40625 5.171875 
L 45.40625 9.625 
Q 42.625 4.78125 38.28125 2.390625 
Q 33.9375 0 27.875 0 
Q 17.828125 0 11.671875 7.65625 
Q 5.515625 15.328125 5.515625 27.984375 
Q 5.515625 40.671875 11.671875 48.328125 
Q 17.828125 56 27.875 56 
Q 33.9375 56 38.28125 53.609375 
Q 42.625 51.21875 45.40625 46.390625 
L 45.40625 54.6875 
L 54.390625 54.6875 
z
" id="DejaVuSans-67"/>
      <path d="M 34.28125 27.484375 
Q 23.390625 27.484375 19.1875 25 
Q 14.984375 22.515625 14.984375 16.5 
Q 14.984375 11.71875 18.140625 8.90625 
Q 21.296875 6.109375 26.703125 6.109375 
Q 34.1875 6.109375 38.703125 11.40625 
Q 43.21875 16.703125 43.21875 25.484375 
L 43.21875 27.484375 
z
M 52.203125 31.203125 
L 52.203125 0 
L 43.21875 0 
L 43.21875 8.296875 
Q 40.140625 3.328125 35.546875 0.953125 
Q 30.953125 -1.421875 24.3125 -1.421875 
Q 15.921875 -1.421875 10.953125 3.296875 
Q 6 8.015625 6 15.921875 
Q 6 25.140625 12.171875 29.828125 
Q 18.359375 34.515625 30.609375 34.515625 
L 43.21875 34.515625 
L 43.21875 35.40625 
Q 43.21875 41.609375 39.140625 45 
Q 35.0625 48.390625 27.6875 48.390625 
Q 23 48.390625 18.546875 47.265625 
Q 14.109375 46.140625 10.015625 43.890625 
L 10.015625 52.203125 
Q 14.9375 54.109375 19.578125 55.046875 
Q 24.21875 56 28.609375 56 
Q 40.484375 56 46.34375 49.84375 
Q 52.203125 43.703125 52.203125 31.203125 
z
" id="DejaVuSans-61"/>
     </defs>
     <g transform="translate(262 1255.842187)scale(0.1 -0.1)">
      <use xlink:href="#DejaVuSans-67"/>
      <use x="63.476562" xlink:href="#DejaVuSans-6f"/>
      <use x="124.658203" xlink:href="#DejaVuSans-61"/>
      <use x="185.9375" xlink:href="#DejaVuSans-6c"/>
     </g>
    </g>
    <g id="patch_10">
     <path d="M 234 1270.520313 
L 254 1270.520313 
L 254 1263.520313 
L 234 1263.520313 
z
" style="opacity:0.3;"/>
    </g>
    <g id="text_19">
     <!-- NULL motion -->
     <defs>
      <path d="M 9.8125 72.90625 
L 23.09375 72.90625 
L 55.421875 11.921875 
L 55.421875 72.90625 
L 64.984375 72.90625 
L 64.984375 0 
L 51.703125 0 
L 19.390625 60.984375 
L 19.390625 0 
L 9.8125 0 
z
" id="DejaVuSans-4e"/>
      <path d="M 8.6875 72.90625 
L 18.609375 72.90625 
L 18.609375 28.609375 
Q 18.609375 16.890625 22.84375 11.734375 
Q 27.09375 6.59375 36.625 6.59375 
Q 46.09375 6.59375 50.34375 11.734375 
Q 54.59375 16.890625 54.59375 28.609375 
L 54.59375 72.90625 
L 64.5 72.90625 
L 64.5 27.390625 
Q 64.5 13.140625 57.4375 5.859375 
Q 50.390625 -1.421875 36.625 -1.421875 
Q 22.796875 -1.421875 15.734375 5.859375 
Q 8.6875 13.140625 8.6875 27.390625 
z
" id="DejaVuSans-55"/>
      <path d="M 9.8125 72.90625 
L 19.671875 72.90625 
L 19.671875 8.296875 
L 55.171875 8.296875 
L 55.171875 0 
L 9.8125 0 
z
" id="DejaVuSans-4c"/>
      <path d="M 52 44.1875 
Q 55.375 50.25 60.0625 53.125 
Q 64.75 56 71.09375 56 
Q 79.640625 56 84.28125 50.015625 
Q 88.921875 44.046875 88.921875 33.015625 
L 88.921875 0 
L 79.890625 0 
L 79.890625 32.71875 
Q 79.890625 40.578125 77.09375 44.375 
Q 74.3125 48.1875 68.609375 48.1875 
Q 61.625 48.1875 57.5625 43.546875 
Q 53.515625 38.921875 53.515625 30.90625 
L 53.515625 0 
L 44.484375 0 
L 44.484375 32.71875 
Q 44.484375 40.625 41.703125 44.40625 
Q 38.921875 48.1875 33.109375 48.1875 
Q 26.21875 48.1875 22.15625 43.53125 
Q 18.109375 38.875 18.109375 30.90625 
L 18.109375 0 
L 9.078125 0 
L 9.078125 54.6875 
L 18.109375 54.6875 
L 18.109375 46.1875 
Q 21.1875 51.21875 25.484375 53.609375 
Q 29.78125 56 35.6875 56 
Q 41.65625 56 45.828125 52.96875 
Q 50 49.953125 52 44.1875 
z
" id="DejaVuSans-6d"/>
     </defs>
     <g transform="translate(262 1270.520313)scale(0.1 -0.1)">
      <use xlink:href="#DejaVuSans-4e"/>
      <use x="74.804688" xlink:href="#DejaVuSans-55"/>
      <use x="147.998047" xlink:href="#DejaVuSans-4c"/>
      <use x="203.710938" xlink:href="#DejaVuSans-4c"/>
      <use x="259.423828" xlink:href="#DejaVuSans-20"/>
      <use x="291.210938" xlink:href="#DejaVuSans-6d"/>
      <use x="388.623047" xlink:href="#DejaVuSans-6f"/>
      <use x="449.804688" xlink:href="#DejaVuSans-74"/>
      <use x="489.013672" xlink:href="#DejaVuSans-69"/>
      <use x="516.796875" xlink:href="#DejaVuSans-6f"/>
      <use x="577.978516" xlink:href="#DejaVuSans-6e"/>
     </g>
    </g>
   </g>
  </g>
 </g>
 <defs>
  <clipPath id="p4b31069594">
   <rect height="1108.8" width="1395" x="225" y="172.8"/>
  </clipPath>
 </defs>
</svg>
