<?xml version="1.0" encoding="utf-8" standalone="no"?>
<!DOCTYPE svg PUBLIC "-//W3C//DTD SVG 1.1//EN"
  "http://www.w3.org/Graphics/SVG/1.1/DTD/svg11.dtd">
<!-- Created with matplotlib (http://matplotlib.org/) -->
<svg height="1440pt" version="1.1" viewBox="0 0 1800 1440" width="1800pt" xmlns="http://www.w3.org/2000/svg" xmlns:xlink="http://www.w3.org/1999/xlink">
 <defs>
  <style type="text/css">
*{stroke-linecap:butt;stroke-linejoin:round;}
  </style>
 </defs>
 <g id="figure_1">
  <g id="patch_1">
   <path d="M 0 1440 
L 1800 1440 
L 1800 0 
L 0 0 
z
" style="fill:#ffffff;"/>
  </g>
  <g id="axes_1">
   <g id="patch_2">
    <path d="M 225 1281.6 
L 1620 1281.6 
L 1620 172.8 
L 225 172.8 
z
" style="fill:#ffffff;"/>
   </g>
   <g id="matplotlib.axis_1">
    <g id="xtick_1">
     <g id="line2d_1">
      <path clip-path="url(#p6d6968c528)" d="M 288.409091 1281.6 
L 288.409091 172.8 
" style="fill:none;stroke:#b0b0b0;stroke-linecap:square;stroke-width:0.8;"/>
     </g>
     <g id="line2d_2">
      <defs>
       <path d="M 0 0 
L 0 3.5 
" id="m5cf602c66f" style="stroke:#000000;stroke-width:0.8;"/>
      </defs>
      <g>
       <use style="stroke:#000000;stroke-width:0.8;" x="288.409091" xlink:href="#m5cf602c66f" y="1281.6"/>
      </g>
     </g>
     <g id="text_1">
      <!-- 0 -->
      <defs>
       <path d="M 31.78125 66.40625 
Q 24.171875 66.40625 20.328125 58.90625 
Q 16.5 51.421875 16.5 36.375 
Q 16.5 21.390625 20.328125 13.890625 
Q 24.171875 6.390625 31.78125 6.390625 
Q 39.453125 6.390625 43.28125 13.890625 
Q 47.125 21.390625 47.125 36.375 
Q 47.125 51.421875 43.28125 58.90625 
Q 39.453125 66.40625 31.78125 66.40625 
z
M 31.78125 74.21875 
Q 44.046875 74.21875 50.515625 64.515625 
Q 56.984375 54.828125 56.984375 36.375 
Q 56.984375 17.96875 50.515625 8.265625 
Q 44.046875 -1.421875 31.78125 -1.421875 
Q 19.53125 -1.421875 13.0625 8.265625 
Q 6.59375 17.96875 6.59375 36.375 
Q 6.59375 54.828125 13.0625 64.515625 
Q 19.53125 74.21875 31.78125 74.21875 
z
" id="DejaVuSans-30"/>
      </defs>
      <g transform="translate(285.227841 1296.198437)scale(0.1 -0.1)">
       <use xlink:href="#DejaVuSans-30"/>
      </g>
     </g>
    </g>
    <g id="xtick_2">
     <g id="line2d_3">
      <path clip-path="url(#p6d6968c528)" d="M 534.419143 1281.6 
L 534.419143 172.8 
" style="fill:none;stroke:#b0b0b0;stroke-linecap:square;stroke-width:0.8;"/>
     </g>
     <g id="line2d_4">
      <g>
       <use style="stroke:#000000;stroke-width:0.8;" x="534.419143" xlink:href="#m5cf602c66f" y="1281.6"/>
      </g>
     </g>
     <g id="text_2">
      <!-- 200 -->
      <defs>
       <path d="M 19.1875 8.296875 
L 53.609375 8.296875 
L 53.609375 0 
L 7.328125 0 
L 7.328125 8.296875 
Q 12.9375 14.109375 22.625 23.890625 
Q 32.328125 33.6875 34.8125 36.53125 
Q 39.546875 41.84375 41.421875 45.53125 
Q 43.3125 49.21875 43.3125 52.78125 
Q 43.3125 58.59375 39.234375 62.25 
Q 35.15625 65.921875 28.609375 65.921875 
Q 23.96875 65.921875 18.8125 64.3125 
Q 13.671875 62.703125 7.8125 59.421875 
L 7.8125 69.390625 
Q 13.765625 71.78125 18.9375 73 
Q 24.125 74.21875 28.421875 74.21875 
Q 39.75 74.21875 46.484375 68.546875 
Q 53.21875 62.890625 53.21875 53.421875 
Q 53.21875 48.921875 51.53125 44.890625 
Q 49.859375 40.875 45.40625 35.40625 
Q 44.1875 33.984375 37.640625 27.21875 
Q 31.109375 20.453125 19.1875 8.296875 
z
" id="DejaVuSans-32"/>
      </defs>
      <g transform="translate(524.875393 1296.198437)scale(0.1 -0.1)">
       <use xlink:href="#DejaVuSans-32"/>
       <use x="63.623047" xlink:href="#DejaVuSans-30"/>
       <use x="127.246094" xlink:href="#DejaVuSans-30"/>
      </g>
     </g>
    </g>
    <g id="xtick_3">
     <g id="line2d_5">
      <path clip-path="url(#p6d6968c528)" d="M 780.429195 1281.6 
L 780.429195 172.8 
" style="fill:none;stroke:#b0b0b0;stroke-linecap:square;stroke-width:0.8;"/>
     </g>
     <g id="line2d_6">
      <g>
       <use style="stroke:#000000;stroke-width:0.8;" x="780.429195" xlink:href="#m5cf602c66f" y="1281.6"/>
      </g>
     </g>
     <g id="text_3">
      <!-- 400 -->
      <defs>
       <path d="M 37.796875 64.3125 
L 12.890625 25.390625 
L 37.796875 25.390625 
z
M 35.203125 72.90625 
L 47.609375 72.90625 
L 47.609375 25.390625 
L 58.015625 25.390625 
L 58.015625 17.1875 
L 47.609375 17.1875 
L 47.609375 0 
L 37.796875 0 
L 37.796875 17.1875 
L 4.890625 17.1875 
L 4.890625 26.703125 
z
" id="DejaVuSans-34"/>
      </defs>
      <g transform="translate(770.885445 1296.198437)scale(0.1 -0.1)">
       <use xlink:href="#DejaVuSans-34"/>
       <use x="63.623047" xlink:href="#DejaVuSans-30"/>
       <use x="127.246094" xlink:href="#DejaVuSans-30"/>
      </g>
     </g>
    </g>
    <g id="xtick_4">
     <g id="line2d_7">
      <path clip-path="url(#p6d6968c528)" d="M 1026.439247 1281.6 
L 1026.439247 172.8 
" style="fill:none;stroke:#b0b0b0;stroke-linecap:square;stroke-width:0.8;"/>
     </g>
     <g id="line2d_8">
      <g>
       <use style="stroke:#000000;stroke-width:0.8;" x="1026.439247" xlink:href="#m5cf602c66f" y="1281.6"/>
      </g>
     </g>
     <g id="text_4">
      <!-- 600 -->
      <defs>
       <path d="M 33.015625 40.375 
Q 26.375 40.375 22.484375 35.828125 
Q 18.609375 31.296875 18.609375 23.390625 
Q 18.609375 15.53125 22.484375 10.953125 
Q 26.375 6.390625 33.015625 6.390625 
Q 39.65625 6.390625 43.53125 10.953125 
Q 47.40625 15.53125 47.40625 23.390625 
Q 47.40625 31.296875 43.53125 35.828125 
Q 39.65625 40.375 33.015625 40.375 
z
M 52.59375 71.296875 
L 52.59375 62.3125 
Q 48.875 64.0625 45.09375 64.984375 
Q 41.3125 65.921875 37.59375 65.921875 
Q 27.828125 65.921875 22.671875 59.328125 
Q 17.53125 52.734375 16.796875 39.40625 
Q 19.671875 43.65625 24.015625 45.921875 
Q 28.375 48.1875 33.59375 48.1875 
Q 44.578125 48.1875 50.953125 41.515625 
Q 57.328125 34.859375 57.328125 23.390625 
Q 57.328125 12.15625 50.6875 5.359375 
Q 44.046875 -1.421875 33.015625 -1.421875 
Q 20.359375 -1.421875 13.671875 8.265625 
Q 6.984375 17.96875 6.984375 36.375 
Q 6.984375 53.65625 15.1875 63.9375 
Q 23.390625 74.21875 37.203125 74.21875 
Q 40.921875 74.21875 44.703125 73.484375 
Q 48.484375 72.75 52.59375 71.296875 
z
" id="DejaVuSans-36"/>
      </defs>
      <g transform="translate(1016.895497 1296.198437)scale(0.1 -0.1)">
       <use xlink:href="#DejaVuSans-36"/>
       <use x="63.623047" xlink:href="#DejaVuSans-30"/>
       <use x="127.246094" xlink:href="#DejaVuSans-30"/>
      </g>
     </g>
    </g>
    <g id="xtick_5">
     <g id="line2d_9">
      <path clip-path="url(#p6d6968c528)" d="M 1272.449299 1281.6 
L 1272.449299 172.8 
" style="fill:none;stroke:#b0b0b0;stroke-linecap:square;stroke-width:0.8;"/>
     </g>
     <g id="line2d_10">
      <g>
       <use style="stroke:#000000;stroke-width:0.8;" x="1272.449299" xlink:href="#m5cf602c66f" y="1281.6"/>
      </g>
     </g>
     <g id="text_5">
      <!-- 800 -->
      <defs>
       <path d="M 31.78125 34.625 
Q 24.75 34.625 20.71875 30.859375 
Q 16.703125 27.09375 16.703125 20.515625 
Q 16.703125 13.921875 20.71875 10.15625 
Q 24.75 6.390625 31.78125 6.390625 
Q 38.8125 6.390625 42.859375 10.171875 
Q 46.921875 13.96875 46.921875 20.515625 
Q 46.921875 27.09375 42.890625 30.859375 
Q 38.875 34.625 31.78125 34.625 
z
M 21.921875 38.8125 
Q 15.578125 40.375 12.03125 44.71875 
Q 8.5 49.078125 8.5 55.328125 
Q 8.5 64.0625 14.71875 69.140625 
Q 20.953125 74.21875 31.78125 74.21875 
Q 42.671875 74.21875 48.875 69.140625 
Q 55.078125 64.0625 55.078125 55.328125 
Q 55.078125 49.078125 51.53125 44.71875 
Q 48 40.375 41.703125 38.8125 
Q 48.828125 37.15625 52.796875 32.3125 
Q 56.78125 27.484375 56.78125 20.515625 
Q 56.78125 9.90625 50.3125 4.234375 
Q 43.84375 -1.421875 31.78125 -1.421875 
Q 19.734375 -1.421875 13.25 4.234375 
Q 6.78125 9.90625 6.78125 20.515625 
Q 6.78125 27.484375 10.78125 32.3125 
Q 14.796875 37.15625 21.921875 38.8125 
z
M 18.3125 54.390625 
Q 18.3125 48.734375 21.84375 45.5625 
Q 25.390625 42.390625 31.78125 42.390625 
Q 38.140625 42.390625 41.71875 45.5625 
Q 45.3125 48.734375 45.3125 54.390625 
Q 45.3125 60.0625 41.71875 63.234375 
Q 38.140625 66.40625 31.78125 66.40625 
Q 25.390625 66.40625 21.84375 63.234375 
Q 18.3125 60.0625 18.3125 54.390625 
z
" id="DejaVuSans-38"/>
      </defs>
      <g transform="translate(1262.905549 1296.198437)scale(0.1 -0.1)">
       <use xlink:href="#DejaVuSans-38"/>
       <use x="63.623047" xlink:href="#DejaVuSans-30"/>
       <use x="127.246094" xlink:href="#DejaVuSans-30"/>
      </g>
     </g>
    </g>
    <g id="xtick_6">
     <g id="line2d_11">
      <path clip-path="url(#p6d6968c528)" d="M 1518.459351 1281.6 
L 1518.459351 172.8 
" style="fill:none;stroke:#b0b0b0;stroke-linecap:square;stroke-width:0.8;"/>
     </g>
     <g id="line2d_12">
      <g>
       <use style="stroke:#000000;stroke-width:0.8;" x="1518.459351" xlink:href="#m5cf602c66f" y="1281.6"/>
      </g>
     </g>
     <g id="text_6">
      <!-- 1000 -->
      <defs>
       <path d="M 12.40625 8.296875 
L 28.515625 8.296875 
L 28.515625 63.921875 
L 10.984375 60.40625 
L 10.984375 69.390625 
L 28.421875 72.90625 
L 38.28125 72.90625 
L 38.28125 8.296875 
L 54.390625 8.296875 
L 54.390625 0 
L 12.40625 0 
z
" id="DejaVuSans-31"/>
      </defs>
      <g transform="translate(1505.734351 1296.198437)scale(0.1 -0.1)">
       <use xlink:href="#DejaVuSans-31"/>
       <use x="63.623047" xlink:href="#DejaVuSans-30"/>
       <use x="127.246094" xlink:href="#DejaVuSans-30"/>
       <use x="190.869141" xlink:href="#DejaVuSans-30"/>
      </g>
     </g>
    </g>
   </g>
   <g id="matplotlib.axis_2">
    <g id="ytick_1">
     <g id="line2d_13">
      <path clip-path="url(#p6d6968c528)" d="M 225 1281.6 
L 1620 1281.6 
" style="fill:none;stroke:#b0b0b0;stroke-linecap:square;stroke-width:0.8;"/>
     </g>
     <g id="line2d_14">
      <defs>
       <path d="M 0 0 
L -3.5 0 
" id="m340d2ce12f" style="stroke:#000000;stroke-width:0.8;"/>
      </defs>
      <g>
       <use style="stroke:#000000;stroke-width:0.8;" x="225" xlink:href="#m340d2ce12f" y="1281.6"/>
      </g>
     </g>
     <g id="text_7">
      <!-- −0.08985 -->
      <defs>
       <path d="M 10.59375 35.5 
L 73.1875 35.5 
L 73.1875 27.203125 
L 10.59375 27.203125 
z
" id="DejaVuSans-2212"/>
       <path d="M 10.6875 12.40625 
L 21 12.40625 
L 21 0 
L 10.6875 0 
z
" id="DejaVuSans-2e"/>
       <path d="M 10.984375 1.515625 
L 10.984375 10.5 
Q 14.703125 8.734375 18.5 7.8125 
Q 22.3125 6.890625 25.984375 6.890625 
Q 35.75 6.890625 40.890625 13.453125 
Q 46.046875 20.015625 46.78125 33.40625 
Q 43.953125 29.203125 39.59375 26.953125 
Q 35.25 24.703125 29.984375 24.703125 
Q 19.046875 24.703125 12.671875 31.3125 
Q 6.296875 37.9375 6.296875 49.421875 
Q 6.296875 60.640625 12.9375 67.421875 
Q 19.578125 74.21875 30.609375 74.21875 
Q 43.265625 74.21875 49.921875 64.515625 
Q 56.59375 54.828125 56.59375 36.375 
Q 56.59375 19.140625 48.40625 8.859375 
Q 40.234375 -1.421875 26.421875 -1.421875 
Q 22.703125 -1.421875 18.890625 -0.6875 
Q 15.09375 0.046875 10.984375 1.515625 
z
M 30.609375 32.421875 
Q 37.25 32.421875 41.125 36.953125 
Q 45.015625 41.5 45.015625 49.421875 
Q 45.015625 57.28125 41.125 61.84375 
Q 37.25 66.40625 30.609375 66.40625 
Q 23.96875 66.40625 20.09375 61.84375 
Q 16.21875 57.28125 16.21875 49.421875 
Q 16.21875 41.5 20.09375 36.953125 
Q 23.96875 32.421875 30.609375 32.421875 
z
" id="DejaVuSans-39"/>
       <path d="M 10.796875 72.90625 
L 49.515625 72.90625 
L 49.515625 64.59375 
L 19.828125 64.59375 
L 19.828125 46.734375 
Q 21.96875 47.46875 24.109375 47.828125 
Q 26.265625 48.1875 28.421875 48.1875 
Q 40.625 48.1875 47.75 41.5 
Q 54.890625 34.8125 54.890625 23.390625 
Q 54.890625 11.625 47.5625 5.09375 
Q 40.234375 -1.421875 26.90625 -1.421875 
Q 22.3125 -1.421875 17.546875 -0.640625 
Q 12.796875 0.140625 7.71875 1.703125 
L 7.71875 11.625 
Q 12.109375 9.234375 16.796875 8.0625 
Q 21.484375 6.890625 26.703125 6.890625 
Q 35.15625 6.890625 40.078125 11.328125 
Q 45.015625 15.765625 45.015625 23.390625 
Q 45.015625 31 40.078125 35.4375 
Q 35.15625 39.890625 26.703125 39.890625 
Q 22.75 39.890625 18.8125 39.015625 
Q 14.890625 38.140625 10.796875 36.28125 
z
" id="DejaVuSans-35"/>
      </defs>
      <g transform="translate(168.267188 1285.399219)scale(0.1 -0.1)">
       <use xlink:href="#DejaVuSans-2212"/>
       <use x="83.789062" xlink:href="#DejaVuSans-30"/>
       <use x="147.412109" xlink:href="#DejaVuSans-2e"/>
       <use x="179.199219" xlink:href="#DejaVuSans-30"/>
       <use x="242.822266" xlink:href="#DejaVuSans-38"/>
       <use x="306.445312" xlink:href="#DejaVuSans-39"/>
       <use x="370.068359" xlink:href="#DejaVuSans-38"/>
       <use x="433.691406" xlink:href="#DejaVuSans-35"/>
      </g>
     </g>
    </g>
    <g id="ytick_2">
     <g id="line2d_15">
      <path clip-path="url(#p6d6968c528)" d="M 225 1163.80351 
L 1620 1163.80351 
" style="fill:none;stroke:#b0b0b0;stroke-linecap:square;stroke-width:0.8;"/>
     </g>
     <g id="line2d_16">
      <g>
       <use style="stroke:#000000;stroke-width:0.8;" x="225" xlink:href="#m340d2ce12f" y="1163.80351"/>
      </g>
     </g>
     <g id="text_8">
      <!-- −0.07985 -->
      <defs>
       <path d="M 8.203125 72.90625 
L 55.078125 72.90625 
L 55.078125 68.703125 
L 28.609375 0 
L 18.3125 0 
L 43.21875 64.59375 
L 8.203125 64.59375 
z
" id="DejaVuSans-37"/>
      </defs>
      <g transform="translate(168.267188 1167.602729)scale(0.1 -0.1)">
       <use xlink:href="#DejaVuSans-2212"/>
       <use x="83.789062" xlink:href="#DejaVuSans-30"/>
       <use x="147.412109" xlink:href="#DejaVuSans-2e"/>
       <use x="179.199219" xlink:href="#DejaVuSans-30"/>
       <use x="242.822266" xlink:href="#DejaVuSans-37"/>
       <use x="306.445312" xlink:href="#DejaVuSans-39"/>
       <use x="370.068359" xlink:href="#DejaVuSans-38"/>
       <use x="433.691406" xlink:href="#DejaVuSans-35"/>
      </g>
     </g>
    </g>
    <g id="ytick_3">
     <g id="line2d_17">
      <path clip-path="url(#p6d6968c528)" d="M 225 1046.00702 
L 1620 1046.00702 
" style="fill:none;stroke:#b0b0b0;stroke-linecap:square;stroke-width:0.8;"/>
     </g>
     <g id="line2d_18">
      <g>
       <use style="stroke:#000000;stroke-width:0.8;" x="225" xlink:href="#m340d2ce12f" y="1046.00702"/>
      </g>
     </g>
     <g id="text_9">
      <!-- −0.06985 -->
      <g transform="translate(168.267188 1049.806239)scale(0.1 -0.1)">
       <use xlink:href="#DejaVuSans-2212"/>
       <use x="83.789062" xlink:href="#DejaVuSans-30"/>
       <use x="147.412109" xlink:href="#DejaVuSans-2e"/>
       <use x="179.199219" xlink:href="#DejaVuSans-30"/>
       <use x="242.822266" xlink:href="#DejaVuSans-36"/>
       <use x="306.445312" xlink:href="#DejaVuSans-39"/>
       <use x="370.068359" xlink:href="#DejaVuSans-38"/>
       <use x="433.691406" xlink:href="#DejaVuSans-35"/>
      </g>
     </g>
    </g>
    <g id="ytick_4">
     <g id="line2d_19">
      <path clip-path="url(#p6d6968c528)" d="M 225 928.21053 
L 1620 928.21053 
" style="fill:none;stroke:#b0b0b0;stroke-linecap:square;stroke-width:0.8;"/>
     </g>
     <g id="line2d_20">
      <g>
       <use style="stroke:#000000;stroke-width:0.8;" x="225" xlink:href="#m340d2ce12f" y="928.21053"/>
      </g>
     </g>
     <g id="text_10">
      <!-- −0.05985 -->
      <g transform="translate(168.267188 932.009749)scale(0.1 -0.1)">
       <use xlink:href="#DejaVuSans-2212"/>
       <use x="83.789062" xlink:href="#DejaVuSans-30"/>
       <use x="147.412109" xlink:href="#DejaVuSans-2e"/>
       <use x="179.199219" xlink:href="#DejaVuSans-30"/>
       <use x="242.822266" xlink:href="#DejaVuSans-35"/>
       <use x="306.445312" xlink:href="#DejaVuSans-39"/>
       <use x="370.068359" xlink:href="#DejaVuSans-38"/>
       <use x="433.691406" xlink:href="#DejaVuSans-35"/>
      </g>
     </g>
    </g>
    <g id="ytick_5">
     <g id="line2d_21">
      <path clip-path="url(#p6d6968c528)" d="M 225 810.41404 
L 1620 810.41404 
" style="fill:none;stroke:#b0b0b0;stroke-linecap:square;stroke-width:0.8;"/>
     </g>
     <g id="line2d_22">
      <g>
       <use style="stroke:#000000;stroke-width:0.8;" x="225" xlink:href="#m340d2ce12f" y="810.41404"/>
      </g>
     </g>
     <g id="text_11">
      <!-- −0.04985 -->
      <g transform="translate(168.267188 814.213259)scale(0.1 -0.1)">
       <use xlink:href="#DejaVuSans-2212"/>
       <use x="83.789062" xlink:href="#DejaVuSans-30"/>
       <use x="147.412109" xlink:href="#DejaVuSans-2e"/>
       <use x="179.199219" xlink:href="#DejaVuSans-30"/>
       <use x="242.822266" xlink:href="#DejaVuSans-34"/>
       <use x="306.445312" xlink:href="#DejaVuSans-39"/>
       <use x="370.068359" xlink:href="#DejaVuSans-38"/>
       <use x="433.691406" xlink:href="#DejaVuSans-35"/>
      </g>
     </g>
    </g>
    <g id="ytick_6">
     <g id="line2d_23">
      <path clip-path="url(#p6d6968c528)" d="M 225 692.61755 
L 1620 692.61755 
" style="fill:none;stroke:#b0b0b0;stroke-linecap:square;stroke-width:0.8;"/>
     </g>
     <g id="line2d_24">
      <g>
       <use style="stroke:#000000;stroke-width:0.8;" x="225" xlink:href="#m340d2ce12f" y="692.61755"/>
      </g>
     </g>
     <g id="text_12">
      <!-- −0.03985 -->
      <defs>
       <path d="M 40.578125 39.3125 
Q 47.65625 37.796875 51.625 33 
Q 55.609375 28.21875 55.609375 21.1875 
Q 55.609375 10.40625 48.1875 4.484375 
Q 40.765625 -1.421875 27.09375 -1.421875 
Q 22.515625 -1.421875 17.65625 -0.515625 
Q 12.796875 0.390625 7.625 2.203125 
L 7.625 11.71875 
Q 11.71875 9.328125 16.59375 8.109375 
Q 21.484375 6.890625 26.8125 6.890625 
Q 36.078125 6.890625 40.9375 10.546875 
Q 45.796875 14.203125 45.796875 21.1875 
Q 45.796875 27.640625 41.28125 31.265625 
Q 36.765625 34.90625 28.71875 34.90625 
L 20.21875 34.90625 
L 20.21875 43.015625 
L 29.109375 43.015625 
Q 36.375 43.015625 40.234375 45.921875 
Q 44.09375 48.828125 44.09375 54.296875 
Q 44.09375 59.90625 40.109375 62.90625 
Q 36.140625 65.921875 28.71875 65.921875 
Q 24.65625 65.921875 20.015625 65.03125 
Q 15.375 64.15625 9.8125 62.3125 
L 9.8125 71.09375 
Q 15.4375 72.65625 20.34375 73.4375 
Q 25.25 74.21875 29.59375 74.21875 
Q 40.828125 74.21875 47.359375 69.109375 
Q 53.90625 64.015625 53.90625 55.328125 
Q 53.90625 49.265625 50.4375 45.09375 
Q 46.96875 40.921875 40.578125 39.3125 
z
" id="DejaVuSans-33"/>
      </defs>
      <g transform="translate(168.267188 696.416768)scale(0.1 -0.1)">
       <use xlink:href="#DejaVuSans-2212"/>
       <use x="83.789062" xlink:href="#DejaVuSans-30"/>
       <use x="147.412109" xlink:href="#DejaVuSans-2e"/>
       <use x="179.199219" xlink:href="#DejaVuSans-30"/>
       <use x="242.822266" xlink:href="#DejaVuSans-33"/>
       <use x="306.445312" xlink:href="#DejaVuSans-39"/>
       <use x="370.068359" xlink:href="#DejaVuSans-38"/>
       <use x="433.691406" xlink:href="#DejaVuSans-35"/>
      </g>
     </g>
    </g>
    <g id="ytick_7">
     <g id="line2d_25">
      <path clip-path="url(#p6d6968c528)" d="M 225 574.82106 
L 1620 574.82106 
" style="fill:none;stroke:#b0b0b0;stroke-linecap:square;stroke-width:0.8;"/>
     </g>
     <g id="line2d_26">
      <g>
       <use style="stroke:#000000;stroke-width:0.8;" x="225" xlink:href="#m340d2ce12f" y="574.82106"/>
      </g>
     </g>
     <g id="text_13">
      <!-- −0.02985 -->
      <g transform="translate(168.267188 578.620278)scale(0.1 -0.1)">
       <use xlink:href="#DejaVuSans-2212"/>
       <use x="83.789062" xlink:href="#DejaVuSans-30"/>
       <use x="147.412109" xlink:href="#DejaVuSans-2e"/>
       <use x="179.199219" xlink:href="#DejaVuSans-30"/>
       <use x="242.822266" xlink:href="#DejaVuSans-32"/>
       <use x="306.445312" xlink:href="#DejaVuSans-39"/>
       <use x="370.068359" xlink:href="#DejaVuSans-38"/>
       <use x="433.691406" xlink:href="#DejaVuSans-35"/>
      </g>
     </g>
    </g>
    <g id="ytick_8">
     <g id="line2d_27">
      <path clip-path="url(#p6d6968c528)" d="M 225 457.02457 
L 1620 457.02457 
" style="fill:none;stroke:#b0b0b0;stroke-linecap:square;stroke-width:0.8;"/>
     </g>
     <g id="line2d_28">
      <g>
       <use style="stroke:#000000;stroke-width:0.8;" x="225" xlink:href="#m340d2ce12f" y="457.02457"/>
      </g>
     </g>
     <g id="text_14">
      <!-- −0.01985 -->
      <g transform="translate(168.267188 460.823788)scale(0.1 -0.1)">
       <use xlink:href="#DejaVuSans-2212"/>
       <use x="83.789062" xlink:href="#DejaVuSans-30"/>
       <use x="147.412109" xlink:href="#DejaVuSans-2e"/>
       <use x="179.199219" xlink:href="#DejaVuSans-30"/>
       <use x="242.822266" xlink:href="#DejaVuSans-31"/>
       <use x="306.445312" xlink:href="#DejaVuSans-39"/>
       <use x="370.068359" xlink:href="#DejaVuSans-38"/>
       <use x="433.691406" xlink:href="#DejaVuSans-35"/>
      </g>
     </g>
    </g>
    <g id="ytick_9">
     <g id="line2d_29">
      <path clip-path="url(#p6d6968c528)" d="M 225 339.22808 
L 1620 339.22808 
" style="fill:none;stroke:#b0b0b0;stroke-linecap:square;stroke-width:0.8;"/>
     </g>
     <g id="line2d_30">
      <g>
       <use style="stroke:#000000;stroke-width:0.8;" x="225" xlink:href="#m340d2ce12f" y="339.22808"/>
      </g>
     </g>
     <g id="text_15">
      <!-- −0.00985 -->
      <g transform="translate(168.267188 343.027298)scale(0.1 -0.1)">
       <use xlink:href="#DejaVuSans-2212"/>
       <use x="83.789062" xlink:href="#DejaVuSans-30"/>
       <use x="147.412109" xlink:href="#DejaVuSans-2e"/>
       <use x="179.199219" xlink:href="#DejaVuSans-30"/>
       <use x="242.822266" xlink:href="#DejaVuSans-30"/>
       <use x="306.445312" xlink:href="#DejaVuSans-39"/>
       <use x="370.068359" xlink:href="#DejaVuSans-38"/>
       <use x="433.691406" xlink:href="#DejaVuSans-35"/>
      </g>
     </g>
    </g>
    <g id="ytick_10">
     <g id="line2d_31">
      <path clip-path="url(#p6d6968c528)" d="M 225 221.43159 
L 1620 221.43159 
" style="fill:none;stroke:#b0b0b0;stroke-linecap:square;stroke-width:0.8;"/>
     </g>
     <g id="line2d_32">
      <g>
       <use style="stroke:#000000;stroke-width:0.8;" x="225" xlink:href="#m340d2ce12f" y="221.43159"/>
      </g>
     </g>
     <g id="text_16">
      <!-- 0.00015 -->
      <g transform="translate(176.646875 225.230808)scale(0.1 -0.1)">
       <use xlink:href="#DejaVuSans-30"/>
       <use x="63.623047" xlink:href="#DejaVuSans-2e"/>
       <use x="95.410156" xlink:href="#DejaVuSans-30"/>
       <use x="159.033203" xlink:href="#DejaVuSans-30"/>
       <use x="222.65625" xlink:href="#DejaVuSans-30"/>
       <use x="286.279297" xlink:href="#DejaVuSans-31"/>
       <use x="349.902344" xlink:href="#DejaVuSans-35"/>
      </g>
     </g>
    </g>
   </g>
   <g id="patch_3">
    <path clip-path="url(#p6d6968c528)" d="M 288.409091 1281.6 
L 1557.820959 1281.6 
L 1557.820959 172.8 
L 288.409091 172.8 
z
" style="opacity:0.3;"/>
   </g>
   <g id="line2d_33">
    <path clip-path="url(#p6d6968c528)" d="M 288.409091 1079.294846 
L 289.639141 1079.294846 
L 290.869191 1078.493103 
L 292.099242 1078.493103 
L 293.329292 1072.303672 
L 294.559342 1072.303672 
L 295.789392 1057.033176 
L 297.019443 1057.033176 
L 298.249493 1032.481785 
L 299.479543 1012.853461 
L 300.709594 1012.853461 
L 301.939644 1014.331618 
L 303.169694 1014.331618 
L 304.399744 980.542148 
L 305.629795 980.542148 
L 306.859845 967.584705 
L 308.089895 967.584705 
L 309.319945 977.259291 
L 310.549996 946.417417 
L 311.780046 946.417417 
L 313.010096 927.768929 
L 314.240146 927.768929 
L 315.470197 960.357824 
L 316.700247 960.357824 
L 317.930297 937.841289 
L 319.160347 937.841289 
L 320.390398 936.233036 
L 321.620448 943.508569 
L 322.850498 943.508569 
L 324.080548 935.418917 
L 325.310599 935.418917 
L 326.540649 944.777762 
L 327.770699 944.777762 
L 329.000749 973.991209 
L 330.2308 973.991209 
L 331.46085 962.362916 
L 332.6909 962.362916 
L 333.920951 963.329875 
L 335.151001 963.329875 
L 336.381051 972.058024 
L 337.611101 987.036375 
L 338.841152 987.036375 
L 340.071202 987.991487 
L 341.301252 987.991487 
L 342.531302 984.515115 
L 343.761353 984.515115 
L 344.991403 1008.282169 
L 346.221453 1008.282169 
L 347.451503 981.42657 
L 348.681554 1014.528212 
L 349.911604 1014.528212 
L 351.141654 992.99201 
L 352.371704 992.99201 
L 353.601755 1016.201731 
L 354.831805 1016.201731 
L 356.061855 1029.692356 
L 357.291905 1018.382863 
L 358.521956 1018.382863 
L 359.752006 1042.017029 
L 360.982056 1042.017029 
L 362.212107 1024.838382 
L 363.442157 1024.838382 
L 364.672207 1047.299396 
L 365.902257 1047.299396 
L 367.132308 1053.160762 
L 368.362358 1039.334551 
L 369.592408 1039.334551 
L 370.822458 1053.040733 
L 372.052509 1053.040733 
L 373.282559 1058.534008 
L 374.512609 1058.534008 
L 375.742659 1060.876322 
L 376.97271 1060.876322 
L 378.20276 1067.104379 
L 379.43281 1056.592199 
L 380.66286 1056.592199 
L 381.892911 1040.164115 
L 383.122961 1040.164115 
L 384.353011 1012.242474 
L 385.583061 1012.242474 
L 386.813112 1009.006292 
L 388.043162 1009.006292 
L 389.273212 1023.101386 
L 390.503262 995.787944 
L 391.733313 995.787944 
L 392.963363 994.914313 
L 396.653514 995.006583 
L 397.883564 987.627622 
L 399.113614 981.486756 
L 400.343665 981.486756 
L 401.573715 1006.176125 
L 402.803765 1006.176125 
L 404.033815 968.191611 
L 405.263866 968.191611 
L 406.493916 966.738977 
L 407.723966 966.738977 
L 408.954016 977.664515 
L 410.184067 966.698723 
L 411.414117 966.698723 
L 412.644167 941.585172 
L 413.874217 941.585172 
L 415.104268 955.414189 
L 416.334318 955.414189 
L 417.564368 952.622347 
L 418.794418 967.739214 
L 420.024469 967.739214 
L 421.254519 971.622222 
L 422.484569 971.622222 
L 423.71462 981.532416 
L 424.94467 981.532416 
L 426.17472 987.096969 
L 427.40477 987.096969 
L 428.634821 990.77953 
L 429.864871 990.77953 
L 431.094921 983.012485 
L 432.324971 972.353411 
L 433.555022 972.353411 
L 434.785072 1004.007304 
L 436.015122 1004.007304 
L 437.245172 986.387506 
L 438.475223 986.387506 
L 439.705273 1004.474562 
L 440.935323 1019.140433 
L 442.165373 1019.140433 
L 443.395424 1026.566276 
L 444.625474 1026.566276 
L 445.855524 1032.811116 
L 447.085574 1032.811116 
L 448.315625 1035.578163 
L 449.545675 1060.09016 
L 450.775725 1060.09016 
L 452.005776 1045.467187 
L 453.235826 1045.467187 
L 454.465876 1067.492994 
L 455.695926 1067.492994 
L 456.925977 1096.272917 
L 458.156027 1096.272917 
L 459.386077 1075.886572 
L 460.616127 1075.886572 
L 461.846178 1049.387483 
L 463.076228 1049.387483 
L 464.306278 1055.315446 
L 465.536328 1054.653015 
L 469.226479 1054.560203 
L 470.456529 1044.058345 
L 471.68658 1044.058345 
L 472.91663 1052.922988 
L 474.14668 1052.922988 
L 475.37673 1050.223021 
L 476.606781 1037.338112 
L 477.836831 1037.338112 
L 479.066881 1047.374053 
L 480.296931 1047.374053 
L 481.526982 1066.306494 
L 482.757032 1066.306494 
L 483.987082 1033.818372 
L 485.217133 1050.356185 
L 486.447183 1050.356185 
L 487.677233 1029.686296 
L 488.907283 1029.686296 
L 490.137334 1019.158678 
L 491.367384 1019.158678 
L 492.597434 1021.75156 
L 493.827484 1009.882066 
L 495.057535 1009.882066 
L 496.287585 998.754365 
L 497.517635 998.754365 
L 498.747685 967.096207 
L 499.977736 967.096207 
L 501.207786 953.179487 
L 502.437836 953.179487 
L 503.667886 941.521107 
L 504.897937 952.177365 
L 506.127987 952.177365 
L 507.358037 930.605826 
L 508.588087 930.605826 
L 509.818138 942.446694 
L 511.048188 942.446694 
L 512.278238 964.122637 
L 513.508289 952.239812 
L 514.738339 952.239812 
L 515.968389 987.329356 
L 517.198439 996.992516 
L 518.42849 996.992516 
L 519.65854 1004.763558 
L 520.88859 1004.763558 
L 522.11864 1025.211057 
L 523.348691 1025.211057 
L 524.578741 1044.312601 
L 525.808791 1044.312601 
L 527.038841 1053.327286 
L 528.268892 1053.327286 
L 529.498942 1070.99335 
L 530.728992 1080.158625 
L 531.959042 1080.158625 
L 533.189093 1099.312739 
L 534.419143 1099.312739 
L 535.649193 1098.007131 
L 536.879243 1098.007131 
L 538.109294 1099.731324 
L 539.339344 1099.731324 
L 540.569394 1120.323823 
L 541.799444 1109.945595 
L 543.029495 1109.945595 
L 544.259545 1124.915769 
L 545.489595 1124.915769 
L 546.719646 1124.419419 
L 547.949696 1124.419419 
L 549.179746 1107.179524 
L 550.409796 1107.179524 
L 551.639847 1130.034779 
L 552.869897 1130.034779 
L 554.099947 1118.925105 
L 555.329997 1118.925105 
L 556.560048 1125.333505 
L 557.790098 1125.333505 
L 559.020148 1114.8822 
L 560.250198 1108.874654 
L 561.480249 1108.874654 
L 562.710299 1074.005907 
L 563.940349 1074.005907 
L 565.170399 1080.714044 
L 566.40045 1080.714044 
L 567.6305 1062.77035 
L 568.86055 1062.77035 
L 570.0906 1048.744158 
L 571.320651 1048.744158 
L 572.550701 1055.522888 
L 573.780751 1033.161855 
L 575.010802 1033.161855 
L 576.240852 1004.60496 
L 577.470902 1004.60496 
L 578.700952 1013.920858 
L 579.931003 1013.920858 
L 581.161053 994.488286 
L 582.391103 994.488286 
L 583.621153 987.395306 
L 584.851204 987.395306 
L 586.081254 1003.635434 
L 587.311304 980.511849 
L 588.541354 980.511849 
L 589.771405 973.098367 
L 591.001455 973.098367 
L 592.231505 978.179883 
L 593.461555 978.179883 
L 594.691606 997.665691 
L 595.921656 997.665691 
L 597.151706 992.539589 
L 598.381756 974.955542 
L 599.611807 974.955542 
L 600.841857 977.214941 
L 602.071907 977.214941 
L 603.301957 1004.856826 
L 604.532008 1004.856826 
L 605.762058 997.646653 
L 606.992108 997.646653 
L 608.222159 1012.663608 
L 609.452209 989.930621 
L 610.682259 989.930621 
L 611.912309 1019.97889 
L 613.14236 1019.97889 
L 614.37241 1038.94429 
L 615.60246 1038.94429 
L 616.83251 1034.821571 
L 618.062561 1046.363625 
L 619.292611 1046.363625 
L 620.522661 1047.114015 
L 621.752711 1047.114015 
L 622.982762 1047.643755 
L 624.212812 1045.030084 
L 625.442862 1045.030084 
L 626.672912 1059.48254 
L 627.902963 1059.48254 
L 629.133013 1063.687891 
L 630.363063 1063.687891 
L 631.593113 1067.90927 
L 632.823164 1067.90927 
L 634.053214 1089.93042 
L 635.283264 1073.404419 
L 636.513315 1073.404419 
L 637.743365 1094.84393 
L 638.973415 1094.84393 
L 640.203465 1106.821269 
L 641.433516 1106.821269 
L 642.663566 1088.263446 
L 643.893616 1088.263446 
L 645.123666 1118.677188 
L 646.353717 1108.705957 
L 647.583767 1108.705957 
L 648.813817 1091.267472 
L 650.043867 1091.267472 
L 651.273918 1109.582533 
L 652.503968 1109.582533 
L 653.734018 1064.868476 
L 654.964068 1079.199368 
L 656.194119 1079.199368 
L 657.424169 1065.02547 
L 658.654219 1065.02547 
L 659.884269 1029.939311 
L 661.11432 1029.939311 
L 662.34437 1043.044405 
L 663.57442 1051.995079 
L 664.804471 1051.995079 
L 666.034521 1021.774413 
L 667.264571 1021.774413 
L 668.494621 988.207711 
L 669.724672 988.207711 
L 670.954722 988.371525 
L 672.184772 977.365305 
L 673.414822 977.365305 
L 674.644873 972.339837 
L 675.874923 972.339837 
L 677.104973 971.813151 
L 678.335023 971.813151 
L 679.565074 969.995282 
L 680.795124 969.995282 
L 682.025174 983.33931 
L 683.255224 983.33931 
L 684.485275 973.468922 
L 685.715325 973.468922 
L 686.945375 980.452613 
L 688.175425 966.83799 
L 689.405476 966.83799 
L 690.635526 968.803662 
L 691.865576 968.803662 
L 693.095626 966.520355 
L 694.325677 966.520355 
L 695.555727 967.36841 
L 696.785777 967.36841 
L 698.015828 952.611809 
L 699.245878 952.611809 
L 700.475928 980.300426 
L 701.705978 955.364157 
L 702.936029 955.364157 
L 704.166079 986.601001 
L 705.396129 986.601001 
L 706.626179 982.515008 
L 707.85623 982.515008 
L 709.08628 975.785118 
L 710.31633 975.785118 
L 711.54638 989.35343 
L 712.776431 977.870159 
L 714.006481 977.870159 
L 715.236531 1007.303312 
L 716.466581 1007.303312 
L 717.696632 1022.262116 
L 718.926682 1022.262116 
L 720.156732 1010.91096 
L 721.386782 1010.91096 
L 722.616833 997.182522 
L 723.846883 997.182522 
L 725.076933 1013.723438 
L 726.306984 1013.723438 
L 727.537034 992.069332 
L 728.767084 992.069332 
L 729.997134 1007.411388 
L 731.227185 1007.411388 
L 732.457235 1007.02912 
L 733.687285 1011.544884 
L 734.917335 1011.544884 
L 736.147386 1020.124953 
L 737.377436 1020.124953 
L 738.607486 1016.03684 
L 741.067587 1016.007498 
L 742.297637 1019.418098 
L 744.757737 1019.418098 
L 745.987788 1034.975074 
L 747.217838 1034.975074 
L 748.447888 1032.13132 
L 749.677938 1032.13132 
L 750.907989 1034.124895 
L 752.138039 1034.124895 
L 753.368089 1026.398445 
L 754.598139 1026.398445 
L 755.82819 1025.037391 
L 757.05824 1037.582296 
L 759.518341 1037.582296 
L 760.748391 1037.83915 
L 761.978441 1037.83915 
L 763.208491 1053.489387 
L 764.438542 1053.489387 
L 765.668592 1023.773787 
L 766.898642 1040.074253 
L 768.128692 1040.074253 
L 769.358743 999.137917 
L 770.588793 999.137917 
L 771.818843 1007.11763 
L 773.048893 1007.11763 
L 774.278944 999.82291 
L 775.508994 999.82291 
L 776.739044 1004.390167 
L 777.969094 1004.390167 
L 779.199145 972.473888 
L 780.429195 975.968586 
L 781.659245 975.968586 
L 782.889295 962.608087 
L 784.119346 962.608087 
L 785.349396 981.578546 
L 786.579446 981.578546 
L 787.809497 965.247177 
L 789.039547 965.247177 
L 790.269597 971.017841 
L 791.499647 971.017841 
L 792.729698 968.670652 
L 793.959748 968.670652 
L 795.189798 979.225962 
L 796.419848 979.225962 
L 797.649899 971.216429 
L 798.879949 980.620266 
L 800.109999 980.620266 
L 801.340049 981.897375 
L 802.5701 981.897375 
L 803.80015 973.06421 
L 805.0302 973.06421 
L 806.26025 976.260186 
L 807.490301 976.260186 
L 808.720351 984.352132 
L 809.950401 984.352132 
L 811.180451 988.247569 
L 812.410502 988.247569 
L 813.640552 995.443825 
L 814.870602 995.443825 
L 816.100652 1006.059177 
L 817.330703 1006.059177 
L 819.790803 1050.193281 
L 821.020854 1050.193281 
L 822.250904 1050.057301 
L 823.480954 1050.057301 
L 824.711004 1060.904451 
L 825.941055 1060.904451 
L 827.171105 1055.950011 
L 828.401155 1055.950011 
L 829.631205 1053.385752 
L 830.861256 1053.385752 
L 832.091306 1043.249927 
L 833.321356 1043.249927 
L 834.551406 1042.420292 
L 835.781457 1042.420292 
L 837.011507 1034.087771 
L 838.241557 1034.087771 
L 839.471607 1023.054336 
L 840.701658 1023.054336 
L 841.931708 1016.612362 
L 843.161758 1016.612362 
L 844.391808 996.18533 
L 845.621859 996.18533 
L 846.851909 963.06295 
L 848.081959 963.06295 
L 849.31201 981.919511 
L 850.54206 981.919511 
L 851.77211 998.977931 
L 853.00216 974.600517 
L 854.232211 974.600517 
L 855.462261 993.315353 
L 856.692311 993.315353 
L 857.922361 1034.673014 
L 859.152412 1034.673014 
L 860.382462 1003.70133 
L 861.612512 1003.70133 
L 862.842562 998.507288 
L 864.072613 998.507288 
L 865.302663 1012.358542 
L 866.532713 1012.358542 
L 867.762763 1032.08768 
L 868.992814 1032.08768 
L 870.222864 1002.151079 
L 872.682964 1002.151079 
L 873.913015 1000.262087 
L 875.143065 1000.262087 
L 876.373115 992.736443 
L 877.603166 974.750385 
L 878.833216 974.750385 
L 880.063266 982.407755 
L 881.293316 982.407755 
L 882.523367 970.762931 
L 883.753417 970.762931 
L 884.983467 973.066755 
L 886.213517 973.066755 
L 887.443568 981.040102 
L 888.673618 946.121314 
L 889.903668 946.121314 
L 891.133718 968.759267 
L 892.363769 968.759267 
L 893.593819 971.065401 
L 894.823869 971.065401 
L 896.053919 968.87228 
L 897.28397 987.102725 
L 898.51402 987.102725 
L 899.74407 994.662726 
L 900.97412 994.662726 
L 902.204171 984.3467 
L 903.434221 984.3467 
L 904.664271 980.814417 
L 905.894321 980.814417 
L 907.124372 972.944861 
L 908.354422 986.12638 
L 909.584472 986.12638 
L 910.814523 1005.257737 
L 912.044573 1005.257737 
L 913.274623 1008.826671 
L 914.504673 1008.826671 
L 915.734724 1009.120473 
L 916.964774 1009.120473 
L 918.194824 1021.77341 
L 919.424874 1036.852898 
L 920.654925 1036.852898 
L 921.884975 1043.728555 
L 923.115025 1043.728555 
L 924.345075 1074.252817 
L 925.575126 1074.252817 
L 926.805176 1061.444089 
L 928.035226 1061.444089 
L 929.265276 1104.924562 
L 930.495327 1104.924562 
L 931.725377 1093.509479 
L 932.955427 1093.509479 
L 934.185477 1098.076581 
L 935.415528 1098.076581 
L 936.645578 1088.098552 
L 937.875628 1088.098552 
L 939.105679 1072.30577 
L 940.335729 1072.30577 
L 941.565779 1069.379283 
L 942.795829 1069.379283 
L 944.02588 1061.645921 
L 945.25593 1061.645921 
L 946.48598 1067.113694 
L 947.71603 1067.113694 
L 948.946081 1061.383142 
L 950.176131 1038.504771 
L 951.406181 1038.504771 
L 952.636231 1039.306134 
L 953.866282 1039.306134 
L 955.096332 1033.719289 
L 956.326382 1033.719289 
L 957.556432 1041.535844 
L 958.786483 1041.535844 
L 961.246583 1013.088665 
L 962.476633 1013.088665 
L 963.706684 1011.125978 
L 966.166784 1011.125978 
L 967.396834 1015.836144 
L 968.626885 1015.836144 
L 969.856935 989.8758 
L 971.086985 989.8758 
L 972.317036 973.221473 
L 973.547086 988.966775 
L 974.777136 988.966775 
L 976.007186 958.512784 
L 977.237237 958.512784 
L 978.467287 970.853518 
L 979.697337 970.853518 
L 980.927387 973.114998 
L 982.157438 973.114998 
L 983.387488 954.021485 
L 984.617538 954.021485 
L 985.847588 986.075131 
L 987.077639 986.075131 
L 988.307689 970.839594 
L 989.537739 982.832296 
L 990.767789 982.832296 
L 991.99784 1006.951318 
L 993.22789 1006.951318 
L 994.45794 1026.513937 
L 995.68799 1026.513937 
L 996.918041 1018.203478 
L 999.378141 1018.118132 
L 1000.608192 1046.142344 
L 1001.838242 1046.142344 
L 1003.068292 1034.778702 
L 1004.298342 1034.778702 
L 1005.528393 1050.167544 
L 1006.758443 1050.167544 
L 1007.988493 1045.407251 
L 1011.678644 1045.427102 
L 1012.908694 1047.900366 
L 1014.138744 1047.900366 
L 1015.368795 1057.632486 
L 1016.598845 1057.632486 
L 1017.828895 1047.906411 
L 1019.058945 1047.906411 
L 1020.288996 1071.649656 
L 1021.519046 1071.649656 
L 1022.749096 1056.007519 
L 1023.979146 1056.007519 
L 1025.209197 1070.904643 
L 1026.439247 1024.124734 
L 1027.669297 1024.124734 
L 1028.899348 999.613922 
L 1030.129398 999.613922 
L 1031.359448 991.392385 
L 1032.589498 991.392385 
L 1033.819549 953.641645 
L 1035.049599 953.641645 
L 1036.279649 934.528544 
L 1037.509699 908.156446 
L 1038.73975 908.156446 
L 1039.9698 894.976546 
L 1041.19985 894.976546 
L 1042.4299 868.820732 
L 1043.659951 868.820732 
L 1044.890001 827.173926 
L 1046.120051 827.173926 
L 1047.350101 795.374443 
L 1048.580152 778.44772 
L 1049.810202 778.44772 
L 1051.040252 768.759379 
L 1052.270302 768.759379 
L 1053.500353 739.596771 
L 1054.730403 739.596771 
L 1055.960453 741.647484 
L 1057.190503 741.647484 
L 1058.420554 756.733349 
L 1059.650604 756.733349 
L 1060.880654 814.917086 
L 1062.110705 884.627937 
L 1063.340755 884.627937 
L 1064.570805 900.86513 
L 1067.030906 900.86513 
L 1068.260956 939.832745 
L 1069.491006 985.710042 
L 1070.721056 985.710042 
L 1071.951107 1032.83796 
L 1073.181157 1032.83796 
L 1074.411207 1058.017027 
L 1075.641257 1058.017027 
L 1076.871308 1076.194177 
L 1078.101358 1075.530898 
L 1079.331408 1075.530898 
L 1080.561458 1088.355417 
L 1081.791509 1088.355417 
L 1083.021559 1089.495525 
L 1084.251609 1089.495525 
L 1085.481659 1096.917743 
L 1086.71171 1096.917743 
L 1087.94176 1078.069682 
L 1089.17181 1078.069682 
L 1090.401861 1069.453786 
L 1091.631911 1071.05914 
L 1092.861961 1071.05914 
L 1094.092011 1083.195107 
L 1095.322062 1083.195107 
L 1096.552112 1072.930686 
L 1097.782162 1072.930686 
L 1099.012212 1103.166647 
L 1100.242263 1103.166647 
L 1101.472313 1142.141078 
L 1102.702363 1152.54806 
L 1103.932413 1152.54806 
L 1105.162464 1181.499192 
L 1106.392514 1181.499192 
L 1107.622564 1208.55133 
L 1108.852614 1208.55133 
L 1110.082665 1206.888246 
L 1111.312715 1206.888246 
L 1112.542765 1231.2 
L 1113.772815 1231.2 
L 1115.002866 1220.853156 
L 1116.232916 1220.853156 
L 1117.462966 1192.591867 
L 1118.693016 1179.523216 
L 1119.923067 1179.523216 
L 1121.153117 1160.716188 
L 1122.383167 1160.716188 
L 1123.613218 1126.182252 
L 1124.843268 1126.182252 
L 1126.073318 1099.854413 
L 1127.303368 1099.854413 
L 1128.533419 1069.823357 
L 1129.763469 1021.047067 
L 1130.993519 1021.047067 
L 1132.223569 997.875329 
L 1133.45362 997.875329 
L 1134.68367 954.783054 
L 1135.91372 954.783054 
L 1137.14377 947.436664 
L 1138.373821 920.72412 
L 1139.603871 920.72412 
L 1140.833921 916.290367 
L 1142.063971 916.290367 
L 1143.294022 918.353845 
L 1144.524072 918.353845 
L 1145.754122 888.913267 
L 1146.984172 888.913267 
L 1149.444273 878.452738 
L 1150.674323 878.452738 
L 1151.904374 866.215848 
L 1153.134424 866.215848 
L 1154.364474 857.845476 
L 1155.594524 857.845476 
L 1156.824575 881.837259 
L 1158.054625 881.837259 
L 1159.284675 894.086246 
L 1161.744776 894.028883 
L 1162.974826 913.505876 
L 1164.204876 913.505876 
L 1165.434926 924.222688 
L 1166.664977 924.222688 
L 1167.895027 944.59112 
L 1169.125077 944.59112 
L 1170.355127 975.268437 
L 1171.585178 975.268437 
L 1172.815228 1004.216328 
L 1174.045278 1004.216328 
L 1175.275328 1019.988821 
L 1176.505379 1019.988821 
L 1177.735429 1061.544416 
L 1178.965479 1061.544416 
L 1180.195529 1073.373249 
L 1181.42558 1073.373249 
L 1182.65563 1105.69542 
L 1183.88568 1105.69542 
L 1185.115731 1110.53945 
L 1186.345781 1110.53945 
L 1188.805881 1145.545587 
L 1190.035932 1145.545587 
L 1191.265982 1149.796946 
L 1192.496032 1149.796946 
L 1193.726082 1161.093951 
L 1194.956133 1161.093951 
L 1196.186183 1170.035778 
L 1197.416233 1171.570102 
L 1198.646283 1171.570102 
L 1199.876334 1191.375025 
L 1201.106384 1191.375025 
L 1202.336434 1182.602549 
L 1203.566484 1182.602549 
L 1204.796535 1184.698768 
L 1206.026585 1162.085864 
L 1207.256635 1162.085864 
L 1208.486685 1156.340806 
L 1210.946786 1156.340806 
L 1212.176836 1171.45964 
L 1213.406887 1171.45964 
L 1214.636937 1091.968712 
L 1215.866987 1060.506283 
L 1217.097037 1060.506283 
L 1218.327088 1055.122104 
L 1219.557138 1055.122104 
L 1220.787188 1003.23022 
L 1222.017238 1003.23022 
L 1223.247289 962.199742 
L 1224.477339 962.199742 
L 1225.707389 952.251475 
L 1228.16749 952.251475 
L 1229.39754 917.416753 
L 1230.62759 917.416753 
L 1231.85764 932.365489 
L 1233.087691 954.388232 
L 1234.317741 954.388232 
L 1235.547791 966.445154 
L 1236.777841 966.445154 
L 1238.007892 974.401659 
L 1239.237942 974.401659 
L 1240.467992 978.690408 
L 1241.698043 978.690408 
L 1242.928093 987.075943 
L 1244.158143 987.075943 
L 1245.388193 975.566694 
L 1246.618244 975.566694 
L 1247.848294 1001.867175 
L 1249.078344 1001.867175 
L 1250.308394 980.875768 
L 1251.538445 980.875768 
L 1252.768495 986.362662 
L 1253.998545 986.362662 
L 1255.228595 971.247639 
L 1256.458646 971.247639 
L 1257.688696 963.629453 
L 1258.918746 963.629453 
L 1260.148796 973.446646 
L 1261.378847 973.446646 
L 1262.608897 963.927714 
L 1263.838947 963.927714 
L 1265.068997 975.050241 
L 1266.299048 975.050241 
L 1267.529098 978.209499 
L 1268.759148 978.209499 
L 1269.989198 994.751772 
L 1271.219249 985.802155 
L 1272.449299 985.802155 
L 1273.679349 984.055946 
L 1277.3695 984.055946 
L 1278.59955 996.460774 
L 1279.829601 965.248515 
L 1281.059651 965.248515 
L 1282.289701 979.563476 
L 1284.749802 979.563476 
L 1285.979852 995.996551 
L 1287.209902 995.996551 
L 1288.439952 953.262675 
L 1289.670003 953.262675 
L 1290.900053 987.236107 
L 1292.130103 987.236107 
L 1293.360153 986.535732 
L 1294.590204 986.535732 
L 1295.820254 1027.36639 
L 1297.050304 1025.043538 
L 1298.280354 1025.043538 
L 1299.510405 1028.105332 
L 1300.740455 1028.105332 
L 1301.970505 1041.716137 
L 1303.200556 1041.716137 
L 1304.430606 1065.193469 
L 1305.660656 1065.193469 
L 1306.890706 1067.245777 
L 1308.120757 1067.245777 
L 1309.350807 1073.051901 
L 1311.810907 1073.051901 
L 1313.040958 1079.29245 
L 1314.271008 1055.684746 
L 1315.501058 1055.684746 
L 1316.731108 1065.230065 
L 1317.961159 1065.230065 
L 1319.191209 1075.663227 
L 1320.421259 1075.663227 
L 1322.88136 1058.565033 
L 1324.11141 1058.565033 
L 1325.34146 1056.017214 
L 1326.57151 1056.017214 
L 1327.801561 1050.278817 
L 1329.031611 1050.278817 
L 1330.261661 1060.910279 
L 1331.491711 1060.910279 
L 1332.721762 1048.617869 
L 1333.951812 1048.617869 
L 1335.181862 1047.750195 
L 1336.411913 1038.192418 
L 1337.641963 1038.192418 
L 1338.872013 1051.682963 
L 1340.102063 1051.682963 
L 1341.332114 1037.251725 
L 1342.562164 1037.251725 
L 1343.792214 1022.889075 
L 1345.022264 1022.889075 
L 1346.252315 1031.127722 
L 1347.482365 997.433186 
L 1348.712415 997.433186 
L 1349.942465 1022.114133 
L 1351.172516 1022.114133 
L 1352.402566 987.015932 
L 1353.632616 987.015932 
L 1354.862666 983.664333 
L 1356.092717 984.653495 
L 1357.322767 984.653495 
L 1358.552817 979.318505 
L 1359.782867 979.318505 
L 1361.012918 990.850454 
L 1362.242968 990.850454 
L 1363.473018 975.381551 
L 1364.703069 975.381551 
L 1365.933119 952.719222 
L 1367.163169 952.719222 
L 1368.393219 937.990702 
L 1369.62327 942.294059 
L 1370.85332 942.294059 
L 1372.08337 906.872073 
L 1373.31342 906.872073 
L 1374.543471 901.205042 
L 1375.773521 901.205042 
L 1377.003571 892.828644 
L 1378.233621 882.236282 
L 1379.463672 882.236282 
L 1380.693722 882.92006 
L 1381.923772 882.92006 
L 1383.153822 896.44254 
L 1384.383873 896.44254 
L 1385.613923 925.878065 
L 1386.843973 925.878065 
L 1388.074023 954.605688 
L 1389.304074 965.99985 
L 1390.534124 965.99985 
L 1391.764174 1016.177147 
L 1392.994224 1016.177147 
L 1394.224275 994.331861 
L 1395.454325 994.331861 
L 1396.684375 1045.462028 
L 1397.914426 1045.462028 
L 1399.144476 1067.55794 
L 1400.374526 1067.55794 
L 1401.604576 1101.217945 
L 1402.834627 1108.049079 
L 1404.064677 1108.049079 
L 1405.294727 1106.666886 
L 1406.524777 1106.666886 
L 1407.754828 1139.450881 
L 1408.984878 1139.450881 
L 1410.214928 1140.830521 
L 1411.444978 1149.525305 
L 1412.675029 1149.525305 
L 1413.905079 1178.687616 
L 1415.135129 1178.687616 
L 1416.365179 1186.257214 
L 1417.59523 1186.257214 
L 1418.82528 1214.269382 
L 1420.05533 1204.449263 
L 1421.28538 1204.449263 
L 1422.515431 1196.610689 
L 1423.745481 1196.610689 
L 1424.975531 1194.251023 
L 1426.205582 1194.251023 
L 1427.435632 1193.178203 
L 1428.665682 1193.178203 
L 1429.895732 1195.517445 
L 1431.125783 1165.354398 
L 1432.355833 1165.354398 
L 1433.585883 1157.040091 
L 1434.815933 1157.040091 
L 1436.045984 1139.920508 
L 1437.276034 1139.920508 
L 1438.506084 1120.854956 
L 1439.736134 1120.854956 
L 1440.966185 1106.27133 
L 1442.196235 1061.864302 
L 1443.426285 1061.864302 
L 1444.656335 1050.71376 
L 1445.886386 1050.71376 
L 1447.116436 1043.004175 
L 1448.346486 1043.004175 
L 1449.576536 1013.336618 
L 1450.806587 988.003612 
L 1452.036637 978.45289 
L 1453.266687 978.45289 
L 1454.496738 974.231901 
L 1455.726788 974.231901 
L 1456.956838 956.539028 
L 1458.186888 956.539028 
L 1459.416939 951.527176 
L 1460.646989 951.527176 
L 1461.877039 930.837847 
L 1463.107089 930.837847 
L 1464.33714 888.407934 
L 1465.56719 890.501336 
L 1466.79724 890.501336 
L 1468.02729 891.674495 
L 1469.257341 891.674495 
L 1470.487391 906.797149 
L 1471.717441 906.797149 
L 1472.947491 902.564792 
L 1474.177542 899.509685 
L 1475.407592 899.509685 
L 1476.637642 917.631676 
L 1477.867692 917.631676 
L 1479.097743 931.510645 
L 1480.327793 931.510645 
L 1481.557843 927.110737 
L 1482.787893 937.498687 
L 1484.017944 969.925481 
L 1485.247994 969.925481 
L 1486.478044 961.265018 
L 1487.708095 961.265018 
L 1488.938145 980.997826 
L 1490.168195 980.997826 
L 1491.398245 987.501866 
L 1492.628296 1023.760325 
L 1493.858346 1023.760325 
L 1495.088396 1013.795251 
L 1496.318446 1013.795251 
L 1497.548497 1042.585775 
L 1498.778547 1042.585775 
L 1500.008597 1017.907561 
L 1502.468698 1017.907561 
L 1503.698748 1059.269373 
L 1504.928798 1048.794619 
L 1506.158848 1106.27912 
L 1507.388899 1106.27912 
L 1508.618949 1110.812224 
L 1509.848999 1132.448841 
L 1511.079049 1132.448841 
L 1512.3091 1122.716328 
L 1513.53915 1122.716328 
L 1514.7692 1141.310372 
L 1515.999251 1141.310372 
L 1517.229301 1151.607747 
L 1518.459351 1151.607747 
L 1519.689401 1118.35801 
L 1520.919452 1118.35801 
L 1522.149502 1120.691969 
L 1523.379552 1120.691969 
L 1524.609602 1120.077413 
L 1525.839653 1091.320422 
L 1527.069703 1091.320422 
L 1528.299753 1092.624375 
L 1529.529803 1092.624375 
L 1530.759854 1106.667994 
L 1531.989904 1106.667994 
L 1533.219954 1074.98563 
L 1534.450004 1074.98563 
L 1536.910105 1094.648864 
L 1538.140155 1094.648864 
L 1539.370205 1077.27404 
L 1540.600256 1077.27404 
L 1541.830306 1058.294386 
L 1543.060356 1058.294386 
L 1544.290406 1071.742656 
L 1545.520457 1071.742656 
L 1546.750507 1038.093962 
L 1547.980557 1038.093962 
L 1549.210608 1027.321513 
L 1550.440658 1027.321513 
L 1551.670708 1024.135772 
L 1552.900758 1016.496496 
L 1554.130809 1016.496496 
L 1555.360859 1021.650312 
L 1556.590909 1021.650312 
L 1556.590909 1021.650312 
" style="fill:none;stroke:#000000;stroke-linecap:square;stroke-width:1.5;"/>
   </g>
   <g id="line2d_34">
    <path clip-path="url(#p6d6968c528)" d="M 288.409091 223.2 
L 1556.590909 223.2 
L 1556.590909 223.2 
" style="fill:none;stroke:#ff0000;stroke-linecap:square;stroke-width:1.5;"/>
   </g>
   <g id="patch_4">
    <path d="M 225 1281.6 
L 225 172.8 
" style="fill:none;stroke:#000000;stroke-linecap:square;stroke-linejoin:miter;stroke-width:0.8;"/>
   </g>
   <g id="patch_5">
    <path d="M 1620 1281.6 
L 1620 172.8 
" style="fill:none;stroke:#000000;stroke-linecap:square;stroke-linejoin:miter;stroke-width:0.8;"/>
   </g>
   <g id="patch_6">
    <path d="M 225 1281.6 
L 1620 1281.6 
" style="fill:none;stroke:#000000;stroke-linecap:square;stroke-linejoin:miter;stroke-width:0.8;"/>
   </g>
   <g id="patch_7">
    <path d="M 225 172.8 
L 1620 172.8 
" style="fill:none;stroke:#000000;stroke-linecap:square;stroke-linejoin:miter;stroke-width:0.8;"/>
   </g>
   <g id="patch_8">
    <path d="M 755.79433 61.077285 
Q 749.060065 539.247836 742.341544 1016.300463 
" style="fill:none;stroke:#000000;stroke-linecap:round;"/>
    <path d="M 744.397673 1012.329024 
L 742.341544 1016.300463 
L 740.39807 1012.272696 
" style="fill:none;stroke:#000000;stroke-linecap:round;"/>
   </g>
   <g id="text_17">
    <!-- Close -->
    <defs>
     <path d="M 64.40625 67.28125 
L 64.40625 56.890625 
Q 59.421875 61.53125 53.78125 63.8125 
Q 48.140625 66.109375 41.796875 66.109375 
Q 29.296875 66.109375 22.65625 58.46875 
Q 16.015625 50.828125 16.015625 36.375 
Q 16.015625 21.96875 22.65625 14.328125 
Q 29.296875 6.6875 41.796875 6.6875 
Q 48.140625 6.6875 53.78125 8.984375 
Q 59.421875 11.28125 64.40625 15.921875 
L 64.40625 5.609375 
Q 59.234375 2.09375 53.4375 0.328125 
Q 47.65625 -1.421875 41.21875 -1.421875 
Q 24.65625 -1.421875 15.125 8.703125 
Q 5.609375 18.84375 5.609375 36.375 
Q 5.609375 53.953125 15.125 64.078125 
Q 24.65625 74.21875 41.21875 74.21875 
Q 47.75 74.21875 53.53125 72.484375 
Q 59.328125 70.75 64.40625 67.28125 
z
" id="DejaVuSans-43"/>
     <path d="M 9.421875 75.984375 
L 18.40625 75.984375 
L 18.40625 0 
L 9.421875 0 
z
" id="DejaVuSans-6c"/>
     <path d="M 30.609375 48.390625 
Q 23.390625 48.390625 19.1875 42.75 
Q 14.984375 37.109375 14.984375 27.296875 
Q 14.984375 17.484375 19.15625 11.84375 
Q 23.34375 6.203125 30.609375 6.203125 
Q 37.796875 6.203125 41.984375 11.859375 
Q 46.1875 17.53125 46.1875 27.296875 
Q 46.1875 37.015625 41.984375 42.703125 
Q 37.796875 48.390625 30.609375 48.390625 
z
M 30.609375 56 
Q 42.328125 56 49.015625 48.375 
Q 55.71875 40.765625 55.71875 27.296875 
Q 55.71875 13.875 49.015625 6.21875 
Q 42.328125 -1.421875 30.609375 -1.421875 
Q 18.84375 -1.421875 12.171875 6.21875 
Q 5.515625 13.875 5.515625 27.296875 
Q 5.515625 40.765625 12.171875 48.375 
Q 18.84375 56 30.609375 56 
z
" id="DejaVuSans-6f"/>
     <path d="M 44.28125 53.078125 
L 44.28125 44.578125 
Q 40.484375 46.53125 36.375 47.5 
Q 32.28125 48.484375 27.875 48.484375 
Q 21.1875 48.484375 17.84375 46.4375 
Q 14.5 44.390625 14.5 40.28125 
Q 14.5 37.15625 16.890625 35.375 
Q 19.28125 33.59375 26.515625 31.984375 
L 29.59375 31.296875 
Q 39.15625 29.25 43.1875 25.515625 
Q 47.21875 21.78125 47.21875 15.09375 
Q 47.21875 7.46875 41.1875 3.015625 
Q 35.15625 -1.421875 24.609375 -1.421875 
Q 20.21875 -1.421875 15.453125 -0.5625 
Q 10.6875 0.296875 5.421875 2 
L 5.421875 11.28125 
Q 10.40625 8.6875 15.234375 7.390625 
Q 20.0625 6.109375 24.8125 6.109375 
Q 31.15625 6.109375 34.5625 8.28125 
Q 37.984375 10.453125 37.984375 14.40625 
Q 37.984375 18.0625 35.515625 20.015625 
Q 33.0625 21.96875 24.703125 23.78125 
L 21.578125 24.515625 
Q 13.234375 26.265625 9.515625 29.90625 
Q 5.8125 33.546875 5.8125 39.890625 
Q 5.8125 47.609375 11.28125 51.796875 
Q 16.75 56 26.8125 56 
Q 31.78125 56 36.171875 55.265625 
Q 40.578125 54.546875 44.28125 53.078125 
z
" id="DejaVuSans-73"/>
     <path d="M 56.203125 29.59375 
L 56.203125 25.203125 
L 14.890625 25.203125 
Q 15.484375 15.921875 20.484375 11.0625 
Q 25.484375 6.203125 34.421875 6.203125 
Q 39.59375 6.203125 44.453125 7.46875 
Q 49.3125 8.734375 54.109375 11.28125 
L 54.109375 2.78125 
Q 49.265625 0.734375 44.1875 -0.34375 
Q 39.109375 -1.421875 33.890625 -1.421875 
Q 20.796875 -1.421875 13.15625 6.1875 
Q 5.515625 13.8125 5.515625 26.8125 
Q 5.515625 40.234375 12.765625 48.109375 
Q 20.015625 56 32.328125 56 
Q 43.359375 56 49.78125 48.890625 
Q 56.203125 41.796875 56.203125 29.59375 
z
M 47.21875 32.234375 
Q 47.125 39.59375 43.09375 43.984375 
Q 39.0625 48.390625 32.421875 48.390625 
Q 24.90625 48.390625 20.390625 44.140625 
Q 15.875 39.890625 15.1875 32.171875 
z
" id="DejaVuSans-65"/>
    </defs>
    <g transform="translate(742.297637 55.00351)scale(0.1 -0.1)">
     <use xlink:href="#DejaVuSans-43"/>
     <use x="69.824219" xlink:href="#DejaVuSans-6c"/>
     <use x="97.607422" xlink:href="#DejaVuSans-6f"/>
     <use x="158.789062" xlink:href="#DejaVuSans-73"/>
     <use x="210.888672" xlink:href="#DejaVuSans-65"/>
    </g>
   </g>
   <g id="legend_1">
    <g id="patch_9">
     <path d="M 232 1276.6 
L 328.135938 1276.6 
Q 330.135938 1276.6 330.135938 1274.6 
L 330.135938 1231.565625 
Q 330.135938 1229.565625 328.135938 1229.565625 
L 232 1229.565625 
Q 230 1229.565625 230 1231.565625 
L 230 1274.6 
Q 230 1276.6 232 1276.6 
z
" style="fill:#ffffff;opacity:0.8;stroke:#cccccc;stroke-linejoin:miter;"/>
    </g>
    <g id="line2d_35">
     <path d="M 234 1237.664062 
L 254 1237.664062 
" style="fill:none;stroke:#000000;stroke-linecap:square;stroke-width:1.5;"/>
    </g>
    <g id="line2d_36"/>
    <g id="text_18">
     <!-- Roll position -->
     <defs>
      <path d="M 44.390625 34.1875 
Q 47.5625 33.109375 50.5625 29.59375 
Q 53.5625 26.078125 56.59375 19.921875 
L 66.609375 0 
L 56 0 
L 46.6875 18.703125 
Q 43.0625 26.03125 39.671875 28.421875 
Q 36.28125 30.8125 30.421875 30.8125 
L 19.671875 30.8125 
L 19.671875 0 
L 9.8125 0 
L 9.8125 72.90625 
L 32.078125 72.90625 
Q 44.578125 72.90625 50.734375 67.671875 
Q 56.890625 62.453125 56.890625 51.90625 
Q 56.890625 45.015625 53.6875 40.46875 
Q 50.484375 35.9375 44.390625 34.1875 
z
M 19.671875 64.796875 
L 19.671875 38.921875 
L 32.078125 38.921875 
Q 39.203125 38.921875 42.84375 42.21875 
Q 46.484375 45.515625 46.484375 51.90625 
Q 46.484375 58.296875 42.84375 61.546875 
Q 39.203125 64.796875 32.078125 64.796875 
z
" id="DejaVuSans-52"/>
      <path id="DejaVuSans-20"/>
      <path d="M 18.109375 8.203125 
L 18.109375 -20.796875 
L 9.078125 -20.796875 
L 9.078125 54.6875 
L 18.109375 54.6875 
L 18.109375 46.390625 
Q 20.953125 51.265625 25.265625 53.625 
Q 29.59375 56 35.59375 56 
Q 45.5625 56 51.78125 48.09375 
Q 58.015625 40.1875 58.015625 27.296875 
Q 58.015625 14.40625 51.78125 6.484375 
Q 45.5625 -1.421875 35.59375 -1.421875 
Q 29.59375 -1.421875 25.265625 0.953125 
Q 20.953125 3.328125 18.109375 8.203125 
z
M 48.6875 27.296875 
Q 48.6875 37.203125 44.609375 42.84375 
Q 40.53125 48.484375 33.40625 48.484375 
Q 26.265625 48.484375 22.1875 42.84375 
Q 18.109375 37.203125 18.109375 27.296875 
Q 18.109375 17.390625 22.1875 11.75 
Q 26.265625 6.109375 33.40625 6.109375 
Q 40.53125 6.109375 44.609375 11.75 
Q 48.6875 17.390625 48.6875 27.296875 
z
" id="DejaVuSans-70"/>
      <path d="M 9.421875 54.6875 
L 18.40625 54.6875 
L 18.40625 0 
L 9.421875 0 
z
M 9.421875 75.984375 
L 18.40625 75.984375 
L 18.40625 64.59375 
L 9.421875 64.59375 
z
" id="DejaVuSans-69"/>
      <path d="M 18.3125 70.21875 
L 18.3125 54.6875 
L 36.8125 54.6875 
L 36.8125 47.703125 
L 18.3125 47.703125 
L 18.3125 18.015625 
Q 18.3125 11.328125 20.140625 9.421875 
Q 21.96875 7.515625 27.59375 7.515625 
L 36.8125 7.515625 
L 36.8125 0 
L 27.59375 0 
Q 17.1875 0 13.234375 3.875 
Q 9.28125 7.765625 9.28125 18.015625 
L 9.28125 47.703125 
L 2.6875 47.703125 
L 2.6875 54.6875 
L 9.28125 54.6875 
L 9.28125 70.21875 
z
" id="DejaVuSans-74"/>
      <path d="M 54.890625 33.015625 
L 54.890625 0 
L 45.90625 0 
L 45.90625 32.71875 
Q 45.90625 40.484375 42.875 44.328125 
Q 39.84375 48.1875 33.796875 48.1875 
Q 26.515625 48.1875 22.3125 43.546875 
Q 18.109375 38.921875 18.109375 30.90625 
L 18.109375 0 
L 9.078125 0 
L 9.078125 54.6875 
L 18.109375 54.6875 
L 18.109375 46.1875 
Q 21.34375 51.125 25.703125 53.5625 
Q 30.078125 56 35.796875 56 
Q 45.21875 56 50.046875 50.171875 
Q 54.890625 44.34375 54.890625 33.015625 
z
" id="DejaVuSans-6e"/>
     </defs>
     <g transform="translate(262 1241.164062)scale(0.1 -0.1)">
      <use xlink:href="#DejaVuSans-52"/>
      <use x="69.419922" xlink:href="#DejaVuSans-6f"/>
      <use x="130.601562" xlink:href="#DejaVuSans-6c"/>
      <use x="158.384766" xlink:href="#DejaVuSans-6c"/>
      <use x="186.167969" xlink:href="#DejaVuSans-20"/>
      <use x="217.955078" xlink:href="#DejaVuSans-70"/>
      <use x="281.431641" xlink:href="#DejaVuSans-6f"/>
      <use x="342.613281" xlink:href="#DejaVuSans-73"/>
      <use x="394.712891" xlink:href="#DejaVuSans-69"/>
      <use x="422.496094" xlink:href="#DejaVuSans-74"/>
      <use x="461.705078" xlink:href="#DejaVuSans-69"/>
      <use x="489.488281" xlink:href="#DejaVuSans-6f"/>
      <use x="550.669922" xlink:href="#DejaVuSans-6e"/>
     </g>
    </g>
    <g id="line2d_37">
     <path d="M 234 1252.342187 
L 254 1252.342187 
" style="fill:none;stroke:#ff0000;stroke-linecap:square;stroke-width:1.5;"/>
    </g>
    <g id="line2d_38"/>
    <g id="text_19">
     <!-- goal -->
     <defs>
      <path d="M 45.40625 27.984375 
Q 45.40625 37.75 41.375 43.109375 
Q 37.359375 48.484375 30.078125 48.484375 
Q 22.859375 48.484375 18.828125 43.109375 
Q 14.796875 37.75 14.796875 27.984375 
Q 14.796875 18.265625 18.828125 12.890625 
Q 22.859375 7.515625 30.078125 7.515625 
Q 37.359375 7.515625 41.375 12.890625 
Q 45.40625 18.265625 45.40625 27.984375 
z
M 54.390625 6.78125 
Q 54.390625 -7.171875 48.1875 -13.984375 
Q 42 -20.796875 29.203125 -20.796875 
Q 24.46875 -20.796875 20.265625 -20.09375 
Q 16.0625 -19.390625 12.109375 -17.921875 
L 12.109375 -9.1875 
Q 16.0625 -11.328125 19.921875 -12.34375 
Q 23.78125 -13.375 27.78125 -13.375 
Q 36.625 -13.375 41.015625 -8.765625 
Q 45.40625 -4.15625 45.40625 5.171875 
L 45.40625 9.625 
Q 42.625 4.78125 38.28125 2.390625 
Q 33.9375 0 27.875 0 
Q 17.828125 0 11.671875 7.65625 
Q 5.515625 15.328125 5.515625 27.984375 
Q 5.515625 40.671875 11.671875 48.328125 
Q 17.828125 56 27.875 56 
Q 33.9375 56 38.28125 53.609375 
Q 42.625 51.21875 45.40625 46.390625 
L 45.40625 54.6875 
L 54.390625 54.6875 
z
" id="DejaVuSans-67"/>
      <path d="M 34.28125 27.484375 
Q 23.390625 27.484375 19.1875 25 
Q 14.984375 22.515625 14.984375 16.5 
Q 14.984375 11.71875 18.140625 8.90625 
Q 21.296875 6.109375 26.703125 6.109375 
Q 34.1875 6.109375 38.703125 11.40625 
Q 43.21875 16.703125 43.21875 25.484375 
L 43.21875 27.484375 
z
M 52.203125 31.203125 
L 52.203125 0 
L 43.21875 0 
L 43.21875 8.296875 
Q 40.140625 3.328125 35.546875 0.953125 
Q 30.953125 -1.421875 24.3125 -1.421875 
Q 15.921875 -1.421875 10.953125 3.296875 
Q 6 8.015625 6 15.921875 
Q 6 25.140625 12.171875 29.828125 
Q 18.359375 34.515625 30.609375 34.515625 
L 43.21875 34.515625 
L 43.21875 35.40625 
Q 43.21875 41.609375 39.140625 45 
Q 35.0625 48.390625 27.6875 48.390625 
Q 23 48.390625 18.546875 47.265625 
Q 14.109375 46.140625 10.015625 43.890625 
L 10.015625 52.203125 
Q 14.9375 54.109375 19.578125 55.046875 
Q 24.21875 56 28.609375 56 
Q 40.484375 56 46.34375 49.84375 
Q 52.203125 43.703125 52.203125 31.203125 
z
" id="DejaVuSans-61"/>
     </defs>
     <g transform="translate(262 1255.842187)scale(0.1 -0.1)">
      <use xlink:href="#DejaVuSans-67"/>
      <use x="63.476562" xlink:href="#DejaVuSans-6f"/>
      <use x="124.658203" xlink:href="#DejaVuSans-61"/>
      <use x="185.9375" xlink:href="#DejaVuSans-6c"/>
     </g>
    </g>
    <g id="patch_10">
     <path d="M 234 1270.520313 
L 254 1270.520313 
L 254 1263.520313 
L 234 1263.520313 
z
" style="opacity:0.3;"/>
    </g>
    <g id="text_20">
     <!-- NULL motion -->
     <defs>
      <path d="M 9.8125 72.90625 
L 23.09375 72.90625 
L 55.421875 11.921875 
L 55.421875 72.90625 
L 64.984375 72.90625 
L 64.984375 0 
L 51.703125 0 
L 19.390625 60.984375 
L 19.390625 0 
L 9.8125 0 
z
" id="DejaVuSans-4e"/>
      <path d="M 8.6875 72.90625 
L 18.609375 72.90625 
L 18.609375 28.609375 
Q 18.609375 16.890625 22.84375 11.734375 
Q 27.09375 6.59375 36.625 6.59375 
Q 46.09375 6.59375 50.34375 11.734375 
Q 54.59375 16.890625 54.59375 28.609375 
L 54.59375 72.90625 
L 64.5 72.90625 
L 64.5 27.390625 
Q 64.5 13.140625 57.4375 5.859375 
Q 50.390625 -1.421875 36.625 -1.421875 
Q 22.796875 -1.421875 15.734375 5.859375 
Q 8.6875 13.140625 8.6875 27.390625 
z
" id="DejaVuSans-55"/>
      <path d="M 9.8125 72.90625 
L 19.671875 72.90625 
L 19.671875 8.296875 
L 55.171875 8.296875 
L 55.171875 0 
L 9.8125 0 
z
" id="DejaVuSans-4c"/>
      <path d="M 52 44.1875 
Q 55.375 50.25 60.0625 53.125 
Q 64.75 56 71.09375 56 
Q 79.640625 56 84.28125 50.015625 
Q 88.921875 44.046875 88.921875 33.015625 
L 88.921875 0 
L 79.890625 0 
L 79.890625 32.71875 
Q 79.890625 40.578125 77.09375 44.375 
Q 74.3125 48.1875 68.609375 48.1875 
Q 61.625 48.1875 57.5625 43.546875 
Q 53.515625 38.921875 53.515625 30.90625 
L 53.515625 0 
L 44.484375 0 
L 44.484375 32.71875 
Q 44.484375 40.625 41.703125 44.40625 
Q 38.921875 48.1875 33.109375 48.1875 
Q 26.21875 48.1875 22.15625 43.53125 
Q 18.109375 38.875 18.109375 30.90625 
L 18.109375 0 
L 9.078125 0 
L 9.078125 54.6875 
L 18.109375 54.6875 
L 18.109375 46.1875 
Q 21.1875 51.21875 25.484375 53.609375 
Q 29.78125 56 35.6875 56 
Q 41.65625 56 45.828125 52.96875 
Q 50 49.953125 52 44.1875 
z
" id="DejaVuSans-6d"/>
     </defs>
     <g transform="translate(262 1270.520313)scale(0.1 -0.1)">
      <use xlink:href="#DejaVuSans-4e"/>
      <use x="74.804688" xlink:href="#DejaVuSans-55"/>
      <use x="147.998047" xlink:href="#DejaVuSans-4c"/>
      <use x="203.710938" xlink:href="#DejaVuSans-4c"/>
      <use x="259.423828" xlink:href="#DejaVuSans-20"/>
      <use x="291.210938" xlink:href="#DejaVuSans-6d"/>
      <use x="388.623047" xlink:href="#DejaVuSans-6f"/>
      <use x="449.804688" xlink:href="#DejaVuSans-74"/>
      <use x="489.013672" xlink:href="#DejaVuSans-69"/>
      <use x="516.796875" xlink:href="#DejaVuSans-6f"/>
      <use x="577.978516" xlink:href="#DejaVuSans-6e"/>
     </g>
    </g>
   </g>
  </g>
 </g>
 <defs>
  <clipPath id="p6d6968c528">
   <rect height="1108.8" width="1395" x="225" y="172.8"/>
  </clipPath>
 </defs>
</svg>
