<?xml version="1.0" encoding="utf-8" standalone="no"?>
<!DOCTYPE svg PUBLIC "-//W3C//DTD SVG 1.1//EN"
  "http://www.w3.org/Graphics/SVG/1.1/DTD/svg11.dtd">
<!-- Created with matplotlib (http://matplotlib.org/) -->
<svg height="1440pt" version="1.1" viewBox="0 0 1800 1440" width="1800pt" xmlns="http://www.w3.org/2000/svg" xmlns:xlink="http://www.w3.org/1999/xlink">
 <defs>
  <style type="text/css">
*{stroke-linecap:butt;stroke-linejoin:round;}
  </style>
 </defs>
 <g id="figure_1">
  <g id="patch_1">
   <path d="M 0 1440 
L 1800 1440 
L 1800 0 
L 0 0 
z
" style="fill:#ffffff;"/>
  </g>
  <g id="axes_1">
   <g id="patch_2">
    <path d="M 225 1281.6 
L 1620 1281.6 
L 1620 172.8 
L 225 172.8 
z
" style="fill:#ffffff;"/>
   </g>
   <g id="matplotlib.axis_1">
    <g id="xtick_1">
     <g id="line2d_1">
      <path clip-path="url(#p790d188336)" d="M 288.409091 1281.6 
L 288.409091 172.8 
" style="fill:none;stroke:#b0b0b0;stroke-linecap:square;stroke-width:0.8;"/>
     </g>
     <g id="line2d_2">
      <defs>
       <path d="M 0 0 
L 0 3.5 
" id="m9f8a123b01" style="stroke:#000000;stroke-width:0.8;"/>
      </defs>
      <g>
       <use style="stroke:#000000;stroke-width:0.8;" x="288.409091" xlink:href="#m9f8a123b01" y="1281.6"/>
      </g>
     </g>
     <g id="text_1">
      <!-- 0 -->
      <defs>
       <path d="M 31.78125 66.40625 
Q 24.171875 66.40625 20.328125 58.90625 
Q 16.5 51.421875 16.5 36.375 
Q 16.5 21.390625 20.328125 13.890625 
Q 24.171875 6.390625 31.78125 6.390625 
Q 39.453125 6.390625 43.28125 13.890625 
Q 47.125 21.390625 47.125 36.375 
Q 47.125 51.421875 43.28125 58.90625 
Q 39.453125 66.40625 31.78125 66.40625 
z
M 31.78125 74.21875 
Q 44.046875 74.21875 50.515625 64.515625 
Q 56.984375 54.828125 56.984375 36.375 
Q 56.984375 17.96875 50.515625 8.265625 
Q 44.046875 -1.421875 31.78125 -1.421875 
Q 19.53125 -1.421875 13.0625 8.265625 
Q 6.59375 17.96875 6.59375 36.375 
Q 6.59375 54.828125 13.0625 64.515625 
Q 19.53125 74.21875 31.78125 74.21875 
z
" id="DejaVuSans-30"/>
      </defs>
      <g transform="translate(285.227841 1296.198437)scale(0.1 -0.1)">
       <use xlink:href="#DejaVuSans-30"/>
      </g>
     </g>
    </g>
    <g id="xtick_2">
     <g id="line2d_3">
      <path clip-path="url(#p790d188336)" d="M 534.419143 1281.6 
L 534.419143 172.8 
" style="fill:none;stroke:#b0b0b0;stroke-linecap:square;stroke-width:0.8;"/>
     </g>
     <g id="line2d_4">
      <g>
       <use style="stroke:#000000;stroke-width:0.8;" x="534.419143" xlink:href="#m9f8a123b01" y="1281.6"/>
      </g>
     </g>
     <g id="text_2">
      <!-- 200 -->
      <defs>
       <path d="M 19.1875 8.296875 
L 53.609375 8.296875 
L 53.609375 0 
L 7.328125 0 
L 7.328125 8.296875 
Q 12.9375 14.109375 22.625 23.890625 
Q 32.328125 33.6875 34.8125 36.53125 
Q 39.546875 41.84375 41.421875 45.53125 
Q 43.3125 49.21875 43.3125 52.78125 
Q 43.3125 58.59375 39.234375 62.25 
Q 35.15625 65.921875 28.609375 65.921875 
Q 23.96875 65.921875 18.8125 64.3125 
Q 13.671875 62.703125 7.8125 59.421875 
L 7.8125 69.390625 
Q 13.765625 71.78125 18.9375 73 
Q 24.125 74.21875 28.421875 74.21875 
Q 39.75 74.21875 46.484375 68.546875 
Q 53.21875 62.890625 53.21875 53.421875 
Q 53.21875 48.921875 51.53125 44.890625 
Q 49.859375 40.875 45.40625 35.40625 
Q 44.1875 33.984375 37.640625 27.21875 
Q 31.109375 20.453125 19.1875 8.296875 
z
" id="DejaVuSans-32"/>
      </defs>
      <g transform="translate(524.875393 1296.198437)scale(0.1 -0.1)">
       <use xlink:href="#DejaVuSans-32"/>
       <use x="63.623047" xlink:href="#DejaVuSans-30"/>
       <use x="127.246094" xlink:href="#DejaVuSans-30"/>
      </g>
     </g>
    </g>
    <g id="xtick_3">
     <g id="line2d_5">
      <path clip-path="url(#p790d188336)" d="M 780.429195 1281.6 
L 780.429195 172.8 
" style="fill:none;stroke:#b0b0b0;stroke-linecap:square;stroke-width:0.8;"/>
     </g>
     <g id="line2d_6">
      <g>
       <use style="stroke:#000000;stroke-width:0.8;" x="780.429195" xlink:href="#m9f8a123b01" y="1281.6"/>
      </g>
     </g>
     <g id="text_3">
      <!-- 400 -->
      <defs>
       <path d="M 37.796875 64.3125 
L 12.890625 25.390625 
L 37.796875 25.390625 
z
M 35.203125 72.90625 
L 47.609375 72.90625 
L 47.609375 25.390625 
L 58.015625 25.390625 
L 58.015625 17.1875 
L 47.609375 17.1875 
L 47.609375 0 
L 37.796875 0 
L 37.796875 17.1875 
L 4.890625 17.1875 
L 4.890625 26.703125 
z
" id="DejaVuSans-34"/>
      </defs>
      <g transform="translate(770.885445 1296.198437)scale(0.1 -0.1)">
       <use xlink:href="#DejaVuSans-34"/>
       <use x="63.623047" xlink:href="#DejaVuSans-30"/>
       <use x="127.246094" xlink:href="#DejaVuSans-30"/>
      </g>
     </g>
    </g>
    <g id="xtick_4">
     <g id="line2d_7">
      <path clip-path="url(#p790d188336)" d="M 1026.439247 1281.6 
L 1026.439247 172.8 
" style="fill:none;stroke:#b0b0b0;stroke-linecap:square;stroke-width:0.8;"/>
     </g>
     <g id="line2d_8">
      <g>
       <use style="stroke:#000000;stroke-width:0.8;" x="1026.439247" xlink:href="#m9f8a123b01" y="1281.6"/>
      </g>
     </g>
     <g id="text_4">
      <!-- 600 -->
      <defs>
       <path d="M 33.015625 40.375 
Q 26.375 40.375 22.484375 35.828125 
Q 18.609375 31.296875 18.609375 23.390625 
Q 18.609375 15.53125 22.484375 10.953125 
Q 26.375 6.390625 33.015625 6.390625 
Q 39.65625 6.390625 43.53125 10.953125 
Q 47.40625 15.53125 47.40625 23.390625 
Q 47.40625 31.296875 43.53125 35.828125 
Q 39.65625 40.375 33.015625 40.375 
z
M 52.59375 71.296875 
L 52.59375 62.3125 
Q 48.875 64.0625 45.09375 64.984375 
Q 41.3125 65.921875 37.59375 65.921875 
Q 27.828125 65.921875 22.671875 59.328125 
Q 17.53125 52.734375 16.796875 39.40625 
Q 19.671875 43.65625 24.015625 45.921875 
Q 28.375 48.1875 33.59375 48.1875 
Q 44.578125 48.1875 50.953125 41.515625 
Q 57.328125 34.859375 57.328125 23.390625 
Q 57.328125 12.15625 50.6875 5.359375 
Q 44.046875 -1.421875 33.015625 -1.421875 
Q 20.359375 -1.421875 13.671875 8.265625 
Q 6.984375 17.96875 6.984375 36.375 
Q 6.984375 53.65625 15.1875 63.9375 
Q 23.390625 74.21875 37.203125 74.21875 
Q 40.921875 74.21875 44.703125 73.484375 
Q 48.484375 72.75 52.59375 71.296875 
z
" id="DejaVuSans-36"/>
      </defs>
      <g transform="translate(1016.895497 1296.198437)scale(0.1 -0.1)">
       <use xlink:href="#DejaVuSans-36"/>
       <use x="63.623047" xlink:href="#DejaVuSans-30"/>
       <use x="127.246094" xlink:href="#DejaVuSans-30"/>
      </g>
     </g>
    </g>
    <g id="xtick_5">
     <g id="line2d_9">
      <path clip-path="url(#p790d188336)" d="M 1272.449299 1281.6 
L 1272.449299 172.8 
" style="fill:none;stroke:#b0b0b0;stroke-linecap:square;stroke-width:0.8;"/>
     </g>
     <g id="line2d_10">
      <g>
       <use style="stroke:#000000;stroke-width:0.8;" x="1272.449299" xlink:href="#m9f8a123b01" y="1281.6"/>
      </g>
     </g>
     <g id="text_5">
      <!-- 800 -->
      <defs>
       <path d="M 31.78125 34.625 
Q 24.75 34.625 20.71875 30.859375 
Q 16.703125 27.09375 16.703125 20.515625 
Q 16.703125 13.921875 20.71875 10.15625 
Q 24.75 6.390625 31.78125 6.390625 
Q 38.8125 6.390625 42.859375 10.171875 
Q 46.921875 13.96875 46.921875 20.515625 
Q 46.921875 27.09375 42.890625 30.859375 
Q 38.875 34.625 31.78125 34.625 
z
M 21.921875 38.8125 
Q 15.578125 40.375 12.03125 44.71875 
Q 8.5 49.078125 8.5 55.328125 
Q 8.5 64.0625 14.71875 69.140625 
Q 20.953125 74.21875 31.78125 74.21875 
Q 42.671875 74.21875 48.875 69.140625 
Q 55.078125 64.0625 55.078125 55.328125 
Q 55.078125 49.078125 51.53125 44.71875 
Q 48 40.375 41.703125 38.8125 
Q 48.828125 37.15625 52.796875 32.3125 
Q 56.78125 27.484375 56.78125 20.515625 
Q 56.78125 9.90625 50.3125 4.234375 
Q 43.84375 -1.421875 31.78125 -1.421875 
Q 19.734375 -1.421875 13.25 4.234375 
Q 6.78125 9.90625 6.78125 20.515625 
Q 6.78125 27.484375 10.78125 32.3125 
Q 14.796875 37.15625 21.921875 38.8125 
z
M 18.3125 54.390625 
Q 18.3125 48.734375 21.84375 45.5625 
Q 25.390625 42.390625 31.78125 42.390625 
Q 38.140625 42.390625 41.71875 45.5625 
Q 45.3125 48.734375 45.3125 54.390625 
Q 45.3125 60.0625 41.71875 63.234375 
Q 38.140625 66.40625 31.78125 66.40625 
Q 25.390625 66.40625 21.84375 63.234375 
Q 18.3125 60.0625 18.3125 54.390625 
z
" id="DejaVuSans-38"/>
      </defs>
      <g transform="translate(1262.905549 1296.198437)scale(0.1 -0.1)">
       <use xlink:href="#DejaVuSans-38"/>
       <use x="63.623047" xlink:href="#DejaVuSans-30"/>
       <use x="127.246094" xlink:href="#DejaVuSans-30"/>
      </g>
     </g>
    </g>
    <g id="xtick_6">
     <g id="line2d_11">
      <path clip-path="url(#p790d188336)" d="M 1518.459351 1281.6 
L 1518.459351 172.8 
" style="fill:none;stroke:#b0b0b0;stroke-linecap:square;stroke-width:0.8;"/>
     </g>
     <g id="line2d_12">
      <g>
       <use style="stroke:#000000;stroke-width:0.8;" x="1518.459351" xlink:href="#m9f8a123b01" y="1281.6"/>
      </g>
     </g>
     <g id="text_6">
      <!-- 1000 -->
      <defs>
       <path d="M 12.40625 8.296875 
L 28.515625 8.296875 
L 28.515625 63.921875 
L 10.984375 60.40625 
L 10.984375 69.390625 
L 28.421875 72.90625 
L 38.28125 72.90625 
L 38.28125 8.296875 
L 54.390625 8.296875 
L 54.390625 0 
L 12.40625 0 
z
" id="DejaVuSans-31"/>
      </defs>
      <g transform="translate(1505.734351 1296.198437)scale(0.1 -0.1)">
       <use xlink:href="#DejaVuSans-31"/>
       <use x="63.623047" xlink:href="#DejaVuSans-30"/>
       <use x="127.246094" xlink:href="#DejaVuSans-30"/>
       <use x="190.869141" xlink:href="#DejaVuSans-30"/>
      </g>
     </g>
    </g>
   </g>
   <g id="matplotlib.axis_2">
    <g id="ytick_1">
     <g id="line2d_13">
      <path clip-path="url(#p790d188336)" d="M 225 1281.6 
L 1620 1281.6 
" style="fill:none;stroke:#b0b0b0;stroke-linecap:square;stroke-width:0.8;"/>
     </g>
     <g id="line2d_14">
      <defs>
       <path d="M 0 0 
L -3.5 0 
" id="mae94a52389" style="stroke:#000000;stroke-width:0.8;"/>
      </defs>
      <g>
       <use style="stroke:#000000;stroke-width:0.8;" x="225" xlink:href="#mae94a52389" y="1281.6"/>
      </g>
     </g>
     <g id="text_7">
      <!-- −0.868 -->
      <defs>
       <path d="M 10.59375 35.5 
L 73.1875 35.5 
L 73.1875 27.203125 
L 10.59375 27.203125 
z
" id="DejaVuSans-2212"/>
       <path d="M 10.6875 12.40625 
L 21 12.40625 
L 21 0 
L 10.6875 0 
z
" id="DejaVuSans-2e"/>
      </defs>
      <g transform="translate(180.992188 1285.399219)scale(0.1 -0.1)">
       <use xlink:href="#DejaVuSans-2212"/>
       <use x="83.789062" xlink:href="#DejaVuSans-30"/>
       <use x="147.412109" xlink:href="#DejaVuSans-2e"/>
       <use x="179.199219" xlink:href="#DejaVuSans-38"/>
       <use x="242.822266" xlink:href="#DejaVuSans-36"/>
       <use x="306.445312" xlink:href="#DejaVuSans-38"/>
      </g>
     </g>
    </g>
    <g id="ytick_2">
     <g id="line2d_15">
      <path clip-path="url(#p790d188336)" d="M 225 1226.101875 
L 1620 1226.101875 
" style="fill:none;stroke:#b0b0b0;stroke-linecap:square;stroke-width:0.8;"/>
     </g>
     <g id="line2d_16">
      <g>
       <use style="stroke:#000000;stroke-width:0.8;" x="225" xlink:href="#mae94a52389" y="1226.101875"/>
      </g>
     </g>
     <g id="text_8">
      <!-- −0.858 -->
      <defs>
       <path d="M 10.796875 72.90625 
L 49.515625 72.90625 
L 49.515625 64.59375 
L 19.828125 64.59375 
L 19.828125 46.734375 
Q 21.96875 47.46875 24.109375 47.828125 
Q 26.265625 48.1875 28.421875 48.1875 
Q 40.625 48.1875 47.75 41.5 
Q 54.890625 34.8125 54.890625 23.390625 
Q 54.890625 11.625 47.5625 5.09375 
Q 40.234375 -1.421875 26.90625 -1.421875 
Q 22.3125 -1.421875 17.546875 -0.640625 
Q 12.796875 0.140625 7.71875 1.703125 
L 7.71875 11.625 
Q 12.109375 9.234375 16.796875 8.0625 
Q 21.484375 6.890625 26.703125 6.890625 
Q 35.15625 6.890625 40.078125 11.328125 
Q 45.015625 15.765625 45.015625 23.390625 
Q 45.015625 31 40.078125 35.4375 
Q 35.15625 39.890625 26.703125 39.890625 
Q 22.75 39.890625 18.8125 39.015625 
Q 14.890625 38.140625 10.796875 36.28125 
z
" id="DejaVuSans-35"/>
      </defs>
      <g transform="translate(180.992188 1229.901094)scale(0.1 -0.1)">
       <use xlink:href="#DejaVuSans-2212"/>
       <use x="83.789062" xlink:href="#DejaVuSans-30"/>
       <use x="147.412109" xlink:href="#DejaVuSans-2e"/>
       <use x="179.199219" xlink:href="#DejaVuSans-38"/>
       <use x="242.822266" xlink:href="#DejaVuSans-35"/>
       <use x="306.445312" xlink:href="#DejaVuSans-38"/>
      </g>
     </g>
    </g>
    <g id="ytick_3">
     <g id="line2d_17">
      <path clip-path="url(#p790d188336)" d="M 225 1170.603751 
L 1620 1170.603751 
" style="fill:none;stroke:#b0b0b0;stroke-linecap:square;stroke-width:0.8;"/>
     </g>
     <g id="line2d_18">
      <g>
       <use style="stroke:#000000;stroke-width:0.8;" x="225" xlink:href="#mae94a52389" y="1170.603751"/>
      </g>
     </g>
     <g id="text_9">
      <!-- −0.848 -->
      <g transform="translate(180.992188 1174.40297)scale(0.1 -0.1)">
       <use xlink:href="#DejaVuSans-2212"/>
       <use x="83.789062" xlink:href="#DejaVuSans-30"/>
       <use x="147.412109" xlink:href="#DejaVuSans-2e"/>
       <use x="179.199219" xlink:href="#DejaVuSans-38"/>
       <use x="242.822266" xlink:href="#DejaVuSans-34"/>
       <use x="306.445312" xlink:href="#DejaVuSans-38"/>
      </g>
     </g>
    </g>
    <g id="ytick_4">
     <g id="line2d_19">
      <path clip-path="url(#p790d188336)" d="M 225 1115.105626 
L 1620 1115.105626 
" style="fill:none;stroke:#b0b0b0;stroke-linecap:square;stroke-width:0.8;"/>
     </g>
     <g id="line2d_20">
      <g>
       <use style="stroke:#000000;stroke-width:0.8;" x="225" xlink:href="#mae94a52389" y="1115.105626"/>
      </g>
     </g>
     <g id="text_10">
      <!-- −0.838 -->
      <defs>
       <path d="M 40.578125 39.3125 
Q 47.65625 37.796875 51.625 33 
Q 55.609375 28.21875 55.609375 21.1875 
Q 55.609375 10.40625 48.1875 4.484375 
Q 40.765625 -1.421875 27.09375 -1.421875 
Q 22.515625 -1.421875 17.65625 -0.515625 
Q 12.796875 0.390625 7.625 2.203125 
L 7.625 11.71875 
Q 11.71875 9.328125 16.59375 8.109375 
Q 21.484375 6.890625 26.8125 6.890625 
Q 36.078125 6.890625 40.9375 10.546875 
Q 45.796875 14.203125 45.796875 21.1875 
Q 45.796875 27.640625 41.28125 31.265625 
Q 36.765625 34.90625 28.71875 34.90625 
L 20.21875 34.90625 
L 20.21875 43.015625 
L 29.109375 43.015625 
Q 36.375 43.015625 40.234375 45.921875 
Q 44.09375 48.828125 44.09375 54.296875 
Q 44.09375 59.90625 40.109375 62.90625 
Q 36.140625 65.921875 28.71875 65.921875 
Q 24.65625 65.921875 20.015625 65.03125 
Q 15.375 64.15625 9.8125 62.3125 
L 9.8125 71.09375 
Q 15.4375 72.65625 20.34375 73.4375 
Q 25.25 74.21875 29.59375 74.21875 
Q 40.828125 74.21875 47.359375 69.109375 
Q 53.90625 64.015625 53.90625 55.328125 
Q 53.90625 49.265625 50.4375 45.09375 
Q 46.96875 40.921875 40.578125 39.3125 
z
" id="DejaVuSans-33"/>
      </defs>
      <g transform="translate(180.992188 1118.904845)scale(0.1 -0.1)">
       <use xlink:href="#DejaVuSans-2212"/>
       <use x="83.789062" xlink:href="#DejaVuSans-30"/>
       <use x="147.412109" xlink:href="#DejaVuSans-2e"/>
       <use x="179.199219" xlink:href="#DejaVuSans-38"/>
       <use x="242.822266" xlink:href="#DejaVuSans-33"/>
       <use x="306.445312" xlink:href="#DejaVuSans-38"/>
      </g>
     </g>
    </g>
    <g id="ytick_5">
     <g id="line2d_21">
      <path clip-path="url(#p790d188336)" d="M 225 1059.607502 
L 1620 1059.607502 
" style="fill:none;stroke:#b0b0b0;stroke-linecap:square;stroke-width:0.8;"/>
     </g>
     <g id="line2d_22">
      <g>
       <use style="stroke:#000000;stroke-width:0.8;" x="225" xlink:href="#mae94a52389" y="1059.607502"/>
      </g>
     </g>
     <g id="text_11">
      <!-- −0.828 -->
      <g transform="translate(180.992188 1063.406721)scale(0.1 -0.1)">
       <use xlink:href="#DejaVuSans-2212"/>
       <use x="83.789062" xlink:href="#DejaVuSans-30"/>
       <use x="147.412109" xlink:href="#DejaVuSans-2e"/>
       <use x="179.199219" xlink:href="#DejaVuSans-38"/>
       <use x="242.822266" xlink:href="#DejaVuSans-32"/>
       <use x="306.445312" xlink:href="#DejaVuSans-38"/>
      </g>
     </g>
    </g>
    <g id="ytick_6">
     <g id="line2d_23">
      <path clip-path="url(#p790d188336)" d="M 225 1004.109377 
L 1620 1004.109377 
" style="fill:none;stroke:#b0b0b0;stroke-linecap:square;stroke-width:0.8;"/>
     </g>
     <g id="line2d_24">
      <g>
       <use style="stroke:#000000;stroke-width:0.8;" x="225" xlink:href="#mae94a52389" y="1004.109377"/>
      </g>
     </g>
     <g id="text_12">
      <!-- −0.818 -->
      <g transform="translate(180.992188 1007.908596)scale(0.1 -0.1)">
       <use xlink:href="#DejaVuSans-2212"/>
       <use x="83.789062" xlink:href="#DejaVuSans-30"/>
       <use x="147.412109" xlink:href="#DejaVuSans-2e"/>
       <use x="179.199219" xlink:href="#DejaVuSans-38"/>
       <use x="242.822266" xlink:href="#DejaVuSans-31"/>
       <use x="306.445312" xlink:href="#DejaVuSans-38"/>
      </g>
     </g>
    </g>
    <g id="ytick_7">
     <g id="line2d_25">
      <path clip-path="url(#p790d188336)" d="M 225 948.611253 
L 1620 948.611253 
" style="fill:none;stroke:#b0b0b0;stroke-linecap:square;stroke-width:0.8;"/>
     </g>
     <g id="line2d_26">
      <g>
       <use style="stroke:#000000;stroke-width:0.8;" x="225" xlink:href="#mae94a52389" y="948.611253"/>
      </g>
     </g>
     <g id="text_13">
      <!-- −0.808 -->
      <g transform="translate(180.992188 952.410472)scale(0.1 -0.1)">
       <use xlink:href="#DejaVuSans-2212"/>
       <use x="83.789062" xlink:href="#DejaVuSans-30"/>
       <use x="147.412109" xlink:href="#DejaVuSans-2e"/>
       <use x="179.199219" xlink:href="#DejaVuSans-38"/>
       <use x="242.822266" xlink:href="#DejaVuSans-30"/>
       <use x="306.445312" xlink:href="#DejaVuSans-38"/>
      </g>
     </g>
    </g>
    <g id="ytick_8">
     <g id="line2d_27">
      <path clip-path="url(#p790d188336)" d="M 225 893.113128 
L 1620 893.113128 
" style="fill:none;stroke:#b0b0b0;stroke-linecap:square;stroke-width:0.8;"/>
     </g>
     <g id="line2d_28">
      <g>
       <use style="stroke:#000000;stroke-width:0.8;" x="225" xlink:href="#mae94a52389" y="893.113128"/>
      </g>
     </g>
     <g id="text_14">
      <!-- −0.798 -->
      <defs>
       <path d="M 8.203125 72.90625 
L 55.078125 72.90625 
L 55.078125 68.703125 
L 28.609375 0 
L 18.3125 0 
L 43.21875 64.59375 
L 8.203125 64.59375 
z
" id="DejaVuSans-37"/>
       <path d="M 10.984375 1.515625 
L 10.984375 10.5 
Q 14.703125 8.734375 18.5 7.8125 
Q 22.3125 6.890625 25.984375 6.890625 
Q 35.75 6.890625 40.890625 13.453125 
Q 46.046875 20.015625 46.78125 33.40625 
Q 43.953125 29.203125 39.59375 26.953125 
Q 35.25 24.703125 29.984375 24.703125 
Q 19.046875 24.703125 12.671875 31.3125 
Q 6.296875 37.9375 6.296875 49.421875 
Q 6.296875 60.640625 12.9375 67.421875 
Q 19.578125 74.21875 30.609375 74.21875 
Q 43.265625 74.21875 49.921875 64.515625 
Q 56.59375 54.828125 56.59375 36.375 
Q 56.59375 19.140625 48.40625 8.859375 
Q 40.234375 -1.421875 26.421875 -1.421875 
Q 22.703125 -1.421875 18.890625 -0.6875 
Q 15.09375 0.046875 10.984375 1.515625 
z
M 30.609375 32.421875 
Q 37.25 32.421875 41.125 36.953125 
Q 45.015625 41.5 45.015625 49.421875 
Q 45.015625 57.28125 41.125 61.84375 
Q 37.25 66.40625 30.609375 66.40625 
Q 23.96875 66.40625 20.09375 61.84375 
Q 16.21875 57.28125 16.21875 49.421875 
Q 16.21875 41.5 20.09375 36.953125 
Q 23.96875 32.421875 30.609375 32.421875 
z
" id="DejaVuSans-39"/>
      </defs>
      <g transform="translate(180.992188 896.912347)scale(0.1 -0.1)">
       <use xlink:href="#DejaVuSans-2212"/>
       <use x="83.789062" xlink:href="#DejaVuSans-30"/>
       <use x="147.412109" xlink:href="#DejaVuSans-2e"/>
       <use x="179.199219" xlink:href="#DejaVuSans-37"/>
       <use x="242.822266" xlink:href="#DejaVuSans-39"/>
       <use x="306.445312" xlink:href="#DejaVuSans-38"/>
      </g>
     </g>
    </g>
    <g id="ytick_9">
     <g id="line2d_29">
      <path clip-path="url(#p790d188336)" d="M 225 837.615004 
L 1620 837.615004 
" style="fill:none;stroke:#b0b0b0;stroke-linecap:square;stroke-width:0.8;"/>
     </g>
     <g id="line2d_30">
      <g>
       <use style="stroke:#000000;stroke-width:0.8;" x="225" xlink:href="#mae94a52389" y="837.615004"/>
      </g>
     </g>
     <g id="text_15">
      <!-- −0.788 -->
      <g transform="translate(180.992188 841.414223)scale(0.1 -0.1)">
       <use xlink:href="#DejaVuSans-2212"/>
       <use x="83.789062" xlink:href="#DejaVuSans-30"/>
       <use x="147.412109" xlink:href="#DejaVuSans-2e"/>
       <use x="179.199219" xlink:href="#DejaVuSans-37"/>
       <use x="242.822266" xlink:href="#DejaVuSans-38"/>
       <use x="306.445312" xlink:href="#DejaVuSans-38"/>
      </g>
     </g>
    </g>
    <g id="ytick_10">
     <g id="line2d_31">
      <path clip-path="url(#p790d188336)" d="M 225 782.116879 
L 1620 782.116879 
" style="fill:none;stroke:#b0b0b0;stroke-linecap:square;stroke-width:0.8;"/>
     </g>
     <g id="line2d_32">
      <g>
       <use style="stroke:#000000;stroke-width:0.8;" x="225" xlink:href="#mae94a52389" y="782.116879"/>
      </g>
     </g>
     <g id="text_16">
      <!-- −0.778 -->
      <g transform="translate(180.992188 785.916098)scale(0.1 -0.1)">
       <use xlink:href="#DejaVuSans-2212"/>
       <use x="83.789062" xlink:href="#DejaVuSans-30"/>
       <use x="147.412109" xlink:href="#DejaVuSans-2e"/>
       <use x="179.199219" xlink:href="#DejaVuSans-37"/>
       <use x="242.822266" xlink:href="#DejaVuSans-37"/>
       <use x="306.445312" xlink:href="#DejaVuSans-38"/>
      </g>
     </g>
    </g>
    <g id="ytick_11">
     <g id="line2d_33">
      <path clip-path="url(#p790d188336)" d="M 225 726.618755 
L 1620 726.618755 
" style="fill:none;stroke:#b0b0b0;stroke-linecap:square;stroke-width:0.8;"/>
     </g>
     <g id="line2d_34">
      <g>
       <use style="stroke:#000000;stroke-width:0.8;" x="225" xlink:href="#mae94a52389" y="726.618755"/>
      </g>
     </g>
     <g id="text_17">
      <!-- −0.768 -->
      <g transform="translate(180.992188 730.417974)scale(0.1 -0.1)">
       <use xlink:href="#DejaVuSans-2212"/>
       <use x="83.789062" xlink:href="#DejaVuSans-30"/>
       <use x="147.412109" xlink:href="#DejaVuSans-2e"/>
       <use x="179.199219" xlink:href="#DejaVuSans-37"/>
       <use x="242.822266" xlink:href="#DejaVuSans-36"/>
       <use x="306.445312" xlink:href="#DejaVuSans-38"/>
      </g>
     </g>
    </g>
    <g id="ytick_12">
     <g id="line2d_35">
      <path clip-path="url(#p790d188336)" d="M 225 671.12063 
L 1620 671.12063 
" style="fill:none;stroke:#b0b0b0;stroke-linecap:square;stroke-width:0.8;"/>
     </g>
     <g id="line2d_36">
      <g>
       <use style="stroke:#000000;stroke-width:0.8;" x="225" xlink:href="#mae94a52389" y="671.12063"/>
      </g>
     </g>
     <g id="text_18">
      <!-- −0.758 -->
      <g transform="translate(180.992188 674.919849)scale(0.1 -0.1)">
       <use xlink:href="#DejaVuSans-2212"/>
       <use x="83.789062" xlink:href="#DejaVuSans-30"/>
       <use x="147.412109" xlink:href="#DejaVuSans-2e"/>
       <use x="179.199219" xlink:href="#DejaVuSans-37"/>
       <use x="242.822266" xlink:href="#DejaVuSans-35"/>
       <use x="306.445312" xlink:href="#DejaVuSans-38"/>
      </g>
     </g>
    </g>
    <g id="ytick_13">
     <g id="line2d_37">
      <path clip-path="url(#p790d188336)" d="M 225 615.622506 
L 1620 615.622506 
" style="fill:none;stroke:#b0b0b0;stroke-linecap:square;stroke-width:0.8;"/>
     </g>
     <g id="line2d_38">
      <g>
       <use style="stroke:#000000;stroke-width:0.8;" x="225" xlink:href="#mae94a52389" y="615.622506"/>
      </g>
     </g>
     <g id="text_19">
      <!-- −0.748 -->
      <g transform="translate(180.992188 619.421725)scale(0.1 -0.1)">
       <use xlink:href="#DejaVuSans-2212"/>
       <use x="83.789062" xlink:href="#DejaVuSans-30"/>
       <use x="147.412109" xlink:href="#DejaVuSans-2e"/>
       <use x="179.199219" xlink:href="#DejaVuSans-37"/>
       <use x="242.822266" xlink:href="#DejaVuSans-34"/>
       <use x="306.445312" xlink:href="#DejaVuSans-38"/>
      </g>
     </g>
    </g>
    <g id="ytick_14">
     <g id="line2d_39">
      <path clip-path="url(#p790d188336)" d="M 225 560.124381 
L 1620 560.124381 
" style="fill:none;stroke:#b0b0b0;stroke-linecap:square;stroke-width:0.8;"/>
     </g>
     <g id="line2d_40">
      <g>
       <use style="stroke:#000000;stroke-width:0.8;" x="225" xlink:href="#mae94a52389" y="560.124381"/>
      </g>
     </g>
     <g id="text_20">
      <!-- −0.738 -->
      <g transform="translate(180.992188 563.9236)scale(0.1 -0.1)">
       <use xlink:href="#DejaVuSans-2212"/>
       <use x="83.789062" xlink:href="#DejaVuSans-30"/>
       <use x="147.412109" xlink:href="#DejaVuSans-2e"/>
       <use x="179.199219" xlink:href="#DejaVuSans-37"/>
       <use x="242.822266" xlink:href="#DejaVuSans-33"/>
       <use x="306.445312" xlink:href="#DejaVuSans-38"/>
      </g>
     </g>
    </g>
    <g id="ytick_15">
     <g id="line2d_41">
      <path clip-path="url(#p790d188336)" d="M 225 504.626257 
L 1620 504.626257 
" style="fill:none;stroke:#b0b0b0;stroke-linecap:square;stroke-width:0.8;"/>
     </g>
     <g id="line2d_42">
      <g>
       <use style="stroke:#000000;stroke-width:0.8;" x="225" xlink:href="#mae94a52389" y="504.626257"/>
      </g>
     </g>
     <g id="text_21">
      <!-- −0.728 -->
      <g transform="translate(180.992188 508.425476)scale(0.1 -0.1)">
       <use xlink:href="#DejaVuSans-2212"/>
       <use x="83.789062" xlink:href="#DejaVuSans-30"/>
       <use x="147.412109" xlink:href="#DejaVuSans-2e"/>
       <use x="179.199219" xlink:href="#DejaVuSans-37"/>
       <use x="242.822266" xlink:href="#DejaVuSans-32"/>
       <use x="306.445312" xlink:href="#DejaVuSans-38"/>
      </g>
     </g>
    </g>
    <g id="ytick_16">
     <g id="line2d_43">
      <path clip-path="url(#p790d188336)" d="M 225 449.128132 
L 1620 449.128132 
" style="fill:none;stroke:#b0b0b0;stroke-linecap:square;stroke-width:0.8;"/>
     </g>
     <g id="line2d_44">
      <g>
       <use style="stroke:#000000;stroke-width:0.8;" x="225" xlink:href="#mae94a52389" y="449.128132"/>
      </g>
     </g>
     <g id="text_22">
      <!-- −0.718 -->
      <g transform="translate(180.992188 452.927351)scale(0.1 -0.1)">
       <use xlink:href="#DejaVuSans-2212"/>
       <use x="83.789062" xlink:href="#DejaVuSans-30"/>
       <use x="147.412109" xlink:href="#DejaVuSans-2e"/>
       <use x="179.199219" xlink:href="#DejaVuSans-37"/>
       <use x="242.822266" xlink:href="#DejaVuSans-31"/>
       <use x="306.445312" xlink:href="#DejaVuSans-38"/>
      </g>
     </g>
    </g>
    <g id="ytick_17">
     <g id="line2d_45">
      <path clip-path="url(#p790d188336)" d="M 225 393.630008 
L 1620 393.630008 
" style="fill:none;stroke:#b0b0b0;stroke-linecap:square;stroke-width:0.8;"/>
     </g>
     <g id="line2d_46">
      <g>
       <use style="stroke:#000000;stroke-width:0.8;" x="225" xlink:href="#mae94a52389" y="393.630008"/>
      </g>
     </g>
     <g id="text_23">
      <!-- −0.708 -->
      <g transform="translate(180.992188 397.429226)scale(0.1 -0.1)">
       <use xlink:href="#DejaVuSans-2212"/>
       <use x="83.789062" xlink:href="#DejaVuSans-30"/>
       <use x="147.412109" xlink:href="#DejaVuSans-2e"/>
       <use x="179.199219" xlink:href="#DejaVuSans-37"/>
       <use x="242.822266" xlink:href="#DejaVuSans-30"/>
       <use x="306.445312" xlink:href="#DejaVuSans-38"/>
      </g>
     </g>
    </g>
    <g id="ytick_18">
     <g id="line2d_47">
      <path clip-path="url(#p790d188336)" d="M 225 338.131883 
L 1620 338.131883 
" style="fill:none;stroke:#b0b0b0;stroke-linecap:square;stroke-width:0.8;"/>
     </g>
     <g id="line2d_48">
      <g>
       <use style="stroke:#000000;stroke-width:0.8;" x="225" xlink:href="#mae94a52389" y="338.131883"/>
      </g>
     </g>
     <g id="text_24">
      <!-- −0.698 -->
      <g transform="translate(180.992188 341.931102)scale(0.1 -0.1)">
       <use xlink:href="#DejaVuSans-2212"/>
       <use x="83.789062" xlink:href="#DejaVuSans-30"/>
       <use x="147.412109" xlink:href="#DejaVuSans-2e"/>
       <use x="179.199219" xlink:href="#DejaVuSans-36"/>
       <use x="242.822266" xlink:href="#DejaVuSans-39"/>
       <use x="306.445312" xlink:href="#DejaVuSans-38"/>
      </g>
     </g>
    </g>
    <g id="ytick_19">
     <g id="line2d_49">
      <path clip-path="url(#p790d188336)" d="M 225 282.633759 
L 1620 282.633759 
" style="fill:none;stroke:#b0b0b0;stroke-linecap:square;stroke-width:0.8;"/>
     </g>
     <g id="line2d_50">
      <g>
       <use style="stroke:#000000;stroke-width:0.8;" x="225" xlink:href="#mae94a52389" y="282.633759"/>
      </g>
     </g>
     <g id="text_25">
      <!-- −0.688 -->
      <g transform="translate(180.992188 286.432977)scale(0.1 -0.1)">
       <use xlink:href="#DejaVuSans-2212"/>
       <use x="83.789062" xlink:href="#DejaVuSans-30"/>
       <use x="147.412109" xlink:href="#DejaVuSans-2e"/>
       <use x="179.199219" xlink:href="#DejaVuSans-36"/>
       <use x="242.822266" xlink:href="#DejaVuSans-38"/>
       <use x="306.445312" xlink:href="#DejaVuSans-38"/>
      </g>
     </g>
    </g>
    <g id="ytick_20">
     <g id="line2d_51">
      <path clip-path="url(#p790d188336)" d="M 225 227.135634 
L 1620 227.135634 
" style="fill:none;stroke:#b0b0b0;stroke-linecap:square;stroke-width:0.8;"/>
     </g>
     <g id="line2d_52">
      <g>
       <use style="stroke:#000000;stroke-width:0.8;" x="225" xlink:href="#mae94a52389" y="227.135634"/>
      </g>
     </g>
     <g id="text_26">
      <!-- −0.678 -->
      <g transform="translate(180.992188 230.934853)scale(0.1 -0.1)">
       <use xlink:href="#DejaVuSans-2212"/>
       <use x="83.789062" xlink:href="#DejaVuSans-30"/>
       <use x="147.412109" xlink:href="#DejaVuSans-2e"/>
       <use x="179.199219" xlink:href="#DejaVuSans-36"/>
       <use x="242.822266" xlink:href="#DejaVuSans-37"/>
       <use x="306.445312" xlink:href="#DejaVuSans-38"/>
      </g>
     </g>
    </g>
   </g>
   <g id="patch_3">
    <path clip-path="url(#p790d188336)" d="M 288.409091 1281.6 
L 1557.820959 1281.6 
L 1557.820959 172.8 
L 288.409091 172.8 
z
" style="opacity:0.3;"/>
   </g>
   <g id="line2d_53">
    <path clip-path="url(#p790d188336)" d="M 288.409091 364.63152 
L 289.639141 364.63152 
L 290.869191 372.707259 
L 292.099242 372.707259 
L 293.329292 370.29256 
L 294.559342 370.29256 
L 295.789392 375.434901 
L 297.019443 375.434901 
L 298.249493 376.32022 
L 299.479543 379.558779 
L 300.709594 379.558779 
L 301.939644 380.026884 
L 303.169694 380.026884 
L 304.399744 384.666561 
L 305.629795 384.666561 
L 306.859845 386.987679 
L 308.089895 386.987679 
L 309.319945 391.847746 
L 310.549996 394.10775 
L 311.780046 394.10775 
L 313.010096 397.89122 
L 314.240146 397.89122 
L 315.470197 408.285115 
L 316.700247 408.285115 
L 317.930297 413.680459 
L 319.160347 413.680459 
L 320.390398 419.76379 
L 321.620448 427.923376 
L 322.850498 427.923376 
L 324.080548 435.995005 
L 325.310599 435.995005 
L 326.540649 439.55907 
L 327.770699 439.55907 
L 329.000749 445.657217 
L 330.2308 445.657217 
L 331.46085 454.919621 
L 332.6909 454.919621 
L 333.920951 457.2757 
L 335.151001 457.2757 
L 336.381051 466.088515 
L 337.611101 474.075769 
L 338.841152 474.075769 
L 340.071202 487.723624 
L 341.301252 487.723624 
L 342.531302 495.941923 
L 343.761353 495.941923 
L 344.991403 503.476847 
L 346.221453 503.476847 
L 347.451503 512.556753 
L 348.681554 520.532634 
L 349.911604 520.532634 
L 351.141654 533.064071 
L 352.371704 533.064071 
L 353.601755 543.033834 
L 354.831805 543.033834 
L 357.291905 558.478081 
L 358.521956 558.478081 
L 359.752006 567.551452 
L 360.982056 567.551452 
L 362.212107 573.538424 
L 363.442157 573.538424 
L 364.672207 590.91071 
L 365.902257 590.91071 
L 367.132308 596.176935 
L 368.362358 607.87364 
L 369.592408 607.87364 
L 370.822458 614.081057 
L 372.052509 614.081057 
L 373.282559 628.112712 
L 374.512609 628.112712 
L 375.742659 634.583348 
L 376.97271 634.583348 
L 378.20276 646.832978 
L 379.43281 653.228924 
L 380.66286 653.228924 
L 381.892911 672.419251 
L 383.122961 672.419251 
L 384.353011 685.509818 
L 385.583061 685.509818 
L 386.813112 694.966394 
L 388.043162 694.966394 
L 389.273212 695.27236 
L 390.503262 704.358934 
L 391.733313 704.358934 
L 392.963363 720.49622 
L 394.193413 720.49622 
L 395.423464 723.684142 
L 396.653514 723.684142 
L 397.883564 736.941074 
L 399.113614 737.192911 
L 400.343665 737.192911 
L 401.573715 749.830336 
L 402.803765 749.830336 
L 404.033815 758.829651 
L 405.263866 758.829651 
L 406.493916 762.90978 
L 407.723966 762.90978 
L 408.954016 772.457542 
L 410.184067 788.437217 
L 411.414117 788.437217 
L 412.644167 803.412972 
L 413.874217 803.412972 
L 415.104268 809.424244 
L 416.334318 809.424244 
L 417.564368 819.747373 
L 418.794418 826.361434 
L 420.024469 826.361434 
L 421.254519 835.133268 
L 422.484569 835.133268 
L 423.71462 847.723377 
L 424.94467 847.723377 
L 426.17472 858.317071 
L 427.40477 858.317071 
L 428.634821 870.551977 
L 429.864871 870.551977 
L 431.094921 881.948507 
L 432.324971 895.714799 
L 433.555022 895.714799 
L 434.785072 901.952835 
L 436.015122 901.952835 
L 437.245172 910.795944 
L 438.475223 910.795944 
L 439.705273 924.853962 
L 440.935323 931.485033 
L 442.165373 931.485033 
L 443.395424 939.994033 
L 444.625474 939.994033 
L 445.855524 944.106942 
L 447.085574 944.106942 
L 448.315625 950.730574 
L 449.545675 959.098544 
L 450.775725 959.098544 
L 452.005776 969.977231 
L 453.235826 969.977231 
L 454.465876 983.811724 
L 455.695926 983.811724 
L 456.925977 988.203644 
L 458.156027 988.203644 
L 459.386077 996.836806 
L 460.616127 996.836806 
L 461.846178 1008.515208 
L 463.076228 1008.515208 
L 464.306278 1019.01349 
L 465.536328 1027.236425 
L 466.766379 1027.236425 
L 467.996429 1033.10764 
L 469.226479 1033.10764 
L 470.456529 1039.104656 
L 471.68658 1039.104656 
L 472.91663 1048.842963 
L 474.14668 1048.842963 
L 475.37673 1050.981487 
L 476.606781 1060.941161 
L 477.836831 1060.941161 
L 479.066881 1061.394614 
L 480.296931 1061.394614 
L 481.526982 1066.71647 
L 482.757032 1066.71647 
L 483.987082 1086.064954 
L 485.217133 1084.836642 
L 486.447183 1084.836642 
L 487.677233 1086.966682 
L 488.907283 1086.966682 
L 490.137334 1100.352829 
L 491.367384 1100.352829 
L 492.597434 1106.024479 
L 493.827484 1108.553964 
L 495.057535 1108.553964 
L 496.287585 1114.708714 
L 497.517635 1114.708714 
L 498.747685 1118.740694 
L 499.977736 1118.740694 
L 501.207786 1128.561196 
L 502.437836 1128.561196 
L 503.667886 1128.422552 
L 504.897937 1136.73384 
L 506.127987 1136.73384 
L 507.358037 1143.479067 
L 508.588087 1143.479067 
L 509.818138 1139.560228 
L 511.048188 1139.560228 
L 512.278238 1148.314993 
L 513.508289 1158.588635 
L 514.738339 1158.588635 
L 515.968389 1162.639023 
L 517.198439 1170.958446 
L 518.42849 1170.958446 
L 519.65854 1171.948826 
L 520.88859 1171.948826 
L 522.11864 1182.326628 
L 523.348691 1182.326628 
L 524.578741 1179.475169 
L 525.808791 1179.475169 
L 527.038841 1183.73556 
L 528.268892 1183.73556 
L 529.498942 1190.22013 
L 530.728992 1195.191898 
L 531.959042 1195.191898 
L 533.189093 1211.589578 
L 534.419143 1211.589578 
L 535.649193 1211.096811 
L 536.879243 1211.096811 
L 538.109294 1218.694374 
L 539.339344 1218.694374 
L 540.569394 1216.241377 
L 541.799444 1222.517778 
L 543.029495 1222.517778 
L 544.259545 1222.240981 
L 545.489595 1222.240981 
L 546.719646 1223.38197 
L 547.949696 1223.38197 
L 549.179746 1220.362762 
L 550.409796 1220.362762 
L 551.639847 1222.148204 
L 552.869897 1222.148204 
L 554.099947 1219.834406 
L 555.329997 1219.834406 
L 556.560048 1216.831779 
L 557.790098 1216.831779 
L 559.020148 1210.470284 
L 560.250198 1205.309308 
L 561.480249 1205.309308 
L 562.710299 1203.743959 
L 563.940349 1203.743959 
L 565.170399 1201.394727 
L 566.40045 1201.394727 
L 567.6305 1189.595088 
L 568.86055 1189.595088 
L 570.0906 1185.358362 
L 571.320651 1185.358362 
L 572.550701 1172.630986 
L 573.780751 1161.558137 
L 575.010802 1161.558137 
L 576.240852 1152.052755 
L 577.470902 1152.052755 
L 578.700952 1142.359464 
L 579.931003 1142.359464 
L 581.161053 1138.107673 
L 582.391103 1138.107673 
L 583.621153 1125.790691 
L 584.851204 1125.790691 
L 586.081254 1115.626451 
L 587.311304 1113.821344 
L 588.541354 1113.821344 
L 589.771405 1100.7524 
L 591.001455 1100.7524 
L 592.231505 1096.375555 
L 593.461555 1096.375555 
L 594.691606 1085.253087 
L 595.921656 1085.253087 
L 598.381756 1057.401641 
L 599.611807 1057.401641 
L 600.841857 1049.09112 
L 602.071907 1049.09112 
L 603.301957 1038.674662 
L 604.532008 1038.674662 
L 605.762058 1027.572124 
L 606.992108 1027.572124 
L 608.222159 1019.031368 
L 609.452209 1007.785438 
L 610.682259 1007.785438 
L 611.912309 994.87832 
L 613.14236 994.87832 
L 614.37241 980.517335 
L 615.60246 980.517335 
L 616.83251 964.330118 
L 618.062561 952.781915 
L 619.292611 952.781915 
L 620.522661 947.249149 
L 621.752711 947.249149 
L 622.982762 934.6629 
L 624.212812 923.752201 
L 625.442862 923.752201 
L 626.672912 911.347764 
L 627.902963 911.347764 
L 629.133013 900.959312 
L 630.363063 900.959312 
L 631.593113 890.326041 
L 632.823164 890.326041 
L 634.053214 874.526258 
L 635.283264 864.244421 
L 636.513315 864.244421 
L 637.743365 849.835858 
L 638.973415 849.835858 
L 640.203465 834.659199 
L 641.433516 834.659199 
L 642.663566 827.456291 
L 643.893616 827.456291 
L 645.123666 818.25774 
L 646.353717 803.181355 
L 647.583767 803.181355 
L 648.813817 792.4595 
L 650.043867 792.4595 
L 651.273918 778.195518 
L 652.503968 778.195518 
L 653.734018 771.43203 
L 654.964068 762.322878 
L 656.194119 762.322878 
L 657.424169 747.31835 
L 658.654219 747.31835 
L 659.884269 745.415973 
L 661.11432 745.415973 
L 662.34437 727.207186 
L 663.57442 719.285985 
L 664.804471 719.285985 
L 666.034521 701.666502 
L 667.264571 701.666502 
L 668.494621 689.049781 
L 669.724672 689.049781 
L 670.954722 676.421526 
L 672.184772 670.471903 
L 673.414822 670.471903 
L 674.644873 647.415715 
L 675.874923 647.415715 
L 677.104973 634.592002 
L 678.335023 634.592002 
L 679.565074 622.396106 
L 680.795124 622.396106 
L 682.025174 615.783455 
L 683.255224 615.783455 
L 684.485275 603.717319 
L 685.715325 603.717319 
L 686.945375 584.06291 
L 688.175425 573.295356 
L 689.405476 573.295356 
L 690.635526 566.61877 
L 691.865576 566.61877 
L 693.095626 554.923765 
L 694.325677 554.923765 
L 695.555727 544.144595 
L 696.785777 544.144595 
L 698.015828 532.84567 
L 699.245878 532.84567 
L 700.475928 508.103086 
L 701.705978 496.08747 
L 702.936029 496.08747 
L 704.166079 480.578845 
L 705.396129 480.578845 
L 706.626179 472.50558 
L 707.85623 472.50558 
L 709.08628 463.644861 
L 710.31633 463.644861 
L 712.776431 450.739137 
L 714.006481 450.739137 
L 715.236531 444.08975 
L 716.466581 444.08975 
L 717.696632 438.036585 
L 718.926682 438.036585 
L 720.156732 433.913712 
L 723.846883 433.877637 
L 725.076933 420.51287 
L 726.306984 420.51287 
L 727.537034 421.654923 
L 728.767084 421.654923 
L 729.997134 413.896306 
L 731.227185 413.896306 
L 732.457235 408.222404 
L 733.687285 400.087395 
L 734.917335 400.087395 
L 736.147386 391.819476 
L 737.377436 391.819476 
L 738.607486 375.647858 
L 739.837536 375.647858 
L 741.067587 371.712408 
L 742.297637 362.608606 
L 744.757737 362.608606 
L 745.987788 355.851948 
L 747.217838 355.851948 
L 748.447888 346.660573 
L 749.677938 346.660573 
L 750.907989 345.201328 
L 752.138039 345.201328 
L 753.368089 340.152093 
L 754.598139 340.152093 
L 755.82819 336.591607 
L 757.05824 334.942239 
L 759.518341 334.942239 
L 760.748391 336.532999 
L 761.978441 336.532999 
L 763.208491 331.377024 
L 764.438542 331.377024 
L 765.668592 332.349924 
L 766.898642 324.407185 
L 768.128692 324.407185 
L 769.358743 318.779029 
L 770.588793 318.779029 
L 771.818843 313.501715 
L 773.048893 313.501715 
L 774.278944 305.671018 
L 775.508994 305.671018 
L 776.739044 300.611917 
L 777.969094 300.611917 
L 779.199145 292.310901 
L 780.429195 283.075135 
L 781.659245 283.075135 
L 782.889295 271.602736 
L 784.119346 271.602736 
L 785.349396 268.084048 
L 786.579446 268.084048 
L 787.809497 262.861179 
L 789.039547 262.861179 
L 790.269597 260.731656 
L 793.959748 260.810667 
L 795.189798 251.494568 
L 796.419848 251.494568 
L 797.649899 256.288088 
L 798.879949 252.6191 
L 800.109999 252.6191 
L 801.340049 250.179721 
L 802.5701 250.179721 
L 803.80015 248.490923 
L 805.0302 248.490923 
L 806.26025 247.208373 
L 807.490301 247.208373 
L 808.720351 241.385989 
L 809.950401 241.385989 
L 811.180451 237.123737 
L 812.410502 237.123737 
L 813.640552 231.368452 
L 814.870602 231.368452 
L 816.100652 228.107153 
L 817.330703 228.107153 
L 818.560753 223.2 
L 819.790803 225.615245 
L 823.480954 225.593034 
L 824.711004 230.32552 
L 825.941055 230.32552 
L 827.171105 231.642744 
L 828.401155 231.642744 
L 829.631205 230.35862 
L 830.861256 230.35862 
L 832.091306 235.967394 
L 833.321356 235.967394 
L 834.551406 243.129511 
L 835.781457 243.129511 
L 837.011507 245.921978 
L 838.241557 245.921978 
L 839.471607 249.583656 
L 840.701658 249.583656 
L 841.931708 247.111839 
L 843.161758 247.111839 
L 844.391808 250.949048 
L 845.621859 250.949048 
L 846.851909 252.384661 
L 848.081959 252.384661 
L 849.31201 250.803887 
L 850.54206 250.803887 
L 851.77211 254.476906 
L 853.00216 255.202148 
L 854.232211 255.202148 
L 855.462261 257.375384 
L 856.692311 257.375384 
L 857.922361 259.090278 
L 859.152412 259.090278 
L 860.382462 256.409362 
L 861.612512 256.409362 
L 862.842562 263.793209 
L 864.072613 263.793209 
L 865.302663 266.652739 
L 866.532713 266.652739 
L 867.762763 267.441494 
L 868.992814 267.441494 
L 870.222864 261.670809 
L 872.682964 261.670809 
L 873.913015 267.412925 
L 875.143065 267.412925 
L 876.373115 266.665766 
L 877.603166 266.174324 
L 878.833216 266.174324 
L 880.063266 265.265999 
L 881.293316 265.265999 
L 882.523367 266.702419 
L 883.753417 266.702419 
L 884.983467 268.400787 
L 886.213517 268.400787 
L 887.443568 272.914756 
L 888.673618 273.668609 
L 889.903668 273.668609 
L 891.133718 275.305297 
L 892.363769 275.305297 
L 893.593819 279.846585 
L 894.823869 279.846585 
L 896.053919 286.934954 
L 897.28397 288.103497 
L 898.51402 288.103497 
L 899.74407 301.621779 
L 900.97412 301.621779 
L 902.204171 296.317422 
L 903.434221 296.317422 
L 904.664271 304.718805 
L 905.894321 304.718805 
L 907.124372 309.245168 
L 908.354422 310.216317 
L 909.584472 310.216317 
L 910.814523 312.235783 
L 912.044573 312.235783 
L 913.274623 317.266477 
L 914.504673 317.266477 
L 915.734724 324.887795 
L 916.964774 324.887795 
L 918.194824 327.7265 
L 919.424874 330.199716 
L 920.654925 330.199716 
L 921.884975 338.974563 
L 923.115025 338.974563 
L 924.345075 335.720674 
L 925.575126 335.720674 
L 926.805176 342.245755 
L 928.035226 342.245755 
L 929.265276 344.976171 
L 930.495327 344.976171 
L 931.725377 350.224546 
L 932.955427 350.224546 
L 934.185477 353.584085 
L 935.415528 353.584085 
L 936.645578 363.469136 
L 937.875628 363.469136 
L 939.105679 362.076004 
L 940.335729 362.076004 
L 941.565779 363.403926 
L 942.795829 363.403926 
L 944.02588 364.465328 
L 945.25593 364.465328 
L 946.48598 366.592287 
L 947.71603 366.592287 
L 948.946081 363.858984 
L 950.176131 363.67404 
L 951.406181 363.67404 
L 952.636231 361.334766 
L 953.866282 361.334766 
L 955.096332 366.988307 
L 956.326382 366.988307 
L 957.556432 363.254913 
L 958.786483 363.254913 
L 960.016533 361.810564 
L 961.246583 363.502382 
L 962.476633 363.502382 
L 963.706684 366.244467 
L 966.166784 366.244467 
L 967.396834 366.881843 
L 968.626885 366.881843 
L 969.856935 373.215102 
L 971.086985 373.215102 
L 973.547086 376.396996 
L 974.777136 376.396996 
L 976.007186 377.736973 
L 977.237237 377.736973 
L 978.467287 372.936301 
L 979.697337 372.936301 
L 980.927387 373.560263 
L 982.157438 373.560263 
L 983.387488 374.770115 
L 984.617538 374.770115 
L 985.847588 370.289825 
L 987.077639 370.289825 
L 988.307689 367.006062 
L 989.537739 367.341937 
L 990.767789 367.341937 
L 991.99784 366.195199 
L 995.68799 366.11523 
L 996.918041 369.772142 
L 998.148091 369.772142 
L 999.378141 374.424003 
L 1000.608192 372.976548 
L 1001.838242 372.976548 
L 1003.068292 376.996736 
L 1004.298342 376.996736 
L 1005.528393 383.309493 
L 1006.758443 383.309493 
L 1007.988493 389.413772 
L 1009.218543 389.413772 
L 1010.448594 390.766225 
L 1011.678644 390.766225 
L 1012.908694 388.092756 
L 1014.138744 388.092756 
L 1015.368795 385.540523 
L 1016.598845 385.540523 
L 1017.828895 383.215045 
L 1019.058945 383.215045 
L 1020.288996 380.700722 
L 1021.519046 380.700722 
L 1022.749096 378.874474 
L 1023.979146 378.874474 
L 1025.209197 375.01853 
L 1026.439247 373.298898 
L 1027.669297 373.298898 
L 1028.899348 372.429715 
L 1030.129398 372.429715 
L 1031.359448 375.583725 
L 1032.589498 375.583725 
L 1033.819549 377.183813 
L 1035.049599 377.183813 
L 1036.279649 380.078185 
L 1037.509699 388.380638 
L 1038.73975 388.380638 
L 1039.9698 396.491571 
L 1041.19985 396.491571 
L 1042.4299 399.37641 
L 1043.659951 399.37641 
L 1044.890001 400.338943 
L 1046.120051 400.338943 
L 1047.350101 399.391089 
L 1048.580152 402.725893 
L 1049.810202 402.725893 
L 1051.040252 405.17288 
L 1052.270302 405.17288 
L 1053.500353 401.938757 
L 1054.730403 401.938757 
L 1055.960453 398.190065 
L 1057.190503 398.190065 
L 1058.420554 395.05014 
L 1059.650604 395.05014 
L 1060.880654 389.696821 
L 1062.110705 390.643055 
L 1063.340755 390.643055 
L 1064.570805 381.514365 
L 1067.030906 381.514365 
L 1068.260956 377.420036 
L 1069.491006 385.115296 
L 1070.721056 385.115296 
L 1071.951107 381.413612 
L 1073.181157 381.413612 
L 1074.411207 384.947547 
L 1075.641257 384.947547 
L 1076.871308 388.425367 
L 1078.101358 389.114892 
L 1079.331408 389.114892 
L 1080.561458 391.165596 
L 1081.791509 391.165596 
L 1083.021559 390.946501 
L 1084.251609 390.946501 
L 1085.481659 396.880317 
L 1086.71171 396.880317 
L 1087.94176 394.300992 
L 1089.17181 394.300992 
L 1090.401861 391.029478 
L 1091.631911 392.49114 
L 1092.861961 392.49114 
L 1094.092011 392.298474 
L 1095.322062 392.298474 
L 1096.552112 388.421114 
L 1097.782162 388.421114 
L 1099.012212 393.031974 
L 1100.242263 393.031974 
L 1101.472313 391.817827 
L 1102.702363 389.891925 
L 1103.932413 389.891925 
L 1105.162464 389.202432 
L 1106.392514 389.202432 
L 1107.622564 392.794189 
L 1108.852614 392.794189 
L 1110.082665 392.080898 
L 1111.312715 392.080898 
L 1112.542765 397.595364 
L 1113.772815 397.595364 
L 1115.002866 396.370255 
L 1116.232916 396.370255 
L 1117.462966 400.199249 
L 1118.693016 399.626087 
L 1119.923067 399.626087 
L 1121.153117 401.744265 
L 1122.383167 401.744265 
L 1123.613218 405.42741 
L 1124.843268 405.42741 
L 1126.073318 403.682365 
L 1127.303368 403.682365 
L 1128.533419 402.591076 
L 1129.763469 400.156128 
L 1130.993519 400.156128 
L 1132.223569 399.025972 
L 1133.45362 399.025972 
L 1134.68367 399.586319 
L 1135.91372 399.586319 
L 1137.14377 396.455145 
L 1139.603871 396.529767 
L 1140.833921 393.504973 
L 1142.063971 393.504973 
L 1143.294022 395.946641 
L 1144.524072 395.946641 
L 1145.754122 390.45391 
L 1146.984172 390.45391 
L 1148.214223 390.144801 
L 1149.444273 388.65851 
L 1153.134424 388.754577 
L 1154.364474 392.100433 
L 1155.594524 392.100433 
L 1156.824575 392.682234 
L 1158.054625 392.682234 
L 1159.284675 392.860742 
L 1160.514725 392.860742 
L 1161.744776 395.0623 
L 1162.974826 392.495228 
L 1164.204876 392.495228 
L 1165.434926 392.971294 
L 1166.664977 392.971294 
L 1167.895027 394.855063 
L 1169.125077 394.855063 
L 1170.355127 391.059921 
L 1171.585178 391.059921 
L 1172.815228 392.26527 
L 1174.045278 392.26527 
L 1175.275328 394.446421 
L 1176.505379 394.446421 
L 1177.735429 385.747589 
L 1178.965479 385.747589 
L 1180.195529 391.023896 
L 1181.42558 391.023896 
L 1182.65563 393.814986 
L 1183.88568 393.814986 
L 1185.115731 396.799544 
L 1186.345781 396.799544 
L 1187.575831 393.508799 
L 1188.805881 400.619732 
L 1190.035932 400.619732 
L 1191.265982 396.793792 
L 1192.496032 396.793792 
L 1193.726082 397.4271 
L 1194.956133 397.4271 
L 1196.186183 398.18947 
L 1197.416233 395.962409 
L 1198.646283 395.962409 
L 1199.876334 398.846184 
L 1201.106384 398.846184 
L 1202.336434 392.155752 
L 1203.566484 392.155752 
L 1204.796535 389.964555 
L 1206.026585 386.23182 
L 1207.256635 386.23182 
L 1208.486685 387.88545 
L 1210.946786 387.88545 
L 1212.176836 390.674545 
L 1213.406887 390.674545 
L 1214.636937 383.625325 
L 1215.866987 380.670144 
L 1217.097037 380.670144 
L 1218.327088 388.697043 
L 1219.557138 388.697043 
L 1220.787188 379.066857 
L 1222.017238 379.066857 
L 1223.247289 383.905331 
L 1224.477339 383.905331 
L 1225.707389 376.297617 
L 1228.16749 376.297617 
L 1229.39754 375.586097 
L 1230.62759 375.586097 
L 1231.85764 370.52435 
L 1233.087691 366.141832 
L 1234.317741 366.141832 
L 1235.547791 366.8492 
L 1236.777841 366.8492 
L 1238.007892 366.035397 
L 1239.237942 366.035397 
L 1240.467992 372.442123 
L 1241.698043 372.442123 
L 1242.928093 384.427042 
L 1244.158143 384.427042 
L 1245.388193 387.685657 
L 1246.618244 387.685657 
L 1247.848294 397.163156 
L 1249.078344 397.163156 
L 1250.308394 402.727807 
L 1251.538445 402.727807 
L 1252.768495 408.091702 
L 1253.998545 408.091702 
L 1255.228595 418.921126 
L 1256.458646 418.921126 
L 1257.688696 429.679592 
L 1258.918746 429.679592 
L 1260.148796 435.977315 
L 1261.378847 435.977315 
L 1262.608897 440.69423 
L 1263.838947 440.69423 
L 1265.068997 448.158718 
L 1266.299048 448.158718 
L 1267.529098 462.455175 
L 1268.759148 462.455175 
L 1269.989198 476.182326 
L 1271.219249 479.807903 
L 1272.449299 479.807903 
L 1273.679349 491.514316 
L 1277.3695 491.514316 
L 1278.59955 502.891517 
L 1279.829601 518.500325 
L 1281.059651 518.500325 
L 1282.289701 528.050408 
L 1284.749802 528.050408 
L 1285.979852 536.61161 
L 1287.209902 536.61161 
L 1288.439952 548.398869 
L 1289.670003 548.398869 
L 1290.900053 556.40217 
L 1292.130103 556.40217 
L 1293.360153 567.799039 
L 1294.590204 567.799039 
L 1295.820254 588.39482 
L 1297.050304 592.760038 
L 1298.280354 592.760038 
L 1299.510405 603.983557 
L 1300.740455 603.983557 
L 1301.970505 612.186411 
L 1303.200556 612.186411 
L 1304.430606 621.06487 
L 1305.660656 621.06487 
L 1306.890706 639.433666 
L 1308.120757 639.433666 
L 1309.350807 648.772366 
L 1311.810907 648.772366 
L 1313.040958 652.625176 
L 1314.271008 680.093996 
L 1315.501058 680.093996 
L 1316.731108 684.064833 
L 1317.961159 684.064833 
L 1319.191209 695.261845 
L 1320.421259 695.261845 
L 1321.651309 698.142063 
L 1322.88136 707.312221 
L 1324.11141 707.312221 
L 1325.34146 715.189927 
L 1326.57151 715.189927 
L 1327.801561 717.345183 
L 1329.031611 717.345183 
L 1330.261661 727.743347 
L 1331.491711 727.743347 
L 1332.721762 739.010977 
L 1333.951812 739.010977 
L 1335.181862 745.360975 
L 1336.411913 759.981823 
L 1337.641963 759.981823 
L 1338.872013 768.987797 
L 1340.102063 768.987797 
L 1341.332114 788.527335 
L 1342.562164 788.527335 
L 1343.792214 800.641485 
L 1345.022264 800.641485 
L 1346.252315 809.238788 
L 1347.482365 819.952066 
L 1348.712415 819.952066 
L 1349.942465 829.144983 
L 1351.172516 829.144983 
L 1352.402566 840.670679 
L 1353.632616 840.670679 
L 1354.862666 850.207249 
L 1356.092717 856.754428 
L 1357.322767 856.754428 
L 1358.552817 876.401632 
L 1359.782867 876.401632 
L 1361.012918 882.425196 
L 1362.242968 882.425196 
L 1363.473018 889.756261 
L 1364.703069 889.756261 
L 1365.933119 896.780455 
L 1367.163169 896.780455 
L 1368.393219 901.145125 
L 1369.62327 913.611964 
L 1370.85332 913.611964 
L 1372.08337 916.433891 
L 1373.31342 916.433891 
L 1374.543471 921.950124 
L 1375.773521 921.950124 
L 1377.003571 925.650066 
L 1378.233621 938.095246 
L 1379.463672 938.095246 
L 1380.693722 949.781248 
L 1381.923772 949.781248 
L 1383.153822 957.67526 
L 1384.383873 957.67526 
L 1385.613923 963.140284 
L 1386.843973 963.140284 
L 1388.074023 974.48295 
L 1389.304074 984.422135 
L 1390.534124 984.422135 
L 1391.764174 990.042386 
L 1392.994224 990.042386 
L 1394.224275 998.059341 
L 1395.454325 998.059341 
L 1396.684375 1000.930488 
L 1397.914426 1000.930488 
L 1399.144476 1010.025019 
L 1400.374526 1010.025019 
L 1401.604576 1019.503551 
L 1402.834627 1035.032841 
L 1404.064677 1035.032841 
L 1405.294727 1051.997193 
L 1406.524777 1051.997193 
L 1407.754828 1062.058376 
L 1408.984878 1062.058376 
L 1410.214928 1067.536007 
L 1411.444978 1081.181877 
L 1412.675029 1081.181877 
L 1413.905079 1087.123642 
L 1415.135129 1087.123642 
L 1416.365179 1093.476271 
L 1417.59523 1093.476271 
L 1418.82528 1106.521815 
L 1420.05533 1112.78827 
L 1421.28538 1112.78827 
L 1422.515431 1119.997697 
L 1423.745481 1119.997697 
L 1424.975531 1123.852309 
L 1426.205582 1123.852309 
L 1427.435632 1128.515441 
L 1428.665682 1128.515441 
L 1429.895732 1137.255081 
L 1431.125783 1136.071797 
L 1432.355833 1136.071797 
L 1433.585883 1140.53372 
L 1434.815933 1140.53372 
L 1436.045984 1146.364348 
L 1437.276034 1146.364348 
L 1438.506084 1150.068346 
L 1439.736134 1150.068346 
L 1440.966185 1162.513081 
L 1442.196235 1159.348147 
L 1443.426285 1159.348147 
L 1444.656335 1168.957554 
L 1445.886386 1168.957554 
L 1447.116436 1164.499409 
L 1448.346486 1164.499409 
L 1449.576536 1180.856413 
L 1450.806587 1190.812196 
L 1452.036637 1193.990898 
L 1453.266687 1193.990898 
L 1454.496738 1199.547504 
L 1455.726788 1199.547504 
L 1456.956838 1207.723405 
L 1458.186888 1207.723405 
L 1459.416939 1214.58282 
L 1460.646989 1214.58282 
L 1461.877039 1221.410786 
L 1463.107089 1221.410786 
L 1464.33714 1224.099923 
L 1465.56719 1227.483249 
L 1466.79724 1227.483249 
L 1468.02729 1229.177604 
L 1469.257341 1229.177604 
L 1470.487391 1224.915672 
L 1471.717441 1224.915672 
L 1472.947491 1228.298906 
L 1474.177542 1231.2 
L 1475.407592 1231.2 
L 1476.637642 1223.758639 
L 1477.867692 1223.758639 
L 1479.097743 1229.20418 
L 1480.327793 1229.20418 
L 1481.557843 1220.213833 
L 1482.787893 1214.612316 
L 1484.017944 1211.975469 
L 1485.247994 1211.975469 
L 1486.478044 1210.319702 
L 1487.708095 1210.319702 
L 1488.938145 1211.677827 
L 1490.168195 1211.677827 
L 1491.398245 1208.233021 
L 1492.628296 1198.683984 
L 1493.858346 1198.683984 
L 1495.088396 1194.343072 
L 1496.318446 1194.343072 
L 1497.548497 1193.824446 
L 1498.778547 1193.824446 
L 1500.008597 1188.428438 
L 1502.468698 1188.428438 
L 1503.698748 1181.613941 
L 1504.928798 1173.553266 
L 1506.158848 1162.143172 
L 1507.388899 1162.143172 
L 1508.618949 1156.54058 
L 1509.848999 1148.176502 
L 1511.079049 1148.176502 
L 1512.3091 1145.69971 
L 1513.53915 1145.69971 
L 1514.7692 1140.199742 
L 1515.999251 1140.199742 
L 1517.229301 1131.017021 
L 1518.459351 1131.017021 
L 1519.689401 1117.573957 
L 1520.919452 1117.573957 
L 1522.149502 1109.640319 
L 1523.379552 1109.640319 
L 1524.609602 1100.358914 
L 1525.839653 1089.898912 
L 1527.069703 1089.898912 
L 1528.299753 1083.661877 
L 1529.529803 1083.661877 
L 1530.759854 1065.808019 
L 1531.989904 1065.808019 
L 1533.219954 1062.34995 
L 1534.450004 1062.34995 
L 1535.680055 1051.325152 
L 1536.910105 1041.750432 
L 1538.140155 1041.750432 
L 1539.370205 1034.152907 
L 1540.600256 1034.152907 
L 1541.830306 1022.735585 
L 1543.060356 1022.735585 
L 1544.290406 1017.796875 
L 1545.520457 1017.796875 
L 1546.750507 996.926923 
L 1547.980557 996.926923 
L 1549.210608 984.41254 
L 1550.440658 984.41254 
L 1551.670708 978.799837 
L 1552.900758 968.339672 
L 1554.130809 968.339672 
L 1555.360859 954.496861 
L 1556.590909 954.496861 
L 1556.590909 954.496861 
" style="fill:none;stroke:#000000;stroke-linecap:square;stroke-width:1.5;"/>
   </g>
   <g id="line2d_54">
    <path clip-path="url(#p790d188336)" d="M 288.409091 349.432436 
L 987.077639 349.432436 
L 988.307689 1070.908055 
L 1453.266687 1070.908055 
L 1454.496738 349.432436 
L 1556.590909 349.432436 
L 1556.590909 349.432436 
" style="fill:none;stroke:#ff0000;stroke-linecap:square;stroke-width:1.5;"/>
   </g>
   <g id="patch_4">
    <path d="M 225 1281.6 
L 225 172.8 
" style="fill:none;stroke:#000000;stroke-linecap:square;stroke-linejoin:miter;stroke-width:0.8;"/>
   </g>
   <g id="patch_5">
    <path d="M 1620 1281.6 
L 1620 172.8 
" style="fill:none;stroke:#000000;stroke-linecap:square;stroke-linejoin:miter;stroke-width:0.8;"/>
   </g>
   <g id="patch_6">
    <path d="M 225 1281.6 
L 1620 1281.6 
" style="fill:none;stroke:#000000;stroke-linecap:square;stroke-linejoin:miter;stroke-width:0.8;"/>
   </g>
   <g id="patch_7">
    <path d="M 225 172.8 
L 1620 172.8 
" style="fill:none;stroke:#000000;stroke-linecap:square;stroke-linejoin:miter;stroke-width:0.8;"/>
   </g>
   <g id="patch_8">
    <path d="M 755.433415 123.381022 
Q 748.920345 241.99645 742.468573 359.495527 
" style="fill:none;stroke:#000000;stroke-linecap:round;"/>
    <path d="M 744.684871 355.611197 
L 742.468573 359.495527 
L 740.690888 355.39189 
" style="fill:none;stroke:#000000;stroke-linecap:round;"/>
   </g>
   <g id="text_27">
    <!-- Close -->
    <defs>
     <path d="M 64.40625 67.28125 
L 64.40625 56.890625 
Q 59.421875 61.53125 53.78125 63.8125 
Q 48.140625 66.109375 41.796875 66.109375 
Q 29.296875 66.109375 22.65625 58.46875 
Q 16.015625 50.828125 16.015625 36.375 
Q 16.015625 21.96875 22.65625 14.328125 
Q 29.296875 6.6875 41.796875 6.6875 
Q 48.140625 6.6875 53.78125 8.984375 
Q 59.421875 11.28125 64.40625 15.921875 
L 64.40625 5.609375 
Q 59.234375 2.09375 53.4375 0.328125 
Q 47.65625 -1.421875 41.21875 -1.421875 
Q 24.65625 -1.421875 15.125 8.703125 
Q 5.609375 18.84375 5.609375 36.375 
Q 5.609375 53.953125 15.125 64.078125 
Q 24.65625 74.21875 41.21875 74.21875 
Q 47.75 74.21875 53.53125 72.484375 
Q 59.328125 70.75 64.40625 67.28125 
z
" id="DejaVuSans-43"/>
     <path d="M 9.421875 75.984375 
L 18.40625 75.984375 
L 18.40625 0 
L 9.421875 0 
z
" id="DejaVuSans-6c"/>
     <path d="M 30.609375 48.390625 
Q 23.390625 48.390625 19.1875 42.75 
Q 14.984375 37.109375 14.984375 27.296875 
Q 14.984375 17.484375 19.15625 11.84375 
Q 23.34375 6.203125 30.609375 6.203125 
Q 37.796875 6.203125 41.984375 11.859375 
Q 46.1875 17.53125 46.1875 27.296875 
Q 46.1875 37.015625 41.984375 42.703125 
Q 37.796875 48.390625 30.609375 48.390625 
z
M 30.609375 56 
Q 42.328125 56 49.015625 48.375 
Q 55.71875 40.765625 55.71875 27.296875 
Q 55.71875 13.875 49.015625 6.21875 
Q 42.328125 -1.421875 30.609375 -1.421875 
Q 18.84375 -1.421875 12.171875 6.21875 
Q 5.515625 13.875 5.515625 27.296875 
Q 5.515625 40.765625 12.171875 48.375 
Q 18.84375 56 30.609375 56 
z
" id="DejaVuSans-6f"/>
     <path d="M 44.28125 53.078125 
L 44.28125 44.578125 
Q 40.484375 46.53125 36.375 47.5 
Q 32.28125 48.484375 27.875 48.484375 
Q 21.1875 48.484375 17.84375 46.4375 
Q 14.5 44.390625 14.5 40.28125 
Q 14.5 37.15625 16.890625 35.375 
Q 19.28125 33.59375 26.515625 31.984375 
L 29.59375 31.296875 
Q 39.15625 29.25 43.1875 25.515625 
Q 47.21875 21.78125 47.21875 15.09375 
Q 47.21875 7.46875 41.1875 3.015625 
Q 35.15625 -1.421875 24.609375 -1.421875 
Q 20.21875 -1.421875 15.453125 -0.5625 
Q 10.6875 0.296875 5.421875 2 
L 5.421875 11.28125 
Q 10.40625 8.6875 15.234375 7.390625 
Q 20.0625 6.109375 24.8125 6.109375 
Q 31.15625 6.109375 34.5625 8.28125 
Q 37.984375 10.453125 37.984375 14.40625 
Q 37.984375 18.0625 35.515625 20.015625 
Q 33.0625 21.96875 24.703125 23.78125 
L 21.578125 24.515625 
Q 13.234375 26.265625 9.515625 29.90625 
Q 5.8125 33.546875 5.8125 39.890625 
Q 5.8125 47.609375 11.28125 51.796875 
Q 16.75 56 26.8125 56 
Q 31.78125 56 36.171875 55.265625 
Q 40.578125 54.546875 44.28125 53.078125 
z
" id="DejaVuSans-73"/>
     <path d="M 56.203125 29.59375 
L 56.203125 25.203125 
L 14.890625 25.203125 
Q 15.484375 15.921875 20.484375 11.0625 
Q 25.484375 6.203125 34.421875 6.203125 
Q 39.59375 6.203125 44.453125 7.46875 
Q 49.3125 8.734375 54.109375 11.28125 
L 54.109375 2.78125 
Q 49.265625 0.734375 44.1875 -0.34375 
Q 39.109375 -1.421875 33.890625 -1.421875 
Q 20.796875 -1.421875 13.15625 6.1875 
Q 5.515625 13.8125 5.515625 26.8125 
Q 5.515625 40.234375 12.765625 48.109375 
Q 20.015625 56 32.328125 56 
Q 43.359375 56 49.78125 48.890625 
Q 56.203125 41.796875 56.203125 29.59375 
z
M 47.21875 32.234375 
Q 47.125 39.59375 43.09375 43.984375 
Q 39.0625 48.390625 32.421875 48.390625 
Q 24.90625 48.390625 20.390625 44.140625 
Q 15.875 39.890625 15.1875 32.171875 
z
" id="DejaVuSans-65"/>
    </defs>
    <g transform="translate(742.297637 117.301875)scale(0.1 -0.1)">
     <use xlink:href="#DejaVuSans-43"/>
     <use x="69.824219" xlink:href="#DejaVuSans-6c"/>
     <use x="97.607422" xlink:href="#DejaVuSans-6f"/>
     <use x="158.789062" xlink:href="#DejaVuSans-73"/>
     <use x="210.888672" xlink:href="#DejaVuSans-65"/>
    </g>
   </g>
   <g id="legend_1">
    <g id="patch_9">
     <path d="M 1516.864063 224.834375 
L 1613 224.834375 
Q 1615 224.834375 1615 222.834375 
L 1615 179.8 
Q 1615 177.8 1613 177.8 
L 1516.864063 177.8 
Q 1514.864063 177.8 1514.864063 179.8 
L 1514.864063 222.834375 
Q 1514.864063 224.834375 1516.864063 224.834375 
z
" style="fill:#ffffff;opacity:0.8;stroke:#cccccc;stroke-linejoin:miter;"/>
    </g>
    <g id="line2d_55">
     <path d="M 1518.864063 185.898438 
L 1538.864063 185.898438 
" style="fill:none;stroke:#000000;stroke-linecap:square;stroke-width:1.5;"/>
    </g>
    <g id="line2d_56"/>
    <g id="text_28">
     <!-- X position -->
     <defs>
      <path d="M 6.296875 72.90625 
L 16.890625 72.90625 
L 35.015625 45.796875 
L 53.21875 72.90625 
L 63.8125 72.90625 
L 40.375 37.890625 
L 65.375 0 
L 54.78125 0 
L 34.28125 31 
L 13.625 0 
L 2.984375 0 
L 29 38.921875 
z
" id="DejaVuSans-58"/>
      <path id="DejaVuSans-20"/>
      <path d="M 18.109375 8.203125 
L 18.109375 -20.796875 
L 9.078125 -20.796875 
L 9.078125 54.6875 
L 18.109375 54.6875 
L 18.109375 46.390625 
Q 20.953125 51.265625 25.265625 53.625 
Q 29.59375 56 35.59375 56 
Q 45.5625 56 51.78125 48.09375 
Q 58.015625 40.1875 58.015625 27.296875 
Q 58.015625 14.40625 51.78125 6.484375 
Q 45.5625 -1.421875 35.59375 -1.421875 
Q 29.59375 -1.421875 25.265625 0.953125 
Q 20.953125 3.328125 18.109375 8.203125 
z
M 48.6875 27.296875 
Q 48.6875 37.203125 44.609375 42.84375 
Q 40.53125 48.484375 33.40625 48.484375 
Q 26.265625 48.484375 22.1875 42.84375 
Q 18.109375 37.203125 18.109375 27.296875 
Q 18.109375 17.390625 22.1875 11.75 
Q 26.265625 6.109375 33.40625 6.109375 
Q 40.53125 6.109375 44.609375 11.75 
Q 48.6875 17.390625 48.6875 27.296875 
z
" id="DejaVuSans-70"/>
      <path d="M 9.421875 54.6875 
L 18.40625 54.6875 
L 18.40625 0 
L 9.421875 0 
z
M 9.421875 75.984375 
L 18.40625 75.984375 
L 18.40625 64.59375 
L 9.421875 64.59375 
z
" id="DejaVuSans-69"/>
      <path d="M 18.3125 70.21875 
L 18.3125 54.6875 
L 36.8125 54.6875 
L 36.8125 47.703125 
L 18.3125 47.703125 
L 18.3125 18.015625 
Q 18.3125 11.328125 20.140625 9.421875 
Q 21.96875 7.515625 27.59375 7.515625 
L 36.8125 7.515625 
L 36.8125 0 
L 27.59375 0 
Q 17.1875 0 13.234375 3.875 
Q 9.28125 7.765625 9.28125 18.015625 
L 9.28125 47.703125 
L 2.6875 47.703125 
L 2.6875 54.6875 
L 9.28125 54.6875 
L 9.28125 70.21875 
z
" id="DejaVuSans-74"/>
      <path d="M 54.890625 33.015625 
L 54.890625 0 
L 45.90625 0 
L 45.90625 32.71875 
Q 45.90625 40.484375 42.875 44.328125 
Q 39.84375 48.1875 33.796875 48.1875 
Q 26.515625 48.1875 22.3125 43.546875 
Q 18.109375 38.921875 18.109375 30.90625 
L 18.109375 0 
L 9.078125 0 
L 9.078125 54.6875 
L 18.109375 54.6875 
L 18.109375 46.1875 
Q 21.34375 51.125 25.703125 53.5625 
Q 30.078125 56 35.796875 56 
Q 45.21875 56 50.046875 50.171875 
Q 54.890625 44.34375 54.890625 33.015625 
z
" id="DejaVuSans-6e"/>
     </defs>
     <g transform="translate(1546.864063 189.398438)scale(0.1 -0.1)">
      <use xlink:href="#DejaVuSans-58"/>
      <use x="68.505859" xlink:href="#DejaVuSans-20"/>
      <use x="100.292969" xlink:href="#DejaVuSans-70"/>
      <use x="163.769531" xlink:href="#DejaVuSans-6f"/>
      <use x="224.951172" xlink:href="#DejaVuSans-73"/>
      <use x="277.050781" xlink:href="#DejaVuSans-69"/>
      <use x="304.833984" xlink:href="#DejaVuSans-74"/>
      <use x="344.042969" xlink:href="#DejaVuSans-69"/>
      <use x="371.826172" xlink:href="#DejaVuSans-6f"/>
      <use x="433.007812" xlink:href="#DejaVuSans-6e"/>
     </g>
    </g>
    <g id="line2d_57">
     <path d="M 1518.864063 200.576562 
L 1538.864063 200.576562 
" style="fill:none;stroke:#ff0000;stroke-linecap:square;stroke-width:1.5;"/>
    </g>
    <g id="line2d_58"/>
    <g id="text_29">
     <!-- goal -->
     <defs>
      <path d="M 45.40625 27.984375 
Q 45.40625 37.75 41.375 43.109375 
Q 37.359375 48.484375 30.078125 48.484375 
Q 22.859375 48.484375 18.828125 43.109375 
Q 14.796875 37.75 14.796875 27.984375 
Q 14.796875 18.265625 18.828125 12.890625 
Q 22.859375 7.515625 30.078125 7.515625 
Q 37.359375 7.515625 41.375 12.890625 
Q 45.40625 18.265625 45.40625 27.984375 
z
M 54.390625 6.78125 
Q 54.390625 -7.171875 48.1875 -13.984375 
Q 42 -20.796875 29.203125 -20.796875 
Q 24.46875 -20.796875 20.265625 -20.09375 
Q 16.0625 -19.390625 12.109375 -17.921875 
L 12.109375 -9.1875 
Q 16.0625 -11.328125 19.921875 -12.34375 
Q 23.78125 -13.375 27.78125 -13.375 
Q 36.625 -13.375 41.015625 -8.765625 
Q 45.40625 -4.15625 45.40625 5.171875 
L 45.40625 9.625 
Q 42.625 4.78125 38.28125 2.390625 
Q 33.9375 0 27.875 0 
Q 17.828125 0 11.671875 7.65625 
Q 5.515625 15.328125 5.515625 27.984375 
Q 5.515625 40.671875 11.671875 48.328125 
Q 17.828125 56 27.875 56 
Q 33.9375 56 38.28125 53.609375 
Q 42.625 51.21875 45.40625 46.390625 
L 45.40625 54.6875 
L 54.390625 54.6875 
z
" id="DejaVuSans-67"/>
      <path d="M 34.28125 27.484375 
Q 23.390625 27.484375 19.1875 25 
Q 14.984375 22.515625 14.984375 16.5 
Q 14.984375 11.71875 18.140625 8.90625 
Q 21.296875 6.109375 26.703125 6.109375 
Q 34.1875 6.109375 38.703125 11.40625 
Q 43.21875 16.703125 43.21875 25.484375 
L 43.21875 27.484375 
z
M 52.203125 31.203125 
L 52.203125 0 
L 43.21875 0 
L 43.21875 8.296875 
Q 40.140625 3.328125 35.546875 0.953125 
Q 30.953125 -1.421875 24.3125 -1.421875 
Q 15.921875 -1.421875 10.953125 3.296875 
Q 6 8.015625 6 15.921875 
Q 6 25.140625 12.171875 29.828125 
Q 18.359375 34.515625 30.609375 34.515625 
L 43.21875 34.515625 
L 43.21875 35.40625 
Q 43.21875 41.609375 39.140625 45 
Q 35.0625 48.390625 27.6875 48.390625 
Q 23 48.390625 18.546875 47.265625 
Q 14.109375 46.140625 10.015625 43.890625 
L 10.015625 52.203125 
Q 14.9375 54.109375 19.578125 55.046875 
Q 24.21875 56 28.609375 56 
Q 40.484375 56 46.34375 49.84375 
Q 52.203125 43.703125 52.203125 31.203125 
z
" id="DejaVuSans-61"/>
     </defs>
     <g transform="translate(1546.864063 204.076562)scale(0.1 -0.1)">
      <use xlink:href="#DejaVuSans-67"/>
      <use x="63.476562" xlink:href="#DejaVuSans-6f"/>
      <use x="124.658203" xlink:href="#DejaVuSans-61"/>
      <use x="185.9375" xlink:href="#DejaVuSans-6c"/>
     </g>
    </g>
    <g id="patch_10">
     <path d="M 1518.864063 218.754688 
L 1538.864063 218.754688 
L 1538.864063 211.754688 
L 1518.864063 211.754688 
z
" style="opacity:0.3;"/>
    </g>
    <g id="text_30">
     <!-- NULL motion -->
     <defs>
      <path d="M 9.8125 72.90625 
L 23.09375 72.90625 
L 55.421875 11.921875 
L 55.421875 72.90625 
L 64.984375 72.90625 
L 64.984375 0 
L 51.703125 0 
L 19.390625 60.984375 
L 19.390625 0 
L 9.8125 0 
z
" id="DejaVuSans-4e"/>
      <path d="M 8.6875 72.90625 
L 18.609375 72.90625 
L 18.609375 28.609375 
Q 18.609375 16.890625 22.84375 11.734375 
Q 27.09375 6.59375 36.625 6.59375 
Q 46.09375 6.59375 50.34375 11.734375 
Q 54.59375 16.890625 54.59375 28.609375 
L 54.59375 72.90625 
L 64.5 72.90625 
L 64.5 27.390625 
Q 64.5 13.140625 57.4375 5.859375 
Q 50.390625 -1.421875 36.625 -1.421875 
Q 22.796875 -1.421875 15.734375 5.859375 
Q 8.6875 13.140625 8.6875 27.390625 
z
" id="DejaVuSans-55"/>
      <path d="M 9.8125 72.90625 
L 19.671875 72.90625 
L 19.671875 8.296875 
L 55.171875 8.296875 
L 55.171875 0 
L 9.8125 0 
z
" id="DejaVuSans-4c"/>
      <path d="M 52 44.1875 
Q 55.375 50.25 60.0625 53.125 
Q 64.75 56 71.09375 56 
Q 79.640625 56 84.28125 50.015625 
Q 88.921875 44.046875 88.921875 33.015625 
L 88.921875 0 
L 79.890625 0 
L 79.890625 32.71875 
Q 79.890625 40.578125 77.09375 44.375 
Q 74.3125 48.1875 68.609375 48.1875 
Q 61.625 48.1875 57.5625 43.546875 
Q 53.515625 38.921875 53.515625 30.90625 
L 53.515625 0 
L 44.484375 0 
L 44.484375 32.71875 
Q 44.484375 40.625 41.703125 44.40625 
Q 38.921875 48.1875 33.109375 48.1875 
Q 26.21875 48.1875 22.15625 43.53125 
Q 18.109375 38.875 18.109375 30.90625 
L 18.109375 0 
L 9.078125 0 
L 9.078125 54.6875 
L 18.109375 54.6875 
L 18.109375 46.1875 
Q 21.1875 51.21875 25.484375 53.609375 
Q 29.78125 56 35.6875 56 
Q 41.65625 56 45.828125 52.96875 
Q 50 49.953125 52 44.1875 
z
" id="DejaVuSans-6d"/>
     </defs>
     <g transform="translate(1546.864063 218.754688)scale(0.1 -0.1)">
      <use xlink:href="#DejaVuSans-4e"/>
      <use x="74.804688" xlink:href="#DejaVuSans-55"/>
      <use x="147.998047" xlink:href="#DejaVuSans-4c"/>
      <use x="203.710938" xlink:href="#DejaVuSans-4c"/>
      <use x="259.423828" xlink:href="#DejaVuSans-20"/>
      <use x="291.210938" xlink:href="#DejaVuSans-6d"/>
      <use x="388.623047" xlink:href="#DejaVuSans-6f"/>
      <use x="449.804688" xlink:href="#DejaVuSans-74"/>
      <use x="489.013672" xlink:href="#DejaVuSans-69"/>
      <use x="516.796875" xlink:href="#DejaVuSans-6f"/>
      <use x="577.978516" xlink:href="#DejaVuSans-6e"/>
     </g>
    </g>
   </g>
  </g>
 </g>
 <defs>
  <clipPath id="p790d188336">
   <rect height="1108.8" width="1395" x="225" y="172.8"/>
  </clipPath>
 </defs>
</svg>
