<?xml version="1.0" encoding="utf-8" standalone="no"?>
<!DOCTYPE svg PUBLIC "-//W3C//DTD SVG 1.1//EN"
  "http://www.w3.org/Graphics/SVG/1.1/DTD/svg11.dtd">
<!-- Created with matplotlib (http://matplotlib.org/) -->
<svg height="1440pt" version="1.1" viewBox="0 0 1800 1440" width="1800pt" xmlns="http://www.w3.org/2000/svg" xmlns:xlink="http://www.w3.org/1999/xlink">
 <defs>
  <style type="text/css">
*{stroke-linecap:butt;stroke-linejoin:round;}
  </style>
 </defs>
 <g id="figure_1">
  <g id="patch_1">
   <path d="M 0 1440 
L 1800 1440 
L 1800 0 
L 0 0 
z
" style="fill:#ffffff;"/>
  </g>
  <g id="axes_1">
   <g id="patch_2">
    <path d="M 225 1281.6 
L 1620 1281.6 
L 1620 172.8 
L 225 172.8 
z
" style="fill:#ffffff;"/>
   </g>
   <g id="matplotlib.axis_1">
    <g id="xtick_1">
     <g id="line2d_1">
      <path clip-path="url(#p846b256ac1)" d="M 288.409091 1281.6 
L 288.409091 172.8 
" style="fill:none;stroke:#b0b0b0;stroke-linecap:square;stroke-width:0.8;"/>
     </g>
     <g id="line2d_2">
      <defs>
       <path d="M 0 0 
L 0 3.5 
" id="m9e913583e6" style="stroke:#000000;stroke-width:0.8;"/>
      </defs>
      <g>
       <use style="stroke:#000000;stroke-width:0.8;" x="288.409091" xlink:href="#m9e913583e6" y="1281.6"/>
      </g>
     </g>
     <g id="text_1">
      <!-- 0 -->
      <defs>
       <path d="M 31.78125 66.40625 
Q 24.171875 66.40625 20.328125 58.90625 
Q 16.5 51.421875 16.5 36.375 
Q 16.5 21.390625 20.328125 13.890625 
Q 24.171875 6.390625 31.78125 6.390625 
Q 39.453125 6.390625 43.28125 13.890625 
Q 47.125 21.390625 47.125 36.375 
Q 47.125 51.421875 43.28125 58.90625 
Q 39.453125 66.40625 31.78125 66.40625 
z
M 31.78125 74.21875 
Q 44.046875 74.21875 50.515625 64.515625 
Q 56.984375 54.828125 56.984375 36.375 
Q 56.984375 17.96875 50.515625 8.265625 
Q 44.046875 -1.421875 31.78125 -1.421875 
Q 19.53125 -1.421875 13.0625 8.265625 
Q 6.59375 17.96875 6.59375 36.375 
Q 6.59375 54.828125 13.0625 64.515625 
Q 19.53125 74.21875 31.78125 74.21875 
z
" id="DejaVuSans-30"/>
      </defs>
      <g transform="translate(285.227841 1296.198437)scale(0.1 -0.1)">
       <use xlink:href="#DejaVuSans-30"/>
      </g>
     </g>
    </g>
    <g id="xtick_2">
     <g id="line2d_3">
      <path clip-path="url(#p846b256ac1)" d="M 534.419143 1281.6 
L 534.419143 172.8 
" style="fill:none;stroke:#b0b0b0;stroke-linecap:square;stroke-width:0.8;"/>
     </g>
     <g id="line2d_4">
      <g>
       <use style="stroke:#000000;stroke-width:0.8;" x="534.419143" xlink:href="#m9e913583e6" y="1281.6"/>
      </g>
     </g>
     <g id="text_2">
      <!-- 200 -->
      <defs>
       <path d="M 19.1875 8.296875 
L 53.609375 8.296875 
L 53.609375 0 
L 7.328125 0 
L 7.328125 8.296875 
Q 12.9375 14.109375 22.625 23.890625 
Q 32.328125 33.6875 34.8125 36.53125 
Q 39.546875 41.84375 41.421875 45.53125 
Q 43.3125 49.21875 43.3125 52.78125 
Q 43.3125 58.59375 39.234375 62.25 
Q 35.15625 65.921875 28.609375 65.921875 
Q 23.96875 65.921875 18.8125 64.3125 
Q 13.671875 62.703125 7.8125 59.421875 
L 7.8125 69.390625 
Q 13.765625 71.78125 18.9375 73 
Q 24.125 74.21875 28.421875 74.21875 
Q 39.75 74.21875 46.484375 68.546875 
Q 53.21875 62.890625 53.21875 53.421875 
Q 53.21875 48.921875 51.53125 44.890625 
Q 49.859375 40.875 45.40625 35.40625 
Q 44.1875 33.984375 37.640625 27.21875 
Q 31.109375 20.453125 19.1875 8.296875 
z
" id="DejaVuSans-32"/>
      </defs>
      <g transform="translate(524.875393 1296.198437)scale(0.1 -0.1)">
       <use xlink:href="#DejaVuSans-32"/>
       <use x="63.623047" xlink:href="#DejaVuSans-30"/>
       <use x="127.246094" xlink:href="#DejaVuSans-30"/>
      </g>
     </g>
    </g>
    <g id="xtick_3">
     <g id="line2d_5">
      <path clip-path="url(#p846b256ac1)" d="M 780.429195 1281.6 
L 780.429195 172.8 
" style="fill:none;stroke:#b0b0b0;stroke-linecap:square;stroke-width:0.8;"/>
     </g>
     <g id="line2d_6">
      <g>
       <use style="stroke:#000000;stroke-width:0.8;" x="780.429195" xlink:href="#m9e913583e6" y="1281.6"/>
      </g>
     </g>
     <g id="text_3">
      <!-- 400 -->
      <defs>
       <path d="M 37.796875 64.3125 
L 12.890625 25.390625 
L 37.796875 25.390625 
z
M 35.203125 72.90625 
L 47.609375 72.90625 
L 47.609375 25.390625 
L 58.015625 25.390625 
L 58.015625 17.1875 
L 47.609375 17.1875 
L 47.609375 0 
L 37.796875 0 
L 37.796875 17.1875 
L 4.890625 17.1875 
L 4.890625 26.703125 
z
" id="DejaVuSans-34"/>
      </defs>
      <g transform="translate(770.885445 1296.198437)scale(0.1 -0.1)">
       <use xlink:href="#DejaVuSans-34"/>
       <use x="63.623047" xlink:href="#DejaVuSans-30"/>
       <use x="127.246094" xlink:href="#DejaVuSans-30"/>
      </g>
     </g>
    </g>
    <g id="xtick_4">
     <g id="line2d_7">
      <path clip-path="url(#p846b256ac1)" d="M 1026.439247 1281.6 
L 1026.439247 172.8 
" style="fill:none;stroke:#b0b0b0;stroke-linecap:square;stroke-width:0.8;"/>
     </g>
     <g id="line2d_8">
      <g>
       <use style="stroke:#000000;stroke-width:0.8;" x="1026.439247" xlink:href="#m9e913583e6" y="1281.6"/>
      </g>
     </g>
     <g id="text_4">
      <!-- 600 -->
      <defs>
       <path d="M 33.015625 40.375 
Q 26.375 40.375 22.484375 35.828125 
Q 18.609375 31.296875 18.609375 23.390625 
Q 18.609375 15.53125 22.484375 10.953125 
Q 26.375 6.390625 33.015625 6.390625 
Q 39.65625 6.390625 43.53125 10.953125 
Q 47.40625 15.53125 47.40625 23.390625 
Q 47.40625 31.296875 43.53125 35.828125 
Q 39.65625 40.375 33.015625 40.375 
z
M 52.59375 71.296875 
L 52.59375 62.3125 
Q 48.875 64.0625 45.09375 64.984375 
Q 41.3125 65.921875 37.59375 65.921875 
Q 27.828125 65.921875 22.671875 59.328125 
Q 17.53125 52.734375 16.796875 39.40625 
Q 19.671875 43.65625 24.015625 45.921875 
Q 28.375 48.1875 33.59375 48.1875 
Q 44.578125 48.1875 50.953125 41.515625 
Q 57.328125 34.859375 57.328125 23.390625 
Q 57.328125 12.15625 50.6875 5.359375 
Q 44.046875 -1.421875 33.015625 -1.421875 
Q 20.359375 -1.421875 13.671875 8.265625 
Q 6.984375 17.96875 6.984375 36.375 
Q 6.984375 53.65625 15.1875 63.9375 
Q 23.390625 74.21875 37.203125 74.21875 
Q 40.921875 74.21875 44.703125 73.484375 
Q 48.484375 72.75 52.59375 71.296875 
z
" id="DejaVuSans-36"/>
      </defs>
      <g transform="translate(1016.895497 1296.198437)scale(0.1 -0.1)">
       <use xlink:href="#DejaVuSans-36"/>
       <use x="63.623047" xlink:href="#DejaVuSans-30"/>
       <use x="127.246094" xlink:href="#DejaVuSans-30"/>
      </g>
     </g>
    </g>
    <g id="xtick_5">
     <g id="line2d_9">
      <path clip-path="url(#p846b256ac1)" d="M 1272.449299 1281.6 
L 1272.449299 172.8 
" style="fill:none;stroke:#b0b0b0;stroke-linecap:square;stroke-width:0.8;"/>
     </g>
     <g id="line2d_10">
      <g>
       <use style="stroke:#000000;stroke-width:0.8;" x="1272.449299" xlink:href="#m9e913583e6" y="1281.6"/>
      </g>
     </g>
     <g id="text_5">
      <!-- 800 -->
      <defs>
       <path d="M 31.78125 34.625 
Q 24.75 34.625 20.71875 30.859375 
Q 16.703125 27.09375 16.703125 20.515625 
Q 16.703125 13.921875 20.71875 10.15625 
Q 24.75 6.390625 31.78125 6.390625 
Q 38.8125 6.390625 42.859375 10.171875 
Q 46.921875 13.96875 46.921875 20.515625 
Q 46.921875 27.09375 42.890625 30.859375 
Q 38.875 34.625 31.78125 34.625 
z
M 21.921875 38.8125 
Q 15.578125 40.375 12.03125 44.71875 
Q 8.5 49.078125 8.5 55.328125 
Q 8.5 64.0625 14.71875 69.140625 
Q 20.953125 74.21875 31.78125 74.21875 
Q 42.671875 74.21875 48.875 69.140625 
Q 55.078125 64.0625 55.078125 55.328125 
Q 55.078125 49.078125 51.53125 44.71875 
Q 48 40.375 41.703125 38.8125 
Q 48.828125 37.15625 52.796875 32.3125 
Q 56.78125 27.484375 56.78125 20.515625 
Q 56.78125 9.90625 50.3125 4.234375 
Q 43.84375 -1.421875 31.78125 -1.421875 
Q 19.734375 -1.421875 13.25 4.234375 
Q 6.78125 9.90625 6.78125 20.515625 
Q 6.78125 27.484375 10.78125 32.3125 
Q 14.796875 37.15625 21.921875 38.8125 
z
M 18.3125 54.390625 
Q 18.3125 48.734375 21.84375 45.5625 
Q 25.390625 42.390625 31.78125 42.390625 
Q 38.140625 42.390625 41.71875 45.5625 
Q 45.3125 48.734375 45.3125 54.390625 
Q 45.3125 60.0625 41.71875 63.234375 
Q 38.140625 66.40625 31.78125 66.40625 
Q 25.390625 66.40625 21.84375 63.234375 
Q 18.3125 60.0625 18.3125 54.390625 
z
" id="DejaVuSans-38"/>
      </defs>
      <g transform="translate(1262.905549 1296.198437)scale(0.1 -0.1)">
       <use xlink:href="#DejaVuSans-38"/>
       <use x="63.623047" xlink:href="#DejaVuSans-30"/>
       <use x="127.246094" xlink:href="#DejaVuSans-30"/>
      </g>
     </g>
    </g>
    <g id="xtick_6">
     <g id="line2d_11">
      <path clip-path="url(#p846b256ac1)" d="M 1518.459351 1281.6 
L 1518.459351 172.8 
" style="fill:none;stroke:#b0b0b0;stroke-linecap:square;stroke-width:0.8;"/>
     </g>
     <g id="line2d_12">
      <g>
       <use style="stroke:#000000;stroke-width:0.8;" x="1518.459351" xlink:href="#m9e913583e6" y="1281.6"/>
      </g>
     </g>
     <g id="text_6">
      <!-- 1000 -->
      <defs>
       <path d="M 12.40625 8.296875 
L 28.515625 8.296875 
L 28.515625 63.921875 
L 10.984375 60.40625 
L 10.984375 69.390625 
L 28.421875 72.90625 
L 38.28125 72.90625 
L 38.28125 8.296875 
L 54.390625 8.296875 
L 54.390625 0 
L 12.40625 0 
z
" id="DejaVuSans-31"/>
      </defs>
      <g transform="translate(1505.734351 1296.198437)scale(0.1 -0.1)">
       <use xlink:href="#DejaVuSans-31"/>
       <use x="63.623047" xlink:href="#DejaVuSans-30"/>
       <use x="127.246094" xlink:href="#DejaVuSans-30"/>
       <use x="190.869141" xlink:href="#DejaVuSans-30"/>
      </g>
     </g>
    </g>
   </g>
   <g id="matplotlib.axis_2">
    <g id="ytick_1">
     <g id="line2d_13">
      <path clip-path="url(#p846b256ac1)" d="M 225 1281.6 
L 1620 1281.6 
" style="fill:none;stroke:#b0b0b0;stroke-linecap:square;stroke-width:0.8;"/>
     </g>
     <g id="line2d_14">
      <defs>
       <path d="M 0 0 
L -3.5 0 
" id="mdc29146357" style="stroke:#000000;stroke-width:0.8;"/>
      </defs>
      <g>
       <use style="stroke:#000000;stroke-width:0.8;" x="225" xlink:href="#mdc29146357" y="1281.6"/>
      </g>
     </g>
     <g id="text_7">
      <!-- −0.1235 -->
      <defs>
       <path d="M 10.59375 35.5 
L 73.1875 35.5 
L 73.1875 27.203125 
L 10.59375 27.203125 
z
" id="DejaVuSans-2212"/>
       <path d="M 10.6875 12.40625 
L 21 12.40625 
L 21 0 
L 10.6875 0 
z
" id="DejaVuSans-2e"/>
       <path d="M 40.578125 39.3125 
Q 47.65625 37.796875 51.625 33 
Q 55.609375 28.21875 55.609375 21.1875 
Q 55.609375 10.40625 48.1875 4.484375 
Q 40.765625 -1.421875 27.09375 -1.421875 
Q 22.515625 -1.421875 17.65625 -0.515625 
Q 12.796875 0.390625 7.625 2.203125 
L 7.625 11.71875 
Q 11.71875 9.328125 16.59375 8.109375 
Q 21.484375 6.890625 26.8125 6.890625 
Q 36.078125 6.890625 40.9375 10.546875 
Q 45.796875 14.203125 45.796875 21.1875 
Q 45.796875 27.640625 41.28125 31.265625 
Q 36.765625 34.90625 28.71875 34.90625 
L 20.21875 34.90625 
L 20.21875 43.015625 
L 29.109375 43.015625 
Q 36.375 43.015625 40.234375 45.921875 
Q 44.09375 48.828125 44.09375 54.296875 
Q 44.09375 59.90625 40.109375 62.90625 
Q 36.140625 65.921875 28.71875 65.921875 
Q 24.65625 65.921875 20.015625 65.03125 
Q 15.375 64.15625 9.8125 62.3125 
L 9.8125 71.09375 
Q 15.4375 72.65625 20.34375 73.4375 
Q 25.25 74.21875 29.59375 74.21875 
Q 40.828125 74.21875 47.359375 69.109375 
Q 53.90625 64.015625 53.90625 55.328125 
Q 53.90625 49.265625 50.4375 45.09375 
Q 46.96875 40.921875 40.578125 39.3125 
z
" id="DejaVuSans-33"/>
       <path d="M 10.796875 72.90625 
L 49.515625 72.90625 
L 49.515625 64.59375 
L 19.828125 64.59375 
L 19.828125 46.734375 
Q 21.96875 47.46875 24.109375 47.828125 
Q 26.265625 48.1875 28.421875 48.1875 
Q 40.625 48.1875 47.75 41.5 
Q 54.890625 34.8125 54.890625 23.390625 
Q 54.890625 11.625 47.5625 5.09375 
Q 40.234375 -1.421875 26.90625 -1.421875 
Q 22.3125 -1.421875 17.546875 -0.640625 
Q 12.796875 0.140625 7.71875 1.703125 
L 7.71875 11.625 
Q 12.109375 9.234375 16.796875 8.0625 
Q 21.484375 6.890625 26.703125 6.890625 
Q 35.15625 6.890625 40.078125 11.328125 
Q 45.015625 15.765625 45.015625 23.390625 
Q 45.015625 31 40.078125 35.4375 
Q 35.15625 39.890625 26.703125 39.890625 
Q 22.75 39.890625 18.8125 39.015625 
Q 14.890625 38.140625 10.796875 36.28125 
z
" id="DejaVuSans-35"/>
      </defs>
      <g transform="translate(174.629687 1285.399219)scale(0.1 -0.1)">
       <use xlink:href="#DejaVuSans-2212"/>
       <use x="83.789062" xlink:href="#DejaVuSans-30"/>
       <use x="147.412109" xlink:href="#DejaVuSans-2e"/>
       <use x="179.199219" xlink:href="#DejaVuSans-31"/>
       <use x="242.822266" xlink:href="#DejaVuSans-32"/>
       <use x="306.445312" xlink:href="#DejaVuSans-33"/>
       <use x="370.068359" xlink:href="#DejaVuSans-35"/>
      </g>
     </g>
    </g>
    <g id="ytick_2">
     <g id="line2d_15">
      <path clip-path="url(#p846b256ac1)" d="M 225 1051.261797 
L 1620 1051.261797 
" style="fill:none;stroke:#b0b0b0;stroke-linecap:square;stroke-width:0.8;"/>
     </g>
     <g id="line2d_16">
      <g>
       <use style="stroke:#000000;stroke-width:0.8;" x="225" xlink:href="#mdc29146357" y="1051.261797"/>
      </g>
     </g>
     <g id="text_8">
      <!-- −0.1135 -->
      <g transform="translate(174.629687 1055.061016)scale(0.1 -0.1)">
       <use xlink:href="#DejaVuSans-2212"/>
       <use x="83.789062" xlink:href="#DejaVuSans-30"/>
       <use x="147.412109" xlink:href="#DejaVuSans-2e"/>
       <use x="179.199219" xlink:href="#DejaVuSans-31"/>
       <use x="242.822266" xlink:href="#DejaVuSans-31"/>
       <use x="306.445312" xlink:href="#DejaVuSans-33"/>
       <use x="370.068359" xlink:href="#DejaVuSans-35"/>
      </g>
     </g>
    </g>
    <g id="ytick_3">
     <g id="line2d_17">
      <path clip-path="url(#p846b256ac1)" d="M 225 820.923594 
L 1620 820.923594 
" style="fill:none;stroke:#b0b0b0;stroke-linecap:square;stroke-width:0.8;"/>
     </g>
     <g id="line2d_18">
      <g>
       <use style="stroke:#000000;stroke-width:0.8;" x="225" xlink:href="#mdc29146357" y="820.923594"/>
      </g>
     </g>
     <g id="text_9">
      <!-- −0.1035 -->
      <g transform="translate(174.629687 824.722813)scale(0.1 -0.1)">
       <use xlink:href="#DejaVuSans-2212"/>
       <use x="83.789062" xlink:href="#DejaVuSans-30"/>
       <use x="147.412109" xlink:href="#DejaVuSans-2e"/>
       <use x="179.199219" xlink:href="#DejaVuSans-31"/>
       <use x="242.822266" xlink:href="#DejaVuSans-30"/>
       <use x="306.445312" xlink:href="#DejaVuSans-33"/>
       <use x="370.068359" xlink:href="#DejaVuSans-35"/>
      </g>
     </g>
    </g>
    <g id="ytick_4">
     <g id="line2d_19">
      <path clip-path="url(#p846b256ac1)" d="M 225 590.585392 
L 1620 590.585392 
" style="fill:none;stroke:#b0b0b0;stroke-linecap:square;stroke-width:0.8;"/>
     </g>
     <g id="line2d_20">
      <g>
       <use style="stroke:#000000;stroke-width:0.8;" x="225" xlink:href="#mdc29146357" y="590.585392"/>
      </g>
     </g>
     <g id="text_10">
      <!-- −0.0935 -->
      <defs>
       <path d="M 10.984375 1.515625 
L 10.984375 10.5 
Q 14.703125 8.734375 18.5 7.8125 
Q 22.3125 6.890625 25.984375 6.890625 
Q 35.75 6.890625 40.890625 13.453125 
Q 46.046875 20.015625 46.78125 33.40625 
Q 43.953125 29.203125 39.59375 26.953125 
Q 35.25 24.703125 29.984375 24.703125 
Q 19.046875 24.703125 12.671875 31.3125 
Q 6.296875 37.9375 6.296875 49.421875 
Q 6.296875 60.640625 12.9375 67.421875 
Q 19.578125 74.21875 30.609375 74.21875 
Q 43.265625 74.21875 49.921875 64.515625 
Q 56.59375 54.828125 56.59375 36.375 
Q 56.59375 19.140625 48.40625 8.859375 
Q 40.234375 -1.421875 26.421875 -1.421875 
Q 22.703125 -1.421875 18.890625 -0.6875 
Q 15.09375 0.046875 10.984375 1.515625 
z
M 30.609375 32.421875 
Q 37.25 32.421875 41.125 36.953125 
Q 45.015625 41.5 45.015625 49.421875 
Q 45.015625 57.28125 41.125 61.84375 
Q 37.25 66.40625 30.609375 66.40625 
Q 23.96875 66.40625 20.09375 61.84375 
Q 16.21875 57.28125 16.21875 49.421875 
Q 16.21875 41.5 20.09375 36.953125 
Q 23.96875 32.421875 30.609375 32.421875 
z
" id="DejaVuSans-39"/>
      </defs>
      <g transform="translate(174.629687 594.38461)scale(0.1 -0.1)">
       <use xlink:href="#DejaVuSans-2212"/>
       <use x="83.789062" xlink:href="#DejaVuSans-30"/>
       <use x="147.412109" xlink:href="#DejaVuSans-2e"/>
       <use x="179.199219" xlink:href="#DejaVuSans-30"/>
       <use x="242.822266" xlink:href="#DejaVuSans-39"/>
       <use x="306.445312" xlink:href="#DejaVuSans-33"/>
       <use x="370.068359" xlink:href="#DejaVuSans-35"/>
      </g>
     </g>
    </g>
    <g id="ytick_5">
     <g id="line2d_21">
      <path clip-path="url(#p846b256ac1)" d="M 225 360.247189 
L 1620 360.247189 
" style="fill:none;stroke:#b0b0b0;stroke-linecap:square;stroke-width:0.8;"/>
     </g>
     <g id="line2d_22">
      <g>
       <use style="stroke:#000000;stroke-width:0.8;" x="225" xlink:href="#mdc29146357" y="360.247189"/>
      </g>
     </g>
     <g id="text_11">
      <!-- −0.0835 -->
      <g transform="translate(174.629687 364.046408)scale(0.1 -0.1)">
       <use xlink:href="#DejaVuSans-2212"/>
       <use x="83.789062" xlink:href="#DejaVuSans-30"/>
       <use x="147.412109" xlink:href="#DejaVuSans-2e"/>
       <use x="179.199219" xlink:href="#DejaVuSans-30"/>
       <use x="242.822266" xlink:href="#DejaVuSans-38"/>
       <use x="306.445312" xlink:href="#DejaVuSans-33"/>
       <use x="370.068359" xlink:href="#DejaVuSans-35"/>
      </g>
     </g>
    </g>
   </g>
   <g id="patch_3">
    <path clip-path="url(#p846b256ac1)" d="M 288.409091 1281.6 
L 1557.820959 1281.6 
L 1557.820959 172.8 
L 288.409091 172.8 
z
" style="opacity:0.3;"/>
   </g>
   <g id="line2d_23">
    <path clip-path="url(#p846b256ac1)" d="M 288.409091 723.485345 
L 289.639141 723.485345 
L 290.869191 727.274413 
L 292.099242 727.274413 
L 293.329292 873.66919 
L 294.559342 873.66919 
L 295.789392 975.448117 
L 297.019443 975.448117 
L 298.249493 834.835326 
L 299.479543 759.223835 
L 300.709594 759.223835 
L 301.939644 893.855831 
L 303.169694 893.855831 
L 304.399744 902.431787 
L 305.629795 902.431787 
L 306.859845 868.112381 
L 308.089895 868.112381 
L 309.319945 913.927406 
L 310.549996 906.527343 
L 311.780046 906.527343 
L 313.010096 1000.972268 
L 314.240146 1000.972268 
L 315.470197 722.498976 
L 316.700247 722.498976 
L 317.930297 1032.820098 
L 319.160347 1032.820098 
L 320.390398 1171.136874 
L 321.620448 981.298381 
L 322.850498 981.298381 
L 324.080548 968.893372 
L 325.310599 968.893372 
L 326.540649 1084.843199 
L 327.770699 1084.843199 
L 329.000749 1052.962593 
L 330.2308 1052.962593 
L 331.46085 1066.544841 
L 332.6909 1066.544841 
L 333.920951 1120.510299 
L 335.151001 1120.510299 
L 336.381051 1092.605846 
L 337.611101 884.094192 
L 338.841152 884.094192 
L 340.071202 1062.850269 
L 341.301252 1062.850269 
L 342.531302 1035.179525 
L 343.761353 1035.179525 
L 344.991403 903.496158 
L 346.221453 903.496158 
L 347.451503 1087.658937 
L 348.681554 1035.404222 
L 349.911604 1035.404222 
L 351.141654 1012.27977 
L 352.371704 1012.27977 
L 353.601755 1055.2451 
L 354.831805 1055.2451 
L 356.061855 1069.302951 
L 357.291905 1044.831843 
L 358.521956 1044.831843 
L 359.752006 1018.315348 
L 360.982056 1018.315348 
L 362.212107 1151.343199 
L 363.442157 1151.343199 
L 364.672207 1027.94227 
L 365.902257 1027.94227 
L 367.132308 1048.911447 
L 368.362358 1129.57494 
L 369.592408 1129.57494 
L 370.822458 948.294703 
L 372.052509 948.294703 
L 373.282559 893.021076 
L 374.512609 893.021076 
L 375.742659 965.400798 
L 376.97271 965.400798 
L 378.20276 964.50557 
L 379.43281 908.781999 
L 380.66286 908.781999 
L 381.892911 958.696727 
L 383.122961 958.696727 
L 384.353011 860.874625 
L 385.583061 860.874625 
L 386.813112 898.386388 
L 388.043162 898.386388 
L 389.273212 1073.662027 
L 390.503262 776.640888 
L 391.733313 776.640888 
L 392.963363 1021.369231 
L 394.193413 1021.369231 
L 395.423464 869.412959 
L 396.653514 869.412959 
L 397.883564 821.7355 
L 399.113614 908.968906 
L 400.343665 908.968906 
L 401.573715 830.948833 
L 402.803765 830.948833 
L 404.033815 997.151387 
L 405.263866 997.151387 
L 406.493916 920.193069 
L 407.723966 920.193069 
L 408.954016 949.646195 
L 410.184067 830.107385 
L 411.414117 830.107385 
L 412.644167 883.0293 
L 413.874217 883.0293 
L 415.104268 856.995152 
L 416.334318 856.995152 
L 417.564368 867.803655 
L 418.794418 764.595766 
L 420.024469 764.595766 
L 421.254519 870.882328 
L 422.484569 870.882328 
L 423.71462 829.378569 
L 424.94467 829.378569 
L 426.17472 889.533202 
L 427.40477 889.533202 
L 428.634821 694.560057 
L 429.864871 694.560057 
L 431.094921 828.199722 
L 432.324971 834.217721 
L 433.555022 834.217721 
L 434.785072 1015.371473 
L 436.015122 1015.371473 
L 437.245172 868.929025 
L 438.475223 868.929025 
L 439.705273 997.19285 
L 440.935323 746.554915 
L 442.165373 746.554915 
L 443.395424 782.378734 
L 444.625474 782.378734 
L 445.855524 1056.307991 
L 447.085574 1056.307991 
L 448.315625 1123.466259 
L 449.545675 649.816962 
L 450.775725 649.816962 
L 452.005776 906.45538 
L 453.235826 906.45538 
L 454.465876 810.579191 
L 455.695926 810.579191 
L 456.925977 710.911745 
L 458.156027 710.911745 
L 459.386077 535.034092 
L 460.616127 535.034092 
L 461.846178 692.797045 
L 463.076228 692.797045 
L 465.536328 545.578031 
L 466.766379 545.578031 
L 467.996429 648.855572 
L 469.226479 648.855572 
L 470.456529 592.583731 
L 471.68658 592.583731 
L 472.91663 759.109073 
L 474.14668 759.109073 
L 475.37673 629.7905 
L 476.606781 820.357533 
L 477.836831 820.357533 
L 479.066881 719.048031 
L 480.296931 719.048031 
L 481.526982 698.053608 
L 482.757032 698.053608 
L 483.987082 814.795676 
L 485.217133 622.810472 
L 486.447183 622.810472 
L 487.677233 832.611424 
L 488.907283 832.611424 
L 490.137334 956.819208 
L 491.367384 956.819208 
L 492.597434 810.126568 
L 493.827484 509.947891 
L 495.057535 509.947891 
L 496.287585 831.183233 
L 497.517635 831.183233 
L 498.747685 627.199876 
L 499.977736 627.199876 
L 501.207786 844.68883 
L 502.437836 844.68883 
L 503.667886 999.316224 
L 504.897937 720.607012 
L 506.127987 720.607012 
L 507.358037 622.416646 
L 508.588087 622.416646 
L 509.818138 857.833164 
L 511.048188 857.833164 
L 512.278238 775.619652 
L 513.508289 1002.066642 
L 514.738339 1002.066642 
L 515.968389 693.03972 
L 517.198439 892.45649 
L 518.42849 892.45649 
L 519.65854 694.781317 
L 520.88859 694.781317 
L 522.11864 759.927006 
L 523.348691 759.927006 
L 524.578741 507.584515 
L 525.808791 507.584515 
L 527.038841 741.451951 
L 528.268892 741.451951 
L 529.498942 618.576431 
L 530.728992 601.960137 
L 531.959042 601.960137 
L 533.189093 573.88355 
L 534.419143 573.88355 
L 535.649193 543.668119 
L 536.879243 543.668119 
L 538.109294 223.2 
L 539.339344 223.2 
L 540.569394 277.987746 
L 541.799444 450.831065 
L 543.029495 450.831065 
L 544.259545 324.153146 
L 545.489595 324.153146 
L 546.719646 377.363131 
L 547.949696 377.363131 
L 549.179746 602.367693 
L 550.409796 602.367693 
L 551.639847 625.2417 
L 552.869897 625.2417 
L 554.099947 446.904503 
L 555.329997 446.904503 
L 556.560048 527.15005 
L 557.790098 527.15005 
L 559.020148 488.449439 
L 560.250198 481.722746 
L 561.480249 481.722746 
L 562.710299 679.562096 
L 563.940349 679.562096 
L 565.170399 520.582237 
L 566.40045 520.582237 
L 567.6305 347.619144 
L 568.86055 347.619144 
L 570.0906 851.173849 
L 571.320651 851.173849 
L 572.550701 608.033687 
L 573.780751 736.795973 
L 575.010802 736.795973 
L 576.240852 627.716527 
L 577.470902 627.716527 
L 578.700952 708.110198 
L 579.931003 708.110198 
L 581.161053 614.024633 
L 582.391103 614.024633 
L 583.621153 534.127469 
L 584.851204 534.127469 
L 586.081254 511.916815 
L 587.311304 701.383194 
L 588.541354 701.383194 
L 589.771405 651.908638 
L 591.001455 651.908638 
L 592.231505 795.859647 
L 593.461555 795.859647 
L 594.691606 570.415784 
L 595.921656 570.415784 
L 597.151706 459.902567 
L 598.381756 309.098177 
L 599.611807 309.098177 
L 600.841857 556.851503 
L 602.071907 556.851503 
L 603.301957 456.532234 
L 604.532008 456.532234 
L 605.762058 450.744756 
L 606.992108 450.744756 
L 608.222159 472.687539 
L 609.452209 618.533702 
L 610.682259 618.533702 
L 611.912309 557.873097 
L 613.14236 557.873097 
L 614.37241 564.996436 
L 615.60246 564.996436 
L 616.83251 576.122746 
L 618.062561 353.287833 
L 619.292611 353.287833 
L 620.522661 381.715801 
L 621.752711 381.715801 
L 622.982762 750.619197 
L 624.212812 710.386096 
L 625.442862 710.386096 
L 626.672912 535.181527 
L 627.902963 535.181527 
L 629.133013 669.71987 
L 630.363063 669.71987 
L 631.593113 778.495836 
L 632.823164 778.495836 
L 634.053214 501.515707 
L 635.283264 742.065921 
L 636.513315 742.065921 
L 637.743365 530.555605 
L 638.973415 530.555605 
L 640.203465 523.962631 
L 641.433516 523.962631 
L 642.663566 673.501232 
L 643.893616 673.501232 
L 645.123666 638.231444 
L 646.353717 551.393869 
L 647.583767 551.393869 
L 648.813817 692.288147 
L 650.043867 692.288147 
L 651.273918 462.417038 
L 652.503968 462.417038 
L 653.734018 780.379358 
L 654.964068 760.913586 
L 656.194119 760.913586 
L 657.424169 551.115316 
L 658.654219 551.115316 
L 659.884269 863.634691 
L 661.11432 863.634691 
L 662.34437 647.372074 
L 663.57442 351.9151 
L 664.804471 351.9151 
L 666.034521 470.43864 
L 667.264571 470.43864 
L 668.494621 591.167451 
L 669.724672 591.167451 
L 670.954722 609.04372 
L 672.184772 972.826736 
L 673.414822 972.826736 
L 674.644873 597.053307 
L 675.874923 597.053307 
L 677.104973 576.289403 
L 678.335023 576.289403 
L 679.565074 434.307745 
L 680.795124 434.307745 
L 682.025174 578.518686 
L 683.255224 578.518686 
L 684.485275 523.417537 
L 685.715325 523.417537 
L 686.945375 518.293185 
L 688.175425 651.331467 
L 689.405476 651.331467 
L 690.635526 727.391352 
L 691.865576 727.391352 
L 693.095626 703.951656 
L 694.325677 703.951656 
L 695.555727 626.498922 
L 696.785777 626.498922 
L 698.015828 730.619107 
L 699.245878 730.619107 
L 700.475928 627.323404 
L 701.705978 761.029253 
L 702.936029 761.029253 
L 704.166079 671.365884 
L 705.396129 671.365884 
L 706.626179 657.717796 
L 707.85623 657.717796 
L 709.08628 612.47538 
L 710.31633 612.47538 
L 711.54638 567.813983 
L 712.776431 737.159875 
L 714.006481 737.159875 
L 715.236531 777.69437 
L 716.466581 777.69437 
L 717.696632 706.881315 
L 718.926682 706.881315 
L 720.156732 663.833363 
L 721.386782 663.833363 
L 722.616833 581.413698 
L 723.846883 581.413698 
L 725.076933 723.466249 
L 726.306984 723.466249 
L 727.537034 926.655091 
L 728.767084 926.655091 
L 729.997134 732.964427 
L 731.227185 732.964427 
L 732.457235 637.524157 
L 733.687285 854.265581 
L 734.917335 854.265581 
L 736.147386 661.968313 
L 737.377436 661.968313 
L 738.607486 671.697716 
L 739.837536 671.697716 
L 741.067587 722.219448 
L 742.297637 698.729762 
L 744.757737 698.729762 
L 745.987788 781.314088 
L 747.217838 781.314088 
L 748.447888 789.20225 
L 749.677938 789.20225 
L 750.907989 702.992797 
L 752.138039 702.992797 
L 753.368089 798.419265 
L 754.598139 798.419265 
L 755.82819 851.420339 
L 757.05824 762.678016 
L 759.518341 762.678016 
L 760.748391 729.550847 
L 761.978441 729.550847 
L 763.208491 574.649027 
L 764.438542 574.649027 
L 765.668592 824.84622 
L 766.898642 743.4865 
L 768.128692 743.4865 
L 769.358743 851.25043 
L 770.588793 851.25043 
L 771.818843 698.784628 
L 773.048893 698.784628 
L 774.278944 721.550511 
L 775.508994 721.550511 
L 776.739044 647.12119 
L 777.969094 647.12119 
L 779.199145 776.247644 
L 780.429195 861.120636 
L 781.659245 861.120636 
L 782.889295 832.613235 
L 784.119346 832.613235 
L 785.349396 750.818249 
L 786.579446 750.818249 
L 787.809497 838.704025 
L 789.039547 838.704025 
L 790.269597 775.926186 
L 791.499647 775.926186 
L 792.729698 828.487547 
L 793.959748 828.487547 
L 795.189798 927.084506 
L 796.419848 927.084506 
L 797.649899 893.047487 
L 798.879949 955.9604 
L 800.109999 955.9604 
L 801.340049 773.241994 
L 802.5701 773.241994 
L 803.80015 782.341895 
L 805.0302 782.341895 
L 806.26025 745.181579 
L 807.490301 745.181579 
L 808.720351 884.398342 
L 809.950401 884.398342 
L 811.180451 733.700282 
L 812.410502 733.700282 
L 813.640552 928.371821 
L 814.870602 928.371821 
L 816.100652 839.947347 
L 817.330703 839.947347 
L 818.560753 696.661467 
L 819.790803 853.348481 
L 821.020854 853.348481 
L 822.250904 737.037778 
L 823.480954 737.037778 
L 824.711004 658.706439 
L 825.941055 658.706439 
L 827.171105 643.547169 
L 828.401155 643.547169 
L 829.631205 722.774403 
L 830.861256 722.774403 
L 832.091306 715.499334 
L 833.321356 715.499334 
L 834.551406 681.629712 
L 835.781457 681.629712 
L 837.011507 697.453592 
L 838.241557 697.453592 
L 839.471607 646.144961 
L 840.701658 646.144961 
L 841.931708 579.09254 
L 843.161758 579.09254 
L 844.391808 687.13988 
L 845.621859 687.13988 
L 846.851909 718.706494 
L 848.081959 718.706494 
L 849.31201 543.153209 
L 850.54206 543.153209 
L 851.77211 264.459532 
L 853.00216 598.185219 
L 854.232211 598.185219 
L 855.462261 467.391317 
L 856.692311 467.391317 
L 857.922361 364.898202 
L 859.152412 364.898202 
L 860.382462 369.617537 
L 861.612512 369.617537 
L 862.842562 428.73571 
L 864.072613 428.73571 
L 865.302663 380.675084 
L 866.532713 380.675084 
L 867.762763 422.646767 
L 868.992814 422.646767 
L 870.222864 461.009031 
L 872.682964 461.009031 
L 873.913015 425.358629 
L 875.143065 425.358629 
L 876.373115 432.024474 
L 877.603166 480.706476 
L 878.833216 480.706476 
L 880.063266 327.422181 
L 881.293316 327.422181 
L 882.523367 440.402849 
L 883.753417 440.402849 
L 884.983467 415.63112 
L 886.213517 415.63112 
L 887.443568 481.889054 
L 888.673618 315.343602 
L 889.903668 315.343602 
L 891.133718 298.695382 
L 892.363769 298.695382 
L 893.593819 386.550007 
L 894.823869 386.550007 
L 896.053919 531.308275 
L 897.28397 362.454383 
L 898.51402 362.454383 
L 899.74407 422.673427 
L 900.97412 422.673427 
L 902.204171 458.774945 
L 903.434221 458.774945 
L 904.664271 394.234684 
L 905.894321 394.234684 
L 907.124372 555.280185 
L 908.354422 436.319047 
L 909.584472 436.319047 
L 910.814523 413.042951 
L 912.044573 413.042951 
L 913.274623 377.795128 
L 914.504673 377.795128 
L 915.734724 506.064092 
L 916.964774 506.064092 
L 918.194824 421.30785 
L 919.424874 512.920839 
L 920.654925 512.920839 
L 921.884975 469.590578 
L 923.115025 469.590578 
L 924.345075 430.303791 
L 925.575126 430.303791 
L 926.805176 429.856353 
L 928.035226 429.856353 
L 929.265276 340.536779 
L 930.495327 340.536779 
L 931.725377 381.799857 
L 932.955427 381.799857 
L 934.185477 434.376378 
L 935.415528 434.376378 
L 936.645578 479.366908 
L 937.875628 479.366908 
L 939.105679 517.423882 
L 940.335729 517.423882 
L 941.565779 508.601127 
L 942.795829 508.601127 
L 944.02588 530.333526 
L 945.25593 530.333526 
L 946.48598 502.585095 
L 947.71603 502.585095 
L 948.946081 581.374465 
L 950.176131 646.790807 
L 951.406181 646.790807 
L 952.636231 570.934367 
L 953.866282 570.934367 
L 955.096332 634.394946 
L 956.326382 634.394946 
L 957.556432 587.386266 
L 958.786483 587.386266 
L 960.016533 590.655586 
L 961.246583 548.880001 
L 962.476633 548.880001 
L 963.706684 608.855067 
L 966.166784 608.855067 
L 967.396834 644.515369 
L 968.626885 644.515369 
L 969.856935 665.983589 
L 971.086985 665.983589 
L 972.317036 637.17247 
L 973.547086 778.815742 
L 974.777136 778.815742 
L 976.007186 841.582557 
L 977.237237 841.582557 
L 978.467287 737.847427 
L 979.697337 737.847427 
L 980.927387 780.780547 
L 982.157438 780.780547 
L 983.387488 983.002315 
L 984.617538 983.002315 
L 985.847588 740.224244 
L 987.077639 740.224244 
L 988.307689 916.800999 
L 989.537739 845.452695 
L 990.767789 845.452695 
L 991.99784 860.680977 
L 993.22789 860.680977 
L 994.45794 784.943663 
L 995.68799 784.943663 
L 996.918041 819.519679 
L 998.148091 819.519679 
L 999.378141 794.221904 
L 1000.608192 781.009956 
L 1001.838242 781.009956 
L 1003.068292 959.943272 
L 1004.298342 959.943272 
L 1005.528393 952.498376 
L 1006.758443 952.498376 
L 1007.988493 1061.579551 
L 1009.218543 1061.579551 
L 1010.448594 930.168354 
L 1011.678644 930.168354 
L 1012.908694 992.382086 
L 1014.138744 992.382086 
L 1015.368795 1055.752297 
L 1016.598845 1055.752297 
L 1017.828895 907.263374 
L 1019.058945 907.263374 
L 1020.288996 866.994323 
L 1021.519046 866.994323 
L 1022.749096 1040.423827 
L 1023.979146 1040.423827 
L 1025.209197 856.878907 
L 1026.439247 1057.456902 
L 1027.669297 1057.456902 
L 1028.899348 942.500928 
L 1030.129398 942.500928 
L 1031.359448 957.860318 
L 1032.589498 957.860318 
L 1033.819549 913.230674 
L 1035.049599 913.230674 
L 1036.279649 1001.318552 
L 1037.509699 911.554062 
L 1038.73975 911.554062 
L 1039.9698 941.409111 
L 1041.19985 941.409111 
L 1042.4299 903.375356 
L 1043.659951 903.375356 
L 1044.890001 966.509438 
L 1046.120051 966.509438 
L 1047.350101 941.145959 
L 1048.580152 850.193209 
L 1049.810202 850.193209 
L 1051.040252 808.75596 
L 1052.270302 808.75596 
L 1053.500353 1011.006299 
L 1054.730403 1011.006299 
L 1055.960453 928.011793 
L 1057.190503 928.011793 
L 1058.420554 847.608257 
L 1059.650604 847.608257 
L 1060.880654 837.330189 
L 1062.110705 692.977278 
L 1063.340755 692.977278 
L 1064.570805 838.557143 
L 1067.030906 838.557143 
L 1068.260956 771.420103 
L 1069.491006 780.284525 
L 1070.721056 780.284525 
L 1071.951107 568.137488 
L 1073.181157 568.137488 
L 1074.411207 639.608821 
L 1075.641257 639.608821 
L 1076.871308 625.244168 
L 1078.101358 719.071742 
L 1079.331408 719.071742 
L 1080.561458 607.044705 
L 1081.791509 607.044705 
L 1083.021559 728.395028 
L 1084.251609 728.395028 
L 1085.481659 605.507445 
L 1086.71171 605.507445 
L 1087.94176 607.945215 
L 1089.17181 607.945215 
L 1090.401861 608.796054 
L 1091.631911 586.420599 
L 1092.861961 586.420599 
L 1094.092011 659.308416 
L 1095.322062 659.308416 
L 1096.552112 635.492326 
L 1097.782162 635.492326 
L 1099.012212 534.037012 
L 1100.242263 534.037012 
L 1101.472313 604.574646 
L 1102.702363 683.52264 
L 1103.932413 683.52264 
L 1105.162464 414.507312 
L 1106.392514 414.507312 
L 1107.622564 549.535092 
L 1108.852614 549.535092 
L 1110.082665 600.690338 
L 1111.312715 600.690338 
L 1112.542765 509.653853 
L 1113.772815 509.653853 
L 1115.002866 598.486378 
L 1116.232916 598.486378 
L 1117.462966 452.300926 
L 1118.693016 560.936998 
L 1119.923067 560.936998 
L 1121.153117 500.842856 
L 1122.383167 500.842856 
L 1123.613218 579.820592 
L 1124.843268 579.820592 
L 1126.073318 566.54505 
L 1127.303368 566.54505 
L 1128.533419 628.53122 
L 1129.763469 578.92073 
L 1130.993519 578.92073 
L 1132.223569 646.646273 
L 1133.45362 646.646273 
L 1134.68367 771.606093 
L 1135.91372 771.606093 
L 1137.14377 616.036556 
L 1138.373821 796.049115 
L 1139.603871 796.049115 
L 1140.833921 764.015992 
L 1142.063971 764.015992 
L 1143.294022 716.835742 
L 1144.524072 716.835742 
L 1145.754122 628.671861 
L 1146.984172 628.671861 
L 1148.214223 715.046196 
L 1149.444273 723.416215 
L 1150.674323 723.416215 
L 1151.904374 690.205025 
L 1153.134424 690.205025 
L 1154.364474 810.910565 
L 1155.594524 810.910565 
L 1156.824575 893.895824 
L 1158.054625 893.895824 
L 1159.284675 691.310536 
L 1160.514725 691.310536 
L 1161.744776 612.01347 
L 1162.974826 734.166467 
L 1164.204876 734.166467 
L 1165.434926 733.939949 
L 1166.664977 733.939949 
L 1167.895027 798.796274 
L 1169.125077 798.796274 
L 1170.355127 621.512887 
L 1171.585178 621.512887 
L 1172.815228 745.165848 
L 1174.045278 745.165848 
L 1175.275328 621.806662 
L 1176.505379 621.806662 
L 1177.735429 569.274594 
L 1178.965479 569.274594 
L 1180.195529 683.252048 
L 1181.42558 683.252048 
L 1182.65563 581.322214 
L 1183.88568 581.322214 
L 1185.115731 612.245634 
L 1186.345781 612.245634 
L 1187.575831 709.371704 
L 1188.805881 636.361295 
L 1190.035932 636.361295 
L 1191.265982 711.174536 
L 1192.496032 711.174536 
L 1193.726082 615.0518 
L 1194.956133 615.0518 
L 1196.186183 679.260981 
L 1197.416233 617.190966 
L 1198.646283 617.190966 
L 1199.876334 677.303474 
L 1201.106384 677.303474 
L 1202.336434 542.936041 
L 1203.566484 542.936041 
L 1204.796535 600.51839 
L 1206.026585 596.973458 
L 1207.256635 596.973458 
L 1208.486685 651.311712 
L 1210.946786 651.311712 
L 1212.176836 565.121084 
L 1213.406887 565.121084 
L 1214.636937 697.263411 
L 1215.866987 754.136699 
L 1217.097037 754.136699 
L 1218.327088 706.81471 
L 1219.557138 706.81471 
L 1220.787188 826.370809 
L 1222.017238 826.370809 
L 1223.247289 790.346824 
L 1224.477339 790.346824 
L 1225.707389 818.839796 
L 1228.16749 818.839796 
L 1229.39754 810.691623 
L 1230.62759 810.691623 
L 1231.85764 839.44427 
L 1233.087691 754.79497 
L 1234.317741 754.79497 
L 1235.547791 804.55418 
L 1236.777841 804.55418 
L 1238.007892 788.101185 
L 1239.237942 788.101185 
L 1240.467992 609.092775 
L 1241.698043 609.092775 
L 1242.928093 771.88893 
L 1244.158143 771.88893 
L 1245.388193 728.026511 
L 1246.618244 728.026511 
L 1247.848294 815.223112 
L 1249.078344 815.223112 
L 1250.308394 757.296225 
L 1251.538445 757.296225 
L 1252.768495 744.159138 
L 1253.998545 744.159138 
L 1255.228595 704.508963 
L 1256.458646 704.508963 
L 1257.688696 799.632312 
L 1258.918746 799.632312 
L 1260.148796 690.84987 
L 1261.378847 690.84987 
L 1262.608897 897.763426 
L 1263.838947 897.763426 
L 1265.068997 769.624717 
L 1266.299048 769.624717 
L 1267.529098 680.876009 
L 1268.759148 680.876009 
L 1269.989198 664.892368 
L 1271.219249 800.743059 
L 1272.449299 800.743059 
L 1273.679349 826.950082 
L 1277.3695 826.950082 
L 1278.59955 875.701362 
L 1279.829601 883.29703 
L 1281.059651 883.29703 
L 1282.289701 764.680683 
L 1284.749802 764.680683 
L 1285.979852 601.335607 
L 1287.209902 601.335607 
L 1288.439952 771.694694 
L 1289.670003 771.694694 
L 1290.900053 766.046545 
L 1292.130103 766.046545 
L 1293.360153 839.138079 
L 1294.590204 839.138079 
L 1295.820254 760.269351 
L 1297.050304 772.348096 
L 1298.280354 772.348096 
L 1299.510405 840.817844 
L 1300.740455 840.817844 
L 1301.970505 896.06569 
L 1303.200556 896.06569 
L 1304.430606 718.032505 
L 1305.660656 718.032505 
L 1306.890706 852.423816 
L 1308.120757 852.423816 
L 1309.350807 790.874813 
L 1311.810907 790.874813 
L 1313.040958 579.08623 
L 1314.271008 942.48511 
L 1315.501058 942.48511 
L 1316.731108 673.409028 
L 1317.961159 673.409028 
L 1319.191209 675.224092 
L 1320.421259 675.224092 
L 1321.651309 972.057568 
L 1322.88136 718.919274 
L 1324.11141 718.919274 
L 1325.34146 771.394365 
L 1326.57151 771.394365 
L 1327.801561 830.634583 
L 1329.031611 830.634583 
L 1330.261661 855.598365 
L 1331.491711 855.598365 
L 1332.721762 688.45617 
L 1333.951812 688.45617 
L 1335.181862 839.819069 
L 1336.411913 1007.237745 
L 1337.641963 1007.237745 
L 1338.872013 733.538411 
L 1340.102063 733.538411 
L 1341.332114 919.317373 
L 1342.562164 919.317373 
L 1343.792214 927.99157 
L 1345.022264 927.99157 
L 1346.252315 799.702909 
L 1347.482365 977.641916 
L 1348.712415 977.641916 
L 1349.942465 711.531781 
L 1351.172516 711.531781 
L 1352.402566 789.145854 
L 1353.632616 789.145854 
L 1354.862666 959.145799 
L 1356.092717 824.951573 
L 1357.322767 824.951573 
L 1358.552817 893.335928 
L 1359.782867 893.335928 
L 1361.012918 862.749577 
L 1362.242968 862.749577 
L 1363.473018 774.114019 
L 1364.703069 774.114019 
L 1365.933119 863.264091 
L 1367.163169 863.264091 
L 1368.393219 930.616537 
L 1369.62327 1030.261712 
L 1370.85332 1030.261712 
L 1372.08337 1231.2 
L 1373.31342 1231.2 
L 1374.543471 911.006611 
L 1375.773521 911.006611 
L 1377.003571 957.872937 
L 1378.233621 1149.916085 
L 1379.463672 1149.916085 
L 1380.693722 1171.405405 
L 1381.923772 1171.405405 
L 1383.153822 1097.042258 
L 1384.383873 1097.042258 
L 1385.613923 984.337152 
L 1386.843973 984.337152 
L 1388.074023 893.428012 
L 1389.304074 733.313146 
L 1390.534124 733.313146 
L 1391.764174 1052.23386 
L 1392.994224 1052.23386 
L 1394.224275 1051.689709 
L 1395.454325 1051.689709 
L 1396.684375 850.614703 
L 1397.914426 850.614703 
L 1399.144476 760.281373 
L 1400.374526 760.281373 
L 1401.604576 790.236463 
L 1402.834627 784.21222 
L 1404.064677 784.21222 
L 1405.294727 868.942241 
L 1406.524777 868.942241 
L 1407.754828 977.535133 
L 1408.984878 977.535133 
L 1410.214928 950.90351 
L 1411.444978 777.847738 
L 1412.675029 777.847738 
L 1413.905079 840.366202 
L 1415.135129 840.366202 
L 1416.365179 887.671751 
L 1417.59523 887.671751 
L 1418.82528 1027.099019 
L 1420.05533 776.43463 
L 1421.28538 776.43463 
L 1422.515431 808.833088 
L 1423.745481 808.833088 
L 1424.975531 798.681461 
L 1426.205582 798.681461 
L 1427.435632 758.351819 
L 1428.665682 758.351819 
L 1429.895732 543.670702 
L 1431.125783 755.275361 
L 1432.355833 755.275361 
L 1433.585883 819.805194 
L 1434.815933 819.805194 
L 1436.045984 727.04468 
L 1437.276034 727.04468 
L 1438.506084 709.469904 
L 1439.736134 709.469904 
L 1440.966185 721.538561 
L 1442.196235 794.972989 
L 1443.426285 794.972989 
L 1444.656335 942.921541 
L 1445.886386 942.921541 
L 1447.116436 430.373643 
L 1448.346486 430.373643 
L 1449.576536 675.651081 
L 1450.806587 758.685013 
L 1452.036637 495.391656 
L 1453.266687 495.391656 
L 1454.496738 696.156089 
L 1455.726788 696.156089 
L 1456.956838 552.747576 
L 1458.186888 552.747576 
L 1459.416939 440.587936 
L 1460.646989 440.587936 
L 1461.877039 616.237628 
L 1463.107089 616.237628 
L 1464.33714 565.410646 
L 1465.56719 676.635335 
L 1466.79724 676.635335 
L 1468.02729 566.302429 
L 1469.257341 566.302429 
L 1470.487391 467.110405 
L 1471.717441 467.110405 
L 1472.947491 817.035618 
L 1474.177542 512.514228 
L 1475.407592 512.514228 
L 1476.637642 648.671717 
L 1477.867692 648.671717 
L 1479.097743 747.923746 
L 1480.327793 747.923746 
L 1481.557843 767.311046 
L 1482.787893 657.715982 
L 1484.017944 623.161484 
L 1485.247994 623.161484 
L 1486.478044 474.52086 
L 1487.708095 474.52086 
L 1488.938145 504.298231 
L 1490.168195 504.298231 
L 1491.398245 654.274732 
L 1492.628296 553.763821 
L 1493.858346 553.763821 
L 1495.088396 348.43626 
L 1496.318446 348.43626 
L 1497.548497 638.296723 
L 1498.778547 638.296723 
L 1500.008597 734.49258 
L 1502.468698 734.49258 
L 1503.698748 631.958965 
L 1504.928798 764.38074 
L 1506.158848 637.620181 
L 1507.388899 637.620181 
L 1508.618949 620.835343 
L 1509.848999 776.660484 
L 1511.079049 776.660484 
L 1512.3091 726.607979 
L 1513.53915 726.607979 
L 1514.7692 657.502429 
L 1515.999251 657.502429 
L 1517.229301 402.91154 
L 1518.459351 402.91154 
L 1519.689401 852.845041 
L 1520.919452 852.845041 
L 1522.149502 426.764502 
L 1523.379552 426.764502 
L 1524.609602 906.247026 
L 1525.839653 587.153381 
L 1527.069703 587.153381 
L 1528.299753 656.668394 
L 1529.529803 656.668394 
L 1530.759854 485.87805 
L 1531.989904 485.87805 
L 1533.219954 683.526296 
L 1534.450004 683.526296 
L 1536.910105 446.84664 
L 1538.140155 446.84664 
L 1539.370205 610.265098 
L 1540.600256 610.265098 
L 1541.830306 654.021834 
L 1543.060356 654.021834 
L 1544.290406 600.775172 
L 1545.520457 600.775172 
L 1546.750507 705.446569 
L 1547.980557 705.446569 
L 1549.210608 658.580749 
L 1550.440658 658.580749 
L 1551.670708 716.045719 
L 1552.900758 715.20609 
L 1554.130809 715.20609 
L 1555.360859 735.96892 
L 1556.590909 735.96892 
L 1556.590909 735.96892 
" style="fill:none;stroke:#000000;stroke-linecap:square;stroke-width:1.5;"/>
   </g>
   <g id="line2d_24">
    <path clip-path="url(#p846b256ac1)" d="M 288.409091 740.25201 
L 1556.590909 740.25201 
L 1556.590909 740.25201 
" style="fill:none;stroke:#ff0000;stroke-linecap:square;stroke-width:1.5;"/>
   </g>
   <g id="patch_4">
    <path d="M 225 1281.6 
L 225 172.8 
" style="fill:none;stroke:#000000;stroke-linecap:square;stroke-linejoin:miter;stroke-width:0.8;"/>
   </g>
   <g id="patch_5">
    <path d="M 1620 1281.6 
L 1620 172.8 
" style="fill:none;stroke:#000000;stroke-linecap:square;stroke-linejoin:miter;stroke-width:0.8;"/>
   </g>
   <g id="patch_6">
    <path d="M 225 1281.6 
L 1620 1281.6 
" style="fill:none;stroke:#000000;stroke-linecap:square;stroke-linejoin:miter;stroke-width:0.8;"/>
   </g>
   <g id="patch_7">
    <path d="M 225 172.8 
L 1620 172.8 
" style="fill:none;stroke:#000000;stroke-linecap:square;stroke-linejoin:miter;stroke-width:0.8;"/>
   </g>
   <g id="patch_8">
    <path d="M 755.760162 -51.461439 
Q 749.046848 322.633979 742.353595 695.611543 
" style="fill:none;stroke:#000000;stroke-linecap:round;"/>
    <path d="M 744.425043 691.648072 
L 742.353595 695.611543 
L 740.425687 691.576302 
" style="fill:none;stroke:#000000;stroke-linecap:round;"/>
   </g>
   <g id="text_12">
    <!-- Close -->
    <defs>
     <path d="M 64.40625 67.28125 
L 64.40625 56.890625 
Q 59.421875 61.53125 53.78125 63.8125 
Q 48.140625 66.109375 41.796875 66.109375 
Q 29.296875 66.109375 22.65625 58.46875 
Q 16.015625 50.828125 16.015625 36.375 
Q 16.015625 21.96875 22.65625 14.328125 
Q 29.296875 6.6875 41.796875 6.6875 
Q 48.140625 6.6875 53.78125 8.984375 
Q 59.421875 11.28125 64.40625 15.921875 
L 64.40625 5.609375 
Q 59.234375 2.09375 53.4375 0.328125 
Q 47.65625 -1.421875 41.21875 -1.421875 
Q 24.65625 -1.421875 15.125 8.703125 
Q 5.609375 18.84375 5.609375 36.375 
Q 5.609375 53.953125 15.125 64.078125 
Q 24.65625 74.21875 41.21875 74.21875 
Q 47.75 74.21875 53.53125 72.484375 
Q 59.328125 70.75 64.40625 67.28125 
z
" id="DejaVuSans-43"/>
     <path d="M 9.421875 75.984375 
L 18.40625 75.984375 
L 18.40625 0 
L 9.421875 0 
z
" id="DejaVuSans-6c"/>
     <path d="M 30.609375 48.390625 
Q 23.390625 48.390625 19.1875 42.75 
Q 14.984375 37.109375 14.984375 27.296875 
Q 14.984375 17.484375 19.15625 11.84375 
Q 23.34375 6.203125 30.609375 6.203125 
Q 37.796875 6.203125 41.984375 11.859375 
Q 46.1875 17.53125 46.1875 27.296875 
Q 46.1875 37.015625 41.984375 42.703125 
Q 37.796875 48.390625 30.609375 48.390625 
z
M 30.609375 56 
Q 42.328125 56 49.015625 48.375 
Q 55.71875 40.765625 55.71875 27.296875 
Q 55.71875 13.875 49.015625 6.21875 
Q 42.328125 -1.421875 30.609375 -1.421875 
Q 18.84375 -1.421875 12.171875 6.21875 
Q 5.515625 13.875 5.515625 27.296875 
Q 5.515625 40.765625 12.171875 48.375 
Q 18.84375 56 30.609375 56 
z
" id="DejaVuSans-6f"/>
     <path d="M 44.28125 53.078125 
L 44.28125 44.578125 
Q 40.484375 46.53125 36.375 47.5 
Q 32.28125 48.484375 27.875 48.484375 
Q 21.1875 48.484375 17.84375 46.4375 
Q 14.5 44.390625 14.5 40.28125 
Q 14.5 37.15625 16.890625 35.375 
Q 19.28125 33.59375 26.515625 31.984375 
L 29.59375 31.296875 
Q 39.15625 29.25 43.1875 25.515625 
Q 47.21875 21.78125 47.21875 15.09375 
Q 47.21875 7.46875 41.1875 3.015625 
Q 35.15625 -1.421875 24.609375 -1.421875 
Q 20.21875 -1.421875 15.453125 -0.5625 
Q 10.6875 0.296875 5.421875 2 
L 5.421875 11.28125 
Q 10.40625 8.6875 15.234375 7.390625 
Q 20.0625 6.109375 24.8125 6.109375 
Q 31.15625 6.109375 34.5625 8.28125 
Q 37.984375 10.453125 37.984375 14.40625 
Q 37.984375 18.0625 35.515625 20.015625 
Q 33.0625 21.96875 24.703125 23.78125 
L 21.578125 24.515625 
Q 13.234375 26.265625 9.515625 29.90625 
Q 5.8125 33.546875 5.8125 39.890625 
Q 5.8125 47.609375 11.28125 51.796875 
Q 16.75 56 26.8125 56 
Q 31.78125 56 36.171875 55.265625 
Q 40.578125 54.546875 44.28125 53.078125 
z
" id="DejaVuSans-73"/>
     <path d="M 56.203125 29.59375 
L 56.203125 25.203125 
L 14.890625 25.203125 
Q 15.484375 15.921875 20.484375 11.0625 
Q 25.484375 6.203125 34.421875 6.203125 
Q 39.59375 6.203125 44.453125 7.46875 
Q 49.3125 8.734375 54.109375 11.28125 
L 54.109375 2.78125 
Q 49.265625 0.734375 44.1875 -0.34375 
Q 39.109375 -1.421875 33.890625 -1.421875 
Q 20.796875 -1.421875 13.15625 6.1875 
Q 5.515625 13.8125 5.515625 26.8125 
Q 5.515625 40.234375 12.765625 48.109375 
Q 20.015625 56 32.328125 56 
Q 43.359375 56 49.78125 48.890625 
Q 56.203125 41.796875 56.203125 29.59375 
z
M 47.21875 32.234375 
Q 47.125 39.59375 43.09375 43.984375 
Q 39.0625 48.390625 32.421875 48.390625 
Q 24.90625 48.390625 20.390625 44.140625 
Q 15.875 39.890625 15.1875 32.171875 
z
" id="DejaVuSans-65"/>
    </defs>
    <g transform="translate(742.297637 -57.538203)scale(0.1 -0.1)">
     <use xlink:href="#DejaVuSans-43"/>
     <use x="69.824219" xlink:href="#DejaVuSans-6c"/>
     <use x="97.607422" xlink:href="#DejaVuSans-6f"/>
     <use x="158.789062" xlink:href="#DejaVuSans-73"/>
     <use x="210.888672" xlink:href="#DejaVuSans-65"/>
    </g>
   </g>
   <g id="legend_1">
    <g id="patch_9">
     <path d="M 1516.864063 224.834375 
L 1613 224.834375 
Q 1615 224.834375 1615 222.834375 
L 1615 179.8 
Q 1615 177.8 1613 177.8 
L 1516.864063 177.8 
Q 1514.864063 177.8 1514.864063 179.8 
L 1514.864063 222.834375 
Q 1514.864063 224.834375 1516.864063 224.834375 
z
" style="fill:#ffffff;opacity:0.8;stroke:#cccccc;stroke-linejoin:miter;"/>
    </g>
    <g id="line2d_25">
     <path d="M 1518.864063 185.898438 
L 1538.864063 185.898438 
" style="fill:none;stroke:#000000;stroke-linecap:square;stroke-width:1.5;"/>
    </g>
    <g id="line2d_26"/>
    <g id="text_13">
     <!-- Y position -->
     <defs>
      <path d="M -0.203125 72.90625 
L 10.40625 72.90625 
L 30.609375 42.921875 
L 50.6875 72.90625 
L 61.28125 72.90625 
L 35.5 34.71875 
L 35.5 0 
L 25.59375 0 
L 25.59375 34.71875 
z
" id="DejaVuSans-59"/>
      <path id="DejaVuSans-20"/>
      <path d="M 18.109375 8.203125 
L 18.109375 -20.796875 
L 9.078125 -20.796875 
L 9.078125 54.6875 
L 18.109375 54.6875 
L 18.109375 46.390625 
Q 20.953125 51.265625 25.265625 53.625 
Q 29.59375 56 35.59375 56 
Q 45.5625 56 51.78125 48.09375 
Q 58.015625 40.1875 58.015625 27.296875 
Q 58.015625 14.40625 51.78125 6.484375 
Q 45.5625 -1.421875 35.59375 -1.421875 
Q 29.59375 -1.421875 25.265625 0.953125 
Q 20.953125 3.328125 18.109375 8.203125 
z
M 48.6875 27.296875 
Q 48.6875 37.203125 44.609375 42.84375 
Q 40.53125 48.484375 33.40625 48.484375 
Q 26.265625 48.484375 22.1875 42.84375 
Q 18.109375 37.203125 18.109375 27.296875 
Q 18.109375 17.390625 22.1875 11.75 
Q 26.265625 6.109375 33.40625 6.109375 
Q 40.53125 6.109375 44.609375 11.75 
Q 48.6875 17.390625 48.6875 27.296875 
z
" id="DejaVuSans-70"/>
      <path d="M 9.421875 54.6875 
L 18.40625 54.6875 
L 18.40625 0 
L 9.421875 0 
z
M 9.421875 75.984375 
L 18.40625 75.984375 
L 18.40625 64.59375 
L 9.421875 64.59375 
z
" id="DejaVuSans-69"/>
      <path d="M 18.3125 70.21875 
L 18.3125 54.6875 
L 36.8125 54.6875 
L 36.8125 47.703125 
L 18.3125 47.703125 
L 18.3125 18.015625 
Q 18.3125 11.328125 20.140625 9.421875 
Q 21.96875 7.515625 27.59375 7.515625 
L 36.8125 7.515625 
L 36.8125 0 
L 27.59375 0 
Q 17.1875 0 13.234375 3.875 
Q 9.28125 7.765625 9.28125 18.015625 
L 9.28125 47.703125 
L 2.6875 47.703125 
L 2.6875 54.6875 
L 9.28125 54.6875 
L 9.28125 70.21875 
z
" id="DejaVuSans-74"/>
      <path d="M 54.890625 33.015625 
L 54.890625 0 
L 45.90625 0 
L 45.90625 32.71875 
Q 45.90625 40.484375 42.875 44.328125 
Q 39.84375 48.1875 33.796875 48.1875 
Q 26.515625 48.1875 22.3125 43.546875 
Q 18.109375 38.921875 18.109375 30.90625 
L 18.109375 0 
L 9.078125 0 
L 9.078125 54.6875 
L 18.109375 54.6875 
L 18.109375 46.1875 
Q 21.34375 51.125 25.703125 53.5625 
Q 30.078125 56 35.796875 56 
Q 45.21875 56 50.046875 50.171875 
Q 54.890625 44.34375 54.890625 33.015625 
z
" id="DejaVuSans-6e"/>
     </defs>
     <g transform="translate(1546.864063 189.398438)scale(0.1 -0.1)">
      <use xlink:href="#DejaVuSans-59"/>
      <use x="61.083984" xlink:href="#DejaVuSans-20"/>
      <use x="92.871094" xlink:href="#DejaVuSans-70"/>
      <use x="156.347656" xlink:href="#DejaVuSans-6f"/>
      <use x="217.529297" xlink:href="#DejaVuSans-73"/>
      <use x="269.628906" xlink:href="#DejaVuSans-69"/>
      <use x="297.412109" xlink:href="#DejaVuSans-74"/>
      <use x="336.621094" xlink:href="#DejaVuSans-69"/>
      <use x="364.404297" xlink:href="#DejaVuSans-6f"/>
      <use x="425.585938" xlink:href="#DejaVuSans-6e"/>
     </g>
    </g>
    <g id="line2d_27">
     <path d="M 1518.864063 200.576562 
L 1538.864063 200.576562 
" style="fill:none;stroke:#ff0000;stroke-linecap:square;stroke-width:1.5;"/>
    </g>
    <g id="line2d_28"/>
    <g id="text_14">
     <!-- goal -->
     <defs>
      <path d="M 45.40625 27.984375 
Q 45.40625 37.75 41.375 43.109375 
Q 37.359375 48.484375 30.078125 48.484375 
Q 22.859375 48.484375 18.828125 43.109375 
Q 14.796875 37.75 14.796875 27.984375 
Q 14.796875 18.265625 18.828125 12.890625 
Q 22.859375 7.515625 30.078125 7.515625 
Q 37.359375 7.515625 41.375 12.890625 
Q 45.40625 18.265625 45.40625 27.984375 
z
M 54.390625 6.78125 
Q 54.390625 -7.171875 48.1875 -13.984375 
Q 42 -20.796875 29.203125 -20.796875 
Q 24.46875 -20.796875 20.265625 -20.09375 
Q 16.0625 -19.390625 12.109375 -17.921875 
L 12.109375 -9.1875 
Q 16.0625 -11.328125 19.921875 -12.34375 
Q 23.78125 -13.375 27.78125 -13.375 
Q 36.625 -13.375 41.015625 -8.765625 
Q 45.40625 -4.15625 45.40625 5.171875 
L 45.40625 9.625 
Q 42.625 4.78125 38.28125 2.390625 
Q 33.9375 0 27.875 0 
Q 17.828125 0 11.671875 7.65625 
Q 5.515625 15.328125 5.515625 27.984375 
Q 5.515625 40.671875 11.671875 48.328125 
Q 17.828125 56 27.875 56 
Q 33.9375 56 38.28125 53.609375 
Q 42.625 51.21875 45.40625 46.390625 
L 45.40625 54.6875 
L 54.390625 54.6875 
z
" id="DejaVuSans-67"/>
      <path d="M 34.28125 27.484375 
Q 23.390625 27.484375 19.1875 25 
Q 14.984375 22.515625 14.984375 16.5 
Q 14.984375 11.71875 18.140625 8.90625 
Q 21.296875 6.109375 26.703125 6.109375 
Q 34.1875 6.109375 38.703125 11.40625 
Q 43.21875 16.703125 43.21875 25.484375 
L 43.21875 27.484375 
z
M 52.203125 31.203125 
L 52.203125 0 
L 43.21875 0 
L 43.21875 8.296875 
Q 40.140625 3.328125 35.546875 0.953125 
Q 30.953125 -1.421875 24.3125 -1.421875 
Q 15.921875 -1.421875 10.953125 3.296875 
Q 6 8.015625 6 15.921875 
Q 6 25.140625 12.171875 29.828125 
Q 18.359375 34.515625 30.609375 34.515625 
L 43.21875 34.515625 
L 43.21875 35.40625 
Q 43.21875 41.609375 39.140625 45 
Q 35.0625 48.390625 27.6875 48.390625 
Q 23 48.390625 18.546875 47.265625 
Q 14.109375 46.140625 10.015625 43.890625 
L 10.015625 52.203125 
Q 14.9375 54.109375 19.578125 55.046875 
Q 24.21875 56 28.609375 56 
Q 40.484375 56 46.34375 49.84375 
Q 52.203125 43.703125 52.203125 31.203125 
z
" id="DejaVuSans-61"/>
     </defs>
     <g transform="translate(1546.864063 204.076562)scale(0.1 -0.1)">
      <use xlink:href="#DejaVuSans-67"/>
      <use x="63.476562" xlink:href="#DejaVuSans-6f"/>
      <use x="124.658203" xlink:href="#DejaVuSans-61"/>
      <use x="185.9375" xlink:href="#DejaVuSans-6c"/>
     </g>
    </g>
    <g id="patch_10">
     <path d="M 1518.864063 218.754688 
L 1538.864063 218.754688 
L 1538.864063 211.754688 
L 1518.864063 211.754688 
z
" style="opacity:0.3;"/>
    </g>
    <g id="text_15">
     <!-- NULL motion -->
     <defs>
      <path d="M 9.8125 72.90625 
L 23.09375 72.90625 
L 55.421875 11.921875 
L 55.421875 72.90625 
L 64.984375 72.90625 
L 64.984375 0 
L 51.703125 0 
L 19.390625 60.984375 
L 19.390625 0 
L 9.8125 0 
z
" id="DejaVuSans-4e"/>
      <path d="M 8.6875 72.90625 
L 18.609375 72.90625 
L 18.609375 28.609375 
Q 18.609375 16.890625 22.84375 11.734375 
Q 27.09375 6.59375 36.625 6.59375 
Q 46.09375 6.59375 50.34375 11.734375 
Q 54.59375 16.890625 54.59375 28.609375 
L 54.59375 72.90625 
L 64.5 72.90625 
L 64.5 27.390625 
Q 64.5 13.140625 57.4375 5.859375 
Q 50.390625 -1.421875 36.625 -1.421875 
Q 22.796875 -1.421875 15.734375 5.859375 
Q 8.6875 13.140625 8.6875 27.390625 
z
" id="DejaVuSans-55"/>
      <path d="M 9.8125 72.90625 
L 19.671875 72.90625 
L 19.671875 8.296875 
L 55.171875 8.296875 
L 55.171875 0 
L 9.8125 0 
z
" id="DejaVuSans-4c"/>
      <path d="M 52 44.1875 
Q 55.375 50.25 60.0625 53.125 
Q 64.75 56 71.09375 56 
Q 79.640625 56 84.28125 50.015625 
Q 88.921875 44.046875 88.921875 33.015625 
L 88.921875 0 
L 79.890625 0 
L 79.890625 32.71875 
Q 79.890625 40.578125 77.09375 44.375 
Q 74.3125 48.1875 68.609375 48.1875 
Q 61.625 48.1875 57.5625 43.546875 
Q 53.515625 38.921875 53.515625 30.90625 
L 53.515625 0 
L 44.484375 0 
L 44.484375 32.71875 
Q 44.484375 40.625 41.703125 44.40625 
Q 38.921875 48.1875 33.109375 48.1875 
Q 26.21875 48.1875 22.15625 43.53125 
Q 18.109375 38.875 18.109375 30.90625 
L 18.109375 0 
L 9.078125 0 
L 9.078125 54.6875 
L 18.109375 54.6875 
L 18.109375 46.1875 
Q 21.1875 51.21875 25.484375 53.609375 
Q 29.78125 56 35.6875 56 
Q 41.65625 56 45.828125 52.96875 
Q 50 49.953125 52 44.1875 
z
" id="DejaVuSans-6d"/>
     </defs>
     <g transform="translate(1546.864063 218.754688)scale(0.1 -0.1)">
      <use xlink:href="#DejaVuSans-4e"/>
      <use x="74.804688" xlink:href="#DejaVuSans-55"/>
      <use x="147.998047" xlink:href="#DejaVuSans-4c"/>
      <use x="203.710938" xlink:href="#DejaVuSans-4c"/>
      <use x="259.423828" xlink:href="#DejaVuSans-20"/>
      <use x="291.210938" xlink:href="#DejaVuSans-6d"/>
      <use x="388.623047" xlink:href="#DejaVuSans-6f"/>
      <use x="449.804688" xlink:href="#DejaVuSans-74"/>
      <use x="489.013672" xlink:href="#DejaVuSans-69"/>
      <use x="516.796875" xlink:href="#DejaVuSans-6f"/>
      <use x="577.978516" xlink:href="#DejaVuSans-6e"/>
     </g>
    </g>
   </g>
  </g>
 </g>
 <defs>
  <clipPath id="p846b256ac1">
   <rect height="1108.8" width="1395" x="225" y="172.8"/>
  </clipPath>
 </defs>
</svg>
