<?xml version="1.0" encoding="utf-8" standalone="no"?>
<!DOCTYPE svg PUBLIC "-//W3C//DTD SVG 1.1//EN"
  "http://www.w3.org/Graphics/SVG/1.1/DTD/svg11.dtd">
<!-- Created with matplotlib (http://matplotlib.org/) -->
<svg height="1440pt" version="1.1" viewBox="0 0 1800 1440" width="1800pt" xmlns="http://www.w3.org/2000/svg" xmlns:xlink="http://www.w3.org/1999/xlink">
 <defs>
  <style type="text/css">
*{stroke-linecap:butt;stroke-linejoin:round;}
  </style>
 </defs>
 <g id="figure_1">
  <g id="patch_1">
   <path d="M 0 1440 
L 1800 1440 
L 1800 0 
L 0 0 
z
" style="fill:#ffffff;"/>
  </g>
  <g id="axes_1">
   <g id="patch_2">
    <path d="M 225 1281.6 
L 1620 1281.6 
L 1620 172.8 
L 225 172.8 
z
" style="fill:#ffffff;"/>
   </g>
   <g id="matplotlib.axis_1">
    <g id="xtick_1">
     <g id="line2d_1">
      <path clip-path="url(#pd5427612f5)" d="M 288.409091 1281.6 
L 288.409091 172.8 
" style="fill:none;stroke:#b0b0b0;stroke-linecap:square;stroke-width:0.8;"/>
     </g>
     <g id="line2d_2">
      <defs>
       <path d="M 0 0 
L 0 3.5 
" id="mc6bc9576c5" style="stroke:#000000;stroke-width:0.8;"/>
      </defs>
      <g>
       <use style="stroke:#000000;stroke-width:0.8;" x="288.409091" xlink:href="#mc6bc9576c5" y="1281.6"/>
      </g>
     </g>
     <g id="text_1">
      <!-- 0 -->
      <defs>
       <path d="M 31.78125 66.40625 
Q 24.171875 66.40625 20.328125 58.90625 
Q 16.5 51.421875 16.5 36.375 
Q 16.5 21.390625 20.328125 13.890625 
Q 24.171875 6.390625 31.78125 6.390625 
Q 39.453125 6.390625 43.28125 13.890625 
Q 47.125 21.390625 47.125 36.375 
Q 47.125 51.421875 43.28125 58.90625 
Q 39.453125 66.40625 31.78125 66.40625 
z
M 31.78125 74.21875 
Q 44.046875 74.21875 50.515625 64.515625 
Q 56.984375 54.828125 56.984375 36.375 
Q 56.984375 17.96875 50.515625 8.265625 
Q 44.046875 -1.421875 31.78125 -1.421875 
Q 19.53125 -1.421875 13.0625 8.265625 
Q 6.59375 17.96875 6.59375 36.375 
Q 6.59375 54.828125 13.0625 64.515625 
Q 19.53125 74.21875 31.78125 74.21875 
z
" id="DejaVuSans-30"/>
      </defs>
      <g transform="translate(285.227841 1296.198437)scale(0.1 -0.1)">
       <use xlink:href="#DejaVuSans-30"/>
      </g>
     </g>
    </g>
    <g id="xtick_2">
     <g id="line2d_3">
      <path clip-path="url(#pd5427612f5)" d="M 534.419143 1281.6 
L 534.419143 172.8 
" style="fill:none;stroke:#b0b0b0;stroke-linecap:square;stroke-width:0.8;"/>
     </g>
     <g id="line2d_4">
      <g>
       <use style="stroke:#000000;stroke-width:0.8;" x="534.419143" xlink:href="#mc6bc9576c5" y="1281.6"/>
      </g>
     </g>
     <g id="text_2">
      <!-- 200 -->
      <defs>
       <path d="M 19.1875 8.296875 
L 53.609375 8.296875 
L 53.609375 0 
L 7.328125 0 
L 7.328125 8.296875 
Q 12.9375 14.109375 22.625 23.890625 
Q 32.328125 33.6875 34.8125 36.53125 
Q 39.546875 41.84375 41.421875 45.53125 
Q 43.3125 49.21875 43.3125 52.78125 
Q 43.3125 58.59375 39.234375 62.25 
Q 35.15625 65.921875 28.609375 65.921875 
Q 23.96875 65.921875 18.8125 64.3125 
Q 13.671875 62.703125 7.8125 59.421875 
L 7.8125 69.390625 
Q 13.765625 71.78125 18.9375 73 
Q 24.125 74.21875 28.421875 74.21875 
Q 39.75 74.21875 46.484375 68.546875 
Q 53.21875 62.890625 53.21875 53.421875 
Q 53.21875 48.921875 51.53125 44.890625 
Q 49.859375 40.875 45.40625 35.40625 
Q 44.1875 33.984375 37.640625 27.21875 
Q 31.109375 20.453125 19.1875 8.296875 
z
" id="DejaVuSans-32"/>
      </defs>
      <g transform="translate(524.875393 1296.198437)scale(0.1 -0.1)">
       <use xlink:href="#DejaVuSans-32"/>
       <use x="63.623047" xlink:href="#DejaVuSans-30"/>
       <use x="127.246094" xlink:href="#DejaVuSans-30"/>
      </g>
     </g>
    </g>
    <g id="xtick_3">
     <g id="line2d_5">
      <path clip-path="url(#pd5427612f5)" d="M 780.429195 1281.6 
L 780.429195 172.8 
" style="fill:none;stroke:#b0b0b0;stroke-linecap:square;stroke-width:0.8;"/>
     </g>
     <g id="line2d_6">
      <g>
       <use style="stroke:#000000;stroke-width:0.8;" x="780.429195" xlink:href="#mc6bc9576c5" y="1281.6"/>
      </g>
     </g>
     <g id="text_3">
      <!-- 400 -->
      <defs>
       <path d="M 37.796875 64.3125 
L 12.890625 25.390625 
L 37.796875 25.390625 
z
M 35.203125 72.90625 
L 47.609375 72.90625 
L 47.609375 25.390625 
L 58.015625 25.390625 
L 58.015625 17.1875 
L 47.609375 17.1875 
L 47.609375 0 
L 37.796875 0 
L 37.796875 17.1875 
L 4.890625 17.1875 
L 4.890625 26.703125 
z
" id="DejaVuSans-34"/>
      </defs>
      <g transform="translate(770.885445 1296.198437)scale(0.1 -0.1)">
       <use xlink:href="#DejaVuSans-34"/>
       <use x="63.623047" xlink:href="#DejaVuSans-30"/>
       <use x="127.246094" xlink:href="#DejaVuSans-30"/>
      </g>
     </g>
    </g>
    <g id="xtick_4">
     <g id="line2d_7">
      <path clip-path="url(#pd5427612f5)" d="M 1026.439247 1281.6 
L 1026.439247 172.8 
" style="fill:none;stroke:#b0b0b0;stroke-linecap:square;stroke-width:0.8;"/>
     </g>
     <g id="line2d_8">
      <g>
       <use style="stroke:#000000;stroke-width:0.8;" x="1026.439247" xlink:href="#mc6bc9576c5" y="1281.6"/>
      </g>
     </g>
     <g id="text_4">
      <!-- 600 -->
      <defs>
       <path d="M 33.015625 40.375 
Q 26.375 40.375 22.484375 35.828125 
Q 18.609375 31.296875 18.609375 23.390625 
Q 18.609375 15.53125 22.484375 10.953125 
Q 26.375 6.390625 33.015625 6.390625 
Q 39.65625 6.390625 43.53125 10.953125 
Q 47.40625 15.53125 47.40625 23.390625 
Q 47.40625 31.296875 43.53125 35.828125 
Q 39.65625 40.375 33.015625 40.375 
z
M 52.59375 71.296875 
L 52.59375 62.3125 
Q 48.875 64.0625 45.09375 64.984375 
Q 41.3125 65.921875 37.59375 65.921875 
Q 27.828125 65.921875 22.671875 59.328125 
Q 17.53125 52.734375 16.796875 39.40625 
Q 19.671875 43.65625 24.015625 45.921875 
Q 28.375 48.1875 33.59375 48.1875 
Q 44.578125 48.1875 50.953125 41.515625 
Q 57.328125 34.859375 57.328125 23.390625 
Q 57.328125 12.15625 50.6875 5.359375 
Q 44.046875 -1.421875 33.015625 -1.421875 
Q 20.359375 -1.421875 13.671875 8.265625 
Q 6.984375 17.96875 6.984375 36.375 
Q 6.984375 53.65625 15.1875 63.9375 
Q 23.390625 74.21875 37.203125 74.21875 
Q 40.921875 74.21875 44.703125 73.484375 
Q 48.484375 72.75 52.59375 71.296875 
z
" id="DejaVuSans-36"/>
      </defs>
      <g transform="translate(1016.895497 1296.198437)scale(0.1 -0.1)">
       <use xlink:href="#DejaVuSans-36"/>
       <use x="63.623047" xlink:href="#DejaVuSans-30"/>
       <use x="127.246094" xlink:href="#DejaVuSans-30"/>
      </g>
     </g>
    </g>
    <g id="xtick_5">
     <g id="line2d_9">
      <path clip-path="url(#pd5427612f5)" d="M 1272.449299 1281.6 
L 1272.449299 172.8 
" style="fill:none;stroke:#b0b0b0;stroke-linecap:square;stroke-width:0.8;"/>
     </g>
     <g id="line2d_10">
      <g>
       <use style="stroke:#000000;stroke-width:0.8;" x="1272.449299" xlink:href="#mc6bc9576c5" y="1281.6"/>
      </g>
     </g>
     <g id="text_5">
      <!-- 800 -->
      <defs>
       <path d="M 31.78125 34.625 
Q 24.75 34.625 20.71875 30.859375 
Q 16.703125 27.09375 16.703125 20.515625 
Q 16.703125 13.921875 20.71875 10.15625 
Q 24.75 6.390625 31.78125 6.390625 
Q 38.8125 6.390625 42.859375 10.171875 
Q 46.921875 13.96875 46.921875 20.515625 
Q 46.921875 27.09375 42.890625 30.859375 
Q 38.875 34.625 31.78125 34.625 
z
M 21.921875 38.8125 
Q 15.578125 40.375 12.03125 44.71875 
Q 8.5 49.078125 8.5 55.328125 
Q 8.5 64.0625 14.71875 69.140625 
Q 20.953125 74.21875 31.78125 74.21875 
Q 42.671875 74.21875 48.875 69.140625 
Q 55.078125 64.0625 55.078125 55.328125 
Q 55.078125 49.078125 51.53125 44.71875 
Q 48 40.375 41.703125 38.8125 
Q 48.828125 37.15625 52.796875 32.3125 
Q 56.78125 27.484375 56.78125 20.515625 
Q 56.78125 9.90625 50.3125 4.234375 
Q 43.84375 -1.421875 31.78125 -1.421875 
Q 19.734375 -1.421875 13.25 4.234375 
Q 6.78125 9.90625 6.78125 20.515625 
Q 6.78125 27.484375 10.78125 32.3125 
Q 14.796875 37.15625 21.921875 38.8125 
z
M 18.3125 54.390625 
Q 18.3125 48.734375 21.84375 45.5625 
Q 25.390625 42.390625 31.78125 42.390625 
Q 38.140625 42.390625 41.71875 45.5625 
Q 45.3125 48.734375 45.3125 54.390625 
Q 45.3125 60.0625 41.71875 63.234375 
Q 38.140625 66.40625 31.78125 66.40625 
Q 25.390625 66.40625 21.84375 63.234375 
Q 18.3125 60.0625 18.3125 54.390625 
z
" id="DejaVuSans-38"/>
      </defs>
      <g transform="translate(1262.905549 1296.198437)scale(0.1 -0.1)">
       <use xlink:href="#DejaVuSans-38"/>
       <use x="63.623047" xlink:href="#DejaVuSans-30"/>
       <use x="127.246094" xlink:href="#DejaVuSans-30"/>
      </g>
     </g>
    </g>
    <g id="xtick_6">
     <g id="line2d_11">
      <path clip-path="url(#pd5427612f5)" d="M 1518.459351 1281.6 
L 1518.459351 172.8 
" style="fill:none;stroke:#b0b0b0;stroke-linecap:square;stroke-width:0.8;"/>
     </g>
     <g id="line2d_12">
      <g>
       <use style="stroke:#000000;stroke-width:0.8;" x="1518.459351" xlink:href="#mc6bc9576c5" y="1281.6"/>
      </g>
     </g>
     <g id="text_6">
      <!-- 1000 -->
      <defs>
       <path d="M 12.40625 8.296875 
L 28.515625 8.296875 
L 28.515625 63.921875 
L 10.984375 60.40625 
L 10.984375 69.390625 
L 28.421875 72.90625 
L 38.28125 72.90625 
L 38.28125 8.296875 
L 54.390625 8.296875 
L 54.390625 0 
L 12.40625 0 
z
" id="DejaVuSans-31"/>
      </defs>
      <g transform="translate(1505.734351 1296.198437)scale(0.1 -0.1)">
       <use xlink:href="#DejaVuSans-31"/>
       <use x="63.623047" xlink:href="#DejaVuSans-30"/>
       <use x="127.246094" xlink:href="#DejaVuSans-30"/>
       <use x="190.869141" xlink:href="#DejaVuSans-30"/>
      </g>
     </g>
    </g>
   </g>
   <g id="matplotlib.axis_2">
    <g id="ytick_1">
     <g id="line2d_13">
      <path clip-path="url(#pd5427612f5)" d="M 225 1281.6 
L 1620 1281.6 
" style="fill:none;stroke:#b0b0b0;stroke-linecap:square;stroke-width:0.8;"/>
     </g>
     <g id="line2d_14">
      <defs>
       <path d="M 0 0 
L -3.5 0 
" id="mb85cb3422c" style="stroke:#000000;stroke-width:0.8;"/>
      </defs>
      <g>
       <use style="stroke:#000000;stroke-width:0.8;" x="225" xlink:href="#mb85cb3422c" y="1281.6"/>
      </g>
     </g>
     <g id="text_7">
      <!-- −0.058 -->
      <defs>
       <path d="M 10.59375 35.5 
L 73.1875 35.5 
L 73.1875 27.203125 
L 10.59375 27.203125 
z
" id="DejaVuSans-2212"/>
       <path d="M 10.6875 12.40625 
L 21 12.40625 
L 21 0 
L 10.6875 0 
z
" id="DejaVuSans-2e"/>
       <path d="M 10.796875 72.90625 
L 49.515625 72.90625 
L 49.515625 64.59375 
L 19.828125 64.59375 
L 19.828125 46.734375 
Q 21.96875 47.46875 24.109375 47.828125 
Q 26.265625 48.1875 28.421875 48.1875 
Q 40.625 48.1875 47.75 41.5 
Q 54.890625 34.8125 54.890625 23.390625 
Q 54.890625 11.625 47.5625 5.09375 
Q 40.234375 -1.421875 26.90625 -1.421875 
Q 22.3125 -1.421875 17.546875 -0.640625 
Q 12.796875 0.140625 7.71875 1.703125 
L 7.71875 11.625 
Q 12.109375 9.234375 16.796875 8.0625 
Q 21.484375 6.890625 26.703125 6.890625 
Q 35.15625 6.890625 40.078125 11.328125 
Q 45.015625 15.765625 45.015625 23.390625 
Q 45.015625 31 40.078125 35.4375 
Q 35.15625 39.890625 26.703125 39.890625 
Q 22.75 39.890625 18.8125 39.015625 
Q 14.890625 38.140625 10.796875 36.28125 
z
" id="DejaVuSans-35"/>
      </defs>
      <g transform="translate(180.992188 1285.399219)scale(0.1 -0.1)">
       <use xlink:href="#DejaVuSans-2212"/>
       <use x="83.789062" xlink:href="#DejaVuSans-30"/>
       <use x="147.412109" xlink:href="#DejaVuSans-2e"/>
       <use x="179.199219" xlink:href="#DejaVuSans-30"/>
       <use x="242.822266" xlink:href="#DejaVuSans-35"/>
       <use x="306.445312" xlink:href="#DejaVuSans-38"/>
      </g>
     </g>
    </g>
    <g id="ytick_2">
     <g id="line2d_15">
      <path clip-path="url(#pd5427612f5)" d="M 225 1191.083712 
L 1620 1191.083712 
" style="fill:none;stroke:#b0b0b0;stroke-linecap:square;stroke-width:0.8;"/>
     </g>
     <g id="line2d_16">
      <g>
       <use style="stroke:#000000;stroke-width:0.8;" x="225" xlink:href="#mb85cb3422c" y="1191.083712"/>
      </g>
     </g>
     <g id="text_8">
      <!-- −0.048 -->
      <g transform="translate(180.992188 1194.88293)scale(0.1 -0.1)">
       <use xlink:href="#DejaVuSans-2212"/>
       <use x="83.789062" xlink:href="#DejaVuSans-30"/>
       <use x="147.412109" xlink:href="#DejaVuSans-2e"/>
       <use x="179.199219" xlink:href="#DejaVuSans-30"/>
       <use x="242.822266" xlink:href="#DejaVuSans-34"/>
       <use x="306.445312" xlink:href="#DejaVuSans-38"/>
      </g>
     </g>
    </g>
    <g id="ytick_3">
     <g id="line2d_17">
      <path clip-path="url(#pd5427612f5)" d="M 225 1100.567423 
L 1620 1100.567423 
" style="fill:none;stroke:#b0b0b0;stroke-linecap:square;stroke-width:0.8;"/>
     </g>
     <g id="line2d_18">
      <g>
       <use style="stroke:#000000;stroke-width:0.8;" x="225" xlink:href="#mb85cb3422c" y="1100.567423"/>
      </g>
     </g>
     <g id="text_9">
      <!-- −0.038 -->
      <defs>
       <path d="M 40.578125 39.3125 
Q 47.65625 37.796875 51.625 33 
Q 55.609375 28.21875 55.609375 21.1875 
Q 55.609375 10.40625 48.1875 4.484375 
Q 40.765625 -1.421875 27.09375 -1.421875 
Q 22.515625 -1.421875 17.65625 -0.515625 
Q 12.796875 0.390625 7.625 2.203125 
L 7.625 11.71875 
Q 11.71875 9.328125 16.59375 8.109375 
Q 21.484375 6.890625 26.8125 6.890625 
Q 36.078125 6.890625 40.9375 10.546875 
Q 45.796875 14.203125 45.796875 21.1875 
Q 45.796875 27.640625 41.28125 31.265625 
Q 36.765625 34.90625 28.71875 34.90625 
L 20.21875 34.90625 
L 20.21875 43.015625 
L 29.109375 43.015625 
Q 36.375 43.015625 40.234375 45.921875 
Q 44.09375 48.828125 44.09375 54.296875 
Q 44.09375 59.90625 40.109375 62.90625 
Q 36.140625 65.921875 28.71875 65.921875 
Q 24.65625 65.921875 20.015625 65.03125 
Q 15.375 64.15625 9.8125 62.3125 
L 9.8125 71.09375 
Q 15.4375 72.65625 20.34375 73.4375 
Q 25.25 74.21875 29.59375 74.21875 
Q 40.828125 74.21875 47.359375 69.109375 
Q 53.90625 64.015625 53.90625 55.328125 
Q 53.90625 49.265625 50.4375 45.09375 
Q 46.96875 40.921875 40.578125 39.3125 
z
" id="DejaVuSans-33"/>
      </defs>
      <g transform="translate(180.992188 1104.366642)scale(0.1 -0.1)">
       <use xlink:href="#DejaVuSans-2212"/>
       <use x="83.789062" xlink:href="#DejaVuSans-30"/>
       <use x="147.412109" xlink:href="#DejaVuSans-2e"/>
       <use x="179.199219" xlink:href="#DejaVuSans-30"/>
       <use x="242.822266" xlink:href="#DejaVuSans-33"/>
       <use x="306.445312" xlink:href="#DejaVuSans-38"/>
      </g>
     </g>
    </g>
    <g id="ytick_4">
     <g id="line2d_19">
      <path clip-path="url(#pd5427612f5)" d="M 225 1010.051135 
L 1620 1010.051135 
" style="fill:none;stroke:#b0b0b0;stroke-linecap:square;stroke-width:0.8;"/>
     </g>
     <g id="line2d_20">
      <g>
       <use style="stroke:#000000;stroke-width:0.8;" x="225" xlink:href="#mb85cb3422c" y="1010.051135"/>
      </g>
     </g>
     <g id="text_10">
      <!-- −0.028 -->
      <g transform="translate(180.992188 1013.850354)scale(0.1 -0.1)">
       <use xlink:href="#DejaVuSans-2212"/>
       <use x="83.789062" xlink:href="#DejaVuSans-30"/>
       <use x="147.412109" xlink:href="#DejaVuSans-2e"/>
       <use x="179.199219" xlink:href="#DejaVuSans-30"/>
       <use x="242.822266" xlink:href="#DejaVuSans-32"/>
       <use x="306.445312" xlink:href="#DejaVuSans-38"/>
      </g>
     </g>
    </g>
    <g id="ytick_5">
     <g id="line2d_21">
      <path clip-path="url(#pd5427612f5)" d="M 225 919.534847 
L 1620 919.534847 
" style="fill:none;stroke:#b0b0b0;stroke-linecap:square;stroke-width:0.8;"/>
     </g>
     <g id="line2d_22">
      <g>
       <use style="stroke:#000000;stroke-width:0.8;" x="225" xlink:href="#mb85cb3422c" y="919.534847"/>
      </g>
     </g>
     <g id="text_11">
      <!-- −0.018 -->
      <g transform="translate(180.992188 923.334065)scale(0.1 -0.1)">
       <use xlink:href="#DejaVuSans-2212"/>
       <use x="83.789062" xlink:href="#DejaVuSans-30"/>
       <use x="147.412109" xlink:href="#DejaVuSans-2e"/>
       <use x="179.199219" xlink:href="#DejaVuSans-30"/>
       <use x="242.822266" xlink:href="#DejaVuSans-31"/>
       <use x="306.445312" xlink:href="#DejaVuSans-38"/>
      </g>
     </g>
    </g>
    <g id="ytick_6">
     <g id="line2d_23">
      <path clip-path="url(#pd5427612f5)" d="M 225 829.018558 
L 1620 829.018558 
" style="fill:none;stroke:#b0b0b0;stroke-linecap:square;stroke-width:0.8;"/>
     </g>
     <g id="line2d_24">
      <g>
       <use style="stroke:#000000;stroke-width:0.8;" x="225" xlink:href="#mb85cb3422c" y="829.018558"/>
      </g>
     </g>
     <g id="text_12">
      <!-- −0.008 -->
      <g transform="translate(180.992188 832.817777)scale(0.1 -0.1)">
       <use xlink:href="#DejaVuSans-2212"/>
       <use x="83.789062" xlink:href="#DejaVuSans-30"/>
       <use x="147.412109" xlink:href="#DejaVuSans-2e"/>
       <use x="179.199219" xlink:href="#DejaVuSans-30"/>
       <use x="242.822266" xlink:href="#DejaVuSans-30"/>
       <use x="306.445312" xlink:href="#DejaVuSans-38"/>
      </g>
     </g>
    </g>
    <g id="ytick_7">
     <g id="line2d_25">
      <path clip-path="url(#pd5427612f5)" d="M 225 738.50227 
L 1620 738.50227 
" style="fill:none;stroke:#b0b0b0;stroke-linecap:square;stroke-width:0.8;"/>
     </g>
     <g id="line2d_26">
      <g>
       <use style="stroke:#000000;stroke-width:0.8;" x="225" xlink:href="#mb85cb3422c" y="738.50227"/>
      </g>
     </g>
     <g id="text_13">
      <!-- 0.002 -->
      <g transform="translate(189.371875 742.301489)scale(0.1 -0.1)">
       <use xlink:href="#DejaVuSans-30"/>
       <use x="63.623047" xlink:href="#DejaVuSans-2e"/>
       <use x="95.410156" xlink:href="#DejaVuSans-30"/>
       <use x="159.033203" xlink:href="#DejaVuSans-30"/>
       <use x="222.65625" xlink:href="#DejaVuSans-32"/>
      </g>
     </g>
    </g>
    <g id="ytick_8">
     <g id="line2d_27">
      <path clip-path="url(#pd5427612f5)" d="M 225 647.985981 
L 1620 647.985981 
" style="fill:none;stroke:#b0b0b0;stroke-linecap:square;stroke-width:0.8;"/>
     </g>
     <g id="line2d_28">
      <g>
       <use style="stroke:#000000;stroke-width:0.8;" x="225" xlink:href="#mb85cb3422c" y="647.985981"/>
      </g>
     </g>
     <g id="text_14">
      <!-- 0.012 -->
      <g transform="translate(189.371875 651.7852)scale(0.1 -0.1)">
       <use xlink:href="#DejaVuSans-30"/>
       <use x="63.623047" xlink:href="#DejaVuSans-2e"/>
       <use x="95.410156" xlink:href="#DejaVuSans-30"/>
       <use x="159.033203" xlink:href="#DejaVuSans-31"/>
       <use x="222.65625" xlink:href="#DejaVuSans-32"/>
      </g>
     </g>
    </g>
    <g id="ytick_9">
     <g id="line2d_29">
      <path clip-path="url(#pd5427612f5)" d="M 225 557.469693 
L 1620 557.469693 
" style="fill:none;stroke:#b0b0b0;stroke-linecap:square;stroke-width:0.8;"/>
     </g>
     <g id="line2d_30">
      <g>
       <use style="stroke:#000000;stroke-width:0.8;" x="225" xlink:href="#mb85cb3422c" y="557.469693"/>
      </g>
     </g>
     <g id="text_15">
      <!-- 0.022 -->
      <g transform="translate(189.371875 561.268912)scale(0.1 -0.1)">
       <use xlink:href="#DejaVuSans-30"/>
       <use x="63.623047" xlink:href="#DejaVuSans-2e"/>
       <use x="95.410156" xlink:href="#DejaVuSans-30"/>
       <use x="159.033203" xlink:href="#DejaVuSans-32"/>
       <use x="222.65625" xlink:href="#DejaVuSans-32"/>
      </g>
     </g>
    </g>
    <g id="ytick_10">
     <g id="line2d_31">
      <path clip-path="url(#pd5427612f5)" d="M 225 466.953405 
L 1620 466.953405 
" style="fill:none;stroke:#b0b0b0;stroke-linecap:square;stroke-width:0.8;"/>
     </g>
     <g id="line2d_32">
      <g>
       <use style="stroke:#000000;stroke-width:0.8;" x="225" xlink:href="#mb85cb3422c" y="466.953405"/>
      </g>
     </g>
     <g id="text_16">
      <!-- 0.032 -->
      <g transform="translate(189.371875 470.752623)scale(0.1 -0.1)">
       <use xlink:href="#DejaVuSans-30"/>
       <use x="63.623047" xlink:href="#DejaVuSans-2e"/>
       <use x="95.410156" xlink:href="#DejaVuSans-30"/>
       <use x="159.033203" xlink:href="#DejaVuSans-33"/>
       <use x="222.65625" xlink:href="#DejaVuSans-32"/>
      </g>
     </g>
    </g>
    <g id="ytick_11">
     <g id="line2d_33">
      <path clip-path="url(#pd5427612f5)" d="M 225 376.437116 
L 1620 376.437116 
" style="fill:none;stroke:#b0b0b0;stroke-linecap:square;stroke-width:0.8;"/>
     </g>
     <g id="line2d_34">
      <g>
       <use style="stroke:#000000;stroke-width:0.8;" x="225" xlink:href="#mb85cb3422c" y="376.437116"/>
      </g>
     </g>
     <g id="text_17">
      <!-- 0.042 -->
      <g transform="translate(189.371875 380.236335)scale(0.1 -0.1)">
       <use xlink:href="#DejaVuSans-30"/>
       <use x="63.623047" xlink:href="#DejaVuSans-2e"/>
       <use x="95.410156" xlink:href="#DejaVuSans-30"/>
       <use x="159.033203" xlink:href="#DejaVuSans-34"/>
       <use x="222.65625" xlink:href="#DejaVuSans-32"/>
      </g>
     </g>
    </g>
    <g id="ytick_12">
     <g id="line2d_35">
      <path clip-path="url(#pd5427612f5)" d="M 225 285.920828 
L 1620 285.920828 
" style="fill:none;stroke:#b0b0b0;stroke-linecap:square;stroke-width:0.8;"/>
     </g>
     <g id="line2d_36">
      <g>
       <use style="stroke:#000000;stroke-width:0.8;" x="225" xlink:href="#mb85cb3422c" y="285.920828"/>
      </g>
     </g>
     <g id="text_18">
      <!-- 0.052 -->
      <g transform="translate(189.371875 289.720047)scale(0.1 -0.1)">
       <use xlink:href="#DejaVuSans-30"/>
       <use x="63.623047" xlink:href="#DejaVuSans-2e"/>
       <use x="95.410156" xlink:href="#DejaVuSans-30"/>
       <use x="159.033203" xlink:href="#DejaVuSans-35"/>
       <use x="222.65625" xlink:href="#DejaVuSans-32"/>
      </g>
     </g>
    </g>
    <g id="ytick_13">
     <g id="line2d_37">
      <path clip-path="url(#pd5427612f5)" d="M 225 195.40454 
L 1620 195.40454 
" style="fill:none;stroke:#b0b0b0;stroke-linecap:square;stroke-width:0.8;"/>
     </g>
     <g id="line2d_38">
      <g>
       <use style="stroke:#000000;stroke-width:0.8;" x="225" xlink:href="#mb85cb3422c" y="195.40454"/>
      </g>
     </g>
     <g id="text_19">
      <!-- 0.062 -->
      <g transform="translate(189.371875 199.203758)scale(0.1 -0.1)">
       <use xlink:href="#DejaVuSans-30"/>
       <use x="63.623047" xlink:href="#DejaVuSans-2e"/>
       <use x="95.410156" xlink:href="#DejaVuSans-30"/>
       <use x="159.033203" xlink:href="#DejaVuSans-36"/>
       <use x="222.65625" xlink:href="#DejaVuSans-32"/>
      </g>
     </g>
    </g>
   </g>
   <g id="patch_3">
    <path clip-path="url(#pd5427612f5)" d="M 288.409091 1281.6 
L 1557.820959 1281.6 
L 1557.820959 172.8 
L 288.409091 172.8 
z
" style="opacity:0.3;"/>
   </g>
   <g id="line2d_39">
    <path clip-path="url(#pd5427612f5)" d="M 288.409091 717.715187 
L 289.639141 717.715187 
L 290.869191 736.575244 
L 292.099242 736.575244 
L 293.329292 703.472148 
L 294.559342 703.472148 
L 295.789392 708.07969 
L 297.019443 708.07969 
L 298.249493 854.397372 
L 299.479543 964.829977 
L 300.709594 964.829977 
L 301.939644 952.738795 
L 303.169694 952.738795 
L 304.399744 1001.4805 
L 305.629795 1001.4805 
L 306.859845 1066.737722 
L 308.089895 1066.737722 
L 309.319945 1071.311023 
L 310.549996 1105.211635 
L 311.780046 1105.211635 
L 313.010096 1074.134031 
L 314.240146 1074.134031 
L 315.470197 1231.2 
L 316.700247 1231.2 
L 317.930297 1064.889382 
L 319.160347 1064.889382 
L 320.390398 981.085413 
L 321.620448 1071.641763 
L 322.850498 1071.641763 
L 324.080548 1065.848808 
L 325.310599 1065.848808 
L 326.540649 984.669591 
L 327.770699 984.669591 
L 329.000749 982.449179 
L 330.2308 982.449179 
L 331.46085 960.900076 
L 332.6909 960.900076 
L 333.920951 925.891643 
L 335.151001 925.891643 
L 336.381051 943.985842 
L 337.611101 1064.265507 
L 338.841152 1064.265507 
L 340.071202 996.678257 
L 341.301252 996.678257 
L 342.531302 1024.32343 
L 343.761353 1024.32343 
L 344.991403 1109.83936 
L 346.221453 1109.83936 
L 347.451503 1028.209599 
L 348.681554 1061.975053 
L 349.911604 1061.975053 
L 351.141654 1083.792423 
L 352.371704 1083.792423 
L 353.601755 1066.093945 
L 354.831805 1066.093945 
L 356.061855 1053.429288 
L 357.291905 1057.707149 
L 358.521956 1057.707149 
L 359.752006 1050.471652 
L 360.982056 1050.471652 
L 362.212107 962.174571 
L 363.442157 962.174571 
L 364.672207 989.424901 
L 365.902257 989.424901 
L 367.132308 952.050676 
L 368.362358 883.839402 
L 369.592408 883.839402 
L 370.822458 965.362118 
L 372.052509 965.362118 
L 373.282559 990.87768 
L 374.512609 990.87768 
L 375.742659 954.145365 
L 376.97271 954.145365 
L 378.20276 961.571612 
L 379.43281 999.511362 
L 380.66286 999.511362 
L 381.892911 990.338339 
L 383.122961 990.338339 
L 384.353011 1050.942171 
L 385.583061 1050.942171 
L 386.813112 1038.298562 
L 388.043162 1038.298562 
L 389.273212 953.436261 
L 390.503262 1110.464799 
L 391.733313 1110.464799 
L 392.963363 994.692522 
L 394.193413 994.692522 
L 395.423464 1076.194591 
L 396.653514 1076.194591 
L 397.883564 1104.545965 
L 399.113614 1063.169827 
L 400.343665 1063.169827 
L 401.573715 1094.270359 
L 402.803765 1094.270359 
L 404.033815 998.508344 
L 405.263866 998.508344 
L 406.493916 1017.354518 
L 407.723966 1017.354518 
L 408.954016 977.983108 
L 410.184067 981.149714 
L 411.414117 981.149714 
L 412.644167 926.655758 
L 413.874217 926.655758 
L 415.104268 912.097561 
L 416.334318 912.097561 
L 417.564368 888.315321 
L 418.794418 925.999885 
L 420.024469 925.999885 
L 421.254519 870.029663 
L 422.484569 870.029663 
L 423.71462 888.548494 
L 424.94467 888.548494 
L 426.17472 863.278241 
L 427.40477 863.278241 
L 428.634821 966.424961 
L 429.864871 966.424961 
L 431.094921 909.696247 
L 432.324971 910.674895 
L 433.555022 910.674895 
L 434.785072 821.11721 
L 436.015122 821.11721 
L 437.245172 893.91435 
L 438.475223 893.91435 
L 439.705273 818.992546 
L 440.935323 919.406684 
L 442.165373 919.406684 
L 443.395424 882.956565 
L 444.625474 882.956565 
L 445.855524 724.39771 
L 447.085574 724.39771 
L 448.315625 672.033937 
L 449.545675 877.404196 
L 450.775725 877.404196 
L 452.005776 738.065649 
L 453.235826 738.065649 
L 454.465876 767.08962 
L 455.695926 767.08962 
L 456.925977 810.824647 
L 458.156027 810.824647 
L 459.386077 901.572363 
L 460.616127 901.572363 
L 461.846178 833.215852 
L 463.076228 833.215852 
L 465.536328 899.986692 
L 466.766379 899.986692 
L 467.996429 844.154274 
L 469.226479 844.154274 
L 470.456529 856.610435 
L 471.68658 856.610435 
L 472.91663 757.812616 
L 474.14668 757.812616 
L 475.37673 796.079045 
L 476.606781 683.507082 
L 477.836831 683.507082 
L 479.066881 712.462795 
L 480.296931 712.462795 
L 481.526982 703.022707 
L 482.757032 703.022707 
L 483.987082 634.291262 
L 485.217133 719.316962 
L 486.447183 719.316962 
L 487.677233 630.039976 
L 488.907283 630.039976 
L 490.137334 590.220519 
L 491.367384 590.220519 
L 492.597434 691.905795 
L 493.827484 867.597692 
L 495.057535 867.597692 
L 496.287585 752.808028 
L 497.517635 752.808028 
L 498.747685 900.91994 
L 499.977736 900.91994 
L 501.207786 815.939148 
L 502.437836 815.939148 
L 503.667886 752.325751 
L 504.897937 878.145271 
L 506.127987 878.145271 
L 507.358037 912.182665 
L 508.588087 912.182665 
L 509.818138 782.063447 
L 511.048188 782.063447 
L 512.278238 788.846876 
L 513.508289 641.267496 
L 514.738339 641.267496 
L 515.968389 761.118006 
L 517.198439 653.005215 
L 518.42849 653.005215 
L 519.65854 726.565573 
L 520.88859 726.565573 
L 522.11864 678.548061 
L 523.348691 678.548061 
L 524.578741 773.983456 
L 525.808791 773.983456 
L 527.038841 650.389157 
L 528.268892 650.389157 
L 529.498942 689.383044 
L 530.728992 676.939723 
L 531.959042 676.939723 
L 533.189093 652.392269 
L 534.419143 652.392269 
L 535.649193 651.468846 
L 536.879243 651.468846 
L 538.109294 781.843553 
L 539.339344 781.843553 
L 540.569394 742.693977 
L 541.799444 654.254397 
L 543.029495 654.254397 
L 544.259545 702.265854 
L 545.489595 702.265854 
L 546.719646 672.765432 
L 547.949696 672.765432 
L 549.179746 566.959847 
L 550.409796 566.959847 
L 551.639847 550.543941 
L 552.869897 550.543941 
L 554.099947 629.138911 
L 555.329997 629.138911 
L 556.560048 590.781959 
L 557.790098 590.781959 
L 559.020148 608.767339 
L 560.250198 624.187093 
L 561.480249 624.187093 
L 562.710299 551.718838 
L 563.940349 551.718838 
L 565.170399 643.201314 
L 566.40045 643.201314 
L 567.6305 740.069617 
L 568.86055 740.069617 
L 570.0906 520.860538 
L 571.320651 520.860538 
L 572.550701 642.210864 
L 573.780751 584.702654 
L 575.010802 584.702654 
L 576.240852 632.742378 
L 577.470902 632.742378 
L 578.700952 585.465523 
L 579.931003 585.465523 
L 581.161053 619.943922 
L 582.391103 619.943922 
L 583.621153 648.533401 
L 584.851204 648.533401 
L 586.081254 655.930876 
L 587.311304 566.903645 
L 588.541354 566.903645 
L 589.771405 591.250998 
L 591.001455 591.250998 
L 592.231505 528.512655 
L 593.461555 528.512655 
L 594.691606 646.682699 
L 595.921656 646.682699 
L 597.151706 717.788148 
L 598.381756 818.445601 
L 599.611807 818.445601 
L 600.841857 719.234432 
L 602.071907 719.234432 
L 603.301957 775.553643 
L 604.532008 775.553643 
L 605.762058 788.114947 
L 606.992108 788.114947 
L 608.222159 778.109253 
L 609.452209 706.315372 
L 610.682259 706.315372 
L 611.912309 727.553884 
L 613.14236 727.553884 
L 614.37241 707.36331 
L 615.60246 707.36331 
L 616.83251 698.600137 
L 618.062561 806.940177 
L 619.292611 806.940177 
L 620.522661 801.01697 
L 621.752711 801.01697 
L 622.982762 638.488169 
L 624.212812 677.912096 
L 625.442862 677.912096 
L 626.672912 784.157327 
L 627.902963 784.157327 
L 629.133013 737.920172 
L 630.363063 737.920172 
L 631.593113 699.659263 
L 632.823164 699.659263 
L 634.053214 845.02062 
L 635.283264 735.213968 
L 636.513315 735.213968 
L 637.743365 840.498185 
L 638.973415 840.498185 
L 640.203465 836.50656 
L 641.433516 836.50656 
L 642.663566 754.447192 
L 643.893616 754.447192 
L 645.123666 751.981538 
L 646.353717 784.61015 
L 647.583767 784.61015 
L 648.813817 706.083189 
L 650.043867 706.083189 
L 651.273918 814.767526 
L 652.503968 814.767526 
L 653.734018 660.006423 
L 654.964068 679.391942 
L 656.194119 679.391942 
L 657.424169 802.420062 
L 658.654219 802.420062 
L 659.884269 662.931087 
L 661.11432 662.931087 
L 662.34437 783.558498 
L 663.57442 942.285912 
L 664.804471 942.285912 
L 666.034521 894.846995 
L 667.264571 894.846995 
L 668.494621 843.597695 
L 669.724672 843.597695 
L 670.954722 840.59296 
L 672.184772 656.231426 
L 673.414822 656.231426 
L 674.644873 831.291283 
L 675.874923 831.291283 
L 677.104973 828.521631 
L 678.335023 828.521631 
L 679.565074 887.193658 
L 680.795124 887.193658 
L 682.025174 799.484597 
L 683.255224 799.484597 
L 684.485275 826.339877 
L 685.715325 826.339877 
L 686.945375 844.7457 
L 688.175425 789.94662 
L 689.405476 789.94662 
L 690.635526 767.898787 
L 691.865576 767.898787 
L 693.095626 801.897912 
L 694.325677 801.897912 
L 695.555727 859.391406 
L 696.785777 859.391406 
L 698.015828 817.661157 
L 699.245878 817.661157 
L 700.475928 868.637731 
L 701.705978 786.819311 
L 702.936029 786.819311 
L 704.166079 822.463689 
L 705.396129 822.463689 
L 706.626179 818.802866 
L 707.85623 818.802866 
L 709.08628 835.180188 
L 710.31633 835.180188 
L 711.54638 852.60271 
L 712.776431 759.145917 
L 714.006481 759.145917 
L 715.236531 731.412406 
L 716.466581 731.412406 
L 717.696632 764.734381 
L 718.926682 764.734381 
L 720.156732 786.776478 
L 721.386782 786.776478 
L 722.616833 833.019053 
L 723.846883 833.019053 
L 725.076933 759.560463 
L 726.306984 759.560463 
L 727.537034 664.106412 
L 728.767084 664.106412 
L 729.997134 783.414765 
L 731.227185 783.414765 
L 732.457235 850.055312 
L 733.687285 744.977301 
L 734.917335 744.977301 
L 736.147386 861.604816 
L 737.377436 861.604816 
L 738.607486 865.102513 
L 739.837536 865.102513 
L 741.067587 830.268651 
L 742.297637 823.031339 
L 744.757737 823.031339 
L 745.987788 744.786006 
L 747.217838 744.786006 
L 748.447888 719.74146 
L 749.677938 719.74146 
L 750.907989 753.758185 
L 752.138039 753.758185 
L 753.368089 681.964622 
L 754.598139 681.964622 
L 755.82819 646.426156 
L 757.05824 693.894895 
L 759.518341 693.894895 
L 760.748391 718.783701 
L 761.978441 718.783701 
L 763.208491 823.290904 
L 764.438542 823.290904 
L 765.668592 753.97126 
L 766.898642 835.12592 
L 768.128692 835.12592 
L 769.358743 806.842828 
L 770.588793 806.842828 
L 771.818843 913.098051 
L 773.048893 913.098051 
L 774.278944 918.685061 
L 775.508994 918.685061 
L 776.739044 970.714356 
L 777.969094 970.714356 
L 779.199145 903.085105 
L 780.429195 846.989749 
L 781.659245 846.989749 
L 782.889295 849.764626 
L 784.119346 849.764626 
L 785.349396 877.951279 
L 786.579446 877.951279 
L 787.809497 825.268315 
L 789.039547 825.268315 
L 790.269597 865.883492 
L 791.499647 865.883492 
L 792.729698 857.801092 
L 793.959748 857.801092 
L 795.189798 816.302542 
L 796.419848 816.302542 
L 797.649899 852.370634 
L 798.879949 840.012574 
L 800.109999 840.012574 
L 801.340049 953.147302 
L 802.5701 953.147302 
L 803.80015 948.276593 
L 805.0302 948.276593 
L 806.26025 958.020464 
L 807.490301 958.020464 
L 808.720351 865.88269 
L 809.950401 865.88269 
L 811.180451 927.882804 
L 812.410502 927.882804 
L 813.640552 784.929124 
L 814.870602 784.929124 
L 816.100652 802.125721 
L 817.330703 802.125721 
L 818.560753 823.556985 
L 819.790803 708.831378 
L 821.020854 708.831378 
L 822.250904 755.720632 
L 823.480954 755.720632 
L 824.711004 783.771378 
L 825.941055 783.771378 
L 827.171105 775.893556 
L 828.401155 775.893556 
L 829.631205 717.146908 
L 830.861256 717.146908 
L 832.091306 715.553819 
L 833.321356 715.553819 
L 834.551406 738.537905 
L 838.241557 738.612124 
L 839.471607 778.755293 
L 840.701658 778.755293 
L 841.931708 828.024964 
L 843.161758 828.024964 
L 844.391808 769.72318 
L 845.621859 769.72318 
L 846.851909 731.216409 
L 848.081959 731.216409 
L 849.31201 790.134451 
L 850.54206 790.134451 
L 851.77211 846.302396 
L 853.00216 591.129207 
L 854.232211 591.129207 
L 855.462261 610.25505 
L 856.692311 610.25505 
L 857.922361 611.588731 
L 859.152412 611.588731 
L 860.382462 569.927359 
L 861.612512 569.927359 
L 862.842562 501.794332 
L 864.072613 501.794332 
L 865.302663 499.415417 
L 866.532713 499.415417 
L 867.762763 459.433412 
L 868.992814 459.433412 
L 870.222864 443.429428 
L 872.682964 443.429428 
L 873.913015 503.617692 
L 875.143065 503.617692 
L 876.373115 523.706033 
L 877.603166 538.773014 
L 878.833216 538.773014 
L 880.063266 630.495997 
L 881.293316 630.495997 
L 882.523367 562.681096 
L 883.753417 562.681096 
L 884.983467 565.750984 
L 886.213517 565.750984 
L 887.443568 514.018623 
L 888.673618 588.698586 
L 889.903668 588.698586 
L 891.133718 572.752108 
L 892.363769 572.752108 
L 893.593819 504.073111 
L 894.823869 504.073111 
L 896.053919 417.552308 
L 897.28397 512.176414 
L 898.51402 512.176414 
L 899.74407 483.944784 
L 900.97412 483.944784 
L 902.204171 481.748279 
L 903.434221 481.748279 
L 904.664271 533.48637 
L 905.894321 533.48637 
L 907.124372 471.68162 
L 908.354422 556.566622 
L 909.584472 556.566622 
L 910.814523 584.537945 
L 912.044573 584.537945 
L 913.274623 610.164591 
L 914.504673 610.164591 
L 915.734724 534.117708 
L 916.964774 534.117708 
L 918.194824 570.409425 
L 919.424874 509.027462 
L 920.654925 509.027462 
L 921.884975 528.113068 
L 923.115025 528.113068 
L 924.345075 545.942928 
L 925.575126 545.942928 
L 926.805176 551.06486 
L 928.035226 551.06486 
L 929.265276 616.128121 
L 930.495327 616.128121 
L 931.725377 636.193242 
L 932.955427 636.193242 
L 934.185477 672.483902 
L 935.415528 672.483902 
L 936.645578 696.10692 
L 937.875628 696.10692 
L 939.105679 693.500727 
L 940.335729 693.500727 
L 941.565779 705.128184 
L 942.795829 705.128184 
L 944.02588 697.711174 
L 945.25593 697.711174 
L 946.48598 709.281792 
L 947.71603 709.281792 
L 948.946081 658.688966 
L 950.176131 613.268236 
L 951.406181 613.268236 
L 952.636231 644.692551 
L 953.866282 644.692551 
L 955.096332 604.749861 
L 956.326382 604.749861 
L 957.556432 625.861665 
L 958.786483 625.861665 
L 960.016533 628.255751 
L 961.246583 680.650793 
L 962.476633 680.650793 
L 963.706684 665.065161 
L 966.166784 665.065161 
L 967.396834 669.323915 
L 968.626885 669.323915 
L 969.856935 690.323773 
L 971.086985 690.323773 
L 972.317036 766.090949 
L 973.547086 703.072974 
L 974.777136 703.072974 
L 976.007186 682.366456 
L 977.237237 682.366456 
L 978.467287 748.708925 
L 979.697337 748.708925 
L 980.927387 738.503495 
L 982.157438 738.503495 
L 983.387488 643.653708 
L 984.617538 643.653708 
L 985.847588 776.913052 
L 987.077639 776.913052 
L 988.307689 674.813203 
L 989.537739 707.42985 
L 990.767789 707.42985 
L 991.99784 690.878586 
L 993.22789 690.878586 
L 994.45794 723.762923 
L 995.68799 723.762923 
L 996.918041 706.745385 
L 998.148091 706.745385 
L 999.378141 720.696508 
L 1000.608192 728.399862 
L 1001.838242 728.399862 
L 1003.068292 634.867897 
L 1004.298342 634.867897 
L 1005.528393 645.353723 
L 1006.758443 645.353723 
L 1007.988493 609.673792 
L 1009.218543 609.673792 
L 1010.448594 701.305052 
L 1011.678644 701.305052 
L 1012.908694 683.044453 
L 1014.138744 683.044453 
L 1015.368795 666.712028 
L 1016.598845 666.712028 
L 1017.828895 758.903553 
L 1019.058945 758.903553 
L 1020.288996 786.457818 
L 1021.519046 786.457818 
L 1022.749096 703.068762 
L 1023.979146 703.068762 
L 1025.209197 802.67551 
L 1026.439247 680.291652 
L 1027.669297 680.291652 
L 1028.899348 706.149289 
L 1030.129398 706.149289 
L 1031.359448 681.704592 
L 1032.589498 681.704592 
L 1033.819549 686.225232 
L 1035.049599 686.225232 
L 1036.279649 617.333927 
L 1037.509699 645.070087 
L 1038.73975 645.070087 
L 1039.9698 617.058386 
L 1041.19985 617.058386 
L 1042.4299 632.340634 
L 1043.659951 632.340634 
L 1044.890001 597.609642 
L 1046.120051 597.609642 
L 1047.350101 622.782646 
L 1048.580152 693.373444 
L 1049.810202 693.373444 
L 1051.040252 733.250051 
L 1052.270302 733.250051 
L 1053.500353 626.608649 
L 1054.730403 626.608649 
L 1055.960453 656.429106 
L 1057.190503 656.429106 
L 1058.420554 649.088016 
L 1059.650604 649.088016 
L 1060.880654 626.88114 
L 1062.110705 677.214702 
L 1063.340755 677.214702 
L 1064.570805 551.229005 
L 1067.030906 551.229005 
L 1068.260956 537.315664 
L 1069.491006 453.468185 
L 1070.721056 453.468185 
L 1071.951107 533.979956 
L 1073.181157 533.979956 
L 1074.411207 464.989728 
L 1075.641257 464.989728 
L 1076.871308 448.602489 
L 1078.101358 388.609613 
L 1079.331408 388.609613 
L 1080.561458 444.496814 
L 1081.791509 444.496814 
L 1083.021559 373.577487 
L 1084.251609 373.577487 
L 1085.481659 450.441043 
L 1086.71171 450.441043 
L 1087.94176 470.645538 
L 1089.17181 470.645538 
L 1090.401861 519.955208 
L 1091.631911 541.118832 
L 1092.861961 541.118832 
L 1094.092011 498.2169 
L 1095.322062 498.2169 
L 1096.552112 500.199763 
L 1097.782162 500.199763 
L 1099.012212 529.883455 
L 1100.242263 529.883455 
L 1101.472313 448.201324 
L 1102.702363 359.12962 
L 1103.932413 359.12962 
L 1105.162464 451.087833 
L 1106.392514 451.087833 
L 1107.622564 327.39024 
L 1108.852614 327.39024 
L 1110.082665 265.452193 
L 1111.312715 265.452193 
L 1112.542765 283.810851 
L 1113.772815 283.810851 
L 1115.002866 223.2 
L 1116.232916 223.2 
L 1117.462966 324.138545 
L 1118.693016 283.202468 
L 1119.923067 283.202468 
L 1121.153117 342.597498 
L 1122.383167 342.597498 
L 1123.613218 333.401999 
L 1124.843268 333.401999 
L 1126.073318 388.399826 
L 1127.303368 388.399826 
L 1128.533419 407.271617 
L 1129.763469 486.877694 
L 1130.993519 486.877694 
L 1132.223569 478.529018 
L 1133.45362 478.529018 
L 1134.68367 437.832578 
L 1135.91372 437.832578 
L 1137.14377 533.381207 
L 1138.373821 442.60004 
L 1139.603871 442.60004 
L 1140.833921 458.600098 
L 1142.063971 458.600098 
L 1143.294022 473.276094 
L 1144.524072 473.276094 
L 1145.754122 521.246845 
L 1146.984172 521.246845 
L 1148.214223 479.356041 
L 1149.444273 483.620553 
L 1150.674323 483.620553 
L 1151.904374 516.512134 
L 1153.134424 516.512134 
L 1154.364474 468.617461 
L 1155.594524 468.617461 
L 1156.824575 456.262448 
L 1158.054625 456.262448 
L 1159.284675 582.499701 
L 1160.514725 582.499701 
L 1161.744776 639.445438 
L 1162.974826 577.485036 
L 1164.204876 577.485036 
L 1165.434926 577.305036 
L 1166.664977 577.305036 
L 1167.895027 531.117602 
L 1169.125077 531.117602 
L 1170.355127 596.594502 
L 1171.585178 596.594502 
L 1172.815228 507.858465 
L 1174.045278 507.858465 
L 1175.275328 550.690013 
L 1176.505379 550.690013 
L 1177.735429 563.442662 
L 1178.965479 563.442662 
L 1180.195529 493.802518 
L 1181.42558 493.802518 
L 1182.65563 546.753068 
L 1183.88568 546.753068 
L 1185.115731 536.78957 
L 1186.345781 536.78957 
L 1187.575831 493.085421 
L 1188.805881 546.927671 
L 1190.035932 546.927671 
L 1191.265982 523.743936 
L 1192.496032 523.743936 
L 1193.726082 591.60132 
L 1194.956133 591.60132 
L 1196.186183 564.440268 
L 1197.416233 598.277254 
L 1198.646283 598.277254 
L 1199.876334 559.069176 
L 1201.106384 559.069176 
L 1202.336434 620.787303 
L 1203.566484 620.787303 
L 1204.796535 575.731459 
L 1206.026585 569.804427 
L 1207.256635 569.804427 
L 1208.486685 539.283896 
L 1210.946786 539.283896 
L 1212.176836 598.209863 
L 1213.406887 598.209863 
L 1214.636937 587.430231 
L 1215.866987 599.23257 
L 1217.097037 599.23257 
L 1218.327088 672.911086 
L 1219.557138 672.911086 
L 1220.787188 657.14299 
L 1222.017238 657.14299 
L 1223.247289 723.417366 
L 1224.477339 723.417366 
L 1225.707389 748.76195 
L 1228.16749 748.76195 
L 1229.39754 764.581595 
L 1230.62759 764.581595 
L 1231.85764 733.209679 
L 1233.087691 768.330336 
L 1234.317741 768.330336 
L 1235.547791 718.865128 
L 1236.777841 718.865128 
L 1238.007892 704.642818 
L 1239.237942 704.642818 
L 1240.467992 784.162385 
L 1241.698043 784.162385 
L 1242.928093 675.057725 
L 1244.158143 675.057725 
L 1245.388193 692.2494 
L 1246.618244 692.2494 
L 1247.848294 647.254821 
L 1249.078344 647.254821 
L 1250.308394 689.041911 
L 1251.538445 689.041911 
L 1252.768495 711.289352 
L 1253.998545 711.289352 
L 1255.228595 742.606958 
L 1256.458646 742.606958 
L 1257.688696 699.715553 
L 1258.918746 699.715553 
L 1260.148796 762.325349 
L 1261.378847 762.325349 
L 1262.608897 650.707759 
L 1263.838947 650.707759 
L 1265.068997 710.56691 
L 1266.299048 710.56691 
L 1267.529098 738.489093 
L 1268.759148 738.489093 
L 1269.989198 740.619419 
L 1271.219249 666.090166 
L 1272.449299 666.090166 
L 1273.679349 651.445806 
L 1277.3695 651.445806 
L 1278.59955 634.676864 
L 1279.829601 666.493378 
L 1281.059651 666.493378 
L 1282.289701 741.623702 
L 1284.749802 741.623702 
L 1285.979852 838.971143 
L 1287.209902 838.971143 
L 1288.439952 757.653344 
L 1289.670003 757.653344 
L 1290.900053 767.178446 
L 1292.130103 767.178446 
L 1293.360153 737.082634 
L 1294.590204 737.082634 
L 1295.820254 785.110963 
L 1297.050304 773.821768 
L 1298.280354 773.821768 
L 1299.510405 728.775453 
L 1300.740455 728.775453 
L 1301.970505 689.565868 
L 1303.200556 689.565868 
L 1304.430606 776.985061 
L 1305.660656 776.985061 
L 1306.890706 701.017857 
L 1308.120757 701.017857 
L 1309.350807 731.174533 
L 1311.810907 731.174533 
L 1313.040958 846.94161 
L 1314.271008 685.057506 
L 1315.501058 685.057506 
L 1316.731108 831.605385 
L 1317.961159 831.605385 
L 1319.191209 834.63378 
L 1320.421259 834.63378 
L 1321.651309 691.721686 
L 1322.88136 826.22276 
L 1324.11141 826.22276 
L 1325.34146 804.574928 
L 1326.57151 804.574928 
L 1327.801561 778.619098 
L 1329.031611 778.619098 
L 1330.261661 758.830056 
L 1331.491711 758.830056 
L 1332.721762 835.098397 
L 1333.951812 835.098397 
L 1336.411913 666.803143 
L 1337.641963 666.803143 
L 1338.872013 797.95246 
L 1340.102063 797.95246 
L 1341.332114 706.224353 
L 1342.562164 706.224353 
L 1343.792214 711.131313 
L 1345.022264 711.131313 
L 1346.252315 787.310475 
L 1347.482365 713.677053 
L 1348.712415 713.677053 
L 1349.942465 854.069798 
L 1351.172516 854.069798 
L 1352.402566 823.389701 
L 1353.632616 823.389701 
L 1354.862666 745.572908 
L 1356.092717 816.378666 
L 1357.322767 816.378666 
L 1358.552817 794.980289 
L 1359.782867 794.980289 
L 1361.012918 819.577317 
L 1362.242968 819.577317 
L 1363.473018 880.856048 
L 1364.703069 880.856048 
L 1365.933119 855.088232 
L 1367.163169 855.088232 
L 1368.393219 847.588674 
L 1369.62327 822.665349 
L 1370.85332 822.665349 
L 1372.08337 757.175822 
L 1373.31342 757.175822 
L 1374.543471 940.064851 
L 1375.773521 940.064851 
L 1377.003571 941.411094 
L 1378.233621 868.14868 
L 1379.463672 868.14868 
L 1380.693722 849.519749 
L 1381.923772 849.519749 
L 1383.153822 865.176296 
L 1384.383873 865.176296 
L 1385.613923 889.745006 
L 1386.843973 889.745006 
L 1388.074023 902.605562 
L 1389.304074 949.780011 
L 1390.534124 949.780011 
L 1391.764174 770.403725 
L 1392.994224 770.403725 
L 1394.224275 747.657572 
L 1395.454325 747.657572 
L 1396.684375 823.506737 
L 1397.914426 823.506737 
L 1399.144476 857.956468 
L 1400.374526 857.956468 
L 1401.604576 840.672054 
L 1402.834627 848.087072 
L 1404.064677 848.087072 
L 1405.294727 804.365424 
L 1406.524777 804.365424 
L 1407.754828 736.923547 
L 1408.984878 736.923547 
L 1410.214928 731.69104 
L 1411.444978 783.645764 
L 1412.675029 783.645764 
L 1413.905079 717.505785 
L 1415.135129 717.505785 
L 1416.365179 647.202296 
L 1417.59523 647.202296 
L 1418.82528 545.244775 
L 1420.05533 644.803435 
L 1421.28538 644.803435 
L 1422.515431 618.493292 
L 1423.745481 618.493292 
L 1424.975531 618.831406 
L 1426.205582 618.831406 
L 1427.435632 638.187599 
L 1428.665682 638.187599 
L 1429.895732 742.872043 
L 1431.125783 656.295231 
L 1432.355833 656.295231 
L 1433.585883 634.205599 
L 1434.815933 634.205599 
L 1436.045984 682.407174 
L 1437.276034 682.407174 
L 1438.506084 683.359357 
L 1439.736134 683.359357 
L 1440.966185 666.734751 
L 1442.196235 613.205693 
L 1443.426285 613.205693 
L 1444.656335 518.99739 
L 1445.886386 518.99739 
L 1447.116436 728.336197 
L 1448.346486 728.336197 
L 1449.576536 580.489113 
L 1450.806587 536.302265 
L 1452.036637 651.043425 
L 1453.266687 651.043425 
L 1454.496738 563.233952 
L 1455.726788 563.233952 
L 1456.956838 634.225929 
L 1458.186888 634.225929 
L 1459.416939 693.014868 
L 1460.646989 693.014868 
L 1461.877039 626.837114 
L 1463.107089 626.837114 
L 1464.33714 660.576501 
L 1465.56719 608.790177 
L 1466.79724 608.790177 
L 1468.02729 647.605504 
L 1469.257341 647.605504 
L 1470.487391 678.316349 
L 1471.717441 678.316349 
L 1472.947491 500.889973 
L 1474.177542 613.28237 
L 1475.407592 613.28237 
L 1476.637642 527.751792 
L 1477.867692 527.751792 
L 1479.097743 437.788058 
L 1480.327793 437.788058 
L 1481.557843 415.7047 
L 1482.787893 452.11928 
L 1484.017944 461.888244 
L 1485.247994 461.888244 
L 1486.478044 534.26857 
L 1487.708095 534.26857 
L 1488.938145 527.79154 
L 1490.168195 527.79154 
L 1491.398245 470.208212 
L 1492.628296 529.028325 
L 1493.858346 529.028325 
L 1495.088396 639.737704 
L 1496.318446 639.737704 
L 1497.548497 525.207611 
L 1498.778547 525.207611 
L 1500.008597 494.380015 
L 1502.468698 494.380015 
L 1503.698748 544.840224 
L 1504.928798 483.76785 
L 1506.158848 523.702365 
L 1507.388899 523.702365 
L 1508.618949 518.275413 
L 1509.848999 434.458304 
L 1511.079049 434.458304 
L 1512.3091 449.954959 
L 1513.53915 449.954959 
L 1514.7692 478.900206 
L 1515.999251 478.900206 
L 1517.229301 607.325329 
L 1518.459351 607.325329 
L 1519.689401 439.111353 
L 1520.919452 439.111353 
L 1522.149502 662.387056 
L 1523.379552 662.387056 
L 1524.609602 468.910139 
L 1525.839653 649.219229 
L 1527.069703 649.219229 
L 1528.299753 641.847952 
L 1529.529803 641.847952 
L 1530.759854 734.07271 
L 1531.989904 734.07271 
L 1533.219954 648.117318 
L 1534.450004 648.117318 
L 1536.910105 756.697896 
L 1538.140155 756.697896 
L 1539.370205 678.725165 
L 1540.600256 678.725165 
L 1541.830306 654.348893 
L 1543.060356 654.348893 
L 1544.290406 677.055175 
L 1545.520457 677.055175 
L 1546.750507 642.966373 
L 1547.980557 642.966373 
L 1549.210608 677.511358 
L 1550.440658 677.511358 
L 1551.670708 673.139079 
L 1552.900758 706.199343 
L 1554.130809 706.199343 
L 1555.360859 720.911248 
L 1556.590909 720.911248 
L 1556.590909 720.911248 
" style="fill:none;stroke:#000000;stroke-linecap:square;stroke-width:1.5;"/>
   </g>
   <g id="line2d_40">
    <path clip-path="url(#pd5427612f5)" d="M 288.409091 756.276874 
L 1556.590909 756.276874 
L 1556.590909 756.276874 
" style="fill:none;stroke:#ff0000;stroke-linecap:square;stroke-width:1.5;"/>
   </g>
   <g id="patch_4">
    <path d="M 225 1281.6 
L 225 172.8 
" style="fill:none;stroke:#000000;stroke-linecap:square;stroke-linejoin:miter;stroke-width:0.8;"/>
   </g>
   <g id="patch_5">
    <path d="M 1620 1281.6 
L 1620 172.8 
" style="fill:none;stroke:#000000;stroke-linecap:square;stroke-linejoin:miter;stroke-width:0.8;"/>
   </g>
   <g id="patch_6">
    <path d="M 225 1281.6 
L 1620 1281.6 
" style="fill:none;stroke:#000000;stroke-linecap:square;stroke-linejoin:miter;stroke-width:0.8;"/>
   </g>
   <g id="patch_7">
    <path d="M 225 172.8 
L 1620 172.8 
" style="fill:none;stroke:#000000;stroke-linecap:square;stroke-linejoin:miter;stroke-width:0.8;"/>
   </g>
   <g id="patch_8">
    <path d="M 755.75685 88.360575 
Q 749.045547 454.696849 742.354723 819.915277 
" style="fill:none;stroke:#000000;stroke-linecap:round;"/>
    <path d="M 744.427656 815.952582 
L 742.354723 819.915277 
L 740.428327 815.879314 
" style="fill:none;stroke:#000000;stroke-linecap:round;"/>
   </g>
   <g id="text_20">
    <!-- Close -->
    <defs>
     <path d="M 64.40625 67.28125 
L 64.40625 56.890625 
Q 59.421875 61.53125 53.78125 63.8125 
Q 48.140625 66.109375 41.796875 66.109375 
Q 29.296875 66.109375 22.65625 58.46875 
Q 16.015625 50.828125 16.015625 36.375 
Q 16.015625 21.96875 22.65625 14.328125 
Q 29.296875 6.6875 41.796875 6.6875 
Q 48.140625 6.6875 53.78125 8.984375 
Q 59.421875 11.28125 64.40625 15.921875 
L 64.40625 5.609375 
Q 59.234375 2.09375 53.4375 0.328125 
Q 47.65625 -1.421875 41.21875 -1.421875 
Q 24.65625 -1.421875 15.125 8.703125 
Q 5.609375 18.84375 5.609375 36.375 
Q 5.609375 53.953125 15.125 64.078125 
Q 24.65625 74.21875 41.21875 74.21875 
Q 47.75 74.21875 53.53125 72.484375 
Q 59.328125 70.75 64.40625 67.28125 
z
" id="DejaVuSans-43"/>
     <path d="M 9.421875 75.984375 
L 18.40625 75.984375 
L 18.40625 0 
L 9.421875 0 
z
" id="DejaVuSans-6c"/>
     <path d="M 30.609375 48.390625 
Q 23.390625 48.390625 19.1875 42.75 
Q 14.984375 37.109375 14.984375 27.296875 
Q 14.984375 17.484375 19.15625 11.84375 
Q 23.34375 6.203125 30.609375 6.203125 
Q 37.796875 6.203125 41.984375 11.859375 
Q 46.1875 17.53125 46.1875 27.296875 
Q 46.1875 37.015625 41.984375 42.703125 
Q 37.796875 48.390625 30.609375 48.390625 
z
M 30.609375 56 
Q 42.328125 56 49.015625 48.375 
Q 55.71875 40.765625 55.71875 27.296875 
Q 55.71875 13.875 49.015625 6.21875 
Q 42.328125 -1.421875 30.609375 -1.421875 
Q 18.84375 -1.421875 12.171875 6.21875 
Q 5.515625 13.875 5.515625 27.296875 
Q 5.515625 40.765625 12.171875 48.375 
Q 18.84375 56 30.609375 56 
z
" id="DejaVuSans-6f"/>
     <path d="M 44.28125 53.078125 
L 44.28125 44.578125 
Q 40.484375 46.53125 36.375 47.5 
Q 32.28125 48.484375 27.875 48.484375 
Q 21.1875 48.484375 17.84375 46.4375 
Q 14.5 44.390625 14.5 40.28125 
Q 14.5 37.15625 16.890625 35.375 
Q 19.28125 33.59375 26.515625 31.984375 
L 29.59375 31.296875 
Q 39.15625 29.25 43.1875 25.515625 
Q 47.21875 21.78125 47.21875 15.09375 
Q 47.21875 7.46875 41.1875 3.015625 
Q 35.15625 -1.421875 24.609375 -1.421875 
Q 20.21875 -1.421875 15.453125 -0.5625 
Q 10.6875 0.296875 5.421875 2 
L 5.421875 11.28125 
Q 10.40625 8.6875 15.234375 7.390625 
Q 20.0625 6.109375 24.8125 6.109375 
Q 31.15625 6.109375 34.5625 8.28125 
Q 37.984375 10.453125 37.984375 14.40625 
Q 37.984375 18.0625 35.515625 20.015625 
Q 33.0625 21.96875 24.703125 23.78125 
L 21.578125 24.515625 
Q 13.234375 26.265625 9.515625 29.90625 
Q 5.8125 33.546875 5.8125 39.890625 
Q 5.8125 47.609375 11.28125 51.796875 
Q 16.75 56 26.8125 56 
Q 31.78125 56 36.171875 55.265625 
Q 40.578125 54.546875 44.28125 53.078125 
z
" id="DejaVuSans-73"/>
     <path d="M 56.203125 29.59375 
L 56.203125 25.203125 
L 14.890625 25.203125 
Q 15.484375 15.921875 20.484375 11.0625 
Q 25.484375 6.203125 34.421875 6.203125 
Q 39.59375 6.203125 44.453125 7.46875 
Q 49.3125 8.734375 54.109375 11.28125 
L 54.109375 2.78125 
Q 49.265625 0.734375 44.1875 -0.34375 
Q 39.109375 -1.421875 33.890625 -1.421875 
Q 20.796875 -1.421875 13.15625 6.1875 
Q 5.515625 13.8125 5.515625 26.8125 
Q 5.515625 40.234375 12.765625 48.109375 
Q 20.015625 56 32.328125 56 
Q 43.359375 56 49.78125 48.890625 
Q 56.203125 41.796875 56.203125 29.59375 
z
M 47.21875 32.234375 
Q 47.125 39.59375 43.09375 43.984375 
Q 39.0625 48.390625 32.421875 48.390625 
Q 24.90625 48.390625 20.390625 44.140625 
Q 15.875 39.890625 15.1875 32.171875 
z
" id="DejaVuSans-65"/>
    </defs>
    <g transform="translate(742.297637 82.283712)scale(0.1 -0.1)">
     <use xlink:href="#DejaVuSans-43"/>
     <use x="69.824219" xlink:href="#DejaVuSans-6c"/>
     <use x="97.607422" xlink:href="#DejaVuSans-6f"/>
     <use x="158.789062" xlink:href="#DejaVuSans-73"/>
     <use x="210.888672" xlink:href="#DejaVuSans-65"/>
    </g>
   </g>
   <g id="legend_1">
    <g id="patch_9">
     <path d="M 1516.864063 224.834375 
L 1613 224.834375 
Q 1615 224.834375 1615 222.834375 
L 1615 179.8 
Q 1615 177.8 1613 177.8 
L 1516.864063 177.8 
Q 1514.864063 177.8 1514.864063 179.8 
L 1514.864063 222.834375 
Q 1514.864063 224.834375 1516.864063 224.834375 
z
" style="fill:#ffffff;opacity:0.8;stroke:#cccccc;stroke-linejoin:miter;"/>
    </g>
    <g id="line2d_41">
     <path d="M 1518.864063 185.898438 
L 1538.864063 185.898438 
" style="fill:none;stroke:#000000;stroke-linecap:square;stroke-width:1.5;"/>
    </g>
    <g id="line2d_42"/>
    <g id="text_21">
     <!-- Yaw position -->
     <defs>
      <path d="M -0.203125 72.90625 
L 10.40625 72.90625 
L 30.609375 42.921875 
L 50.6875 72.90625 
L 61.28125 72.90625 
L 35.5 34.71875 
L 35.5 0 
L 25.59375 0 
L 25.59375 34.71875 
z
" id="DejaVuSans-59"/>
      <path d="M 34.28125 27.484375 
Q 23.390625 27.484375 19.1875 25 
Q 14.984375 22.515625 14.984375 16.5 
Q 14.984375 11.71875 18.140625 8.90625 
Q 21.296875 6.109375 26.703125 6.109375 
Q 34.1875 6.109375 38.703125 11.40625 
Q 43.21875 16.703125 43.21875 25.484375 
L 43.21875 27.484375 
z
M 52.203125 31.203125 
L 52.203125 0 
L 43.21875 0 
L 43.21875 8.296875 
Q 40.140625 3.328125 35.546875 0.953125 
Q 30.953125 -1.421875 24.3125 -1.421875 
Q 15.921875 -1.421875 10.953125 3.296875 
Q 6 8.015625 6 15.921875 
Q 6 25.140625 12.171875 29.828125 
Q 18.359375 34.515625 30.609375 34.515625 
L 43.21875 34.515625 
L 43.21875 35.40625 
Q 43.21875 41.609375 39.140625 45 
Q 35.0625 48.390625 27.6875 48.390625 
Q 23 48.390625 18.546875 47.265625 
Q 14.109375 46.140625 10.015625 43.890625 
L 10.015625 52.203125 
Q 14.9375 54.109375 19.578125 55.046875 
Q 24.21875 56 28.609375 56 
Q 40.484375 56 46.34375 49.84375 
Q 52.203125 43.703125 52.203125 31.203125 
z
" id="DejaVuSans-61"/>
      <path d="M 4.203125 54.6875 
L 13.1875 54.6875 
L 24.421875 12.015625 
L 35.59375 54.6875 
L 46.1875 54.6875 
L 57.421875 12.015625 
L 68.609375 54.6875 
L 77.59375 54.6875 
L 63.28125 0 
L 52.6875 0 
L 40.921875 44.828125 
L 29.109375 0 
L 18.5 0 
z
" id="DejaVuSans-77"/>
      <path id="DejaVuSans-20"/>
      <path d="M 18.109375 8.203125 
L 18.109375 -20.796875 
L 9.078125 -20.796875 
L 9.078125 54.6875 
L 18.109375 54.6875 
L 18.109375 46.390625 
Q 20.953125 51.265625 25.265625 53.625 
Q 29.59375 56 35.59375 56 
Q 45.5625 56 51.78125 48.09375 
Q 58.015625 40.1875 58.015625 27.296875 
Q 58.015625 14.40625 51.78125 6.484375 
Q 45.5625 -1.421875 35.59375 -1.421875 
Q 29.59375 -1.421875 25.265625 0.953125 
Q 20.953125 3.328125 18.109375 8.203125 
z
M 48.6875 27.296875 
Q 48.6875 37.203125 44.609375 42.84375 
Q 40.53125 48.484375 33.40625 48.484375 
Q 26.265625 48.484375 22.1875 42.84375 
Q 18.109375 37.203125 18.109375 27.296875 
Q 18.109375 17.390625 22.1875 11.75 
Q 26.265625 6.109375 33.40625 6.109375 
Q 40.53125 6.109375 44.609375 11.75 
Q 48.6875 17.390625 48.6875 27.296875 
z
" id="DejaVuSans-70"/>
      <path d="M 9.421875 54.6875 
L 18.40625 54.6875 
L 18.40625 0 
L 9.421875 0 
z
M 9.421875 75.984375 
L 18.40625 75.984375 
L 18.40625 64.59375 
L 9.421875 64.59375 
z
" id="DejaVuSans-69"/>
      <path d="M 18.3125 70.21875 
L 18.3125 54.6875 
L 36.8125 54.6875 
L 36.8125 47.703125 
L 18.3125 47.703125 
L 18.3125 18.015625 
Q 18.3125 11.328125 20.140625 9.421875 
Q 21.96875 7.515625 27.59375 7.515625 
L 36.8125 7.515625 
L 36.8125 0 
L 27.59375 0 
Q 17.1875 0 13.234375 3.875 
Q 9.28125 7.765625 9.28125 18.015625 
L 9.28125 47.703125 
L 2.6875 47.703125 
L 2.6875 54.6875 
L 9.28125 54.6875 
L 9.28125 70.21875 
z
" id="DejaVuSans-74"/>
      <path d="M 54.890625 33.015625 
L 54.890625 0 
L 45.90625 0 
L 45.90625 32.71875 
Q 45.90625 40.484375 42.875 44.328125 
Q 39.84375 48.1875 33.796875 48.1875 
Q 26.515625 48.1875 22.3125 43.546875 
Q 18.109375 38.921875 18.109375 30.90625 
L 18.109375 0 
L 9.078125 0 
L 9.078125 54.6875 
L 18.109375 54.6875 
L 18.109375 46.1875 
Q 21.34375 51.125 25.703125 53.5625 
Q 30.078125 56 35.796875 56 
Q 45.21875 56 50.046875 50.171875 
Q 54.890625 44.34375 54.890625 33.015625 
z
" id="DejaVuSans-6e"/>
     </defs>
     <g transform="translate(1546.864063 189.398438)scale(0.1 -0.1)">
      <use xlink:href="#DejaVuSans-59"/>
      <use x="60.880859" xlink:href="#DejaVuSans-61"/>
      <use x="122.160156" xlink:href="#DejaVuSans-77"/>
      <use x="203.947266" xlink:href="#DejaVuSans-20"/>
      <use x="235.734375" xlink:href="#DejaVuSans-70"/>
      <use x="299.210938" xlink:href="#DejaVuSans-6f"/>
      <use x="360.392578" xlink:href="#DejaVuSans-73"/>
      <use x="412.492188" xlink:href="#DejaVuSans-69"/>
      <use x="440.275391" xlink:href="#DejaVuSans-74"/>
      <use x="479.484375" xlink:href="#DejaVuSans-69"/>
      <use x="507.267578" xlink:href="#DejaVuSans-6f"/>
      <use x="568.449219" xlink:href="#DejaVuSans-6e"/>
     </g>
    </g>
    <g id="line2d_43">
     <path d="M 1518.864063 200.576562 
L 1538.864063 200.576562 
" style="fill:none;stroke:#ff0000;stroke-linecap:square;stroke-width:1.5;"/>
    </g>
    <g id="line2d_44"/>
    <g id="text_22">
     <!-- goal -->
     <defs>
      <path d="M 45.40625 27.984375 
Q 45.40625 37.75 41.375 43.109375 
Q 37.359375 48.484375 30.078125 48.484375 
Q 22.859375 48.484375 18.828125 43.109375 
Q 14.796875 37.75 14.796875 27.984375 
Q 14.796875 18.265625 18.828125 12.890625 
Q 22.859375 7.515625 30.078125 7.515625 
Q 37.359375 7.515625 41.375 12.890625 
Q 45.40625 18.265625 45.40625 27.984375 
z
M 54.390625 6.78125 
Q 54.390625 -7.171875 48.1875 -13.984375 
Q 42 -20.796875 29.203125 -20.796875 
Q 24.46875 -20.796875 20.265625 -20.09375 
Q 16.0625 -19.390625 12.109375 -17.921875 
L 12.109375 -9.1875 
Q 16.0625 -11.328125 19.921875 -12.34375 
Q 23.78125 -13.375 27.78125 -13.375 
Q 36.625 -13.375 41.015625 -8.765625 
Q 45.40625 -4.15625 45.40625 5.171875 
L 45.40625 9.625 
Q 42.625 4.78125 38.28125 2.390625 
Q 33.9375 0 27.875 0 
Q 17.828125 0 11.671875 7.65625 
Q 5.515625 15.328125 5.515625 27.984375 
Q 5.515625 40.671875 11.671875 48.328125 
Q 17.828125 56 27.875 56 
Q 33.9375 56 38.28125 53.609375 
Q 42.625 51.21875 45.40625 46.390625 
L 45.40625 54.6875 
L 54.390625 54.6875 
z
" id="DejaVuSans-67"/>
     </defs>
     <g transform="translate(1546.864063 204.076562)scale(0.1 -0.1)">
      <use xlink:href="#DejaVuSans-67"/>
      <use x="63.476562" xlink:href="#DejaVuSans-6f"/>
      <use x="124.658203" xlink:href="#DejaVuSans-61"/>
      <use x="185.9375" xlink:href="#DejaVuSans-6c"/>
     </g>
    </g>
    <g id="patch_10">
     <path d="M 1518.864063 218.754688 
L 1538.864063 218.754688 
L 1538.864063 211.754688 
L 1518.864063 211.754688 
z
" style="opacity:0.3;"/>
    </g>
    <g id="text_23">
     <!-- NULL motion -->
     <defs>
      <path d="M 9.8125 72.90625 
L 23.09375 72.90625 
L 55.421875 11.921875 
L 55.421875 72.90625 
L 64.984375 72.90625 
L 64.984375 0 
L 51.703125 0 
L 19.390625 60.984375 
L 19.390625 0 
L 9.8125 0 
z
" id="DejaVuSans-4e"/>
      <path d="M 8.6875 72.90625 
L 18.609375 72.90625 
L 18.609375 28.609375 
Q 18.609375 16.890625 22.84375 11.734375 
Q 27.09375 6.59375 36.625 6.59375 
Q 46.09375 6.59375 50.34375 11.734375 
Q 54.59375 16.890625 54.59375 28.609375 
L 54.59375 72.90625 
L 64.5 72.90625 
L 64.5 27.390625 
Q 64.5 13.140625 57.4375 5.859375 
Q 50.390625 -1.421875 36.625 -1.421875 
Q 22.796875 -1.421875 15.734375 5.859375 
Q 8.6875 13.140625 8.6875 27.390625 
z
" id="DejaVuSans-55"/>
      <path d="M 9.8125 72.90625 
L 19.671875 72.90625 
L 19.671875 8.296875 
L 55.171875 8.296875 
L 55.171875 0 
L 9.8125 0 
z
" id="DejaVuSans-4c"/>
      <path d="M 52 44.1875 
Q 55.375 50.25 60.0625 53.125 
Q 64.75 56 71.09375 56 
Q 79.640625 56 84.28125 50.015625 
Q 88.921875 44.046875 88.921875 33.015625 
L 88.921875 0 
L 79.890625 0 
L 79.890625 32.71875 
Q 79.890625 40.578125 77.09375 44.375 
Q 74.3125 48.1875 68.609375 48.1875 
Q 61.625 48.1875 57.5625 43.546875 
Q 53.515625 38.921875 53.515625 30.90625 
L 53.515625 0 
L 44.484375 0 
L 44.484375 32.71875 
Q 44.484375 40.625 41.703125 44.40625 
Q 38.921875 48.1875 33.109375 48.1875 
Q 26.21875 48.1875 22.15625 43.53125 
Q 18.109375 38.875 18.109375 30.90625 
L 18.109375 0 
L 9.078125 0 
L 9.078125 54.6875 
L 18.109375 54.6875 
L 18.109375 46.1875 
Q 21.1875 51.21875 25.484375 53.609375 
Q 29.78125 56 35.6875 56 
Q 41.65625 56 45.828125 52.96875 
Q 50 49.953125 52 44.1875 
z
" id="DejaVuSans-6d"/>
     </defs>
     <g transform="translate(1546.864063 218.754688)scale(0.1 -0.1)">
      <use xlink:href="#DejaVuSans-4e"/>
      <use x="74.804688" xlink:href="#DejaVuSans-55"/>
      <use x="147.998047" xlink:href="#DejaVuSans-4c"/>
      <use x="203.710938" xlink:href="#DejaVuSans-4c"/>
      <use x="259.423828" xlink:href="#DejaVuSans-20"/>
      <use x="291.210938" xlink:href="#DejaVuSans-6d"/>
      <use x="388.623047" xlink:href="#DejaVuSans-6f"/>
      <use x="449.804688" xlink:href="#DejaVuSans-74"/>
      <use x="489.013672" xlink:href="#DejaVuSans-69"/>
      <use x="516.796875" xlink:href="#DejaVuSans-6f"/>
      <use x="577.978516" xlink:href="#DejaVuSans-6e"/>
     </g>
    </g>
   </g>
  </g>
 </g>
 <defs>
  <clipPath id="pd5427612f5">
   <rect height="1108.8" width="1395" x="225" y="172.8"/>
  </clipPath>
 </defs>
</svg>
