<?xml version="1.0" encoding="utf-8" standalone="no"?>
<!DOCTYPE svg PUBLIC "-//W3C//DTD SVG 1.1//EN"
  "http://www.w3.org/Graphics/SVG/1.1/DTD/svg11.dtd">
<!-- Created with matplotlib (http://matplotlib.org/) -->
<svg height="1440pt" version="1.1" viewBox="0 0 1800 1440" width="1800pt" xmlns="http://www.w3.org/2000/svg" xmlns:xlink="http://www.w3.org/1999/xlink">
 <defs>
  <style type="text/css">
*{stroke-linecap:butt;stroke-linejoin:round;}
  </style>
 </defs>
 <g id="figure_1">
  <g id="patch_1">
   <path d="M 0 1440 
L 1800 1440 
L 1800 0 
L 0 0 
z
" style="fill:#ffffff;"/>
  </g>
  <g id="axes_1">
   <g id="patch_2">
    <path d="M 225 1281.6 
L 1620 1281.6 
L 1620 172.8 
L 225 172.8 
z
" style="fill:#ffffff;"/>
   </g>
   <g id="matplotlib.axis_1">
    <g id="xtick_1">
     <g id="line2d_1">
      <path clip-path="url(#p0074ab6e08)" d="M 288.409091 1281.6 
L 288.409091 172.8 
" style="fill:none;stroke:#b0b0b0;stroke-linecap:square;stroke-width:0.8;"/>
     </g>
     <g id="line2d_2">
      <defs>
       <path d="M 0 0 
L 0 3.5 
" id="m5be91f272e" style="stroke:#000000;stroke-width:0.8;"/>
      </defs>
      <g>
       <use style="stroke:#000000;stroke-width:0.8;" x="288.409091" xlink:href="#m5be91f272e" y="1281.6"/>
      </g>
     </g>
     <g id="text_1">
      <!-- 0 -->
      <defs>
       <path d="M 31.78125 66.40625 
Q 24.171875 66.40625 20.328125 58.90625 
Q 16.5 51.421875 16.5 36.375 
Q 16.5 21.390625 20.328125 13.890625 
Q 24.171875 6.390625 31.78125 6.390625 
Q 39.453125 6.390625 43.28125 13.890625 
Q 47.125 21.390625 47.125 36.375 
Q 47.125 51.421875 43.28125 58.90625 
Q 39.453125 66.40625 31.78125 66.40625 
z
M 31.78125 74.21875 
Q 44.046875 74.21875 50.515625 64.515625 
Q 56.984375 54.828125 56.984375 36.375 
Q 56.984375 17.96875 50.515625 8.265625 
Q 44.046875 -1.421875 31.78125 -1.421875 
Q 19.53125 -1.421875 13.0625 8.265625 
Q 6.59375 17.96875 6.59375 36.375 
Q 6.59375 54.828125 13.0625 64.515625 
Q 19.53125 74.21875 31.78125 74.21875 
z
" id="DejaVuSans-30"/>
      </defs>
      <g transform="translate(285.227841 1296.198437)scale(0.1 -0.1)">
       <use xlink:href="#DejaVuSans-30"/>
      </g>
     </g>
    </g>
    <g id="xtick_2">
     <g id="line2d_3">
      <path clip-path="url(#p0074ab6e08)" d="M 534.419143 1281.6 
L 534.419143 172.8 
" style="fill:none;stroke:#b0b0b0;stroke-linecap:square;stroke-width:0.8;"/>
     </g>
     <g id="line2d_4">
      <g>
       <use style="stroke:#000000;stroke-width:0.8;" x="534.419143" xlink:href="#m5be91f272e" y="1281.6"/>
      </g>
     </g>
     <g id="text_2">
      <!-- 200 -->
      <defs>
       <path d="M 19.1875 8.296875 
L 53.609375 8.296875 
L 53.609375 0 
L 7.328125 0 
L 7.328125 8.296875 
Q 12.9375 14.109375 22.625 23.890625 
Q 32.328125 33.6875 34.8125 36.53125 
Q 39.546875 41.84375 41.421875 45.53125 
Q 43.3125 49.21875 43.3125 52.78125 
Q 43.3125 58.59375 39.234375 62.25 
Q 35.15625 65.921875 28.609375 65.921875 
Q 23.96875 65.921875 18.8125 64.3125 
Q 13.671875 62.703125 7.8125 59.421875 
L 7.8125 69.390625 
Q 13.765625 71.78125 18.9375 73 
Q 24.125 74.21875 28.421875 74.21875 
Q 39.75 74.21875 46.484375 68.546875 
Q 53.21875 62.890625 53.21875 53.421875 
Q 53.21875 48.921875 51.53125 44.890625 
Q 49.859375 40.875 45.40625 35.40625 
Q 44.1875 33.984375 37.640625 27.21875 
Q 31.109375 20.453125 19.1875 8.296875 
z
" id="DejaVuSans-32"/>
      </defs>
      <g transform="translate(524.875393 1296.198437)scale(0.1 -0.1)">
       <use xlink:href="#DejaVuSans-32"/>
       <use x="63.623047" xlink:href="#DejaVuSans-30"/>
       <use x="127.246094" xlink:href="#DejaVuSans-30"/>
      </g>
     </g>
    </g>
    <g id="xtick_3">
     <g id="line2d_5">
      <path clip-path="url(#p0074ab6e08)" d="M 780.429195 1281.6 
L 780.429195 172.8 
" style="fill:none;stroke:#b0b0b0;stroke-linecap:square;stroke-width:0.8;"/>
     </g>
     <g id="line2d_6">
      <g>
       <use style="stroke:#000000;stroke-width:0.8;" x="780.429195" xlink:href="#m5be91f272e" y="1281.6"/>
      </g>
     </g>
     <g id="text_3">
      <!-- 400 -->
      <defs>
       <path d="M 37.796875 64.3125 
L 12.890625 25.390625 
L 37.796875 25.390625 
z
M 35.203125 72.90625 
L 47.609375 72.90625 
L 47.609375 25.390625 
L 58.015625 25.390625 
L 58.015625 17.1875 
L 47.609375 17.1875 
L 47.609375 0 
L 37.796875 0 
L 37.796875 17.1875 
L 4.890625 17.1875 
L 4.890625 26.703125 
z
" id="DejaVuSans-34"/>
      </defs>
      <g transform="translate(770.885445 1296.198437)scale(0.1 -0.1)">
       <use xlink:href="#DejaVuSans-34"/>
       <use x="63.623047" xlink:href="#DejaVuSans-30"/>
       <use x="127.246094" xlink:href="#DejaVuSans-30"/>
      </g>
     </g>
    </g>
    <g id="xtick_4">
     <g id="line2d_7">
      <path clip-path="url(#p0074ab6e08)" d="M 1026.439247 1281.6 
L 1026.439247 172.8 
" style="fill:none;stroke:#b0b0b0;stroke-linecap:square;stroke-width:0.8;"/>
     </g>
     <g id="line2d_8">
      <g>
       <use style="stroke:#000000;stroke-width:0.8;" x="1026.439247" xlink:href="#m5be91f272e" y="1281.6"/>
      </g>
     </g>
     <g id="text_4">
      <!-- 600 -->
      <defs>
       <path d="M 33.015625 40.375 
Q 26.375 40.375 22.484375 35.828125 
Q 18.609375 31.296875 18.609375 23.390625 
Q 18.609375 15.53125 22.484375 10.953125 
Q 26.375 6.390625 33.015625 6.390625 
Q 39.65625 6.390625 43.53125 10.953125 
Q 47.40625 15.53125 47.40625 23.390625 
Q 47.40625 31.296875 43.53125 35.828125 
Q 39.65625 40.375 33.015625 40.375 
z
M 52.59375 71.296875 
L 52.59375 62.3125 
Q 48.875 64.0625 45.09375 64.984375 
Q 41.3125 65.921875 37.59375 65.921875 
Q 27.828125 65.921875 22.671875 59.328125 
Q 17.53125 52.734375 16.796875 39.40625 
Q 19.671875 43.65625 24.015625 45.921875 
Q 28.375 48.1875 33.59375 48.1875 
Q 44.578125 48.1875 50.953125 41.515625 
Q 57.328125 34.859375 57.328125 23.390625 
Q 57.328125 12.15625 50.6875 5.359375 
Q 44.046875 -1.421875 33.015625 -1.421875 
Q 20.359375 -1.421875 13.671875 8.265625 
Q 6.984375 17.96875 6.984375 36.375 
Q 6.984375 53.65625 15.1875 63.9375 
Q 23.390625 74.21875 37.203125 74.21875 
Q 40.921875 74.21875 44.703125 73.484375 
Q 48.484375 72.75 52.59375 71.296875 
z
" id="DejaVuSans-36"/>
      </defs>
      <g transform="translate(1016.895497 1296.198437)scale(0.1 -0.1)">
       <use xlink:href="#DejaVuSans-36"/>
       <use x="63.623047" xlink:href="#DejaVuSans-30"/>
       <use x="127.246094" xlink:href="#DejaVuSans-30"/>
      </g>
     </g>
    </g>
    <g id="xtick_5">
     <g id="line2d_9">
      <path clip-path="url(#p0074ab6e08)" d="M 1272.449299 1281.6 
L 1272.449299 172.8 
" style="fill:none;stroke:#b0b0b0;stroke-linecap:square;stroke-width:0.8;"/>
     </g>
     <g id="line2d_10">
      <g>
       <use style="stroke:#000000;stroke-width:0.8;" x="1272.449299" xlink:href="#m5be91f272e" y="1281.6"/>
      </g>
     </g>
     <g id="text_5">
      <!-- 800 -->
      <defs>
       <path d="M 31.78125 34.625 
Q 24.75 34.625 20.71875 30.859375 
Q 16.703125 27.09375 16.703125 20.515625 
Q 16.703125 13.921875 20.71875 10.15625 
Q 24.75 6.390625 31.78125 6.390625 
Q 38.8125 6.390625 42.859375 10.171875 
Q 46.921875 13.96875 46.921875 20.515625 
Q 46.921875 27.09375 42.890625 30.859375 
Q 38.875 34.625 31.78125 34.625 
z
M 21.921875 38.8125 
Q 15.578125 40.375 12.03125 44.71875 
Q 8.5 49.078125 8.5 55.328125 
Q 8.5 64.0625 14.71875 69.140625 
Q 20.953125 74.21875 31.78125 74.21875 
Q 42.671875 74.21875 48.875 69.140625 
Q 55.078125 64.0625 55.078125 55.328125 
Q 55.078125 49.078125 51.53125 44.71875 
Q 48 40.375 41.703125 38.8125 
Q 48.828125 37.15625 52.796875 32.3125 
Q 56.78125 27.484375 56.78125 20.515625 
Q 56.78125 9.90625 50.3125 4.234375 
Q 43.84375 -1.421875 31.78125 -1.421875 
Q 19.734375 -1.421875 13.25 4.234375 
Q 6.78125 9.90625 6.78125 20.515625 
Q 6.78125 27.484375 10.78125 32.3125 
Q 14.796875 37.15625 21.921875 38.8125 
z
M 18.3125 54.390625 
Q 18.3125 48.734375 21.84375 45.5625 
Q 25.390625 42.390625 31.78125 42.390625 
Q 38.140625 42.390625 41.71875 45.5625 
Q 45.3125 48.734375 45.3125 54.390625 
Q 45.3125 60.0625 41.71875 63.234375 
Q 38.140625 66.40625 31.78125 66.40625 
Q 25.390625 66.40625 21.84375 63.234375 
Q 18.3125 60.0625 18.3125 54.390625 
z
" id="DejaVuSans-38"/>
      </defs>
      <g transform="translate(1262.905549 1296.198437)scale(0.1 -0.1)">
       <use xlink:href="#DejaVuSans-38"/>
       <use x="63.623047" xlink:href="#DejaVuSans-30"/>
       <use x="127.246094" xlink:href="#DejaVuSans-30"/>
      </g>
     </g>
    </g>
    <g id="xtick_6">
     <g id="line2d_11">
      <path clip-path="url(#p0074ab6e08)" d="M 1518.459351 1281.6 
L 1518.459351 172.8 
" style="fill:none;stroke:#b0b0b0;stroke-linecap:square;stroke-width:0.8;"/>
     </g>
     <g id="line2d_12">
      <g>
       <use style="stroke:#000000;stroke-width:0.8;" x="1518.459351" xlink:href="#m5be91f272e" y="1281.6"/>
      </g>
     </g>
     <g id="text_6">
      <!-- 1000 -->
      <defs>
       <path d="M 12.40625 8.296875 
L 28.515625 8.296875 
L 28.515625 63.921875 
L 10.984375 60.40625 
L 10.984375 69.390625 
L 28.421875 72.90625 
L 38.28125 72.90625 
L 38.28125 8.296875 
L 54.390625 8.296875 
L 54.390625 0 
L 12.40625 0 
z
" id="DejaVuSans-31"/>
      </defs>
      <g transform="translate(1505.734351 1296.198437)scale(0.1 -0.1)">
       <use xlink:href="#DejaVuSans-31"/>
       <use x="63.623047" xlink:href="#DejaVuSans-30"/>
       <use x="127.246094" xlink:href="#DejaVuSans-30"/>
       <use x="190.869141" xlink:href="#DejaVuSans-30"/>
      </g>
     </g>
    </g>
   </g>
   <g id="matplotlib.axis_2">
    <g id="ytick_1">
     <g id="line2d_13">
      <path clip-path="url(#p0074ab6e08)" d="M 225 1281.6 
L 1620 1281.6 
" style="fill:none;stroke:#b0b0b0;stroke-linecap:square;stroke-width:0.8;"/>
     </g>
     <g id="line2d_14">
      <defs>
       <path d="M 0 0 
L -3.5 0 
" id="md487f4e297" style="stroke:#000000;stroke-width:0.8;"/>
      </defs>
      <g>
       <use style="stroke:#000000;stroke-width:0.8;" x="225" xlink:href="#md487f4e297" y="1281.6"/>
      </g>
     </g>
     <g id="text_7">
      <!-- −0.09501 -->
      <defs>
       <path d="M 10.59375 35.5 
L 73.1875 35.5 
L 73.1875 27.203125 
L 10.59375 27.203125 
z
" id="DejaVuSans-2212"/>
       <path d="M 10.6875 12.40625 
L 21 12.40625 
L 21 0 
L 10.6875 0 
z
" id="DejaVuSans-2e"/>
       <path d="M 10.984375 1.515625 
L 10.984375 10.5 
Q 14.703125 8.734375 18.5 7.8125 
Q 22.3125 6.890625 25.984375 6.890625 
Q 35.75 6.890625 40.890625 13.453125 
Q 46.046875 20.015625 46.78125 33.40625 
Q 43.953125 29.203125 39.59375 26.953125 
Q 35.25 24.703125 29.984375 24.703125 
Q 19.046875 24.703125 12.671875 31.3125 
Q 6.296875 37.9375 6.296875 49.421875 
Q 6.296875 60.640625 12.9375 67.421875 
Q 19.578125 74.21875 30.609375 74.21875 
Q 43.265625 74.21875 49.921875 64.515625 
Q 56.59375 54.828125 56.59375 36.375 
Q 56.59375 19.140625 48.40625 8.859375 
Q 40.234375 -1.421875 26.421875 -1.421875 
Q 22.703125 -1.421875 18.890625 -0.6875 
Q 15.09375 0.046875 10.984375 1.515625 
z
M 30.609375 32.421875 
Q 37.25 32.421875 41.125 36.953125 
Q 45.015625 41.5 45.015625 49.421875 
Q 45.015625 57.28125 41.125 61.84375 
Q 37.25 66.40625 30.609375 66.40625 
Q 23.96875 66.40625 20.09375 61.84375 
Q 16.21875 57.28125 16.21875 49.421875 
Q 16.21875 41.5 20.09375 36.953125 
Q 23.96875 32.421875 30.609375 32.421875 
z
" id="DejaVuSans-39"/>
       <path d="M 10.796875 72.90625 
L 49.515625 72.90625 
L 49.515625 64.59375 
L 19.828125 64.59375 
L 19.828125 46.734375 
Q 21.96875 47.46875 24.109375 47.828125 
Q 26.265625 48.1875 28.421875 48.1875 
Q 40.625 48.1875 47.75 41.5 
Q 54.890625 34.8125 54.890625 23.390625 
Q 54.890625 11.625 47.5625 5.09375 
Q 40.234375 -1.421875 26.90625 -1.421875 
Q 22.3125 -1.421875 17.546875 -0.640625 
Q 12.796875 0.140625 7.71875 1.703125 
L 7.71875 11.625 
Q 12.109375 9.234375 16.796875 8.0625 
Q 21.484375 6.890625 26.703125 6.890625 
Q 35.15625 6.890625 40.078125 11.328125 
Q 45.015625 15.765625 45.015625 23.390625 
Q 45.015625 31 40.078125 35.4375 
Q 35.15625 39.890625 26.703125 39.890625 
Q 22.75 39.890625 18.8125 39.015625 
Q 14.890625 38.140625 10.796875 36.28125 
z
" id="DejaVuSans-35"/>
      </defs>
      <g transform="translate(168.267188 1285.399219)scale(0.1 -0.1)">
       <use xlink:href="#DejaVuSans-2212"/>
       <use x="83.789062" xlink:href="#DejaVuSans-30"/>
       <use x="147.412109" xlink:href="#DejaVuSans-2e"/>
       <use x="179.199219" xlink:href="#DejaVuSans-30"/>
       <use x="242.822266" xlink:href="#DejaVuSans-39"/>
       <use x="306.445312" xlink:href="#DejaVuSans-35"/>
       <use x="370.068359" xlink:href="#DejaVuSans-30"/>
       <use x="433.691406" xlink:href="#DejaVuSans-31"/>
      </g>
     </g>
    </g>
    <g id="ytick_2">
     <g id="line2d_15">
      <path clip-path="url(#p0074ab6e08)" d="M 225 1170.202057 
L 1620 1170.202057 
" style="fill:none;stroke:#b0b0b0;stroke-linecap:square;stroke-width:0.8;"/>
     </g>
     <g id="line2d_16">
      <g>
       <use style="stroke:#000000;stroke-width:0.8;" x="225" xlink:href="#md487f4e297" y="1170.202057"/>
      </g>
     </g>
     <g id="text_8">
      <!-- −0.08501 -->
      <g transform="translate(168.267188 1174.001276)scale(0.1 -0.1)">
       <use xlink:href="#DejaVuSans-2212"/>
       <use x="83.789062" xlink:href="#DejaVuSans-30"/>
       <use x="147.412109" xlink:href="#DejaVuSans-2e"/>
       <use x="179.199219" xlink:href="#DejaVuSans-30"/>
       <use x="242.822266" xlink:href="#DejaVuSans-38"/>
       <use x="306.445312" xlink:href="#DejaVuSans-35"/>
       <use x="370.068359" xlink:href="#DejaVuSans-30"/>
       <use x="433.691406" xlink:href="#DejaVuSans-31"/>
      </g>
     </g>
    </g>
    <g id="ytick_3">
     <g id="line2d_17">
      <path clip-path="url(#p0074ab6e08)" d="M 225 1058.804114 
L 1620 1058.804114 
" style="fill:none;stroke:#b0b0b0;stroke-linecap:square;stroke-width:0.8;"/>
     </g>
     <g id="line2d_18">
      <g>
       <use style="stroke:#000000;stroke-width:0.8;" x="225" xlink:href="#md487f4e297" y="1058.804114"/>
      </g>
     </g>
     <g id="text_9">
      <!-- −0.07501 -->
      <defs>
       <path d="M 8.203125 72.90625 
L 55.078125 72.90625 
L 55.078125 68.703125 
L 28.609375 0 
L 18.3125 0 
L 43.21875 64.59375 
L 8.203125 64.59375 
z
" id="DejaVuSans-37"/>
      </defs>
      <g transform="translate(168.267188 1062.603332)scale(0.1 -0.1)">
       <use xlink:href="#DejaVuSans-2212"/>
       <use x="83.789062" xlink:href="#DejaVuSans-30"/>
       <use x="147.412109" xlink:href="#DejaVuSans-2e"/>
       <use x="179.199219" xlink:href="#DejaVuSans-30"/>
       <use x="242.822266" xlink:href="#DejaVuSans-37"/>
       <use x="306.445312" xlink:href="#DejaVuSans-35"/>
       <use x="370.068359" xlink:href="#DejaVuSans-30"/>
       <use x="433.691406" xlink:href="#DejaVuSans-31"/>
      </g>
     </g>
    </g>
    <g id="ytick_4">
     <g id="line2d_19">
      <path clip-path="url(#p0074ab6e08)" d="M 225 947.406171 
L 1620 947.406171 
" style="fill:none;stroke:#b0b0b0;stroke-linecap:square;stroke-width:0.8;"/>
     </g>
     <g id="line2d_20">
      <g>
       <use style="stroke:#000000;stroke-width:0.8;" x="225" xlink:href="#md487f4e297" y="947.406171"/>
      </g>
     </g>
     <g id="text_10">
      <!-- −0.06501 -->
      <g transform="translate(168.267188 951.205389)scale(0.1 -0.1)">
       <use xlink:href="#DejaVuSans-2212"/>
       <use x="83.789062" xlink:href="#DejaVuSans-30"/>
       <use x="147.412109" xlink:href="#DejaVuSans-2e"/>
       <use x="179.199219" xlink:href="#DejaVuSans-30"/>
       <use x="242.822266" xlink:href="#DejaVuSans-36"/>
       <use x="306.445312" xlink:href="#DejaVuSans-35"/>
       <use x="370.068359" xlink:href="#DejaVuSans-30"/>
       <use x="433.691406" xlink:href="#DejaVuSans-31"/>
      </g>
     </g>
    </g>
    <g id="ytick_5">
     <g id="line2d_21">
      <path clip-path="url(#p0074ab6e08)" d="M 225 836.008227 
L 1620 836.008227 
" style="fill:none;stroke:#b0b0b0;stroke-linecap:square;stroke-width:0.8;"/>
     </g>
     <g id="line2d_22">
      <g>
       <use style="stroke:#000000;stroke-width:0.8;" x="225" xlink:href="#md487f4e297" y="836.008227"/>
      </g>
     </g>
     <g id="text_11">
      <!-- −0.05501 -->
      <g transform="translate(168.267188 839.807446)scale(0.1 -0.1)">
       <use xlink:href="#DejaVuSans-2212"/>
       <use x="83.789062" xlink:href="#DejaVuSans-30"/>
       <use x="147.412109" xlink:href="#DejaVuSans-2e"/>
       <use x="179.199219" xlink:href="#DejaVuSans-30"/>
       <use x="242.822266" xlink:href="#DejaVuSans-35"/>
       <use x="306.445312" xlink:href="#DejaVuSans-35"/>
       <use x="370.068359" xlink:href="#DejaVuSans-30"/>
       <use x="433.691406" xlink:href="#DejaVuSans-31"/>
      </g>
     </g>
    </g>
    <g id="ytick_6">
     <g id="line2d_23">
      <path clip-path="url(#p0074ab6e08)" d="M 225 724.610284 
L 1620 724.610284 
" style="fill:none;stroke:#b0b0b0;stroke-linecap:square;stroke-width:0.8;"/>
     </g>
     <g id="line2d_24">
      <g>
       <use style="stroke:#000000;stroke-width:0.8;" x="225" xlink:href="#md487f4e297" y="724.610284"/>
      </g>
     </g>
     <g id="text_12">
      <!-- −0.04501 -->
      <g transform="translate(168.267188 728.409503)scale(0.1 -0.1)">
       <use xlink:href="#DejaVuSans-2212"/>
       <use x="83.789062" xlink:href="#DejaVuSans-30"/>
       <use x="147.412109" xlink:href="#DejaVuSans-2e"/>
       <use x="179.199219" xlink:href="#DejaVuSans-30"/>
       <use x="242.822266" xlink:href="#DejaVuSans-34"/>
       <use x="306.445312" xlink:href="#DejaVuSans-35"/>
       <use x="370.068359" xlink:href="#DejaVuSans-30"/>
       <use x="433.691406" xlink:href="#DejaVuSans-31"/>
      </g>
     </g>
    </g>
    <g id="ytick_7">
     <g id="line2d_25">
      <path clip-path="url(#p0074ab6e08)" d="M 225 613.212341 
L 1620 613.212341 
" style="fill:none;stroke:#b0b0b0;stroke-linecap:square;stroke-width:0.8;"/>
     </g>
     <g id="line2d_26">
      <g>
       <use style="stroke:#000000;stroke-width:0.8;" x="225" xlink:href="#md487f4e297" y="613.212341"/>
      </g>
     </g>
     <g id="text_13">
      <!-- −0.03501 -->
      <defs>
       <path d="M 40.578125 39.3125 
Q 47.65625 37.796875 51.625 33 
Q 55.609375 28.21875 55.609375 21.1875 
Q 55.609375 10.40625 48.1875 4.484375 
Q 40.765625 -1.421875 27.09375 -1.421875 
Q 22.515625 -1.421875 17.65625 -0.515625 
Q 12.796875 0.390625 7.625 2.203125 
L 7.625 11.71875 
Q 11.71875 9.328125 16.59375 8.109375 
Q 21.484375 6.890625 26.8125 6.890625 
Q 36.078125 6.890625 40.9375 10.546875 
Q 45.796875 14.203125 45.796875 21.1875 
Q 45.796875 27.640625 41.28125 31.265625 
Q 36.765625 34.90625 28.71875 34.90625 
L 20.21875 34.90625 
L 20.21875 43.015625 
L 29.109375 43.015625 
Q 36.375 43.015625 40.234375 45.921875 
Q 44.09375 48.828125 44.09375 54.296875 
Q 44.09375 59.90625 40.109375 62.90625 
Q 36.140625 65.921875 28.71875 65.921875 
Q 24.65625 65.921875 20.015625 65.03125 
Q 15.375 64.15625 9.8125 62.3125 
L 9.8125 71.09375 
Q 15.4375 72.65625 20.34375 73.4375 
Q 25.25 74.21875 29.59375 74.21875 
Q 40.828125 74.21875 47.359375 69.109375 
Q 53.90625 64.015625 53.90625 55.328125 
Q 53.90625 49.265625 50.4375 45.09375 
Q 46.96875 40.921875 40.578125 39.3125 
z
" id="DejaVuSans-33"/>
      </defs>
      <g transform="translate(168.267188 617.01156)scale(0.1 -0.1)">
       <use xlink:href="#DejaVuSans-2212"/>
       <use x="83.789062" xlink:href="#DejaVuSans-30"/>
       <use x="147.412109" xlink:href="#DejaVuSans-2e"/>
       <use x="179.199219" xlink:href="#DejaVuSans-30"/>
       <use x="242.822266" xlink:href="#DejaVuSans-33"/>
       <use x="306.445312" xlink:href="#DejaVuSans-35"/>
       <use x="370.068359" xlink:href="#DejaVuSans-30"/>
       <use x="433.691406" xlink:href="#DejaVuSans-31"/>
      </g>
     </g>
    </g>
    <g id="ytick_8">
     <g id="line2d_27">
      <path clip-path="url(#p0074ab6e08)" d="M 225 501.814398 
L 1620 501.814398 
" style="fill:none;stroke:#b0b0b0;stroke-linecap:square;stroke-width:0.8;"/>
     </g>
     <g id="line2d_28">
      <g>
       <use style="stroke:#000000;stroke-width:0.8;" x="225" xlink:href="#md487f4e297" y="501.814398"/>
      </g>
     </g>
     <g id="text_14">
      <!-- −0.02501 -->
      <g transform="translate(168.267188 505.613617)scale(0.1 -0.1)">
       <use xlink:href="#DejaVuSans-2212"/>
       <use x="83.789062" xlink:href="#DejaVuSans-30"/>
       <use x="147.412109" xlink:href="#DejaVuSans-2e"/>
       <use x="179.199219" xlink:href="#DejaVuSans-30"/>
       <use x="242.822266" xlink:href="#DejaVuSans-32"/>
       <use x="306.445312" xlink:href="#DejaVuSans-35"/>
       <use x="370.068359" xlink:href="#DejaVuSans-30"/>
       <use x="433.691406" xlink:href="#DejaVuSans-31"/>
      </g>
     </g>
    </g>
    <g id="ytick_9">
     <g id="line2d_29">
      <path clip-path="url(#p0074ab6e08)" d="M 225 390.416455 
L 1620 390.416455 
" style="fill:none;stroke:#b0b0b0;stroke-linecap:square;stroke-width:0.8;"/>
     </g>
     <g id="line2d_30">
      <g>
       <use style="stroke:#000000;stroke-width:0.8;" x="225" xlink:href="#md487f4e297" y="390.416455"/>
      </g>
     </g>
     <g id="text_15">
      <!-- −0.01501 -->
      <g transform="translate(168.267188 394.215673)scale(0.1 -0.1)">
       <use xlink:href="#DejaVuSans-2212"/>
       <use x="83.789062" xlink:href="#DejaVuSans-30"/>
       <use x="147.412109" xlink:href="#DejaVuSans-2e"/>
       <use x="179.199219" xlink:href="#DejaVuSans-30"/>
       <use x="242.822266" xlink:href="#DejaVuSans-31"/>
       <use x="306.445312" xlink:href="#DejaVuSans-35"/>
       <use x="370.068359" xlink:href="#DejaVuSans-30"/>
       <use x="433.691406" xlink:href="#DejaVuSans-31"/>
      </g>
     </g>
    </g>
    <g id="ytick_10">
     <g id="line2d_31">
      <path clip-path="url(#p0074ab6e08)" d="M 225 279.018512 
L 1620 279.018512 
" style="fill:none;stroke:#b0b0b0;stroke-linecap:square;stroke-width:0.8;"/>
     </g>
     <g id="line2d_32">
      <g>
       <use style="stroke:#000000;stroke-width:0.8;" x="225" xlink:href="#md487f4e297" y="279.018512"/>
      </g>
     </g>
     <g id="text_16">
      <!-- −0.00501 -->
      <g transform="translate(168.267188 282.81773)scale(0.1 -0.1)">
       <use xlink:href="#DejaVuSans-2212"/>
       <use x="83.789062" xlink:href="#DejaVuSans-30"/>
       <use x="147.412109" xlink:href="#DejaVuSans-2e"/>
       <use x="179.199219" xlink:href="#DejaVuSans-30"/>
       <use x="242.822266" xlink:href="#DejaVuSans-30"/>
       <use x="306.445312" xlink:href="#DejaVuSans-35"/>
       <use x="370.068359" xlink:href="#DejaVuSans-30"/>
       <use x="433.691406" xlink:href="#DejaVuSans-31"/>
      </g>
     </g>
    </g>
   </g>
   <g id="patch_3">
    <path clip-path="url(#p0074ab6e08)" d="M 288.409091 1281.6 
L 1557.820959 1281.6 
L 1557.820959 172.8 
L 288.409091 172.8 
z
" style="opacity:0.3;"/>
   </g>
   <g id="line2d_33">
    <path clip-path="url(#p0074ab6e08)" d="M 288.409091 1051.276299 
L 289.639141 1051.276299 
L 290.869191 1113.18665 
L 292.099242 1113.18665 
L 293.329292 1021.083653 
L 294.559342 1021.083653 
L 295.789392 1087.243804 
L 297.019443 1087.243804 
L 298.249493 1067.598313 
L 299.479543 1104.964258 
L 300.709594 1104.964258 
L 301.939644 1044.114394 
L 303.169694 1044.114394 
L 304.399744 1064.023591 
L 305.629795 1064.023591 
L 306.859845 1053.455061 
L 308.089895 1053.455061 
L 309.319945 1058.083816 
L 310.549996 1106.016631 
L 311.780046 1106.016631 
L 313.010096 1070.559854 
L 314.240146 1070.559854 
L 315.470197 1087.867234 
L 316.700247 1087.867234 
L 317.930297 1112.423762 
L 319.160347 1112.423762 
L 320.390398 1091.235588 
L 321.620448 1108.57412 
L 322.850498 1108.57412 
L 324.080548 1104.020264 
L 325.310599 1104.020264 
L 326.540649 1078.385482 
L 327.770699 1078.385482 
L 329.000749 1056.151676 
L 330.2308 1056.151676 
L 331.46085 1072.055632 
L 332.6909 1072.055632 
L 333.920951 1071.356227 
L 335.151001 1071.356227 
L 336.381051 1049.108014 
L 337.611101 1092.898777 
L 338.841152 1092.898777 
L 340.071202 1075.838683 
L 341.301252 1075.838683 
L 342.531302 1057.868126 
L 343.761353 1057.868126 
L 344.991403 1064.290604 
L 346.221453 1064.290604 
L 347.451503 1124.608995 
L 348.681554 1071.364283 
L 349.911604 1071.364283 
L 351.141654 1075.295738 
L 352.371704 1075.295738 
L 353.601755 1030.941909 
L 354.831805 1030.941909 
L 356.061855 1068.339824 
L 357.291905 1122.449573 
L 358.521956 1122.449573 
L 359.752006 1081.732681 
L 360.982056 1081.732681 
L 362.212107 1051.834094 
L 363.442157 1051.834094 
L 364.672207 1128.30758 
L 365.902257 1128.30758 
L 367.132308 1063.431694 
L 368.362358 1051.278892 
L 369.592408 1051.278892 
L 370.822458 1052.478638 
L 372.052509 1052.478638 
L 373.282559 1062.588084 
L 374.512609 1062.588084 
L 375.742659 984.665239 
L 376.97271 984.665239 
L 378.20276 1019.207284 
L 379.43281 1016.320619 
L 380.66286 1016.320619 
L 381.892911 1068.760268 
L 383.122961 1068.760268 
L 384.353011 1148.489909 
L 385.583061 1148.489909 
L 386.813112 1130.372522 
L 388.043162 1130.372522 
L 389.273212 1039.35452 
L 390.503262 1100.849174 
L 391.733313 1100.849174 
L 392.963363 1151.254055 
L 394.193413 1151.254055 
L 395.423464 1093.451859 
L 396.653514 1093.451859 
L 397.883564 1138.521197 
L 399.113614 1048.746635 
L 400.343665 1048.746635 
L 401.573715 1067.076379 
L 402.803765 1067.076379 
L 404.033815 1073.439139 
L 405.263866 1073.439139 
L 406.493916 1076.493617 
L 407.723966 1076.493617 
L 408.954016 1058.418917 
L 410.184067 1037.281145 
L 411.414117 1037.281145 
L 412.644167 1109.535921 
L 413.874217 1109.535921 
L 415.104268 1025.326207 
L 416.334318 1025.326207 
L 417.564368 1059.313035 
L 418.794418 1073.561897 
L 420.024469 1073.561897 
L 421.254519 1050.861891 
L 422.484569 1050.861891 
L 423.71462 1025.444005 
L 424.94467 1025.444005 
L 426.17472 1010.834484 
L 427.40477 1010.834484 
L 428.634821 1064.397747 
L 429.864871 1064.397747 
L 431.094921 1100.474092 
L 432.324971 1125.176995 
L 433.555022 1125.176995 
L 434.785072 1107.972656 
L 436.015122 1107.972656 
L 437.245172 1073.316875 
L 438.475223 1073.316875 
L 439.705273 1073.090806 
L 440.935323 1043.252391 
L 442.165373 1043.252391 
L 443.395424 1042.319917 
L 444.625474 1042.319917 
L 445.855524 1055.485839 
L 447.085574 1055.485839 
L 448.315625 1045.706091 
L 449.545675 1069.392078 
L 450.775725 1069.392078 
L 452.005776 1086.617038 
L 453.235826 1086.617038 
L 454.465876 1075.468864 
L 455.695926 1075.468864 
L 456.925977 1000.97837 
L 458.156027 1000.97837 
L 459.386077 1128.269883 
L 460.616127 1128.269883 
L 461.846178 1050.677487 
L 463.076228 1050.677487 
L 464.306278 1066.275693 
L 465.536328 1057.448825 
L 466.766379 1057.448825 
L 467.996429 1037.167339 
L 469.226479 1037.167339 
L 470.456529 1046.313236 
L 471.68658 1046.313236 
L 472.91663 1034.966946 
L 474.14668 1034.966946 
L 475.37673 1115.29054 
L 476.606781 1055.292324 
L 477.836831 1055.292324 
L 479.066881 990.406759 
L 480.296931 990.406759 
L 481.526982 1027.462101 
L 482.757032 1027.462101 
L 483.987082 1107.651205 
L 485.217133 1136.18897 
L 486.447183 1136.18897 
L 487.677233 1004.632452 
L 488.907283 1004.632452 
L 490.137334 1068.231672 
L 491.367384 1068.231672 
L 492.597434 1133.960928 
L 493.827484 1179.618909 
L 495.057535 1179.618909 
L 496.287585 1097.512229 
L 497.517635 1097.512229 
L 498.747685 1107.399892 
L 499.977736 1107.399892 
L 501.207786 1026.319937 
L 502.437836 1026.319937 
L 503.667886 1081.564851 
L 504.897937 1157.554783 
L 506.127987 1157.554783 
L 507.358037 1042.460254 
L 508.588087 1042.460254 
L 509.818138 1023.506344 
L 511.048188 1023.506344 
L 512.278238 1051.840865 
L 513.508289 1089.329047 
L 514.738339 1089.329047 
L 515.968389 1030.5852 
L 517.198439 1009.680343 
L 518.42849 1009.680343 
L 519.65854 1046.2305 
L 520.88859 1046.2305 
L 522.11864 1096.510449 
L 523.348691 1096.510449 
L 524.578741 1041.227426 
L 525.808791 1041.227426 
L 527.038841 1044.971558 
L 528.268892 1044.971558 
L 529.498942 1079.73997 
L 530.728992 1038.851097 
L 531.959042 1038.851097 
L 533.189093 1056.908528 
L 534.419143 1056.908528 
L 535.649193 1071.961235 
L 536.879243 1071.961235 
L 538.109294 1076.790838 
L 539.339344 1076.790838 
L 540.569394 1068.801129 
L 541.799444 1057.064303 
L 543.029495 1057.064303 
L 544.259545 1121.724874 
L 545.489595 1121.724874 
L 546.719646 1090.399926 
L 547.949696 1090.399926 
L 549.179746 984.817414 
L 550.409796 984.817414 
L 551.639847 1018.332945 
L 552.869897 1018.332945 
L 554.099947 984.681205 
L 555.329997 984.681205 
L 556.560048 1043.805508 
L 557.790098 1043.805508 
L 559.020148 1078.101431 
L 560.250198 1116.592483 
L 561.480249 1116.592483 
L 562.710299 1065.883715 
L 563.940349 1065.883715 
L 565.170399 1039.759862 
L 566.40045 1039.759862 
L 567.6305 1078.803447 
L 568.86055 1078.803447 
L 570.0906 1057.137567 
L 571.320651 1057.137567 
L 572.550701 1165.687054 
L 573.780751 1035.583758 
L 575.010802 1035.583758 
L 576.240852 1079.537821 
L 577.470902 1079.537821 
L 578.700952 1010.290703 
L 579.931003 1010.290703 
L 581.161053 1010.974881 
L 582.391103 1010.974881 
L 583.621153 1061.515197 
L 584.851204 1061.515197 
L 586.081254 1032.033865 
L 587.311304 1056.166331 
L 588.541354 1056.166331 
L 589.771405 1038.39136 
L 591.001455 1038.39136 
L 592.231505 1081.098331 
L 593.461555 1081.098331 
L 594.691606 1033.68184 
L 595.921656 1033.68184 
L 597.151706 1055.319959 
L 598.381756 992.148605 
L 599.611807 992.148605 
L 600.841857 1058.696202 
L 602.071907 1058.696202 
L 603.301957 1050.916579 
L 604.532008 1050.916579 
L 605.762058 1047.330793 
L 606.992108 1047.330793 
L 608.222159 1038.6446 
L 609.452209 1043.467816 
L 610.682259 1043.467816 
L 611.912309 1067.519035 
L 613.14236 1067.519035 
L 614.37241 1092.592938 
L 615.60246 1092.592938 
L 616.83251 1031.218282 
L 618.062561 1079.458046 
L 619.292611 1079.458046 
L 620.522661 1099.822227 
L 621.752711 1099.822227 
L 622.982762 1041.707584 
L 624.212812 1047.497362 
L 625.442862 1047.497362 
L 626.672912 1057.961151 
L 627.902963 1057.961151 
L 629.133013 1037.614923 
L 630.363063 1037.614923 
L 631.593113 1031.82463 
L 632.823164 1031.82463 
L 635.283264 1073.759383 
L 636.513315 1073.759383 
L 637.743365 1086.805916 
L 638.973415 1086.805916 
L 640.203465 1033.301666 
L 641.433516 1033.301666 
L 642.663566 1050.931521 
L 643.893616 1050.931521 
L 645.123666 1101.879631 
L 646.353717 1049.752113 
L 647.583767 1049.752113 
L 648.813817 1002.046803 
L 650.043867 1002.046803 
L 651.273918 1073.337802 
L 652.503968 1073.337802 
L 653.734018 1018.967139 
L 654.964068 1047.656062 
L 656.194119 1047.656062 
L 657.424169 1057.956393 
L 658.654219 1057.956393 
L 659.884269 1115.41919 
L 661.11432 1115.41919 
L 662.34437 1048.766023 
L 663.57442 1078.414797 
L 664.804471 1078.414797 
L 666.034521 1033.305534 
L 667.264571 1033.305534 
L 668.494621 982.717718 
L 669.724672 982.717718 
L 670.954722 1012.222781 
L 672.184772 1014.52671 
L 673.414822 1014.52671 
L 674.644873 1057.283896 
L 675.874923 1057.283896 
L 677.104973 1039.480791 
L 678.335023 1039.480791 
L 679.565074 1069.595051 
L 680.795124 1069.595051 
L 682.025174 1055.230448 
L 683.255224 1055.230448 
L 684.485275 997.324781 
L 685.715325 997.324781 
L 686.945375 1050.714294 
L 688.175425 1029.717403 
L 689.405476 1029.717403 
L 690.635526 1082.200333 
L 691.865576 1082.200333 
L 693.095626 1029.444893 
L 694.325677 1029.444893 
L 695.555727 1036.504922 
L 696.785777 1036.504922 
L 698.015828 1066.614392 
L 699.245878 1066.614392 
L 700.475928 1061.975196 
L 701.705978 1050.277899 
L 702.936029 1050.277899 
L 704.166079 1023.620915 
L 705.396129 1023.620915 
L 706.626179 1044.636819 
L 707.85623 1044.636819 
L 709.08628 1044.783129 
L 710.31633 1044.783129 
L 711.54638 1019.305961 
L 712.776431 1080.509438 
L 714.006481 1080.509438 
L 715.236531 1050.089124 
L 716.466581 1050.089124 
L 717.696632 1041.61697 
L 718.926682 1041.61697 
L 720.156732 1074.875658 
L 721.386782 1074.875658 
L 722.616833 1102.58324 
L 723.846883 1102.58324 
L 725.076933 1024.933897 
L 726.306984 1024.933897 
L 727.537034 1082.431201 
L 728.767084 1082.431201 
L 729.997134 1078.360807 
L 731.227185 1078.360807 
L 733.687285 1014.270104 
L 734.917335 1014.270104 
L 736.147386 1035.63069 
L 737.377436 1035.63069 
L 738.607486 994.03551 
L 739.837536 994.03551 
L 741.067587 1092.021637 
L 742.297637 1043.168829 
L 744.757737 1043.168829 
L 745.987788 1076.627015 
L 747.217838 1076.627015 
L 748.447888 1062.463472 
L 749.677938 1062.463472 
L 750.907989 1049.28835 
L 752.138039 1049.28835 
L 753.368089 1059.810345 
L 754.598139 1059.810345 
L 755.82819 1028.873971 
L 757.05824 1040.799912 
L 759.518341 1040.799912 
L 760.748391 1022.23669 
L 761.978441 1022.23669 
L 763.208491 1055.10283 
L 764.438542 1055.10283 
L 765.668592 1112.743518 
L 766.898642 1081.152113 
L 768.128692 1081.152113 
L 769.358743 1083.288002 
L 770.588793 1083.288002 
L 771.818843 1085.202113 
L 773.048893 1085.202113 
L 774.278944 1093.647048 
L 775.508994 1093.647048 
L 776.739044 1119.569199 
L 777.969094 1119.569199 
L 779.199145 1081.922318 
L 780.429195 1070.469042 
L 781.659245 1070.469042 
L 782.889295 989.714231 
L 784.119346 989.714231 
L 785.349396 1054.003826 
L 786.579446 1054.003826 
L 787.809497 1056.820151 
L 789.039547 1056.820151 
L 790.269597 1098.866973 
L 791.499647 1098.866973 
L 792.729698 1063.009073 
L 793.959748 1063.009073 
L 795.189798 1018.034261 
L 796.419848 1018.034261 
L 797.649899 1065.307997 
L 798.879949 1047.718176 
L 800.109999 1047.718176 
L 801.340049 1071.045696 
L 802.5701 1071.045696 
L 803.80015 1057.532578 
L 805.0302 1057.532578 
L 806.26025 1046.314317 
L 807.490301 1046.314317 
L 808.720351 1004.989319 
L 809.950401 1004.989319 
L 811.180451 1083.564006 
L 812.410502 1083.564006 
L 813.640552 1057.332199 
L 814.870602 1057.332199 
L 816.100652 1064.770989 
L 817.330703 1064.770989 
L 818.560753 1076.816508 
L 819.790803 1052.929713 
L 821.020854 1052.929713 
L 822.250904 1082.242194 
L 823.480954 1082.242194 
L 824.711004 1059.048687 
L 825.941055 1059.048687 
L 827.171105 1034.831192 
L 828.401155 1034.831192 
L 829.631205 1021.261747 
L 830.861256 1021.261747 
L 832.091306 1044.768701 
L 833.321356 1044.768701 
L 834.551406 1067.555379 
L 835.781457 1067.555379 
L 837.011507 1059.995668 
L 838.241557 1059.995668 
L 839.471607 1089.303878 
L 840.701658 1089.303878 
L 841.931708 1061.396598 
L 843.161758 1061.396598 
L 844.391808 1088.358678 
L 845.621859 1088.358678 
L 846.851909 1081.556343 
L 850.54206 1081.50737 
L 851.77211 1101.835171 
L 853.00216 1040.20331 
L 854.232211 1040.20331 
L 855.462261 1084.686377 
L 856.692311 1084.686377 
L 857.922361 1062.843734 
L 861.612512 1062.835931 
L 862.842562 1075.871332 
L 864.072613 1075.871332 
L 865.302663 1074.214942 
L 866.532713 1074.214942 
L 867.762763 1134.908558 
L 868.992814 1134.908558 
L 870.222864 1032.595847 
L 872.682964 1032.595847 
L 873.913015 1055.024242 
L 875.143065 1055.024242 
L 876.373115 1064.457293 
L 877.603166 1036.421601 
L 878.833216 1036.421601 
L 880.063266 1039.646625 
L 881.293316 1039.646625 
L 882.523367 1047.529857 
L 883.753417 1047.529857 
L 884.983467 1021.117589 
L 886.213517 1021.117589 
L 887.443568 1074.215543 
L 888.673618 1023.668539 
L 889.903668 1023.668539 
L 891.133718 1073.342499 
L 892.363769 1073.342499 
L 893.593819 1045.472798 
L 894.823869 1045.472798 
L 896.053919 1034.676606 
L 897.28397 1049.332844 
L 898.51402 1049.332844 
L 899.74407 1075.984559 
L 900.97412 1075.984559 
L 902.204171 1037.950126 
L 903.434221 1037.950126 
L 904.664271 1090.681085 
L 905.894321 1090.681085 
L 907.124372 1011.063249 
L 908.354422 1067.510547 
L 909.584472 1067.510547 
L 910.814523 1040.61572 
L 912.044573 1040.61572 
L 913.274623 1019.567611 
L 914.504673 1019.567611 
L 915.734724 1054.811521 
L 916.964774 1054.811521 
L 918.194824 1042.3935 
L 919.424874 1049.8714 
L 920.654925 1049.8714 
L 921.884975 1051.821346 
L 923.115025 1051.821346 
L 924.345075 1060.087102 
L 925.575126 1060.087102 
L 926.805176 1032.331672 
L 928.035226 1032.331672 
L 929.265276 1132.76984 
L 930.495327 1132.76984 
L 931.725377 1096.360219 
L 932.955427 1096.360219 
L 934.185477 1039.056952 
L 935.415528 1039.056952 
L 936.645578 1057.860736 
L 937.875628 1057.860736 
L 939.105679 1061.587184 
L 940.335729 1061.587184 
L 941.565779 1028.733994 
L 942.795829 1028.733994 
L 944.02588 1051.482843 
L 945.25593 1051.482843 
L 946.48598 1045.361461 
L 947.71603 1045.361461 
L 948.946081 992.839355 
L 950.176131 1020.144029 
L 951.406181 1020.144029 
L 952.636231 1062.072638 
L 953.866282 1062.072638 
L 955.096332 1075.161245 
L 956.326382 1075.161245 
L 957.556432 1056.915948 
L 958.786483 1056.915948 
L 960.016533 1052.250675 
L 961.246583 1042.715984 
L 962.476633 1042.715984 
L 963.706684 1034.826336 
L 966.166784 1034.826336 
L 967.396834 1036.848159 
L 968.626885 1036.848159 
L 969.856935 1126.122246 
L 971.086985 1126.122246 
L 972.317036 1070.00359 
L 973.547086 1058.053524 
L 974.777136 1058.053524 
L 976.007186 1036.882323 
L 977.237237 1036.882323 
L 978.467287 1019.455645 
L 979.697337 1019.455645 
L 980.927387 1039.161531 
L 982.157438 1039.161531 
L 983.387488 1079.334264 
L 984.617538 1079.334264 
L 985.847588 1071.616099 
L 987.077639 1071.616099 
L 988.307689 1061.73249 
L 989.537739 1069.969133 
L 990.767789 1069.969133 
L 991.99784 1056.892696 
L 993.22789 1056.892696 
L 994.45794 1092.153142 
L 995.68799 1092.153142 
L 996.918041 1093.785071 
L 998.148091 1093.785071 
L 999.378141 1063.312421 
L 1000.608192 1039.789159 
L 1001.838242 1039.789159 
L 1003.068292 1064.060069 
L 1004.298342 1064.060069 
L 1005.528393 1087.962775 
L 1006.758443 1087.962775 
L 1007.988493 1083.692101 
L 1009.218543 1083.692101 
L 1010.448594 1074.245089 
L 1011.678644 1074.245089 
L 1012.908694 1067.276738 
L 1014.138744 1067.276738 
L 1015.368795 1111.854484 
L 1016.598845 1111.854484 
L 1017.828895 1048.615556 
L 1019.058945 1048.615556 
L 1020.288996 1069.246676 
L 1021.519046 1069.246676 
L 1022.749096 1061.131059 
L 1023.979146 1061.131059 
L 1025.209197 1043.9759 
L 1026.439247 1054.302003 
L 1027.669297 1054.302003 
L 1028.899348 1022.339298 
L 1030.129398 1022.339298 
L 1031.359448 1061.603581 
L 1032.589498 1061.603581 
L 1033.819549 1008.722102 
L 1035.049599 1008.722102 
L 1036.279649 1026.069314 
L 1037.509699 1056.227532 
L 1038.73975 1056.227532 
L 1039.9698 1082.946491 
L 1041.19985 1082.946491 
L 1042.4299 1115.560215 
L 1043.659951 1115.560215 
L 1044.890001 1100.059302 
L 1046.120051 1100.059302 
L 1047.350101 1058.804509 
L 1048.580152 1074.358984 
L 1049.810202 1074.358984 
L 1051.040252 1087.382222 
L 1052.270302 1087.382222 
L 1053.500353 1108.014988 
L 1054.730403 1108.014988 
L 1055.960453 1092.5183 
L 1057.190503 1092.5183 
L 1058.420554 1099.110833 
L 1059.650604 1099.110833 
L 1060.880654 1114.98252 
L 1062.110705 1140.657206 
L 1063.340755 1140.657206 
L 1064.570805 1089.471817 
L 1067.030906 1089.471817 
L 1068.260956 1121.20854 
L 1069.491006 1157.054954 
L 1070.721056 1157.054954 
L 1071.951107 1065.801615 
L 1073.181157 1065.801615 
L 1074.411207 1036.217929 
L 1075.641257 1036.217929 
L 1076.871308 1092.084743 
L 1078.101358 1089.679214 
L 1079.331408 1089.679214 
L 1080.561458 1077.024109 
L 1081.791509 1077.024109 
L 1083.021559 1052.123349 
L 1084.251609 1052.123349 
L 1085.481659 1105.169567 
L 1086.71171 1105.169567 
L 1087.94176 1007.398693 
L 1089.17181 1007.398693 
L 1090.401861 1034.784745 
L 1091.631911 1052.904842 
L 1092.861961 1052.904842 
L 1094.092011 1054.957564 
L 1095.322062 1054.957564 
L 1096.552112 1020.029285 
L 1097.782162 1020.029285 
L 1099.012212 1033.59321 
L 1100.242263 1033.59321 
L 1101.472313 1080.107212 
L 1102.702363 1019.201595 
L 1103.932413 1019.201595 
L 1105.162464 1055.350484 
L 1106.392514 1055.350484 
L 1107.622564 1065.102103 
L 1108.852614 1065.102103 
L 1110.082665 1016.282786 
L 1111.312715 1016.282786 
L 1112.542765 1073.782875 
L 1113.772815 1073.782875 
L 1115.002866 1023.883924 
L 1116.232916 1023.883924 
L 1117.462966 1078.906248 
L 1118.693016 1082.903905 
L 1119.923067 1082.903905 
L 1121.153117 1106.414977 
L 1122.383167 1106.414977 
L 1123.613218 1090.592401 
L 1124.843268 1090.592401 
L 1126.073318 1060.550793 
L 1127.303368 1060.550793 
L 1128.533419 1128.79197 
L 1129.763469 1087.764167 
L 1130.993519 1087.764167 
L 1132.223569 1110.705529 
L 1133.45362 1110.705529 
L 1134.68367 1066.227405 
L 1135.91372 1066.227405 
L 1137.14377 1072.118845 
L 1138.373821 1080.761451 
L 1139.603871 1080.761451 
L 1140.833921 1123.310772 
L 1142.063971 1123.310772 
L 1143.294022 1115.504183 
L 1144.524072 1115.504183 
L 1145.754122 1033.458041 
L 1146.984172 1033.458041 
L 1148.214223 1058.776382 
L 1149.444273 1064.103219 
L 1150.674323 1064.103219 
L 1151.904374 1083.828531 
L 1153.134424 1083.828531 
L 1154.364474 1091.329316 
L 1155.594524 1091.329316 
L 1156.824575 1079.301369 
L 1158.054625 1079.301369 
L 1159.284675 1101.730353 
L 1160.514725 1101.730353 
L 1161.744776 1121.619437 
L 1162.974826 1059.831384 
L 1164.204876 1059.831384 
L 1165.434926 1063.788891 
L 1166.664977 1063.788891 
L 1167.895027 1127.70066 
L 1169.125077 1127.70066 
L 1170.355127 1096.905013 
L 1171.585178 1096.905013 
L 1172.815228 1116.799588 
L 1174.045278 1116.799588 
L 1175.275328 1112.005939 
L 1176.505379 1112.005939 
L 1177.735429 1086.279249 
L 1178.965479 1086.279249 
L 1180.195529 1121.012718 
L 1181.42558 1121.012718 
L 1182.65563 1064.264319 
L 1183.88568 1064.264319 
L 1185.115731 1047.871231 
L 1186.345781 1047.871231 
L 1187.575831 1057.222044 
L 1188.805881 1099.920037 
L 1190.035932 1099.920037 
L 1191.265982 1058.3261 
L 1192.496032 1058.3261 
L 1193.726082 1064.19086 
L 1194.956133 1064.19086 
L 1196.186183 1088.076112 
L 1197.416233 1018.598859 
L 1198.646283 1018.598859 
L 1199.876334 1088.462465 
L 1201.106384 1088.462465 
L 1202.336434 1060.237208 
L 1203.566484 1060.237208 
L 1204.796535 1056.796778 
L 1206.026585 1063.243911 
L 1207.256635 1063.243911 
L 1208.486685 1017.659402 
L 1210.946786 1017.659402 
L 1212.176836 1137.732127 
L 1213.406887 1137.732127 
L 1214.636937 1045.841233 
L 1215.866987 1046.496881 
L 1217.097037 1046.496881 
L 1218.327088 1108.499071 
L 1219.557138 1108.499071 
L 1220.787188 1041.018218 
L 1222.017238 1041.018218 
L 1223.247289 1056.351065 
L 1224.477339 1056.351065 
L 1225.707389 1117.849035 
L 1228.16749 1117.849035 
L 1229.39754 1086.061463 
L 1230.62759 1086.061463 
L 1231.85764 1095.822219 
L 1233.087691 1126.973174 
L 1234.317741 1126.973174 
L 1235.547791 1066.108595 
L 1236.777841 1066.108595 
L 1238.007892 1074.891167 
L 1239.237942 1074.891167 
L 1240.467992 1095.619276 
L 1241.698043 1095.619276 
L 1242.928093 1052.047968 
L 1244.158143 1052.047968 
L 1245.388193 1050.232298 
L 1246.618244 1050.232298 
L 1247.848294 1142.269362 
L 1249.078344 1142.269362 
L 1250.308394 1115.143059 
L 1251.538445 1115.143059 
L 1252.768495 1102.281969 
L 1253.998545 1102.281969 
L 1255.228595 1094.046144 
L 1256.458646 1094.046144 
L 1257.688696 1106.741973 
L 1258.918746 1106.741973 
L 1260.148796 1087.791615 
L 1261.378847 1087.791615 
L 1262.608897 1104.123425 
L 1263.838947 1104.123425 
L 1265.068997 1103.139335 
L 1266.299048 1103.139335 
L 1267.529098 1084.434122 
L 1268.759148 1084.434122 
L 1269.989198 1150.778685 
L 1271.219249 1117.820324 
L 1272.449299 1117.820324 
L 1273.679349 1078.358982 
L 1277.3695 1078.358982 
L 1278.59955 1086.678423 
L 1279.829601 1078.37408 
L 1281.059651 1078.37408 
L 1282.289701 1078.868012 
L 1284.749802 1078.868012 
L 1285.979852 1040.244049 
L 1287.209902 1040.244049 
L 1288.439952 1057.812989 
L 1289.670003 1057.812989 
L 1290.900053 1110.512717 
L 1292.130103 1110.512717 
L 1293.360153 1067.913701 
L 1294.590204 1067.913701 
L 1295.820254 1063.499738 
L 1297.050304 1075.541988 
L 1298.280354 1075.541988 
L 1299.510405 1123.350401 
L 1300.740455 1123.350401 
L 1301.970505 1059.613598 
L 1303.200556 1059.613598 
L 1304.430606 1082.360652 
L 1305.660656 1082.360652 
L 1306.890706 1053.433478 
L 1308.120757 1053.433478 
L 1309.350807 1092.745274 
L 1311.810907 1092.745274 
L 1313.040958 1040.548993 
L 1314.271008 1140.735143 
L 1315.501058 1140.735143 
L 1316.731108 1091.037795 
L 1317.961159 1091.037795 
L 1319.191209 1087.672846 
L 1320.421259 1087.672846 
L 1321.651309 1061.903386 
L 1322.88136 1050.677867 
L 1324.11141 1050.677867 
L 1325.34146 1095.276555 
L 1326.57151 1095.276555 
L 1327.801561 1144.646732 
L 1329.031611 1144.646732 
L 1330.261661 1076.670839 
L 1331.491711 1076.670839 
L 1332.721762 1077.588881 
L 1333.951812 1077.588881 
L 1335.181862 1090.433809 
L 1336.411913 1076.27718 
L 1337.641963 1076.27718 
L 1338.872013 1078.168509 
L 1340.102063 1078.168509 
L 1341.332114 1137.483153 
L 1342.562164 1137.483153 
L 1343.792214 1182.79198 
L 1345.022264 1182.79198 
L 1346.252315 1159.580492 
L 1347.482365 1083.21319 
L 1348.712415 1083.21319 
L 1349.942465 1029.836039 
L 1351.172516 1029.836039 
L 1352.402566 1104.576072 
L 1353.632616 1104.576072 
L 1354.862666 1165.294411 
L 1356.092717 1130.386814 
L 1357.322767 1130.386814 
L 1358.552817 1109.031365 
L 1359.782867 1109.031365 
L 1361.012918 1051.295632 
L 1362.242968 1051.295632 
L 1363.473018 1060.572361 
L 1364.703069 1060.572361 
L 1365.933119 1144.3797 
L 1367.163169 1144.3797 
L 1368.393219 1068.50187 
L 1369.62327 1115.034382 
L 1370.85332 1115.034382 
L 1372.08337 1148.584608 
L 1373.31342 1148.584608 
L 1374.543471 1141.744834 
L 1375.773521 1141.744834 
L 1377.003571 1104.569736 
L 1378.233621 1083.0101 
L 1379.463672 1083.0101 
L 1380.693722 1112.6633 
L 1381.923772 1112.6633 
L 1383.153822 1123.038478 
L 1384.383873 1123.038478 
L 1385.613923 1111.446661 
L 1386.843973 1111.446661 
L 1388.074023 1131.693578 
L 1389.304074 1208.058407 
L 1390.534124 1208.058407 
L 1391.764174 1083.142289 
L 1392.994224 1083.142289 
L 1394.224275 1144.368733 
L 1395.454325 1144.368733 
L 1396.684375 1111.157403 
L 1397.914426 1111.157403 
L 1399.144476 1098.31221 
L 1400.374526 1098.31221 
L 1401.604576 1075.844203 
L 1402.834627 1166.43961 
L 1404.064677 1166.43961 
L 1405.294727 1094.279016 
L 1406.524777 1094.279016 
L 1407.754828 1106.925504 
L 1408.984878 1106.925504 
L 1410.214928 1064.92433 
L 1411.444978 1085.343938 
L 1412.675029 1085.343938 
L 1413.905079 1112.161493 
L 1415.135129 1112.161493 
L 1416.365179 1019.588501 
L 1417.59523 1019.588501 
L 1418.82528 1026.660695 
L 1420.05533 1166.639162 
L 1421.28538 1166.639162 
L 1422.515431 1122.865866 
L 1423.745481 1122.865866 
L 1424.975531 1077.249347 
L 1426.205582 1077.249347 
L 1427.435632 1041.654613 
L 1428.665682 1041.654613 
L 1429.895732 1148.753951 
L 1431.125783 1097.98904 
L 1432.355833 1097.98904 
L 1433.585883 1061.039927 
L 1434.815933 1061.039927 
L 1436.045984 1183.476353 
L 1437.276034 1183.476353 
L 1438.506084 1032.407441 
L 1439.736134 1032.407441 
L 1440.966185 1102.772873 
L 1442.196235 1072.22584 
L 1443.426285 1072.22584 
L 1444.656335 1129.532635 
L 1445.886386 1129.532635 
L 1447.116436 1035.928584 
L 1448.346486 1035.928584 
L 1449.576536 1058.055742 
L 1450.806587 1105.463183 
L 1452.036637 1117.705725 
L 1453.266687 1117.705725 
L 1454.496738 1120.9916 
L 1455.726788 1120.9916 
L 1456.956838 1127.329055 
L 1458.186888 1127.329055 
L 1459.416939 1178.121463 
L 1460.646989 1178.121463 
L 1461.877039 1119.956438 
L 1463.107089 1119.956438 
L 1464.33714 1063.526416 
L 1465.56719 1101.324932 
L 1466.79724 1101.324932 
L 1468.02729 1156.405272 
L 1469.257341 1156.405272 
L 1470.487391 1051.659968 
L 1471.717441 1051.659968 
L 1472.947491 1031.934783 
L 1474.177542 1058.377505 
L 1475.407592 1058.377505 
L 1476.637642 1112.762769 
L 1477.867692 1112.762769 
L 1479.097743 1231.2 
L 1480.327793 1231.2 
L 1481.557843 997.492174 
L 1482.787893 1086.800974 
L 1484.017944 1105.163031 
L 1485.247994 1105.163031 
L 1486.478044 1126.332012 
L 1487.708095 1126.332012 
L 1488.938145 1145.190924 
L 1490.168195 1145.190924 
L 1491.398245 1149.061842 
L 1492.628296 1125.397753 
L 1493.858346 1125.397753 
L 1495.088396 1127.00532 
L 1496.318446 1127.00532 
L 1497.548497 1171.427847 
L 1498.778547 1171.427847 
L 1500.008597 1124.746359 
L 1502.468698 1124.746359 
L 1503.698748 1127.828591 
L 1504.928798 1083.143344 
L 1506.158848 1179.856283 
L 1507.388899 1179.856283 
L 1508.618949 1122.539215 
L 1509.848999 1103.412856 
L 1511.079049 1103.412856 
L 1512.3091 1142.076422 
L 1513.53915 1142.076422 
L 1514.7692 1082.249868 
L 1515.999251 1082.249868 
L 1517.229301 1174.024424 
L 1518.459351 1174.024424 
L 1519.689401 1121.017165 
L 1520.919452 1121.017165 
L 1522.149502 1124.970205 
L 1523.379552 1124.970205 
L 1524.609602 1099.380274 
L 1525.839653 1069.45146 
L 1527.069703 1069.45146 
L 1528.299753 1099.369886 
L 1529.529803 1099.369886 
L 1530.759854 1055.35978 
L 1531.989904 1055.35978 
L 1533.219954 1101.880217 
L 1534.450004 1101.880217 
L 1535.680055 1116.124358 
L 1536.910105 1109.529694 
L 1538.140155 1109.529694 
L 1539.370205 1109.746339 
L 1540.600256 1109.746339 
L 1541.830306 1031.344595 
L 1543.060356 1031.344595 
L 1544.290406 1119.436185 
L 1545.520457 1119.436185 
L 1546.750507 1050.237394 
L 1547.980557 1050.237394 
L 1549.210608 1033.871584 
L 1550.440658 1033.871584 
L 1551.670708 1135.324103 
L 1552.900758 1071.091515 
L 1554.130809 1071.091515 
L 1555.360859 1086.565252 
L 1556.590909 1086.565252 
L 1556.590909 1086.565252 
" style="fill:none;stroke:#000000;stroke-linecap:square;stroke-width:1.5;"/>
   </g>
   <g id="line2d_34">
    <path clip-path="url(#p0074ab6e08)" d="M 288.409091 223.2 
L 1556.590909 223.2 
L 1556.590909 223.2 
" style="fill:none;stroke:#ff0000;stroke-linecap:square;stroke-width:1.5;"/>
   </g>
   <g id="patch_4">
    <path d="M 225 1281.6 
L 225 172.8 
" style="fill:none;stroke:#000000;stroke-linecap:square;stroke-linejoin:miter;stroke-width:0.8;"/>
   </g>
   <g id="patch_5">
    <path d="M 1620 1281.6 
L 1620 172.8 
" style="fill:none;stroke:#000000;stroke-linecap:square;stroke-linejoin:miter;stroke-width:0.8;"/>
   </g>
   <g id="patch_6">
    <path d="M 225 1281.6 
L 1620 1281.6 
" style="fill:none;stroke:#000000;stroke-linecap:square;stroke-linejoin:miter;stroke-width:0.8;"/>
   </g>
   <g id="patch_7">
    <path d="M 225 172.8 
L 1620 172.8 
" style="fill:none;stroke:#000000;stroke-linecap:square;stroke-linejoin:miter;stroke-width:0.8;"/>
   </g>
   <g id="patch_8">
    <path d="M 755.796402 67.48454 
Q 749.060845 554.327344 742.340756 1040.05222 
" style="fill:none;stroke:#000000;stroke-linecap:round;"/>
    <path d="M 744.3959 1036.080271 
L 742.340756 1040.05222 
L 740.396283 1036.024935 
" style="fill:none;stroke:#000000;stroke-linecap:round;"/>
   </g>
   <g id="text_17">
    <!-- Close -->
    <defs>
     <path d="M 64.40625 67.28125 
L 64.40625 56.890625 
Q 59.421875 61.53125 53.78125 63.8125 
Q 48.140625 66.109375 41.796875 66.109375 
Q 29.296875 66.109375 22.65625 58.46875 
Q 16.015625 50.828125 16.015625 36.375 
Q 16.015625 21.96875 22.65625 14.328125 
Q 29.296875 6.6875 41.796875 6.6875 
Q 48.140625 6.6875 53.78125 8.984375 
Q 59.421875 11.28125 64.40625 15.921875 
L 64.40625 5.609375 
Q 59.234375 2.09375 53.4375 0.328125 
Q 47.65625 -1.421875 41.21875 -1.421875 
Q 24.65625 -1.421875 15.125 8.703125 
Q 5.609375 18.84375 5.609375 36.375 
Q 5.609375 53.953125 15.125 64.078125 
Q 24.65625 74.21875 41.21875 74.21875 
Q 47.75 74.21875 53.53125 72.484375 
Q 59.328125 70.75 64.40625 67.28125 
z
" id="DejaVuSans-43"/>
     <path d="M 9.421875 75.984375 
L 18.40625 75.984375 
L 18.40625 0 
L 9.421875 0 
z
" id="DejaVuSans-6c"/>
     <path d="M 30.609375 48.390625 
Q 23.390625 48.390625 19.1875 42.75 
Q 14.984375 37.109375 14.984375 27.296875 
Q 14.984375 17.484375 19.15625 11.84375 
Q 23.34375 6.203125 30.609375 6.203125 
Q 37.796875 6.203125 41.984375 11.859375 
Q 46.1875 17.53125 46.1875 27.296875 
Q 46.1875 37.015625 41.984375 42.703125 
Q 37.796875 48.390625 30.609375 48.390625 
z
M 30.609375 56 
Q 42.328125 56 49.015625 48.375 
Q 55.71875 40.765625 55.71875 27.296875 
Q 55.71875 13.875 49.015625 6.21875 
Q 42.328125 -1.421875 30.609375 -1.421875 
Q 18.84375 -1.421875 12.171875 6.21875 
Q 5.515625 13.875 5.515625 27.296875 
Q 5.515625 40.765625 12.171875 48.375 
Q 18.84375 56 30.609375 56 
z
" id="DejaVuSans-6f"/>
     <path d="M 44.28125 53.078125 
L 44.28125 44.578125 
Q 40.484375 46.53125 36.375 47.5 
Q 32.28125 48.484375 27.875 48.484375 
Q 21.1875 48.484375 17.84375 46.4375 
Q 14.5 44.390625 14.5 40.28125 
Q 14.5 37.15625 16.890625 35.375 
Q 19.28125 33.59375 26.515625 31.984375 
L 29.59375 31.296875 
Q 39.15625 29.25 43.1875 25.515625 
Q 47.21875 21.78125 47.21875 15.09375 
Q 47.21875 7.46875 41.1875 3.015625 
Q 35.15625 -1.421875 24.609375 -1.421875 
Q 20.21875 -1.421875 15.453125 -0.5625 
Q 10.6875 0.296875 5.421875 2 
L 5.421875 11.28125 
Q 10.40625 8.6875 15.234375 7.390625 
Q 20.0625 6.109375 24.8125 6.109375 
Q 31.15625 6.109375 34.5625 8.28125 
Q 37.984375 10.453125 37.984375 14.40625 
Q 37.984375 18.0625 35.515625 20.015625 
Q 33.0625 21.96875 24.703125 23.78125 
L 21.578125 24.515625 
Q 13.234375 26.265625 9.515625 29.90625 
Q 5.8125 33.546875 5.8125 39.890625 
Q 5.8125 47.609375 11.28125 51.796875 
Q 16.75 56 26.8125 56 
Q 31.78125 56 36.171875 55.265625 
Q 40.578125 54.546875 44.28125 53.078125 
z
" id="DejaVuSans-73"/>
     <path d="M 56.203125 29.59375 
L 56.203125 25.203125 
L 14.890625 25.203125 
Q 15.484375 15.921875 20.484375 11.0625 
Q 25.484375 6.203125 34.421875 6.203125 
Q 39.59375 6.203125 44.453125 7.46875 
Q 49.3125 8.734375 54.109375 11.28125 
L 54.109375 2.78125 
Q 49.265625 0.734375 44.1875 -0.34375 
Q 39.109375 -1.421875 33.890625 -1.421875 
Q 20.796875 -1.421875 13.15625 6.1875 
Q 5.515625 13.8125 5.515625 26.8125 
Q 5.515625 40.234375 12.765625 48.109375 
Q 20.015625 56 32.328125 56 
Q 43.359375 56 49.78125 48.890625 
Q 56.203125 41.796875 56.203125 29.59375 
z
M 47.21875 32.234375 
Q 47.125 39.59375 43.09375 43.984375 
Q 39.0625 48.390625 32.421875 48.390625 
Q 24.90625 48.390625 20.390625 44.140625 
Q 15.875 39.890625 15.1875 32.171875 
z
" id="DejaVuSans-65"/>
    </defs>
    <g transform="translate(742.297637 61.402057)scale(0.1 -0.1)">
     <use xlink:href="#DejaVuSans-43"/>
     <use x="69.824219" xlink:href="#DejaVuSans-6c"/>
     <use x="97.607422" xlink:href="#DejaVuSans-6f"/>
     <use x="158.789062" xlink:href="#DejaVuSans-73"/>
     <use x="210.888672" xlink:href="#DejaVuSans-65"/>
    </g>
   </g>
   <g id="legend_1">
    <g id="patch_9">
     <path d="M 232 1276.6 
L 328.135938 1276.6 
Q 330.135938 1276.6 330.135938 1274.6 
L 330.135938 1231.565625 
Q 330.135938 1229.565625 328.135938 1229.565625 
L 232 1229.565625 
Q 230 1229.565625 230 1231.565625 
L 230 1274.6 
Q 230 1276.6 232 1276.6 
z
" style="fill:#ffffff;opacity:0.8;stroke:#cccccc;stroke-linejoin:miter;"/>
    </g>
    <g id="line2d_35">
     <path d="M 234 1237.664062 
L 254 1237.664062 
" style="fill:none;stroke:#000000;stroke-linecap:square;stroke-width:1.5;"/>
    </g>
    <g id="line2d_36"/>
    <g id="text_18">
     <!-- Z position -->
     <defs>
      <path d="M 5.609375 72.90625 
L 62.890625 72.90625 
L 62.890625 65.375 
L 16.796875 8.296875 
L 64.015625 8.296875 
L 64.015625 0 
L 4.5 0 
L 4.5 7.515625 
L 50.59375 64.59375 
L 5.609375 64.59375 
z
" id="DejaVuSans-5a"/>
      <path id="DejaVuSans-20"/>
      <path d="M 18.109375 8.203125 
L 18.109375 -20.796875 
L 9.078125 -20.796875 
L 9.078125 54.6875 
L 18.109375 54.6875 
L 18.109375 46.390625 
Q 20.953125 51.265625 25.265625 53.625 
Q 29.59375 56 35.59375 56 
Q 45.5625 56 51.78125 48.09375 
Q 58.015625 40.1875 58.015625 27.296875 
Q 58.015625 14.40625 51.78125 6.484375 
Q 45.5625 -1.421875 35.59375 -1.421875 
Q 29.59375 -1.421875 25.265625 0.953125 
Q 20.953125 3.328125 18.109375 8.203125 
z
M 48.6875 27.296875 
Q 48.6875 37.203125 44.609375 42.84375 
Q 40.53125 48.484375 33.40625 48.484375 
Q 26.265625 48.484375 22.1875 42.84375 
Q 18.109375 37.203125 18.109375 27.296875 
Q 18.109375 17.390625 22.1875 11.75 
Q 26.265625 6.109375 33.40625 6.109375 
Q 40.53125 6.109375 44.609375 11.75 
Q 48.6875 17.390625 48.6875 27.296875 
z
" id="DejaVuSans-70"/>
      <path d="M 9.421875 54.6875 
L 18.40625 54.6875 
L 18.40625 0 
L 9.421875 0 
z
M 9.421875 75.984375 
L 18.40625 75.984375 
L 18.40625 64.59375 
L 9.421875 64.59375 
z
" id="DejaVuSans-69"/>
      <path d="M 18.3125 70.21875 
L 18.3125 54.6875 
L 36.8125 54.6875 
L 36.8125 47.703125 
L 18.3125 47.703125 
L 18.3125 18.015625 
Q 18.3125 11.328125 20.140625 9.421875 
Q 21.96875 7.515625 27.59375 7.515625 
L 36.8125 7.515625 
L 36.8125 0 
L 27.59375 0 
Q 17.1875 0 13.234375 3.875 
Q 9.28125 7.765625 9.28125 18.015625 
L 9.28125 47.703125 
L 2.6875 47.703125 
L 2.6875 54.6875 
L 9.28125 54.6875 
L 9.28125 70.21875 
z
" id="DejaVuSans-74"/>
      <path d="M 54.890625 33.015625 
L 54.890625 0 
L 45.90625 0 
L 45.90625 32.71875 
Q 45.90625 40.484375 42.875 44.328125 
Q 39.84375 48.1875 33.796875 48.1875 
Q 26.515625 48.1875 22.3125 43.546875 
Q 18.109375 38.921875 18.109375 30.90625 
L 18.109375 0 
L 9.078125 0 
L 9.078125 54.6875 
L 18.109375 54.6875 
L 18.109375 46.1875 
Q 21.34375 51.125 25.703125 53.5625 
Q 30.078125 56 35.796875 56 
Q 45.21875 56 50.046875 50.171875 
Q 54.890625 44.34375 54.890625 33.015625 
z
" id="DejaVuSans-6e"/>
     </defs>
     <g transform="translate(262 1241.164062)scale(0.1 -0.1)">
      <use xlink:href="#DejaVuSans-5a"/>
      <use x="68.505859" xlink:href="#DejaVuSans-20"/>
      <use x="100.292969" xlink:href="#DejaVuSans-70"/>
      <use x="163.769531" xlink:href="#DejaVuSans-6f"/>
      <use x="224.951172" xlink:href="#DejaVuSans-73"/>
      <use x="277.050781" xlink:href="#DejaVuSans-69"/>
      <use x="304.833984" xlink:href="#DejaVuSans-74"/>
      <use x="344.042969" xlink:href="#DejaVuSans-69"/>
      <use x="371.826172" xlink:href="#DejaVuSans-6f"/>
      <use x="433.007812" xlink:href="#DejaVuSans-6e"/>
     </g>
    </g>
    <g id="line2d_37">
     <path d="M 234 1252.342187 
L 254 1252.342187 
" style="fill:none;stroke:#ff0000;stroke-linecap:square;stroke-width:1.5;"/>
    </g>
    <g id="line2d_38"/>
    <g id="text_19">
     <!-- goal -->
     <defs>
      <path d="M 45.40625 27.984375 
Q 45.40625 37.75 41.375 43.109375 
Q 37.359375 48.484375 30.078125 48.484375 
Q 22.859375 48.484375 18.828125 43.109375 
Q 14.796875 37.75 14.796875 27.984375 
Q 14.796875 18.265625 18.828125 12.890625 
Q 22.859375 7.515625 30.078125 7.515625 
Q 37.359375 7.515625 41.375 12.890625 
Q 45.40625 18.265625 45.40625 27.984375 
z
M 54.390625 6.78125 
Q 54.390625 -7.171875 48.1875 -13.984375 
Q 42 -20.796875 29.203125 -20.796875 
Q 24.46875 -20.796875 20.265625 -20.09375 
Q 16.0625 -19.390625 12.109375 -17.921875 
L 12.109375 -9.1875 
Q 16.0625 -11.328125 19.921875 -12.34375 
Q 23.78125 -13.375 27.78125 -13.375 
Q 36.625 -13.375 41.015625 -8.765625 
Q 45.40625 -4.15625 45.40625 5.171875 
L 45.40625 9.625 
Q 42.625 4.78125 38.28125 2.390625 
Q 33.9375 0 27.875 0 
Q 17.828125 0 11.671875 7.65625 
Q 5.515625 15.328125 5.515625 27.984375 
Q 5.515625 40.671875 11.671875 48.328125 
Q 17.828125 56 27.875 56 
Q 33.9375 56 38.28125 53.609375 
Q 42.625 51.21875 45.40625 46.390625 
L 45.40625 54.6875 
L 54.390625 54.6875 
z
" id="DejaVuSans-67"/>
      <path d="M 34.28125 27.484375 
Q 23.390625 27.484375 19.1875 25 
Q 14.984375 22.515625 14.984375 16.5 
Q 14.984375 11.71875 18.140625 8.90625 
Q 21.296875 6.109375 26.703125 6.109375 
Q 34.1875 6.109375 38.703125 11.40625 
Q 43.21875 16.703125 43.21875 25.484375 
L 43.21875 27.484375 
z
M 52.203125 31.203125 
L 52.203125 0 
L 43.21875 0 
L 43.21875 8.296875 
Q 40.140625 3.328125 35.546875 0.953125 
Q 30.953125 -1.421875 24.3125 -1.421875 
Q 15.921875 -1.421875 10.953125 3.296875 
Q 6 8.015625 6 15.921875 
Q 6 25.140625 12.171875 29.828125 
Q 18.359375 34.515625 30.609375 34.515625 
L 43.21875 34.515625 
L 43.21875 35.40625 
Q 43.21875 41.609375 39.140625 45 
Q 35.0625 48.390625 27.6875 48.390625 
Q 23 48.390625 18.546875 47.265625 
Q 14.109375 46.140625 10.015625 43.890625 
L 10.015625 52.203125 
Q 14.9375 54.109375 19.578125 55.046875 
Q 24.21875 56 28.609375 56 
Q 40.484375 56 46.34375 49.84375 
Q 52.203125 43.703125 52.203125 31.203125 
z
" id="DejaVuSans-61"/>
     </defs>
     <g transform="translate(262 1255.842187)scale(0.1 -0.1)">
      <use xlink:href="#DejaVuSans-67"/>
      <use x="63.476562" xlink:href="#DejaVuSans-6f"/>
      <use x="124.658203" xlink:href="#DejaVuSans-61"/>
      <use x="185.9375" xlink:href="#DejaVuSans-6c"/>
     </g>
    </g>
    <g id="patch_10">
     <path d="M 234 1270.520313 
L 254 1270.520313 
L 254 1263.520313 
L 234 1263.520313 
z
" style="opacity:0.3;"/>
    </g>
    <g id="text_20">
     <!-- NULL motion -->
     <defs>
      <path d="M 9.8125 72.90625 
L 23.09375 72.90625 
L 55.421875 11.921875 
L 55.421875 72.90625 
L 64.984375 72.90625 
L 64.984375 0 
L 51.703125 0 
L 19.390625 60.984375 
L 19.390625 0 
L 9.8125 0 
z
" id="DejaVuSans-4e"/>
      <path d="M 8.6875 72.90625 
L 18.609375 72.90625 
L 18.609375 28.609375 
Q 18.609375 16.890625 22.84375 11.734375 
Q 27.09375 6.59375 36.625 6.59375 
Q 46.09375 6.59375 50.34375 11.734375 
Q 54.59375 16.890625 54.59375 28.609375 
L 54.59375 72.90625 
L 64.5 72.90625 
L 64.5 27.390625 
Q 64.5 13.140625 57.4375 5.859375 
Q 50.390625 -1.421875 36.625 -1.421875 
Q 22.796875 -1.421875 15.734375 5.859375 
Q 8.6875 13.140625 8.6875 27.390625 
z
" id="DejaVuSans-55"/>
      <path d="M 9.8125 72.90625 
L 19.671875 72.90625 
L 19.671875 8.296875 
L 55.171875 8.296875 
L 55.171875 0 
L 9.8125 0 
z
" id="DejaVuSans-4c"/>
      <path d="M 52 44.1875 
Q 55.375 50.25 60.0625 53.125 
Q 64.75 56 71.09375 56 
Q 79.640625 56 84.28125 50.015625 
Q 88.921875 44.046875 88.921875 33.015625 
L 88.921875 0 
L 79.890625 0 
L 79.890625 32.71875 
Q 79.890625 40.578125 77.09375 44.375 
Q 74.3125 48.1875 68.609375 48.1875 
Q 61.625 48.1875 57.5625 43.546875 
Q 53.515625 38.921875 53.515625 30.90625 
L 53.515625 0 
L 44.484375 0 
L 44.484375 32.71875 
Q 44.484375 40.625 41.703125 44.40625 
Q 38.921875 48.1875 33.109375 48.1875 
Q 26.21875 48.1875 22.15625 43.53125 
Q 18.109375 38.875 18.109375 30.90625 
L 18.109375 0 
L 9.078125 0 
L 9.078125 54.6875 
L 18.109375 54.6875 
L 18.109375 46.1875 
Q 21.1875 51.21875 25.484375 53.609375 
Q 29.78125 56 35.6875 56 
Q 41.65625 56 45.828125 52.96875 
Q 50 49.953125 52 44.1875 
z
" id="DejaVuSans-6d"/>
     </defs>
     <g transform="translate(262 1270.520313)scale(0.1 -0.1)">
      <use xlink:href="#DejaVuSans-4e"/>
      <use x="74.804688" xlink:href="#DejaVuSans-55"/>
      <use x="147.998047" xlink:href="#DejaVuSans-4c"/>
      <use x="203.710938" xlink:href="#DejaVuSans-4c"/>
      <use x="259.423828" xlink:href="#DejaVuSans-20"/>
      <use x="291.210938" xlink:href="#DejaVuSans-6d"/>
      <use x="388.623047" xlink:href="#DejaVuSans-6f"/>
      <use x="449.804688" xlink:href="#DejaVuSans-74"/>
      <use x="489.013672" xlink:href="#DejaVuSans-69"/>
      <use x="516.796875" xlink:href="#DejaVuSans-6f"/>
      <use x="577.978516" xlink:href="#DejaVuSans-6e"/>
     </g>
    </g>
   </g>
  </g>
 </g>
 <defs>
  <clipPath id="p0074ab6e08">
   <rect height="1108.8" width="1395" x="225" y="172.8"/>
  </clipPath>
 </defs>
</svg>
