<?xml version="1.0" encoding="utf-8" standalone="no"?>
<!DOCTYPE svg PUBLIC "-//W3C//DTD SVG 1.1//EN"
  "http://www.w3.org/Graphics/SVG/1.1/DTD/svg11.dtd">
<!-- Created with matplotlib (http://matplotlib.org/) -->
<svg height="1440pt" version="1.1" viewBox="0 0 1800 1440" width="1800pt" xmlns="http://www.w3.org/2000/svg" xmlns:xlink="http://www.w3.org/1999/xlink">
 <defs>
  <style type="text/css">
*{stroke-linecap:butt;stroke-linejoin:round;}
  </style>
 </defs>
 <g id="figure_1">
  <g id="patch_1">
   <path d="M 0 1440 
L 1800 1440 
L 1800 0 
L 0 0 
z
" style="fill:#ffffff;"/>
  </g>
  <g id="axes_1">
   <g id="patch_2">
    <path d="M 225 1281.6 
L 1620 1281.6 
L 1620 172.8 
L 225 172.8 
z
" style="fill:#ffffff;"/>
   </g>
   <g id="matplotlib.axis_1">
    <g id="xtick_1">
     <g id="line2d_1">
      <path clip-path="url(#p33eac230c9)" d="M 288.409091 1281.6 
L 288.409091 172.8 
" style="fill:none;stroke:#b0b0b0;stroke-linecap:square;stroke-width:0.8;"/>
     </g>
     <g id="line2d_2">
      <defs>
       <path d="M 0 0 
L 0 3.5 
" id="ma91ce1da7f" style="stroke:#000000;stroke-width:0.8;"/>
      </defs>
      <g>
       <use style="stroke:#000000;stroke-width:0.8;" x="288.409091" xlink:href="#ma91ce1da7f" y="1281.6"/>
      </g>
     </g>
     <g id="text_1">
      <!-- 0 -->
      <defs>
       <path d="M 31.78125 66.40625 
Q 24.171875 66.40625 20.328125 58.90625 
Q 16.5 51.421875 16.5 36.375 
Q 16.5 21.390625 20.328125 13.890625 
Q 24.171875 6.390625 31.78125 6.390625 
Q 39.453125 6.390625 43.28125 13.890625 
Q 47.125 21.390625 47.125 36.375 
Q 47.125 51.421875 43.28125 58.90625 
Q 39.453125 66.40625 31.78125 66.40625 
z
M 31.78125 74.21875 
Q 44.046875 74.21875 50.515625 64.515625 
Q 56.984375 54.828125 56.984375 36.375 
Q 56.984375 17.96875 50.515625 8.265625 
Q 44.046875 -1.421875 31.78125 -1.421875 
Q 19.53125 -1.421875 13.0625 8.265625 
Q 6.59375 17.96875 6.59375 36.375 
Q 6.59375 54.828125 13.0625 64.515625 
Q 19.53125 74.21875 31.78125 74.21875 
z
" id="DejaVuSans-30"/>
      </defs>
      <g transform="translate(285.227841 1296.198437)scale(0.1 -0.1)">
       <use xlink:href="#DejaVuSans-30"/>
      </g>
     </g>
    </g>
    <g id="xtick_2">
     <g id="line2d_3">
      <path clip-path="url(#p33eac230c9)" d="M 585.059809 1281.6 
L 585.059809 172.8 
" style="fill:none;stroke:#b0b0b0;stroke-linecap:square;stroke-width:0.8;"/>
     </g>
     <g id="line2d_4">
      <g>
       <use style="stroke:#000000;stroke-width:0.8;" x="585.059809" xlink:href="#ma91ce1da7f" y="1281.6"/>
      </g>
     </g>
     <g id="text_2">
      <!-- 200 -->
      <defs>
       <path d="M 19.1875 8.296875 
L 53.609375 8.296875 
L 53.609375 0 
L 7.328125 0 
L 7.328125 8.296875 
Q 12.9375 14.109375 22.625 23.890625 
Q 32.328125 33.6875 34.8125 36.53125 
Q 39.546875 41.84375 41.421875 45.53125 
Q 43.3125 49.21875 43.3125 52.78125 
Q 43.3125 58.59375 39.234375 62.25 
Q 35.15625 65.921875 28.609375 65.921875 
Q 23.96875 65.921875 18.8125 64.3125 
Q 13.671875 62.703125 7.8125 59.421875 
L 7.8125 69.390625 
Q 13.765625 71.78125 18.9375 73 
Q 24.125 74.21875 28.421875 74.21875 
Q 39.75 74.21875 46.484375 68.546875 
Q 53.21875 62.890625 53.21875 53.421875 
Q 53.21875 48.921875 51.53125 44.890625 
Q 49.859375 40.875 45.40625 35.40625 
Q 44.1875 33.984375 37.640625 27.21875 
Q 31.109375 20.453125 19.1875 8.296875 
z
" id="DejaVuSans-32"/>
      </defs>
      <g transform="translate(575.516059 1296.198437)scale(0.1 -0.1)">
       <use xlink:href="#DejaVuSans-32"/>
       <use x="63.623047" xlink:href="#DejaVuSans-30"/>
       <use x="127.246094" xlink:href="#DejaVuSans-30"/>
      </g>
     </g>
    </g>
    <g id="xtick_3">
     <g id="line2d_5">
      <path clip-path="url(#p33eac230c9)" d="M 881.710526 1281.6 
L 881.710526 172.8 
" style="fill:none;stroke:#b0b0b0;stroke-linecap:square;stroke-width:0.8;"/>
     </g>
     <g id="line2d_6">
      <g>
       <use style="stroke:#000000;stroke-width:0.8;" x="881.710526" xlink:href="#ma91ce1da7f" y="1281.6"/>
      </g>
     </g>
     <g id="text_3">
      <!-- 400 -->
      <defs>
       <path d="M 37.796875 64.3125 
L 12.890625 25.390625 
L 37.796875 25.390625 
z
M 35.203125 72.90625 
L 47.609375 72.90625 
L 47.609375 25.390625 
L 58.015625 25.390625 
L 58.015625 17.1875 
L 47.609375 17.1875 
L 47.609375 0 
L 37.796875 0 
L 37.796875 17.1875 
L 4.890625 17.1875 
L 4.890625 26.703125 
z
" id="DejaVuSans-34"/>
      </defs>
      <g transform="translate(872.166776 1296.198437)scale(0.1 -0.1)">
       <use xlink:href="#DejaVuSans-34"/>
       <use x="63.623047" xlink:href="#DejaVuSans-30"/>
       <use x="127.246094" xlink:href="#DejaVuSans-30"/>
      </g>
     </g>
    </g>
    <g id="xtick_4">
     <g id="line2d_7">
      <path clip-path="url(#p33eac230c9)" d="M 1178.361244 1281.6 
L 1178.361244 172.8 
" style="fill:none;stroke:#b0b0b0;stroke-linecap:square;stroke-width:0.8;"/>
     </g>
     <g id="line2d_8">
      <g>
       <use style="stroke:#000000;stroke-width:0.8;" x="1178.361244" xlink:href="#ma91ce1da7f" y="1281.6"/>
      </g>
     </g>
     <g id="text_4">
      <!-- 600 -->
      <defs>
       <path d="M 33.015625 40.375 
Q 26.375 40.375 22.484375 35.828125 
Q 18.609375 31.296875 18.609375 23.390625 
Q 18.609375 15.53125 22.484375 10.953125 
Q 26.375 6.390625 33.015625 6.390625 
Q 39.65625 6.390625 43.53125 10.953125 
Q 47.40625 15.53125 47.40625 23.390625 
Q 47.40625 31.296875 43.53125 35.828125 
Q 39.65625 40.375 33.015625 40.375 
z
M 52.59375 71.296875 
L 52.59375 62.3125 
Q 48.875 64.0625 45.09375 64.984375 
Q 41.3125 65.921875 37.59375 65.921875 
Q 27.828125 65.921875 22.671875 59.328125 
Q 17.53125 52.734375 16.796875 39.40625 
Q 19.671875 43.65625 24.015625 45.921875 
Q 28.375 48.1875 33.59375 48.1875 
Q 44.578125 48.1875 50.953125 41.515625 
Q 57.328125 34.859375 57.328125 23.390625 
Q 57.328125 12.15625 50.6875 5.359375 
Q 44.046875 -1.421875 33.015625 -1.421875 
Q 20.359375 -1.421875 13.671875 8.265625 
Q 6.984375 17.96875 6.984375 36.375 
Q 6.984375 53.65625 15.1875 63.9375 
Q 23.390625 74.21875 37.203125 74.21875 
Q 40.921875 74.21875 44.703125 73.484375 
Q 48.484375 72.75 52.59375 71.296875 
z
" id="DejaVuSans-36"/>
      </defs>
      <g transform="translate(1168.817494 1296.198437)scale(0.1 -0.1)">
       <use xlink:href="#DejaVuSans-36"/>
       <use x="63.623047" xlink:href="#DejaVuSans-30"/>
       <use x="127.246094" xlink:href="#DejaVuSans-30"/>
      </g>
     </g>
    </g>
    <g id="xtick_5">
     <g id="line2d_9">
      <path clip-path="url(#p33eac230c9)" d="M 1475.011962 1281.6 
L 1475.011962 172.8 
" style="fill:none;stroke:#b0b0b0;stroke-linecap:square;stroke-width:0.8;"/>
     </g>
     <g id="line2d_10">
      <g>
       <use style="stroke:#000000;stroke-width:0.8;" x="1475.011962" xlink:href="#ma91ce1da7f" y="1281.6"/>
      </g>
     </g>
     <g id="text_5">
      <!-- 800 -->
      <defs>
       <path d="M 31.78125 34.625 
Q 24.75 34.625 20.71875 30.859375 
Q 16.703125 27.09375 16.703125 20.515625 
Q 16.703125 13.921875 20.71875 10.15625 
Q 24.75 6.390625 31.78125 6.390625 
Q 38.8125 6.390625 42.859375 10.171875 
Q 46.921875 13.96875 46.921875 20.515625 
Q 46.921875 27.09375 42.890625 30.859375 
Q 38.875 34.625 31.78125 34.625 
z
M 21.921875 38.8125 
Q 15.578125 40.375 12.03125 44.71875 
Q 8.5 49.078125 8.5 55.328125 
Q 8.5 64.0625 14.71875 69.140625 
Q 20.953125 74.21875 31.78125 74.21875 
Q 42.671875 74.21875 48.875 69.140625 
Q 55.078125 64.0625 55.078125 55.328125 
Q 55.078125 49.078125 51.53125 44.71875 
Q 48 40.375 41.703125 38.8125 
Q 48.828125 37.15625 52.796875 32.3125 
Q 56.78125 27.484375 56.78125 20.515625 
Q 56.78125 9.90625 50.3125 4.234375 
Q 43.84375 -1.421875 31.78125 -1.421875 
Q 19.734375 -1.421875 13.25 4.234375 
Q 6.78125 9.90625 6.78125 20.515625 
Q 6.78125 27.484375 10.78125 32.3125 
Q 14.796875 37.15625 21.921875 38.8125 
z
M 18.3125 54.390625 
Q 18.3125 48.734375 21.84375 45.5625 
Q 25.390625 42.390625 31.78125 42.390625 
Q 38.140625 42.390625 41.71875 45.5625 
Q 45.3125 48.734375 45.3125 54.390625 
Q 45.3125 60.0625 41.71875 63.234375 
Q 38.140625 66.40625 31.78125 66.40625 
Q 25.390625 66.40625 21.84375 63.234375 
Q 18.3125 60.0625 18.3125 54.390625 
z
" id="DejaVuSans-38"/>
      </defs>
      <g transform="translate(1465.468212 1296.198437)scale(0.1 -0.1)">
       <use xlink:href="#DejaVuSans-38"/>
       <use x="63.623047" xlink:href="#DejaVuSans-30"/>
       <use x="127.246094" xlink:href="#DejaVuSans-30"/>
      </g>
     </g>
    </g>
   </g>
   <g id="matplotlib.axis_2">
    <g id="ytick_1">
     <g id="line2d_11">
      <path clip-path="url(#p33eac230c9)" d="M 225 1281.6 
L 1620 1281.6 
" style="fill:none;stroke:#b0b0b0;stroke-linecap:square;stroke-width:0.8;"/>
     </g>
     <g id="line2d_12">
      <defs>
       <path d="M 0 0 
L -3.5 0 
" id="m21e206e2cb" style="stroke:#000000;stroke-width:0.8;"/>
      </defs>
      <g>
       <use style="stroke:#000000;stroke-width:0.8;" x="225" xlink:href="#m21e206e2cb" y="1281.6"/>
      </g>
     </g>
     <g id="text_6">
      <!-- −0.1148 -->
      <defs>
       <path d="M 10.59375 35.5 
L 73.1875 35.5 
L 73.1875 27.203125 
L 10.59375 27.203125 
z
" id="DejaVuSans-2212"/>
       <path d="M 10.6875 12.40625 
L 21 12.40625 
L 21 0 
L 10.6875 0 
z
" id="DejaVuSans-2e"/>
       <path d="M 12.40625 8.296875 
L 28.515625 8.296875 
L 28.515625 63.921875 
L 10.984375 60.40625 
L 10.984375 69.390625 
L 28.421875 72.90625 
L 38.28125 72.90625 
L 38.28125 8.296875 
L 54.390625 8.296875 
L 54.390625 0 
L 12.40625 0 
z
" id="DejaVuSans-31"/>
      </defs>
      <g transform="translate(174.629687 1285.399219)scale(0.1 -0.1)">
       <use xlink:href="#DejaVuSans-2212"/>
       <use x="83.789062" xlink:href="#DejaVuSans-30"/>
       <use x="147.412109" xlink:href="#DejaVuSans-2e"/>
       <use x="179.199219" xlink:href="#DejaVuSans-31"/>
       <use x="242.822266" xlink:href="#DejaVuSans-31"/>
       <use x="306.445312" xlink:href="#DejaVuSans-34"/>
       <use x="370.068359" xlink:href="#DejaVuSans-38"/>
      </g>
     </g>
    </g>
    <g id="ytick_2">
     <g id="line2d_13">
      <path clip-path="url(#p33eac230c9)" d="M 225 1189.397809 
L 1620 1189.397809 
" style="fill:none;stroke:#b0b0b0;stroke-linecap:square;stroke-width:0.8;"/>
     </g>
     <g id="line2d_14">
      <g>
       <use style="stroke:#000000;stroke-width:0.8;" x="225" xlink:href="#m21e206e2cb" y="1189.397809"/>
      </g>
     </g>
     <g id="text_7">
      <!-- −0.1048 -->
      <g transform="translate(174.629687 1193.197028)scale(0.1 -0.1)">
       <use xlink:href="#DejaVuSans-2212"/>
       <use x="83.789062" xlink:href="#DejaVuSans-30"/>
       <use x="147.412109" xlink:href="#DejaVuSans-2e"/>
       <use x="179.199219" xlink:href="#DejaVuSans-31"/>
       <use x="242.822266" xlink:href="#DejaVuSans-30"/>
       <use x="306.445312" xlink:href="#DejaVuSans-34"/>
       <use x="370.068359" xlink:href="#DejaVuSans-38"/>
      </g>
     </g>
    </g>
    <g id="ytick_3">
     <g id="line2d_15">
      <path clip-path="url(#p33eac230c9)" d="M 225 1097.195618 
L 1620 1097.195618 
" style="fill:none;stroke:#b0b0b0;stroke-linecap:square;stroke-width:0.8;"/>
     </g>
     <g id="line2d_16">
      <g>
       <use style="stroke:#000000;stroke-width:0.8;" x="225" xlink:href="#m21e206e2cb" y="1097.195618"/>
      </g>
     </g>
     <g id="text_8">
      <!-- −0.0948 -->
      <defs>
       <path d="M 10.984375 1.515625 
L 10.984375 10.5 
Q 14.703125 8.734375 18.5 7.8125 
Q 22.3125 6.890625 25.984375 6.890625 
Q 35.75 6.890625 40.890625 13.453125 
Q 46.046875 20.015625 46.78125 33.40625 
Q 43.953125 29.203125 39.59375 26.953125 
Q 35.25 24.703125 29.984375 24.703125 
Q 19.046875 24.703125 12.671875 31.3125 
Q 6.296875 37.9375 6.296875 49.421875 
Q 6.296875 60.640625 12.9375 67.421875 
Q 19.578125 74.21875 30.609375 74.21875 
Q 43.265625 74.21875 49.921875 64.515625 
Q 56.59375 54.828125 56.59375 36.375 
Q 56.59375 19.140625 48.40625 8.859375 
Q 40.234375 -1.421875 26.421875 -1.421875 
Q 22.703125 -1.421875 18.890625 -0.6875 
Q 15.09375 0.046875 10.984375 1.515625 
z
M 30.609375 32.421875 
Q 37.25 32.421875 41.125 36.953125 
Q 45.015625 41.5 45.015625 49.421875 
Q 45.015625 57.28125 41.125 61.84375 
Q 37.25 66.40625 30.609375 66.40625 
Q 23.96875 66.40625 20.09375 61.84375 
Q 16.21875 57.28125 16.21875 49.421875 
Q 16.21875 41.5 20.09375 36.953125 
Q 23.96875 32.421875 30.609375 32.421875 
z
" id="DejaVuSans-39"/>
      </defs>
      <g transform="translate(174.629687 1100.994837)scale(0.1 -0.1)">
       <use xlink:href="#DejaVuSans-2212"/>
       <use x="83.789062" xlink:href="#DejaVuSans-30"/>
       <use x="147.412109" xlink:href="#DejaVuSans-2e"/>
       <use x="179.199219" xlink:href="#DejaVuSans-30"/>
       <use x="242.822266" xlink:href="#DejaVuSans-39"/>
       <use x="306.445312" xlink:href="#DejaVuSans-34"/>
       <use x="370.068359" xlink:href="#DejaVuSans-38"/>
      </g>
     </g>
    </g>
    <g id="ytick_4">
     <g id="line2d_17">
      <path clip-path="url(#p33eac230c9)" d="M 225 1004.993427 
L 1620 1004.993427 
" style="fill:none;stroke:#b0b0b0;stroke-linecap:square;stroke-width:0.8;"/>
     </g>
     <g id="line2d_18">
      <g>
       <use style="stroke:#000000;stroke-width:0.8;" x="225" xlink:href="#m21e206e2cb" y="1004.993427"/>
      </g>
     </g>
     <g id="text_9">
      <!-- −0.0848 -->
      <g transform="translate(174.629687 1008.792646)scale(0.1 -0.1)">
       <use xlink:href="#DejaVuSans-2212"/>
       <use x="83.789062" xlink:href="#DejaVuSans-30"/>
       <use x="147.412109" xlink:href="#DejaVuSans-2e"/>
       <use x="179.199219" xlink:href="#DejaVuSans-30"/>
       <use x="242.822266" xlink:href="#DejaVuSans-38"/>
       <use x="306.445312" xlink:href="#DejaVuSans-34"/>
       <use x="370.068359" xlink:href="#DejaVuSans-38"/>
      </g>
     </g>
    </g>
    <g id="ytick_5">
     <g id="line2d_19">
      <path clip-path="url(#p33eac230c9)" d="M 225 912.791236 
L 1620 912.791236 
" style="fill:none;stroke:#b0b0b0;stroke-linecap:square;stroke-width:0.8;"/>
     </g>
     <g id="line2d_20">
      <g>
       <use style="stroke:#000000;stroke-width:0.8;" x="225" xlink:href="#m21e206e2cb" y="912.791236"/>
      </g>
     </g>
     <g id="text_10">
      <!-- −0.0748 -->
      <defs>
       <path d="M 8.203125 72.90625 
L 55.078125 72.90625 
L 55.078125 68.703125 
L 28.609375 0 
L 18.3125 0 
L 43.21875 64.59375 
L 8.203125 64.59375 
z
" id="DejaVuSans-37"/>
      </defs>
      <g transform="translate(174.629687 916.590455)scale(0.1 -0.1)">
       <use xlink:href="#DejaVuSans-2212"/>
       <use x="83.789062" xlink:href="#DejaVuSans-30"/>
       <use x="147.412109" xlink:href="#DejaVuSans-2e"/>
       <use x="179.199219" xlink:href="#DejaVuSans-30"/>
       <use x="242.822266" xlink:href="#DejaVuSans-37"/>
       <use x="306.445312" xlink:href="#DejaVuSans-34"/>
       <use x="370.068359" xlink:href="#DejaVuSans-38"/>
      </g>
     </g>
    </g>
    <g id="ytick_6">
     <g id="line2d_21">
      <path clip-path="url(#p33eac230c9)" d="M 225 820.589046 
L 1620 820.589046 
" style="fill:none;stroke:#b0b0b0;stroke-linecap:square;stroke-width:0.8;"/>
     </g>
     <g id="line2d_22">
      <g>
       <use style="stroke:#000000;stroke-width:0.8;" x="225" xlink:href="#m21e206e2cb" y="820.589046"/>
      </g>
     </g>
     <g id="text_11">
      <!-- −0.0648 -->
      <g transform="translate(174.629687 824.388264)scale(0.1 -0.1)">
       <use xlink:href="#DejaVuSans-2212"/>
       <use x="83.789062" xlink:href="#DejaVuSans-30"/>
       <use x="147.412109" xlink:href="#DejaVuSans-2e"/>
       <use x="179.199219" xlink:href="#DejaVuSans-30"/>
       <use x="242.822266" xlink:href="#DejaVuSans-36"/>
       <use x="306.445312" xlink:href="#DejaVuSans-34"/>
       <use x="370.068359" xlink:href="#DejaVuSans-38"/>
      </g>
     </g>
    </g>
    <g id="ytick_7">
     <g id="line2d_23">
      <path clip-path="url(#p33eac230c9)" d="M 225 728.386855 
L 1620 728.386855 
" style="fill:none;stroke:#b0b0b0;stroke-linecap:square;stroke-width:0.8;"/>
     </g>
     <g id="line2d_24">
      <g>
       <use style="stroke:#000000;stroke-width:0.8;" x="225" xlink:href="#m21e206e2cb" y="728.386855"/>
      </g>
     </g>
     <g id="text_12">
      <!-- −0.0548 -->
      <defs>
       <path d="M 10.796875 72.90625 
L 49.515625 72.90625 
L 49.515625 64.59375 
L 19.828125 64.59375 
L 19.828125 46.734375 
Q 21.96875 47.46875 24.109375 47.828125 
Q 26.265625 48.1875 28.421875 48.1875 
Q 40.625 48.1875 47.75 41.5 
Q 54.890625 34.8125 54.890625 23.390625 
Q 54.890625 11.625 47.5625 5.09375 
Q 40.234375 -1.421875 26.90625 -1.421875 
Q 22.3125 -1.421875 17.546875 -0.640625 
Q 12.796875 0.140625 7.71875 1.703125 
L 7.71875 11.625 
Q 12.109375 9.234375 16.796875 8.0625 
Q 21.484375 6.890625 26.703125 6.890625 
Q 35.15625 6.890625 40.078125 11.328125 
Q 45.015625 15.765625 45.015625 23.390625 
Q 45.015625 31 40.078125 35.4375 
Q 35.15625 39.890625 26.703125 39.890625 
Q 22.75 39.890625 18.8125 39.015625 
Q 14.890625 38.140625 10.796875 36.28125 
z
" id="DejaVuSans-35"/>
      </defs>
      <g transform="translate(174.629687 732.186073)scale(0.1 -0.1)">
       <use xlink:href="#DejaVuSans-2212"/>
       <use x="83.789062" xlink:href="#DejaVuSans-30"/>
       <use x="147.412109" xlink:href="#DejaVuSans-2e"/>
       <use x="179.199219" xlink:href="#DejaVuSans-30"/>
       <use x="242.822266" xlink:href="#DejaVuSans-35"/>
       <use x="306.445312" xlink:href="#DejaVuSans-34"/>
       <use x="370.068359" xlink:href="#DejaVuSans-38"/>
      </g>
     </g>
    </g>
    <g id="ytick_8">
     <g id="line2d_25">
      <path clip-path="url(#p33eac230c9)" d="M 225 636.184664 
L 1620 636.184664 
" style="fill:none;stroke:#b0b0b0;stroke-linecap:square;stroke-width:0.8;"/>
     </g>
     <g id="line2d_26">
      <g>
       <use style="stroke:#000000;stroke-width:0.8;" x="225" xlink:href="#m21e206e2cb" y="636.184664"/>
      </g>
     </g>
     <g id="text_13">
      <!-- −0.0448 -->
      <g transform="translate(174.629687 639.983883)scale(0.1 -0.1)">
       <use xlink:href="#DejaVuSans-2212"/>
       <use x="83.789062" xlink:href="#DejaVuSans-30"/>
       <use x="147.412109" xlink:href="#DejaVuSans-2e"/>
       <use x="179.199219" xlink:href="#DejaVuSans-30"/>
       <use x="242.822266" xlink:href="#DejaVuSans-34"/>
       <use x="306.445312" xlink:href="#DejaVuSans-34"/>
       <use x="370.068359" xlink:href="#DejaVuSans-38"/>
      </g>
     </g>
    </g>
    <g id="ytick_9">
     <g id="line2d_27">
      <path clip-path="url(#p33eac230c9)" d="M 225 543.982473 
L 1620 543.982473 
" style="fill:none;stroke:#b0b0b0;stroke-linecap:square;stroke-width:0.8;"/>
     </g>
     <g id="line2d_28">
      <g>
       <use style="stroke:#000000;stroke-width:0.8;" x="225" xlink:href="#m21e206e2cb" y="543.982473"/>
      </g>
     </g>
     <g id="text_14">
      <!-- −0.0348 -->
      <defs>
       <path d="M 40.578125 39.3125 
Q 47.65625 37.796875 51.625 33 
Q 55.609375 28.21875 55.609375 21.1875 
Q 55.609375 10.40625 48.1875 4.484375 
Q 40.765625 -1.421875 27.09375 -1.421875 
Q 22.515625 -1.421875 17.65625 -0.515625 
Q 12.796875 0.390625 7.625 2.203125 
L 7.625 11.71875 
Q 11.71875 9.328125 16.59375 8.109375 
Q 21.484375 6.890625 26.8125 6.890625 
Q 36.078125 6.890625 40.9375 10.546875 
Q 45.796875 14.203125 45.796875 21.1875 
Q 45.796875 27.640625 41.28125 31.265625 
Q 36.765625 34.90625 28.71875 34.90625 
L 20.21875 34.90625 
L 20.21875 43.015625 
L 29.109375 43.015625 
Q 36.375 43.015625 40.234375 45.921875 
Q 44.09375 48.828125 44.09375 54.296875 
Q 44.09375 59.90625 40.109375 62.90625 
Q 36.140625 65.921875 28.71875 65.921875 
Q 24.65625 65.921875 20.015625 65.03125 
Q 15.375 64.15625 9.8125 62.3125 
L 9.8125 71.09375 
Q 15.4375 72.65625 20.34375 73.4375 
Q 25.25 74.21875 29.59375 74.21875 
Q 40.828125 74.21875 47.359375 69.109375 
Q 53.90625 64.015625 53.90625 55.328125 
Q 53.90625 49.265625 50.4375 45.09375 
Q 46.96875 40.921875 40.578125 39.3125 
z
" id="DejaVuSans-33"/>
      </defs>
      <g transform="translate(174.629687 547.781692)scale(0.1 -0.1)">
       <use xlink:href="#DejaVuSans-2212"/>
       <use x="83.789062" xlink:href="#DejaVuSans-30"/>
       <use x="147.412109" xlink:href="#DejaVuSans-2e"/>
       <use x="179.199219" xlink:href="#DejaVuSans-30"/>
       <use x="242.822266" xlink:href="#DejaVuSans-33"/>
       <use x="306.445312" xlink:href="#DejaVuSans-34"/>
       <use x="370.068359" xlink:href="#DejaVuSans-38"/>
      </g>
     </g>
    </g>
    <g id="ytick_10">
     <g id="line2d_29">
      <path clip-path="url(#p33eac230c9)" d="M 225 451.780282 
L 1620 451.780282 
" style="fill:none;stroke:#b0b0b0;stroke-linecap:square;stroke-width:0.8;"/>
     </g>
     <g id="line2d_30">
      <g>
       <use style="stroke:#000000;stroke-width:0.8;" x="225" xlink:href="#m21e206e2cb" y="451.780282"/>
      </g>
     </g>
     <g id="text_15">
      <!-- −0.0248 -->
      <g transform="translate(174.629687 455.579501)scale(0.1 -0.1)">
       <use xlink:href="#DejaVuSans-2212"/>
       <use x="83.789062" xlink:href="#DejaVuSans-30"/>
       <use x="147.412109" xlink:href="#DejaVuSans-2e"/>
       <use x="179.199219" xlink:href="#DejaVuSans-30"/>
       <use x="242.822266" xlink:href="#DejaVuSans-32"/>
       <use x="306.445312" xlink:href="#DejaVuSans-34"/>
       <use x="370.068359" xlink:href="#DejaVuSans-38"/>
      </g>
     </g>
    </g>
    <g id="ytick_11">
     <g id="line2d_31">
      <path clip-path="url(#p33eac230c9)" d="M 225 359.578091 
L 1620 359.578091 
" style="fill:none;stroke:#b0b0b0;stroke-linecap:square;stroke-width:0.8;"/>
     </g>
     <g id="line2d_32">
      <g>
       <use style="stroke:#000000;stroke-width:0.8;" x="225" xlink:href="#m21e206e2cb" y="359.578091"/>
      </g>
     </g>
     <g id="text_16">
      <!-- −0.0148 -->
      <g transform="translate(174.629687 363.37731)scale(0.1 -0.1)">
       <use xlink:href="#DejaVuSans-2212"/>
       <use x="83.789062" xlink:href="#DejaVuSans-30"/>
       <use x="147.412109" xlink:href="#DejaVuSans-2e"/>
       <use x="179.199219" xlink:href="#DejaVuSans-30"/>
       <use x="242.822266" xlink:href="#DejaVuSans-31"/>
       <use x="306.445312" xlink:href="#DejaVuSans-34"/>
       <use x="370.068359" xlink:href="#DejaVuSans-38"/>
      </g>
     </g>
    </g>
    <g id="ytick_12">
     <g id="line2d_33">
      <path clip-path="url(#p33eac230c9)" d="M 225 267.3759 
L 1620 267.3759 
" style="fill:none;stroke:#b0b0b0;stroke-linecap:square;stroke-width:0.8;"/>
     </g>
     <g id="line2d_34">
      <g>
       <use style="stroke:#000000;stroke-width:0.8;" x="225" xlink:href="#m21e206e2cb" y="267.3759"/>
      </g>
     </g>
     <g id="text_17">
      <!-- −0.0048 -->
      <g transform="translate(174.629687 271.175119)scale(0.1 -0.1)">
       <use xlink:href="#DejaVuSans-2212"/>
       <use x="83.789062" xlink:href="#DejaVuSans-30"/>
       <use x="147.412109" xlink:href="#DejaVuSans-2e"/>
       <use x="179.199219" xlink:href="#DejaVuSans-30"/>
       <use x="242.822266" xlink:href="#DejaVuSans-30"/>
       <use x="306.445312" xlink:href="#DejaVuSans-34"/>
       <use x="370.068359" xlink:href="#DejaVuSans-38"/>
      </g>
     </g>
    </g>
    <g id="ytick_13">
     <g id="line2d_35">
      <path clip-path="url(#p33eac230c9)" d="M 225 175.173709 
L 1620 175.173709 
" style="fill:none;stroke:#b0b0b0;stroke-linecap:square;stroke-width:0.8;"/>
     </g>
     <g id="line2d_36">
      <g>
       <use style="stroke:#000000;stroke-width:0.8;" x="225" xlink:href="#m21e206e2cb" y="175.173709"/>
      </g>
     </g>
     <g id="text_18">
      <!-- 0.0052 -->
      <g transform="translate(183.009375 178.972928)scale(0.1 -0.1)">
       <use xlink:href="#DejaVuSans-30"/>
       <use x="63.623047" xlink:href="#DejaVuSans-2e"/>
       <use x="95.410156" xlink:href="#DejaVuSans-30"/>
       <use x="159.033203" xlink:href="#DejaVuSans-30"/>
       <use x="222.65625" xlink:href="#DejaVuSans-35"/>
       <use x="286.279297" xlink:href="#DejaVuSans-32"/>
      </g>
     </g>
    </g>
   </g>
   <g id="patch_3">
    <path clip-path="url(#p33eac230c9)" d="M 288.409091 1281.6 
L 1558.074163 1281.6 
L 1558.074163 172.8 
L 288.409091 172.8 
z
" style="opacity:0.3;"/>
   </g>
   <g id="line2d_37">
    <path clip-path="url(#p33eac230c9)" d="M 288.409091 533.716876 
L 289.892344 624.757082 
L 291.375598 624.757082 
L 292.858852 575.205342 
L 294.342105 575.205342 
L 295.825359 595.300109 
L 297.308612 595.300109 
L 298.791866 560.48834 
L 300.27512 630.726386 
L 301.758373 630.726386 
L 303.241627 566.498898 
L 304.72488 566.498898 
L 306.208134 591.072222 
L 307.691388 591.072222 
L 309.174641 525.899809 
L 310.657895 525.899809 
L 312.141148 557.807034 
L 313.624402 557.807034 
L 315.107656 560.575205 
L 316.590909 560.575205 
L 318.074163 558.206706 
L 319.557416 558.206706 
L 321.04067 525.583484 
L 322.523923 525.583484 
L 324.007177 508.448612 
L 325.490431 481.912973 
L 326.973684 481.912973 
L 328.456938 582.925107 
L 329.940191 582.925107 
L 331.423445 550.393257 
L 332.906699 550.393257 
L 334.389952 529.27966 
L 335.873206 529.27966 
L 337.356459 457.350652 
L 338.839713 481.46159 
L 340.322967 481.46159 
L 341.80622 477.612227 
L 343.289474 477.612227 
L 344.772727 436.056523 
L 346.255981 436.056523 
L 347.739234 439.007781 
L 349.222488 473.471139 
L 350.705742 473.471139 
L 352.188995 382.333588 
L 353.672249 382.333588 
L 355.155502 432.664768 
L 356.638756 432.664768 
L 358.12201 406.796398 
L 359.605263 406.796398 
L 361.088517 424.462978 
L 362.57177 424.462978 
L 364.055024 427.385932 
L 365.538278 427.385932 
L 367.021531 488.168715 
L 368.504785 488.168715 
L 369.988038 494.998308 
L 371.471292 494.998308 
L 372.954545 554.040507 
L 374.437799 554.040507 
L 375.921053 603.096307 
L 377.404306 603.096307 
L 378.88756 582.988673 
L 380.370813 582.988673 
L 381.854067 679.505296 
L 384.820574 679.505296 
L 386.303828 709.195224 
L 387.787081 821.147746 
L 389.270335 821.147746 
L 390.753589 955.699403 
L 392.236842 955.699403 
L 393.720096 998.209399 
L 395.203349 998.209399 
L 396.686603 1107.206069 
L 398.169856 1107.206069 
L 399.65311 1106.968777 
L 401.136364 1107.584215 
L 402.619617 1107.584215 
L 404.102871 1132.779643 
L 405.586124 1132.779643 
L 407.069378 1188.076098 
L 408.552632 1188.076098 
L 410.035885 1231.2 
L 411.519139 1231.2 
L 413.002392 1194.926018 
L 414.485646 1194.926018 
L 415.9689 1163.195487 
L 417.452153 1163.195487 
L 418.935407 1165.726294 
L 420.41866 1165.726294 
L 421.901914 1116.949375 
L 423.385167 1116.949375 
L 424.868421 1177.160426 
L 426.351675 1177.160426 
L 427.834928 1094.171089 
L 429.318182 1094.171089 
L 430.801435 946.443509 
L 432.284689 946.443509 
L 433.767943 907.941058 
L 435.251196 907.941058 
L 436.73445 888.992663 
L 438.217703 888.992663 
L 439.700957 872.468255 
L 441.184211 771.106955 
L 442.667464 771.106955 
L 444.150718 731.005224 
L 445.633971 731.005224 
L 447.117225 705.148922 
L 448.600478 705.148922 
L 450.083732 715.943313 
L 451.566986 611.282901 
L 453.050239 611.282901 
L 454.533493 663.611178 
L 456.016746 663.611178 
L 457.5 584.924338 
L 458.983254 584.924338 
L 460.466507 633.279417 
L 461.949761 628.265529 
L 463.433014 628.265529 
L 464.916268 596.287526 
L 466.399522 596.287526 
L 467.882775 632.317483 
L 469.366029 632.317483 
L 470.849282 601.224076 
L 472.332536 601.224076 
L 473.815789 627.645031 
L 475.299043 627.645031 
L 476.782297 671.185848 
L 478.26555 671.185848 
L 479.748804 684.844599 
L 481.232057 759.891827 
L 482.715311 759.891827 
L 484.198565 774.788184 
L 487.165072 774.788184 
L 490.131579 835.332629 
L 491.614833 835.332629 
L 493.098086 894.918436 
L 494.58134 894.918436 
L 496.064593 878.570325 
L 497.547847 878.570325 
L 499.0311 937.581141 
L 500.514354 937.581141 
L 501.997608 975.843143 
L 503.480861 975.843143 
L 504.964115 968.742044 
L 506.447368 968.742044 
L 507.930622 907.271889 
L 509.413876 939.476001 
L 510.897129 939.476001 
L 512.380383 878.715984 
L 513.863636 878.715984 
L 515.34689 921.055948 
L 516.830144 921.055948 
L 518.313397 886.686723 
L 519.796651 886.686723 
L 521.279904 862.800362 
L 522.763158 862.800362 
L 524.246411 850.880528 
L 525.729665 815.669391 
L 527.212919 815.669391 
L 528.696172 770.340663 
L 530.179426 770.340663 
L 531.662679 769.476866 
L 533.145933 769.476866 
L 534.629187 781.698696 
L 536.11244 725.54828 
L 537.595694 725.54828 
L 539.078947 743.56285 
L 540.562201 743.56285 
L 542.045455 698.024515 
L 543.528708 698.024515 
L 545.011962 701.835474 
L 546.495215 701.835474 
L 547.978469 684.281528 
L 549.461722 684.281528 
L 550.944976 741.048161 
L 552.42823 741.048161 
L 553.911483 742.830631 
L 555.394737 742.830631 
L 556.87799 754.001563 
L 558.361244 754.001563 
L 559.844498 690.520855 
L 561.327751 690.520855 
L 562.811005 731.389051 
L 564.294258 731.389051 
L 565.777512 764.23602 
L 567.260766 764.23602 
L 568.744019 872.080075 
L 570.227273 872.080075 
L 571.710526 852.813019 
L 573.19378 852.813019 
L 574.677033 854.862964 
L 576.160287 854.862964 
L 577.643541 887.304809 
L 579.126794 887.304809 
L 580.610048 864.894509 
L 582.093301 864.894509 
L 583.576555 909.95142 
L 585.059809 909.95142 
L 586.543062 952.877176 
L 588.026316 952.877176 
L 589.509569 896.172809 
L 590.992823 896.172809 
L 592.476077 923.68822 
L 593.95933 923.68822 
L 595.442584 941.579172 
L 596.925837 822.63281 
L 598.409091 822.63281 
L 599.892344 819.529716 
L 601.375598 819.529716 
L 602.858852 862.290112 
L 604.342105 862.290112 
L 605.825359 856.808518 
L 607.308612 856.808518 
L 608.791866 785.447877 
L 610.27512 785.447877 
L 611.758373 785.678753 
L 613.241627 784.722876 
L 614.72488 784.722876 
L 616.208134 717.790774 
L 617.691388 717.790774 
L 619.174641 767.967847 
L 620.657895 767.967847 
L 622.141148 765.790853 
L 623.624402 671.809354 
L 625.107656 671.809354 
L 626.590909 742.188222 
L 628.074163 742.188222 
L 629.557416 731.197826 
L 631.04067 731.197826 
L 632.523923 703.132719 
L 634.007177 703.132719 
L 635.490431 703.767937 
L 636.973684 703.767937 
L 638.456938 733.576083 
L 639.940191 733.576083 
L 641.423445 770.937324 
L 642.906699 770.937324 
L 644.389952 748.953821 
L 645.873206 748.953821 
L 647.356459 817.424181 
L 648.839713 817.424181 
L 650.322967 756.425152 
L 651.80622 843.016139 
L 653.289474 843.016139 
L 654.772727 797.716786 
L 657.739234 797.716786 
L 659.222488 862.266242 
L 660.705742 862.266242 
L 662.188995 876.00452 
L 663.672249 893.723539 
L 665.155502 893.723539 
L 666.638756 906.229172 
L 668.12201 906.229172 
L 669.605263 952.41681 
L 671.088517 952.41681 
L 672.57177 927.861837 
L 674.055024 918.472832 
L 675.538278 918.472832 
L 677.021531 890.247334 
L 678.504785 890.247334 
L 679.988038 870.217743 
L 681.471292 870.217743 
L 682.954545 866.520779 
L 684.437799 849.397526 
L 685.921053 849.397526 
L 687.404306 886.717276 
L 688.88756 886.717276 
L 690.370813 808.672483 
L 691.854067 808.672483 
L 693.337321 846.635084 
L 694.820574 846.635084 
L 696.303828 769.763722 
L 697.787081 709.76258 
L 699.270335 709.76258 
L 700.753589 685.254635 
L 702.236842 685.254635 
L 703.720096 671.904021 
L 705.203349 671.904021 
L 706.686603 609.830795 
L 708.169856 669.465272 
L 709.65311 669.465272 
L 711.136364 642.281906 
L 712.619617 642.281906 
L 714.102871 581.558329 
L 715.586124 581.558329 
L 717.069378 638.898857 
L 718.552632 638.898857 
L 720.035885 643.888023 
L 721.519139 656.612608 
L 723.002392 656.612608 
L 724.485646 623.836034 
L 725.9689 623.836034 
L 727.452153 644.589772 
L 728.935407 644.589772 
L 730.41866 683.394069 
L 731.901914 683.394069 
L 733.385167 771.821426 
L 734.868421 838.154533 
L 736.351675 838.154533 
L 737.834928 786.918849 
L 739.318182 786.918849 
L 740.801435 874.023625 
L 742.284689 874.023625 
L 743.767943 955.949917 
L 745.251196 955.949917 
L 746.73445 930.706213 
L 748.217703 981.471739 
L 749.700957 981.471739 
L 751.184211 1052.971755 
L 752.667464 1052.971755 
L 754.150718 1002.963185 
L 755.633971 1002.963185 
L 757.117225 1057.716429 
L 760.083732 1057.733556 
L 761.566986 1050.420824 
L 763.050239 1050.420824 
L 764.533493 1057.796064 
L 766.016746 1057.796064 
L 767.5 989.503731 
L 768.983254 989.503731 
L 770.466507 947.595221 
L 771.949761 947.595221 
L 773.433014 888.764885 
L 774.916268 888.764885 
L 776.399522 923.98164 
L 777.882775 923.98164 
L 779.366029 884.289006 
L 780.849282 855.491648 
L 782.332536 855.491648 
L 783.815789 860.079971 
L 785.299043 860.079971 
L 786.782297 827.171043 
L 788.26555 827.171043 
L 789.748804 839.719114 
L 791.232057 839.719114 
L 792.715311 693.054113 
L 794.198565 720.882961 
L 795.681818 720.882961 
L 797.165072 759.859727 
L 798.648325 615.810309 
L 800.131579 615.810309 
L 801.614833 686.119913 
L 803.098086 686.119913 
L 804.58134 706.835804 
L 806.064593 706.835804 
L 807.547847 660.861632 
L 809.0311 660.861632 
L 810.514354 667.529579 
L 811.997608 667.529579 
L 813.480861 696.64177 
L 814.964115 696.64177 
L 816.447368 753.842117 
L 817.930622 753.842117 
L 819.413876 809.512631 
L 820.897129 809.512631 
L 822.380383 821.478568 
L 823.863636 821.478568 
L 825.34689 885.29002 
L 826.830144 885.29002 
L 828.313397 832.529828 
L 829.796651 830.925885 
L 831.279904 830.925885 
L 832.763158 905.849897 
L 834.246411 905.849897 
L 835.729665 973.636928 
L 837.212919 973.636928 
L 838.696172 1017.378689 
L 840.179426 1017.378689 
L 841.662679 967.818215 
L 843.145933 1015.203584 
L 844.629187 1015.203584 
L 846.11244 1067.649189 
L 847.595694 1067.649189 
L 849.078947 1017.451053 
L 850.562201 1017.451053 
L 852.045455 1004.925923 
L 853.528708 981.265001 
L 855.011962 1015.006052 
L 856.495215 1015.006052 
L 857.978469 944.800619 
L 859.461722 944.800619 
L 860.944976 941.189646 
L 862.42823 941.189646 
L 863.911483 873.836629 
L 865.394737 886.107515 
L 866.87799 886.107515 
L 868.361244 808.553271 
L 869.844498 808.553271 
L 871.327751 791.114713 
L 872.811005 791.114713 
L 874.294258 752.474024 
L 875.777512 752.474024 
L 877.260766 761.143282 
L 878.744019 848.558161 
L 880.227273 848.558161 
L 881.710526 762.765593 
L 883.19378 762.765593 
L 884.677033 803.06354 
L 886.160287 803.06354 
L 887.643541 702.334828 
L 889.126794 654.590322 
L 890.610048 654.590322 
L 892.093301 677.813782 
L 893.576555 677.813782 
L 895.059809 666.983532 
L 896.543062 664.850703 
L 898.026316 664.850703 
L 899.509569 668.560133 
L 900.992823 668.560133 
L 902.476077 696.007922 
L 903.95933 696.007922 
L 905.442584 720.759768 
L 906.925837 720.759768 
L 908.409091 674.307256 
L 909.892344 674.307256 
L 911.375598 730.17161 
L 912.858852 712.056395 
L 914.342105 712.056395 
L 915.825359 762.138723 
L 917.308612 762.138723 
L 918.791866 808.540128 
L 920.27512 808.540128 
L 921.758373 838.768222 
L 923.241627 846.767567 
L 924.72488 846.767567 
L 926.208134 787.400728 
L 927.691388 787.400728 
L 929.174641 963.564979 
L 930.657895 929.908744 
L 932.141148 929.908744 
L 933.624402 951.268677 
L 935.107656 951.268677 
L 936.590909 918.887818 
L 938.074163 918.887818 
L 939.557416 981.128795 
L 941.04067 981.128795 
L 942.523923 898.473127 
L 944.007177 867.553157 
L 945.490431 867.553157 
L 946.973684 882.230203 
L 948.456938 882.230203 
L 949.940191 827.033538 
L 951.423445 827.033538 
L 952.906699 808.907362 
L 954.389952 770.420978 
L 955.873206 770.420978 
L 957.356459 818.081044 
L 958.839713 740.964447 
L 960.322967 740.964447 
L 961.80622 726.342013 
L 963.289474 726.342013 
L 964.772727 756.689572 
L 966.255981 756.689572 
L 967.739234 734.072242 
L 969.222488 785.422128 
L 970.705742 785.422128 
L 972.188995 714.850278 
L 973.672249 714.850278 
L 975.155502 697.030048 
L 976.638756 697.030048 
L 978.12201 700.327545 
L 979.605263 700.327545 
L 981.088517 745.406636 
L 982.57177 745.406636 
L 984.055024 728.188325 
L 985.538278 741.447705 
L 987.021531 741.447705 
L 988.504785 684.537844 
L 989.988038 684.537844 
L 991.471292 760.874731 
L 992.954545 760.874731 
L 994.437799 783.521122 
L 995.921053 729.623129 
L 997.404306 729.623129 
L 998.88756 817.895942 
L 1000.370813 817.895942 
L 1001.854067 881.063344 
L 1003.337321 881.063344 
L 1004.820574 893.681097 
L 1006.303828 873.456945 
L 1007.787081 873.456945 
L 1009.270335 943.343322 
L 1010.753589 943.343322 
L 1012.236842 916.732351 
L 1013.720096 916.732351 
L 1015.203349 908.151385 
L 1016.686603 908.151385 
L 1018.169856 1002.147991 
L 1019.65311 970.406439 
L 1021.136364 970.406439 
L 1022.619617 977.694523 
L 1024.102871 977.694523 
L 1025.586124 960.466482 
L 1027.069378 960.466482 
L 1028.552632 986.257837 
L 1030.035885 971.677083 
L 1031.519139 971.677083 
L 1033.002392 974.869667 
L 1034.485646 974.869667 
L 1035.9689 892.251926 
L 1037.452153 892.251926 
L 1038.935407 906.169925 
L 1040.41866 906.169925 
L 1041.901914 883.755449 
L 1043.385167 883.755449 
L 1044.868421 928.761084 
L 1046.351675 928.761084 
L 1047.834928 827.87572 
L 1049.318182 827.87572 
L 1050.801435 766.30514 
L 1052.284689 766.30514 
L 1053.767943 802.699771 
L 1055.251196 787.934366 
L 1056.73445 787.934366 
L 1058.217703 794.007327 
L 1059.700957 794.007327 
L 1061.184211 777.357027 
L 1062.667464 777.357027 
L 1064.150718 733.247327 
L 1065.633971 659.24314 
L 1067.117225 659.24314 
L 1068.600478 688.625219 
L 1070.083732 688.625219 
L 1071.566986 638.804974 
L 1073.050239 638.804974 
L 1074.533493 713.348211 
L 1076.016746 684.323183 
L 1077.5 684.323183 
L 1078.983254 684.766327 
L 1080.466507 684.766327 
L 1081.949761 684.563574 
L 1083.433014 684.563574 
L 1084.916268 794.083401 
L 1086.399522 794.083401 
L 1087.882775 710.908507 
L 1089.366029 745.406096 
L 1090.849282 745.406096 
L 1092.332536 806.697047 
L 1093.815789 806.697047 
L 1095.299043 850.972144 
L 1096.782297 850.972144 
L 1098.26555 815.673982 
L 1099.748804 815.673982 
L 1101.232057 866.779942 
L 1102.715311 867.418786 
L 1104.198565 867.418786 
L 1105.681818 872.250547 
L 1107.165072 872.250547 
L 1108.648325 942.843437 
L 1110.131579 942.843437 
L 1111.614833 952.116858 
L 1113.098086 952.116858 
L 1114.58134 925.225572 
L 1116.064593 952.245977 
L 1117.547847 952.245977 
L 1119.0311 931.808311 
L 1120.514354 931.808311 
L 1121.997608 957.506259 
L 1123.480861 957.506259 
L 1126.447368 898.539338 
L 1127.930622 898.539338 
L 1129.413876 926.318076 
L 1130.897129 926.318076 
L 1132.380383 925.847991 
L 1133.863636 925.847991 
L 1135.34689 867.250798 
L 1136.830144 867.250798 
L 1138.313397 846.746238 
L 1139.796651 846.746238 
L 1141.279904 823.201922 
L 1142.763158 823.201922 
L 1144.246411 865.718878 
L 1145.729665 865.718878 
L 1147.212919 782.581225 
L 1148.696172 782.581225 
L 1150.179426 728.48845 
L 1151.662679 733.159154 
L 1153.145933 733.159154 
L 1154.629187 696.026202 
L 1156.11244 696.026202 
L 1157.595694 708.480345 
L 1159.078947 708.480345 
L 1160.562201 670.187083 
L 1162.045455 670.187083 
L 1163.528708 719.410706 
L 1165.011962 719.410706 
L 1166.495215 713.022087 
L 1167.978469 713.022087 
L 1169.461722 659.362976 
L 1170.944976 659.362976 
L 1172.42823 716.137798 
L 1173.911483 716.137798 
L 1175.394737 735.766027 
L 1176.87799 771.364834 
L 1178.361244 771.364834 
L 1179.844498 706.626456 
L 1181.327751 706.626456 
L 1182.811005 776.021494 
L 1184.294258 776.021494 
L 1185.777512 763.826277 
L 1187.260766 763.826277 
L 1188.744019 801.279574 
L 1190.227273 801.279574 
L 1191.710526 902.556971 
L 1193.19378 848.531291 
L 1194.677033 848.531291 
L 1196.160287 906.425665 
L 1197.643541 906.425665 
L 1199.126794 902.297825 
L 1200.610048 902.297825 
L 1202.093301 892.10837 
L 1203.576555 918.974255 
L 1205.059809 918.974255 
L 1206.543062 944.795945 
L 1208.026316 944.795945 
L 1209.509569 956.307618 
L 1210.992823 956.307618 
L 1212.476077 933.834538 
L 1213.95933 933.834538 
L 1215.442584 898.258837 
L 1218.409091 898.258837 
L 1219.892344 888.13056 
L 1221.375598 888.13056 
L 1222.858852 766.997551 
L 1224.342105 766.997551 
L 1225.825359 731.552688 
L 1227.308612 731.552688 
L 1228.791866 762.751828 
L 1230.27512 762.751828 
L 1231.758373 712.921957 
L 1233.241627 713.604744 
L 1234.72488 713.604744 
L 1236.208134 693.307436 
L 1237.691388 693.307436 
L 1239.174641 685.586533 
L 1240.657895 685.586533 
L 1242.141148 623.383872 
L 1243.624402 623.383872 
L 1245.107656 663.6276 
L 1246.590909 679.398037 
L 1248.074163 679.398037 
L 1249.557416 690.573094 
L 1251.04067 690.573094 
L 1252.523923 674.75592 
L 1254.007177 674.75592 
L 1255.490431 633.298842 
L 1256.973684 633.298842 
L 1258.456938 657.84058 
L 1259.940191 657.84058 
L 1261.423445 618.989547 
L 1262.906699 644.775421 
L 1264.389952 644.775421 
L 1265.873206 631.231149 
L 1267.356459 631.231149 
L 1268.839713 722.187787 
L 1270.322967 722.187787 
L 1271.80622 650.427378 
L 1273.289474 650.427378 
L 1274.772727 710.33476 
L 1276.255981 710.33476 
L 1277.739234 724.393451 
L 1279.222488 724.393451 
L 1280.705742 715.20384 
L 1282.188995 796.791286 
L 1283.672249 796.791286 
L 1285.155502 745.835787 
L 1286.638756 745.835787 
L 1288.12201 792.257931 
L 1289.605263 792.257931 
L 1291.088517 769.386347 
L 1292.57177 769.386347 
L 1294.055024 777.672311 
L 1295.538278 777.672311 
L 1297.021531 777.533809 
L 1298.504785 777.533809 
L 1299.988038 823.556828 
L 1301.471292 823.556828 
L 1302.954545 886.498624 
L 1304.437799 886.498624 
L 1305.921053 879.753513 
L 1307.404306 879.753513 
L 1308.88756 897.640487 
L 1310.370813 897.640487 
L 1311.854067 888.359277 
L 1313.337321 888.359277 
L 1314.820574 911.975976 
L 1316.303828 911.975976 
L 1317.787081 887.097388 
L 1319.270335 887.097388 
L 1320.753589 913.710967 
L 1322.236842 913.710967 
L 1323.720096 889.668998 
L 1325.203349 889.668998 
L 1326.686603 911.710831 
L 1328.169856 911.710831 
L 1329.65311 826.369426 
L 1331.136364 826.369426 
L 1332.619617 849.358801 
L 1334.102871 849.358801 
L 1335.586124 775.258383 
L 1337.069378 775.258383 
L 1338.552632 758.297359 
L 1340.035885 739.248053 
L 1341.519139 739.248053 
L 1343.002392 799.990149 
L 1344.485646 799.990149 
L 1345.9689 739.078771 
L 1348.935407 739.078771 
L 1350.41866 728.356336 
L 1351.901914 757.089999 
L 1353.385167 757.089999 
L 1354.868421 712.025432 
L 1356.351675 712.025432 
L 1357.834928 769.919285 
L 1359.318182 769.919285 
L 1360.801435 708.638726 
L 1362.284689 708.638726 
L 1363.767943 762.253542 
L 1365.251196 762.253542 
L 1366.73445 777.932755 
L 1368.217703 777.932755 
L 1369.700957 777.273364 
L 1371.184211 777.273364 
L 1372.667464 802.915573 
L 1374.150718 787.671212 
L 1377.117225 787.671212 
L 1378.600478 820.331684 
L 1380.083732 866.728093 
L 1381.566986 866.728093 
L 1383.050239 870.22437 
L 1384.533493 870.22437 
L 1386.016746 844.504755 
L 1387.5 844.504755 
L 1388.983254 874.770958 
L 1390.466507 874.770958 
L 1391.949761 846.325784 
L 1394.916268 846.325784 
L 1396.399522 955.423983 
L 1397.882775 955.423983 
L 1399.366029 885.537796 
L 1400.849282 908.755131 
L 1402.332536 908.755131 
L 1403.815789 872.170797 
L 1405.299043 872.170797 
L 1406.782297 935.643203 
L 1408.26555 935.643203 
L 1409.748804 900.845204 
L 1411.232057 900.845204 
L 1412.715311 902.63702 
L 1414.198565 831.981432 
L 1415.681818 831.981432 
L 1417.165072 859.922299 
L 1418.648325 859.922299 
L 1420.131579 827.910533 
L 1421.614833 827.910533 
L 1423.098086 841.72611 
L 1424.58134 841.72611 
L 1426.064593 799.573947 
L 1427.547847 799.573947 
L 1429.0311 747.269261 
L 1430.514354 747.269261 
L 1431.997608 733.13285 
L 1433.480861 748.742191 
L 1434.964115 748.742191 
L 1436.447368 740.940365 
L 1437.930622 740.940365 
L 1439.413876 724.121783 
L 1440.897129 724.121783 
L 1442.380383 741.386684 
L 1443.863636 741.386684 
L 1445.34689 672.016341 
L 1446.830144 693.381793 
L 1448.313397 693.381793 
L 1449.796651 728.739778 
L 1451.279904 728.739778 
L 1452.763158 743.532955 
L 1454.246411 743.532955 
L 1455.729665 745.966 
L 1457.212919 777.15286 
L 1458.696172 777.15286 
L 1460.179426 738.632624 
L 1461.662679 738.632624 
L 1463.145933 795.150615 
L 1464.629187 795.150615 
L 1466.11244 839.457778 
L 1467.595694 839.457778 
L 1469.078947 830.819571 
L 1470.562201 847.855315 
L 1472.045455 847.855315 
L 1473.528708 860.534238 
L 1475.011962 860.534238 
L 1476.495215 886.296183 
L 1477.978469 886.296183 
L 1479.461722 939.885349 
L 1480.944976 939.885349 
L 1482.42823 905.97473 
L 1483.911483 905.97473 
L 1485.394737 968.813549 
L 1486.87799 934.0471 
L 1488.361244 934.0471 
L 1489.844498 962.340779 
L 1491.327751 962.340779 
L 1492.811005 951.867282 
L 1494.294258 951.867282 
L 1495.777512 971.669663 
L 1497.260766 915.495334 
L 1498.744019 915.495334 
L 1500.227273 920.08374 
L 1501.710526 920.08374 
L 1503.19378 877.325702 
L 1504.677033 877.325702 
L 1506.160287 870.0936 
L 1507.643541 870.0936 
L 1509.126794 860.654368 
L 1510.610048 860.654368 
L 1512.093301 816.766236 
L 1513.576555 816.766236 
L 1515.059809 824.830966 
L 1516.543062 824.830966 
L 1518.026316 805.1885 
L 1519.509569 805.1885 
L 1520.992823 750.26116 
L 1522.476077 750.26116 
L 1523.95933 766.163101 
L 1526.925837 766.163101 
L 1528.409091 755.060056 
L 1529.892344 700.601946 
L 1531.375598 700.601946 
L 1532.858852 736.47547 
L 1534.342105 736.47547 
L 1535.825359 703.329202 
L 1537.308612 703.329202 
L 1538.791866 803.493076 
L 1540.27512 803.493076 
L 1541.758373 765.579706 
L 1543.241627 734.453499 
L 1544.72488 734.453499 
L 1546.208134 779.398716 
L 1547.691388 779.398716 
L 1549.174641 779.179616 
L 1550.657895 779.179616 
L 1552.141148 799.121342 
L 1553.624402 799.121342 
L 1555.107656 791.236277 
L 1556.590909 791.236277 
L 1556.590909 791.236277 
" style="fill:none;stroke:#000000;stroke-linecap:square;stroke-width:1.5;"/>
   </g>
   <g id="line2d_38">
    <path clip-path="url(#p33eac230c9)" d="M 288.409091 223.2 
L 1556.590909 223.2 
L 1556.590909 223.2 
" style="fill:none;stroke:#ff0000;stroke-linecap:square;stroke-width:1.5;"/>
   </g>
   <g id="patch_4">
    <path d="M 225 1281.6 
L 225 172.8 
" style="fill:none;stroke:#000000;stroke-linecap:square;stroke-linejoin:miter;stroke-width:0.8;"/>
   </g>
   <g id="patch_5">
    <path d="M 1620 1281.6 
L 1620 172.8 
" style="fill:none;stroke:#000000;stroke-linecap:square;stroke-linejoin:miter;stroke-width:0.8;"/>
   </g>
   <g id="patch_6">
    <path d="M 225 1281.6 
L 1620 1281.6 
" style="fill:none;stroke:#000000;stroke-linecap:square;stroke-linejoin:miter;stroke-width:0.8;"/>
   </g>
   <g id="patch_7">
    <path d="M 225 172.8 
L 1620 172.8 
" style="fill:none;stroke:#000000;stroke-linecap:square;stroke-linejoin:miter;stroke-width:0.8;"/>
   </g>
   <g id="legend_1">
    <g id="patch_8">
     <path d="M 232 1276.6 
L 340.154688 1276.6 
Q 342.154688 1276.6 342.154688 1274.6 
L 342.154688 1231.565625 
Q 342.154688 1229.565625 340.154688 1229.565625 
L 232 1229.565625 
Q 230 1229.565625 230 1231.565625 
L 230 1274.6 
Q 230 1276.6 232 1276.6 
z
" style="fill:#ffffff;opacity:0.8;stroke:#cccccc;stroke-linejoin:miter;"/>
    </g>
    <g id="line2d_39">
     <path d="M 234 1237.664062 
L 254 1237.664062 
" style="fill:none;stroke:#000000;stroke-linecap:square;stroke-width:1.5;"/>
    </g>
    <g id="line2d_40"/>
    <g id="text_19">
     <!-- Pitch position -->
     <defs>
      <path d="M 19.671875 64.796875 
L 19.671875 37.40625 
L 32.078125 37.40625 
Q 38.96875 37.40625 42.71875 40.96875 
Q 46.484375 44.53125 46.484375 51.125 
Q 46.484375 57.671875 42.71875 61.234375 
Q 38.96875 64.796875 32.078125 64.796875 
z
M 9.8125 72.90625 
L 32.078125 72.90625 
Q 44.34375 72.90625 50.609375 67.359375 
Q 56.890625 61.8125 56.890625 51.125 
Q 56.890625 40.328125 50.609375 34.8125 
Q 44.34375 29.296875 32.078125 29.296875 
L 19.671875 29.296875 
L 19.671875 0 
L 9.8125 0 
z
" id="DejaVuSans-50"/>
      <path d="M 9.421875 54.6875 
L 18.40625 54.6875 
L 18.40625 0 
L 9.421875 0 
z
M 9.421875 75.984375 
L 18.40625 75.984375 
L 18.40625 64.59375 
L 9.421875 64.59375 
z
" id="DejaVuSans-69"/>
      <path d="M 18.3125 70.21875 
L 18.3125 54.6875 
L 36.8125 54.6875 
L 36.8125 47.703125 
L 18.3125 47.703125 
L 18.3125 18.015625 
Q 18.3125 11.328125 20.140625 9.421875 
Q 21.96875 7.515625 27.59375 7.515625 
L 36.8125 7.515625 
L 36.8125 0 
L 27.59375 0 
Q 17.1875 0 13.234375 3.875 
Q 9.28125 7.765625 9.28125 18.015625 
L 9.28125 47.703125 
L 2.6875 47.703125 
L 2.6875 54.6875 
L 9.28125 54.6875 
L 9.28125 70.21875 
z
" id="DejaVuSans-74"/>
      <path d="M 48.78125 52.59375 
L 48.78125 44.1875 
Q 44.96875 46.296875 41.140625 47.34375 
Q 37.3125 48.390625 33.40625 48.390625 
Q 24.65625 48.390625 19.8125 42.84375 
Q 14.984375 37.3125 14.984375 27.296875 
Q 14.984375 17.28125 19.8125 11.734375 
Q 24.65625 6.203125 33.40625 6.203125 
Q 37.3125 6.203125 41.140625 7.25 
Q 44.96875 8.296875 48.78125 10.40625 
L 48.78125 2.09375 
Q 45.015625 0.34375 40.984375 -0.53125 
Q 36.96875 -1.421875 32.421875 -1.421875 
Q 20.0625 -1.421875 12.78125 6.34375 
Q 5.515625 14.109375 5.515625 27.296875 
Q 5.515625 40.671875 12.859375 48.328125 
Q 20.21875 56 33.015625 56 
Q 37.15625 56 41.109375 55.140625 
Q 45.0625 54.296875 48.78125 52.59375 
z
" id="DejaVuSans-63"/>
      <path d="M 54.890625 33.015625 
L 54.890625 0 
L 45.90625 0 
L 45.90625 32.71875 
Q 45.90625 40.484375 42.875 44.328125 
Q 39.84375 48.1875 33.796875 48.1875 
Q 26.515625 48.1875 22.3125 43.546875 
Q 18.109375 38.921875 18.109375 30.90625 
L 18.109375 0 
L 9.078125 0 
L 9.078125 75.984375 
L 18.109375 75.984375 
L 18.109375 46.1875 
Q 21.34375 51.125 25.703125 53.5625 
Q 30.078125 56 35.796875 56 
Q 45.21875 56 50.046875 50.171875 
Q 54.890625 44.34375 54.890625 33.015625 
z
" id="DejaVuSans-68"/>
      <path id="DejaVuSans-20"/>
      <path d="M 18.109375 8.203125 
L 18.109375 -20.796875 
L 9.078125 -20.796875 
L 9.078125 54.6875 
L 18.109375 54.6875 
L 18.109375 46.390625 
Q 20.953125 51.265625 25.265625 53.625 
Q 29.59375 56 35.59375 56 
Q 45.5625 56 51.78125 48.09375 
Q 58.015625 40.1875 58.015625 27.296875 
Q 58.015625 14.40625 51.78125 6.484375 
Q 45.5625 -1.421875 35.59375 -1.421875 
Q 29.59375 -1.421875 25.265625 0.953125 
Q 20.953125 3.328125 18.109375 8.203125 
z
M 48.6875 27.296875 
Q 48.6875 37.203125 44.609375 42.84375 
Q 40.53125 48.484375 33.40625 48.484375 
Q 26.265625 48.484375 22.1875 42.84375 
Q 18.109375 37.203125 18.109375 27.296875 
Q 18.109375 17.390625 22.1875 11.75 
Q 26.265625 6.109375 33.40625 6.109375 
Q 40.53125 6.109375 44.609375 11.75 
Q 48.6875 17.390625 48.6875 27.296875 
z
" id="DejaVuSans-70"/>
      <path d="M 30.609375 48.390625 
Q 23.390625 48.390625 19.1875 42.75 
Q 14.984375 37.109375 14.984375 27.296875 
Q 14.984375 17.484375 19.15625 11.84375 
Q 23.34375 6.203125 30.609375 6.203125 
Q 37.796875 6.203125 41.984375 11.859375 
Q 46.1875 17.53125 46.1875 27.296875 
Q 46.1875 37.015625 41.984375 42.703125 
Q 37.796875 48.390625 30.609375 48.390625 
z
M 30.609375 56 
Q 42.328125 56 49.015625 48.375 
Q 55.71875 40.765625 55.71875 27.296875 
Q 55.71875 13.875 49.015625 6.21875 
Q 42.328125 -1.421875 30.609375 -1.421875 
Q 18.84375 -1.421875 12.171875 6.21875 
Q 5.515625 13.875 5.515625 27.296875 
Q 5.515625 40.765625 12.171875 48.375 
Q 18.84375 56 30.609375 56 
z
" id="DejaVuSans-6f"/>
      <path d="M 44.28125 53.078125 
L 44.28125 44.578125 
Q 40.484375 46.53125 36.375 47.5 
Q 32.28125 48.484375 27.875 48.484375 
Q 21.1875 48.484375 17.84375 46.4375 
Q 14.5 44.390625 14.5 40.28125 
Q 14.5 37.15625 16.890625 35.375 
Q 19.28125 33.59375 26.515625 31.984375 
L 29.59375 31.296875 
Q 39.15625 29.25 43.1875 25.515625 
Q 47.21875 21.78125 47.21875 15.09375 
Q 47.21875 7.46875 41.1875 3.015625 
Q 35.15625 -1.421875 24.609375 -1.421875 
Q 20.21875 -1.421875 15.453125 -0.5625 
Q 10.6875 0.296875 5.421875 2 
L 5.421875 11.28125 
Q 10.40625 8.6875 15.234375 7.390625 
Q 20.0625 6.109375 24.8125 6.109375 
Q 31.15625 6.109375 34.5625 8.28125 
Q 37.984375 10.453125 37.984375 14.40625 
Q 37.984375 18.0625 35.515625 20.015625 
Q 33.0625 21.96875 24.703125 23.78125 
L 21.578125 24.515625 
Q 13.234375 26.265625 9.515625 29.90625 
Q 5.8125 33.546875 5.8125 39.890625 
Q 5.8125 47.609375 11.28125 51.796875 
Q 16.75 56 26.8125 56 
Q 31.78125 56 36.171875 55.265625 
Q 40.578125 54.546875 44.28125 53.078125 
z
" id="DejaVuSans-73"/>
      <path d="M 54.890625 33.015625 
L 54.890625 0 
L 45.90625 0 
L 45.90625 32.71875 
Q 45.90625 40.484375 42.875 44.328125 
Q 39.84375 48.1875 33.796875 48.1875 
Q 26.515625 48.1875 22.3125 43.546875 
Q 18.109375 38.921875 18.109375 30.90625 
L 18.109375 0 
L 9.078125 0 
L 9.078125 54.6875 
L 18.109375 54.6875 
L 18.109375 46.1875 
Q 21.34375 51.125 25.703125 53.5625 
Q 30.078125 56 35.796875 56 
Q 45.21875 56 50.046875 50.171875 
Q 54.890625 44.34375 54.890625 33.015625 
z
" id="DejaVuSans-6e"/>
     </defs>
     <g transform="translate(262 1241.164062)scale(0.1 -0.1)">
      <use xlink:href="#DejaVuSans-50"/>
      <use x="60.271484" xlink:href="#DejaVuSans-69"/>
      <use x="88.054688" xlink:href="#DejaVuSans-74"/>
      <use x="127.263672" xlink:href="#DejaVuSans-63"/>
      <use x="182.244141" xlink:href="#DejaVuSans-68"/>
      <use x="245.623047" xlink:href="#DejaVuSans-20"/>
      <use x="277.410156" xlink:href="#DejaVuSans-70"/>
      <use x="340.886719" xlink:href="#DejaVuSans-6f"/>
      <use x="402.068359" xlink:href="#DejaVuSans-73"/>
      <use x="454.167969" xlink:href="#DejaVuSans-69"/>
      <use x="481.951172" xlink:href="#DejaVuSans-74"/>
      <use x="521.160156" xlink:href="#DejaVuSans-69"/>
      <use x="548.943359" xlink:href="#DejaVuSans-6f"/>
      <use x="610.125" xlink:href="#DejaVuSans-6e"/>
     </g>
    </g>
    <g id="line2d_41">
     <path d="M 234 1252.342187 
L 254 1252.342187 
" style="fill:none;stroke:#ff0000;stroke-linecap:square;stroke-width:1.5;"/>
    </g>
    <g id="line2d_42"/>
    <g id="text_20">
     <!-- goal -->
     <defs>
      <path d="M 45.40625 27.984375 
Q 45.40625 37.75 41.375 43.109375 
Q 37.359375 48.484375 30.078125 48.484375 
Q 22.859375 48.484375 18.828125 43.109375 
Q 14.796875 37.75 14.796875 27.984375 
Q 14.796875 18.265625 18.828125 12.890625 
Q 22.859375 7.515625 30.078125 7.515625 
Q 37.359375 7.515625 41.375 12.890625 
Q 45.40625 18.265625 45.40625 27.984375 
z
M 54.390625 6.78125 
Q 54.390625 -7.171875 48.1875 -13.984375 
Q 42 -20.796875 29.203125 -20.796875 
Q 24.46875 -20.796875 20.265625 -20.09375 
Q 16.0625 -19.390625 12.109375 -17.921875 
L 12.109375 -9.1875 
Q 16.0625 -11.328125 19.921875 -12.34375 
Q 23.78125 -13.375 27.78125 -13.375 
Q 36.625 -13.375 41.015625 -8.765625 
Q 45.40625 -4.15625 45.40625 5.171875 
L 45.40625 9.625 
Q 42.625 4.78125 38.28125 2.390625 
Q 33.9375 0 27.875 0 
Q 17.828125 0 11.671875 7.65625 
Q 5.515625 15.328125 5.515625 27.984375 
Q 5.515625 40.671875 11.671875 48.328125 
Q 17.828125 56 27.875 56 
Q 33.9375 56 38.28125 53.609375 
Q 42.625 51.21875 45.40625 46.390625 
L 45.40625 54.6875 
L 54.390625 54.6875 
z
" id="DejaVuSans-67"/>
      <path d="M 34.28125 27.484375 
Q 23.390625 27.484375 19.1875 25 
Q 14.984375 22.515625 14.984375 16.5 
Q 14.984375 11.71875 18.140625 8.90625 
Q 21.296875 6.109375 26.703125 6.109375 
Q 34.1875 6.109375 38.703125 11.40625 
Q 43.21875 16.703125 43.21875 25.484375 
L 43.21875 27.484375 
z
M 52.203125 31.203125 
L 52.203125 0 
L 43.21875 0 
L 43.21875 8.296875 
Q 40.140625 3.328125 35.546875 0.953125 
Q 30.953125 -1.421875 24.3125 -1.421875 
Q 15.921875 -1.421875 10.953125 3.296875 
Q 6 8.015625 6 15.921875 
Q 6 25.140625 12.171875 29.828125 
Q 18.359375 34.515625 30.609375 34.515625 
L 43.21875 34.515625 
L 43.21875 35.40625 
Q 43.21875 41.609375 39.140625 45 
Q 35.0625 48.390625 27.6875 48.390625 
Q 23 48.390625 18.546875 47.265625 
Q 14.109375 46.140625 10.015625 43.890625 
L 10.015625 52.203125 
Q 14.9375 54.109375 19.578125 55.046875 
Q 24.21875 56 28.609375 56 
Q 40.484375 56 46.34375 49.84375 
Q 52.203125 43.703125 52.203125 31.203125 
z
" id="DejaVuSans-61"/>
      <path d="M 9.421875 75.984375 
L 18.40625 75.984375 
L 18.40625 0 
L 9.421875 0 
z
" id="DejaVuSans-6c"/>
     </defs>
     <g transform="translate(262 1255.842187)scale(0.1 -0.1)">
      <use xlink:href="#DejaVuSans-67"/>
      <use x="63.476562" xlink:href="#DejaVuSans-6f"/>
      <use x="124.658203" xlink:href="#DejaVuSans-61"/>
      <use x="185.9375" xlink:href="#DejaVuSans-6c"/>
     </g>
    </g>
    <g id="patch_9">
     <path d="M 234 1270.520313 
L 254 1270.520313 
L 254 1263.520313 
L 234 1263.520313 
z
" style="opacity:0.3;"/>
    </g>
    <g id="text_21">
     <!-- +PITCH motion -->
     <defs>
      <path d="M 46 62.703125 
L 46 35.5 
L 73.1875 35.5 
L 73.1875 27.203125 
L 46 27.203125 
L 46 0 
L 37.796875 0 
L 37.796875 27.203125 
L 10.59375 27.203125 
L 10.59375 35.5 
L 37.796875 35.5 
L 37.796875 62.703125 
z
" id="DejaVuSans-2b"/>
      <path d="M 9.8125 72.90625 
L 19.671875 72.90625 
L 19.671875 0 
L 9.8125 0 
z
" id="DejaVuSans-49"/>
      <path d="M -0.296875 72.90625 
L 61.375 72.90625 
L 61.375 64.59375 
L 35.5 64.59375 
L 35.5 0 
L 25.59375 0 
L 25.59375 64.59375 
L -0.296875 64.59375 
z
" id="DejaVuSans-54"/>
      <path d="M 64.40625 67.28125 
L 64.40625 56.890625 
Q 59.421875 61.53125 53.78125 63.8125 
Q 48.140625 66.109375 41.796875 66.109375 
Q 29.296875 66.109375 22.65625 58.46875 
Q 16.015625 50.828125 16.015625 36.375 
Q 16.015625 21.96875 22.65625 14.328125 
Q 29.296875 6.6875 41.796875 6.6875 
Q 48.140625 6.6875 53.78125 8.984375 
Q 59.421875 11.28125 64.40625 15.921875 
L 64.40625 5.609375 
Q 59.234375 2.09375 53.4375 0.328125 
Q 47.65625 -1.421875 41.21875 -1.421875 
Q 24.65625 -1.421875 15.125 8.703125 
Q 5.609375 18.84375 5.609375 36.375 
Q 5.609375 53.953125 15.125 64.078125 
Q 24.65625 74.21875 41.21875 74.21875 
Q 47.75 74.21875 53.53125 72.484375 
Q 59.328125 70.75 64.40625 67.28125 
z
" id="DejaVuSans-43"/>
      <path d="M 9.8125 72.90625 
L 19.671875 72.90625 
L 19.671875 43.015625 
L 55.515625 43.015625 
L 55.515625 72.90625 
L 65.375 72.90625 
L 65.375 0 
L 55.515625 0 
L 55.515625 34.71875 
L 19.671875 34.71875 
L 19.671875 0 
L 9.8125 0 
z
" id="DejaVuSans-48"/>
      <path d="M 52 44.1875 
Q 55.375 50.25 60.0625 53.125 
Q 64.75 56 71.09375 56 
Q 79.640625 56 84.28125 50.015625 
Q 88.921875 44.046875 88.921875 33.015625 
L 88.921875 0 
L 79.890625 0 
L 79.890625 32.71875 
Q 79.890625 40.578125 77.09375 44.375 
Q 74.3125 48.1875 68.609375 48.1875 
Q 61.625 48.1875 57.5625 43.546875 
Q 53.515625 38.921875 53.515625 30.90625 
L 53.515625 0 
L 44.484375 0 
L 44.484375 32.71875 
Q 44.484375 40.625 41.703125 44.40625 
Q 38.921875 48.1875 33.109375 48.1875 
Q 26.21875 48.1875 22.15625 43.53125 
Q 18.109375 38.875 18.109375 30.90625 
L 18.109375 0 
L 9.078125 0 
L 9.078125 54.6875 
L 18.109375 54.6875 
L 18.109375 46.1875 
Q 21.1875 51.21875 25.484375 53.609375 
Q 29.78125 56 35.6875 56 
Q 41.65625 56 45.828125 52.96875 
Q 50 49.953125 52 44.1875 
z
" id="DejaVuSans-6d"/>
     </defs>
     <g transform="translate(262 1270.520313)scale(0.1 -0.1)">
      <use xlink:href="#DejaVuSans-2b"/>
      <use x="83.789062" xlink:href="#DejaVuSans-50"/>
      <use x="144.091797" xlink:href="#DejaVuSans-49"/>
      <use x="173.583984" xlink:href="#DejaVuSans-54"/>
      <use x="234.589844" xlink:href="#DejaVuSans-43"/>
      <use x="304.414062" xlink:href="#DejaVuSans-48"/>
      <use x="379.609375" xlink:href="#DejaVuSans-20"/>
      <use x="411.396484" xlink:href="#DejaVuSans-6d"/>
      <use x="508.808594" xlink:href="#DejaVuSans-6f"/>
      <use x="569.990234" xlink:href="#DejaVuSans-74"/>
      <use x="609.199219" xlink:href="#DejaVuSans-69"/>
      <use x="636.982422" xlink:href="#DejaVuSans-6f"/>
      <use x="698.164062" xlink:href="#DejaVuSans-6e"/>
     </g>
    </g>
   </g>
  </g>
 </g>
 <defs>
  <clipPath id="p33eac230c9">
   <rect height="1108.8" width="1395" x="225" y="172.8"/>
  </clipPath>
 </defs>
</svg>
