<?xml version="1.0" encoding="utf-8" standalone="no"?>
<!DOCTYPE svg PUBLIC "-//W3C//DTD SVG 1.1//EN"
  "http://www.w3.org/Graphics/SVG/1.1/DTD/svg11.dtd">
<!-- Created with matplotlib (http://matplotlib.org/) -->
<svg height="1440pt" version="1.1" viewBox="0 0 1800 1440" width="1800pt" xmlns="http://www.w3.org/2000/svg" xmlns:xlink="http://www.w3.org/1999/xlink">
 <defs>
  <style type="text/css">
*{stroke-linecap:butt;stroke-linejoin:round;}
  </style>
 </defs>
 <g id="figure_1">
  <g id="patch_1">
   <path d="M 0 1440 
L 1800 1440 
L 1800 0 
L 0 0 
z
" style="fill:#ffffff;"/>
  </g>
  <g id="axes_1">
   <g id="patch_2">
    <path d="M 225 1281.6 
L 1620 1281.6 
L 1620 172.8 
L 225 172.8 
z
" style="fill:#ffffff;"/>
   </g>
   <g id="matplotlib.axis_1">
    <g id="xtick_1">
     <g id="line2d_1">
      <path clip-path="url(#p9eee5bc233)" d="M 288.409091 1281.6 
L 288.409091 172.8 
" style="fill:none;stroke:#b0b0b0;stroke-linecap:square;stroke-width:0.8;"/>
     </g>
     <g id="line2d_2">
      <defs>
       <path d="M 0 0 
L 0 3.5 
" id="m0e27f26b12" style="stroke:#000000;stroke-width:0.8;"/>
      </defs>
      <g>
       <use style="stroke:#000000;stroke-width:0.8;" x="288.409091" xlink:href="#m0e27f26b12" y="1281.6"/>
      </g>
     </g>
     <g id="text_1">
      <!-- 0 -->
      <defs>
       <path d="M 31.78125 66.40625 
Q 24.171875 66.40625 20.328125 58.90625 
Q 16.5 51.421875 16.5 36.375 
Q 16.5 21.390625 20.328125 13.890625 
Q 24.171875 6.390625 31.78125 6.390625 
Q 39.453125 6.390625 43.28125 13.890625 
Q 47.125 21.390625 47.125 36.375 
Q 47.125 51.421875 43.28125 58.90625 
Q 39.453125 66.40625 31.78125 66.40625 
z
M 31.78125 74.21875 
Q 44.046875 74.21875 50.515625 64.515625 
Q 56.984375 54.828125 56.984375 36.375 
Q 56.984375 17.96875 50.515625 8.265625 
Q 44.046875 -1.421875 31.78125 -1.421875 
Q 19.53125 -1.421875 13.0625 8.265625 
Q 6.59375 17.96875 6.59375 36.375 
Q 6.59375 54.828125 13.0625 64.515625 
Q 19.53125 74.21875 31.78125 74.21875 
z
" id="DejaVuSans-30"/>
      </defs>
      <g transform="translate(285.227841 1296.198437)scale(0.1 -0.1)">
       <use xlink:href="#DejaVuSans-30"/>
      </g>
     </g>
    </g>
    <g id="xtick_2">
     <g id="line2d_3">
      <path clip-path="url(#p9eee5bc233)" d="M 585.059809 1281.6 
L 585.059809 172.8 
" style="fill:none;stroke:#b0b0b0;stroke-linecap:square;stroke-width:0.8;"/>
     </g>
     <g id="line2d_4">
      <g>
       <use style="stroke:#000000;stroke-width:0.8;" x="585.059809" xlink:href="#m0e27f26b12" y="1281.6"/>
      </g>
     </g>
     <g id="text_2">
      <!-- 200 -->
      <defs>
       <path d="M 19.1875 8.296875 
L 53.609375 8.296875 
L 53.609375 0 
L 7.328125 0 
L 7.328125 8.296875 
Q 12.9375 14.109375 22.625 23.890625 
Q 32.328125 33.6875 34.8125 36.53125 
Q 39.546875 41.84375 41.421875 45.53125 
Q 43.3125 49.21875 43.3125 52.78125 
Q 43.3125 58.59375 39.234375 62.25 
Q 35.15625 65.921875 28.609375 65.921875 
Q 23.96875 65.921875 18.8125 64.3125 
Q 13.671875 62.703125 7.8125 59.421875 
L 7.8125 69.390625 
Q 13.765625 71.78125 18.9375 73 
Q 24.125 74.21875 28.421875 74.21875 
Q 39.75 74.21875 46.484375 68.546875 
Q 53.21875 62.890625 53.21875 53.421875 
Q 53.21875 48.921875 51.53125 44.890625 
Q 49.859375 40.875 45.40625 35.40625 
Q 44.1875 33.984375 37.640625 27.21875 
Q 31.109375 20.453125 19.1875 8.296875 
z
" id="DejaVuSans-32"/>
      </defs>
      <g transform="translate(575.516059 1296.198437)scale(0.1 -0.1)">
       <use xlink:href="#DejaVuSans-32"/>
       <use x="63.623047" xlink:href="#DejaVuSans-30"/>
       <use x="127.246094" xlink:href="#DejaVuSans-30"/>
      </g>
     </g>
    </g>
    <g id="xtick_3">
     <g id="line2d_5">
      <path clip-path="url(#p9eee5bc233)" d="M 881.710526 1281.6 
L 881.710526 172.8 
" style="fill:none;stroke:#b0b0b0;stroke-linecap:square;stroke-width:0.8;"/>
     </g>
     <g id="line2d_6">
      <g>
       <use style="stroke:#000000;stroke-width:0.8;" x="881.710526" xlink:href="#m0e27f26b12" y="1281.6"/>
      </g>
     </g>
     <g id="text_3">
      <!-- 400 -->
      <defs>
       <path d="M 37.796875 64.3125 
L 12.890625 25.390625 
L 37.796875 25.390625 
z
M 35.203125 72.90625 
L 47.609375 72.90625 
L 47.609375 25.390625 
L 58.015625 25.390625 
L 58.015625 17.1875 
L 47.609375 17.1875 
L 47.609375 0 
L 37.796875 0 
L 37.796875 17.1875 
L 4.890625 17.1875 
L 4.890625 26.703125 
z
" id="DejaVuSans-34"/>
      </defs>
      <g transform="translate(872.166776 1296.198437)scale(0.1 -0.1)">
       <use xlink:href="#DejaVuSans-34"/>
       <use x="63.623047" xlink:href="#DejaVuSans-30"/>
       <use x="127.246094" xlink:href="#DejaVuSans-30"/>
      </g>
     </g>
    </g>
    <g id="xtick_4">
     <g id="line2d_7">
      <path clip-path="url(#p9eee5bc233)" d="M 1178.361244 1281.6 
L 1178.361244 172.8 
" style="fill:none;stroke:#b0b0b0;stroke-linecap:square;stroke-width:0.8;"/>
     </g>
     <g id="line2d_8">
      <g>
       <use style="stroke:#000000;stroke-width:0.8;" x="1178.361244" xlink:href="#m0e27f26b12" y="1281.6"/>
      </g>
     </g>
     <g id="text_4">
      <!-- 600 -->
      <defs>
       <path d="M 33.015625 40.375 
Q 26.375 40.375 22.484375 35.828125 
Q 18.609375 31.296875 18.609375 23.390625 
Q 18.609375 15.53125 22.484375 10.953125 
Q 26.375 6.390625 33.015625 6.390625 
Q 39.65625 6.390625 43.53125 10.953125 
Q 47.40625 15.53125 47.40625 23.390625 
Q 47.40625 31.296875 43.53125 35.828125 
Q 39.65625 40.375 33.015625 40.375 
z
M 52.59375 71.296875 
L 52.59375 62.3125 
Q 48.875 64.0625 45.09375 64.984375 
Q 41.3125 65.921875 37.59375 65.921875 
Q 27.828125 65.921875 22.671875 59.328125 
Q 17.53125 52.734375 16.796875 39.40625 
Q 19.671875 43.65625 24.015625 45.921875 
Q 28.375 48.1875 33.59375 48.1875 
Q 44.578125 48.1875 50.953125 41.515625 
Q 57.328125 34.859375 57.328125 23.390625 
Q 57.328125 12.15625 50.6875 5.359375 
Q 44.046875 -1.421875 33.015625 -1.421875 
Q 20.359375 -1.421875 13.671875 8.265625 
Q 6.984375 17.96875 6.984375 36.375 
Q 6.984375 53.65625 15.1875 63.9375 
Q 23.390625 74.21875 37.203125 74.21875 
Q 40.921875 74.21875 44.703125 73.484375 
Q 48.484375 72.75 52.59375 71.296875 
z
" id="DejaVuSans-36"/>
      </defs>
      <g transform="translate(1168.817494 1296.198437)scale(0.1 -0.1)">
       <use xlink:href="#DejaVuSans-36"/>
       <use x="63.623047" xlink:href="#DejaVuSans-30"/>
       <use x="127.246094" xlink:href="#DejaVuSans-30"/>
      </g>
     </g>
    </g>
    <g id="xtick_5">
     <g id="line2d_9">
      <path clip-path="url(#p9eee5bc233)" d="M 1475.011962 1281.6 
L 1475.011962 172.8 
" style="fill:none;stroke:#b0b0b0;stroke-linecap:square;stroke-width:0.8;"/>
     </g>
     <g id="line2d_10">
      <g>
       <use style="stroke:#000000;stroke-width:0.8;" x="1475.011962" xlink:href="#m0e27f26b12" y="1281.6"/>
      </g>
     </g>
     <g id="text_5">
      <!-- 800 -->
      <defs>
       <path d="M 31.78125 34.625 
Q 24.75 34.625 20.71875 30.859375 
Q 16.703125 27.09375 16.703125 20.515625 
Q 16.703125 13.921875 20.71875 10.15625 
Q 24.75 6.390625 31.78125 6.390625 
Q 38.8125 6.390625 42.859375 10.171875 
Q 46.921875 13.96875 46.921875 20.515625 
Q 46.921875 27.09375 42.890625 30.859375 
Q 38.875 34.625 31.78125 34.625 
z
M 21.921875 38.8125 
Q 15.578125 40.375 12.03125 44.71875 
Q 8.5 49.078125 8.5 55.328125 
Q 8.5 64.0625 14.71875 69.140625 
Q 20.953125 74.21875 31.78125 74.21875 
Q 42.671875 74.21875 48.875 69.140625 
Q 55.078125 64.0625 55.078125 55.328125 
Q 55.078125 49.078125 51.53125 44.71875 
Q 48 40.375 41.703125 38.8125 
Q 48.828125 37.15625 52.796875 32.3125 
Q 56.78125 27.484375 56.78125 20.515625 
Q 56.78125 9.90625 50.3125 4.234375 
Q 43.84375 -1.421875 31.78125 -1.421875 
Q 19.734375 -1.421875 13.25 4.234375 
Q 6.78125 9.90625 6.78125 20.515625 
Q 6.78125 27.484375 10.78125 32.3125 
Q 14.796875 37.15625 21.921875 38.8125 
z
M 18.3125 54.390625 
Q 18.3125 48.734375 21.84375 45.5625 
Q 25.390625 42.390625 31.78125 42.390625 
Q 38.140625 42.390625 41.71875 45.5625 
Q 45.3125 48.734375 45.3125 54.390625 
Q 45.3125 60.0625 41.71875 63.234375 
Q 38.140625 66.40625 31.78125 66.40625 
Q 25.390625 66.40625 21.84375 63.234375 
Q 18.3125 60.0625 18.3125 54.390625 
z
" id="DejaVuSans-38"/>
      </defs>
      <g transform="translate(1465.468212 1296.198437)scale(0.1 -0.1)">
       <use xlink:href="#DejaVuSans-38"/>
       <use x="63.623047" xlink:href="#DejaVuSans-30"/>
       <use x="127.246094" xlink:href="#DejaVuSans-30"/>
      </g>
     </g>
    </g>
   </g>
   <g id="matplotlib.axis_2">
    <g id="ytick_1">
     <g id="line2d_11">
      <path clip-path="url(#p9eee5bc233)" d="M 225 1281.6 
L 1620 1281.6 
" style="fill:none;stroke:#b0b0b0;stroke-linecap:square;stroke-width:0.8;"/>
     </g>
     <g id="line2d_12">
      <defs>
       <path d="M 0 0 
L -3.5 0 
" id="m6bedf45ba4" style="stroke:#000000;stroke-width:0.8;"/>
      </defs>
      <g>
       <use style="stroke:#000000;stroke-width:0.8;" x="225" xlink:href="#m6bedf45ba4" y="1281.6"/>
      </g>
     </g>
     <g id="text_6">
      <!-- −0.08131 -->
      <defs>
       <path d="M 10.59375 35.5 
L 73.1875 35.5 
L 73.1875 27.203125 
L 10.59375 27.203125 
z
" id="DejaVuSans-2212"/>
       <path d="M 10.6875 12.40625 
L 21 12.40625 
L 21 0 
L 10.6875 0 
z
" id="DejaVuSans-2e"/>
       <path d="M 12.40625 8.296875 
L 28.515625 8.296875 
L 28.515625 63.921875 
L 10.984375 60.40625 
L 10.984375 69.390625 
L 28.421875 72.90625 
L 38.28125 72.90625 
L 38.28125 8.296875 
L 54.390625 8.296875 
L 54.390625 0 
L 12.40625 0 
z
" id="DejaVuSans-31"/>
       <path d="M 40.578125 39.3125 
Q 47.65625 37.796875 51.625 33 
Q 55.609375 28.21875 55.609375 21.1875 
Q 55.609375 10.40625 48.1875 4.484375 
Q 40.765625 -1.421875 27.09375 -1.421875 
Q 22.515625 -1.421875 17.65625 -0.515625 
Q 12.796875 0.390625 7.625 2.203125 
L 7.625 11.71875 
Q 11.71875 9.328125 16.59375 8.109375 
Q 21.484375 6.890625 26.8125 6.890625 
Q 36.078125 6.890625 40.9375 10.546875 
Q 45.796875 14.203125 45.796875 21.1875 
Q 45.796875 27.640625 41.28125 31.265625 
Q 36.765625 34.90625 28.71875 34.90625 
L 20.21875 34.90625 
L 20.21875 43.015625 
L 29.109375 43.015625 
Q 36.375 43.015625 40.234375 45.921875 
Q 44.09375 48.828125 44.09375 54.296875 
Q 44.09375 59.90625 40.109375 62.90625 
Q 36.140625 65.921875 28.71875 65.921875 
Q 24.65625 65.921875 20.015625 65.03125 
Q 15.375 64.15625 9.8125 62.3125 
L 9.8125 71.09375 
Q 15.4375 72.65625 20.34375 73.4375 
Q 25.25 74.21875 29.59375 74.21875 
Q 40.828125 74.21875 47.359375 69.109375 
Q 53.90625 64.015625 53.90625 55.328125 
Q 53.90625 49.265625 50.4375 45.09375 
Q 46.96875 40.921875 40.578125 39.3125 
z
" id="DejaVuSans-33"/>
      </defs>
      <g transform="translate(168.267188 1285.399219)scale(0.1 -0.1)">
       <use xlink:href="#DejaVuSans-2212"/>
       <use x="83.789062" xlink:href="#DejaVuSans-30"/>
       <use x="147.412109" xlink:href="#DejaVuSans-2e"/>
       <use x="179.199219" xlink:href="#DejaVuSans-30"/>
       <use x="242.822266" xlink:href="#DejaVuSans-38"/>
       <use x="306.445312" xlink:href="#DejaVuSans-31"/>
       <use x="370.068359" xlink:href="#DejaVuSans-33"/>
       <use x="433.691406" xlink:href="#DejaVuSans-31"/>
      </g>
     </g>
    </g>
    <g id="ytick_2">
     <g id="line2d_13">
      <path clip-path="url(#p9eee5bc233)" d="M 225 1151.438467 
L 1620 1151.438467 
" style="fill:none;stroke:#b0b0b0;stroke-linecap:square;stroke-width:0.8;"/>
     </g>
     <g id="line2d_14">
      <g>
       <use style="stroke:#000000;stroke-width:0.8;" x="225" xlink:href="#m6bedf45ba4" y="1151.438467"/>
      </g>
     </g>
     <g id="text_7">
      <!-- −0.07131 -->
      <defs>
       <path d="M 8.203125 72.90625 
L 55.078125 72.90625 
L 55.078125 68.703125 
L 28.609375 0 
L 18.3125 0 
L 43.21875 64.59375 
L 8.203125 64.59375 
z
" id="DejaVuSans-37"/>
      </defs>
      <g transform="translate(168.267188 1155.237686)scale(0.1 -0.1)">
       <use xlink:href="#DejaVuSans-2212"/>
       <use x="83.789062" xlink:href="#DejaVuSans-30"/>
       <use x="147.412109" xlink:href="#DejaVuSans-2e"/>
       <use x="179.199219" xlink:href="#DejaVuSans-30"/>
       <use x="242.822266" xlink:href="#DejaVuSans-37"/>
       <use x="306.445312" xlink:href="#DejaVuSans-31"/>
       <use x="370.068359" xlink:href="#DejaVuSans-33"/>
       <use x="433.691406" xlink:href="#DejaVuSans-31"/>
      </g>
     </g>
    </g>
    <g id="ytick_3">
     <g id="line2d_15">
      <path clip-path="url(#p9eee5bc233)" d="M 225 1021.276934 
L 1620 1021.276934 
" style="fill:none;stroke:#b0b0b0;stroke-linecap:square;stroke-width:0.8;"/>
     </g>
     <g id="line2d_16">
      <g>
       <use style="stroke:#000000;stroke-width:0.8;" x="225" xlink:href="#m6bedf45ba4" y="1021.276934"/>
      </g>
     </g>
     <g id="text_8">
      <!-- −0.06131 -->
      <g transform="translate(168.267188 1025.076153)scale(0.1 -0.1)">
       <use xlink:href="#DejaVuSans-2212"/>
       <use x="83.789062" xlink:href="#DejaVuSans-30"/>
       <use x="147.412109" xlink:href="#DejaVuSans-2e"/>
       <use x="179.199219" xlink:href="#DejaVuSans-30"/>
       <use x="242.822266" xlink:href="#DejaVuSans-36"/>
       <use x="306.445312" xlink:href="#DejaVuSans-31"/>
       <use x="370.068359" xlink:href="#DejaVuSans-33"/>
       <use x="433.691406" xlink:href="#DejaVuSans-31"/>
      </g>
     </g>
    </g>
    <g id="ytick_4">
     <g id="line2d_17">
      <path clip-path="url(#p9eee5bc233)" d="M 225 891.115401 
L 1620 891.115401 
" style="fill:none;stroke:#b0b0b0;stroke-linecap:square;stroke-width:0.8;"/>
     </g>
     <g id="line2d_18">
      <g>
       <use style="stroke:#000000;stroke-width:0.8;" x="225" xlink:href="#m6bedf45ba4" y="891.115401"/>
      </g>
     </g>
     <g id="text_9">
      <!-- −0.05131 -->
      <defs>
       <path d="M 10.796875 72.90625 
L 49.515625 72.90625 
L 49.515625 64.59375 
L 19.828125 64.59375 
L 19.828125 46.734375 
Q 21.96875 47.46875 24.109375 47.828125 
Q 26.265625 48.1875 28.421875 48.1875 
Q 40.625 48.1875 47.75 41.5 
Q 54.890625 34.8125 54.890625 23.390625 
Q 54.890625 11.625 47.5625 5.09375 
Q 40.234375 -1.421875 26.90625 -1.421875 
Q 22.3125 -1.421875 17.546875 -0.640625 
Q 12.796875 0.140625 7.71875 1.703125 
L 7.71875 11.625 
Q 12.109375 9.234375 16.796875 8.0625 
Q 21.484375 6.890625 26.703125 6.890625 
Q 35.15625 6.890625 40.078125 11.328125 
Q 45.015625 15.765625 45.015625 23.390625 
Q 45.015625 31 40.078125 35.4375 
Q 35.15625 39.890625 26.703125 39.890625 
Q 22.75 39.890625 18.8125 39.015625 
Q 14.890625 38.140625 10.796875 36.28125 
z
" id="DejaVuSans-35"/>
      </defs>
      <g transform="translate(168.267188 894.91462)scale(0.1 -0.1)">
       <use xlink:href="#DejaVuSans-2212"/>
       <use x="83.789062" xlink:href="#DejaVuSans-30"/>
       <use x="147.412109" xlink:href="#DejaVuSans-2e"/>
       <use x="179.199219" xlink:href="#DejaVuSans-30"/>
       <use x="242.822266" xlink:href="#DejaVuSans-35"/>
       <use x="306.445312" xlink:href="#DejaVuSans-31"/>
       <use x="370.068359" xlink:href="#DejaVuSans-33"/>
       <use x="433.691406" xlink:href="#DejaVuSans-31"/>
      </g>
     </g>
    </g>
    <g id="ytick_5">
     <g id="line2d_19">
      <path clip-path="url(#p9eee5bc233)" d="M 225 760.953868 
L 1620 760.953868 
" style="fill:none;stroke:#b0b0b0;stroke-linecap:square;stroke-width:0.8;"/>
     </g>
     <g id="line2d_20">
      <g>
       <use style="stroke:#000000;stroke-width:0.8;" x="225" xlink:href="#m6bedf45ba4" y="760.953868"/>
      </g>
     </g>
     <g id="text_10">
      <!-- −0.04131 -->
      <g transform="translate(168.267188 764.753087)scale(0.1 -0.1)">
       <use xlink:href="#DejaVuSans-2212"/>
       <use x="83.789062" xlink:href="#DejaVuSans-30"/>
       <use x="147.412109" xlink:href="#DejaVuSans-2e"/>
       <use x="179.199219" xlink:href="#DejaVuSans-30"/>
       <use x="242.822266" xlink:href="#DejaVuSans-34"/>
       <use x="306.445312" xlink:href="#DejaVuSans-31"/>
       <use x="370.068359" xlink:href="#DejaVuSans-33"/>
       <use x="433.691406" xlink:href="#DejaVuSans-31"/>
      </g>
     </g>
    </g>
    <g id="ytick_6">
     <g id="line2d_21">
      <path clip-path="url(#p9eee5bc233)" d="M 225 630.792335 
L 1620 630.792335 
" style="fill:none;stroke:#b0b0b0;stroke-linecap:square;stroke-width:0.8;"/>
     </g>
     <g id="line2d_22">
      <g>
       <use style="stroke:#000000;stroke-width:0.8;" x="225" xlink:href="#m6bedf45ba4" y="630.792335"/>
      </g>
     </g>
     <g id="text_11">
      <!-- −0.03131 -->
      <g transform="translate(168.267188 634.591554)scale(0.1 -0.1)">
       <use xlink:href="#DejaVuSans-2212"/>
       <use x="83.789062" xlink:href="#DejaVuSans-30"/>
       <use x="147.412109" xlink:href="#DejaVuSans-2e"/>
       <use x="179.199219" xlink:href="#DejaVuSans-30"/>
       <use x="242.822266" xlink:href="#DejaVuSans-33"/>
       <use x="306.445312" xlink:href="#DejaVuSans-31"/>
       <use x="370.068359" xlink:href="#DejaVuSans-33"/>
       <use x="433.691406" xlink:href="#DejaVuSans-31"/>
      </g>
     </g>
    </g>
    <g id="ytick_7">
     <g id="line2d_23">
      <path clip-path="url(#p9eee5bc233)" d="M 225 500.630802 
L 1620 500.630802 
" style="fill:none;stroke:#b0b0b0;stroke-linecap:square;stroke-width:0.8;"/>
     </g>
     <g id="line2d_24">
      <g>
       <use style="stroke:#000000;stroke-width:0.8;" x="225" xlink:href="#m6bedf45ba4" y="500.630802"/>
      </g>
     </g>
     <g id="text_12">
      <!-- −0.02131 -->
      <g transform="translate(168.267188 504.430021)scale(0.1 -0.1)">
       <use xlink:href="#DejaVuSans-2212"/>
       <use x="83.789062" xlink:href="#DejaVuSans-30"/>
       <use x="147.412109" xlink:href="#DejaVuSans-2e"/>
       <use x="179.199219" xlink:href="#DejaVuSans-30"/>
       <use x="242.822266" xlink:href="#DejaVuSans-32"/>
       <use x="306.445312" xlink:href="#DejaVuSans-31"/>
       <use x="370.068359" xlink:href="#DejaVuSans-33"/>
       <use x="433.691406" xlink:href="#DejaVuSans-31"/>
      </g>
     </g>
    </g>
    <g id="ytick_8">
     <g id="line2d_25">
      <path clip-path="url(#p9eee5bc233)" d="M 225 370.469269 
L 1620 370.469269 
" style="fill:none;stroke:#b0b0b0;stroke-linecap:square;stroke-width:0.8;"/>
     </g>
     <g id="line2d_26">
      <g>
       <use style="stroke:#000000;stroke-width:0.8;" x="225" xlink:href="#m6bedf45ba4" y="370.469269"/>
      </g>
     </g>
     <g id="text_13">
      <!-- −0.01131 -->
      <g transform="translate(168.267188 374.268488)scale(0.1 -0.1)">
       <use xlink:href="#DejaVuSans-2212"/>
       <use x="83.789062" xlink:href="#DejaVuSans-30"/>
       <use x="147.412109" xlink:href="#DejaVuSans-2e"/>
       <use x="179.199219" xlink:href="#DejaVuSans-30"/>
       <use x="242.822266" xlink:href="#DejaVuSans-31"/>
       <use x="306.445312" xlink:href="#DejaVuSans-31"/>
       <use x="370.068359" xlink:href="#DejaVuSans-33"/>
       <use x="433.691406" xlink:href="#DejaVuSans-31"/>
      </g>
     </g>
    </g>
    <g id="ytick_9">
     <g id="line2d_27">
      <path clip-path="url(#p9eee5bc233)" d="M 225 240.307736 
L 1620 240.307736 
" style="fill:none;stroke:#b0b0b0;stroke-linecap:square;stroke-width:0.8;"/>
     </g>
     <g id="line2d_28">
      <g>
       <use style="stroke:#000000;stroke-width:0.8;" x="225" xlink:href="#m6bedf45ba4" y="240.307736"/>
      </g>
     </g>
     <g id="text_14">
      <!-- −0.00131 -->
      <g transform="translate(168.267188 244.106955)scale(0.1 -0.1)">
       <use xlink:href="#DejaVuSans-2212"/>
       <use x="83.789062" xlink:href="#DejaVuSans-30"/>
       <use x="147.412109" xlink:href="#DejaVuSans-2e"/>
       <use x="179.199219" xlink:href="#DejaVuSans-30"/>
       <use x="242.822266" xlink:href="#DejaVuSans-30"/>
       <use x="306.445312" xlink:href="#DejaVuSans-31"/>
       <use x="370.068359" xlink:href="#DejaVuSans-33"/>
       <use x="433.691406" xlink:href="#DejaVuSans-31"/>
      </g>
     </g>
    </g>
   </g>
   <g id="patch_3">
    <path clip-path="url(#p9eee5bc233)" d="M 288.409091 1281.6 
L 1558.074163 1281.6 
L 1558.074163 172.8 
L 288.409091 172.8 
z
" style="opacity:0.3;"/>
   </g>
   <g id="line2d_29">
    <path clip-path="url(#p9eee5bc233)" d="M 288.409091 1183.982466 
L 289.892344 1169.567553 
L 291.375598 1169.567553 
L 292.858852 1156.738405 
L 294.342105 1156.738405 
L 295.825359 1163.626519 
L 297.308612 1163.626519 
L 298.791866 1142.38823 
L 300.27512 1116.516646 
L 301.758373 1116.516646 
L 303.241627 1126.158391 
L 304.72488 1126.158391 
L 306.208134 1113.526106 
L 307.691388 1113.526106 
L 309.174641 1105.127333 
L 310.657895 1105.127333 
L 312.141148 1101.880828 
L 313.624402 1101.880828 
L 315.107656 1106.651563 
L 316.590909 1106.651563 
L 318.074163 1096.439541 
L 319.557416 1096.439541 
L 321.04067 1105.760583 
L 322.523923 1105.760583 
L 324.007177 1098.791857 
L 325.490431 1084.612777 
L 326.973684 1084.612777 
L 328.456938 1084.255613 
L 329.940191 1084.255613 
L 331.423445 1068.834988 
L 332.906699 1068.834988 
L 334.389952 1077.560229 
L 335.873206 1077.560229 
L 337.356459 1088.004573 
L 338.839713 1091.473351 
L 340.322967 1091.473351 
L 341.80622 1110.835835 
L 343.289474 1110.835835 
L 344.772727 1105.445342 
L 346.255981 1105.445342 
L 347.739234 1103.267975 
L 349.222488 1104.688068 
L 350.705742 1104.688068 
L 352.188995 1115.522994 
L 353.672249 1115.522994 
L 355.155502 1116.837499 
L 356.638756 1116.837499 
L 358.12201 1120.046219 
L 359.605263 1120.046219 
L 361.088517 1112.69409 
L 362.57177 1112.69409 
L 364.055024 1135.318986 
L 365.538278 1135.318986 
L 367.021531 1141.605602 
L 368.504785 1141.605602 
L 369.988038 1122.523359 
L 371.471292 1122.523359 
L 372.954545 1130.712211 
L 374.437799 1130.712211 
L 375.921053 1137.829638 
L 377.404306 1137.829638 
L 378.88756 1120.662586 
L 380.370813 1120.662586 
L 381.854067 1107.81045 
L 384.820574 1107.81045 
L 386.303828 1111.138577 
L 387.787081 1080.657576 
L 389.270335 1080.657576 
L 390.753589 1086.637476 
L 392.236842 1086.637476 
L 393.720096 1090.859295 
L 395.203349 1090.859295 
L 396.686603 1079.181992 
L 398.169856 1079.181992 
L 399.65311 1084.658211 
L 401.136364 1113.529503 
L 402.619617 1113.529503 
L 404.102871 1112.33973 
L 405.586124 1112.33973 
L 407.069378 1123.183626 
L 408.552632 1123.183626 
L 410.035885 1137.617133 
L 411.519139 1137.617133 
L 413.002392 1145.500785 
L 414.485646 1145.500785 
L 415.9689 1180.560107 
L 417.452153 1180.560107 
L 418.935407 1163.157298 
L 420.41866 1163.157298 
L 421.901914 1180.340975 
L 423.385167 1180.340975 
L 424.868421 1196.145452 
L 426.351675 1196.145452 
L 427.834928 1216.735655 
L 429.318182 1216.735655 
L 430.801435 1215.114279 
L 432.284689 1215.114279 
L 433.767943 1203.618097 
L 435.251196 1203.618097 
L 436.73445 1188.50926 
L 438.217703 1188.50926 
L 439.700957 1206.991016 
L 441.184211 1193.799801 
L 442.667464 1193.799801 
L 444.150718 1191.866457 
L 445.633971 1191.866457 
L 447.117225 1191.448366 
L 448.600478 1191.448366 
L 450.083732 1179.179813 
L 451.566986 1182.830838 
L 453.050239 1182.830838 
L 454.533493 1166.667442 
L 456.016746 1166.667442 
L 457.5 1157.808967 
L 458.983254 1157.808967 
L 460.466507 1150.460024 
L 461.949761 1148.477164 
L 463.433014 1148.477164 
L 464.916268 1116.8648 
L 466.399522 1116.8648 
L 467.882775 1091.445913 
L 469.366029 1091.445913 
L 470.849282 1093.467921 
L 472.332536 1093.467921 
L 473.815789 1056.220424 
L 475.299043 1056.220424 
L 476.782297 1057.779426 
L 478.26555 1057.779426 
L 479.748804 1022.114477 
L 481.232057 1006.049225 
L 482.715311 1006.049225 
L 484.198565 1003.39989 
L 487.165072 1003.39989 
L 488.648325 986.964429 
L 490.131579 977.736274 
L 491.614833 977.736274 
L 493.098086 965.21231 
L 494.58134 965.21231 
L 496.064593 979.717173 
L 497.547847 979.717173 
L 499.0311 964.061321 
L 500.514354 964.061321 
L 501.997608 988.446593 
L 506.447368 988.499121 
L 507.930622 1003.027164 
L 509.413876 1016.256369 
L 510.897129 1016.256369 
L 512.380383 1007.70881 
L 513.863636 1007.70881 
L 515.34689 1020.500841 
L 516.830144 1020.500841 
L 518.313397 1039.831881 
L 519.796651 1039.831881 
L 521.279904 1060.573422 
L 522.763158 1060.573422 
L 524.246411 1093.893245 
L 525.729665 1093.172767 
L 527.212919 1093.172767 
L 528.696172 1103.776622 
L 530.179426 1103.776622 
L 531.662679 1115.471154 
L 533.145933 1115.471154 
L 534.629187 1120.002256 
L 536.11244 1156.210414 
L 537.595694 1156.210414 
L 539.078947 1153.429921 
L 540.562201 1153.429921 
L 542.045455 1168.411638 
L 543.528708 1168.411638 
L 545.011962 1157.643956 
L 546.495215 1157.643956 
L 547.978469 1160.264539 
L 549.461722 1160.264539 
L 550.944976 1151.967593 
L 552.42823 1151.967593 
L 553.911483 1177.735112 
L 555.394737 1177.735112 
L 556.87799 1167.730114 
L 558.361244 1167.730114 
L 559.844498 1149.209546 
L 561.327751 1149.209546 
L 562.811005 1137.977893 
L 564.294258 1137.977893 
L 565.777512 1144.707064 
L 567.260766 1144.707064 
L 568.744019 1119.167557 
L 570.227273 1119.167557 
L 571.710526 1090.042354 
L 573.19378 1090.042354 
L 574.677033 1100.380441 
L 576.160287 1100.380441 
L 577.643541 1059.566364 
L 579.126794 1059.566364 
L 580.610048 1071.556671 
L 582.093301 1071.556671 
L 583.576555 1037.541902 
L 585.059809 1037.541902 
L 586.543062 1028.72875 
L 588.026316 1028.72875 
L 589.509569 1021.473615 
L 590.992823 1021.473615 
L 592.476077 1003.119093 
L 593.95933 1003.119093 
L 595.442584 1025.300241 
L 596.925837 1016.77269 
L 598.409091 1016.77269 
L 599.892344 1029.511369 
L 601.375598 1029.511369 
L 602.858852 1004.500358 
L 604.342105 1004.500358 
L 605.825359 1031.790646 
L 607.308612 1031.790646 
L 608.791866 1020.02551 
L 610.27512 1020.02551 
L 611.758373 1037.780274 
L 613.241627 1027.207566 
L 614.72488 1027.207566 
L 616.208134 1050.986464 
L 617.691388 1050.986464 
L 619.174641 1068.763737 
L 620.657895 1068.763737 
L 622.141148 1079.637234 
L 623.624402 1057.968463 
L 625.107656 1057.968463 
L 626.590909 1085.474596 
L 628.074163 1085.474596 
L 629.557416 1109.901923 
L 631.04067 1109.901923 
L 632.523923 1112.610821 
L 634.007177 1112.610821 
L 635.490431 1145.54102 
L 636.973684 1145.54102 
L 638.456938 1161.709254 
L 639.940191 1161.709254 
L 641.423445 1185.493623 
L 642.906699 1185.493623 
L 644.389952 1195.647972 
L 645.873206 1195.647972 
L 647.356459 1212.035137 
L 648.839713 1212.035137 
L 650.322967 1208.585917 
L 651.80622 1211.414473 
L 653.289474 1211.414473 
L 654.772727 1198.378265 
L 657.739234 1198.378265 
L 659.222488 1173.67946 
L 660.705742 1173.67946 
L 662.188995 1153.596068 
L 663.672249 1152.075953 
L 665.155502 1152.075953 
L 666.638756 1137.106192 
L 668.12201 1137.106192 
L 669.605263 1149.46233 
L 671.088517 1149.46233 
L 672.57177 1140.057019 
L 674.055024 1148.457059 
L 675.538278 1148.457059 
L 677.021531 1149.313107 
L 678.504785 1149.313107 
L 679.988038 1125.669533 
L 681.471292 1125.669533 
L 682.954545 1132.927773 
L 684.437799 1111.495768 
L 685.921053 1111.495768 
L 687.404306 1100.844657 
L 688.88756 1100.844657 
L 690.370813 1069.75485 
L 691.854067 1069.75485 
L 693.337321 1069.176819 
L 694.820574 1069.176819 
L 696.303828 1067.652193 
L 697.787081 1036.290858 
L 699.270335 1036.290858 
L 700.753589 1005.548584 
L 702.236842 1005.548584 
L 703.720096 995.781072 
L 705.203349 995.781072 
L 706.686603 961.841915 
L 708.169856 981.077496 
L 709.65311 981.077496 
L 711.136364 969.561352 
L 712.619617 969.561352 
L 714.102871 959.472901 
L 715.586124 959.472901 
L 717.069378 960.80061 
L 718.552632 960.80061 
L 720.035885 976.954215 
L 721.519139 953.875977 
L 723.002392 953.875977 
L 724.485646 952.820672 
L 725.9689 952.820672 
L 727.452153 955.962267 
L 728.935407 955.962267 
L 730.41866 954.40214 
L 731.901914 954.40214 
L 733.385167 962.350784 
L 734.868421 980.718037 
L 736.351675 980.718037 
L 737.834928 1002.012239 
L 739.318182 1002.012239 
L 740.801435 1002.893829 
L 742.284689 1002.893829 
L 743.767943 1039.913533 
L 745.251196 1039.913533 
L 746.73445 1046.793378 
L 748.217703 1081.571411 
L 749.700957 1081.571411 
L 751.184211 1085.376627 
L 752.667464 1085.376627 
L 754.150718 1100.573301 
L 755.633971 1100.573301 
L 757.117225 1106.432877 
L 758.600478 1106.432877 
L 760.083732 1119.288854 
L 761.566986 1126.861906 
L 763.050239 1126.861906 
L 764.533493 1135.101358 
L 766.016746 1135.101358 
L 767.5 1141.277279 
L 768.983254 1141.277279 
L 770.466507 1165.442156 
L 771.949761 1165.442156 
L 773.433014 1168.041011 
L 774.916268 1168.041011 
L 776.399522 1148.726235 
L 777.882775 1148.726235 
L 779.366029 1157.79088 
L 780.849282 1164.948726 
L 782.332536 1164.948726 
L 783.815789 1185.657376 
L 785.299043 1185.657376 
L 786.782297 1196.703639 
L 788.26555 1196.703639 
L 789.748804 1178.64482 
L 791.232057 1178.64482 
L 792.715311 1201.047852 
L 794.198565 1158.859572 
L 795.681818 1158.859572 
L 797.165072 1130.542775 
L 798.648325 1146.030717 
L 800.131579 1146.030717 
L 801.614833 1148.901384 
L 803.098086 1148.901384 
L 804.58134 1145.506954 
L 806.064593 1145.506954 
L 807.547847 1121.044885 
L 809.0311 1121.044885 
L 810.514354 1127.109614 
L 811.997608 1127.109614 
L 813.480861 1123.95729 
L 814.964115 1123.95729 
L 816.447368 1119.178233 
L 817.930622 1119.178233 
L 819.413876 1117.757618 
L 820.897129 1117.757618 
L 822.380383 1086.483997 
L 823.863636 1086.483997 
L 825.34689 1065.609012 
L 826.830144 1065.609012 
L 828.313397 1082.600825 
L 829.796651 1092.137663 
L 831.279904 1092.137663 
L 832.763158 1071.271833 
L 834.246411 1071.271833 
L 835.729665 1055.102563 
L 837.212919 1055.102563 
L 838.696172 1039.217593 
L 840.179426 1039.217593 
L 841.662679 1073.872823 
L 843.145933 1076.61812 
L 844.629187 1076.61812 
L 846.11244 1054.58917 
L 847.595694 1054.58917 
L 849.078947 1066.72518 
L 850.562201 1066.72518 
L 852.045455 1076.0408 
L 853.528708 1063.298272 
L 855.011962 1077.820996 
L 856.495215 1077.820996 
L 857.978469 1063.929599 
L 859.461722 1063.929599 
L 860.944976 1058.265849 
L 862.42823 1058.265849 
L 863.911483 1056.101001 
L 865.394737 1037.988877 
L 866.87799 1037.988877 
L 868.361244 1046.521767 
L 869.844498 1046.521767 
L 871.327751 1061.505834 
L 872.811005 1061.505834 
L 874.294258 1036.796954 
L 875.777512 1036.796954 
L 877.260766 1047.986721 
L 878.744019 1068.82651 
L 880.227273 1068.82651 
L 881.710526 1081.225139 
L 883.19378 1081.225139 
L 884.677033 1083.07735 
L 886.160287 1083.07735 
L 887.643541 1107.571525 
L 889.126794 1136.947253 
L 890.610048 1136.947253 
L 892.093301 1167.135558 
L 893.576555 1167.135558 
L 895.059809 1192.52421 
L 896.543062 1161.805664 
L 898.026316 1161.805664 
L 899.509569 1193.875555 
L 900.992823 1193.875555 
L 902.476077 1210.168356 
L 903.95933 1210.168356 
L 905.442584 1231.2 
L 906.925837 1231.2 
L 908.409091 1204.037071 
L 909.892344 1204.037071 
L 911.375598 1206.984848 
L 912.858852 1184.185043 
L 914.342105 1184.185043 
L 915.825359 1203.41797 
L 917.308612 1203.41797 
L 918.791866 1199.059768 
L 920.27512 1199.059768 
L 921.758373 1182.661804 
L 923.241627 1181.351588 
L 924.72488 1181.351588 
L 926.208134 1160.248609 
L 927.691388 1160.248609 
L 929.174641 1149.258549 
L 930.657895 1154.172521 
L 932.141148 1154.172521 
L 933.624402 1140.561459 
L 935.107656 1140.561459 
L 936.590909 1132.926902 
L 938.074163 1132.926902 
L 939.557416 1109.791585 
L 941.04067 1109.791585 
L 942.523923 1110.954375 
L 944.007177 1089.74094 
L 945.490431 1089.74094 
L 946.973684 1106.775409 
L 948.456938 1106.775409 
L 949.940191 1076.851085 
L 951.423445 1076.851085 
L 952.906699 1054.233819 
L 954.389952 1056.328349 
L 955.873206 1056.328349 
L 957.356459 1052.343563 
L 958.839713 1039.316096 
L 960.322967 1039.316096 
L 961.80622 1046.959245 
L 963.289474 1046.959245 
L 964.772727 1050.151058 
L 966.255981 1050.151058 
L 967.739234 1046.296001 
L 969.222488 1063.220041 
L 970.705742 1063.220041 
L 972.188995 1070.367036 
L 973.672249 1070.367036 
L 975.155502 1067.10512 
L 976.638756 1067.10512 
L 978.12201 1091.322327 
L 979.605263 1091.322327 
L 981.088517 1107.029035 
L 982.57177 1107.029035 
L 984.055024 1105.081355 
L 985.538278 1119.299653 
L 987.021531 1119.299653 
L 988.504785 1095.696731 
L 989.988038 1095.696731 
L 991.471292 1108.937227 
L 992.954545 1108.937227 
L 994.437799 1116.954434 
L 995.921053 1117.1187 
L 997.404306 1117.1187 
L 998.88756 1113.272501 
L 1000.370813 1113.272501 
L 1001.854067 1121.483217 
L 1003.337321 1121.483217 
L 1004.820574 1161.446236 
L 1006.303828 1132.852054 
L 1007.787081 1132.852054 
L 1009.270335 1156.990401 
L 1010.753589 1156.990401 
L 1012.236842 1151.343133 
L 1013.720096 1151.343133 
L 1015.203349 1140.797007 
L 1016.686603 1140.797007 
L 1018.169856 1157.552435 
L 1019.65311 1169.653526 
L 1021.136364 1169.653526 
L 1022.619617 1158.721726 
L 1024.102871 1158.721726 
L 1025.586124 1165.182398 
L 1027.069378 1165.182398 
L 1028.552632 1136.837476 
L 1030.035885 1156.630578 
L 1031.519139 1156.630578 
L 1033.002392 1135.517194 
L 1034.485646 1135.517194 
L 1035.9689 1149.404796 
L 1037.452153 1149.404796 
L 1038.935407 1144.261996 
L 1040.41866 1144.261996 
L 1041.901914 1164.360639 
L 1043.385167 1164.360639 
L 1044.868421 1141.267729 
L 1046.351675 1141.267729 
L 1047.834928 1138.606018 
L 1049.318182 1138.606018 
L 1050.801435 1153.997901 
L 1052.284689 1153.997901 
L 1053.767943 1128.766583 
L 1055.251196 1118.066427 
L 1056.73445 1118.066427 
L 1058.217703 1097.994894 
L 1059.700957 1097.994894 
L 1061.184211 1101.90047 
L 1062.667464 1101.90047 
L 1064.150718 1097.199105 
L 1065.633971 1080.202555 
L 1067.117225 1080.202555 
L 1068.600478 1096.610036 
L 1070.083732 1096.610036 
L 1071.566986 1078.942629 
L 1073.050239 1078.942629 
L 1074.533493 1068.709217 
L 1076.016746 1071.171776 
L 1077.5 1071.171776 
L 1078.983254 1062.238281 
L 1080.466507 1062.238281 
L 1081.949761 1073.251557 
L 1083.433014 1073.251557 
L 1084.916268 1064.625364 
L 1086.399522 1064.625364 
L 1087.882775 1082.919242 
L 1089.366029 1084.161739 
L 1090.849282 1084.161739 
L 1092.332536 1075.913708 
L 1093.815789 1075.913708 
L 1095.299043 1061.75607 
L 1096.782297 1061.75607 
L 1098.26555 1085.646863 
L 1099.748804 1085.646863 
L 1101.232057 1077.868409 
L 1102.715311 1075.210998 
L 1104.198565 1075.210998 
L 1105.681818 1064.560864 
L 1107.165072 1064.560864 
L 1108.648325 1054.676486 
L 1110.131579 1054.676486 
L 1111.614833 1041.68518 
L 1113.098086 1041.68518 
L 1114.58134 1052.099003 
L 1116.064593 1048.200155 
L 1117.547847 1048.200155 
L 1119.0311 1036.867696 
L 1120.514354 1036.867696 
L 1121.997608 1042.923704 
L 1123.480861 1042.923704 
L 1124.964115 1070.823527 
L 1126.447368 1069.48639 
L 1127.930622 1069.48639 
L 1129.413876 1082.240177 
L 1130.897129 1082.240177 
L 1132.380383 1080.610489 
L 1133.863636 1080.610489 
L 1135.34689 1122.469805 
L 1136.830144 1122.469805 
L 1138.313397 1093.254146 
L 1139.796651 1093.254146 
L 1141.279904 1120.998554 
L 1142.763158 1120.998554 
L 1144.246411 1092.628455 
L 1145.729665 1092.628455 
L 1147.212919 1115.792062 
L 1148.696172 1115.792062 
L 1150.179426 1103.930186 
L 1151.662679 1114.609034 
L 1153.145933 1114.609034 
L 1154.629187 1106.702749 
L 1156.11244 1106.702749 
L 1157.595694 1095.138657 
L 1159.078947 1095.138657 
L 1160.562201 1111.19172 
L 1162.045455 1111.19172 
L 1163.528708 1101.642044 
L 1165.011962 1101.642044 
L 1166.495215 1106.702967 
L 1167.978469 1106.702967 
L 1169.461722 1136.731079 
L 1170.944976 1136.731079 
L 1172.42823 1139.054644 
L 1173.911483 1139.054644 
L 1175.394737 1100.161285 
L 1176.87799 1136.057435 
L 1178.361244 1136.057435 
L 1179.844498 1117.732748 
L 1181.327751 1117.732748 
L 1182.811005 1100.801228 
L 1184.294258 1100.801228 
L 1185.777512 1083.356729 
L 1187.260766 1083.356729 
L 1188.744019 1065.056496 
L 1190.227273 1065.056496 
L 1191.710526 1051.05036 
L 1193.19378 1042.636163 
L 1194.677033 1042.636163 
L 1196.160287 1027.913713 
L 1197.643541 1027.913713 
L 1199.126794 1023.400421 
L 1200.610048 1023.400421 
L 1202.093301 1019.94212 
L 1203.576555 1010.726757 
L 1205.059809 1010.726757 
L 1206.543062 1030.48121 
L 1208.026316 1030.48121 
L 1209.509569 1042.879514 
L 1210.992823 1042.879514 
L 1212.476077 1065.484729 
L 1213.95933 1065.484729 
L 1215.442584 1085.425534 
L 1218.409091 1085.425534 
L 1219.892344 1094.113391 
L 1221.375598 1094.113391 
L 1222.858852 1125.352621 
L 1224.342105 1125.352621 
L 1225.825359 1130.464956 
L 1227.308612 1130.464956 
L 1228.791866 1139.237454 
L 1230.27512 1139.237454 
L 1231.758373 1157.585024 
L 1233.241627 1152.930403 
L 1234.72488 1152.930403 
L 1236.208134 1161.194291 
L 1237.691388 1161.194291 
L 1239.174641 1138.663554 
L 1240.657895 1138.663554 
L 1242.141148 1144.111355 
L 1243.624402 1144.111355 
L 1245.107656 1159.184524 
L 1246.590909 1138.289776 
L 1248.074163 1138.289776 
L 1249.557416 1130.431666 
L 1251.04067 1130.431666 
L 1252.523923 1150.603926 
L 1254.007177 1150.603926 
L 1255.490431 1145.038246 
L 1256.973684 1145.038246 
L 1258.456938 1163.963631 
L 1259.940191 1163.963631 
L 1261.423445 1177.096434 
L 1262.906699 1160.452267 
L 1264.389952 1160.452267 
L 1265.873206 1167.970623 
L 1267.356459 1167.970623 
L 1268.839713 1155.197093 
L 1270.322967 1155.197093 
L 1271.80622 1150.932956 
L 1273.289474 1150.932956 
L 1274.772727 1130.113025 
L 1276.255981 1130.113025 
L 1277.739234 1116.895928 
L 1279.222488 1116.895928 
L 1280.705742 1123.283663 
L 1282.188995 1091.229005 
L 1283.672249 1091.229005 
L 1285.155502 1089.188707 
L 1286.638756 1089.188707 
L 1288.12201 1064.455036 
L 1289.605263 1064.455036 
L 1291.088517 1047.866467 
L 1292.57177 1047.866467 
L 1294.055024 1050.452031 
L 1295.538278 1050.452031 
L 1297.021531 1047.836259 
L 1298.504785 1047.836259 
L 1299.988038 1034.596623 
L 1301.471292 1034.596623 
L 1302.954545 1031.64522 
L 1304.437799 1031.64522 
L 1305.921053 1019.657221 
L 1307.404306 1019.657221 
L 1308.88756 1008.80679 
L 1310.370813 1008.80679 
L 1311.854067 1004.558699 
L 1313.337321 1004.558699 
L 1314.820574 1002.773876 
L 1316.303828 1002.773876 
L 1317.787081 1020.250373 
L 1319.270335 1020.250373 
L 1320.753589 1030.412221 
L 1322.236842 1030.412221 
L 1323.720096 1039.453326 
L 1325.203349 1039.453326 
L 1326.686603 1051.655162 
L 1328.169856 1051.655162 
L 1329.65311 1057.145519 
L 1331.136364 1057.145519 
L 1332.619617 1073.349464 
L 1334.102871 1073.349464 
L 1335.586124 1074.392863 
L 1337.069378 1074.392863 
L 1338.552632 1080.839946 
L 1340.035885 1090.339216 
L 1341.519139 1090.339216 
L 1343.002392 1088.134012 
L 1344.485646 1088.134012 
L 1345.9689 1102.31007 
L 1348.935407 1102.31007 
L 1350.41866 1110.512117 
L 1351.901914 1102.191316 
L 1353.385167 1102.191316 
L 1354.868421 1130.886952 
L 1356.351675 1130.886952 
L 1357.834928 1146.327178 
L 1359.318182 1146.327178 
L 1360.801435 1142.982025 
L 1362.284689 1142.982025 
L 1363.767943 1164.403607 
L 1365.251196 1164.403607 
L 1366.73445 1124.98146 
L 1368.217703 1124.98146 
L 1369.700957 1159.51566 
L 1371.184211 1159.51566 
L 1372.667464 1148.220661 
L 1374.150718 1154.821657 
L 1377.117225 1154.821657 
L 1378.600478 1172.484471 
L 1380.083732 1164.244263 
L 1381.566986 1164.244263 
L 1383.050239 1168.042368 
L 1384.533493 1168.042368 
L 1386.016746 1167.474609 
L 1387.5 1167.474609 
L 1388.983254 1160.340952 
L 1390.466507 1160.340952 
L 1391.949761 1151.05721 
L 1394.916268 1151.05721 
L 1396.399522 1110.496303 
L 1397.882775 1110.496303 
L 1399.366029 1106.160156 
L 1400.849282 1084.760704 
L 1402.332536 1084.760704 
L 1403.815789 1099.037327 
L 1405.299043 1099.037327 
L 1406.782297 1088.087433 
L 1408.26555 1088.087433 
L 1409.748804 1072.573297 
L 1411.232057 1072.573297 
L 1412.715311 1078.374547 
L 1414.198565 1078.992362 
L 1415.681818 1078.992362 
L 1417.165072 1086.305152 
L 1418.648325 1086.305152 
L 1420.131579 1080.403111 
L 1421.614833 1080.403111 
L 1423.098086 1102.223955 
L 1424.58134 1102.223955 
L 1426.064593 1097.927191 
L 1427.547847 1097.927191 
L 1429.0311 1079.886438 
L 1430.514354 1079.886438 
L 1431.997608 1072.621908 
L 1433.480861 1081.563181 
L 1434.964115 1081.563181 
L 1436.447368 1071.200035 
L 1437.930622 1071.200035 
L 1439.413876 1066.515306 
L 1440.897129 1066.515306 
L 1442.380383 1060.990179 
L 1443.863636 1060.990179 
L 1445.34689 1036.935812 
L 1446.830144 1066.765738 
L 1448.313397 1066.765738 
L 1449.796651 1063.622996 
L 1451.279904 1063.622996 
L 1452.763158 1062.435582 
L 1454.246411 1062.435582 
L 1455.729665 1071.414845 
L 1457.212919 1077.435282 
L 1458.696172 1077.435282 
L 1460.179426 1077.971415 
L 1461.662679 1077.971415 
L 1463.145933 1090.188674 
L 1464.629187 1090.188674 
L 1466.11244 1085.774061 
L 1467.595694 1085.774061 
L 1469.078947 1088.630792 
L 1470.562201 1100.787446 
L 1472.045455 1100.787446 
L 1473.528708 1088.184353 
L 1475.011962 1088.184353 
L 1476.495215 1086.859653 
L 1477.978469 1086.859653 
L 1479.461722 1068.966844 
L 1480.944976 1068.966844 
L 1482.42823 1080.740596 
L 1483.911483 1080.740596 
L 1485.394737 1075.528704 
L 1486.87799 1082.075605 
L 1488.361244 1082.075605 
L 1489.844498 1113.431936 
L 1491.327751 1113.431936 
L 1492.811005 1120.4177 
L 1494.294258 1120.4177 
L 1495.777512 1127.64003 
L 1497.260766 1111.960352 
L 1498.744019 1111.960352 
L 1500.227273 1142.121224 
L 1501.710526 1142.121224 
L 1503.19378 1158.475684 
L 1504.677033 1158.475684 
L 1506.160287 1144.229369 
L 1507.643541 1144.229369 
L 1509.126794 1164.154015 
L 1510.610048 1164.154015 
L 1512.093301 1167.13675 
L 1513.576555 1167.13675 
L 1515.059809 1159.842037 
L 1516.543062 1159.842037 
L 1518.026316 1165.242355 
L 1519.509569 1165.242355 
L 1520.992823 1189.878821 
L 1522.476077 1189.878821 
L 1523.95933 1179.899391 
L 1526.925837 1179.899391 
L 1528.409091 1173.16872 
L 1529.892344 1171.372379 
L 1531.375598 1171.372379 
L 1532.858852 1138.738782 
L 1534.342105 1138.738782 
L 1535.825359 1140.69897 
L 1537.308612 1140.69897 
L 1538.791866 1123.89178 
L 1540.27512 1123.89178 
L 1541.758373 1097.455803 
L 1543.241627 1085.740397 
L 1544.72488 1085.740397 
L 1546.208134 1062.349494 
L 1547.691388 1062.349494 
L 1549.174641 1039.202556 
L 1550.657895 1039.202556 
L 1552.141148 1036.780001 
L 1553.624402 1036.780001 
L 1555.107656 1037.784569 
L 1556.590909 1037.784569 
L 1556.590909 1037.784569 
" style="fill:none;stroke:#000000;stroke-linecap:square;stroke-width:1.5;"/>
   </g>
   <g id="line2d_30">
    <path clip-path="url(#p9eee5bc233)" d="M 288.409091 223.2 
L 1556.590909 223.2 
L 1556.590909 223.2 
" style="fill:none;stroke:#ff0000;stroke-linecap:square;stroke-width:1.5;"/>
   </g>
   <g id="patch_4">
    <path d="M 225 1281.6 
L 225 172.8 
" style="fill:none;stroke:#000000;stroke-linecap:square;stroke-linejoin:miter;stroke-width:0.8;"/>
   </g>
   <g id="patch_5">
    <path d="M 1620 1281.6 
L 1620 172.8 
" style="fill:none;stroke:#000000;stroke-linecap:square;stroke-linejoin:miter;stroke-width:0.8;"/>
   </g>
   <g id="patch_6">
    <path d="M 225 1281.6 
L 1620 1281.6 
" style="fill:none;stroke:#000000;stroke-linecap:square;stroke-linejoin:miter;stroke-width:0.8;"/>
   </g>
   <g id="patch_7">
    <path d="M 225 172.8 
L 1620 172.8 
" style="fill:none;stroke:#000000;stroke-linecap:square;stroke-linejoin:miter;stroke-width:0.8;"/>
   </g>
   <g id="legend_1">
    <g id="patch_8">
     <path d="M 232 1276.6 
L 340.154688 1276.6 
Q 342.154688 1276.6 342.154688 1274.6 
L 342.154688 1231.565625 
Q 342.154688 1229.565625 340.154688 1229.565625 
L 232 1229.565625 
Q 230 1229.565625 230 1231.565625 
L 230 1274.6 
Q 230 1276.6 232 1276.6 
z
" style="fill:#ffffff;opacity:0.8;stroke:#cccccc;stroke-linejoin:miter;"/>
    </g>
    <g id="line2d_31">
     <path d="M 234 1237.664062 
L 254 1237.664062 
" style="fill:none;stroke:#000000;stroke-linecap:square;stroke-width:1.5;"/>
    </g>
    <g id="line2d_32"/>
    <g id="text_15">
     <!-- Roll position -->
     <defs>
      <path d="M 44.390625 34.1875 
Q 47.5625 33.109375 50.5625 29.59375 
Q 53.5625 26.078125 56.59375 19.921875 
L 66.609375 0 
L 56 0 
L 46.6875 18.703125 
Q 43.0625 26.03125 39.671875 28.421875 
Q 36.28125 30.8125 30.421875 30.8125 
L 19.671875 30.8125 
L 19.671875 0 
L 9.8125 0 
L 9.8125 72.90625 
L 32.078125 72.90625 
Q 44.578125 72.90625 50.734375 67.671875 
Q 56.890625 62.453125 56.890625 51.90625 
Q 56.890625 45.015625 53.6875 40.46875 
Q 50.484375 35.9375 44.390625 34.1875 
z
M 19.671875 64.796875 
L 19.671875 38.921875 
L 32.078125 38.921875 
Q 39.203125 38.921875 42.84375 42.21875 
Q 46.484375 45.515625 46.484375 51.90625 
Q 46.484375 58.296875 42.84375 61.546875 
Q 39.203125 64.796875 32.078125 64.796875 
z
" id="DejaVuSans-52"/>
      <path d="M 30.609375 48.390625 
Q 23.390625 48.390625 19.1875 42.75 
Q 14.984375 37.109375 14.984375 27.296875 
Q 14.984375 17.484375 19.15625 11.84375 
Q 23.34375 6.203125 30.609375 6.203125 
Q 37.796875 6.203125 41.984375 11.859375 
Q 46.1875 17.53125 46.1875 27.296875 
Q 46.1875 37.015625 41.984375 42.703125 
Q 37.796875 48.390625 30.609375 48.390625 
z
M 30.609375 56 
Q 42.328125 56 49.015625 48.375 
Q 55.71875 40.765625 55.71875 27.296875 
Q 55.71875 13.875 49.015625 6.21875 
Q 42.328125 -1.421875 30.609375 -1.421875 
Q 18.84375 -1.421875 12.171875 6.21875 
Q 5.515625 13.875 5.515625 27.296875 
Q 5.515625 40.765625 12.171875 48.375 
Q 18.84375 56 30.609375 56 
z
" id="DejaVuSans-6f"/>
      <path d="M 9.421875 75.984375 
L 18.40625 75.984375 
L 18.40625 0 
L 9.421875 0 
z
" id="DejaVuSans-6c"/>
      <path id="DejaVuSans-20"/>
      <path d="M 18.109375 8.203125 
L 18.109375 -20.796875 
L 9.078125 -20.796875 
L 9.078125 54.6875 
L 18.109375 54.6875 
L 18.109375 46.390625 
Q 20.953125 51.265625 25.265625 53.625 
Q 29.59375 56 35.59375 56 
Q 45.5625 56 51.78125 48.09375 
Q 58.015625 40.1875 58.015625 27.296875 
Q 58.015625 14.40625 51.78125 6.484375 
Q 45.5625 -1.421875 35.59375 -1.421875 
Q 29.59375 -1.421875 25.265625 0.953125 
Q 20.953125 3.328125 18.109375 8.203125 
z
M 48.6875 27.296875 
Q 48.6875 37.203125 44.609375 42.84375 
Q 40.53125 48.484375 33.40625 48.484375 
Q 26.265625 48.484375 22.1875 42.84375 
Q 18.109375 37.203125 18.109375 27.296875 
Q 18.109375 17.390625 22.1875 11.75 
Q 26.265625 6.109375 33.40625 6.109375 
Q 40.53125 6.109375 44.609375 11.75 
Q 48.6875 17.390625 48.6875 27.296875 
z
" id="DejaVuSans-70"/>
      <path d="M 44.28125 53.078125 
L 44.28125 44.578125 
Q 40.484375 46.53125 36.375 47.5 
Q 32.28125 48.484375 27.875 48.484375 
Q 21.1875 48.484375 17.84375 46.4375 
Q 14.5 44.390625 14.5 40.28125 
Q 14.5 37.15625 16.890625 35.375 
Q 19.28125 33.59375 26.515625 31.984375 
L 29.59375 31.296875 
Q 39.15625 29.25 43.1875 25.515625 
Q 47.21875 21.78125 47.21875 15.09375 
Q 47.21875 7.46875 41.1875 3.015625 
Q 35.15625 -1.421875 24.609375 -1.421875 
Q 20.21875 -1.421875 15.453125 -0.5625 
Q 10.6875 0.296875 5.421875 2 
L 5.421875 11.28125 
Q 10.40625 8.6875 15.234375 7.390625 
Q 20.0625 6.109375 24.8125 6.109375 
Q 31.15625 6.109375 34.5625 8.28125 
Q 37.984375 10.453125 37.984375 14.40625 
Q 37.984375 18.0625 35.515625 20.015625 
Q 33.0625 21.96875 24.703125 23.78125 
L 21.578125 24.515625 
Q 13.234375 26.265625 9.515625 29.90625 
Q 5.8125 33.546875 5.8125 39.890625 
Q 5.8125 47.609375 11.28125 51.796875 
Q 16.75 56 26.8125 56 
Q 31.78125 56 36.171875 55.265625 
Q 40.578125 54.546875 44.28125 53.078125 
z
" id="DejaVuSans-73"/>
      <path d="M 9.421875 54.6875 
L 18.40625 54.6875 
L 18.40625 0 
L 9.421875 0 
z
M 9.421875 75.984375 
L 18.40625 75.984375 
L 18.40625 64.59375 
L 9.421875 64.59375 
z
" id="DejaVuSans-69"/>
      <path d="M 18.3125 70.21875 
L 18.3125 54.6875 
L 36.8125 54.6875 
L 36.8125 47.703125 
L 18.3125 47.703125 
L 18.3125 18.015625 
Q 18.3125 11.328125 20.140625 9.421875 
Q 21.96875 7.515625 27.59375 7.515625 
L 36.8125 7.515625 
L 36.8125 0 
L 27.59375 0 
Q 17.1875 0 13.234375 3.875 
Q 9.28125 7.765625 9.28125 18.015625 
L 9.28125 47.703125 
L 2.6875 47.703125 
L 2.6875 54.6875 
L 9.28125 54.6875 
L 9.28125 70.21875 
z
" id="DejaVuSans-74"/>
      <path d="M 54.890625 33.015625 
L 54.890625 0 
L 45.90625 0 
L 45.90625 32.71875 
Q 45.90625 40.484375 42.875 44.328125 
Q 39.84375 48.1875 33.796875 48.1875 
Q 26.515625 48.1875 22.3125 43.546875 
Q 18.109375 38.921875 18.109375 30.90625 
L 18.109375 0 
L 9.078125 0 
L 9.078125 54.6875 
L 18.109375 54.6875 
L 18.109375 46.1875 
Q 21.34375 51.125 25.703125 53.5625 
Q 30.078125 56 35.796875 56 
Q 45.21875 56 50.046875 50.171875 
Q 54.890625 44.34375 54.890625 33.015625 
z
" id="DejaVuSans-6e"/>
     </defs>
     <g transform="translate(262 1241.164062)scale(0.1 -0.1)">
      <use xlink:href="#DejaVuSans-52"/>
      <use x="69.419922" xlink:href="#DejaVuSans-6f"/>
      <use x="130.601562" xlink:href="#DejaVuSans-6c"/>
      <use x="158.384766" xlink:href="#DejaVuSans-6c"/>
      <use x="186.167969" xlink:href="#DejaVuSans-20"/>
      <use x="217.955078" xlink:href="#DejaVuSans-70"/>
      <use x="281.431641" xlink:href="#DejaVuSans-6f"/>
      <use x="342.613281" xlink:href="#DejaVuSans-73"/>
      <use x="394.712891" xlink:href="#DejaVuSans-69"/>
      <use x="422.496094" xlink:href="#DejaVuSans-74"/>
      <use x="461.705078" xlink:href="#DejaVuSans-69"/>
      <use x="489.488281" xlink:href="#DejaVuSans-6f"/>
      <use x="550.669922" xlink:href="#DejaVuSans-6e"/>
     </g>
    </g>
    <g id="line2d_33">
     <path d="M 234 1252.342187 
L 254 1252.342187 
" style="fill:none;stroke:#ff0000;stroke-linecap:square;stroke-width:1.5;"/>
    </g>
    <g id="line2d_34"/>
    <g id="text_16">
     <!-- goal -->
     <defs>
      <path d="M 45.40625 27.984375 
Q 45.40625 37.75 41.375 43.109375 
Q 37.359375 48.484375 30.078125 48.484375 
Q 22.859375 48.484375 18.828125 43.109375 
Q 14.796875 37.75 14.796875 27.984375 
Q 14.796875 18.265625 18.828125 12.890625 
Q 22.859375 7.515625 30.078125 7.515625 
Q 37.359375 7.515625 41.375 12.890625 
Q 45.40625 18.265625 45.40625 27.984375 
z
M 54.390625 6.78125 
Q 54.390625 -7.171875 48.1875 -13.984375 
Q 42 -20.796875 29.203125 -20.796875 
Q 24.46875 -20.796875 20.265625 -20.09375 
Q 16.0625 -19.390625 12.109375 -17.921875 
L 12.109375 -9.1875 
Q 16.0625 -11.328125 19.921875 -12.34375 
Q 23.78125 -13.375 27.78125 -13.375 
Q 36.625 -13.375 41.015625 -8.765625 
Q 45.40625 -4.15625 45.40625 5.171875 
L 45.40625 9.625 
Q 42.625 4.78125 38.28125 2.390625 
Q 33.9375 0 27.875 0 
Q 17.828125 0 11.671875 7.65625 
Q 5.515625 15.328125 5.515625 27.984375 
Q 5.515625 40.671875 11.671875 48.328125 
Q 17.828125 56 27.875 56 
Q 33.9375 56 38.28125 53.609375 
Q 42.625 51.21875 45.40625 46.390625 
L 45.40625 54.6875 
L 54.390625 54.6875 
z
" id="DejaVuSans-67"/>
      <path d="M 34.28125 27.484375 
Q 23.390625 27.484375 19.1875 25 
Q 14.984375 22.515625 14.984375 16.5 
Q 14.984375 11.71875 18.140625 8.90625 
Q 21.296875 6.109375 26.703125 6.109375 
Q 34.1875 6.109375 38.703125 11.40625 
Q 43.21875 16.703125 43.21875 25.484375 
L 43.21875 27.484375 
z
M 52.203125 31.203125 
L 52.203125 0 
L 43.21875 0 
L 43.21875 8.296875 
Q 40.140625 3.328125 35.546875 0.953125 
Q 30.953125 -1.421875 24.3125 -1.421875 
Q 15.921875 -1.421875 10.953125 3.296875 
Q 6 8.015625 6 15.921875 
Q 6 25.140625 12.171875 29.828125 
Q 18.359375 34.515625 30.609375 34.515625 
L 43.21875 34.515625 
L 43.21875 35.40625 
Q 43.21875 41.609375 39.140625 45 
Q 35.0625 48.390625 27.6875 48.390625 
Q 23 48.390625 18.546875 47.265625 
Q 14.109375 46.140625 10.015625 43.890625 
L 10.015625 52.203125 
Q 14.9375 54.109375 19.578125 55.046875 
Q 24.21875 56 28.609375 56 
Q 40.484375 56 46.34375 49.84375 
Q 52.203125 43.703125 52.203125 31.203125 
z
" id="DejaVuSans-61"/>
     </defs>
     <g transform="translate(262 1255.842187)scale(0.1 -0.1)">
      <use xlink:href="#DejaVuSans-67"/>
      <use x="63.476562" xlink:href="#DejaVuSans-6f"/>
      <use x="124.658203" xlink:href="#DejaVuSans-61"/>
      <use x="185.9375" xlink:href="#DejaVuSans-6c"/>
     </g>
    </g>
    <g id="patch_9">
     <path d="M 234 1270.520313 
L 254 1270.520313 
L 254 1263.520313 
L 234 1263.520313 
z
" style="opacity:0.3;"/>
    </g>
    <g id="text_17">
     <!-- +PITCH motion -->
     <defs>
      <path d="M 46 62.703125 
L 46 35.5 
L 73.1875 35.5 
L 73.1875 27.203125 
L 46 27.203125 
L 46 0 
L 37.796875 0 
L 37.796875 27.203125 
L 10.59375 27.203125 
L 10.59375 35.5 
L 37.796875 35.5 
L 37.796875 62.703125 
z
" id="DejaVuSans-2b"/>
      <path d="M 19.671875 64.796875 
L 19.671875 37.40625 
L 32.078125 37.40625 
Q 38.96875 37.40625 42.71875 40.96875 
Q 46.484375 44.53125 46.484375 51.125 
Q 46.484375 57.671875 42.71875 61.234375 
Q 38.96875 64.796875 32.078125 64.796875 
z
M 9.8125 72.90625 
L 32.078125 72.90625 
Q 44.34375 72.90625 50.609375 67.359375 
Q 56.890625 61.8125 56.890625 51.125 
Q 56.890625 40.328125 50.609375 34.8125 
Q 44.34375 29.296875 32.078125 29.296875 
L 19.671875 29.296875 
L 19.671875 0 
L 9.8125 0 
z
" id="DejaVuSans-50"/>
      <path d="M 9.8125 72.90625 
L 19.671875 72.90625 
L 19.671875 0 
L 9.8125 0 
z
" id="DejaVuSans-49"/>
      <path d="M -0.296875 72.90625 
L 61.375 72.90625 
L 61.375 64.59375 
L 35.5 64.59375 
L 35.5 0 
L 25.59375 0 
L 25.59375 64.59375 
L -0.296875 64.59375 
z
" id="DejaVuSans-54"/>
      <path d="M 64.40625 67.28125 
L 64.40625 56.890625 
Q 59.421875 61.53125 53.78125 63.8125 
Q 48.140625 66.109375 41.796875 66.109375 
Q 29.296875 66.109375 22.65625 58.46875 
Q 16.015625 50.828125 16.015625 36.375 
Q 16.015625 21.96875 22.65625 14.328125 
Q 29.296875 6.6875 41.796875 6.6875 
Q 48.140625 6.6875 53.78125 8.984375 
Q 59.421875 11.28125 64.40625 15.921875 
L 64.40625 5.609375 
Q 59.234375 2.09375 53.4375 0.328125 
Q 47.65625 -1.421875 41.21875 -1.421875 
Q 24.65625 -1.421875 15.125 8.703125 
Q 5.609375 18.84375 5.609375 36.375 
Q 5.609375 53.953125 15.125 64.078125 
Q 24.65625 74.21875 41.21875 74.21875 
Q 47.75 74.21875 53.53125 72.484375 
Q 59.328125 70.75 64.40625 67.28125 
z
" id="DejaVuSans-43"/>
      <path d="M 9.8125 72.90625 
L 19.671875 72.90625 
L 19.671875 43.015625 
L 55.515625 43.015625 
L 55.515625 72.90625 
L 65.375 72.90625 
L 65.375 0 
L 55.515625 0 
L 55.515625 34.71875 
L 19.671875 34.71875 
L 19.671875 0 
L 9.8125 0 
z
" id="DejaVuSans-48"/>
      <path d="M 52 44.1875 
Q 55.375 50.25 60.0625 53.125 
Q 64.75 56 71.09375 56 
Q 79.640625 56 84.28125 50.015625 
Q 88.921875 44.046875 88.921875 33.015625 
L 88.921875 0 
L 79.890625 0 
L 79.890625 32.71875 
Q 79.890625 40.578125 77.09375 44.375 
Q 74.3125 48.1875 68.609375 48.1875 
Q 61.625 48.1875 57.5625 43.546875 
Q 53.515625 38.921875 53.515625 30.90625 
L 53.515625 0 
L 44.484375 0 
L 44.484375 32.71875 
Q 44.484375 40.625 41.703125 44.40625 
Q 38.921875 48.1875 33.109375 48.1875 
Q 26.21875 48.1875 22.15625 43.53125 
Q 18.109375 38.875 18.109375 30.90625 
L 18.109375 0 
L 9.078125 0 
L 9.078125 54.6875 
L 18.109375 54.6875 
L 18.109375 46.1875 
Q 21.1875 51.21875 25.484375 53.609375 
Q 29.78125 56 35.6875 56 
Q 41.65625 56 45.828125 52.96875 
Q 50 49.953125 52 44.1875 
z
" id="DejaVuSans-6d"/>
     </defs>
     <g transform="translate(262 1270.520313)scale(0.1 -0.1)">
      <use xlink:href="#DejaVuSans-2b"/>
      <use x="83.789062" xlink:href="#DejaVuSans-50"/>
      <use x="144.091797" xlink:href="#DejaVuSans-49"/>
      <use x="173.583984" xlink:href="#DejaVuSans-54"/>
      <use x="234.589844" xlink:href="#DejaVuSans-43"/>
      <use x="304.414062" xlink:href="#DejaVuSans-48"/>
      <use x="379.609375" xlink:href="#DejaVuSans-20"/>
      <use x="411.396484" xlink:href="#DejaVuSans-6d"/>
      <use x="508.808594" xlink:href="#DejaVuSans-6f"/>
      <use x="569.990234" xlink:href="#DejaVuSans-74"/>
      <use x="609.199219" xlink:href="#DejaVuSans-69"/>
      <use x="636.982422" xlink:href="#DejaVuSans-6f"/>
      <use x="698.164062" xlink:href="#DejaVuSans-6e"/>
     </g>
    </g>
   </g>
  </g>
 </g>
 <defs>
  <clipPath id="p9eee5bc233">
   <rect height="1108.8" width="1395" x="225" y="172.8"/>
  </clipPath>
 </defs>
</svg>
