<?xml version="1.0" encoding="utf-8" standalone="no"?>
<!DOCTYPE svg PUBLIC "-//W3C//DTD SVG 1.1//EN"
  "http://www.w3.org/Graphics/SVG/1.1/DTD/svg11.dtd">
<!-- Created with matplotlib (http://matplotlib.org/) -->
<svg height="1440pt" version="1.1" viewBox="0 0 1800 1440" width="1800pt" xmlns="http://www.w3.org/2000/svg" xmlns:xlink="http://www.w3.org/1999/xlink">
 <defs>
  <style type="text/css">
*{stroke-linecap:butt;stroke-linejoin:round;}
  </style>
 </defs>
 <g id="figure_1">
  <g id="patch_1">
   <path d="M 0 1440 
L 1800 1440 
L 1800 0 
L 0 0 
z
" style="fill:#ffffff;"/>
  </g>
  <g id="axes_1">
   <g id="patch_2">
    <path d="M 225 1281.6 
L 1620 1281.6 
L 1620 172.8 
L 225 172.8 
z
" style="fill:#ffffff;"/>
   </g>
   <g id="matplotlib.axis_1">
    <g id="xtick_1">
     <g id="line2d_1">
      <path clip-path="url(#p8f951a1536)" d="M 288.409091 1281.6 
L 288.409091 172.8 
" style="fill:none;stroke:#b0b0b0;stroke-linecap:square;stroke-width:0.8;"/>
     </g>
     <g id="line2d_2">
      <defs>
       <path d="M 0 0 
L 0 3.5 
" id="md12c120d7d" style="stroke:#000000;stroke-width:0.8;"/>
      </defs>
      <g>
       <use style="stroke:#000000;stroke-width:0.8;" x="288.409091" xlink:href="#md12c120d7d" y="1281.6"/>
      </g>
     </g>
     <g id="text_1">
      <!-- 0 -->
      <defs>
       <path d="M 31.78125 66.40625 
Q 24.171875 66.40625 20.328125 58.90625 
Q 16.5 51.421875 16.5 36.375 
Q 16.5 21.390625 20.328125 13.890625 
Q 24.171875 6.390625 31.78125 6.390625 
Q 39.453125 6.390625 43.28125 13.890625 
Q 47.125 21.390625 47.125 36.375 
Q 47.125 51.421875 43.28125 58.90625 
Q 39.453125 66.40625 31.78125 66.40625 
z
M 31.78125 74.21875 
Q 44.046875 74.21875 50.515625 64.515625 
Q 56.984375 54.828125 56.984375 36.375 
Q 56.984375 17.96875 50.515625 8.265625 
Q 44.046875 -1.421875 31.78125 -1.421875 
Q 19.53125 -1.421875 13.0625 8.265625 
Q 6.59375 17.96875 6.59375 36.375 
Q 6.59375 54.828125 13.0625 64.515625 
Q 19.53125 74.21875 31.78125 74.21875 
z
" id="DejaVuSans-30"/>
      </defs>
      <g transform="translate(285.227841 1296.198437)scale(0.1 -0.1)">
       <use xlink:href="#DejaVuSans-30"/>
      </g>
     </g>
    </g>
    <g id="xtick_2">
     <g id="line2d_3">
      <path clip-path="url(#p8f951a1536)" d="M 585.059809 1281.6 
L 585.059809 172.8 
" style="fill:none;stroke:#b0b0b0;stroke-linecap:square;stroke-width:0.8;"/>
     </g>
     <g id="line2d_4">
      <g>
       <use style="stroke:#000000;stroke-width:0.8;" x="585.059809" xlink:href="#md12c120d7d" y="1281.6"/>
      </g>
     </g>
     <g id="text_2">
      <!-- 200 -->
      <defs>
       <path d="M 19.1875 8.296875 
L 53.609375 8.296875 
L 53.609375 0 
L 7.328125 0 
L 7.328125 8.296875 
Q 12.9375 14.109375 22.625 23.890625 
Q 32.328125 33.6875 34.8125 36.53125 
Q 39.546875 41.84375 41.421875 45.53125 
Q 43.3125 49.21875 43.3125 52.78125 
Q 43.3125 58.59375 39.234375 62.25 
Q 35.15625 65.921875 28.609375 65.921875 
Q 23.96875 65.921875 18.8125 64.3125 
Q 13.671875 62.703125 7.8125 59.421875 
L 7.8125 69.390625 
Q 13.765625 71.78125 18.9375 73 
Q 24.125 74.21875 28.421875 74.21875 
Q 39.75 74.21875 46.484375 68.546875 
Q 53.21875 62.890625 53.21875 53.421875 
Q 53.21875 48.921875 51.53125 44.890625 
Q 49.859375 40.875 45.40625 35.40625 
Q 44.1875 33.984375 37.640625 27.21875 
Q 31.109375 20.453125 19.1875 8.296875 
z
" id="DejaVuSans-32"/>
      </defs>
      <g transform="translate(575.516059 1296.198437)scale(0.1 -0.1)">
       <use xlink:href="#DejaVuSans-32"/>
       <use x="63.623047" xlink:href="#DejaVuSans-30"/>
       <use x="127.246094" xlink:href="#DejaVuSans-30"/>
      </g>
     </g>
    </g>
    <g id="xtick_3">
     <g id="line2d_5">
      <path clip-path="url(#p8f951a1536)" d="M 881.710526 1281.6 
L 881.710526 172.8 
" style="fill:none;stroke:#b0b0b0;stroke-linecap:square;stroke-width:0.8;"/>
     </g>
     <g id="line2d_6">
      <g>
       <use style="stroke:#000000;stroke-width:0.8;" x="881.710526" xlink:href="#md12c120d7d" y="1281.6"/>
      </g>
     </g>
     <g id="text_3">
      <!-- 400 -->
      <defs>
       <path d="M 37.796875 64.3125 
L 12.890625 25.390625 
L 37.796875 25.390625 
z
M 35.203125 72.90625 
L 47.609375 72.90625 
L 47.609375 25.390625 
L 58.015625 25.390625 
L 58.015625 17.1875 
L 47.609375 17.1875 
L 47.609375 0 
L 37.796875 0 
L 37.796875 17.1875 
L 4.890625 17.1875 
L 4.890625 26.703125 
z
" id="DejaVuSans-34"/>
      </defs>
      <g transform="translate(872.166776 1296.198437)scale(0.1 -0.1)">
       <use xlink:href="#DejaVuSans-34"/>
       <use x="63.623047" xlink:href="#DejaVuSans-30"/>
       <use x="127.246094" xlink:href="#DejaVuSans-30"/>
      </g>
     </g>
    </g>
    <g id="xtick_4">
     <g id="line2d_7">
      <path clip-path="url(#p8f951a1536)" d="M 1178.361244 1281.6 
L 1178.361244 172.8 
" style="fill:none;stroke:#b0b0b0;stroke-linecap:square;stroke-width:0.8;"/>
     </g>
     <g id="line2d_8">
      <g>
       <use style="stroke:#000000;stroke-width:0.8;" x="1178.361244" xlink:href="#md12c120d7d" y="1281.6"/>
      </g>
     </g>
     <g id="text_4">
      <!-- 600 -->
      <defs>
       <path d="M 33.015625 40.375 
Q 26.375 40.375 22.484375 35.828125 
Q 18.609375 31.296875 18.609375 23.390625 
Q 18.609375 15.53125 22.484375 10.953125 
Q 26.375 6.390625 33.015625 6.390625 
Q 39.65625 6.390625 43.53125 10.953125 
Q 47.40625 15.53125 47.40625 23.390625 
Q 47.40625 31.296875 43.53125 35.828125 
Q 39.65625 40.375 33.015625 40.375 
z
M 52.59375 71.296875 
L 52.59375 62.3125 
Q 48.875 64.0625 45.09375 64.984375 
Q 41.3125 65.921875 37.59375 65.921875 
Q 27.828125 65.921875 22.671875 59.328125 
Q 17.53125 52.734375 16.796875 39.40625 
Q 19.671875 43.65625 24.015625 45.921875 
Q 28.375 48.1875 33.59375 48.1875 
Q 44.578125 48.1875 50.953125 41.515625 
Q 57.328125 34.859375 57.328125 23.390625 
Q 57.328125 12.15625 50.6875 5.359375 
Q 44.046875 -1.421875 33.015625 -1.421875 
Q 20.359375 -1.421875 13.671875 8.265625 
Q 6.984375 17.96875 6.984375 36.375 
Q 6.984375 53.65625 15.1875 63.9375 
Q 23.390625 74.21875 37.203125 74.21875 
Q 40.921875 74.21875 44.703125 73.484375 
Q 48.484375 72.75 52.59375 71.296875 
z
" id="DejaVuSans-36"/>
      </defs>
      <g transform="translate(1168.817494 1296.198437)scale(0.1 -0.1)">
       <use xlink:href="#DejaVuSans-36"/>
       <use x="63.623047" xlink:href="#DejaVuSans-30"/>
       <use x="127.246094" xlink:href="#DejaVuSans-30"/>
      </g>
     </g>
    </g>
    <g id="xtick_5">
     <g id="line2d_9">
      <path clip-path="url(#p8f951a1536)" d="M 1475.011962 1281.6 
L 1475.011962 172.8 
" style="fill:none;stroke:#b0b0b0;stroke-linecap:square;stroke-width:0.8;"/>
     </g>
     <g id="line2d_10">
      <g>
       <use style="stroke:#000000;stroke-width:0.8;" x="1475.011962" xlink:href="#md12c120d7d" y="1281.6"/>
      </g>
     </g>
     <g id="text_5">
      <!-- 800 -->
      <defs>
       <path d="M 31.78125 34.625 
Q 24.75 34.625 20.71875 30.859375 
Q 16.703125 27.09375 16.703125 20.515625 
Q 16.703125 13.921875 20.71875 10.15625 
Q 24.75 6.390625 31.78125 6.390625 
Q 38.8125 6.390625 42.859375 10.171875 
Q 46.921875 13.96875 46.921875 20.515625 
Q 46.921875 27.09375 42.890625 30.859375 
Q 38.875 34.625 31.78125 34.625 
z
M 21.921875 38.8125 
Q 15.578125 40.375 12.03125 44.71875 
Q 8.5 49.078125 8.5 55.328125 
Q 8.5 64.0625 14.71875 69.140625 
Q 20.953125 74.21875 31.78125 74.21875 
Q 42.671875 74.21875 48.875 69.140625 
Q 55.078125 64.0625 55.078125 55.328125 
Q 55.078125 49.078125 51.53125 44.71875 
Q 48 40.375 41.703125 38.8125 
Q 48.828125 37.15625 52.796875 32.3125 
Q 56.78125 27.484375 56.78125 20.515625 
Q 56.78125 9.90625 50.3125 4.234375 
Q 43.84375 -1.421875 31.78125 -1.421875 
Q 19.734375 -1.421875 13.25 4.234375 
Q 6.78125 9.90625 6.78125 20.515625 
Q 6.78125 27.484375 10.78125 32.3125 
Q 14.796875 37.15625 21.921875 38.8125 
z
M 18.3125 54.390625 
Q 18.3125 48.734375 21.84375 45.5625 
Q 25.390625 42.390625 31.78125 42.390625 
Q 38.140625 42.390625 41.71875 45.5625 
Q 45.3125 48.734375 45.3125 54.390625 
Q 45.3125 60.0625 41.71875 63.234375 
Q 38.140625 66.40625 31.78125 66.40625 
Q 25.390625 66.40625 21.84375 63.234375 
Q 18.3125 60.0625 18.3125 54.390625 
z
" id="DejaVuSans-38"/>
      </defs>
      <g transform="translate(1465.468212 1296.198437)scale(0.1 -0.1)">
       <use xlink:href="#DejaVuSans-38"/>
       <use x="63.623047" xlink:href="#DejaVuSans-30"/>
       <use x="127.246094" xlink:href="#DejaVuSans-30"/>
      </g>
     </g>
    </g>
   </g>
   <g id="matplotlib.axis_2">
    <g id="ytick_1">
     <g id="line2d_11">
      <path clip-path="url(#p8f951a1536)" d="M 225 1281.6 
L 1620 1281.6 
" style="fill:none;stroke:#b0b0b0;stroke-linecap:square;stroke-width:0.8;"/>
     </g>
     <g id="line2d_12">
      <defs>
       <path d="M 0 0 
L -3.5 0 
" id="m3d837d990d" style="stroke:#000000;stroke-width:0.8;"/>
      </defs>
      <g>
       <use style="stroke:#000000;stroke-width:0.8;" x="225" xlink:href="#m3d837d990d" y="1281.6"/>
      </g>
     </g>
     <g id="text_6">
      <!-- −0.862 -->
      <defs>
       <path d="M 10.59375 35.5 
L 73.1875 35.5 
L 73.1875 27.203125 
L 10.59375 27.203125 
z
" id="DejaVuSans-2212"/>
       <path d="M 10.6875 12.40625 
L 21 12.40625 
L 21 0 
L 10.6875 0 
z
" id="DejaVuSans-2e"/>
      </defs>
      <g transform="translate(180.992188 1285.399219)scale(0.1 -0.1)">
       <use xlink:href="#DejaVuSans-2212"/>
       <use x="83.789062" xlink:href="#DejaVuSans-30"/>
       <use x="147.412109" xlink:href="#DejaVuSans-2e"/>
       <use x="179.199219" xlink:href="#DejaVuSans-38"/>
       <use x="242.822266" xlink:href="#DejaVuSans-36"/>
       <use x="306.445312" xlink:href="#DejaVuSans-32"/>
      </g>
     </g>
    </g>
    <g id="ytick_2">
     <g id="line2d_13">
      <path clip-path="url(#p8f951a1536)" d="M 225 1223.236003 
L 1620 1223.236003 
" style="fill:none;stroke:#b0b0b0;stroke-linecap:square;stroke-width:0.8;"/>
     </g>
     <g id="line2d_14">
      <g>
       <use style="stroke:#000000;stroke-width:0.8;" x="225" xlink:href="#m3d837d990d" y="1223.236003"/>
      </g>
     </g>
     <g id="text_7">
      <!-- −0.852 -->
      <defs>
       <path d="M 10.796875 72.90625 
L 49.515625 72.90625 
L 49.515625 64.59375 
L 19.828125 64.59375 
L 19.828125 46.734375 
Q 21.96875 47.46875 24.109375 47.828125 
Q 26.265625 48.1875 28.421875 48.1875 
Q 40.625 48.1875 47.75 41.5 
Q 54.890625 34.8125 54.890625 23.390625 
Q 54.890625 11.625 47.5625 5.09375 
Q 40.234375 -1.421875 26.90625 -1.421875 
Q 22.3125 -1.421875 17.546875 -0.640625 
Q 12.796875 0.140625 7.71875 1.703125 
L 7.71875 11.625 
Q 12.109375 9.234375 16.796875 8.0625 
Q 21.484375 6.890625 26.703125 6.890625 
Q 35.15625 6.890625 40.078125 11.328125 
Q 45.015625 15.765625 45.015625 23.390625 
Q 45.015625 31 40.078125 35.4375 
Q 35.15625 39.890625 26.703125 39.890625 
Q 22.75 39.890625 18.8125 39.015625 
Q 14.890625 38.140625 10.796875 36.28125 
z
" id="DejaVuSans-35"/>
      </defs>
      <g transform="translate(180.992188 1227.035221)scale(0.1 -0.1)">
       <use xlink:href="#DejaVuSans-2212"/>
       <use x="83.789062" xlink:href="#DejaVuSans-30"/>
       <use x="147.412109" xlink:href="#DejaVuSans-2e"/>
       <use x="179.199219" xlink:href="#DejaVuSans-38"/>
       <use x="242.822266" xlink:href="#DejaVuSans-35"/>
       <use x="306.445312" xlink:href="#DejaVuSans-32"/>
      </g>
     </g>
    </g>
    <g id="ytick_3">
     <g id="line2d_15">
      <path clip-path="url(#p8f951a1536)" d="M 225 1164.872005 
L 1620 1164.872005 
" style="fill:none;stroke:#b0b0b0;stroke-linecap:square;stroke-width:0.8;"/>
     </g>
     <g id="line2d_16">
      <g>
       <use style="stroke:#000000;stroke-width:0.8;" x="225" xlink:href="#m3d837d990d" y="1164.872005"/>
      </g>
     </g>
     <g id="text_8">
      <!-- −0.842 -->
      <g transform="translate(180.992188 1168.671224)scale(0.1 -0.1)">
       <use xlink:href="#DejaVuSans-2212"/>
       <use x="83.789062" xlink:href="#DejaVuSans-30"/>
       <use x="147.412109" xlink:href="#DejaVuSans-2e"/>
       <use x="179.199219" xlink:href="#DejaVuSans-38"/>
       <use x="242.822266" xlink:href="#DejaVuSans-34"/>
       <use x="306.445312" xlink:href="#DejaVuSans-32"/>
      </g>
     </g>
    </g>
    <g id="ytick_4">
     <g id="line2d_17">
      <path clip-path="url(#p8f951a1536)" d="M 225 1106.508008 
L 1620 1106.508008 
" style="fill:none;stroke:#b0b0b0;stroke-linecap:square;stroke-width:0.8;"/>
     </g>
     <g id="line2d_18">
      <g>
       <use style="stroke:#000000;stroke-width:0.8;" x="225" xlink:href="#m3d837d990d" y="1106.508008"/>
      </g>
     </g>
     <g id="text_9">
      <!-- −0.832 -->
      <defs>
       <path d="M 40.578125 39.3125 
Q 47.65625 37.796875 51.625 33 
Q 55.609375 28.21875 55.609375 21.1875 
Q 55.609375 10.40625 48.1875 4.484375 
Q 40.765625 -1.421875 27.09375 -1.421875 
Q 22.515625 -1.421875 17.65625 -0.515625 
Q 12.796875 0.390625 7.625 2.203125 
L 7.625 11.71875 
Q 11.71875 9.328125 16.59375 8.109375 
Q 21.484375 6.890625 26.8125 6.890625 
Q 36.078125 6.890625 40.9375 10.546875 
Q 45.796875 14.203125 45.796875 21.1875 
Q 45.796875 27.640625 41.28125 31.265625 
Q 36.765625 34.90625 28.71875 34.90625 
L 20.21875 34.90625 
L 20.21875 43.015625 
L 29.109375 43.015625 
Q 36.375 43.015625 40.234375 45.921875 
Q 44.09375 48.828125 44.09375 54.296875 
Q 44.09375 59.90625 40.109375 62.90625 
Q 36.140625 65.921875 28.71875 65.921875 
Q 24.65625 65.921875 20.015625 65.03125 
Q 15.375 64.15625 9.8125 62.3125 
L 9.8125 71.09375 
Q 15.4375 72.65625 20.34375 73.4375 
Q 25.25 74.21875 29.59375 74.21875 
Q 40.828125 74.21875 47.359375 69.109375 
Q 53.90625 64.015625 53.90625 55.328125 
Q 53.90625 49.265625 50.4375 45.09375 
Q 46.96875 40.921875 40.578125 39.3125 
z
" id="DejaVuSans-33"/>
      </defs>
      <g transform="translate(180.992188 1110.307227)scale(0.1 -0.1)">
       <use xlink:href="#DejaVuSans-2212"/>
       <use x="83.789062" xlink:href="#DejaVuSans-30"/>
       <use x="147.412109" xlink:href="#DejaVuSans-2e"/>
       <use x="179.199219" xlink:href="#DejaVuSans-38"/>
       <use x="242.822266" xlink:href="#DejaVuSans-33"/>
       <use x="306.445312" xlink:href="#DejaVuSans-32"/>
      </g>
     </g>
    </g>
    <g id="ytick_5">
     <g id="line2d_19">
      <path clip-path="url(#p8f951a1536)" d="M 225 1048.144011 
L 1620 1048.144011 
" style="fill:none;stroke:#b0b0b0;stroke-linecap:square;stroke-width:0.8;"/>
     </g>
     <g id="line2d_20">
      <g>
       <use style="stroke:#000000;stroke-width:0.8;" x="225" xlink:href="#m3d837d990d" y="1048.144011"/>
      </g>
     </g>
     <g id="text_10">
      <!-- −0.822 -->
      <g transform="translate(180.992188 1051.94323)scale(0.1 -0.1)">
       <use xlink:href="#DejaVuSans-2212"/>
       <use x="83.789062" xlink:href="#DejaVuSans-30"/>
       <use x="147.412109" xlink:href="#DejaVuSans-2e"/>
       <use x="179.199219" xlink:href="#DejaVuSans-38"/>
       <use x="242.822266" xlink:href="#DejaVuSans-32"/>
       <use x="306.445312" xlink:href="#DejaVuSans-32"/>
      </g>
     </g>
    </g>
    <g id="ytick_6">
     <g id="line2d_21">
      <path clip-path="url(#p8f951a1536)" d="M 225 989.780014 
L 1620 989.780014 
" style="fill:none;stroke:#b0b0b0;stroke-linecap:square;stroke-width:0.8;"/>
     </g>
     <g id="line2d_22">
      <g>
       <use style="stroke:#000000;stroke-width:0.8;" x="225" xlink:href="#m3d837d990d" y="989.780014"/>
      </g>
     </g>
     <g id="text_11">
      <!-- −0.812 -->
      <defs>
       <path d="M 12.40625 8.296875 
L 28.515625 8.296875 
L 28.515625 63.921875 
L 10.984375 60.40625 
L 10.984375 69.390625 
L 28.421875 72.90625 
L 38.28125 72.90625 
L 38.28125 8.296875 
L 54.390625 8.296875 
L 54.390625 0 
L 12.40625 0 
z
" id="DejaVuSans-31"/>
      </defs>
      <g transform="translate(180.992188 993.579232)scale(0.1 -0.1)">
       <use xlink:href="#DejaVuSans-2212"/>
       <use x="83.789062" xlink:href="#DejaVuSans-30"/>
       <use x="147.412109" xlink:href="#DejaVuSans-2e"/>
       <use x="179.199219" xlink:href="#DejaVuSans-38"/>
       <use x="242.822266" xlink:href="#DejaVuSans-31"/>
       <use x="306.445312" xlink:href="#DejaVuSans-32"/>
      </g>
     </g>
    </g>
    <g id="ytick_7">
     <g id="line2d_23">
      <path clip-path="url(#p8f951a1536)" d="M 225 931.416016 
L 1620 931.416016 
" style="fill:none;stroke:#b0b0b0;stroke-linecap:square;stroke-width:0.8;"/>
     </g>
     <g id="line2d_24">
      <g>
       <use style="stroke:#000000;stroke-width:0.8;" x="225" xlink:href="#m3d837d990d" y="931.416016"/>
      </g>
     </g>
     <g id="text_12">
      <!-- −0.802 -->
      <g transform="translate(180.992188 935.215235)scale(0.1 -0.1)">
       <use xlink:href="#DejaVuSans-2212"/>
       <use x="83.789062" xlink:href="#DejaVuSans-30"/>
       <use x="147.412109" xlink:href="#DejaVuSans-2e"/>
       <use x="179.199219" xlink:href="#DejaVuSans-38"/>
       <use x="242.822266" xlink:href="#DejaVuSans-30"/>
       <use x="306.445312" xlink:href="#DejaVuSans-32"/>
      </g>
     </g>
    </g>
    <g id="ytick_8">
     <g id="line2d_25">
      <path clip-path="url(#p8f951a1536)" d="M 225 873.052019 
L 1620 873.052019 
" style="fill:none;stroke:#b0b0b0;stroke-linecap:square;stroke-width:0.8;"/>
     </g>
     <g id="line2d_26">
      <g>
       <use style="stroke:#000000;stroke-width:0.8;" x="225" xlink:href="#m3d837d990d" y="873.052019"/>
      </g>
     </g>
     <g id="text_13">
      <!-- −0.792 -->
      <defs>
       <path d="M 8.203125 72.90625 
L 55.078125 72.90625 
L 55.078125 68.703125 
L 28.609375 0 
L 18.3125 0 
L 43.21875 64.59375 
L 8.203125 64.59375 
z
" id="DejaVuSans-37"/>
       <path d="M 10.984375 1.515625 
L 10.984375 10.5 
Q 14.703125 8.734375 18.5 7.8125 
Q 22.3125 6.890625 25.984375 6.890625 
Q 35.75 6.890625 40.890625 13.453125 
Q 46.046875 20.015625 46.78125 33.40625 
Q 43.953125 29.203125 39.59375 26.953125 
Q 35.25 24.703125 29.984375 24.703125 
Q 19.046875 24.703125 12.671875 31.3125 
Q 6.296875 37.9375 6.296875 49.421875 
Q 6.296875 60.640625 12.9375 67.421875 
Q 19.578125 74.21875 30.609375 74.21875 
Q 43.265625 74.21875 49.921875 64.515625 
Q 56.59375 54.828125 56.59375 36.375 
Q 56.59375 19.140625 48.40625 8.859375 
Q 40.234375 -1.421875 26.421875 -1.421875 
Q 22.703125 -1.421875 18.890625 -0.6875 
Q 15.09375 0.046875 10.984375 1.515625 
z
M 30.609375 32.421875 
Q 37.25 32.421875 41.125 36.953125 
Q 45.015625 41.5 45.015625 49.421875 
Q 45.015625 57.28125 41.125 61.84375 
Q 37.25 66.40625 30.609375 66.40625 
Q 23.96875 66.40625 20.09375 61.84375 
Q 16.21875 57.28125 16.21875 49.421875 
Q 16.21875 41.5 20.09375 36.953125 
Q 23.96875 32.421875 30.609375 32.421875 
z
" id="DejaVuSans-39"/>
      </defs>
      <g transform="translate(180.992188 876.851238)scale(0.1 -0.1)">
       <use xlink:href="#DejaVuSans-2212"/>
       <use x="83.789062" xlink:href="#DejaVuSans-30"/>
       <use x="147.412109" xlink:href="#DejaVuSans-2e"/>
       <use x="179.199219" xlink:href="#DejaVuSans-37"/>
       <use x="242.822266" xlink:href="#DejaVuSans-39"/>
       <use x="306.445312" xlink:href="#DejaVuSans-32"/>
      </g>
     </g>
    </g>
    <g id="ytick_9">
     <g id="line2d_27">
      <path clip-path="url(#p8f951a1536)" d="M 225 814.688022 
L 1620 814.688022 
" style="fill:none;stroke:#b0b0b0;stroke-linecap:square;stroke-width:0.8;"/>
     </g>
     <g id="line2d_28">
      <g>
       <use style="stroke:#000000;stroke-width:0.8;" x="225" xlink:href="#m3d837d990d" y="814.688022"/>
      </g>
     </g>
     <g id="text_14">
      <!-- −0.782 -->
      <g transform="translate(180.992188 818.487241)scale(0.1 -0.1)">
       <use xlink:href="#DejaVuSans-2212"/>
       <use x="83.789062" xlink:href="#DejaVuSans-30"/>
       <use x="147.412109" xlink:href="#DejaVuSans-2e"/>
       <use x="179.199219" xlink:href="#DejaVuSans-37"/>
       <use x="242.822266" xlink:href="#DejaVuSans-38"/>
       <use x="306.445312" xlink:href="#DejaVuSans-32"/>
      </g>
     </g>
    </g>
    <g id="ytick_10">
     <g id="line2d_29">
      <path clip-path="url(#p8f951a1536)" d="M 225 756.324025 
L 1620 756.324025 
" style="fill:none;stroke:#b0b0b0;stroke-linecap:square;stroke-width:0.8;"/>
     </g>
     <g id="line2d_30">
      <g>
       <use style="stroke:#000000;stroke-width:0.8;" x="225" xlink:href="#m3d837d990d" y="756.324025"/>
      </g>
     </g>
     <g id="text_15">
      <!-- −0.772 -->
      <g transform="translate(180.992188 760.123243)scale(0.1 -0.1)">
       <use xlink:href="#DejaVuSans-2212"/>
       <use x="83.789062" xlink:href="#DejaVuSans-30"/>
       <use x="147.412109" xlink:href="#DejaVuSans-2e"/>
       <use x="179.199219" xlink:href="#DejaVuSans-37"/>
       <use x="242.822266" xlink:href="#DejaVuSans-37"/>
       <use x="306.445312" xlink:href="#DejaVuSans-32"/>
      </g>
     </g>
    </g>
    <g id="ytick_11">
     <g id="line2d_31">
      <path clip-path="url(#p8f951a1536)" d="M 225 697.960027 
L 1620 697.960027 
" style="fill:none;stroke:#b0b0b0;stroke-linecap:square;stroke-width:0.8;"/>
     </g>
     <g id="line2d_32">
      <g>
       <use style="stroke:#000000;stroke-width:0.8;" x="225" xlink:href="#m3d837d990d" y="697.960027"/>
      </g>
     </g>
     <g id="text_16">
      <!-- −0.762 -->
      <g transform="translate(180.992188 701.759246)scale(0.1 -0.1)">
       <use xlink:href="#DejaVuSans-2212"/>
       <use x="83.789062" xlink:href="#DejaVuSans-30"/>
       <use x="147.412109" xlink:href="#DejaVuSans-2e"/>
       <use x="179.199219" xlink:href="#DejaVuSans-37"/>
       <use x="242.822266" xlink:href="#DejaVuSans-36"/>
       <use x="306.445312" xlink:href="#DejaVuSans-32"/>
      </g>
     </g>
    </g>
    <g id="ytick_12">
     <g id="line2d_33">
      <path clip-path="url(#p8f951a1536)" d="M 225 639.59603 
L 1620 639.59603 
" style="fill:none;stroke:#b0b0b0;stroke-linecap:square;stroke-width:0.8;"/>
     </g>
     <g id="line2d_34">
      <g>
       <use style="stroke:#000000;stroke-width:0.8;" x="225" xlink:href="#m3d837d990d" y="639.59603"/>
      </g>
     </g>
     <g id="text_17">
      <!-- −0.752 -->
      <g transform="translate(180.992188 643.395249)scale(0.1 -0.1)">
       <use xlink:href="#DejaVuSans-2212"/>
       <use x="83.789062" xlink:href="#DejaVuSans-30"/>
       <use x="147.412109" xlink:href="#DejaVuSans-2e"/>
       <use x="179.199219" xlink:href="#DejaVuSans-37"/>
       <use x="242.822266" xlink:href="#DejaVuSans-35"/>
       <use x="306.445312" xlink:href="#DejaVuSans-32"/>
      </g>
     </g>
    </g>
    <g id="ytick_13">
     <g id="line2d_35">
      <path clip-path="url(#p8f951a1536)" d="M 225 581.232033 
L 1620 581.232033 
" style="fill:none;stroke:#b0b0b0;stroke-linecap:square;stroke-width:0.8;"/>
     </g>
     <g id="line2d_36">
      <g>
       <use style="stroke:#000000;stroke-width:0.8;" x="225" xlink:href="#m3d837d990d" y="581.232033"/>
      </g>
     </g>
     <g id="text_18">
      <!-- −0.742 -->
      <g transform="translate(180.992188 585.031252)scale(0.1 -0.1)">
       <use xlink:href="#DejaVuSans-2212"/>
       <use x="83.789062" xlink:href="#DejaVuSans-30"/>
       <use x="147.412109" xlink:href="#DejaVuSans-2e"/>
       <use x="179.199219" xlink:href="#DejaVuSans-37"/>
       <use x="242.822266" xlink:href="#DejaVuSans-34"/>
       <use x="306.445312" xlink:href="#DejaVuSans-32"/>
      </g>
     </g>
    </g>
    <g id="ytick_14">
     <g id="line2d_37">
      <path clip-path="url(#p8f951a1536)" d="M 225 522.868036 
L 1620 522.868036 
" style="fill:none;stroke:#b0b0b0;stroke-linecap:square;stroke-width:0.8;"/>
     </g>
     <g id="line2d_38">
      <g>
       <use style="stroke:#000000;stroke-width:0.8;" x="225" xlink:href="#m3d837d990d" y="522.868036"/>
      </g>
     </g>
     <g id="text_19">
      <!-- −0.732 -->
      <g transform="translate(180.992188 526.667254)scale(0.1 -0.1)">
       <use xlink:href="#DejaVuSans-2212"/>
       <use x="83.789062" xlink:href="#DejaVuSans-30"/>
       <use x="147.412109" xlink:href="#DejaVuSans-2e"/>
       <use x="179.199219" xlink:href="#DejaVuSans-37"/>
       <use x="242.822266" xlink:href="#DejaVuSans-33"/>
       <use x="306.445312" xlink:href="#DejaVuSans-32"/>
      </g>
     </g>
    </g>
    <g id="ytick_15">
     <g id="line2d_39">
      <path clip-path="url(#p8f951a1536)" d="M 225 464.504038 
L 1620 464.504038 
" style="fill:none;stroke:#b0b0b0;stroke-linecap:square;stroke-width:0.8;"/>
     </g>
     <g id="line2d_40">
      <g>
       <use style="stroke:#000000;stroke-width:0.8;" x="225" xlink:href="#m3d837d990d" y="464.504038"/>
      </g>
     </g>
     <g id="text_20">
      <!-- −0.722 -->
      <g transform="translate(180.992188 468.303257)scale(0.1 -0.1)">
       <use xlink:href="#DejaVuSans-2212"/>
       <use x="83.789062" xlink:href="#DejaVuSans-30"/>
       <use x="147.412109" xlink:href="#DejaVuSans-2e"/>
       <use x="179.199219" xlink:href="#DejaVuSans-37"/>
       <use x="242.822266" xlink:href="#DejaVuSans-32"/>
       <use x="306.445312" xlink:href="#DejaVuSans-32"/>
      </g>
     </g>
    </g>
    <g id="ytick_16">
     <g id="line2d_41">
      <path clip-path="url(#p8f951a1536)" d="M 225 406.140041 
L 1620 406.140041 
" style="fill:none;stroke:#b0b0b0;stroke-linecap:square;stroke-width:0.8;"/>
     </g>
     <g id="line2d_42">
      <g>
       <use style="stroke:#000000;stroke-width:0.8;" x="225" xlink:href="#m3d837d990d" y="406.140041"/>
      </g>
     </g>
     <g id="text_21">
      <!-- −0.712 -->
      <g transform="translate(180.992188 409.93926)scale(0.1 -0.1)">
       <use xlink:href="#DejaVuSans-2212"/>
       <use x="83.789062" xlink:href="#DejaVuSans-30"/>
       <use x="147.412109" xlink:href="#DejaVuSans-2e"/>
       <use x="179.199219" xlink:href="#DejaVuSans-37"/>
       <use x="242.822266" xlink:href="#DejaVuSans-31"/>
       <use x="306.445312" xlink:href="#DejaVuSans-32"/>
      </g>
     </g>
    </g>
    <g id="ytick_17">
     <g id="line2d_43">
      <path clip-path="url(#p8f951a1536)" d="M 225 347.776044 
L 1620 347.776044 
" style="fill:none;stroke:#b0b0b0;stroke-linecap:square;stroke-width:0.8;"/>
     </g>
     <g id="line2d_44">
      <g>
       <use style="stroke:#000000;stroke-width:0.8;" x="225" xlink:href="#m3d837d990d" y="347.776044"/>
      </g>
     </g>
     <g id="text_22">
      <!-- −0.702 -->
      <g transform="translate(180.992188 351.575263)scale(0.1 -0.1)">
       <use xlink:href="#DejaVuSans-2212"/>
       <use x="83.789062" xlink:href="#DejaVuSans-30"/>
       <use x="147.412109" xlink:href="#DejaVuSans-2e"/>
       <use x="179.199219" xlink:href="#DejaVuSans-37"/>
       <use x="242.822266" xlink:href="#DejaVuSans-30"/>
       <use x="306.445312" xlink:href="#DejaVuSans-32"/>
      </g>
     </g>
    </g>
    <g id="ytick_18">
     <g id="line2d_45">
      <path clip-path="url(#p8f951a1536)" d="M 225 289.412047 
L 1620 289.412047 
" style="fill:none;stroke:#b0b0b0;stroke-linecap:square;stroke-width:0.8;"/>
     </g>
     <g id="line2d_46">
      <g>
       <use style="stroke:#000000;stroke-width:0.8;" x="225" xlink:href="#m3d837d990d" y="289.412047"/>
      </g>
     </g>
     <g id="text_23">
      <!-- −0.692 -->
      <g transform="translate(180.992188 293.211265)scale(0.1 -0.1)">
       <use xlink:href="#DejaVuSans-2212"/>
       <use x="83.789062" xlink:href="#DejaVuSans-30"/>
       <use x="147.412109" xlink:href="#DejaVuSans-2e"/>
       <use x="179.199219" xlink:href="#DejaVuSans-36"/>
       <use x="242.822266" xlink:href="#DejaVuSans-39"/>
       <use x="306.445312" xlink:href="#DejaVuSans-32"/>
      </g>
     </g>
    </g>
    <g id="ytick_19">
     <g id="line2d_47">
      <path clip-path="url(#p8f951a1536)" d="M 225 231.048049 
L 1620 231.048049 
" style="fill:none;stroke:#b0b0b0;stroke-linecap:square;stroke-width:0.8;"/>
     </g>
     <g id="line2d_48">
      <g>
       <use style="stroke:#000000;stroke-width:0.8;" x="225" xlink:href="#m3d837d990d" y="231.048049"/>
      </g>
     </g>
     <g id="text_24">
      <!-- −0.682 -->
      <g transform="translate(180.992188 234.847268)scale(0.1 -0.1)">
       <use xlink:href="#DejaVuSans-2212"/>
       <use x="83.789062" xlink:href="#DejaVuSans-30"/>
       <use x="147.412109" xlink:href="#DejaVuSans-2e"/>
       <use x="179.199219" xlink:href="#DejaVuSans-36"/>
       <use x="242.822266" xlink:href="#DejaVuSans-38"/>
       <use x="306.445312" xlink:href="#DejaVuSans-32"/>
      </g>
     </g>
    </g>
   </g>
   <g id="patch_3">
    <path clip-path="url(#p8f951a1536)" d="M 288.409091 1281.6 
L 1558.074163 1281.6 
L 1558.074163 172.8 
L 288.409091 172.8 
z
" style="opacity:0.3;"/>
   </g>
   <g id="line2d_49">
    <path clip-path="url(#p8f951a1536)" d="M 288.409091 353.648606 
L 289.892344 357.088899 
L 291.375598 357.088899 
L 292.858852 356.625814 
L 297.308612 356.584442 
L 298.791866 356.356889 
L 300.27512 361.530409 
L 301.758373 361.530409 
L 303.241627 360.189461 
L 304.72488 360.189461 
L 306.208134 363.15046 
L 307.691388 363.15046 
L 309.174641 359.846658 
L 310.657895 359.846658 
L 312.141148 364.900142 
L 313.624402 364.900142 
L 315.107656 374.572931 
L 319.557416 374.621379 
L 321.04067 383.1905 
L 322.523923 383.1905 
L 324.007177 387.032156 
L 325.490431 388.322969 
L 326.973684 388.322969 
L 328.456938 394.924321 
L 332.906699 394.985761 
L 334.389952 389.651833 
L 335.873206 389.651833 
L 337.356459 383.768556 
L 338.839713 382.393577 
L 340.322967 382.393577 
L 341.80622 378.129679 
L 343.289474 378.129679 
L 344.772727 368.615962 
L 346.255981 368.615962 
L 347.739234 361.233707 
L 349.222488 359.232014 
L 350.705742 359.232014 
L 352.188995 351.06642 
L 353.672249 351.06642 
L 355.155502 347.540805 
L 356.638756 347.540805 
L 358.12201 348.809016 
L 359.605263 348.809016 
L 361.088517 345.955865 
L 362.57177 345.955865 
L 364.055024 346.220524 
L 365.538278 346.220524 
L 367.021531 354.24066 
L 368.504785 354.24066 
L 369.988038 357.720403 
L 371.471292 357.720403 
L 372.954545 358.371465 
L 374.437799 358.371465 
L 375.921053 366.435078 
L 377.404306 366.435078 
L 378.88756 366.664669 
L 380.370813 366.664669 
L 381.854067 378.82337 
L 384.820574 378.82337 
L 386.303828 375.539334 
L 387.787081 383.732009 
L 389.270335 383.732009 
L 390.753589 386.311465 
L 392.236842 386.311465 
L 393.720096 384.594843 
L 395.203349 384.594843 
L 396.686603 387.158562 
L 398.169856 387.158562 
L 399.65311 389.120004 
L 401.136364 384.086498 
L 402.619617 384.086498 
L 404.102871 383.859814 
L 405.586124 383.859814 
L 407.069378 381.978631 
L 408.552632 381.978631 
L 410.035885 379.836673 
L 411.519139 379.836673 
L 413.002392 380.232632 
L 414.485646 380.232632 
L 415.9689 378.755525 
L 417.452153 378.755525 
L 418.935407 378.127187 
L 420.41866 378.127187 
L 421.901914 375.862526 
L 423.385167 375.862526 
L 424.868421 377.571607 
L 426.351675 377.571607 
L 427.834928 374.789742 
L 429.318182 374.789742 
L 430.801435 366.560399 
L 432.284689 366.560399 
L 433.767943 361.38343 
L 435.251196 361.38343 
L 436.73445 360.757217 
L 438.217703 360.757217 
L 439.700957 354.949854 
L 441.184211 343.216166 
L 442.667464 343.216166 
L 444.150718 338.816933 
L 445.633971 338.816933 
L 447.117225 329.864828 
L 448.600478 329.864828 
L 450.083732 327.557635 
L 451.566986 320.858058 
L 453.050239 320.858058 
L 454.533493 318.557273 
L 456.016746 318.557273 
L 457.5 316.001601 
L 458.983254 316.001601 
L 460.466507 320.212743 
L 461.949761 323.476136 
L 463.433014 323.476136 
L 464.916268 327.058531 
L 466.399522 327.058531 
L 467.882775 328.203151 
L 469.366029 328.203151 
L 470.849282 332.67788 
L 472.332536 332.67788 
L 473.815789 338.885259 
L 475.299043 338.885259 
L 476.782297 344.388401 
L 478.26555 344.388401 
L 479.748804 348.677916 
L 481.232057 353.485923 
L 482.715311 353.485923 
L 484.198565 353.885502 
L 487.165072 353.885502 
L 488.648325 353.593352 
L 490.131579 352.797735 
L 491.614833 352.797735 
L 493.098086 357.490167 
L 494.58134 357.490167 
L 496.064593 353.031797 
L 497.547847 353.031797 
L 499.0311 353.516842 
L 500.514354 353.516842 
L 501.997608 350.184614 
L 503.480861 350.184614 
L 504.964115 348.65081 
L 506.447368 348.65081 
L 507.930622 347.525072 
L 509.413876 349.725893 
L 510.897129 349.725893 
L 512.380383 350.442789 
L 513.863636 350.442789 
L 515.34689 350.646809 
L 516.830144 350.646809 
L 518.313397 351.723616 
L 519.796651 351.723616 
L 521.279904 354.919574 
L 522.763158 354.919574 
L 524.246411 354.082567 
L 525.729665 351.153377 
L 527.212919 351.153377 
L 528.696172 352.720028 
L 530.179426 352.720028 
L 531.662679 348.442265 
L 533.145933 348.442265 
L 534.629187 346.100639 
L 536.11244 340.979073 
L 537.595694 340.979073 
L 539.078947 334.696799 
L 540.562201 334.696799 
L 542.045455 331.91535 
L 543.528708 331.91535 
L 545.011962 327.991157 
L 546.495215 327.991157 
L 547.978469 323.169743 
L 549.461722 323.169743 
L 550.944976 323.598536 
L 552.42823 323.598536 
L 553.911483 324.353053 
L 555.394737 324.353053 
L 556.87799 324.229354 
L 558.361244 324.229354 
L 559.844498 323.709603 
L 561.327751 323.709603 
L 562.811005 333.017716 
L 564.294258 333.017716 
L 565.777512 344.002272 
L 567.260766 344.002272 
L 568.744019 351.019418 
L 570.227273 351.019418 
L 571.710526 354.580188 
L 573.19378 354.580188 
L 574.677033 355.8349 
L 576.160287 355.8349 
L 577.643541 360.159408 
L 579.126794 360.159408 
L 580.610048 363.23428 
L 582.093301 363.23428 
L 583.576555 361.639442 
L 585.059809 361.639442 
L 586.543062 358.549093 
L 588.026316 358.549093 
L 589.509569 356.952074 
L 590.992823 356.952074 
L 592.476077 356.617894 
L 593.95933 356.617894 
L 595.442584 353.896256 
L 596.925837 346.013076 
L 598.409091 346.013076 
L 599.892344 343.033712 
L 601.375598 343.033712 
L 602.858852 339.421157 
L 604.342105 339.421157 
L 605.825359 338.080395 
L 607.308612 338.080395 
L 608.791866 337.006013 
L 610.27512 337.006013 
L 611.758373 334.37709 
L 613.241627 332.860633 
L 614.72488 332.860633 
L 616.208134 325.574711 
L 617.691388 325.574711 
L 619.174641 327.867917 
L 620.657895 327.867917 
L 622.141148 322.490088 
L 623.624402 316.352688 
L 625.107656 316.352688 
L 626.590909 314.012807 
L 628.074163 314.012807 
L 629.557416 312.707935 
L 631.04067 312.707935 
L 632.523923 306.978633 
L 634.007177 306.978633 
L 635.490431 300.039668 
L 636.973684 300.039668 
L 638.456938 305.140401 
L 639.940191 305.140401 
L 641.423445 304.921284 
L 642.906699 304.921284 
L 644.389952 310.153826 
L 645.873206 310.153826 
L 647.356459 312.62359 
L 648.839713 312.62359 
L 650.322967 314.532993 
L 651.80622 318.481844 
L 653.289474 318.481844 
L 654.772727 322.523284 
L 657.739234 322.523284 
L 659.222488 330.845075 
L 660.705742 330.845075 
L 662.188995 337.468887 
L 663.672249 339.877144 
L 665.155502 339.877144 
L 666.638756 345.844703 
L 668.12201 345.844703 
L 669.605263 350.287884 
L 671.088517 350.287884 
L 672.57177 354.188242 
L 674.055024 359.569388 
L 675.538278 359.569388 
L 677.021531 367.814057 
L 678.504785 367.814057 
L 679.988038 373.188854 
L 681.471292 373.188854 
L 682.954545 383.757329 
L 684.437799 393.201062 
L 685.921053 393.201062 
L 687.404306 409.619305 
L 688.88756 409.619305 
L 690.370813 420.599917 
L 691.854067 420.599917 
L 693.337321 428.878756 
L 694.820574 428.878756 
L 696.303828 435.258969 
L 697.787081 448.153839 
L 699.270335 448.153839 
L 700.753589 461.745695 
L 702.236842 461.745695 
L 703.720096 468.11896 
L 705.203349 468.11896 
L 706.686603 484.401105 
L 708.169856 493.243575 
L 709.65311 493.243575 
L 711.136364 501.981133 
L 712.619617 501.981133 
L 714.102871 509.946508 
L 715.586124 509.946508 
L 717.069378 533.627883 
L 718.552632 533.627883 
L 721.519139 549.777063 
L 723.002392 549.777063 
L 724.485646 557.574904 
L 725.9689 557.574904 
L 727.452153 567.750012 
L 728.935407 567.750012 
L 730.41866 574.43114 
L 731.901914 574.43114 
L 733.385167 589.124675 
L 734.868421 605.07012 
L 736.351675 605.07012 
L 737.834928 611.342259 
L 739.318182 611.342259 
L 740.801435 629.363986 
L 742.284689 629.363986 
L 743.767943 641.401142 
L 745.251196 641.401142 
L 746.73445 653.402129 
L 748.217703 668.942668 
L 749.700957 668.942668 
L 751.184211 688.715742 
L 752.667464 688.715742 
L 754.150718 700.573621 
L 755.633971 700.573621 
L 757.117225 716.190831 
L 758.600478 716.190831 
L 760.083732 731.069156 
L 761.566986 743.878163 
L 763.050239 743.878163 
L 764.533493 754.252692 
L 766.016746 754.252692 
L 767.5 762.87297 
L 768.983254 762.87297 
L 770.466507 773.266309 
L 771.949761 773.266309 
L 773.433014 787.448039 
L 774.916268 787.448039 
L 776.399522 812.419897 
L 777.882775 812.419897 
L 779.366029 818.131925 
L 780.849282 829.275052 
L 782.332536 829.275052 
L 783.815789 843.527052 
L 785.299043 843.527052 
L 786.782297 857.673955 
L 788.26555 857.673955 
L 789.748804 862.854009 
L 791.232057 862.854009 
L 792.715311 869.886374 
L 794.198565 895.533631 
L 795.681818 895.533631 
L 797.165072 906.0621 
L 798.648325 907.463519 
L 800.131579 907.463519 
L 801.614833 914.789477 
L 803.098086 914.789477 
L 804.58134 923.354161 
L 806.064593 923.354161 
L 807.547847 924.786464 
L 809.0311 924.786464 
L 810.514354 929.895202 
L 811.997608 929.895202 
L 813.480861 943.442041 
L 814.964115 943.442041 
L 816.447368 950.124607 
L 817.930622 950.124607 
L 819.413876 969.008477 
L 820.897129 969.008477 
L 822.380383 974.657349 
L 823.863636 974.657349 
L 825.34689 982.994664 
L 826.830144 982.994664 
L 828.313397 991.452551 
L 829.796651 1008.684515 
L 831.279904 1008.684515 
L 832.763158 1012.862462 
L 834.246411 1012.862462 
L 835.729665 1023.429307 
L 837.212919 1023.429307 
L 838.696172 1033.822053 
L 840.179426 1033.822053 
L 841.662679 1041.740418 
L 843.145933 1051.049121 
L 844.629187 1051.049121 
L 846.11244 1055.213012 
L 847.595694 1055.213012 
L 849.078947 1069.390295 
L 850.562201 1069.390295 
L 852.045455 1082.383372 
L 853.528708 1083.512217 
L 855.011962 1097.293464 
L 856.495215 1097.293464 
L 857.978469 1103.505633 
L 859.461722 1103.505633 
L 860.944976 1109.521252 
L 862.42823 1109.521252 
L 863.911483 1116.633566 
L 865.394737 1126.932724 
L 866.87799 1126.932724 
L 868.361244 1131.754952 
L 869.844498 1131.754952 
L 871.327751 1141.70409 
L 872.811005 1141.70409 
L 874.294258 1146.51483 
L 875.777512 1146.51483 
L 877.260766 1153.789546 
L 878.744019 1162.66543 
L 883.19378 1162.597552 
L 884.677033 1167.21617 
L 886.160287 1167.21617 
L 887.643541 1170.747457 
L 889.126794 1173.52213 
L 890.610048 1173.52213 
L 892.093301 1180.395989 
L 893.576555 1180.395989 
L 895.059809 1183.456534 
L 896.543062 1189.497781 
L 898.026316 1189.497781 
L 899.509569 1191.452229 
L 900.992823 1191.452229 
L 902.476077 1198.584812 
L 903.95933 1198.584812 
L 905.442584 1208.853176 
L 906.925837 1208.853176 
L 908.409091 1206.130616 
L 909.892344 1206.130616 
L 911.375598 1216.38445 
L 912.858852 1220.889995 
L 914.342105 1220.889995 
L 915.825359 1225.267239 
L 917.308612 1225.267239 
L 918.791866 1226.93692 
L 920.27512 1226.93692 
L 921.758373 1229.184326 
L 923.241627 1231.2 
L 924.72488 1231.2 
L 926.208134 1226.606824 
L 927.691388 1226.606824 
L 929.174641 1227.448855 
L 930.657895 1226.517293 
L 932.141148 1226.517293 
L 933.624402 1223.349984 
L 935.107656 1223.349984 
L 936.590909 1224.313335 
L 938.074163 1224.313335 
L 939.557416 1226.379831 
L 941.04067 1226.379831 
L 942.523923 1216.702366 
L 944.007177 1210.874665 
L 945.490431 1210.874665 
L 946.973684 1208.474553 
L 948.456938 1208.474553 
L 949.940191 1200.207347 
L 951.423445 1200.207347 
L 954.389952 1178.254626 
L 955.873206 1178.254626 
L 957.356459 1172.847255 
L 958.839713 1162.054374 
L 960.322967 1162.054374 
L 961.80622 1153.121641 
L 963.289474 1153.121641 
L 964.772727 1141.707294 
L 966.255981 1141.707294 
L 969.222488 1124.378326 
L 970.705742 1124.378326 
L 972.188995 1111.40165 
L 973.672249 1111.40165 
L 975.155502 1095.465884 
L 976.638756 1095.465884 
L 978.12201 1083.322822 
L 979.605263 1083.322822 
L 981.088517 1073.848105 
L 982.57177 1073.848105 
L 984.055024 1057.488278 
L 985.538278 1039.684763 
L 987.021531 1039.684763 
L 988.504785 1024.948001 
L 989.988038 1024.948001 
L 991.471292 1011.784071 
L 992.954545 1011.784071 
L 994.437799 1004.657609 
L 995.921053 990.204567 
L 997.404306 990.204567 
L 998.88756 986.167422 
L 1000.370813 986.167422 
L 1001.854067 981.67633 
L 1003.337321 981.67633 
L 1004.820574 967.86823 
L 1006.303828 963.22476 
L 1007.787081 963.22476 
L 1009.270335 952.933618 
L 1010.753589 952.933618 
L 1012.236842 940.925116 
L 1013.720096 940.925116 
L 1015.203349 930.0673 
L 1016.686603 930.0673 
L 1018.169856 925.294951 
L 1019.65311 908.917498 
L 1021.136364 908.917498 
L 1022.619617 895.540435 
L 1024.102871 895.540435 
L 1025.586124 872.782474 
L 1027.069378 872.782474 
L 1028.552632 868.396928 
L 1030.035885 849.914431 
L 1031.519139 849.914431 
L 1033.002392 839.695423 
L 1034.485646 839.695423 
L 1035.9689 830.173387 
L 1037.452153 830.173387 
L 1038.935407 819.5023 
L 1040.41866 819.5023 
L 1041.901914 811.231948 
L 1043.385167 811.231948 
L 1044.868421 802.945149 
L 1046.351675 802.945149 
L 1047.834928 787.659921 
L 1049.318182 787.659921 
L 1050.801435 775.464556 
L 1052.284689 775.464556 
L 1053.767943 771.287541 
L 1055.251196 754.545698 
L 1056.73445 754.545698 
L 1058.217703 741.531147 
L 1059.700957 741.531147 
L 1061.184211 727.541029 
L 1062.667464 727.541029 
L 1065.633971 694.854647 
L 1067.117225 694.854647 
L 1068.600478 677.930633 
L 1070.083732 677.930633 
L 1071.566986 661.814409 
L 1073.050239 661.814409 
L 1074.533493 645.577534 
L 1076.016746 632.817786 
L 1077.5 632.817786 
L 1078.983254 615.667106 
L 1080.466507 615.667106 
L 1081.949761 600.409885 
L 1083.433014 600.409885 
L 1084.916268 593.746923 
L 1086.399522 593.746923 
L 1087.882775 577.132723 
L 1089.366029 564.914951 
L 1090.849282 564.914951 
L 1092.332536 555.152822 
L 1093.815789 555.152822 
L 1095.299043 552.295284 
L 1096.782297 552.295284 
L 1098.26555 540.246508 
L 1099.748804 540.246508 
L 1101.232057 525.978687 
L 1102.715311 522.558822 
L 1104.198565 522.558822 
L 1105.681818 515.85724 
L 1107.165072 515.85724 
L 1108.648325 512.085933 
L 1110.131579 512.085933 
L 1111.614833 506.6042 
L 1113.098086 506.6042 
L 1114.58134 498.093893 
L 1116.064593 492.47123 
L 1117.547847 492.47123 
L 1119.0311 485.631969 
L 1120.514354 485.631969 
L 1121.997608 479.606748 
L 1123.480861 479.606748 
L 1124.964115 463.079264 
L 1126.447368 453.506691 
L 1127.930622 453.506691 
L 1129.413876 447.085725 
L 1130.897129 447.085725 
L 1132.380383 439.1292 
L 1133.863636 439.1292 
L 1135.34689 433.75425 
L 1136.830144 433.75425 
L 1138.313397 423.12991 
L 1139.796651 423.12991 
L 1141.279904 417.012782 
L 1142.763158 417.012782 
L 1144.246411 419.024727 
L 1145.729665 419.024727 
L 1147.212919 408.590109 
L 1148.696172 408.590109 
L 1151.662679 393.890487 
L 1153.145933 393.890487 
L 1154.629187 385.602322 
L 1156.11244 385.602322 
L 1157.595694 380.955046 
L 1159.078947 380.955046 
L 1160.562201 369.674141 
L 1162.045455 369.674141 
L 1163.528708 361.644105 
L 1165.011962 361.644105 
L 1166.495215 352.137721 
L 1167.978469 352.137721 
L 1169.461722 332.562368 
L 1170.944976 332.562368 
L 1172.42823 328.850455 
L 1173.911483 328.850455 
L 1175.394737 322.620629 
L 1176.87799 317.186813 
L 1178.361244 317.186813 
L 1179.844498 309.436633 
L 1181.327751 309.436633 
L 1182.811005 310.452038 
L 1184.294258 310.452038 
L 1185.777512 303.569989 
L 1187.260766 303.569989 
L 1188.744019 299.00799 
L 1190.227273 299.00799 
L 1191.710526 298.548693 
L 1193.19378 293.746559 
L 1194.677033 293.746559 
L 1196.160287 294.607509 
L 1197.643541 294.607509 
L 1199.126794 289.860577 
L 1200.610048 289.860577 
L 1203.576555 283.957968 
L 1205.059809 283.957968 
L 1206.543062 283.604051 
L 1208.026316 283.604051 
L 1209.509569 278.155697 
L 1210.992823 278.155697 
L 1212.476077 270.854581 
L 1213.95933 270.854581 
L 1215.442584 269.300001 
L 1218.409091 269.300001 
L 1219.892344 266.995855 
L 1221.375598 266.995855 
L 1222.858852 257.731438 
L 1224.342105 257.731438 
L 1225.825359 255.134216 
L 1227.308612 255.134216 
L 1228.791866 253.783786 
L 1230.27512 253.783786 
L 1231.758373 250.043264 
L 1233.241627 250.814161 
L 1234.72488 250.814161 
L 1236.208134 249.860997 
L 1237.691388 249.860997 
L 1239.174641 247.708209 
L 1240.657895 247.708209 
L 1242.141148 239.398057 
L 1243.624402 239.398057 
L 1245.107656 241.117519 
L 1246.590909 236.301892 
L 1248.074163 236.301892 
L 1249.557416 235.273136 
L 1251.04067 235.273136 
L 1252.523923 232.963213 
L 1254.007177 232.963213 
L 1255.490431 227.301057 
L 1256.973684 227.301057 
L 1258.456938 226.151901 
L 1259.940191 226.151901 
L 1261.423445 224.838747 
L 1262.906699 224.060416 
L 1264.389952 224.060416 
L 1265.873206 223.2 
L 1267.356459 223.2 
L 1268.839713 226.830826 
L 1270.322967 226.830826 
L 1271.80622 224.49639 
L 1273.289474 224.49639 
L 1274.772727 227.675104 
L 1276.255981 227.675104 
L 1277.739234 230.636208 
L 1279.222488 230.636208 
L 1280.705742 235.16606 
L 1282.188995 239.031171 
L 1283.672249 239.031171 
L 1285.155502 241.247978 
L 1286.638756 241.247978 
L 1288.12201 248.43277 
L 1289.605263 248.43277 
L 1291.088517 251.754074 
L 1292.57177 251.754074 
L 1294.055024 254.639176 
L 1295.538278 254.639176 
L 1297.021531 259.859937 
L 1298.504785 259.859937 
L 1299.988038 269.125562 
L 1301.471292 269.125562 
L 1302.954545 277.720918 
L 1304.437799 277.720918 
L 1305.921053 288.073097 
L 1307.404306 288.073097 
L 1308.88756 288.237345 
L 1310.370813 288.237345 
L 1311.854067 292.802731 
L 1313.337321 292.802731 
L 1314.820574 298.235572 
L 1316.303828 298.235572 
L 1317.787081 305.782348 
L 1319.270335 305.782348 
L 1320.753589 304.690263 
L 1322.236842 304.690263 
L 1323.720096 307.379886 
L 1325.203349 307.379886 
L 1326.686603 307.260802 
L 1328.169856 307.260802 
L 1329.65311 304.987953 
L 1331.136364 304.987953 
L 1332.619617 306.945227 
L 1334.102871 306.945227 
L 1335.586124 299.686111 
L 1337.069378 299.686111 
L 1338.552632 302.905875 
L 1340.035885 302.094479 
L 1341.519139 302.094479 
L 1343.002392 304.778855 
L 1344.485646 304.778855 
L 1345.9689 302.454699 
L 1348.935407 302.454699 
L 1350.41866 303.63867 
L 1351.901914 308.789499 
L 1353.385167 308.789499 
L 1354.868421 312.326261 
L 1356.351675 312.326261 
L 1357.834928 320.063556 
L 1359.318182 320.063556 
L 1360.801435 319.29327 
L 1362.284689 319.29327 
L 1363.767943 325.307905 
L 1365.251196 325.307905 
L 1366.73445 330.464052 
L 1368.217703 330.464052 
L 1369.700957 334.927981 
L 1371.184211 334.927981 
L 1372.667464 335.802715 
L 1374.150718 338.613381 
L 1377.117225 338.613381 
L 1378.600478 337.791399 
L 1380.083732 341.815795 
L 1381.566986 341.815795 
L 1383.050239 342.947109 
L 1384.533493 342.947109 
L 1386.016746 345.010803 
L 1387.5 345.010803 
L 1388.983254 348.945055 
L 1390.466507 348.945055 
L 1391.949761 354.393206 
L 1394.916268 354.393206 
L 1396.399522 362.387523 
L 1397.882775 362.387523 
L 1399.366029 369.544417 
L 1400.849282 375.862826 
L 1402.332536 375.862826 
L 1403.815789 377.195716 
L 1405.299043 377.195716 
L 1406.782297 384.365266 
L 1408.26555 384.365266 
L 1409.748804 385.042342 
L 1411.232057 385.042342 
L 1412.715311 388.08375 
L 1414.198565 384.983097 
L 1415.681818 384.983097 
L 1417.165072 384.702654 
L 1418.648325 384.702654 
L 1420.131579 388.69324 
L 1421.614833 388.69324 
L 1423.098086 387.601503 
L 1424.58134 387.601503 
L 1426.064593 385.204472 
L 1427.547847 385.204472 
L 1429.0311 381.944166 
L 1430.514354 381.944166 
L 1431.997608 388.170285 
L 1433.480861 382.909197 
L 1434.964115 382.909197 
L 1436.447368 388.061031 
L 1437.930622 388.061031 
L 1439.413876 385.723785 
L 1440.897129 385.723785 
L 1442.380383 386.542524 
L 1443.863636 386.542524 
L 1445.34689 389.157663 
L 1446.830144 388.740851 
L 1448.313397 388.740851 
L 1449.796651 389.290442 
L 1451.279904 389.290442 
L 1452.763158 389.98335 
L 1454.246411 389.98335 
L 1455.729665 386.333983 
L 1457.212919 387.200957 
L 1458.696172 387.200957 
L 1460.179426 383.000032 
L 1461.662679 383.000032 
L 1463.145933 383.716573 
L 1464.629187 383.716573 
L 1466.11244 385.159982 
L 1467.595694 385.159982 
L 1469.078947 388.837988 
L 1470.562201 386.52341 
L 1472.045455 386.52341 
L 1473.528708 392.575953 
L 1475.011962 392.575953 
L 1476.495215 398.308132 
L 1477.978469 398.308132 
L 1479.461722 404.435816 
L 1480.944976 404.435816 
L 1482.42823 404.195081 
L 1483.911483 404.195081 
L 1485.394737 410.733565 
L 1488.361244 410.817723 
L 1489.844498 413.030614 
L 1491.327751 413.030614 
L 1492.811005 417.098828 
L 1494.294258 417.098828 
L 1497.260766 415.572504 
L 1498.744019 415.572504 
L 1500.227273 413.549916 
L 1501.710526 413.549916 
L 1503.19378 416.152667 
L 1504.677033 416.152667 
L 1506.160287 414.270863 
L 1507.643541 414.270863 
L 1509.126794 413.317381 
L 1510.610048 413.317381 
L 1512.093301 408.924534 
L 1513.576555 408.924534 
L 1515.059809 408.663075 
L 1516.543062 408.663075 
L 1518.026316 405.494736 
L 1519.509569 405.494736 
L 1520.992823 398.300063 
L 1522.476077 398.300063 
L 1523.95933 398.727596 
L 1526.925837 398.727596 
L 1528.409091 396.466135 
L 1529.892344 395.295345 
L 1531.375598 395.295345 
L 1532.858852 398.950693 
L 1534.342105 398.950693 
L 1535.825359 396.968621 
L 1537.308612 396.968621 
L 1538.791866 400.800277 
L 1540.27512 400.800277 
L 1541.758373 401.944256 
L 1543.241627 397.371886 
L 1544.72488 397.371886 
L 1546.208134 392.899111 
L 1547.691388 392.899111 
L 1549.174641 391.108888 
L 1550.657895 391.108888 
L 1552.141148 388.578111 
L 1553.624402 388.578111 
L 1555.107656 384.592797 
L 1556.590909 384.592797 
L 1556.590909 384.592797 
" style="fill:none;stroke:#000000;stroke-linecap:square;stroke-width:1.5;"/>
   </g>
   <g id="line2d_50">
    <path clip-path="url(#p8f951a1536)" d="M 288.409091 335.908678 
L 1556.590909 335.908678 
L 1556.590909 335.908678 
" style="fill:none;stroke:#ff0000;stroke-linecap:square;stroke-width:1.5;"/>
   </g>
   <g id="patch_4">
    <path d="M 225 1281.6 
L 225 172.8 
" style="fill:none;stroke:#000000;stroke-linecap:square;stroke-linejoin:miter;stroke-width:0.8;"/>
   </g>
   <g id="patch_5">
    <path d="M 1620 1281.6 
L 1620 172.8 
" style="fill:none;stroke:#000000;stroke-linecap:square;stroke-linejoin:miter;stroke-width:0.8;"/>
   </g>
   <g id="patch_6">
    <path d="M 225 1281.6 
L 1620 1281.6 
" style="fill:none;stroke:#000000;stroke-linecap:square;stroke-linejoin:miter;stroke-width:0.8;"/>
   </g>
   <g id="patch_7">
    <path d="M 225 172.8 
L 1620 172.8 
" style="fill:none;stroke:#000000;stroke-linecap:square;stroke-linejoin:miter;stroke-width:0.8;"/>
   </g>
   <g id="legend_1">
    <g id="patch_8">
     <path d="M 1504.845313 224.834375 
L 1613 224.834375 
Q 1615 224.834375 1615 222.834375 
L 1615 179.8 
Q 1615 177.8 1613 177.8 
L 1504.845313 177.8 
Q 1502.845313 177.8 1502.845313 179.8 
L 1502.845313 222.834375 
Q 1502.845313 224.834375 1504.845313 224.834375 
z
" style="fill:#ffffff;opacity:0.8;stroke:#cccccc;stroke-linejoin:miter;"/>
    </g>
    <g id="line2d_51">
     <path d="M 1506.845313 185.898438 
L 1526.845313 185.898438 
" style="fill:none;stroke:#000000;stroke-linecap:square;stroke-width:1.5;"/>
    </g>
    <g id="line2d_52"/>
    <g id="text_25">
     <!-- X position -->
     <defs>
      <path d="M 6.296875 72.90625 
L 16.890625 72.90625 
L 35.015625 45.796875 
L 53.21875 72.90625 
L 63.8125 72.90625 
L 40.375 37.890625 
L 65.375 0 
L 54.78125 0 
L 34.28125 31 
L 13.625 0 
L 2.984375 0 
L 29 38.921875 
z
" id="DejaVuSans-58"/>
      <path id="DejaVuSans-20"/>
      <path d="M 18.109375 8.203125 
L 18.109375 -20.796875 
L 9.078125 -20.796875 
L 9.078125 54.6875 
L 18.109375 54.6875 
L 18.109375 46.390625 
Q 20.953125 51.265625 25.265625 53.625 
Q 29.59375 56 35.59375 56 
Q 45.5625 56 51.78125 48.09375 
Q 58.015625 40.1875 58.015625 27.296875 
Q 58.015625 14.40625 51.78125 6.484375 
Q 45.5625 -1.421875 35.59375 -1.421875 
Q 29.59375 -1.421875 25.265625 0.953125 
Q 20.953125 3.328125 18.109375 8.203125 
z
M 48.6875 27.296875 
Q 48.6875 37.203125 44.609375 42.84375 
Q 40.53125 48.484375 33.40625 48.484375 
Q 26.265625 48.484375 22.1875 42.84375 
Q 18.109375 37.203125 18.109375 27.296875 
Q 18.109375 17.390625 22.1875 11.75 
Q 26.265625 6.109375 33.40625 6.109375 
Q 40.53125 6.109375 44.609375 11.75 
Q 48.6875 17.390625 48.6875 27.296875 
z
" id="DejaVuSans-70"/>
      <path d="M 30.609375 48.390625 
Q 23.390625 48.390625 19.1875 42.75 
Q 14.984375 37.109375 14.984375 27.296875 
Q 14.984375 17.484375 19.15625 11.84375 
Q 23.34375 6.203125 30.609375 6.203125 
Q 37.796875 6.203125 41.984375 11.859375 
Q 46.1875 17.53125 46.1875 27.296875 
Q 46.1875 37.015625 41.984375 42.703125 
Q 37.796875 48.390625 30.609375 48.390625 
z
M 30.609375 56 
Q 42.328125 56 49.015625 48.375 
Q 55.71875 40.765625 55.71875 27.296875 
Q 55.71875 13.875 49.015625 6.21875 
Q 42.328125 -1.421875 30.609375 -1.421875 
Q 18.84375 -1.421875 12.171875 6.21875 
Q 5.515625 13.875 5.515625 27.296875 
Q 5.515625 40.765625 12.171875 48.375 
Q 18.84375 56 30.609375 56 
z
" id="DejaVuSans-6f"/>
      <path d="M 44.28125 53.078125 
L 44.28125 44.578125 
Q 40.484375 46.53125 36.375 47.5 
Q 32.28125 48.484375 27.875 48.484375 
Q 21.1875 48.484375 17.84375 46.4375 
Q 14.5 44.390625 14.5 40.28125 
Q 14.5 37.15625 16.890625 35.375 
Q 19.28125 33.59375 26.515625 31.984375 
L 29.59375 31.296875 
Q 39.15625 29.25 43.1875 25.515625 
Q 47.21875 21.78125 47.21875 15.09375 
Q 47.21875 7.46875 41.1875 3.015625 
Q 35.15625 -1.421875 24.609375 -1.421875 
Q 20.21875 -1.421875 15.453125 -0.5625 
Q 10.6875 0.296875 5.421875 2 
L 5.421875 11.28125 
Q 10.40625 8.6875 15.234375 7.390625 
Q 20.0625 6.109375 24.8125 6.109375 
Q 31.15625 6.109375 34.5625 8.28125 
Q 37.984375 10.453125 37.984375 14.40625 
Q 37.984375 18.0625 35.515625 20.015625 
Q 33.0625 21.96875 24.703125 23.78125 
L 21.578125 24.515625 
Q 13.234375 26.265625 9.515625 29.90625 
Q 5.8125 33.546875 5.8125 39.890625 
Q 5.8125 47.609375 11.28125 51.796875 
Q 16.75 56 26.8125 56 
Q 31.78125 56 36.171875 55.265625 
Q 40.578125 54.546875 44.28125 53.078125 
z
" id="DejaVuSans-73"/>
      <path d="M 9.421875 54.6875 
L 18.40625 54.6875 
L 18.40625 0 
L 9.421875 0 
z
M 9.421875 75.984375 
L 18.40625 75.984375 
L 18.40625 64.59375 
L 9.421875 64.59375 
z
" id="DejaVuSans-69"/>
      <path d="M 18.3125 70.21875 
L 18.3125 54.6875 
L 36.8125 54.6875 
L 36.8125 47.703125 
L 18.3125 47.703125 
L 18.3125 18.015625 
Q 18.3125 11.328125 20.140625 9.421875 
Q 21.96875 7.515625 27.59375 7.515625 
L 36.8125 7.515625 
L 36.8125 0 
L 27.59375 0 
Q 17.1875 0 13.234375 3.875 
Q 9.28125 7.765625 9.28125 18.015625 
L 9.28125 47.703125 
L 2.6875 47.703125 
L 2.6875 54.6875 
L 9.28125 54.6875 
L 9.28125 70.21875 
z
" id="DejaVuSans-74"/>
      <path d="M 54.890625 33.015625 
L 54.890625 0 
L 45.90625 0 
L 45.90625 32.71875 
Q 45.90625 40.484375 42.875 44.328125 
Q 39.84375 48.1875 33.796875 48.1875 
Q 26.515625 48.1875 22.3125 43.546875 
Q 18.109375 38.921875 18.109375 30.90625 
L 18.109375 0 
L 9.078125 0 
L 9.078125 54.6875 
L 18.109375 54.6875 
L 18.109375 46.1875 
Q 21.34375 51.125 25.703125 53.5625 
Q 30.078125 56 35.796875 56 
Q 45.21875 56 50.046875 50.171875 
Q 54.890625 44.34375 54.890625 33.015625 
z
" id="DejaVuSans-6e"/>
     </defs>
     <g transform="translate(1534.845313 189.398438)scale(0.1 -0.1)">
      <use xlink:href="#DejaVuSans-58"/>
      <use x="68.505859" xlink:href="#DejaVuSans-20"/>
      <use x="100.292969" xlink:href="#DejaVuSans-70"/>
      <use x="163.769531" xlink:href="#DejaVuSans-6f"/>
      <use x="224.951172" xlink:href="#DejaVuSans-73"/>
      <use x="277.050781" xlink:href="#DejaVuSans-69"/>
      <use x="304.833984" xlink:href="#DejaVuSans-74"/>
      <use x="344.042969" xlink:href="#DejaVuSans-69"/>
      <use x="371.826172" xlink:href="#DejaVuSans-6f"/>
      <use x="433.007812" xlink:href="#DejaVuSans-6e"/>
     </g>
    </g>
    <g id="line2d_53">
     <path d="M 1506.845313 200.576562 
L 1526.845313 200.576562 
" style="fill:none;stroke:#ff0000;stroke-linecap:square;stroke-width:1.5;"/>
    </g>
    <g id="line2d_54"/>
    <g id="text_26">
     <!-- goal -->
     <defs>
      <path d="M 45.40625 27.984375 
Q 45.40625 37.75 41.375 43.109375 
Q 37.359375 48.484375 30.078125 48.484375 
Q 22.859375 48.484375 18.828125 43.109375 
Q 14.796875 37.75 14.796875 27.984375 
Q 14.796875 18.265625 18.828125 12.890625 
Q 22.859375 7.515625 30.078125 7.515625 
Q 37.359375 7.515625 41.375 12.890625 
Q 45.40625 18.265625 45.40625 27.984375 
z
M 54.390625 6.78125 
Q 54.390625 -7.171875 48.1875 -13.984375 
Q 42 -20.796875 29.203125 -20.796875 
Q 24.46875 -20.796875 20.265625 -20.09375 
Q 16.0625 -19.390625 12.109375 -17.921875 
L 12.109375 -9.1875 
Q 16.0625 -11.328125 19.921875 -12.34375 
Q 23.78125 -13.375 27.78125 -13.375 
Q 36.625 -13.375 41.015625 -8.765625 
Q 45.40625 -4.15625 45.40625 5.171875 
L 45.40625 9.625 
Q 42.625 4.78125 38.28125 2.390625 
Q 33.9375 0 27.875 0 
Q 17.828125 0 11.671875 7.65625 
Q 5.515625 15.328125 5.515625 27.984375 
Q 5.515625 40.671875 11.671875 48.328125 
Q 17.828125 56 27.875 56 
Q 33.9375 56 38.28125 53.609375 
Q 42.625 51.21875 45.40625 46.390625 
L 45.40625 54.6875 
L 54.390625 54.6875 
z
" id="DejaVuSans-67"/>
      <path d="M 34.28125 27.484375 
Q 23.390625 27.484375 19.1875 25 
Q 14.984375 22.515625 14.984375 16.5 
Q 14.984375 11.71875 18.140625 8.90625 
Q 21.296875 6.109375 26.703125 6.109375 
Q 34.1875 6.109375 38.703125 11.40625 
Q 43.21875 16.703125 43.21875 25.484375 
L 43.21875 27.484375 
z
M 52.203125 31.203125 
L 52.203125 0 
L 43.21875 0 
L 43.21875 8.296875 
Q 40.140625 3.328125 35.546875 0.953125 
Q 30.953125 -1.421875 24.3125 -1.421875 
Q 15.921875 -1.421875 10.953125 3.296875 
Q 6 8.015625 6 15.921875 
Q 6 25.140625 12.171875 29.828125 
Q 18.359375 34.515625 30.609375 34.515625 
L 43.21875 34.515625 
L 43.21875 35.40625 
Q 43.21875 41.609375 39.140625 45 
Q 35.0625 48.390625 27.6875 48.390625 
Q 23 48.390625 18.546875 47.265625 
Q 14.109375 46.140625 10.015625 43.890625 
L 10.015625 52.203125 
Q 14.9375 54.109375 19.578125 55.046875 
Q 24.21875 56 28.609375 56 
Q 40.484375 56 46.34375 49.84375 
Q 52.203125 43.703125 52.203125 31.203125 
z
" id="DejaVuSans-61"/>
      <path d="M 9.421875 75.984375 
L 18.40625 75.984375 
L 18.40625 0 
L 9.421875 0 
z
" id="DejaVuSans-6c"/>
     </defs>
     <g transform="translate(1534.845313 204.076562)scale(0.1 -0.1)">
      <use xlink:href="#DejaVuSans-67"/>
      <use x="63.476562" xlink:href="#DejaVuSans-6f"/>
      <use x="124.658203" xlink:href="#DejaVuSans-61"/>
      <use x="185.9375" xlink:href="#DejaVuSans-6c"/>
     </g>
    </g>
    <g id="patch_9">
     <path d="M 1506.845313 218.754688 
L 1526.845313 218.754688 
L 1526.845313 211.754688 
L 1506.845313 211.754688 
z
" style="opacity:0.3;"/>
    </g>
    <g id="text_27">
     <!-- +PITCH motion -->
     <defs>
      <path d="M 46 62.703125 
L 46 35.5 
L 73.1875 35.5 
L 73.1875 27.203125 
L 46 27.203125 
L 46 0 
L 37.796875 0 
L 37.796875 27.203125 
L 10.59375 27.203125 
L 10.59375 35.5 
L 37.796875 35.5 
L 37.796875 62.703125 
z
" id="DejaVuSans-2b"/>
      <path d="M 19.671875 64.796875 
L 19.671875 37.40625 
L 32.078125 37.40625 
Q 38.96875 37.40625 42.71875 40.96875 
Q 46.484375 44.53125 46.484375 51.125 
Q 46.484375 57.671875 42.71875 61.234375 
Q 38.96875 64.796875 32.078125 64.796875 
z
M 9.8125 72.90625 
L 32.078125 72.90625 
Q 44.34375 72.90625 50.609375 67.359375 
Q 56.890625 61.8125 56.890625 51.125 
Q 56.890625 40.328125 50.609375 34.8125 
Q 44.34375 29.296875 32.078125 29.296875 
L 19.671875 29.296875 
L 19.671875 0 
L 9.8125 0 
z
" id="DejaVuSans-50"/>
      <path d="M 9.8125 72.90625 
L 19.671875 72.90625 
L 19.671875 0 
L 9.8125 0 
z
" id="DejaVuSans-49"/>
      <path d="M -0.296875 72.90625 
L 61.375 72.90625 
L 61.375 64.59375 
L 35.5 64.59375 
L 35.5 0 
L 25.59375 0 
L 25.59375 64.59375 
L -0.296875 64.59375 
z
" id="DejaVuSans-54"/>
      <path d="M 64.40625 67.28125 
L 64.40625 56.890625 
Q 59.421875 61.53125 53.78125 63.8125 
Q 48.140625 66.109375 41.796875 66.109375 
Q 29.296875 66.109375 22.65625 58.46875 
Q 16.015625 50.828125 16.015625 36.375 
Q 16.015625 21.96875 22.65625 14.328125 
Q 29.296875 6.6875 41.796875 6.6875 
Q 48.140625 6.6875 53.78125 8.984375 
Q 59.421875 11.28125 64.40625 15.921875 
L 64.40625 5.609375 
Q 59.234375 2.09375 53.4375 0.328125 
Q 47.65625 -1.421875 41.21875 -1.421875 
Q 24.65625 -1.421875 15.125 8.703125 
Q 5.609375 18.84375 5.609375 36.375 
Q 5.609375 53.953125 15.125 64.078125 
Q 24.65625 74.21875 41.21875 74.21875 
Q 47.75 74.21875 53.53125 72.484375 
Q 59.328125 70.75 64.40625 67.28125 
z
" id="DejaVuSans-43"/>
      <path d="M 9.8125 72.90625 
L 19.671875 72.90625 
L 19.671875 43.015625 
L 55.515625 43.015625 
L 55.515625 72.90625 
L 65.375 72.90625 
L 65.375 0 
L 55.515625 0 
L 55.515625 34.71875 
L 19.671875 34.71875 
L 19.671875 0 
L 9.8125 0 
z
" id="DejaVuSans-48"/>
      <path d="M 52 44.1875 
Q 55.375 50.25 60.0625 53.125 
Q 64.75 56 71.09375 56 
Q 79.640625 56 84.28125 50.015625 
Q 88.921875 44.046875 88.921875 33.015625 
L 88.921875 0 
L 79.890625 0 
L 79.890625 32.71875 
Q 79.890625 40.578125 77.09375 44.375 
Q 74.3125 48.1875 68.609375 48.1875 
Q 61.625 48.1875 57.5625 43.546875 
Q 53.515625 38.921875 53.515625 30.90625 
L 53.515625 0 
L 44.484375 0 
L 44.484375 32.71875 
Q 44.484375 40.625 41.703125 44.40625 
Q 38.921875 48.1875 33.109375 48.1875 
Q 26.21875 48.1875 22.15625 43.53125 
Q 18.109375 38.875 18.109375 30.90625 
L 18.109375 0 
L 9.078125 0 
L 9.078125 54.6875 
L 18.109375 54.6875 
L 18.109375 46.1875 
Q 21.1875 51.21875 25.484375 53.609375 
Q 29.78125 56 35.6875 56 
Q 41.65625 56 45.828125 52.96875 
Q 50 49.953125 52 44.1875 
z
" id="DejaVuSans-6d"/>
     </defs>
     <g transform="translate(1534.845313 218.754688)scale(0.1 -0.1)">
      <use xlink:href="#DejaVuSans-2b"/>
      <use x="83.789062" xlink:href="#DejaVuSans-50"/>
      <use x="144.091797" xlink:href="#DejaVuSans-49"/>
      <use x="173.583984" xlink:href="#DejaVuSans-54"/>
      <use x="234.589844" xlink:href="#DejaVuSans-43"/>
      <use x="304.414062" xlink:href="#DejaVuSans-48"/>
      <use x="379.609375" xlink:href="#DejaVuSans-20"/>
      <use x="411.396484" xlink:href="#DejaVuSans-6d"/>
      <use x="508.808594" xlink:href="#DejaVuSans-6f"/>
      <use x="569.990234" xlink:href="#DejaVuSans-74"/>
      <use x="609.199219" xlink:href="#DejaVuSans-69"/>
      <use x="636.982422" xlink:href="#DejaVuSans-6f"/>
      <use x="698.164062" xlink:href="#DejaVuSans-6e"/>
     </g>
    </g>
   </g>
  </g>
 </g>
 <defs>
  <clipPath id="p8f951a1536">
   <rect height="1108.8" width="1395" x="225" y="172.8"/>
  </clipPath>
 </defs>
</svg>
