<?xml version="1.0" encoding="utf-8" standalone="no"?>
<!DOCTYPE svg PUBLIC "-//W3C//DTD SVG 1.1//EN"
  "http://www.w3.org/Graphics/SVG/1.1/DTD/svg11.dtd">
<!-- Created with matplotlib (http://matplotlib.org/) -->
<svg height="1440pt" version="1.1" viewBox="0 0 1800 1440" width="1800pt" xmlns="http://www.w3.org/2000/svg" xmlns:xlink="http://www.w3.org/1999/xlink">
 <defs>
  <style type="text/css">
*{stroke-linecap:butt;stroke-linejoin:round;}
  </style>
 </defs>
 <g id="figure_1">
  <g id="patch_1">
   <path d="M 0 1440 
L 1800 1440 
L 1800 0 
L 0 0 
z
" style="fill:#ffffff;"/>
  </g>
  <g id="axes_1">
   <g id="patch_2">
    <path d="M 225 1281.6 
L 1620 1281.6 
L 1620 172.8 
L 225 172.8 
z
" style="fill:#ffffff;"/>
   </g>
   <g id="matplotlib.axis_1">
    <g id="xtick_1">
     <g id="line2d_1">
      <path clip-path="url(#pba1c416987)" d="M 288.409091 1281.6 
L 288.409091 172.8 
" style="fill:none;stroke:#b0b0b0;stroke-linecap:square;stroke-width:0.8;"/>
     </g>
     <g id="line2d_2">
      <defs>
       <path d="M 0 0 
L 0 3.5 
" id="m0a82793a25" style="stroke:#000000;stroke-width:0.8;"/>
      </defs>
      <g>
       <use style="stroke:#000000;stroke-width:0.8;" x="288.409091" xlink:href="#m0a82793a25" y="1281.6"/>
      </g>
     </g>
     <g id="text_1">
      <!-- 0 -->
      <defs>
       <path d="M 31.78125 66.40625 
Q 24.171875 66.40625 20.328125 58.90625 
Q 16.5 51.421875 16.5 36.375 
Q 16.5 21.390625 20.328125 13.890625 
Q 24.171875 6.390625 31.78125 6.390625 
Q 39.453125 6.390625 43.28125 13.890625 
Q 47.125 21.390625 47.125 36.375 
Q 47.125 51.421875 43.28125 58.90625 
Q 39.453125 66.40625 31.78125 66.40625 
z
M 31.78125 74.21875 
Q 44.046875 74.21875 50.515625 64.515625 
Q 56.984375 54.828125 56.984375 36.375 
Q 56.984375 17.96875 50.515625 8.265625 
Q 44.046875 -1.421875 31.78125 -1.421875 
Q 19.53125 -1.421875 13.0625 8.265625 
Q 6.59375 17.96875 6.59375 36.375 
Q 6.59375 54.828125 13.0625 64.515625 
Q 19.53125 74.21875 31.78125 74.21875 
z
" id="DejaVuSans-30"/>
      </defs>
      <g transform="translate(285.227841 1296.198437)scale(0.1 -0.1)">
       <use xlink:href="#DejaVuSans-30"/>
      </g>
     </g>
    </g>
    <g id="xtick_2">
     <g id="line2d_3">
      <path clip-path="url(#pba1c416987)" d="M 585.059809 1281.6 
L 585.059809 172.8 
" style="fill:none;stroke:#b0b0b0;stroke-linecap:square;stroke-width:0.8;"/>
     </g>
     <g id="line2d_4">
      <g>
       <use style="stroke:#000000;stroke-width:0.8;" x="585.059809" xlink:href="#m0a82793a25" y="1281.6"/>
      </g>
     </g>
     <g id="text_2">
      <!-- 200 -->
      <defs>
       <path d="M 19.1875 8.296875 
L 53.609375 8.296875 
L 53.609375 0 
L 7.328125 0 
L 7.328125 8.296875 
Q 12.9375 14.109375 22.625 23.890625 
Q 32.328125 33.6875 34.8125 36.53125 
Q 39.546875 41.84375 41.421875 45.53125 
Q 43.3125 49.21875 43.3125 52.78125 
Q 43.3125 58.59375 39.234375 62.25 
Q 35.15625 65.921875 28.609375 65.921875 
Q 23.96875 65.921875 18.8125 64.3125 
Q 13.671875 62.703125 7.8125 59.421875 
L 7.8125 69.390625 
Q 13.765625 71.78125 18.9375 73 
Q 24.125 74.21875 28.421875 74.21875 
Q 39.75 74.21875 46.484375 68.546875 
Q 53.21875 62.890625 53.21875 53.421875 
Q 53.21875 48.921875 51.53125 44.890625 
Q 49.859375 40.875 45.40625 35.40625 
Q 44.1875 33.984375 37.640625 27.21875 
Q 31.109375 20.453125 19.1875 8.296875 
z
" id="DejaVuSans-32"/>
      </defs>
      <g transform="translate(575.516059 1296.198437)scale(0.1 -0.1)">
       <use xlink:href="#DejaVuSans-32"/>
       <use x="63.623047" xlink:href="#DejaVuSans-30"/>
       <use x="127.246094" xlink:href="#DejaVuSans-30"/>
      </g>
     </g>
    </g>
    <g id="xtick_3">
     <g id="line2d_5">
      <path clip-path="url(#pba1c416987)" d="M 881.710526 1281.6 
L 881.710526 172.8 
" style="fill:none;stroke:#b0b0b0;stroke-linecap:square;stroke-width:0.8;"/>
     </g>
     <g id="line2d_6">
      <g>
       <use style="stroke:#000000;stroke-width:0.8;" x="881.710526" xlink:href="#m0a82793a25" y="1281.6"/>
      </g>
     </g>
     <g id="text_3">
      <!-- 400 -->
      <defs>
       <path d="M 37.796875 64.3125 
L 12.890625 25.390625 
L 37.796875 25.390625 
z
M 35.203125 72.90625 
L 47.609375 72.90625 
L 47.609375 25.390625 
L 58.015625 25.390625 
L 58.015625 17.1875 
L 47.609375 17.1875 
L 47.609375 0 
L 37.796875 0 
L 37.796875 17.1875 
L 4.890625 17.1875 
L 4.890625 26.703125 
z
" id="DejaVuSans-34"/>
      </defs>
      <g transform="translate(872.166776 1296.198437)scale(0.1 -0.1)">
       <use xlink:href="#DejaVuSans-34"/>
       <use x="63.623047" xlink:href="#DejaVuSans-30"/>
       <use x="127.246094" xlink:href="#DejaVuSans-30"/>
      </g>
     </g>
    </g>
    <g id="xtick_4">
     <g id="line2d_7">
      <path clip-path="url(#pba1c416987)" d="M 1178.361244 1281.6 
L 1178.361244 172.8 
" style="fill:none;stroke:#b0b0b0;stroke-linecap:square;stroke-width:0.8;"/>
     </g>
     <g id="line2d_8">
      <g>
       <use style="stroke:#000000;stroke-width:0.8;" x="1178.361244" xlink:href="#m0a82793a25" y="1281.6"/>
      </g>
     </g>
     <g id="text_4">
      <!-- 600 -->
      <defs>
       <path d="M 33.015625 40.375 
Q 26.375 40.375 22.484375 35.828125 
Q 18.609375 31.296875 18.609375 23.390625 
Q 18.609375 15.53125 22.484375 10.953125 
Q 26.375 6.390625 33.015625 6.390625 
Q 39.65625 6.390625 43.53125 10.953125 
Q 47.40625 15.53125 47.40625 23.390625 
Q 47.40625 31.296875 43.53125 35.828125 
Q 39.65625 40.375 33.015625 40.375 
z
M 52.59375 71.296875 
L 52.59375 62.3125 
Q 48.875 64.0625 45.09375 64.984375 
Q 41.3125 65.921875 37.59375 65.921875 
Q 27.828125 65.921875 22.671875 59.328125 
Q 17.53125 52.734375 16.796875 39.40625 
Q 19.671875 43.65625 24.015625 45.921875 
Q 28.375 48.1875 33.59375 48.1875 
Q 44.578125 48.1875 50.953125 41.515625 
Q 57.328125 34.859375 57.328125 23.390625 
Q 57.328125 12.15625 50.6875 5.359375 
Q 44.046875 -1.421875 33.015625 -1.421875 
Q 20.359375 -1.421875 13.671875 8.265625 
Q 6.984375 17.96875 6.984375 36.375 
Q 6.984375 53.65625 15.1875 63.9375 
Q 23.390625 74.21875 37.203125 74.21875 
Q 40.921875 74.21875 44.703125 73.484375 
Q 48.484375 72.75 52.59375 71.296875 
z
" id="DejaVuSans-36"/>
      </defs>
      <g transform="translate(1168.817494 1296.198437)scale(0.1 -0.1)">
       <use xlink:href="#DejaVuSans-36"/>
       <use x="63.623047" xlink:href="#DejaVuSans-30"/>
       <use x="127.246094" xlink:href="#DejaVuSans-30"/>
      </g>
     </g>
    </g>
    <g id="xtick_5">
     <g id="line2d_9">
      <path clip-path="url(#pba1c416987)" d="M 1475.011962 1281.6 
L 1475.011962 172.8 
" style="fill:none;stroke:#b0b0b0;stroke-linecap:square;stroke-width:0.8;"/>
     </g>
     <g id="line2d_10">
      <g>
       <use style="stroke:#000000;stroke-width:0.8;" x="1475.011962" xlink:href="#m0a82793a25" y="1281.6"/>
      </g>
     </g>
     <g id="text_5">
      <!-- 800 -->
      <defs>
       <path d="M 31.78125 34.625 
Q 24.75 34.625 20.71875 30.859375 
Q 16.703125 27.09375 16.703125 20.515625 
Q 16.703125 13.921875 20.71875 10.15625 
Q 24.75 6.390625 31.78125 6.390625 
Q 38.8125 6.390625 42.859375 10.171875 
Q 46.921875 13.96875 46.921875 20.515625 
Q 46.921875 27.09375 42.890625 30.859375 
Q 38.875 34.625 31.78125 34.625 
z
M 21.921875 38.8125 
Q 15.578125 40.375 12.03125 44.71875 
Q 8.5 49.078125 8.5 55.328125 
Q 8.5 64.0625 14.71875 69.140625 
Q 20.953125 74.21875 31.78125 74.21875 
Q 42.671875 74.21875 48.875 69.140625 
Q 55.078125 64.0625 55.078125 55.328125 
Q 55.078125 49.078125 51.53125 44.71875 
Q 48 40.375 41.703125 38.8125 
Q 48.828125 37.15625 52.796875 32.3125 
Q 56.78125 27.484375 56.78125 20.515625 
Q 56.78125 9.90625 50.3125 4.234375 
Q 43.84375 -1.421875 31.78125 -1.421875 
Q 19.734375 -1.421875 13.25 4.234375 
Q 6.78125 9.90625 6.78125 20.515625 
Q 6.78125 27.484375 10.78125 32.3125 
Q 14.796875 37.15625 21.921875 38.8125 
z
M 18.3125 54.390625 
Q 18.3125 48.734375 21.84375 45.5625 
Q 25.390625 42.390625 31.78125 42.390625 
Q 38.140625 42.390625 41.71875 45.5625 
Q 45.3125 48.734375 45.3125 54.390625 
Q 45.3125 60.0625 41.71875 63.234375 
Q 38.140625 66.40625 31.78125 66.40625 
Q 25.390625 66.40625 21.84375 63.234375 
Q 18.3125 60.0625 18.3125 54.390625 
z
" id="DejaVuSans-38"/>
      </defs>
      <g transform="translate(1465.468212 1296.198437)scale(0.1 -0.1)">
       <use xlink:href="#DejaVuSans-38"/>
       <use x="63.623047" xlink:href="#DejaVuSans-30"/>
       <use x="127.246094" xlink:href="#DejaVuSans-30"/>
      </g>
     </g>
    </g>
   </g>
   <g id="matplotlib.axis_2">
    <g id="ytick_1">
     <g id="line2d_11">
      <path clip-path="url(#pba1c416987)" d="M 225 1281.6 
L 1620 1281.6 
" style="fill:none;stroke:#b0b0b0;stroke-linecap:square;stroke-width:0.8;"/>
     </g>
     <g id="line2d_12">
      <defs>
       <path d="M 0 0 
L -3.5 0 
" id="m74a890c611" style="stroke:#000000;stroke-width:0.8;"/>
      </defs>
      <g>
       <use style="stroke:#000000;stroke-width:0.8;" x="225" xlink:href="#m74a890c611" y="1281.6"/>
      </g>
     </g>
     <g id="text_6">
      <!-- −0.13057 -->
      <defs>
       <path d="M 10.59375 35.5 
L 73.1875 35.5 
L 73.1875 27.203125 
L 10.59375 27.203125 
z
" id="DejaVuSans-2212"/>
       <path d="M 10.6875 12.40625 
L 21 12.40625 
L 21 0 
L 10.6875 0 
z
" id="DejaVuSans-2e"/>
       <path d="M 12.40625 8.296875 
L 28.515625 8.296875 
L 28.515625 63.921875 
L 10.984375 60.40625 
L 10.984375 69.390625 
L 28.421875 72.90625 
L 38.28125 72.90625 
L 38.28125 8.296875 
L 54.390625 8.296875 
L 54.390625 0 
L 12.40625 0 
z
" id="DejaVuSans-31"/>
       <path d="M 40.578125 39.3125 
Q 47.65625 37.796875 51.625 33 
Q 55.609375 28.21875 55.609375 21.1875 
Q 55.609375 10.40625 48.1875 4.484375 
Q 40.765625 -1.421875 27.09375 -1.421875 
Q 22.515625 -1.421875 17.65625 -0.515625 
Q 12.796875 0.390625 7.625 2.203125 
L 7.625 11.71875 
Q 11.71875 9.328125 16.59375 8.109375 
Q 21.484375 6.890625 26.8125 6.890625 
Q 36.078125 6.890625 40.9375 10.546875 
Q 45.796875 14.203125 45.796875 21.1875 
Q 45.796875 27.640625 41.28125 31.265625 
Q 36.765625 34.90625 28.71875 34.90625 
L 20.21875 34.90625 
L 20.21875 43.015625 
L 29.109375 43.015625 
Q 36.375 43.015625 40.234375 45.921875 
Q 44.09375 48.828125 44.09375 54.296875 
Q 44.09375 59.90625 40.109375 62.90625 
Q 36.140625 65.921875 28.71875 65.921875 
Q 24.65625 65.921875 20.015625 65.03125 
Q 15.375 64.15625 9.8125 62.3125 
L 9.8125 71.09375 
Q 15.4375 72.65625 20.34375 73.4375 
Q 25.25 74.21875 29.59375 74.21875 
Q 40.828125 74.21875 47.359375 69.109375 
Q 53.90625 64.015625 53.90625 55.328125 
Q 53.90625 49.265625 50.4375 45.09375 
Q 46.96875 40.921875 40.578125 39.3125 
z
" id="DejaVuSans-33"/>
       <path d="M 10.796875 72.90625 
L 49.515625 72.90625 
L 49.515625 64.59375 
L 19.828125 64.59375 
L 19.828125 46.734375 
Q 21.96875 47.46875 24.109375 47.828125 
Q 26.265625 48.1875 28.421875 48.1875 
Q 40.625 48.1875 47.75 41.5 
Q 54.890625 34.8125 54.890625 23.390625 
Q 54.890625 11.625 47.5625 5.09375 
Q 40.234375 -1.421875 26.90625 -1.421875 
Q 22.3125 -1.421875 17.546875 -0.640625 
Q 12.796875 0.140625 7.71875 1.703125 
L 7.71875 11.625 
Q 12.109375 9.234375 16.796875 8.0625 
Q 21.484375 6.890625 26.703125 6.890625 
Q 35.15625 6.890625 40.078125 11.328125 
Q 45.015625 15.765625 45.015625 23.390625 
Q 45.015625 31 40.078125 35.4375 
Q 35.15625 39.890625 26.703125 39.890625 
Q 22.75 39.890625 18.8125 39.015625 
Q 14.890625 38.140625 10.796875 36.28125 
z
" id="DejaVuSans-35"/>
       <path d="M 8.203125 72.90625 
L 55.078125 72.90625 
L 55.078125 68.703125 
L 28.609375 0 
L 18.3125 0 
L 43.21875 64.59375 
L 8.203125 64.59375 
z
" id="DejaVuSans-37"/>
      </defs>
      <g transform="translate(168.267188 1285.399219)scale(0.1 -0.1)">
       <use xlink:href="#DejaVuSans-2212"/>
       <use x="83.789062" xlink:href="#DejaVuSans-30"/>
       <use x="147.412109" xlink:href="#DejaVuSans-2e"/>
       <use x="179.199219" xlink:href="#DejaVuSans-31"/>
       <use x="242.822266" xlink:href="#DejaVuSans-33"/>
       <use x="306.445312" xlink:href="#DejaVuSans-30"/>
       <use x="370.068359" xlink:href="#DejaVuSans-35"/>
       <use x="433.691406" xlink:href="#DejaVuSans-37"/>
      </g>
     </g>
    </g>
    <g id="ytick_2">
     <g id="line2d_13">
      <path clip-path="url(#pba1c416987)" d="M 225 1066.684714 
L 1620 1066.684714 
" style="fill:none;stroke:#b0b0b0;stroke-linecap:square;stroke-width:0.8;"/>
     </g>
     <g id="line2d_14">
      <g>
       <use style="stroke:#000000;stroke-width:0.8;" x="225" xlink:href="#m74a890c611" y="1066.684714"/>
      </g>
     </g>
     <g id="text_7">
      <!-- −0.12057 -->
      <g transform="translate(168.267188 1070.483932)scale(0.1 -0.1)">
       <use xlink:href="#DejaVuSans-2212"/>
       <use x="83.789062" xlink:href="#DejaVuSans-30"/>
       <use x="147.412109" xlink:href="#DejaVuSans-2e"/>
       <use x="179.199219" xlink:href="#DejaVuSans-31"/>
       <use x="242.822266" xlink:href="#DejaVuSans-32"/>
       <use x="306.445312" xlink:href="#DejaVuSans-30"/>
       <use x="370.068359" xlink:href="#DejaVuSans-35"/>
       <use x="433.691406" xlink:href="#DejaVuSans-37"/>
      </g>
     </g>
    </g>
    <g id="ytick_3">
     <g id="line2d_15">
      <path clip-path="url(#pba1c416987)" d="M 225 851.769427 
L 1620 851.769427 
" style="fill:none;stroke:#b0b0b0;stroke-linecap:square;stroke-width:0.8;"/>
     </g>
     <g id="line2d_16">
      <g>
       <use style="stroke:#000000;stroke-width:0.8;" x="225" xlink:href="#m74a890c611" y="851.769427"/>
      </g>
     </g>
     <g id="text_8">
      <!-- −0.11057 -->
      <g transform="translate(168.267188 855.568646)scale(0.1 -0.1)">
       <use xlink:href="#DejaVuSans-2212"/>
       <use x="83.789062" xlink:href="#DejaVuSans-30"/>
       <use x="147.412109" xlink:href="#DejaVuSans-2e"/>
       <use x="179.199219" xlink:href="#DejaVuSans-31"/>
       <use x="242.822266" xlink:href="#DejaVuSans-31"/>
       <use x="306.445312" xlink:href="#DejaVuSans-30"/>
       <use x="370.068359" xlink:href="#DejaVuSans-35"/>
       <use x="433.691406" xlink:href="#DejaVuSans-37"/>
      </g>
     </g>
    </g>
    <g id="ytick_4">
     <g id="line2d_17">
      <path clip-path="url(#pba1c416987)" d="M 225 636.854141 
L 1620 636.854141 
" style="fill:none;stroke:#b0b0b0;stroke-linecap:square;stroke-width:0.8;"/>
     </g>
     <g id="line2d_18">
      <g>
       <use style="stroke:#000000;stroke-width:0.8;" x="225" xlink:href="#m74a890c611" y="636.854141"/>
      </g>
     </g>
     <g id="text_9">
      <!-- −0.10057 -->
      <g transform="translate(168.267188 640.65336)scale(0.1 -0.1)">
       <use xlink:href="#DejaVuSans-2212"/>
       <use x="83.789062" xlink:href="#DejaVuSans-30"/>
       <use x="147.412109" xlink:href="#DejaVuSans-2e"/>
       <use x="179.199219" xlink:href="#DejaVuSans-31"/>
       <use x="242.822266" xlink:href="#DejaVuSans-30"/>
       <use x="306.445312" xlink:href="#DejaVuSans-30"/>
       <use x="370.068359" xlink:href="#DejaVuSans-35"/>
       <use x="433.691406" xlink:href="#DejaVuSans-37"/>
      </g>
     </g>
    </g>
    <g id="ytick_5">
     <g id="line2d_19">
      <path clip-path="url(#pba1c416987)" d="M 225 421.938854 
L 1620 421.938854 
" style="fill:none;stroke:#b0b0b0;stroke-linecap:square;stroke-width:0.8;"/>
     </g>
     <g id="line2d_20">
      <g>
       <use style="stroke:#000000;stroke-width:0.8;" x="225" xlink:href="#m74a890c611" y="421.938854"/>
      </g>
     </g>
     <g id="text_10">
      <!-- −0.09057 -->
      <defs>
       <path d="M 10.984375 1.515625 
L 10.984375 10.5 
Q 14.703125 8.734375 18.5 7.8125 
Q 22.3125 6.890625 25.984375 6.890625 
Q 35.75 6.890625 40.890625 13.453125 
Q 46.046875 20.015625 46.78125 33.40625 
Q 43.953125 29.203125 39.59375 26.953125 
Q 35.25 24.703125 29.984375 24.703125 
Q 19.046875 24.703125 12.671875 31.3125 
Q 6.296875 37.9375 6.296875 49.421875 
Q 6.296875 60.640625 12.9375 67.421875 
Q 19.578125 74.21875 30.609375 74.21875 
Q 43.265625 74.21875 49.921875 64.515625 
Q 56.59375 54.828125 56.59375 36.375 
Q 56.59375 19.140625 48.40625 8.859375 
Q 40.234375 -1.421875 26.421875 -1.421875 
Q 22.703125 -1.421875 18.890625 -0.6875 
Q 15.09375 0.046875 10.984375 1.515625 
z
M 30.609375 32.421875 
Q 37.25 32.421875 41.125 36.953125 
Q 45.015625 41.5 45.015625 49.421875 
Q 45.015625 57.28125 41.125 61.84375 
Q 37.25 66.40625 30.609375 66.40625 
Q 23.96875 66.40625 20.09375 61.84375 
Q 16.21875 57.28125 16.21875 49.421875 
Q 16.21875 41.5 20.09375 36.953125 
Q 23.96875 32.421875 30.609375 32.421875 
z
" id="DejaVuSans-39"/>
      </defs>
      <g transform="translate(168.267188 425.738073)scale(0.1 -0.1)">
       <use xlink:href="#DejaVuSans-2212"/>
       <use x="83.789062" xlink:href="#DejaVuSans-30"/>
       <use x="147.412109" xlink:href="#DejaVuSans-2e"/>
       <use x="179.199219" xlink:href="#DejaVuSans-30"/>
       <use x="242.822266" xlink:href="#DejaVuSans-39"/>
       <use x="306.445312" xlink:href="#DejaVuSans-30"/>
       <use x="370.068359" xlink:href="#DejaVuSans-35"/>
       <use x="433.691406" xlink:href="#DejaVuSans-37"/>
      </g>
     </g>
    </g>
    <g id="ytick_6">
     <g id="line2d_21">
      <path clip-path="url(#pba1c416987)" d="M 225 207.023568 
L 1620 207.023568 
" style="fill:none;stroke:#b0b0b0;stroke-linecap:square;stroke-width:0.8;"/>
     </g>
     <g id="line2d_22">
      <g>
       <use style="stroke:#000000;stroke-width:0.8;" x="225" xlink:href="#m74a890c611" y="207.023568"/>
      </g>
     </g>
     <g id="text_11">
      <!-- −0.08057 -->
      <g transform="translate(168.267188 210.822787)scale(0.1 -0.1)">
       <use xlink:href="#DejaVuSans-2212"/>
       <use x="83.789062" xlink:href="#DejaVuSans-30"/>
       <use x="147.412109" xlink:href="#DejaVuSans-2e"/>
       <use x="179.199219" xlink:href="#DejaVuSans-30"/>
       <use x="242.822266" xlink:href="#DejaVuSans-38"/>
       <use x="306.445312" xlink:href="#DejaVuSans-30"/>
       <use x="370.068359" xlink:href="#DejaVuSans-35"/>
       <use x="433.691406" xlink:href="#DejaVuSans-37"/>
      </g>
     </g>
    </g>
   </g>
   <g id="patch_3">
    <path clip-path="url(#pba1c416987)" d="M 288.409091 1281.6 
L 1558.074163 1281.6 
L 1558.074163 172.8 
L 288.409091 172.8 
z
" style="opacity:0.3;"/>
   </g>
   <g id="line2d_23">
    <path clip-path="url(#pba1c416987)" d="M 288.409091 677.030593 
L 289.892344 763.133206 
L 291.375598 763.133206 
L 292.858852 732.36353 
L 294.342105 732.36353 
L 295.825359 709.397708 
L 297.308612 709.397708 
L 298.791866 754.827827 
L 300.27512 641.363243 
L 301.758373 641.363243 
L 303.241627 597.7279 
L 304.72488 597.7279 
L 306.208134 787.329741 
L 307.691388 787.329741 
L 309.174641 787.753571 
L 310.657895 787.753571 
L 312.141148 643.231398 
L 313.624402 643.231398 
L 315.107656 725.978664 
L 316.590909 725.978664 
L 318.074163 711.011356 
L 319.557416 711.011356 
L 321.04067 713.610068 
L 322.523923 713.610068 
L 324.007177 750.890291 
L 326.973684 750.834654 
L 328.456938 719.10907 
L 329.940191 719.10907 
L 331.423445 742.507377 
L 332.906699 742.507377 
L 334.389952 758.349085 
L 335.873206 758.349085 
L 337.356459 739.175431 
L 338.839713 664.050892 
L 340.322967 664.050892 
L 341.80622 615.491679 
L 343.289474 615.491679 
L 344.772727 748.176741 
L 346.255981 748.176741 
L 347.739234 739.797649 
L 349.222488 704.140492 
L 350.705742 704.140492 
L 352.188995 702.819167 
L 353.672249 702.819167 
L 355.155502 694.205507 
L 356.638756 694.205507 
L 358.12201 670.362694 
L 359.605263 670.362694 
L 361.088517 732.64422 
L 362.57177 732.64422 
L 364.055024 746.344622 
L 365.538278 746.344622 
L 367.021531 711.104043 
L 371.471292 711.016807 
L 372.954545 710.890061 
L 374.437799 710.890061 
L 375.921053 723.898048 
L 377.404306 723.898048 
L 378.88756 714.916774 
L 380.370813 714.916774 
L 381.854067 743.786503 
L 384.820574 743.786503 
L 386.303828 618.09142 
L 387.787081 567.520876 
L 389.270335 567.520876 
L 390.753589 582.849315 
L 392.236842 582.849315 
L 393.720096 706.925206 
L 395.203349 706.925206 
L 396.686603 644.056321 
L 398.169856 644.056321 
L 399.65311 756.003931 
L 401.136364 629.108925 
L 402.619617 629.108925 
L 404.102871 613.440482 
L 405.586124 613.440482 
L 407.069378 659.629026 
L 408.552632 659.629026 
L 410.035885 661.896669 
L 411.519139 661.896669 
L 413.002392 739.566583 
L 414.485646 739.566583 
L 415.9689 676.543515 
L 417.452153 676.543515 
L 418.935407 656.481668 
L 420.41866 656.481668 
L 421.901914 658.042194 
L 423.385167 658.042194 
L 424.868421 485.883404 
L 426.351675 485.883404 
L 427.834928 556.212478 
L 429.318182 556.212478 
L 430.801435 551.568791 
L 432.284689 551.568791 
L 433.767943 623.179709 
L 435.251196 623.179709 
L 436.73445 587.832151 
L 438.217703 587.832151 
L 439.700957 573.856871 
L 441.184211 603.635129 
L 442.667464 603.635129 
L 444.150718 672.872007 
L 445.633971 672.872007 
L 447.117225 592.893074 
L 448.600478 592.893074 
L 450.083732 612.500519 
L 451.566986 564.003536 
L 453.050239 564.003536 
L 454.533493 671.631783 
L 456.016746 671.631783 
L 457.5 584.359153 
L 458.983254 584.359153 
L 461.949761 656.676135 
L 463.433014 656.676135 
L 464.916268 633.951875 
L 466.399522 633.951875 
L 467.882775 582.296556 
L 469.366029 582.296556 
L 470.849282 558.869945 
L 472.332536 558.869945 
L 473.815789 724.81488 
L 475.299043 724.81488 
L 476.782297 496.134304 
L 478.26555 496.134304 
L 479.748804 622.268133 
L 481.232057 568.719837 
L 482.715311 568.719837 
L 484.198565 452.572356 
L 487.165072 452.572356 
L 488.648325 599.442392 
L 490.131579 587.514676 
L 491.614833 587.514676 
L 493.098086 607.67829 
L 494.58134 607.67829 
L 496.064593 548.449453 
L 497.547847 548.449453 
L 499.0311 603.425609 
L 500.514354 603.425609 
L 501.997608 465.551096 
L 503.480861 465.551096 
L 504.964115 613.596856 
L 506.447368 613.596856 
L 507.930622 550.351054 
L 509.413876 511.834546 
L 510.897129 511.834546 
L 512.380383 615.151801 
L 513.863636 615.151801 
L 515.34689 623.91619 
L 516.830144 623.91619 
L 518.313397 536.866872 
L 519.796651 536.866872 
L 521.279904 567.185279 
L 522.763158 567.185279 
L 524.246411 426.441716 
L 525.729665 502.547364 
L 527.212919 502.547364 
L 528.696172 497.526296 
L 530.179426 497.526296 
L 531.662679 463.566213 
L 533.145933 463.566213 
L 534.629187 518.163201 
L 536.11244 502.788436 
L 537.595694 502.788436 
L 539.078947 540.346604 
L 540.562201 540.346604 
L 542.045455 458.731829 
L 543.528708 458.731829 
L 545.011962 455.605986 
L 546.495215 455.605986 
L 547.978469 439.559494 
L 549.461722 439.559494 
L 550.944976 582.572801 
L 552.42823 582.572801 
L 553.911483 417.925738 
L 555.394737 417.925738 
L 556.87799 484.92658 
L 558.361244 484.92658 
L 559.844498 474.160264 
L 561.327751 474.160264 
L 562.811005 384.101106 
L 564.294258 384.101106 
L 565.777512 544.212912 
L 567.260766 544.212912 
L 568.744019 525.72104 
L 570.227273 525.72104 
L 571.710526 474.574177 
L 573.19378 474.574177 
L 574.677033 628.558576 
L 576.160287 628.558576 
L 577.643541 507.936716 
L 579.126794 507.936716 
L 580.610048 375.184879 
L 582.093301 375.184879 
L 583.576555 476.624067 
L 585.059809 476.624067 
L 586.543062 529.673166 
L 588.026316 529.673166 
L 589.509569 641.275016 
L 590.992823 641.275016 
L 592.476077 624.676904 
L 593.95933 624.676904 
L 595.442584 542.193477 
L 596.925837 548.950439 
L 598.409091 548.950439 
L 599.892344 480.483778 
L 601.375598 480.483778 
L 602.858852 576.165523 
L 604.342105 576.165523 
L 605.825359 588.646802 
L 607.308612 588.646802 
L 608.791866 617.534188 
L 610.27512 617.534188 
L 611.758373 711.719765 
L 613.241627 623.87818 
L 614.72488 623.87818 
L 616.208134 476.150861 
L 617.691388 476.150861 
L 619.174641 454.222048 
L 620.657895 454.222048 
L 622.141148 553.513035 
L 623.624402 607.722725 
L 625.107656 607.722725 
L 626.590909 505.838247 
L 628.074163 505.838247 
L 629.557416 508.990656 
L 631.04067 508.990656 
L 632.523923 459.765648 
L 634.007177 459.765648 
L 635.490431 514.14486 
L 636.973684 514.14486 
L 638.456938 542.887472 
L 639.940191 542.887472 
L 641.423445 474.093783 
L 642.906699 474.093783 
L 644.389952 440.231242 
L 645.873206 440.231242 
L 647.356459 397.398475 
L 648.839713 397.398475 
L 650.322967 417.16415 
L 651.80622 371.218132 
L 653.289474 371.218132 
L 654.772727 374.691745 
L 657.739234 374.691745 
L 659.222488 437.511558 
L 660.705742 437.511558 
L 662.188995 462.075883 
L 663.672249 444.856221 
L 665.155502 444.856221 
L 666.638756 410.151296 
L 668.12201 410.151296 
L 669.605263 382.188363 
L 671.088517 382.188363 
L 672.57177 377.74399 
L 674.055024 426.895484 
L 675.538278 426.895484 
L 677.021531 298.698314 
L 678.504785 298.698314 
L 679.988038 230.741774 
L 681.471292 230.741774 
L 682.954545 328.510782 
L 684.437799 337.197641 
L 685.921053 337.197641 
L 687.404306 361.250043 
L 688.88756 361.250043 
L 690.370813 417.116789 
L 691.854067 417.116789 
L 693.337321 447.618864 
L 694.820574 447.618864 
L 696.303828 223.2 
L 697.787081 500.694533 
L 699.270335 500.694533 
L 700.753589 438.336619 
L 702.236842 438.336619 
L 703.720096 493.18339 
L 705.203349 493.18339 
L 706.686603 499.736174 
L 708.169856 440.310181 
L 709.65311 440.310181 
L 711.136364 437.407082 
L 712.619617 437.407082 
L 714.102871 513.777172 
L 715.586124 513.777172 
L 717.069378 590.520505 
L 718.552632 590.520505 
L 720.035885 525.816115 
L 721.519139 541.200733 
L 723.002392 541.200733 
L 724.485646 600.993067 
L 725.9689 600.993067 
L 727.452153 663.020436 
L 728.935407 663.020436 
L 730.41866 620.767758 
L 731.901914 620.767758 
L 733.385167 631.69134 
L 734.868421 672.283194 
L 736.351675 672.283194 
L 737.834928 764.204482 
L 739.318182 764.204482 
L 740.801435 802.82029 
L 742.284689 802.82029 
L 743.767943 681.316258 
L 745.251196 681.316258 
L 746.73445 791.82971 
L 748.217703 776.365219 
L 749.700957 776.365219 
L 751.184211 818.501965 
L 752.667464 818.501965 
L 754.150718 672.84483 
L 755.633971 672.84483 
L 757.117225 769.9063 
L 758.600478 769.9063 
L 760.083732 813.156283 
L 761.566986 845.545165 
L 763.050239 845.545165 
L 764.533493 814.06466 
L 766.016746 814.06466 
L 767.5 774.674866 
L 768.983254 774.674866 
L 770.466507 806.02864 
L 771.949761 806.02864 
L 773.433014 808.060079 
L 774.916268 808.060079 
L 776.399522 914.900288 
L 777.882775 914.900288 
L 779.366029 895.069106 
L 780.849282 1003.228561 
L 782.332536 1003.228561 
L 783.815789 944.394875 
L 785.299043 944.394875 
L 786.782297 961.032159 
L 788.26555 961.032159 
L 789.748804 922.010918 
L 791.232057 922.010918 
L 792.715311 1031.768249 
L 794.198565 1171.179344 
L 795.681818 1171.179344 
L 797.165072 1160.808518 
L 798.648325 996.914048 
L 800.131579 996.914048 
L 801.614833 1104.049452 
L 803.098086 1104.049452 
L 804.58134 933.90606 
L 806.064593 933.90606 
L 807.547847 1056.011125 
L 809.0311 1056.011125 
L 810.514354 1008.342003 
L 811.997608 1008.342003 
L 813.480861 1001.617103 
L 814.964115 1001.617103 
L 816.447368 1000.481545 
L 817.930622 1000.481545 
L 819.413876 963.893909 
L 820.897129 963.893909 
L 822.380383 1231.2 
L 823.863636 1231.2 
L 825.34689 1028.750634 
L 826.830144 1028.750634 
L 828.313397 822.971998 
L 829.796651 952.66486 
L 831.279904 952.66486 
L 832.763158 927.072556 
L 834.246411 927.072556 
L 835.729665 803.991556 
L 837.212919 803.991556 
L 838.696172 1093.386169 
L 840.179426 1093.386169 
L 841.662679 871.617266 
L 843.145933 856.837668 
L 844.629187 856.837668 
L 846.11244 1066.882247 
L 847.595694 1066.882247 
L 849.078947 903.997936 
L 850.562201 903.997936 
L 853.528708 735.221662 
L 855.011962 854.42496 
L 856.495215 854.42496 
L 857.978469 836.76207 
L 859.461722 836.76207 
L 860.944976 1061.726258 
L 862.42823 1061.726258 
L 863.911483 921.433011 
L 865.394737 890.065144 
L 866.87799 890.065144 
L 868.361244 864.55227 
L 869.844498 864.55227 
L 871.327751 742.21796 
L 872.811005 742.21796 
L 874.294258 909.810882 
L 875.777512 909.810882 
L 877.260766 824.123511 
L 878.744019 560.861485 
L 880.227273 560.861485 
L 881.710526 756.220285 
L 883.19378 756.220285 
L 884.677033 809.24187 
L 886.160287 809.24187 
L 887.643541 650.547459 
L 889.126794 535.587588 
L 890.610048 535.587588 
L 892.093301 820.116589 
L 893.576555 820.116589 
L 895.059809 779.893935 
L 896.543062 638.179217 
L 898.026316 638.179217 
L 899.509569 674.243313 
L 900.992823 674.243313 
L 902.476077 462.995433 
L 903.95933 462.995433 
L 905.442584 496.079051 
L 906.925837 496.079051 
L 908.409091 480.577244 
L 909.892344 480.577244 
L 911.375598 444.777428 
L 912.858852 464.127135 
L 914.342105 464.127135 
L 915.825359 525.219165 
L 917.308612 525.219165 
L 918.791866 462.188103 
L 920.27512 462.188103 
L 921.758373 524.301369 
L 923.241627 411.045161 
L 924.72488 411.045161 
L 926.208134 404.472629 
L 927.691388 404.472629 
L 929.174641 276.335658 
L 930.657895 364.199065 
L 932.141148 364.199065 
L 933.624402 424.786763 
L 935.107656 424.786763 
L 936.590909 455.987257 
L 938.074163 455.987257 
L 939.557416 687.017508 
L 941.04067 687.017508 
L 942.523923 276.35816 
L 944.007177 512.532275 
L 945.490431 512.532275 
L 946.973684 460.91833 
L 948.456938 460.91833 
L 949.940191 401.816853 
L 951.423445 401.816853 
L 952.906699 475.5087 
L 954.389952 442.85255 
L 955.873206 442.85255 
L 957.356459 309.511615 
L 958.839713 443.915043 
L 960.322967 443.915043 
L 961.80622 416.61125 
L 963.289474 416.61125 
L 964.772727 386.987191 
L 966.255981 386.987191 
L 967.739234 444.084872 
L 969.222488 508.198496 
L 970.705742 508.198496 
L 972.188995 480.404052 
L 973.672249 480.404052 
L 975.155502 463.376095 
L 976.638756 463.376095 
L 978.12201 478.448039 
L 979.605263 478.448039 
L 981.088517 443.639937 
L 982.57177 443.639937 
L 984.055024 431.216815 
L 985.538278 452.423333 
L 987.021531 452.423333 
L 988.504785 631.407153 
L 989.988038 631.407153 
L 991.471292 471.228726 
L 992.954545 471.228726 
L 994.437799 612.702642 
L 995.921053 624.879456 
L 997.404306 624.879456 
L 998.88756 617.789843 
L 1000.370813 617.789843 
L 1001.854067 663.687405 
L 1003.337321 663.687405 
L 1004.820574 269.458399 
L 1006.303828 585.868576 
L 1007.787081 585.868576 
L 1009.270335 629.148846 
L 1010.753589 629.148846 
L 1012.236842 624.463908 
L 1013.720096 624.463908 
L 1015.203349 630.136506 
L 1016.686603 630.136506 
L 1018.169856 700.417798 
L 1019.65311 420.471768 
L 1021.136364 420.471768 
L 1022.619617 415.082468 
L 1024.102871 415.082468 
L 1025.586124 377.925941 
L 1027.069378 377.925941 
L 1028.552632 641.935826 
L 1030.035885 627.573896 
L 1031.519139 627.573896 
L 1033.002392 645.158904 
L 1034.485646 645.158904 
L 1035.9689 660.449474 
L 1037.452153 660.449474 
L 1038.935407 626.843459 
L 1040.41866 626.843459 
L 1041.901914 666.903493 
L 1043.385167 666.903493 
L 1044.868421 556.74181 
L 1046.351675 556.74181 
L 1047.834928 693.483521 
L 1049.318182 693.483521 
L 1050.801435 611.037355 
L 1052.284689 611.037355 
L 1053.767943 623.578854 
L 1055.251196 625.524705 
L 1056.73445 625.524705 
L 1058.217703 933.846899 
L 1059.700957 933.846899 
L 1061.184211 717.344419 
L 1062.667464 717.344419 
L 1064.150718 697.317556 
L 1065.633971 653.959316 
L 1067.117225 653.959316 
L 1068.600478 629.099129 
L 1070.083732 629.099129 
L 1071.566986 639.320987 
L 1073.050239 639.320987 
L 1074.533493 745.005139 
L 1076.016746 715.452265 
L 1077.5 715.452265 
L 1078.983254 772.537135 
L 1080.466507 772.537135 
L 1081.949761 856.358852 
L 1083.433014 856.358852 
L 1084.916268 786.424559 
L 1086.399522 786.424559 
L 1087.882775 681.321062 
L 1089.366029 696.719927 
L 1090.849282 696.719927 
L 1092.332536 745.334063 
L 1093.815789 745.334063 
L 1095.299043 708.870905 
L 1096.782297 708.870905 
L 1098.26555 822.640234 
L 1099.748804 822.640234 
L 1101.232057 854.379688 
L 1102.715311 746.617077 
L 1104.198565 746.617077 
L 1105.681818 734.266767 
L 1107.165072 734.266767 
L 1108.648325 830.253682 
L 1110.131579 830.253682 
L 1111.614833 755.466994 
L 1113.098086 755.466994 
L 1114.58134 769.104669 
L 1116.064593 854.803622 
L 1117.547847 854.803622 
L 1119.0311 785.940942 
L 1120.514354 785.940942 
L 1121.997608 845.121009 
L 1123.480861 845.121009 
L 1124.964115 912.547483 
L 1126.447368 814.010033 
L 1127.930622 814.010033 
L 1129.413876 843.592048 
L 1130.897129 843.592048 
L 1132.380383 959.470155 
L 1133.863636 959.470155 
L 1135.34689 772.50184 
L 1136.830144 772.50184 
L 1138.313397 853.163734 
L 1139.796651 853.163734 
L 1141.279904 863.302578 
L 1142.763158 863.302578 
L 1144.246411 929.138171 
L 1145.729665 929.138171 
L 1147.212919 757.589381 
L 1148.696172 757.589381 
L 1150.179426 943.389679 
L 1151.662679 935.474557 
L 1153.145933 935.474557 
L 1154.629187 807.263037 
L 1156.11244 807.263037 
L 1157.595694 868.667504 
L 1159.078947 868.667504 
L 1160.562201 879.296879 
L 1162.045455 879.296879 
L 1163.528708 893.683592 
L 1165.011962 893.683592 
L 1166.495215 867.666983 
L 1167.978469 867.666983 
L 1169.461722 803.751792 
L 1170.944976 803.751792 
L 1172.42823 859.674623 
L 1173.911483 859.674623 
L 1175.394737 971.926047 
L 1176.87799 868.829762 
L 1178.361244 868.829762 
L 1179.844498 972.919939 
L 1181.327751 972.919939 
L 1182.811005 775.810982 
L 1184.294258 775.810982 
L 1185.777512 942.060853 
L 1187.260766 942.060853 
L 1188.744019 943.901664 
L 1190.227273 943.901664 
L 1191.710526 1025.546066 
L 1193.19378 957.051583 
L 1194.677033 957.051583 
L 1196.160287 953.979632 
L 1197.643541 953.979632 
L 1199.126794 989.553426 
L 1200.610048 989.553426 
L 1202.093301 924.980766 
L 1203.576555 1042.179951 
L 1205.059809 1042.179951 
L 1206.543062 972.139199 
L 1208.026316 972.139199 
L 1209.509569 934.885381 
L 1210.992823 934.885381 
L 1212.476077 870.985459 
L 1213.95933 870.985459 
L 1215.442584 877.412954 
L 1218.409091 877.412954 
L 1219.892344 913.382487 
L 1221.375598 913.382487 
L 1222.858852 885.180151 
L 1224.342105 885.180151 
L 1225.825359 900.537237 
L 1227.308612 900.537237 
L 1228.791866 795.085038 
L 1230.27512 795.085038 
L 1231.758373 829.54793 
L 1233.241627 853.781226 
L 1234.72488 853.781226 
L 1236.208134 977.017857 
L 1237.691388 977.017857 
L 1239.174641 877.90258 
L 1240.657895 877.90258 
L 1242.141148 761.524847 
L 1243.624402 761.524847 
L 1245.107656 813.842621 
L 1246.590909 762.002474 
L 1248.074163 762.002474 
L 1249.557416 769.901689 
L 1251.04067 769.901689 
L 1252.523923 807.403144 
L 1254.007177 807.403144 
L 1255.490431 805.265682 
L 1256.973684 805.265682 
L 1258.456938 694.927184 
L 1259.940191 694.927184 
L 1261.423445 599.506907 
L 1262.906699 624.912175 
L 1264.389952 624.912175 
L 1265.873206 560.405355 
L 1267.356459 560.405355 
L 1268.839713 505.389698 
L 1270.322967 505.389698 
L 1271.80622 506.449902 
L 1273.289474 506.449902 
L 1274.772727 627.613432 
L 1276.255981 627.613432 
L 1277.739234 621.125132 
L 1279.222488 621.125132 
L 1280.705742 635.564321 
L 1282.188995 648.740908 
L 1283.672249 648.740908 
L 1285.155502 651.829131 
L 1286.638756 651.829131 
L 1288.12201 597.186906 
L 1289.605263 597.186906 
L 1291.088517 439.345477 
L 1292.57177 439.345477 
L 1294.055024 550.215424 
L 1295.538278 550.215424 
L 1297.021531 531.412705 
L 1298.504785 531.412705 
L 1299.988038 559.981491 
L 1301.471292 559.981491 
L 1302.954545 484.909884 
L 1304.437799 484.909884 
L 1305.921053 437.537169 
L 1307.404306 437.537169 
L 1308.88756 374.370915 
L 1310.370813 374.370915 
L 1311.854067 444.703656 
L 1313.337321 444.703656 
L 1314.820574 457.643014 
L 1316.303828 457.643014 
L 1317.787081 511.125857 
L 1319.270335 511.125857 
L 1320.753589 476.387343 
L 1322.236842 476.387343 
L 1323.720096 496.714957 
L 1325.203349 496.714957 
L 1326.686603 364.709735 
L 1328.169856 364.709735 
L 1329.65311 439.93331 
L 1331.136364 439.93331 
L 1332.619617 519.326423 
L 1334.102871 519.326423 
L 1335.586124 435.414277 
L 1337.069378 435.414277 
L 1338.552632 525.575997 
L 1340.035885 518.12528 
L 1341.519139 518.12528 
L 1343.002392 465.273017 
L 1344.485646 465.273017 
L 1345.9689 553.232469 
L 1348.935407 553.232469 
L 1350.41866 576.270536 
L 1351.901914 565.059254 
L 1353.385167 565.059254 
L 1354.868421 583.495684 
L 1356.351675 583.495684 
L 1357.834928 521.102511 
L 1359.318182 521.102511 
L 1360.801435 547.055982 
L 1362.284689 547.055982 
L 1363.767943 558.620956 
L 1365.251196 558.620956 
L 1366.73445 558.457501 
L 1368.217703 558.457501 
L 1369.700957 571.045676 
L 1371.184211 571.045676 
L 1372.667464 624.322024 
L 1374.150718 611.692425 
L 1377.117225 611.692425 
L 1378.600478 674.106258 
L 1380.083732 606.449348 
L 1381.566986 606.449348 
L 1383.050239 580.257296 
L 1384.533493 580.257296 
L 1386.016746 574.783962 
L 1387.5 574.783962 
L 1388.983254 538.256918 
L 1390.466507 538.256918 
L 1391.949761 599.249218 
L 1394.916268 599.249218 
L 1396.399522 604.922757 
L 1397.882775 604.922757 
L 1399.366029 599.85034 
L 1400.849282 654.712898 
L 1402.332536 654.712898 
L 1403.815789 574.013934 
L 1405.299043 574.013934 
L 1406.782297 578.48261 
L 1408.26555 578.48261 
L 1409.748804 628.695362 
L 1411.232057 628.695362 
L 1412.715311 644.16159 
L 1414.198565 682.563427 
L 1415.681818 682.563427 
L 1417.165072 594.224433 
L 1418.648325 594.224433 
L 1420.131579 550.50638 
L 1421.614833 550.50638 
L 1423.098086 574.320863 
L 1424.58134 574.320863 
L 1426.064593 616.587914 
L 1427.547847 616.587914 
L 1429.0311 662.83071 
L 1430.514354 662.83071 
L 1431.997608 641.296013 
L 1433.480861 502.716606 
L 1434.964115 502.716606 
L 1436.447368 630.78959 
L 1437.930622 630.78959 
L 1439.413876 597.299177 
L 1440.897129 597.299177 
L 1442.380383 671.934449 
L 1443.863636 671.934449 
L 1445.34689 672.067481 
L 1446.830144 530.980441 
L 1448.313397 530.980441 
L 1449.796651 595.890616 
L 1451.279904 595.890616 
L 1452.763158 485.400159 
L 1454.246411 485.400159 
L 1455.729665 755.111933 
L 1457.212919 626.902907 
L 1458.696172 626.902907 
L 1460.179426 756.916996 
L 1461.662679 756.916996 
L 1463.145933 777.135007 
L 1464.629187 777.135007 
L 1466.11244 678.154785 
L 1467.595694 678.154785 
L 1469.078947 629.662921 
L 1470.562201 642.413534 
L 1472.045455 642.413534 
L 1473.528708 680.336978 
L 1475.011962 680.336978 
L 1476.495215 702.133403 
L 1477.978469 702.133403 
L 1479.461722 707.772115 
L 1480.944976 707.772115 
L 1482.42823 654.607416 
L 1483.911483 654.607416 
L 1485.394737 691.24117 
L 1486.87799 752.944043 
L 1488.361244 752.944043 
L 1489.844498 667.189516 
L 1491.327751 667.189516 
L 1492.811005 685.440913 
L 1494.294258 685.440913 
L 1495.777512 620.787123 
L 1497.260766 722.468345 
L 1498.744019 722.468345 
L 1500.227273 657.687186 
L 1501.710526 657.687186 
L 1503.19378 639.347336 
L 1504.677033 639.347336 
L 1506.160287 668.339904 
L 1507.643541 668.339904 
L 1509.126794 588.340772 
L 1510.610048 588.340772 
L 1512.093301 632.857516 
L 1513.576555 632.857516 
L 1515.059809 588.263618 
L 1516.543062 588.263618 
L 1518.026316 526.388972 
L 1519.509569 526.388972 
L 1520.992823 508.54889 
L 1522.476077 508.54889 
L 1523.95933 579.584181 
L 1526.925837 579.584181 
L 1528.409091 594.367289 
L 1529.892344 522.468832 
L 1531.375598 522.468832 
L 1532.858852 454.173502 
L 1534.342105 454.173502 
L 1535.825359 405.578377 
L 1537.308612 405.578377 
L 1538.791866 618.710282 
L 1540.27512 618.710282 
L 1541.758373 478.197682 
L 1543.241627 608.678729 
L 1544.72488 608.678729 
L 1546.208134 587.058452 
L 1547.691388 587.058452 
L 1549.174641 622.379114 
L 1550.657895 622.379114 
L 1552.141148 618.222662 
L 1553.624402 618.222662 
L 1555.107656 570.969412 
L 1556.590909 570.969412 
L 1556.590909 570.969412 
" style="fill:none;stroke:#000000;stroke-linecap:square;stroke-width:1.5;"/>
   </g>
   <g id="line2d_24">
    <path clip-path="url(#pba1c416987)" d="M 288.409091 624.66504 
L 1556.590909 624.66504 
L 1556.590909 624.66504 
" style="fill:none;stroke:#ff0000;stroke-linecap:square;stroke-width:1.5;"/>
   </g>
   <g id="patch_4">
    <path d="M 225 1281.6 
L 225 172.8 
" style="fill:none;stroke:#000000;stroke-linecap:square;stroke-linejoin:miter;stroke-width:0.8;"/>
   </g>
   <g id="patch_5">
    <path d="M 1620 1281.6 
L 1620 172.8 
" style="fill:none;stroke:#000000;stroke-linecap:square;stroke-linejoin:miter;stroke-width:0.8;"/>
   </g>
   <g id="patch_6">
    <path d="M 225 1281.6 
L 1620 1281.6 
" style="fill:none;stroke:#000000;stroke-linecap:square;stroke-linejoin:miter;stroke-width:0.8;"/>
   </g>
   <g id="patch_7">
    <path d="M 225 172.8 
L 1620 172.8 
" style="fill:none;stroke:#000000;stroke-linecap:square;stroke-linejoin:miter;stroke-width:0.8;"/>
   </g>
   <g id="legend_1">
    <g id="patch_8">
     <path d="M 1504.845313 224.834375 
L 1613 224.834375 
Q 1615 224.834375 1615 222.834375 
L 1615 179.8 
Q 1615 177.8 1613 177.8 
L 1504.845313 177.8 
Q 1502.845313 177.8 1502.845313 179.8 
L 1502.845313 222.834375 
Q 1502.845313 224.834375 1504.845313 224.834375 
z
" style="fill:#ffffff;opacity:0.8;stroke:#cccccc;stroke-linejoin:miter;"/>
    </g>
    <g id="line2d_25">
     <path d="M 1506.845313 185.898438 
L 1526.845313 185.898438 
" style="fill:none;stroke:#000000;stroke-linecap:square;stroke-width:1.5;"/>
    </g>
    <g id="line2d_26"/>
    <g id="text_12">
     <!-- Y position -->
     <defs>
      <path d="M -0.203125 72.90625 
L 10.40625 72.90625 
L 30.609375 42.921875 
L 50.6875 72.90625 
L 61.28125 72.90625 
L 35.5 34.71875 
L 35.5 0 
L 25.59375 0 
L 25.59375 34.71875 
z
" id="DejaVuSans-59"/>
      <path id="DejaVuSans-20"/>
      <path d="M 18.109375 8.203125 
L 18.109375 -20.796875 
L 9.078125 -20.796875 
L 9.078125 54.6875 
L 18.109375 54.6875 
L 18.109375 46.390625 
Q 20.953125 51.265625 25.265625 53.625 
Q 29.59375 56 35.59375 56 
Q 45.5625 56 51.78125 48.09375 
Q 58.015625 40.1875 58.015625 27.296875 
Q 58.015625 14.40625 51.78125 6.484375 
Q 45.5625 -1.421875 35.59375 -1.421875 
Q 29.59375 -1.421875 25.265625 0.953125 
Q 20.953125 3.328125 18.109375 8.203125 
z
M 48.6875 27.296875 
Q 48.6875 37.203125 44.609375 42.84375 
Q 40.53125 48.484375 33.40625 48.484375 
Q 26.265625 48.484375 22.1875 42.84375 
Q 18.109375 37.203125 18.109375 27.296875 
Q 18.109375 17.390625 22.1875 11.75 
Q 26.265625 6.109375 33.40625 6.109375 
Q 40.53125 6.109375 44.609375 11.75 
Q 48.6875 17.390625 48.6875 27.296875 
z
" id="DejaVuSans-70"/>
      <path d="M 30.609375 48.390625 
Q 23.390625 48.390625 19.1875 42.75 
Q 14.984375 37.109375 14.984375 27.296875 
Q 14.984375 17.484375 19.15625 11.84375 
Q 23.34375 6.203125 30.609375 6.203125 
Q 37.796875 6.203125 41.984375 11.859375 
Q 46.1875 17.53125 46.1875 27.296875 
Q 46.1875 37.015625 41.984375 42.703125 
Q 37.796875 48.390625 30.609375 48.390625 
z
M 30.609375 56 
Q 42.328125 56 49.015625 48.375 
Q 55.71875 40.765625 55.71875 27.296875 
Q 55.71875 13.875 49.015625 6.21875 
Q 42.328125 -1.421875 30.609375 -1.421875 
Q 18.84375 -1.421875 12.171875 6.21875 
Q 5.515625 13.875 5.515625 27.296875 
Q 5.515625 40.765625 12.171875 48.375 
Q 18.84375 56 30.609375 56 
z
" id="DejaVuSans-6f"/>
      <path d="M 44.28125 53.078125 
L 44.28125 44.578125 
Q 40.484375 46.53125 36.375 47.5 
Q 32.28125 48.484375 27.875 48.484375 
Q 21.1875 48.484375 17.84375 46.4375 
Q 14.5 44.390625 14.5 40.28125 
Q 14.5 37.15625 16.890625 35.375 
Q 19.28125 33.59375 26.515625 31.984375 
L 29.59375 31.296875 
Q 39.15625 29.25 43.1875 25.515625 
Q 47.21875 21.78125 47.21875 15.09375 
Q 47.21875 7.46875 41.1875 3.015625 
Q 35.15625 -1.421875 24.609375 -1.421875 
Q 20.21875 -1.421875 15.453125 -0.5625 
Q 10.6875 0.296875 5.421875 2 
L 5.421875 11.28125 
Q 10.40625 8.6875 15.234375 7.390625 
Q 20.0625 6.109375 24.8125 6.109375 
Q 31.15625 6.109375 34.5625 8.28125 
Q 37.984375 10.453125 37.984375 14.40625 
Q 37.984375 18.0625 35.515625 20.015625 
Q 33.0625 21.96875 24.703125 23.78125 
L 21.578125 24.515625 
Q 13.234375 26.265625 9.515625 29.90625 
Q 5.8125 33.546875 5.8125 39.890625 
Q 5.8125 47.609375 11.28125 51.796875 
Q 16.75 56 26.8125 56 
Q 31.78125 56 36.171875 55.265625 
Q 40.578125 54.546875 44.28125 53.078125 
z
" id="DejaVuSans-73"/>
      <path d="M 9.421875 54.6875 
L 18.40625 54.6875 
L 18.40625 0 
L 9.421875 0 
z
M 9.421875 75.984375 
L 18.40625 75.984375 
L 18.40625 64.59375 
L 9.421875 64.59375 
z
" id="DejaVuSans-69"/>
      <path d="M 18.3125 70.21875 
L 18.3125 54.6875 
L 36.8125 54.6875 
L 36.8125 47.703125 
L 18.3125 47.703125 
L 18.3125 18.015625 
Q 18.3125 11.328125 20.140625 9.421875 
Q 21.96875 7.515625 27.59375 7.515625 
L 36.8125 7.515625 
L 36.8125 0 
L 27.59375 0 
Q 17.1875 0 13.234375 3.875 
Q 9.28125 7.765625 9.28125 18.015625 
L 9.28125 47.703125 
L 2.6875 47.703125 
L 2.6875 54.6875 
L 9.28125 54.6875 
L 9.28125 70.21875 
z
" id="DejaVuSans-74"/>
      <path d="M 54.890625 33.015625 
L 54.890625 0 
L 45.90625 0 
L 45.90625 32.71875 
Q 45.90625 40.484375 42.875 44.328125 
Q 39.84375 48.1875 33.796875 48.1875 
Q 26.515625 48.1875 22.3125 43.546875 
Q 18.109375 38.921875 18.109375 30.90625 
L 18.109375 0 
L 9.078125 0 
L 9.078125 54.6875 
L 18.109375 54.6875 
L 18.109375 46.1875 
Q 21.34375 51.125 25.703125 53.5625 
Q 30.078125 56 35.796875 56 
Q 45.21875 56 50.046875 50.171875 
Q 54.890625 44.34375 54.890625 33.015625 
z
" id="DejaVuSans-6e"/>
     </defs>
     <g transform="translate(1534.845313 189.398438)scale(0.1 -0.1)">
      <use xlink:href="#DejaVuSans-59"/>
      <use x="61.083984" xlink:href="#DejaVuSans-20"/>
      <use x="92.871094" xlink:href="#DejaVuSans-70"/>
      <use x="156.347656" xlink:href="#DejaVuSans-6f"/>
      <use x="217.529297" xlink:href="#DejaVuSans-73"/>
      <use x="269.628906" xlink:href="#DejaVuSans-69"/>
      <use x="297.412109" xlink:href="#DejaVuSans-74"/>
      <use x="336.621094" xlink:href="#DejaVuSans-69"/>
      <use x="364.404297" xlink:href="#DejaVuSans-6f"/>
      <use x="425.585938" xlink:href="#DejaVuSans-6e"/>
     </g>
    </g>
    <g id="line2d_27">
     <path d="M 1506.845313 200.576562 
L 1526.845313 200.576562 
" style="fill:none;stroke:#ff0000;stroke-linecap:square;stroke-width:1.5;"/>
    </g>
    <g id="line2d_28"/>
    <g id="text_13">
     <!-- goal -->
     <defs>
      <path d="M 45.40625 27.984375 
Q 45.40625 37.75 41.375 43.109375 
Q 37.359375 48.484375 30.078125 48.484375 
Q 22.859375 48.484375 18.828125 43.109375 
Q 14.796875 37.75 14.796875 27.984375 
Q 14.796875 18.265625 18.828125 12.890625 
Q 22.859375 7.515625 30.078125 7.515625 
Q 37.359375 7.515625 41.375 12.890625 
Q 45.40625 18.265625 45.40625 27.984375 
z
M 54.390625 6.78125 
Q 54.390625 -7.171875 48.1875 -13.984375 
Q 42 -20.796875 29.203125 -20.796875 
Q 24.46875 -20.796875 20.265625 -20.09375 
Q 16.0625 -19.390625 12.109375 -17.921875 
L 12.109375 -9.1875 
Q 16.0625 -11.328125 19.921875 -12.34375 
Q 23.78125 -13.375 27.78125 -13.375 
Q 36.625 -13.375 41.015625 -8.765625 
Q 45.40625 -4.15625 45.40625 5.171875 
L 45.40625 9.625 
Q 42.625 4.78125 38.28125 2.390625 
Q 33.9375 0 27.875 0 
Q 17.828125 0 11.671875 7.65625 
Q 5.515625 15.328125 5.515625 27.984375 
Q 5.515625 40.671875 11.671875 48.328125 
Q 17.828125 56 27.875 56 
Q 33.9375 56 38.28125 53.609375 
Q 42.625 51.21875 45.40625 46.390625 
L 45.40625 54.6875 
L 54.390625 54.6875 
z
" id="DejaVuSans-67"/>
      <path d="M 34.28125 27.484375 
Q 23.390625 27.484375 19.1875 25 
Q 14.984375 22.515625 14.984375 16.5 
Q 14.984375 11.71875 18.140625 8.90625 
Q 21.296875 6.109375 26.703125 6.109375 
Q 34.1875 6.109375 38.703125 11.40625 
Q 43.21875 16.703125 43.21875 25.484375 
L 43.21875 27.484375 
z
M 52.203125 31.203125 
L 52.203125 0 
L 43.21875 0 
L 43.21875 8.296875 
Q 40.140625 3.328125 35.546875 0.953125 
Q 30.953125 -1.421875 24.3125 -1.421875 
Q 15.921875 -1.421875 10.953125 3.296875 
Q 6 8.015625 6 15.921875 
Q 6 25.140625 12.171875 29.828125 
Q 18.359375 34.515625 30.609375 34.515625 
L 43.21875 34.515625 
L 43.21875 35.40625 
Q 43.21875 41.609375 39.140625 45 
Q 35.0625 48.390625 27.6875 48.390625 
Q 23 48.390625 18.546875 47.265625 
Q 14.109375 46.140625 10.015625 43.890625 
L 10.015625 52.203125 
Q 14.9375 54.109375 19.578125 55.046875 
Q 24.21875 56 28.609375 56 
Q 40.484375 56 46.34375 49.84375 
Q 52.203125 43.703125 52.203125 31.203125 
z
" id="DejaVuSans-61"/>
      <path d="M 9.421875 75.984375 
L 18.40625 75.984375 
L 18.40625 0 
L 9.421875 0 
z
" id="DejaVuSans-6c"/>
     </defs>
     <g transform="translate(1534.845313 204.076562)scale(0.1 -0.1)">
      <use xlink:href="#DejaVuSans-67"/>
      <use x="63.476562" xlink:href="#DejaVuSans-6f"/>
      <use x="124.658203" xlink:href="#DejaVuSans-61"/>
      <use x="185.9375" xlink:href="#DejaVuSans-6c"/>
     </g>
    </g>
    <g id="patch_9">
     <path d="M 1506.845313 218.754688 
L 1526.845313 218.754688 
L 1526.845313 211.754688 
L 1506.845313 211.754688 
z
" style="opacity:0.3;"/>
    </g>
    <g id="text_14">
     <!-- +PITCH motion -->
     <defs>
      <path d="M 46 62.703125 
L 46 35.5 
L 73.1875 35.5 
L 73.1875 27.203125 
L 46 27.203125 
L 46 0 
L 37.796875 0 
L 37.796875 27.203125 
L 10.59375 27.203125 
L 10.59375 35.5 
L 37.796875 35.5 
L 37.796875 62.703125 
z
" id="DejaVuSans-2b"/>
      <path d="M 19.671875 64.796875 
L 19.671875 37.40625 
L 32.078125 37.40625 
Q 38.96875 37.40625 42.71875 40.96875 
Q 46.484375 44.53125 46.484375 51.125 
Q 46.484375 57.671875 42.71875 61.234375 
Q 38.96875 64.796875 32.078125 64.796875 
z
M 9.8125 72.90625 
L 32.078125 72.90625 
Q 44.34375 72.90625 50.609375 67.359375 
Q 56.890625 61.8125 56.890625 51.125 
Q 56.890625 40.328125 50.609375 34.8125 
Q 44.34375 29.296875 32.078125 29.296875 
L 19.671875 29.296875 
L 19.671875 0 
L 9.8125 0 
z
" id="DejaVuSans-50"/>
      <path d="M 9.8125 72.90625 
L 19.671875 72.90625 
L 19.671875 0 
L 9.8125 0 
z
" id="DejaVuSans-49"/>
      <path d="M -0.296875 72.90625 
L 61.375 72.90625 
L 61.375 64.59375 
L 35.5 64.59375 
L 35.5 0 
L 25.59375 0 
L 25.59375 64.59375 
L -0.296875 64.59375 
z
" id="DejaVuSans-54"/>
      <path d="M 64.40625 67.28125 
L 64.40625 56.890625 
Q 59.421875 61.53125 53.78125 63.8125 
Q 48.140625 66.109375 41.796875 66.109375 
Q 29.296875 66.109375 22.65625 58.46875 
Q 16.015625 50.828125 16.015625 36.375 
Q 16.015625 21.96875 22.65625 14.328125 
Q 29.296875 6.6875 41.796875 6.6875 
Q 48.140625 6.6875 53.78125 8.984375 
Q 59.421875 11.28125 64.40625 15.921875 
L 64.40625 5.609375 
Q 59.234375 2.09375 53.4375 0.328125 
Q 47.65625 -1.421875 41.21875 -1.421875 
Q 24.65625 -1.421875 15.125 8.703125 
Q 5.609375 18.84375 5.609375 36.375 
Q 5.609375 53.953125 15.125 64.078125 
Q 24.65625 74.21875 41.21875 74.21875 
Q 47.75 74.21875 53.53125 72.484375 
Q 59.328125 70.75 64.40625 67.28125 
z
" id="DejaVuSans-43"/>
      <path d="M 9.8125 72.90625 
L 19.671875 72.90625 
L 19.671875 43.015625 
L 55.515625 43.015625 
L 55.515625 72.90625 
L 65.375 72.90625 
L 65.375 0 
L 55.515625 0 
L 55.515625 34.71875 
L 19.671875 34.71875 
L 19.671875 0 
L 9.8125 0 
z
" id="DejaVuSans-48"/>
      <path d="M 52 44.1875 
Q 55.375 50.25 60.0625 53.125 
Q 64.75 56 71.09375 56 
Q 79.640625 56 84.28125 50.015625 
Q 88.921875 44.046875 88.921875 33.015625 
L 88.921875 0 
L 79.890625 0 
L 79.890625 32.71875 
Q 79.890625 40.578125 77.09375 44.375 
Q 74.3125 48.1875 68.609375 48.1875 
Q 61.625 48.1875 57.5625 43.546875 
Q 53.515625 38.921875 53.515625 30.90625 
L 53.515625 0 
L 44.484375 0 
L 44.484375 32.71875 
Q 44.484375 40.625 41.703125 44.40625 
Q 38.921875 48.1875 33.109375 48.1875 
Q 26.21875 48.1875 22.15625 43.53125 
Q 18.109375 38.875 18.109375 30.90625 
L 18.109375 0 
L 9.078125 0 
L 9.078125 54.6875 
L 18.109375 54.6875 
L 18.109375 46.1875 
Q 21.1875 51.21875 25.484375 53.609375 
Q 29.78125 56 35.6875 56 
Q 41.65625 56 45.828125 52.96875 
Q 50 49.953125 52 44.1875 
z
" id="DejaVuSans-6d"/>
     </defs>
     <g transform="translate(1534.845313 218.754688)scale(0.1 -0.1)">
      <use xlink:href="#DejaVuSans-2b"/>
      <use x="83.789062" xlink:href="#DejaVuSans-50"/>
      <use x="144.091797" xlink:href="#DejaVuSans-49"/>
      <use x="173.583984" xlink:href="#DejaVuSans-54"/>
      <use x="234.589844" xlink:href="#DejaVuSans-43"/>
      <use x="304.414062" xlink:href="#DejaVuSans-48"/>
      <use x="379.609375" xlink:href="#DejaVuSans-20"/>
      <use x="411.396484" xlink:href="#DejaVuSans-6d"/>
      <use x="508.808594" xlink:href="#DejaVuSans-6f"/>
      <use x="569.990234" xlink:href="#DejaVuSans-74"/>
      <use x="609.199219" xlink:href="#DejaVuSans-69"/>
      <use x="636.982422" xlink:href="#DejaVuSans-6f"/>
      <use x="698.164062" xlink:href="#DejaVuSans-6e"/>
     </g>
    </g>
   </g>
  </g>
 </g>
 <defs>
  <clipPath id="pba1c416987">
   <rect height="1108.8" width="1395" x="225" y="172.8"/>
  </clipPath>
 </defs>
</svg>
