<?xml version="1.0" encoding="utf-8" standalone="no"?>
<!DOCTYPE svg PUBLIC "-//W3C//DTD SVG 1.1//EN"
  "http://www.w3.org/Graphics/SVG/1.1/DTD/svg11.dtd">
<!-- Created with matplotlib (http://matplotlib.org/) -->
<svg height="1440pt" version="1.1" viewBox="0 0 1800 1440" width="1800pt" xmlns="http://www.w3.org/2000/svg" xmlns:xlink="http://www.w3.org/1999/xlink">
 <defs>
  <style type="text/css">
*{stroke-linecap:butt;stroke-linejoin:round;}
  </style>
 </defs>
 <g id="figure_1">
  <g id="patch_1">
   <path d="M 0 1440 
L 1800 1440 
L 1800 0 
L 0 0 
z
" style="fill:#ffffff;"/>
  </g>
  <g id="axes_1">
   <g id="patch_2">
    <path d="M 225 1281.6 
L 1620 1281.6 
L 1620 172.8 
L 225 172.8 
z
" style="fill:#ffffff;"/>
   </g>
   <g id="matplotlib.axis_1">
    <g id="xtick_1">
     <g id="line2d_1">
      <path clip-path="url(#p222a288111)" d="M 288.409091 1281.6 
L 288.409091 172.8 
" style="fill:none;stroke:#b0b0b0;stroke-linecap:square;stroke-width:0.8;"/>
     </g>
     <g id="line2d_2">
      <defs>
       <path d="M 0 0 
L 0 3.5 
" id="mf51097f7e2" style="stroke:#000000;stroke-width:0.8;"/>
      </defs>
      <g>
       <use style="stroke:#000000;stroke-width:0.8;" x="288.409091" xlink:href="#mf51097f7e2" y="1281.6"/>
      </g>
     </g>
     <g id="text_1">
      <!-- 0 -->
      <defs>
       <path d="M 31.78125 66.40625 
Q 24.171875 66.40625 20.328125 58.90625 
Q 16.5 51.421875 16.5 36.375 
Q 16.5 21.390625 20.328125 13.890625 
Q 24.171875 6.390625 31.78125 6.390625 
Q 39.453125 6.390625 43.28125 13.890625 
Q 47.125 21.390625 47.125 36.375 
Q 47.125 51.421875 43.28125 58.90625 
Q 39.453125 66.40625 31.78125 66.40625 
z
M 31.78125 74.21875 
Q 44.046875 74.21875 50.515625 64.515625 
Q 56.984375 54.828125 56.984375 36.375 
Q 56.984375 17.96875 50.515625 8.265625 
Q 44.046875 -1.421875 31.78125 -1.421875 
Q 19.53125 -1.421875 13.0625 8.265625 
Q 6.59375 17.96875 6.59375 36.375 
Q 6.59375 54.828125 13.0625 64.515625 
Q 19.53125 74.21875 31.78125 74.21875 
z
" id="DejaVuSans-30"/>
      </defs>
      <g transform="translate(285.227841 1296.198437)scale(0.1 -0.1)">
       <use xlink:href="#DejaVuSans-30"/>
      </g>
     </g>
    </g>
    <g id="xtick_2">
     <g id="line2d_3">
      <path clip-path="url(#p222a288111)" d="M 585.059809 1281.6 
L 585.059809 172.8 
" style="fill:none;stroke:#b0b0b0;stroke-linecap:square;stroke-width:0.8;"/>
     </g>
     <g id="line2d_4">
      <g>
       <use style="stroke:#000000;stroke-width:0.8;" x="585.059809" xlink:href="#mf51097f7e2" y="1281.6"/>
      </g>
     </g>
     <g id="text_2">
      <!-- 200 -->
      <defs>
       <path d="M 19.1875 8.296875 
L 53.609375 8.296875 
L 53.609375 0 
L 7.328125 0 
L 7.328125 8.296875 
Q 12.9375 14.109375 22.625 23.890625 
Q 32.328125 33.6875 34.8125 36.53125 
Q 39.546875 41.84375 41.421875 45.53125 
Q 43.3125 49.21875 43.3125 52.78125 
Q 43.3125 58.59375 39.234375 62.25 
Q 35.15625 65.921875 28.609375 65.921875 
Q 23.96875 65.921875 18.8125 64.3125 
Q 13.671875 62.703125 7.8125 59.421875 
L 7.8125 69.390625 
Q 13.765625 71.78125 18.9375 73 
Q 24.125 74.21875 28.421875 74.21875 
Q 39.75 74.21875 46.484375 68.546875 
Q 53.21875 62.890625 53.21875 53.421875 
Q 53.21875 48.921875 51.53125 44.890625 
Q 49.859375 40.875 45.40625 35.40625 
Q 44.1875 33.984375 37.640625 27.21875 
Q 31.109375 20.453125 19.1875 8.296875 
z
" id="DejaVuSans-32"/>
      </defs>
      <g transform="translate(575.516059 1296.198437)scale(0.1 -0.1)">
       <use xlink:href="#DejaVuSans-32"/>
       <use x="63.623047" xlink:href="#DejaVuSans-30"/>
       <use x="127.246094" xlink:href="#DejaVuSans-30"/>
      </g>
     </g>
    </g>
    <g id="xtick_3">
     <g id="line2d_5">
      <path clip-path="url(#p222a288111)" d="M 881.710526 1281.6 
L 881.710526 172.8 
" style="fill:none;stroke:#b0b0b0;stroke-linecap:square;stroke-width:0.8;"/>
     </g>
     <g id="line2d_6">
      <g>
       <use style="stroke:#000000;stroke-width:0.8;" x="881.710526" xlink:href="#mf51097f7e2" y="1281.6"/>
      </g>
     </g>
     <g id="text_3">
      <!-- 400 -->
      <defs>
       <path d="M 37.796875 64.3125 
L 12.890625 25.390625 
L 37.796875 25.390625 
z
M 35.203125 72.90625 
L 47.609375 72.90625 
L 47.609375 25.390625 
L 58.015625 25.390625 
L 58.015625 17.1875 
L 47.609375 17.1875 
L 47.609375 0 
L 37.796875 0 
L 37.796875 17.1875 
L 4.890625 17.1875 
L 4.890625 26.703125 
z
" id="DejaVuSans-34"/>
      </defs>
      <g transform="translate(872.166776 1296.198437)scale(0.1 -0.1)">
       <use xlink:href="#DejaVuSans-34"/>
       <use x="63.623047" xlink:href="#DejaVuSans-30"/>
       <use x="127.246094" xlink:href="#DejaVuSans-30"/>
      </g>
     </g>
    </g>
    <g id="xtick_4">
     <g id="line2d_7">
      <path clip-path="url(#p222a288111)" d="M 1178.361244 1281.6 
L 1178.361244 172.8 
" style="fill:none;stroke:#b0b0b0;stroke-linecap:square;stroke-width:0.8;"/>
     </g>
     <g id="line2d_8">
      <g>
       <use style="stroke:#000000;stroke-width:0.8;" x="1178.361244" xlink:href="#mf51097f7e2" y="1281.6"/>
      </g>
     </g>
     <g id="text_4">
      <!-- 600 -->
      <defs>
       <path d="M 33.015625 40.375 
Q 26.375 40.375 22.484375 35.828125 
Q 18.609375 31.296875 18.609375 23.390625 
Q 18.609375 15.53125 22.484375 10.953125 
Q 26.375 6.390625 33.015625 6.390625 
Q 39.65625 6.390625 43.53125 10.953125 
Q 47.40625 15.53125 47.40625 23.390625 
Q 47.40625 31.296875 43.53125 35.828125 
Q 39.65625 40.375 33.015625 40.375 
z
M 52.59375 71.296875 
L 52.59375 62.3125 
Q 48.875 64.0625 45.09375 64.984375 
Q 41.3125 65.921875 37.59375 65.921875 
Q 27.828125 65.921875 22.671875 59.328125 
Q 17.53125 52.734375 16.796875 39.40625 
Q 19.671875 43.65625 24.015625 45.921875 
Q 28.375 48.1875 33.59375 48.1875 
Q 44.578125 48.1875 50.953125 41.515625 
Q 57.328125 34.859375 57.328125 23.390625 
Q 57.328125 12.15625 50.6875 5.359375 
Q 44.046875 -1.421875 33.015625 -1.421875 
Q 20.359375 -1.421875 13.671875 8.265625 
Q 6.984375 17.96875 6.984375 36.375 
Q 6.984375 53.65625 15.1875 63.9375 
Q 23.390625 74.21875 37.203125 74.21875 
Q 40.921875 74.21875 44.703125 73.484375 
Q 48.484375 72.75 52.59375 71.296875 
z
" id="DejaVuSans-36"/>
      </defs>
      <g transform="translate(1168.817494 1296.198437)scale(0.1 -0.1)">
       <use xlink:href="#DejaVuSans-36"/>
       <use x="63.623047" xlink:href="#DejaVuSans-30"/>
       <use x="127.246094" xlink:href="#DejaVuSans-30"/>
      </g>
     </g>
    </g>
    <g id="xtick_5">
     <g id="line2d_9">
      <path clip-path="url(#p222a288111)" d="M 1475.011962 1281.6 
L 1475.011962 172.8 
" style="fill:none;stroke:#b0b0b0;stroke-linecap:square;stroke-width:0.8;"/>
     </g>
     <g id="line2d_10">
      <g>
       <use style="stroke:#000000;stroke-width:0.8;" x="1475.011962" xlink:href="#mf51097f7e2" y="1281.6"/>
      </g>
     </g>
     <g id="text_5">
      <!-- 800 -->
      <defs>
       <path d="M 31.78125 34.625 
Q 24.75 34.625 20.71875 30.859375 
Q 16.703125 27.09375 16.703125 20.515625 
Q 16.703125 13.921875 20.71875 10.15625 
Q 24.75 6.390625 31.78125 6.390625 
Q 38.8125 6.390625 42.859375 10.171875 
Q 46.921875 13.96875 46.921875 20.515625 
Q 46.921875 27.09375 42.890625 30.859375 
Q 38.875 34.625 31.78125 34.625 
z
M 21.921875 38.8125 
Q 15.578125 40.375 12.03125 44.71875 
Q 8.5 49.078125 8.5 55.328125 
Q 8.5 64.0625 14.71875 69.140625 
Q 20.953125 74.21875 31.78125 74.21875 
Q 42.671875 74.21875 48.875 69.140625 
Q 55.078125 64.0625 55.078125 55.328125 
Q 55.078125 49.078125 51.53125 44.71875 
Q 48 40.375 41.703125 38.8125 
Q 48.828125 37.15625 52.796875 32.3125 
Q 56.78125 27.484375 56.78125 20.515625 
Q 56.78125 9.90625 50.3125 4.234375 
Q 43.84375 -1.421875 31.78125 -1.421875 
Q 19.734375 -1.421875 13.25 4.234375 
Q 6.78125 9.90625 6.78125 20.515625 
Q 6.78125 27.484375 10.78125 32.3125 
Q 14.796875 37.15625 21.921875 38.8125 
z
M 18.3125 54.390625 
Q 18.3125 48.734375 21.84375 45.5625 
Q 25.390625 42.390625 31.78125 42.390625 
Q 38.140625 42.390625 41.71875 45.5625 
Q 45.3125 48.734375 45.3125 54.390625 
Q 45.3125 60.0625 41.71875 63.234375 
Q 38.140625 66.40625 31.78125 66.40625 
Q 25.390625 66.40625 21.84375 63.234375 
Q 18.3125 60.0625 18.3125 54.390625 
z
" id="DejaVuSans-38"/>
      </defs>
      <g transform="translate(1465.468212 1296.198437)scale(0.1 -0.1)">
       <use xlink:href="#DejaVuSans-38"/>
       <use x="63.623047" xlink:href="#DejaVuSans-30"/>
       <use x="127.246094" xlink:href="#DejaVuSans-30"/>
      </g>
     </g>
    </g>
   </g>
   <g id="matplotlib.axis_2">
    <g id="ytick_1">
     <g id="line2d_11">
      <path clip-path="url(#p222a288111)" d="M 225 1281.6 
L 1620 1281.6 
" style="fill:none;stroke:#b0b0b0;stroke-linecap:square;stroke-width:0.8;"/>
     </g>
     <g id="line2d_12">
      <defs>
       <path d="M 0 0 
L -3.5 0 
" id="md4b11644b3" style="stroke:#000000;stroke-width:0.8;"/>
      </defs>
      <g>
       <use style="stroke:#000000;stroke-width:0.8;" x="225" xlink:href="#md4b11644b3" y="1281.6"/>
      </g>
     </g>
     <g id="text_6">
      <!-- −0.02661 -->
      <defs>
       <path d="M 10.59375 35.5 
L 73.1875 35.5 
L 73.1875 27.203125 
L 10.59375 27.203125 
z
" id="DejaVuSans-2212"/>
       <path d="M 10.6875 12.40625 
L 21 12.40625 
L 21 0 
L 10.6875 0 
z
" id="DejaVuSans-2e"/>
       <path d="M 12.40625 8.296875 
L 28.515625 8.296875 
L 28.515625 63.921875 
L 10.984375 60.40625 
L 10.984375 69.390625 
L 28.421875 72.90625 
L 38.28125 72.90625 
L 38.28125 8.296875 
L 54.390625 8.296875 
L 54.390625 0 
L 12.40625 0 
z
" id="DejaVuSans-31"/>
      </defs>
      <g transform="translate(168.267188 1285.399219)scale(0.1 -0.1)">
       <use xlink:href="#DejaVuSans-2212"/>
       <use x="83.789062" xlink:href="#DejaVuSans-30"/>
       <use x="147.412109" xlink:href="#DejaVuSans-2e"/>
       <use x="179.199219" xlink:href="#DejaVuSans-30"/>
       <use x="242.822266" xlink:href="#DejaVuSans-32"/>
       <use x="306.445312" xlink:href="#DejaVuSans-36"/>
       <use x="370.068359" xlink:href="#DejaVuSans-36"/>
       <use x="433.691406" xlink:href="#DejaVuSans-31"/>
      </g>
     </g>
    </g>
    <g id="ytick_2">
     <g id="line2d_13">
      <path clip-path="url(#p222a288111)" d="M 225 1155.71372 
L 1620 1155.71372 
" style="fill:none;stroke:#b0b0b0;stroke-linecap:square;stroke-width:0.8;"/>
     </g>
     <g id="line2d_14">
      <g>
       <use style="stroke:#000000;stroke-width:0.8;" x="225" xlink:href="#md4b11644b3" y="1155.71372"/>
      </g>
     </g>
     <g id="text_7">
      <!-- −0.01661 -->
      <g transform="translate(168.267188 1159.512938)scale(0.1 -0.1)">
       <use xlink:href="#DejaVuSans-2212"/>
       <use x="83.789062" xlink:href="#DejaVuSans-30"/>
       <use x="147.412109" xlink:href="#DejaVuSans-2e"/>
       <use x="179.199219" xlink:href="#DejaVuSans-30"/>
       <use x="242.822266" xlink:href="#DejaVuSans-31"/>
       <use x="306.445312" xlink:href="#DejaVuSans-36"/>
       <use x="370.068359" xlink:href="#DejaVuSans-36"/>
       <use x="433.691406" xlink:href="#DejaVuSans-31"/>
      </g>
     </g>
    </g>
    <g id="ytick_3">
     <g id="line2d_15">
      <path clip-path="url(#p222a288111)" d="M 225 1029.827439 
L 1620 1029.827439 
" style="fill:none;stroke:#b0b0b0;stroke-linecap:square;stroke-width:0.8;"/>
     </g>
     <g id="line2d_16">
      <g>
       <use style="stroke:#000000;stroke-width:0.8;" x="225" xlink:href="#md4b11644b3" y="1029.827439"/>
      </g>
     </g>
     <g id="text_8">
      <!-- −0.00661 -->
      <g transform="translate(168.267188 1033.626658)scale(0.1 -0.1)">
       <use xlink:href="#DejaVuSans-2212"/>
       <use x="83.789062" xlink:href="#DejaVuSans-30"/>
       <use x="147.412109" xlink:href="#DejaVuSans-2e"/>
       <use x="179.199219" xlink:href="#DejaVuSans-30"/>
       <use x="242.822266" xlink:href="#DejaVuSans-30"/>
       <use x="306.445312" xlink:href="#DejaVuSans-36"/>
       <use x="370.068359" xlink:href="#DejaVuSans-36"/>
       <use x="433.691406" xlink:href="#DejaVuSans-31"/>
      </g>
     </g>
    </g>
    <g id="ytick_4">
     <g id="line2d_17">
      <path clip-path="url(#p222a288111)" d="M 225 903.941159 
L 1620 903.941159 
" style="fill:none;stroke:#b0b0b0;stroke-linecap:square;stroke-width:0.8;"/>
     </g>
     <g id="line2d_18">
      <g>
       <use style="stroke:#000000;stroke-width:0.8;" x="225" xlink:href="#md4b11644b3" y="903.941159"/>
      </g>
     </g>
     <g id="text_9">
      <!-- 0.00339 -->
      <defs>
       <path d="M 40.578125 39.3125 
Q 47.65625 37.796875 51.625 33 
Q 55.609375 28.21875 55.609375 21.1875 
Q 55.609375 10.40625 48.1875 4.484375 
Q 40.765625 -1.421875 27.09375 -1.421875 
Q 22.515625 -1.421875 17.65625 -0.515625 
Q 12.796875 0.390625 7.625 2.203125 
L 7.625 11.71875 
Q 11.71875 9.328125 16.59375 8.109375 
Q 21.484375 6.890625 26.8125 6.890625 
Q 36.078125 6.890625 40.9375 10.546875 
Q 45.796875 14.203125 45.796875 21.1875 
Q 45.796875 27.640625 41.28125 31.265625 
Q 36.765625 34.90625 28.71875 34.90625 
L 20.21875 34.90625 
L 20.21875 43.015625 
L 29.109375 43.015625 
Q 36.375 43.015625 40.234375 45.921875 
Q 44.09375 48.828125 44.09375 54.296875 
Q 44.09375 59.90625 40.109375 62.90625 
Q 36.140625 65.921875 28.71875 65.921875 
Q 24.65625 65.921875 20.015625 65.03125 
Q 15.375 64.15625 9.8125 62.3125 
L 9.8125 71.09375 
Q 15.4375 72.65625 20.34375 73.4375 
Q 25.25 74.21875 29.59375 74.21875 
Q 40.828125 74.21875 47.359375 69.109375 
Q 53.90625 64.015625 53.90625 55.328125 
Q 53.90625 49.265625 50.4375 45.09375 
Q 46.96875 40.921875 40.578125 39.3125 
z
" id="DejaVuSans-33"/>
       <path d="M 10.984375 1.515625 
L 10.984375 10.5 
Q 14.703125 8.734375 18.5 7.8125 
Q 22.3125 6.890625 25.984375 6.890625 
Q 35.75 6.890625 40.890625 13.453125 
Q 46.046875 20.015625 46.78125 33.40625 
Q 43.953125 29.203125 39.59375 26.953125 
Q 35.25 24.703125 29.984375 24.703125 
Q 19.046875 24.703125 12.671875 31.3125 
Q 6.296875 37.9375 6.296875 49.421875 
Q 6.296875 60.640625 12.9375 67.421875 
Q 19.578125 74.21875 30.609375 74.21875 
Q 43.265625 74.21875 49.921875 64.515625 
Q 56.59375 54.828125 56.59375 36.375 
Q 56.59375 19.140625 48.40625 8.859375 
Q 40.234375 -1.421875 26.421875 -1.421875 
Q 22.703125 -1.421875 18.890625 -0.6875 
Q 15.09375 0.046875 10.984375 1.515625 
z
M 30.609375 32.421875 
Q 37.25 32.421875 41.125 36.953125 
Q 45.015625 41.5 45.015625 49.421875 
Q 45.015625 57.28125 41.125 61.84375 
Q 37.25 66.40625 30.609375 66.40625 
Q 23.96875 66.40625 20.09375 61.84375 
Q 16.21875 57.28125 16.21875 49.421875 
Q 16.21875 41.5 20.09375 36.953125 
Q 23.96875 32.421875 30.609375 32.421875 
z
" id="DejaVuSans-39"/>
      </defs>
      <g transform="translate(176.646875 907.740377)scale(0.1 -0.1)">
       <use xlink:href="#DejaVuSans-30"/>
       <use x="63.623047" xlink:href="#DejaVuSans-2e"/>
       <use x="95.410156" xlink:href="#DejaVuSans-30"/>
       <use x="159.033203" xlink:href="#DejaVuSans-30"/>
       <use x="222.65625" xlink:href="#DejaVuSans-33"/>
       <use x="286.279297" xlink:href="#DejaVuSans-33"/>
       <use x="349.902344" xlink:href="#DejaVuSans-39"/>
      </g>
     </g>
    </g>
    <g id="ytick_5">
     <g id="line2d_19">
      <path clip-path="url(#p222a288111)" d="M 225 778.054878 
L 1620 778.054878 
" style="fill:none;stroke:#b0b0b0;stroke-linecap:square;stroke-width:0.8;"/>
     </g>
     <g id="line2d_20">
      <g>
       <use style="stroke:#000000;stroke-width:0.8;" x="225" xlink:href="#md4b11644b3" y="778.054878"/>
      </g>
     </g>
     <g id="text_10">
      <!-- 0.01339 -->
      <g transform="translate(176.646875 781.854097)scale(0.1 -0.1)">
       <use xlink:href="#DejaVuSans-30"/>
       <use x="63.623047" xlink:href="#DejaVuSans-2e"/>
       <use x="95.410156" xlink:href="#DejaVuSans-30"/>
       <use x="159.033203" xlink:href="#DejaVuSans-31"/>
       <use x="222.65625" xlink:href="#DejaVuSans-33"/>
       <use x="286.279297" xlink:href="#DejaVuSans-33"/>
       <use x="349.902344" xlink:href="#DejaVuSans-39"/>
      </g>
     </g>
    </g>
    <g id="ytick_6">
     <g id="line2d_21">
      <path clip-path="url(#p222a288111)" d="M 225 652.168598 
L 1620 652.168598 
" style="fill:none;stroke:#b0b0b0;stroke-linecap:square;stroke-width:0.8;"/>
     </g>
     <g id="line2d_22">
      <g>
       <use style="stroke:#000000;stroke-width:0.8;" x="225" xlink:href="#md4b11644b3" y="652.168598"/>
      </g>
     </g>
     <g id="text_11">
      <!-- 0.02339 -->
      <g transform="translate(176.646875 655.967817)scale(0.1 -0.1)">
       <use xlink:href="#DejaVuSans-30"/>
       <use x="63.623047" xlink:href="#DejaVuSans-2e"/>
       <use x="95.410156" xlink:href="#DejaVuSans-30"/>
       <use x="159.033203" xlink:href="#DejaVuSans-32"/>
       <use x="222.65625" xlink:href="#DejaVuSans-33"/>
       <use x="286.279297" xlink:href="#DejaVuSans-33"/>
       <use x="349.902344" xlink:href="#DejaVuSans-39"/>
      </g>
     </g>
    </g>
    <g id="ytick_7">
     <g id="line2d_23">
      <path clip-path="url(#p222a288111)" d="M 225 526.282317 
L 1620 526.282317 
" style="fill:none;stroke:#b0b0b0;stroke-linecap:square;stroke-width:0.8;"/>
     </g>
     <g id="line2d_24">
      <g>
       <use style="stroke:#000000;stroke-width:0.8;" x="225" xlink:href="#md4b11644b3" y="526.282317"/>
      </g>
     </g>
     <g id="text_12">
      <!-- 0.03339 -->
      <g transform="translate(176.646875 530.081536)scale(0.1 -0.1)">
       <use xlink:href="#DejaVuSans-30"/>
       <use x="63.623047" xlink:href="#DejaVuSans-2e"/>
       <use x="95.410156" xlink:href="#DejaVuSans-30"/>
       <use x="159.033203" xlink:href="#DejaVuSans-33"/>
       <use x="222.65625" xlink:href="#DejaVuSans-33"/>
       <use x="286.279297" xlink:href="#DejaVuSans-33"/>
       <use x="349.902344" xlink:href="#DejaVuSans-39"/>
      </g>
     </g>
    </g>
    <g id="ytick_8">
     <g id="line2d_25">
      <path clip-path="url(#p222a288111)" d="M 225 400.396037 
L 1620 400.396037 
" style="fill:none;stroke:#b0b0b0;stroke-linecap:square;stroke-width:0.8;"/>
     </g>
     <g id="line2d_26">
      <g>
       <use style="stroke:#000000;stroke-width:0.8;" x="225" xlink:href="#md4b11644b3" y="400.396037"/>
      </g>
     </g>
     <g id="text_13">
      <!-- 0.04339 -->
      <g transform="translate(176.646875 404.195256)scale(0.1 -0.1)">
       <use xlink:href="#DejaVuSans-30"/>
       <use x="63.623047" xlink:href="#DejaVuSans-2e"/>
       <use x="95.410156" xlink:href="#DejaVuSans-30"/>
       <use x="159.033203" xlink:href="#DejaVuSans-34"/>
       <use x="222.65625" xlink:href="#DejaVuSans-33"/>
       <use x="286.279297" xlink:href="#DejaVuSans-33"/>
       <use x="349.902344" xlink:href="#DejaVuSans-39"/>
      </g>
     </g>
    </g>
    <g id="ytick_9">
     <g id="line2d_27">
      <path clip-path="url(#p222a288111)" d="M 225 274.509757 
L 1620 274.509757 
" style="fill:none;stroke:#b0b0b0;stroke-linecap:square;stroke-width:0.8;"/>
     </g>
     <g id="line2d_28">
      <g>
       <use style="stroke:#000000;stroke-width:0.8;" x="225" xlink:href="#md4b11644b3" y="274.509757"/>
      </g>
     </g>
     <g id="text_14">
      <!-- 0.05339 -->
      <defs>
       <path d="M 10.796875 72.90625 
L 49.515625 72.90625 
L 49.515625 64.59375 
L 19.828125 64.59375 
L 19.828125 46.734375 
Q 21.96875 47.46875 24.109375 47.828125 
Q 26.265625 48.1875 28.421875 48.1875 
Q 40.625 48.1875 47.75 41.5 
Q 54.890625 34.8125 54.890625 23.390625 
Q 54.890625 11.625 47.5625 5.09375 
Q 40.234375 -1.421875 26.90625 -1.421875 
Q 22.3125 -1.421875 17.546875 -0.640625 
Q 12.796875 0.140625 7.71875 1.703125 
L 7.71875 11.625 
Q 12.109375 9.234375 16.796875 8.0625 
Q 21.484375 6.890625 26.703125 6.890625 
Q 35.15625 6.890625 40.078125 11.328125 
Q 45.015625 15.765625 45.015625 23.390625 
Q 45.015625 31 40.078125 35.4375 
Q 35.15625 39.890625 26.703125 39.890625 
Q 22.75 39.890625 18.8125 39.015625 
Q 14.890625 38.140625 10.796875 36.28125 
z
" id="DejaVuSans-35"/>
      </defs>
      <g transform="translate(176.646875 278.308975)scale(0.1 -0.1)">
       <use xlink:href="#DejaVuSans-30"/>
       <use x="63.623047" xlink:href="#DejaVuSans-2e"/>
       <use x="95.410156" xlink:href="#DejaVuSans-30"/>
       <use x="159.033203" xlink:href="#DejaVuSans-35"/>
       <use x="222.65625" xlink:href="#DejaVuSans-33"/>
       <use x="286.279297" xlink:href="#DejaVuSans-33"/>
       <use x="349.902344" xlink:href="#DejaVuSans-39"/>
      </g>
     </g>
    </g>
   </g>
   <g id="patch_3">
    <path clip-path="url(#p222a288111)" d="M 288.409091 1281.6 
L 1558.074163 1281.6 
L 1558.074163 172.8 
L 288.409091 172.8 
z
" style="opacity:0.3;"/>
   </g>
   <g id="line2d_29">
    <path clip-path="url(#p222a288111)" d="M 288.409091 870.317466 
L 289.892344 812.000305 
L 291.375598 812.000305 
L 292.858852 849.323537 
L 294.342105 849.323537 
L 295.825359 879.49098 
L 297.308612 879.49098 
L 298.791866 854.491783 
L 300.27512 945.600055 
L 301.758373 945.600055 
L 303.241627 974.617728 
L 304.72488 974.617728 
L 306.208134 808.438781 
L 307.691388 808.438781 
L 309.174641 795.162643 
L 310.657895 795.162643 
L 312.141148 902.885748 
L 313.624402 902.885748 
L 315.107656 825.969776 
L 316.590909 825.969776 
L 318.074163 833.990491 
L 319.557416 833.990491 
L 321.04067 836.60219 
L 322.523923 836.60219 
L 324.007177 846.309191 
L 325.490431 869.196258 
L 326.973684 869.196258 
L 328.456938 911.059878 
L 329.940191 911.059878 
L 331.423445 906.70396 
L 332.906699 906.70396 
L 334.389952 903.627926 
L 335.873206 903.627926 
L 337.356459 930.44828 
L 338.839713 1001.26393 
L 340.322967 1001.26393 
L 341.80622 1052.190839 
L 343.289474 1052.190839 
L 344.772727 953.099572 
L 346.255981 953.099572 
L 347.739234 966.021666 
L 349.222488 997.81697 
L 350.705742 997.81697 
L 352.188995 1004.563683 
L 353.672249 1004.563683 
L 355.155502 1005.122684 
L 356.638756 1005.122684 
L 358.12201 1008.094246 
L 359.605263 1008.094246 
L 361.088517 939.310042 
L 362.57177 939.310042 
L 364.055024 907.456906 
L 365.538278 907.456906 
L 367.021531 905.91186 
L 368.504785 905.91186 
L 369.988038 900.5807 
L 371.471292 900.5807 
L 372.954545 902.52229 
L 374.437799 902.52229 
L 375.921053 898.053892 
L 377.404306 898.053892 
L 378.88756 911.234387 
L 380.370813 911.234387 
L 381.854067 922.552885 
L 384.820574 922.552885 
L 386.303828 1040.878173 
L 387.787081 1100.339544 
L 389.270335 1100.339544 
L 390.753589 1115.313767 
L 392.236842 1115.313767 
L 393.720096 1028.769068 
L 395.203349 1028.769068 
L 396.686603 1094.798723 
L 398.169856 1094.798723 
L 399.65311 1017.597631 
L 401.136364 1117.714458 
L 402.619617 1117.714458 
L 404.102871 1116.254465 
L 405.586124 1116.254465 
L 407.069378 1051.160759 
L 408.552632 1051.160759 
L 410.035885 1015.217422 
L 411.519139 1015.217422 
L 413.002392 905.454978 
L 414.485646 905.454978 
L 415.9689 887.829917 
L 417.452153 887.829917 
L 418.935407 876.669835 
L 420.41866 876.669835 
L 421.901914 846.40764 
L 423.385167 846.40764 
L 424.868421 974.491375 
L 426.351675 974.491375 
L 427.834928 918.530022 
L 429.318182 918.530022 
L 430.801435 959.649458 
L 432.284689 959.649458 
L 433.767943 922.390323 
L 435.251196 922.390323 
L 436.73445 970.081325 
L 438.217703 970.081325 
L 439.700957 996.280931 
L 441.184211 976.651539 
L 442.667464 976.651539 
L 444.150718 911.324082 
L 445.633971 911.324082 
L 447.117225 963.969206 
L 448.600478 963.969206 
L 450.083732 917.238894 
L 451.566986 928.462766 
L 453.050239 928.462766 
L 454.533493 799.400226 
L 456.016746 799.400226 
L 457.5 864.569721 
L 458.983254 864.569721 
L 460.466507 837.888406 
L 461.949761 813.813142 
L 463.433014 813.813142 
L 464.916268 845.054544 
L 466.399522 845.054544 
L 467.882775 907.043096 
L 469.366029 907.043096 
L 470.849282 947.341094 
L 472.332536 947.341094 
L 473.815789 839.042014 
L 475.299043 839.042014 
L 476.782297 1046.673565 
L 478.26555 1046.673565 
L 479.748804 958.683212 
L 481.232057 1016.418599 
L 482.715311 1016.418599 
L 484.198565 1123.362025 
L 487.165072 1123.362025 
L 488.648325 1024.388839 
L 490.131579 1055.611776 
L 491.614833 1055.611776 
L 493.098086 1045.502981 
L 494.58134 1045.502981 
L 496.064593 1091.578802 
L 497.547847 1091.578802 
L 499.0311 1034.749408 
L 500.514354 1034.749408 
L 501.997608 1120.281488 
L 503.480861 1120.281488 
L 504.964115 967.095426 
L 506.447368 967.095426 
L 507.930622 987.694888 
L 509.413876 1010.354792 
L 510.897129 1010.354792 
L 512.380383 917.502352 
L 513.863636 917.502352 
L 515.34689 899.449999 
L 516.830144 899.449999 
L 518.313397 960.415387 
L 519.796651 960.415387 
L 521.279904 923.995329 
L 522.763158 923.995329 
L 524.246411 1026.300104 
L 525.729665 960.364224 
L 527.212919 960.364224 
L 528.696172 970.140719 
L 530.179426 970.140719 
L 531.662679 1011.886049 
L 533.145933 1011.886049 
L 534.629187 978.5499 
L 536.11244 997.940264 
L 537.595694 997.940264 
L 539.078947 975.154571 
L 540.562201 975.154571 
L 542.045455 1055.201524 
L 543.528708 1055.201524 
L 545.011962 1066.040604 
L 546.495215 1066.040604 
L 547.978469 1070.155156 
L 549.461722 1070.155156 
L 550.944976 937.069909 
L 552.42823 937.069909 
L 553.911483 1050.403396 
L 555.394737 1050.403396 
L 556.87799 977.185265 
L 558.361244 977.185265 
L 559.844498 973.061915 
L 561.327751 973.061915 
L 562.811005 1035.296697 
L 564.294258 1035.296697 
L 565.777512 907.787515 
L 567.260766 907.787515 
L 568.744019 944.87391 
L 570.227273 944.87391 
L 571.710526 1014.83822 
L 573.19378 1014.83822 
L 574.677033 911.689353 
L 576.160287 911.689353 
L 577.643541 1038.17784 
L 579.126794 1038.17784 
L 580.610048 1161.521322 
L 582.093301 1161.521322 
L 583.576555 1110.369264 
L 585.059809 1110.369264 
L 586.543062 1079.983668 
L 588.026316 1079.983668 
L 589.509569 998.015499 
L 590.992823 998.015499 
L 592.476077 1004.621444 
L 593.95933 1004.621444 
L 595.442584 1060.078042 
L 596.925837 1036.486218 
L 598.409091 1036.486218 
L 599.892344 1068.365952 
L 601.375598 1068.365952 
L 602.858852 972.877827 
L 604.342105 972.877827 
L 605.825359 947.020753 
L 607.308612 947.020753 
L 608.791866 926.216242 
L 610.27512 926.216242 
L 611.758373 860.068796 
L 613.241627 947.861586 
L 614.72488 947.861586 
L 616.208134 1085.024367 
L 617.691388 1085.024367 
L 619.174641 1121.799304 
L 620.657895 1121.799304 
L 622.141148 1040.326275 
L 623.624402 985.168898 
L 625.107656 985.168898 
L 626.590909 1041.832099 
L 628.074163 1041.832099 
L 629.557416 1003.93282 
L 631.04067 1003.93282 
L 632.523923 1008.210211 
L 634.007177 1008.210211 
L 635.490431 857.216858 
L 636.973684 857.216858 
L 638.456938 781.351285 
L 639.940191 781.351285 
L 641.423445 801.497648 
L 642.906699 801.497648 
L 644.389952 800.837771 
L 645.873206 800.837771 
L 647.356459 832.988984 
L 648.839713 832.988984 
L 650.322967 823.995176 
L 651.80622 872.827136 
L 653.289474 872.827136 
L 654.772727 888.040648 
L 657.739234 888.040648 
L 659.222488 857.361424 
L 660.705742 857.361424 
L 662.188995 826.559151 
L 663.672249 800.331315 
L 665.155502 800.331315 
L 666.638756 746.092573 
L 668.12201 746.092573 
L 669.605263 665.823778 
L 671.088517 665.823778 
L 672.57177 565.405856 
L 674.055024 454.8218 
L 675.538278 454.8218 
L 677.021531 488.195405 
L 678.504785 488.195405 
L 679.988038 488.644548 
L 681.471292 488.644548 
L 682.954545 365.078471 
L 684.437799 332.676532 
L 685.921053 332.676532 
L 687.404306 297.85004 
L 688.88756 297.85004 
L 690.370813 248.840338 
L 691.854067 248.840338 
L 693.337321 230.57943 
L 694.820574 230.57943 
L 696.303828 422.283639 
L 697.787081 223.2 
L 699.270335 223.2 
L 700.753589 301.689965 
L 702.236842 301.689965 
L 703.720096 286.526325 
L 705.203349 286.526325 
L 706.686603 310.207707 
L 708.169856 384.398434 
L 709.65311 384.398434 
L 711.136364 421.556991 
L 712.619617 421.556991 
L 714.102871 413.241271 
L 715.586124 413.241271 
L 717.069378 477.27695 
L 718.552632 477.27695 
L 720.035885 580.288436 
L 721.519139 619.776703 
L 723.002392 619.776703 
L 724.485646 616.927036 
L 725.9689 616.927036 
L 727.452153 617.068505 
L 728.935407 617.068505 
L 730.41866 687.452953 
L 731.901914 687.452953 
L 733.385167 717.609453 
L 734.868421 713.963816 
L 736.351675 713.963816 
L 737.834928 655.777334 
L 739.318182 655.777334 
L 740.801435 636.838751 
L 742.284689 636.838751 
L 743.767943 736.705502 
L 745.251196 736.705502 
L 746.73445 669.687976 
L 748.217703 694.387676 
L 749.700957 694.387676 
L 751.184211 692.390978 
L 752.667464 692.390978 
L 754.150718 838.256099 
L 755.633971 838.256099 
L 757.117225 803.940822 
L 758.600478 803.940822 
L 760.083732 812.916314 
L 761.566986 827.354554 
L 763.050239 827.354554 
L 764.533493 879.406549 
L 766.016746 879.406549 
L 767.5 933.821706 
L 768.983254 933.821706 
L 770.466507 927.132489 
L 771.949761 927.132489 
L 773.433014 933.703019 
L 774.916268 933.703019 
L 776.399522 854.501961 
L 777.882775 854.501961 
L 779.366029 868.357686 
L 780.849282 789.894822 
L 782.332536 789.894822 
L 783.815789 837.915364 
L 785.299043 837.915364 
L 786.782297 842.216587 
L 788.26555 842.216587 
L 789.748804 896.618518 
L 791.232057 896.618518 
L 792.715311 849.063205 
L 794.198565 827.2799 
L 795.681818 827.2799 
L 797.165072 851.475165 
L 798.648325 968.249487 
L 800.131579 968.249487 
L 801.614833 885.636037 
L 803.098086 885.636037 
L 804.58134 994.065192 
L 806.064593 994.065192 
L 807.547847 883.843835 
L 809.0311 883.843835 
L 810.514354 895.280082 
L 811.997608 895.280082 
L 813.480861 869.512235 
L 817.930622 869.586025 
L 819.413876 921.489001 
L 820.897129 921.489001 
L 822.380383 752.594676 
L 823.863636 752.594676 
L 825.34689 926.153691 
L 826.830144 926.153691 
L 828.313397 1094.876307 
L 829.796651 1027.611902 
L 831.279904 1027.611902 
L 832.763158 1062.533614 
L 834.246411 1062.533614 
L 835.729665 1152.894955 
L 837.212919 1152.894955 
L 838.696172 942.62964 
L 840.179426 942.62964 
L 841.662679 1076.949171 
L 843.145933 1064.230634 
L 844.629187 1064.230634 
L 846.11244 891.774957 
L 847.595694 891.774957 
L 849.078947 945.942792 
L 850.562201 945.942792 
L 852.045455 981.010157 
L 853.528708 1019.607238 
L 855.011962 923.617867 
L 856.495215 923.617867 
L 857.978469 937.4739 
L 859.461722 937.4739 
L 860.944976 787.055918 
L 862.42823 787.055918 
L 863.911483 897.742594 
L 865.394737 933.622924 
L 866.87799 933.622924 
L 868.361244 954.122511 
L 869.844498 954.122511 
L 871.327751 1040.610383 
L 872.811005 1040.610383 
L 874.294258 928.303961 
L 875.777512 928.303961 
L 877.260766 975.916966 
L 878.744019 1138.062207 
L 880.227273 1138.062207 
L 881.710526 979.119955 
L 883.19378 979.119955 
L 884.677033 912.828118 
L 886.160287 912.828118 
L 887.643541 988.019539 
L 889.126794 987.675155 
L 890.610048 987.675155 
L 892.093301 761.819141 
L 893.576555 761.819141 
L 895.059809 762.050343 
L 896.543062 836.768693 
L 898.026316 836.768693 
L 899.509569 786.902566 
L 900.992823 786.902566 
L 902.476077 903.449302 
L 903.95933 903.449302 
L 905.442584 856.829575 
L 906.925837 856.829575 
L 908.409091 860.504286 
L 909.892344 860.504286 
L 911.375598 883.752956 
L 912.858852 880.371129 
L 914.342105 880.371129 
L 915.825359 845.398231 
L 917.308612 845.398231 
L 918.791866 896.842098 
L 920.27512 896.842098 
L 921.758373 859.031826 
L 923.241627 935.431153 
L 924.72488 935.431153 
L 926.208134 921.731613 
L 927.691388 921.731613 
L 929.174641 990.143401 
L 930.657895 908.516056 
L 932.141148 908.516056 
L 933.624402 859.532174 
L 935.107656 859.532174 
L 936.590909 835.279532 
L 938.074163 835.279532 
L 939.557416 687.46664 
L 941.04067 687.46664 
L 942.523923 973.490918 
L 944.007177 826.445413 
L 945.490431 826.445413 
L 946.973684 866.875346 
L 948.456938 866.875346 
L 949.940191 922.650642 
L 951.423445 922.650642 
L 952.906699 922.864574 
L 954.389952 973.665057 
L 955.873206 973.665057 
L 957.356459 1091.123741 
L 958.839713 1021.341651 
L 960.322967 1021.341651 
L 961.80622 1057.876301 
L 963.289474 1057.876301 
L 964.772727 1092.572532 
L 966.255981 1092.572532 
L 967.739234 1058.310221 
L 969.222488 1013.593277 
L 970.705742 1013.593277 
L 972.188995 1022.496312 
L 973.672249 1022.496312 
L 975.155502 1019.328184 
L 976.638756 1019.328184 
L 978.12201 994.829137 
L 979.605263 994.829137 
L 981.088517 996.935142 
L 982.57177 996.935142 
L 984.055024 988.571589 
L 985.538278 965.20095 
L 987.021531 965.20095 
L 988.504785 843.816635 
L 989.988038 843.816635 
L 991.471292 963.463633 
L 992.954545 963.463633 
L 994.437799 871.377258 
L 995.921053 870.070767 
L 997.404306 870.070767 
L 998.88756 878.571636 
L 1000.370813 878.571636 
L 1001.854067 843.288325 
L 1003.337321 843.288325 
L 1004.820574 1113.87131 
L 1006.303828 886.327865 
L 1007.787081 886.327865 
L 1009.270335 854.351346 
L 1010.753589 854.351346 
L 1012.236842 863.539332 
L 1013.720096 863.539332 
L 1015.203349 869.093591 
L 1016.686603 869.093591 
L 1018.169856 830.024652 
L 1019.65311 1047.590374 
L 1021.136364 1047.590374 
L 1022.619617 1065.634857 
L 1024.102871 1065.634857 
L 1025.586124 1112.622647 
L 1027.069378 1112.622647 
L 1028.552632 939.54982 
L 1030.035885 971.304809 
L 1031.519139 971.304809 
L 1033.002392 988.048957 
L 1034.485646 988.048957 
L 1035.9689 1008.925802 
L 1037.452153 1008.925802 
L 1038.935407 1057.721002 
L 1040.41866 1057.721002 
L 1041.901914 1046.169816 
L 1043.385167 1046.169816 
L 1044.868421 1149.240014 
L 1046.351675 1149.240014 
L 1047.834928 1062.070252 
L 1049.318182 1062.070252 
L 1050.801435 1123.880231 
L 1052.284689 1123.880231 
L 1053.767943 1117.824093 
L 1055.251196 1123.685178 
L 1056.73445 1123.685178 
L 1058.217703 905.477093 
L 1059.700957 905.477093 
L 1061.184211 1077.764236 
L 1062.667464 1077.764236 
L 1064.150718 1107.356107 
L 1065.633971 1151.693643 
L 1067.117225 1151.693643 
L 1068.600478 1183.398752 
L 1070.083732 1183.398752 
L 1071.566986 1193.150523 
L 1073.050239 1193.150523 
L 1074.533493 1127.60503 
L 1076.016746 1165.875761 
L 1077.5 1165.875761 
L 1078.983254 1126.460802 
L 1080.466507 1126.460802 
L 1081.949761 1057.692088 
L 1083.433014 1057.692088 
L 1084.916268 1102.662133 
L 1086.399522 1102.662133 
L 1087.882775 1162.02972 
L 1089.366029 1122.814241 
L 1090.849282 1122.814241 
L 1092.332536 1052.462583 
L 1093.815789 1052.462583 
L 1095.299043 1055.125571 
L 1096.782297 1055.125571 
L 1098.26555 950.839031 
L 1099.748804 950.839031 
L 1101.232057 942.094873 
L 1102.715311 1046.902553 
L 1104.198565 1046.902553 
L 1105.681818 1095.591524 
L 1107.165072 1095.591524 
L 1108.648325 1060.004341 
L 1110.131579 1060.004341 
L 1111.614833 1162.617302 
L 1113.098086 1162.617302 
L 1114.58134 1182.521931 
L 1116.064593 1145.399863 
L 1117.547847 1145.399863 
L 1119.0311 1231.2 
L 1120.514354 1231.2 
L 1121.997608 1205.740348 
L 1123.480861 1205.740348 
L 1124.964115 1160.910637 
L 1126.447368 1225.975847 
L 1127.930622 1225.975847 
L 1129.413876 1173.054594 
L 1130.897129 1173.054594 
L 1132.380383 1037.823322 
L 1133.863636 1037.823322 
L 1135.34689 1121.292665 
L 1136.830144 1121.292665 
L 1138.313397 1054.484325 
L 1139.796651 1054.484325 
L 1141.279904 1048.777536 
L 1142.763158 1048.777536 
L 1144.246411 1013.176298 
L 1145.729665 1013.176298 
L 1147.212919 1172.269034 
L 1148.696172 1172.269034 
L 1150.179426 1047.611661 
L 1151.662679 1074.12999 
L 1153.145933 1074.12999 
L 1154.629187 1176.093119 
L 1156.11244 1176.093119 
L 1157.595694 1121.65263 
L 1159.078947 1121.65263 
L 1160.562201 1105.165404 
L 1162.045455 1105.165404 
L 1163.528708 1079.876358 
L 1165.011962 1079.876358 
L 1166.495215 1086.15867 
L 1167.978469 1086.15867 
L 1169.461722 1094.126922 
L 1170.944976 1094.126922 
L 1172.42823 1037.366544 
L 1173.911483 1037.366544 
L 1175.394737 945.234933 
L 1176.87799 1028.598089 
L 1178.361244 1028.598089 
L 1179.844498 958.37526 
L 1181.327751 958.37526 
L 1182.811005 1143.774618 
L 1184.294258 1143.774618 
L 1185.777512 1034.579369 
L 1187.260766 1034.579369 
L 1188.744019 1069.429187 
L 1190.227273 1069.429187 
L 1191.710526 1073.388468 
L 1193.19378 1156.790761 
L 1194.677033 1156.790761 
L 1196.160287 1179.793891 
L 1197.643541 1179.793891 
L 1199.126794 1162.83609 
L 1200.610048 1162.83609 
L 1202.093301 1218.053052 
L 1203.576555 1115.563517 
L 1205.059809 1115.563517 
L 1206.543062 1155.335608 
L 1208.026316 1155.335608 
L 1209.509569 1162.087819 
L 1210.992823 1162.087819 
L 1212.476077 1153.841285 
L 1213.95933 1153.841285 
L 1215.442584 1113.517403 
L 1218.409091 1113.517403 
L 1219.892344 1050.720555 
L 1221.375598 1050.720555 
L 1222.858852 1036.505643 
L 1224.342105 1036.505643 
L 1225.825359 1019.268517 
L 1227.308612 1019.268517 
L 1228.791866 1114.403434 
L 1230.27512 1114.403434 
L 1231.758373 1104.312982 
L 1233.241627 1102.146381 
L 1234.72488 1102.146381 
L 1236.208134 1020.140561 
L 1237.691388 1020.140561 
L 1239.174641 1131.186211 
L 1240.657895 1131.186211 
L 1242.141148 1203.418808 
L 1243.624402 1203.418808 
L 1245.107656 1120.593704 
L 1246.590909 1117.921471 
L 1248.074163 1117.921471 
L 1249.557416 1059.758378 
L 1251.04067 1059.758378 
L 1252.523923 964.560326 
L 1254.007177 964.560326 
L 1255.490431 896.509851 
L 1256.973684 896.509851 
L 1258.456938 918.314641 
L 1259.940191 918.314641 
L 1261.423445 941.531107 
L 1262.906699 884.304298 
L 1264.389952 884.304298 
L 1265.873206 918.259464 
L 1267.356459 918.259464 
L 1268.839713 948.159289 
L 1270.322967 948.159289 
L 1271.80622 941.031194 
L 1273.289474 941.031194 
L 1274.772727 838.156027 
L 1276.255981 838.156027 
L 1277.739234 844.933729 
L 1279.222488 844.933729 
L 1280.705742 828.687039 
L 1282.188995 802.83881 
L 1283.672249 802.83881 
L 1285.155502 770.48332 
L 1286.638756 770.48332 
L 1288.12201 736.254078 
L 1289.605263 736.254078 
L 1291.088517 829.895361 
L 1292.57177 829.895361 
L 1294.055024 688.071688 
L 1295.538278 688.071688 
L 1297.021531 659.099382 
L 1298.504785 659.099382 
L 1299.988038 600.875415 
L 1301.471292 600.875415 
L 1302.954545 640.149325 
L 1304.437799 640.149325 
L 1305.921053 699.92231 
L 1307.404306 699.92231 
L 1308.88756 775.758489 
L 1310.370813 775.758489 
L 1311.854067 749.532891 
L 1313.337321 749.532891 
L 1314.820574 762.696613 
L 1316.303828 762.696613 
L 1317.787081 718.871659 
L 1319.270335 718.871659 
L 1320.753589 728.343959 
L 1322.236842 728.343959 
L 1323.720096 687.215893 
L 1325.203349 687.215893 
L 1326.686603 757.515872 
L 1328.169856 757.515872 
L 1329.65311 657.092596 
L 1331.136364 657.092596 
L 1332.619617 544.695023 
L 1334.102871 544.695023 
L 1335.586124 590.046537 
L 1337.069378 590.046537 
L 1338.552632 514.71332 
L 1340.035885 531.730531 
L 1341.519139 531.730531 
L 1343.002392 587.765239 
L 1344.485646 587.765239 
L 1345.9689 530.52911 
L 1348.935407 530.52911 
L 1350.41866 521.786107 
L 1351.901914 543.762078 
L 1353.385167 543.762078 
L 1354.868421 571.004392 
L 1356.351675 571.004392 
L 1357.834928 653.349434 
L 1359.318182 653.349434 
L 1360.801435 669.920344 
L 1362.284689 669.920344 
L 1363.767943 696.808734 
L 1365.251196 696.808734 
L 1366.73445 742.0731 
L 1368.217703 742.0731 
L 1369.700957 769.717381 
L 1371.184211 769.717381 
L 1372.667464 770.265795 
L 1374.150718 782.113545 
L 1377.117225 782.113545 
L 1378.600478 727.128136 
L 1380.083732 756.353988 
L 1381.566986 756.353988 
L 1383.050239 761.080433 
L 1384.533493 761.080433 
L 1386.016746 756.541412 
L 1387.5 756.541412 
L 1388.983254 787.982515 
L 1390.466507 787.982515 
L 1391.949761 751.616201 
L 1394.916268 751.616201 
L 1396.399522 772.059205 
L 1397.882775 772.059205 
L 1399.366029 830.793051 
L 1400.849282 817.445556 
L 1402.332536 817.445556 
L 1403.815789 898.716916 
L 1405.299043 898.716916 
L 1406.782297 902.184672 
L 1408.26555 902.184672 
L 1409.748804 862.126993 
L 1411.232057 862.126993 
L 1412.715311 835.557617 
L 1414.198565 790.232816 
L 1415.681818 790.232816 
L 1417.165072 830.639691 
L 1418.648325 830.639691 
L 1420.131579 842.283049 
L 1421.614833 842.283049 
L 1423.098086 805.29048 
L 1424.58134 805.29048 
L 1426.064593 772.41646 
L 1427.547847 772.41646 
L 1429.0311 756.319692 
L 1430.514354 756.319692 
L 1431.997608 795.520834 
L 1433.480861 929.178754 
L 1434.964115 929.178754 
L 1436.447368 865.469031 
L 1437.930622 865.469031 
L 1439.413876 915.834199 
L 1440.897129 915.834199 
L 1442.380383 869.410177 
L 1443.863636 869.410177 
L 1445.34689 863.858014 
L 1446.830144 958.218878 
L 1448.313397 958.218878 
L 1449.796651 887.119671 
L 1451.279904 887.119671 
L 1452.763158 945.374252 
L 1454.246411 945.374252 
L 1455.729665 697.022875 
L 1457.212919 780.580154 
L 1458.696172 780.580154 
L 1460.179426 673.352562 
L 1461.662679 673.352562 
L 1463.145933 669.382779 
L 1464.629187 669.382779 
L 1466.11244 791.93152 
L 1467.595694 791.93152 
L 1469.078947 878.783352 
L 1470.562201 913.541676 
L 1472.045455 913.541676 
L 1473.528708 927.683398 
L 1475.011962 927.683398 
L 1476.495215 953.653592 
L 1477.978469 953.653592 
L 1479.461722 946.584118 
L 1480.944976 946.584118 
L 1482.42823 959.870438 
L 1483.911483 959.870438 
L 1485.394737 897.182221 
L 1486.87799 813.02141 
L 1488.361244 813.02141 
L 1489.844498 844.16212 
L 1491.327751 844.16212 
L 1492.811005 799.293509 
L 1494.294258 799.293509 
L 1495.777512 837.19713 
L 1497.260766 756.168189 
L 1498.744019 756.168189 
L 1500.227273 812.523983 
L 1501.710526 812.523983 
L 1503.19378 840.159578 
L 1504.677033 840.159578 
L 1506.160287 842.232331 
L 1507.643541 842.232331 
L 1509.126794 920.64832 
L 1510.610048 920.64832 
L 1512.093301 887.898623 
L 1513.576555 887.898623 
L 1515.059809 897.742097 
L 1516.543062 897.742097 
L 1518.026316 917.058593 
L 1519.509569 917.058593 
L 1520.992823 842.082148 
L 1522.476077 842.082148 
L 1523.95933 749.818989 
L 1526.925837 749.818989 
L 1528.409091 703.89982 
L 1529.892344 728.099005 
L 1531.375598 728.099005 
L 1532.858852 785.965969 
L 1534.342105 785.965969 
L 1535.825359 842.738454 
L 1537.308612 842.738454 
L 1538.791866 699.625552 
L 1540.27512 699.625552 
L 1541.758373 856.348368 
L 1543.241627 790.27926 
L 1544.72488 790.27926 
L 1546.208134 833.664479 
L 1547.691388 833.664479 
L 1549.174641 831.835325 
L 1550.657895 831.835325 
L 1552.141148 855.818733 
L 1553.624402 855.818733 
L 1555.107656 903.466447 
L 1556.590909 903.466447 
L 1556.590909 903.466447 
" style="fill:none;stroke:#000000;stroke-linecap:square;stroke-width:1.5;"/>
   </g>
   <g id="line2d_30">
    <path clip-path="url(#p222a288111)" d="M 288.409091 946.615901 
L 1556.590909 946.615901 
L 1556.590909 946.615901 
" style="fill:none;stroke:#ff0000;stroke-linecap:square;stroke-width:1.5;"/>
   </g>
   <g id="patch_4">
    <path d="M 225 1281.6 
L 225 172.8 
" style="fill:none;stroke:#000000;stroke-linecap:square;stroke-linejoin:miter;stroke-width:0.8;"/>
   </g>
   <g id="patch_5">
    <path d="M 1620 1281.6 
L 1620 172.8 
" style="fill:none;stroke:#000000;stroke-linecap:square;stroke-linejoin:miter;stroke-width:0.8;"/>
   </g>
   <g id="patch_6">
    <path d="M 225 1281.6 
L 1620 1281.6 
" style="fill:none;stroke:#000000;stroke-linecap:square;stroke-linejoin:miter;stroke-width:0.8;"/>
   </g>
   <g id="patch_7">
    <path d="M 225 172.8 
L 1620 172.8 
" style="fill:none;stroke:#000000;stroke-linecap:square;stroke-linejoin:miter;stroke-width:0.8;"/>
   </g>
   <g id="legend_1">
    <g id="patch_8">
     <path d="M 1504.845313 224.834375 
L 1613 224.834375 
Q 1615 224.834375 1615 222.834375 
L 1615 179.8 
Q 1615 177.8 1613 177.8 
L 1504.845313 177.8 
Q 1502.845313 177.8 1502.845313 179.8 
L 1502.845313 222.834375 
Q 1502.845313 224.834375 1504.845313 224.834375 
z
" style="fill:#ffffff;opacity:0.8;stroke:#cccccc;stroke-linejoin:miter;"/>
    </g>
    <g id="line2d_31">
     <path d="M 1506.845313 185.898438 
L 1526.845313 185.898438 
" style="fill:none;stroke:#000000;stroke-linecap:square;stroke-width:1.5;"/>
    </g>
    <g id="line2d_32"/>
    <g id="text_15">
     <!-- Yaw position -->
     <defs>
      <path d="M -0.203125 72.90625 
L 10.40625 72.90625 
L 30.609375 42.921875 
L 50.6875 72.90625 
L 61.28125 72.90625 
L 35.5 34.71875 
L 35.5 0 
L 25.59375 0 
L 25.59375 34.71875 
z
" id="DejaVuSans-59"/>
      <path d="M 34.28125 27.484375 
Q 23.390625 27.484375 19.1875 25 
Q 14.984375 22.515625 14.984375 16.5 
Q 14.984375 11.71875 18.140625 8.90625 
Q 21.296875 6.109375 26.703125 6.109375 
Q 34.1875 6.109375 38.703125 11.40625 
Q 43.21875 16.703125 43.21875 25.484375 
L 43.21875 27.484375 
z
M 52.203125 31.203125 
L 52.203125 0 
L 43.21875 0 
L 43.21875 8.296875 
Q 40.140625 3.328125 35.546875 0.953125 
Q 30.953125 -1.421875 24.3125 -1.421875 
Q 15.921875 -1.421875 10.953125 3.296875 
Q 6 8.015625 6 15.921875 
Q 6 25.140625 12.171875 29.828125 
Q 18.359375 34.515625 30.609375 34.515625 
L 43.21875 34.515625 
L 43.21875 35.40625 
Q 43.21875 41.609375 39.140625 45 
Q 35.0625 48.390625 27.6875 48.390625 
Q 23 48.390625 18.546875 47.265625 
Q 14.109375 46.140625 10.015625 43.890625 
L 10.015625 52.203125 
Q 14.9375 54.109375 19.578125 55.046875 
Q 24.21875 56 28.609375 56 
Q 40.484375 56 46.34375 49.84375 
Q 52.203125 43.703125 52.203125 31.203125 
z
" id="DejaVuSans-61"/>
      <path d="M 4.203125 54.6875 
L 13.1875 54.6875 
L 24.421875 12.015625 
L 35.59375 54.6875 
L 46.1875 54.6875 
L 57.421875 12.015625 
L 68.609375 54.6875 
L 77.59375 54.6875 
L 63.28125 0 
L 52.6875 0 
L 40.921875 44.828125 
L 29.109375 0 
L 18.5 0 
z
" id="DejaVuSans-77"/>
      <path id="DejaVuSans-20"/>
      <path d="M 18.109375 8.203125 
L 18.109375 -20.796875 
L 9.078125 -20.796875 
L 9.078125 54.6875 
L 18.109375 54.6875 
L 18.109375 46.390625 
Q 20.953125 51.265625 25.265625 53.625 
Q 29.59375 56 35.59375 56 
Q 45.5625 56 51.78125 48.09375 
Q 58.015625 40.1875 58.015625 27.296875 
Q 58.015625 14.40625 51.78125 6.484375 
Q 45.5625 -1.421875 35.59375 -1.421875 
Q 29.59375 -1.421875 25.265625 0.953125 
Q 20.953125 3.328125 18.109375 8.203125 
z
M 48.6875 27.296875 
Q 48.6875 37.203125 44.609375 42.84375 
Q 40.53125 48.484375 33.40625 48.484375 
Q 26.265625 48.484375 22.1875 42.84375 
Q 18.109375 37.203125 18.109375 27.296875 
Q 18.109375 17.390625 22.1875 11.75 
Q 26.265625 6.109375 33.40625 6.109375 
Q 40.53125 6.109375 44.609375 11.75 
Q 48.6875 17.390625 48.6875 27.296875 
z
" id="DejaVuSans-70"/>
      <path d="M 30.609375 48.390625 
Q 23.390625 48.390625 19.1875 42.75 
Q 14.984375 37.109375 14.984375 27.296875 
Q 14.984375 17.484375 19.15625 11.84375 
Q 23.34375 6.203125 30.609375 6.203125 
Q 37.796875 6.203125 41.984375 11.859375 
Q 46.1875 17.53125 46.1875 27.296875 
Q 46.1875 37.015625 41.984375 42.703125 
Q 37.796875 48.390625 30.609375 48.390625 
z
M 30.609375 56 
Q 42.328125 56 49.015625 48.375 
Q 55.71875 40.765625 55.71875 27.296875 
Q 55.71875 13.875 49.015625 6.21875 
Q 42.328125 -1.421875 30.609375 -1.421875 
Q 18.84375 -1.421875 12.171875 6.21875 
Q 5.515625 13.875 5.515625 27.296875 
Q 5.515625 40.765625 12.171875 48.375 
Q 18.84375 56 30.609375 56 
z
" id="DejaVuSans-6f"/>
      <path d="M 44.28125 53.078125 
L 44.28125 44.578125 
Q 40.484375 46.53125 36.375 47.5 
Q 32.28125 48.484375 27.875 48.484375 
Q 21.1875 48.484375 17.84375 46.4375 
Q 14.5 44.390625 14.5 40.28125 
Q 14.5 37.15625 16.890625 35.375 
Q 19.28125 33.59375 26.515625 31.984375 
L 29.59375 31.296875 
Q 39.15625 29.25 43.1875 25.515625 
Q 47.21875 21.78125 47.21875 15.09375 
Q 47.21875 7.46875 41.1875 3.015625 
Q 35.15625 -1.421875 24.609375 -1.421875 
Q 20.21875 -1.421875 15.453125 -0.5625 
Q 10.6875 0.296875 5.421875 2 
L 5.421875 11.28125 
Q 10.40625 8.6875 15.234375 7.390625 
Q 20.0625 6.109375 24.8125 6.109375 
Q 31.15625 6.109375 34.5625 8.28125 
Q 37.984375 10.453125 37.984375 14.40625 
Q 37.984375 18.0625 35.515625 20.015625 
Q 33.0625 21.96875 24.703125 23.78125 
L 21.578125 24.515625 
Q 13.234375 26.265625 9.515625 29.90625 
Q 5.8125 33.546875 5.8125 39.890625 
Q 5.8125 47.609375 11.28125 51.796875 
Q 16.75 56 26.8125 56 
Q 31.78125 56 36.171875 55.265625 
Q 40.578125 54.546875 44.28125 53.078125 
z
" id="DejaVuSans-73"/>
      <path d="M 9.421875 54.6875 
L 18.40625 54.6875 
L 18.40625 0 
L 9.421875 0 
z
M 9.421875 75.984375 
L 18.40625 75.984375 
L 18.40625 64.59375 
L 9.421875 64.59375 
z
" id="DejaVuSans-69"/>
      <path d="M 18.3125 70.21875 
L 18.3125 54.6875 
L 36.8125 54.6875 
L 36.8125 47.703125 
L 18.3125 47.703125 
L 18.3125 18.015625 
Q 18.3125 11.328125 20.140625 9.421875 
Q 21.96875 7.515625 27.59375 7.515625 
L 36.8125 7.515625 
L 36.8125 0 
L 27.59375 0 
Q 17.1875 0 13.234375 3.875 
Q 9.28125 7.765625 9.28125 18.015625 
L 9.28125 47.703125 
L 2.6875 47.703125 
L 2.6875 54.6875 
L 9.28125 54.6875 
L 9.28125 70.21875 
z
" id="DejaVuSans-74"/>
      <path d="M 54.890625 33.015625 
L 54.890625 0 
L 45.90625 0 
L 45.90625 32.71875 
Q 45.90625 40.484375 42.875 44.328125 
Q 39.84375 48.1875 33.796875 48.1875 
Q 26.515625 48.1875 22.3125 43.546875 
Q 18.109375 38.921875 18.109375 30.90625 
L 18.109375 0 
L 9.078125 0 
L 9.078125 54.6875 
L 18.109375 54.6875 
L 18.109375 46.1875 
Q 21.34375 51.125 25.703125 53.5625 
Q 30.078125 56 35.796875 56 
Q 45.21875 56 50.046875 50.171875 
Q 54.890625 44.34375 54.890625 33.015625 
z
" id="DejaVuSans-6e"/>
     </defs>
     <g transform="translate(1534.845313 189.398438)scale(0.1 -0.1)">
      <use xlink:href="#DejaVuSans-59"/>
      <use x="60.880859" xlink:href="#DejaVuSans-61"/>
      <use x="122.160156" xlink:href="#DejaVuSans-77"/>
      <use x="203.947266" xlink:href="#DejaVuSans-20"/>
      <use x="235.734375" xlink:href="#DejaVuSans-70"/>
      <use x="299.210938" xlink:href="#DejaVuSans-6f"/>
      <use x="360.392578" xlink:href="#DejaVuSans-73"/>
      <use x="412.492188" xlink:href="#DejaVuSans-69"/>
      <use x="440.275391" xlink:href="#DejaVuSans-74"/>
      <use x="479.484375" xlink:href="#DejaVuSans-69"/>
      <use x="507.267578" xlink:href="#DejaVuSans-6f"/>
      <use x="568.449219" xlink:href="#DejaVuSans-6e"/>
     </g>
    </g>
    <g id="line2d_33">
     <path d="M 1506.845313 200.576562 
L 1526.845313 200.576562 
" style="fill:none;stroke:#ff0000;stroke-linecap:square;stroke-width:1.5;"/>
    </g>
    <g id="line2d_34"/>
    <g id="text_16">
     <!-- goal -->
     <defs>
      <path d="M 45.40625 27.984375 
Q 45.40625 37.75 41.375 43.109375 
Q 37.359375 48.484375 30.078125 48.484375 
Q 22.859375 48.484375 18.828125 43.109375 
Q 14.796875 37.75 14.796875 27.984375 
Q 14.796875 18.265625 18.828125 12.890625 
Q 22.859375 7.515625 30.078125 7.515625 
Q 37.359375 7.515625 41.375 12.890625 
Q 45.40625 18.265625 45.40625 27.984375 
z
M 54.390625 6.78125 
Q 54.390625 -7.171875 48.1875 -13.984375 
Q 42 -20.796875 29.203125 -20.796875 
Q 24.46875 -20.796875 20.265625 -20.09375 
Q 16.0625 -19.390625 12.109375 -17.921875 
L 12.109375 -9.1875 
Q 16.0625 -11.328125 19.921875 -12.34375 
Q 23.78125 -13.375 27.78125 -13.375 
Q 36.625 -13.375 41.015625 -8.765625 
Q 45.40625 -4.15625 45.40625 5.171875 
L 45.40625 9.625 
Q 42.625 4.78125 38.28125 2.390625 
Q 33.9375 0 27.875 0 
Q 17.828125 0 11.671875 7.65625 
Q 5.515625 15.328125 5.515625 27.984375 
Q 5.515625 40.671875 11.671875 48.328125 
Q 17.828125 56 27.875 56 
Q 33.9375 56 38.28125 53.609375 
Q 42.625 51.21875 45.40625 46.390625 
L 45.40625 54.6875 
L 54.390625 54.6875 
z
" id="DejaVuSans-67"/>
      <path d="M 9.421875 75.984375 
L 18.40625 75.984375 
L 18.40625 0 
L 9.421875 0 
z
" id="DejaVuSans-6c"/>
     </defs>
     <g transform="translate(1534.845313 204.076562)scale(0.1 -0.1)">
      <use xlink:href="#DejaVuSans-67"/>
      <use x="63.476562" xlink:href="#DejaVuSans-6f"/>
      <use x="124.658203" xlink:href="#DejaVuSans-61"/>
      <use x="185.9375" xlink:href="#DejaVuSans-6c"/>
     </g>
    </g>
    <g id="patch_9">
     <path d="M 1506.845313 218.754688 
L 1526.845313 218.754688 
L 1526.845313 211.754688 
L 1506.845313 211.754688 
z
" style="opacity:0.3;"/>
    </g>
    <g id="text_17">
     <!-- +PITCH motion -->
     <defs>
      <path d="M 46 62.703125 
L 46 35.5 
L 73.1875 35.5 
L 73.1875 27.203125 
L 46 27.203125 
L 46 0 
L 37.796875 0 
L 37.796875 27.203125 
L 10.59375 27.203125 
L 10.59375 35.5 
L 37.796875 35.5 
L 37.796875 62.703125 
z
" id="DejaVuSans-2b"/>
      <path d="M 19.671875 64.796875 
L 19.671875 37.40625 
L 32.078125 37.40625 
Q 38.96875 37.40625 42.71875 40.96875 
Q 46.484375 44.53125 46.484375 51.125 
Q 46.484375 57.671875 42.71875 61.234375 
Q 38.96875 64.796875 32.078125 64.796875 
z
M 9.8125 72.90625 
L 32.078125 72.90625 
Q 44.34375 72.90625 50.609375 67.359375 
Q 56.890625 61.8125 56.890625 51.125 
Q 56.890625 40.328125 50.609375 34.8125 
Q 44.34375 29.296875 32.078125 29.296875 
L 19.671875 29.296875 
L 19.671875 0 
L 9.8125 0 
z
" id="DejaVuSans-50"/>
      <path d="M 9.8125 72.90625 
L 19.671875 72.90625 
L 19.671875 0 
L 9.8125 0 
z
" id="DejaVuSans-49"/>
      <path d="M -0.296875 72.90625 
L 61.375 72.90625 
L 61.375 64.59375 
L 35.5 64.59375 
L 35.5 0 
L 25.59375 0 
L 25.59375 64.59375 
L -0.296875 64.59375 
z
" id="DejaVuSans-54"/>
      <path d="M 64.40625 67.28125 
L 64.40625 56.890625 
Q 59.421875 61.53125 53.78125 63.8125 
Q 48.140625 66.109375 41.796875 66.109375 
Q 29.296875 66.109375 22.65625 58.46875 
Q 16.015625 50.828125 16.015625 36.375 
Q 16.015625 21.96875 22.65625 14.328125 
Q 29.296875 6.6875 41.796875 6.6875 
Q 48.140625 6.6875 53.78125 8.984375 
Q 59.421875 11.28125 64.40625 15.921875 
L 64.40625 5.609375 
Q 59.234375 2.09375 53.4375 0.328125 
Q 47.65625 -1.421875 41.21875 -1.421875 
Q 24.65625 -1.421875 15.125 8.703125 
Q 5.609375 18.84375 5.609375 36.375 
Q 5.609375 53.953125 15.125 64.078125 
Q 24.65625 74.21875 41.21875 74.21875 
Q 47.75 74.21875 53.53125 72.484375 
Q 59.328125 70.75 64.40625 67.28125 
z
" id="DejaVuSans-43"/>
      <path d="M 9.8125 72.90625 
L 19.671875 72.90625 
L 19.671875 43.015625 
L 55.515625 43.015625 
L 55.515625 72.90625 
L 65.375 72.90625 
L 65.375 0 
L 55.515625 0 
L 55.515625 34.71875 
L 19.671875 34.71875 
L 19.671875 0 
L 9.8125 0 
z
" id="DejaVuSans-48"/>
      <path d="M 52 44.1875 
Q 55.375 50.25 60.0625 53.125 
Q 64.75 56 71.09375 56 
Q 79.640625 56 84.28125 50.015625 
Q 88.921875 44.046875 88.921875 33.015625 
L 88.921875 0 
L 79.890625 0 
L 79.890625 32.71875 
Q 79.890625 40.578125 77.09375 44.375 
Q 74.3125 48.1875 68.609375 48.1875 
Q 61.625 48.1875 57.5625 43.546875 
Q 53.515625 38.921875 53.515625 30.90625 
L 53.515625 0 
L 44.484375 0 
L 44.484375 32.71875 
Q 44.484375 40.625 41.703125 44.40625 
Q 38.921875 48.1875 33.109375 48.1875 
Q 26.21875 48.1875 22.15625 43.53125 
Q 18.109375 38.875 18.109375 30.90625 
L 18.109375 0 
L 9.078125 0 
L 9.078125 54.6875 
L 18.109375 54.6875 
L 18.109375 46.1875 
Q 21.1875 51.21875 25.484375 53.609375 
Q 29.78125 56 35.6875 56 
Q 41.65625 56 45.828125 52.96875 
Q 50 49.953125 52 44.1875 
z
" id="DejaVuSans-6d"/>
     </defs>
     <g transform="translate(1534.845313 218.754688)scale(0.1 -0.1)">
      <use xlink:href="#DejaVuSans-2b"/>
      <use x="83.789062" xlink:href="#DejaVuSans-50"/>
      <use x="144.091797" xlink:href="#DejaVuSans-49"/>
      <use x="173.583984" xlink:href="#DejaVuSans-54"/>
      <use x="234.589844" xlink:href="#DejaVuSans-43"/>
      <use x="304.414062" xlink:href="#DejaVuSans-48"/>
      <use x="379.609375" xlink:href="#DejaVuSans-20"/>
      <use x="411.396484" xlink:href="#DejaVuSans-6d"/>
      <use x="508.808594" xlink:href="#DejaVuSans-6f"/>
      <use x="569.990234" xlink:href="#DejaVuSans-74"/>
      <use x="609.199219" xlink:href="#DejaVuSans-69"/>
      <use x="636.982422" xlink:href="#DejaVuSans-6f"/>
      <use x="698.164062" xlink:href="#DejaVuSans-6e"/>
     </g>
    </g>
   </g>
  </g>
 </g>
 <defs>
  <clipPath id="p222a288111">
   <rect height="1108.8" width="1395" x="225" y="172.8"/>
  </clipPath>
 </defs>
</svg>
