<?xml version="1.0" encoding="utf-8" standalone="no"?>
<!DOCTYPE svg PUBLIC "-//W3C//DTD SVG 1.1//EN"
  "http://www.w3.org/Graphics/SVG/1.1/DTD/svg11.dtd">
<!-- Created with matplotlib (http://matplotlib.org/) -->
<svg height="1440pt" version="1.1" viewBox="0 0 1800 1440" width="1800pt" xmlns="http://www.w3.org/2000/svg" xmlns:xlink="http://www.w3.org/1999/xlink">
 <defs>
  <style type="text/css">
*{stroke-linecap:butt;stroke-linejoin:round;}
  </style>
 </defs>
 <g id="figure_1">
  <g id="patch_1">
   <path d="M 0 1440 
L 1800 1440 
L 1800 0 
L 0 0 
z
" style="fill:#ffffff;"/>
  </g>
  <g id="axes_1">
   <g id="patch_2">
    <path d="M 225 1281.6 
L 1620 1281.6 
L 1620 172.8 
L 225 172.8 
z
" style="fill:#ffffff;"/>
   </g>
   <g id="matplotlib.axis_1">
    <g id="xtick_1">
     <g id="line2d_1">
      <path clip-path="url(#p6e137c5068)" d="M 288.409091 1281.6 
L 288.409091 172.8 
" style="fill:none;stroke:#b0b0b0;stroke-linecap:square;stroke-width:0.8;"/>
     </g>
     <g id="line2d_2">
      <defs>
       <path d="M 0 0 
L 0 3.5 
" id="mc55114d4af" style="stroke:#000000;stroke-width:0.8;"/>
      </defs>
      <g>
       <use style="stroke:#000000;stroke-width:0.8;" x="288.409091" xlink:href="#mc55114d4af" y="1281.6"/>
      </g>
     </g>
     <g id="text_1">
      <!-- 0 -->
      <defs>
       <path d="M 31.78125 66.40625 
Q 24.171875 66.40625 20.328125 58.90625 
Q 16.5 51.421875 16.5 36.375 
Q 16.5 21.390625 20.328125 13.890625 
Q 24.171875 6.390625 31.78125 6.390625 
Q 39.453125 6.390625 43.28125 13.890625 
Q 47.125 21.390625 47.125 36.375 
Q 47.125 51.421875 43.28125 58.90625 
Q 39.453125 66.40625 31.78125 66.40625 
z
M 31.78125 74.21875 
Q 44.046875 74.21875 50.515625 64.515625 
Q 56.984375 54.828125 56.984375 36.375 
Q 56.984375 17.96875 50.515625 8.265625 
Q 44.046875 -1.421875 31.78125 -1.421875 
Q 19.53125 -1.421875 13.0625 8.265625 
Q 6.59375 17.96875 6.59375 36.375 
Q 6.59375 54.828125 13.0625 64.515625 
Q 19.53125 74.21875 31.78125 74.21875 
z
" id="DejaVuSans-30"/>
      </defs>
      <g transform="translate(285.227841 1296.198437)scale(0.1 -0.1)">
       <use xlink:href="#DejaVuSans-30"/>
      </g>
     </g>
    </g>
    <g id="xtick_2">
     <g id="line2d_3">
      <path clip-path="url(#p6e137c5068)" d="M 585.059809 1281.6 
L 585.059809 172.8 
" style="fill:none;stroke:#b0b0b0;stroke-linecap:square;stroke-width:0.8;"/>
     </g>
     <g id="line2d_4">
      <g>
       <use style="stroke:#000000;stroke-width:0.8;" x="585.059809" xlink:href="#mc55114d4af" y="1281.6"/>
      </g>
     </g>
     <g id="text_2">
      <!-- 200 -->
      <defs>
       <path d="M 19.1875 8.296875 
L 53.609375 8.296875 
L 53.609375 0 
L 7.328125 0 
L 7.328125 8.296875 
Q 12.9375 14.109375 22.625 23.890625 
Q 32.328125 33.6875 34.8125 36.53125 
Q 39.546875 41.84375 41.421875 45.53125 
Q 43.3125 49.21875 43.3125 52.78125 
Q 43.3125 58.59375 39.234375 62.25 
Q 35.15625 65.921875 28.609375 65.921875 
Q 23.96875 65.921875 18.8125 64.3125 
Q 13.671875 62.703125 7.8125 59.421875 
L 7.8125 69.390625 
Q 13.765625 71.78125 18.9375 73 
Q 24.125 74.21875 28.421875 74.21875 
Q 39.75 74.21875 46.484375 68.546875 
Q 53.21875 62.890625 53.21875 53.421875 
Q 53.21875 48.921875 51.53125 44.890625 
Q 49.859375 40.875 45.40625 35.40625 
Q 44.1875 33.984375 37.640625 27.21875 
Q 31.109375 20.453125 19.1875 8.296875 
z
" id="DejaVuSans-32"/>
      </defs>
      <g transform="translate(575.516059 1296.198437)scale(0.1 -0.1)">
       <use xlink:href="#DejaVuSans-32"/>
       <use x="63.623047" xlink:href="#DejaVuSans-30"/>
       <use x="127.246094" xlink:href="#DejaVuSans-30"/>
      </g>
     </g>
    </g>
    <g id="xtick_3">
     <g id="line2d_5">
      <path clip-path="url(#p6e137c5068)" d="M 881.710526 1281.6 
L 881.710526 172.8 
" style="fill:none;stroke:#b0b0b0;stroke-linecap:square;stroke-width:0.8;"/>
     </g>
     <g id="line2d_6">
      <g>
       <use style="stroke:#000000;stroke-width:0.8;" x="881.710526" xlink:href="#mc55114d4af" y="1281.6"/>
      </g>
     </g>
     <g id="text_3">
      <!-- 400 -->
      <defs>
       <path d="M 37.796875 64.3125 
L 12.890625 25.390625 
L 37.796875 25.390625 
z
M 35.203125 72.90625 
L 47.609375 72.90625 
L 47.609375 25.390625 
L 58.015625 25.390625 
L 58.015625 17.1875 
L 47.609375 17.1875 
L 47.609375 0 
L 37.796875 0 
L 37.796875 17.1875 
L 4.890625 17.1875 
L 4.890625 26.703125 
z
" id="DejaVuSans-34"/>
      </defs>
      <g transform="translate(872.166776 1296.198437)scale(0.1 -0.1)">
       <use xlink:href="#DejaVuSans-34"/>
       <use x="63.623047" xlink:href="#DejaVuSans-30"/>
       <use x="127.246094" xlink:href="#DejaVuSans-30"/>
      </g>
     </g>
    </g>
    <g id="xtick_4">
     <g id="line2d_7">
      <path clip-path="url(#p6e137c5068)" d="M 1178.361244 1281.6 
L 1178.361244 172.8 
" style="fill:none;stroke:#b0b0b0;stroke-linecap:square;stroke-width:0.8;"/>
     </g>
     <g id="line2d_8">
      <g>
       <use style="stroke:#000000;stroke-width:0.8;" x="1178.361244" xlink:href="#mc55114d4af" y="1281.6"/>
      </g>
     </g>
     <g id="text_4">
      <!-- 600 -->
      <defs>
       <path d="M 33.015625 40.375 
Q 26.375 40.375 22.484375 35.828125 
Q 18.609375 31.296875 18.609375 23.390625 
Q 18.609375 15.53125 22.484375 10.953125 
Q 26.375 6.390625 33.015625 6.390625 
Q 39.65625 6.390625 43.53125 10.953125 
Q 47.40625 15.53125 47.40625 23.390625 
Q 47.40625 31.296875 43.53125 35.828125 
Q 39.65625 40.375 33.015625 40.375 
z
M 52.59375 71.296875 
L 52.59375 62.3125 
Q 48.875 64.0625 45.09375 64.984375 
Q 41.3125 65.921875 37.59375 65.921875 
Q 27.828125 65.921875 22.671875 59.328125 
Q 17.53125 52.734375 16.796875 39.40625 
Q 19.671875 43.65625 24.015625 45.921875 
Q 28.375 48.1875 33.59375 48.1875 
Q 44.578125 48.1875 50.953125 41.515625 
Q 57.328125 34.859375 57.328125 23.390625 
Q 57.328125 12.15625 50.6875 5.359375 
Q 44.046875 -1.421875 33.015625 -1.421875 
Q 20.359375 -1.421875 13.671875 8.265625 
Q 6.984375 17.96875 6.984375 36.375 
Q 6.984375 53.65625 15.1875 63.9375 
Q 23.390625 74.21875 37.203125 74.21875 
Q 40.921875 74.21875 44.703125 73.484375 
Q 48.484375 72.75 52.59375 71.296875 
z
" id="DejaVuSans-36"/>
      </defs>
      <g transform="translate(1168.817494 1296.198437)scale(0.1 -0.1)">
       <use xlink:href="#DejaVuSans-36"/>
       <use x="63.623047" xlink:href="#DejaVuSans-30"/>
       <use x="127.246094" xlink:href="#DejaVuSans-30"/>
      </g>
     </g>
    </g>
    <g id="xtick_5">
     <g id="line2d_9">
      <path clip-path="url(#p6e137c5068)" d="M 1475.011962 1281.6 
L 1475.011962 172.8 
" style="fill:none;stroke:#b0b0b0;stroke-linecap:square;stroke-width:0.8;"/>
     </g>
     <g id="line2d_10">
      <g>
       <use style="stroke:#000000;stroke-width:0.8;" x="1475.011962" xlink:href="#mc55114d4af" y="1281.6"/>
      </g>
     </g>
     <g id="text_5">
      <!-- 800 -->
      <defs>
       <path d="M 31.78125 34.625 
Q 24.75 34.625 20.71875 30.859375 
Q 16.703125 27.09375 16.703125 20.515625 
Q 16.703125 13.921875 20.71875 10.15625 
Q 24.75 6.390625 31.78125 6.390625 
Q 38.8125 6.390625 42.859375 10.171875 
Q 46.921875 13.96875 46.921875 20.515625 
Q 46.921875 27.09375 42.890625 30.859375 
Q 38.875 34.625 31.78125 34.625 
z
M 21.921875 38.8125 
Q 15.578125 40.375 12.03125 44.71875 
Q 8.5 49.078125 8.5 55.328125 
Q 8.5 64.0625 14.71875 69.140625 
Q 20.953125 74.21875 31.78125 74.21875 
Q 42.671875 74.21875 48.875 69.140625 
Q 55.078125 64.0625 55.078125 55.328125 
Q 55.078125 49.078125 51.53125 44.71875 
Q 48 40.375 41.703125 38.8125 
Q 48.828125 37.15625 52.796875 32.3125 
Q 56.78125 27.484375 56.78125 20.515625 
Q 56.78125 9.90625 50.3125 4.234375 
Q 43.84375 -1.421875 31.78125 -1.421875 
Q 19.734375 -1.421875 13.25 4.234375 
Q 6.78125 9.90625 6.78125 20.515625 
Q 6.78125 27.484375 10.78125 32.3125 
Q 14.796875 37.15625 21.921875 38.8125 
z
M 18.3125 54.390625 
Q 18.3125 48.734375 21.84375 45.5625 
Q 25.390625 42.390625 31.78125 42.390625 
Q 38.140625 42.390625 41.71875 45.5625 
Q 45.3125 48.734375 45.3125 54.390625 
Q 45.3125 60.0625 41.71875 63.234375 
Q 38.140625 66.40625 31.78125 66.40625 
Q 25.390625 66.40625 21.84375 63.234375 
Q 18.3125 60.0625 18.3125 54.390625 
z
" id="DejaVuSans-38"/>
      </defs>
      <g transform="translate(1465.468212 1296.198437)scale(0.1 -0.1)">
       <use xlink:href="#DejaVuSans-38"/>
       <use x="63.623047" xlink:href="#DejaVuSans-30"/>
       <use x="127.246094" xlink:href="#DejaVuSans-30"/>
      </g>
     </g>
    </g>
   </g>
   <g id="matplotlib.axis_2">
    <g id="ytick_1">
     <g id="line2d_11">
      <path clip-path="url(#p6e137c5068)" d="M 225 1281.6 
L 1620 1281.6 
" style="fill:none;stroke:#b0b0b0;stroke-linecap:square;stroke-width:0.8;"/>
     </g>
     <g id="line2d_12">
      <defs>
       <path d="M 0 0 
L -3.5 0 
" id="m8e8c153f52" style="stroke:#000000;stroke-width:0.8;"/>
      </defs>
      <g>
       <use style="stroke:#000000;stroke-width:0.8;" x="225" xlink:href="#m8e8c153f52" y="1281.6"/>
      </g>
     </g>
     <g id="text_6">
      <!-- −0.08908 -->
      <defs>
       <path d="M 10.59375 35.5 
L 73.1875 35.5 
L 73.1875 27.203125 
L 10.59375 27.203125 
z
" id="DejaVuSans-2212"/>
       <path d="M 10.6875 12.40625 
L 21 12.40625 
L 21 0 
L 10.6875 0 
z
" id="DejaVuSans-2e"/>
       <path d="M 10.984375 1.515625 
L 10.984375 10.5 
Q 14.703125 8.734375 18.5 7.8125 
Q 22.3125 6.890625 25.984375 6.890625 
Q 35.75 6.890625 40.890625 13.453125 
Q 46.046875 20.015625 46.78125 33.40625 
Q 43.953125 29.203125 39.59375 26.953125 
Q 35.25 24.703125 29.984375 24.703125 
Q 19.046875 24.703125 12.671875 31.3125 
Q 6.296875 37.9375 6.296875 49.421875 
Q 6.296875 60.640625 12.9375 67.421875 
Q 19.578125 74.21875 30.609375 74.21875 
Q 43.265625 74.21875 49.921875 64.515625 
Q 56.59375 54.828125 56.59375 36.375 
Q 56.59375 19.140625 48.40625 8.859375 
Q 40.234375 -1.421875 26.421875 -1.421875 
Q 22.703125 -1.421875 18.890625 -0.6875 
Q 15.09375 0.046875 10.984375 1.515625 
z
M 30.609375 32.421875 
Q 37.25 32.421875 41.125 36.953125 
Q 45.015625 41.5 45.015625 49.421875 
Q 45.015625 57.28125 41.125 61.84375 
Q 37.25 66.40625 30.609375 66.40625 
Q 23.96875 66.40625 20.09375 61.84375 
Q 16.21875 57.28125 16.21875 49.421875 
Q 16.21875 41.5 20.09375 36.953125 
Q 23.96875 32.421875 30.609375 32.421875 
z
" id="DejaVuSans-39"/>
      </defs>
      <g transform="translate(168.267188 1285.399219)scale(0.1 -0.1)">
       <use xlink:href="#DejaVuSans-2212"/>
       <use x="83.789062" xlink:href="#DejaVuSans-30"/>
       <use x="147.412109" xlink:href="#DejaVuSans-2e"/>
       <use x="179.199219" xlink:href="#DejaVuSans-30"/>
       <use x="242.822266" xlink:href="#DejaVuSans-38"/>
       <use x="306.445312" xlink:href="#DejaVuSans-39"/>
       <use x="370.068359" xlink:href="#DejaVuSans-30"/>
       <use x="433.691406" xlink:href="#DejaVuSans-38"/>
      </g>
     </g>
    </g>
    <g id="ytick_2">
     <g id="line2d_13">
      <path clip-path="url(#p6e137c5068)" d="M 225 1162.781074 
L 1620 1162.781074 
" style="fill:none;stroke:#b0b0b0;stroke-linecap:square;stroke-width:0.8;"/>
     </g>
     <g id="line2d_14">
      <g>
       <use style="stroke:#000000;stroke-width:0.8;" x="225" xlink:href="#m8e8c153f52" y="1162.781074"/>
      </g>
     </g>
     <g id="text_7">
      <!-- −0.07908 -->
      <defs>
       <path d="M 8.203125 72.90625 
L 55.078125 72.90625 
L 55.078125 68.703125 
L 28.609375 0 
L 18.3125 0 
L 43.21875 64.59375 
L 8.203125 64.59375 
z
" id="DejaVuSans-37"/>
      </defs>
      <g transform="translate(168.267188 1166.580293)scale(0.1 -0.1)">
       <use xlink:href="#DejaVuSans-2212"/>
       <use x="83.789062" xlink:href="#DejaVuSans-30"/>
       <use x="147.412109" xlink:href="#DejaVuSans-2e"/>
       <use x="179.199219" xlink:href="#DejaVuSans-30"/>
       <use x="242.822266" xlink:href="#DejaVuSans-37"/>
       <use x="306.445312" xlink:href="#DejaVuSans-39"/>
       <use x="370.068359" xlink:href="#DejaVuSans-30"/>
       <use x="433.691406" xlink:href="#DejaVuSans-38"/>
      </g>
     </g>
    </g>
    <g id="ytick_3">
     <g id="line2d_15">
      <path clip-path="url(#p6e137c5068)" d="M 225 1043.962149 
L 1620 1043.962149 
" style="fill:none;stroke:#b0b0b0;stroke-linecap:square;stroke-width:0.8;"/>
     </g>
     <g id="line2d_16">
      <g>
       <use style="stroke:#000000;stroke-width:0.8;" x="225" xlink:href="#m8e8c153f52" y="1043.962149"/>
      </g>
     </g>
     <g id="text_8">
      <!-- −0.06908 -->
      <g transform="translate(168.267188 1047.761367)scale(0.1 -0.1)">
       <use xlink:href="#DejaVuSans-2212"/>
       <use x="83.789062" xlink:href="#DejaVuSans-30"/>
       <use x="147.412109" xlink:href="#DejaVuSans-2e"/>
       <use x="179.199219" xlink:href="#DejaVuSans-30"/>
       <use x="242.822266" xlink:href="#DejaVuSans-36"/>
       <use x="306.445312" xlink:href="#DejaVuSans-39"/>
       <use x="370.068359" xlink:href="#DejaVuSans-30"/>
       <use x="433.691406" xlink:href="#DejaVuSans-38"/>
      </g>
     </g>
    </g>
    <g id="ytick_4">
     <g id="line2d_17">
      <path clip-path="url(#p6e137c5068)" d="M 225 925.143223 
L 1620 925.143223 
" style="fill:none;stroke:#b0b0b0;stroke-linecap:square;stroke-width:0.8;"/>
     </g>
     <g id="line2d_18">
      <g>
       <use style="stroke:#000000;stroke-width:0.8;" x="225" xlink:href="#m8e8c153f52" y="925.143223"/>
      </g>
     </g>
     <g id="text_9">
      <!-- −0.05908 -->
      <defs>
       <path d="M 10.796875 72.90625 
L 49.515625 72.90625 
L 49.515625 64.59375 
L 19.828125 64.59375 
L 19.828125 46.734375 
Q 21.96875 47.46875 24.109375 47.828125 
Q 26.265625 48.1875 28.421875 48.1875 
Q 40.625 48.1875 47.75 41.5 
Q 54.890625 34.8125 54.890625 23.390625 
Q 54.890625 11.625 47.5625 5.09375 
Q 40.234375 -1.421875 26.90625 -1.421875 
Q 22.3125 -1.421875 17.546875 -0.640625 
Q 12.796875 0.140625 7.71875 1.703125 
L 7.71875 11.625 
Q 12.109375 9.234375 16.796875 8.0625 
Q 21.484375 6.890625 26.703125 6.890625 
Q 35.15625 6.890625 40.078125 11.328125 
Q 45.015625 15.765625 45.015625 23.390625 
Q 45.015625 31 40.078125 35.4375 
Q 35.15625 39.890625 26.703125 39.890625 
Q 22.75 39.890625 18.8125 39.015625 
Q 14.890625 38.140625 10.796875 36.28125 
z
" id="DejaVuSans-35"/>
      </defs>
      <g transform="translate(168.267188 928.942442)scale(0.1 -0.1)">
       <use xlink:href="#DejaVuSans-2212"/>
       <use x="83.789062" xlink:href="#DejaVuSans-30"/>
       <use x="147.412109" xlink:href="#DejaVuSans-2e"/>
       <use x="179.199219" xlink:href="#DejaVuSans-30"/>
       <use x="242.822266" xlink:href="#DejaVuSans-35"/>
       <use x="306.445312" xlink:href="#DejaVuSans-39"/>
       <use x="370.068359" xlink:href="#DejaVuSans-30"/>
       <use x="433.691406" xlink:href="#DejaVuSans-38"/>
      </g>
     </g>
    </g>
    <g id="ytick_5">
     <g id="line2d_19">
      <path clip-path="url(#p6e137c5068)" d="M 225 806.324297 
L 1620 806.324297 
" style="fill:none;stroke:#b0b0b0;stroke-linecap:square;stroke-width:0.8;"/>
     </g>
     <g id="line2d_20">
      <g>
       <use style="stroke:#000000;stroke-width:0.8;" x="225" xlink:href="#m8e8c153f52" y="806.324297"/>
      </g>
     </g>
     <g id="text_10">
      <!-- −0.04908 -->
      <g transform="translate(168.267188 810.123516)scale(0.1 -0.1)">
       <use xlink:href="#DejaVuSans-2212"/>
       <use x="83.789062" xlink:href="#DejaVuSans-30"/>
       <use x="147.412109" xlink:href="#DejaVuSans-2e"/>
       <use x="179.199219" xlink:href="#DejaVuSans-30"/>
       <use x="242.822266" xlink:href="#DejaVuSans-34"/>
       <use x="306.445312" xlink:href="#DejaVuSans-39"/>
       <use x="370.068359" xlink:href="#DejaVuSans-30"/>
       <use x="433.691406" xlink:href="#DejaVuSans-38"/>
      </g>
     </g>
    </g>
    <g id="ytick_6">
     <g id="line2d_21">
      <path clip-path="url(#p6e137c5068)" d="M 225 687.505371 
L 1620 687.505371 
" style="fill:none;stroke:#b0b0b0;stroke-linecap:square;stroke-width:0.8;"/>
     </g>
     <g id="line2d_22">
      <g>
       <use style="stroke:#000000;stroke-width:0.8;" x="225" xlink:href="#m8e8c153f52" y="687.505371"/>
      </g>
     </g>
     <g id="text_11">
      <!-- −0.03908 -->
      <defs>
       <path d="M 40.578125 39.3125 
Q 47.65625 37.796875 51.625 33 
Q 55.609375 28.21875 55.609375 21.1875 
Q 55.609375 10.40625 48.1875 4.484375 
Q 40.765625 -1.421875 27.09375 -1.421875 
Q 22.515625 -1.421875 17.65625 -0.515625 
Q 12.796875 0.390625 7.625 2.203125 
L 7.625 11.71875 
Q 11.71875 9.328125 16.59375 8.109375 
Q 21.484375 6.890625 26.8125 6.890625 
Q 36.078125 6.890625 40.9375 10.546875 
Q 45.796875 14.203125 45.796875 21.1875 
Q 45.796875 27.640625 41.28125 31.265625 
Q 36.765625 34.90625 28.71875 34.90625 
L 20.21875 34.90625 
L 20.21875 43.015625 
L 29.109375 43.015625 
Q 36.375 43.015625 40.234375 45.921875 
Q 44.09375 48.828125 44.09375 54.296875 
Q 44.09375 59.90625 40.109375 62.90625 
Q 36.140625 65.921875 28.71875 65.921875 
Q 24.65625 65.921875 20.015625 65.03125 
Q 15.375 64.15625 9.8125 62.3125 
L 9.8125 71.09375 
Q 15.4375 72.65625 20.34375 73.4375 
Q 25.25 74.21875 29.59375 74.21875 
Q 40.828125 74.21875 47.359375 69.109375 
Q 53.90625 64.015625 53.90625 55.328125 
Q 53.90625 49.265625 50.4375 45.09375 
Q 46.96875 40.921875 40.578125 39.3125 
z
" id="DejaVuSans-33"/>
      </defs>
      <g transform="translate(168.267188 691.30459)scale(0.1 -0.1)">
       <use xlink:href="#DejaVuSans-2212"/>
       <use x="83.789062" xlink:href="#DejaVuSans-30"/>
       <use x="147.412109" xlink:href="#DejaVuSans-2e"/>
       <use x="179.199219" xlink:href="#DejaVuSans-30"/>
       <use x="242.822266" xlink:href="#DejaVuSans-33"/>
       <use x="306.445312" xlink:href="#DejaVuSans-39"/>
       <use x="370.068359" xlink:href="#DejaVuSans-30"/>
       <use x="433.691406" xlink:href="#DejaVuSans-38"/>
      </g>
     </g>
    </g>
    <g id="ytick_7">
     <g id="line2d_23">
      <path clip-path="url(#p6e137c5068)" d="M 225 568.686446 
L 1620 568.686446 
" style="fill:none;stroke:#b0b0b0;stroke-linecap:square;stroke-width:0.8;"/>
     </g>
     <g id="line2d_24">
      <g>
       <use style="stroke:#000000;stroke-width:0.8;" x="225" xlink:href="#m8e8c153f52" y="568.686446"/>
      </g>
     </g>
     <g id="text_12">
      <!-- −0.02908 -->
      <g transform="translate(168.267188 572.485665)scale(0.1 -0.1)">
       <use xlink:href="#DejaVuSans-2212"/>
       <use x="83.789062" xlink:href="#DejaVuSans-30"/>
       <use x="147.412109" xlink:href="#DejaVuSans-2e"/>
       <use x="179.199219" xlink:href="#DejaVuSans-30"/>
       <use x="242.822266" xlink:href="#DejaVuSans-32"/>
       <use x="306.445312" xlink:href="#DejaVuSans-39"/>
       <use x="370.068359" xlink:href="#DejaVuSans-30"/>
       <use x="433.691406" xlink:href="#DejaVuSans-38"/>
      </g>
     </g>
    </g>
    <g id="ytick_8">
     <g id="line2d_25">
      <path clip-path="url(#p6e137c5068)" d="M 225 449.86752 
L 1620 449.86752 
" style="fill:none;stroke:#b0b0b0;stroke-linecap:square;stroke-width:0.8;"/>
     </g>
     <g id="line2d_26">
      <g>
       <use style="stroke:#000000;stroke-width:0.8;" x="225" xlink:href="#m8e8c153f52" y="449.86752"/>
      </g>
     </g>
     <g id="text_13">
      <!-- −0.01908 -->
      <defs>
       <path d="M 12.40625 8.296875 
L 28.515625 8.296875 
L 28.515625 63.921875 
L 10.984375 60.40625 
L 10.984375 69.390625 
L 28.421875 72.90625 
L 38.28125 72.90625 
L 38.28125 8.296875 
L 54.390625 8.296875 
L 54.390625 0 
L 12.40625 0 
z
" id="DejaVuSans-31"/>
      </defs>
      <g transform="translate(168.267188 453.666739)scale(0.1 -0.1)">
       <use xlink:href="#DejaVuSans-2212"/>
       <use x="83.789062" xlink:href="#DejaVuSans-30"/>
       <use x="147.412109" xlink:href="#DejaVuSans-2e"/>
       <use x="179.199219" xlink:href="#DejaVuSans-30"/>
       <use x="242.822266" xlink:href="#DejaVuSans-31"/>
       <use x="306.445312" xlink:href="#DejaVuSans-39"/>
       <use x="370.068359" xlink:href="#DejaVuSans-30"/>
       <use x="433.691406" xlink:href="#DejaVuSans-38"/>
      </g>
     </g>
    </g>
    <g id="ytick_9">
     <g id="line2d_27">
      <path clip-path="url(#p6e137c5068)" d="M 225 331.048594 
L 1620 331.048594 
" style="fill:none;stroke:#b0b0b0;stroke-linecap:square;stroke-width:0.8;"/>
     </g>
     <g id="line2d_28">
      <g>
       <use style="stroke:#000000;stroke-width:0.8;" x="225" xlink:href="#m8e8c153f52" y="331.048594"/>
      </g>
     </g>
     <g id="text_14">
      <!-- −0.00908 -->
      <g transform="translate(168.267188 334.847813)scale(0.1 -0.1)">
       <use xlink:href="#DejaVuSans-2212"/>
       <use x="83.789062" xlink:href="#DejaVuSans-30"/>
       <use x="147.412109" xlink:href="#DejaVuSans-2e"/>
       <use x="179.199219" xlink:href="#DejaVuSans-30"/>
       <use x="242.822266" xlink:href="#DejaVuSans-30"/>
       <use x="306.445312" xlink:href="#DejaVuSans-39"/>
       <use x="370.068359" xlink:href="#DejaVuSans-30"/>
       <use x="433.691406" xlink:href="#DejaVuSans-38"/>
      </g>
     </g>
    </g>
    <g id="ytick_10">
     <g id="line2d_29">
      <path clip-path="url(#p6e137c5068)" d="M 225 212.229669 
L 1620 212.229669 
" style="fill:none;stroke:#b0b0b0;stroke-linecap:square;stroke-width:0.8;"/>
     </g>
     <g id="line2d_30">
      <g>
       <use style="stroke:#000000;stroke-width:0.8;" x="225" xlink:href="#m8e8c153f52" y="212.229669"/>
      </g>
     </g>
     <g id="text_15">
      <!-- 0.00092 -->
      <g transform="translate(176.646875 216.028887)scale(0.1 -0.1)">
       <use xlink:href="#DejaVuSans-30"/>
       <use x="63.623047" xlink:href="#DejaVuSans-2e"/>
       <use x="95.410156" xlink:href="#DejaVuSans-30"/>
       <use x="159.033203" xlink:href="#DejaVuSans-30"/>
       <use x="222.65625" xlink:href="#DejaVuSans-30"/>
       <use x="286.279297" xlink:href="#DejaVuSans-39"/>
       <use x="349.902344" xlink:href="#DejaVuSans-32"/>
      </g>
     </g>
    </g>
   </g>
   <g id="patch_3">
    <path clip-path="url(#p6e137c5068)" d="M 288.409091 1281.6 
L 1558.074163 1281.6 
L 1558.074163 172.8 
L 288.409091 172.8 
z
" style="opacity:0.3;"/>
   </g>
   <g id="line2d_31">
    <path clip-path="url(#p6e137c5068)" d="M 288.409091 1122.765653 
L 289.892344 1199.208081 
L 291.375598 1199.208081 
L 292.858852 1145.559434 
L 294.342105 1145.559434 
L 295.825359 1160.27546 
L 297.308612 1160.27546 
L 298.791866 1123.06157 
L 300.27512 1185.842921 
L 301.758373 1185.842921 
L 303.241627 1128.95106 
L 304.72488 1128.95106 
L 306.208134 1152.334048 
L 307.691388 1152.334048 
L 309.174641 1095.087027 
L 310.657895 1095.087027 
L 312.141148 1126.089119 
L 313.624402 1126.089119 
L 315.107656 1128.648197 
L 316.590909 1128.648197 
L 318.074163 1128.00903 
L 319.557416 1128.00903 
L 321.04067 1101.29833 
L 322.523923 1101.29833 
L 324.007177 1092.983427 
L 325.490431 1071.455717 
L 326.973684 1071.455717 
L 328.456938 1173.543653 
L 329.940191 1173.543653 
L 331.423445 1152.058852 
L 332.906699 1152.058852 
L 334.389952 1145.316705 
L 335.873206 1145.316705 
L 337.356459 1097.431011 
L 338.839713 1135.729741 
L 340.322967 1135.729741 
L 341.80622 1149.642914 
L 343.289474 1149.642914 
L 344.772727 1128.174391 
L 346.255981 1128.174391 
L 347.739234 1147.87292 
L 349.222488 1192.318251 
L 350.705742 1192.318251 
L 352.188995 1115.723766 
L 353.672249 1115.723766 
L 355.155502 1167.628994 
L 356.638756 1167.628994 
L 358.12201 1142.95524 
L 359.605263 1142.95524 
L 361.088517 1158.338419 
L 362.57177 1158.338419 
L 364.055024 1152.936007 
L 365.538278 1152.936007 
L 367.021531 1171.283682 
L 368.504785 1171.283682 
L 369.988038 1155.808965 
L 371.471292 1155.808965 
L 372.954545 1184.60744 
L 374.437799 1184.60744 
L 375.921053 1195.155459 
L 377.404306 1195.155459 
L 378.88756 1140.822037 
L 380.370813 1140.822037 
L 381.854067 1102.155332 
L 384.820574 1102.155332 
L 386.303828 1070.530586 
L 387.787081 1111.96595 
L 389.270335 1111.96595 
L 390.753589 1105.287053 
L 392.236842 1105.287053 
L 393.720096 1095.465805 
L 395.203349 1095.465805 
L 396.686603 1144.262638 
L 398.169856 1144.262638 
L 399.65311 1091.84493 
L 401.136364 1048.941339 
L 402.619617 1048.941339 
L 404.102871 1043.392453 
L 405.586124 1043.392453 
L 407.069378 1077.163521 
L 408.552632 1077.163521 
L 410.035885 1105.465519 
L 411.519139 1105.465519 
L 413.002392 1068.453437 
L 414.485646 1068.453437 
L 415.9689 1061.304402 
L 417.452153 1061.304402 
L 418.935407 1085.703718 
L 420.41866 1085.703718 
L 421.901914 1071.472324 
L 423.385167 1071.472324 
L 424.868421 1161.817914 
L 426.351675 1161.817914 
L 427.834928 1131.55992 
L 429.318182 1131.55992 
L 430.801435 1089.974318 
L 432.284689 1089.974318 
L 433.767943 1097.824006 
L 435.251196 1097.824006 
L 436.73445 1122.255352 
L 438.217703 1122.255352 
L 439.700957 1150.953204 
L 441.184211 1108.107695 
L 442.667464 1108.107695 
L 444.150718 1108.588996 
L 445.633971 1108.588996 
L 447.117225 1119.387121 
L 448.600478 1119.387121 
L 450.083732 1156.510144 
L 451.566986 1084.617851 
L 453.050239 1084.617851 
L 454.533493 1165.113702 
L 456.016746 1165.113702 
L 457.5 1097.806968 
L 458.983254 1097.806968 
L 460.466507 1143.913741 
L 461.949761 1146.430977 
L 463.433014 1146.430977 
L 464.916268 1119.613827 
L 466.399522 1119.613827 
L 467.882775 1145.95131 
L 469.366029 1145.95131 
L 470.849282 1101.118488 
L 472.332536 1101.118488 
L 473.815789 1102.5731 
L 475.299043 1102.5731 
L 476.782297 1112.980398 
L 478.26555 1112.980398 
L 479.748804 1094.641818 
L 481.232057 1130.262353 
L 482.715311 1130.262353 
L 484.198565 1113.310976 
L 487.165072 1113.310976 
L 488.648325 1101.011492 
L 490.131579 1072.848697 
L 491.614833 1072.848697 
L 493.098086 1103.84462 
L 494.58134 1103.84462 
L 496.064593 1072.756283 
L 497.547847 1072.756283 
L 499.0311 1112.630031 
L 500.514354 1112.630031 
L 501.997608 1134.689771 
L 503.480861 1134.689771 
L 504.964115 1124.839029 
L 506.447368 1124.839029 
L 507.930622 1073.64996 
L 509.413876 1109.773295 
L 510.897129 1109.773295 
L 512.380383 1061.431711 
L 513.863636 1061.431711 
L 515.34689 1113.996186 
L 516.830144 1113.996186 
L 518.313397 1098.121168 
L 519.796651 1098.121168 
L 521.279904 1093.889134 
L 522.763158 1093.889134 
L 524.246411 1106.944067 
L 525.729665 1097.152585 
L 527.212919 1097.152585 
L 528.696172 1078.020839 
L 530.179426 1078.020839 
L 531.662679 1097.334278 
L 533.145933 1097.334278 
L 534.629187 1130.694803 
L 536.11244 1096.139919 
L 537.595694 1096.139919 
L 539.078947 1128.69207 
L 540.562201 1128.69207 
L 542.045455 1098.319581 
L 543.528708 1098.319581 
L 545.011962 1107.605018 
L 546.495215 1107.605018 
L 547.978469 1090.158228 
L 549.461722 1090.158228 
L 550.944976 1135.236146 
L 552.42823 1135.236146 
L 553.911483 1126.59173 
L 555.394737 1126.59173 
L 556.87799 1128.184325 
L 558.361244 1128.184325 
L 559.844498 1055.771162 
L 561.327751 1055.771162 
L 562.811005 1073.502794 
L 564.294258 1073.502794 
L 565.777512 1067.292172 
L 567.260766 1067.292172 
L 568.744019 1150.399745 
L 570.227273 1150.399745 
L 571.710526 1114.871933 
L 573.19378 1114.871933 
L 574.677033 1103.977788 
L 576.160287 1103.977788 
L 577.643541 1114.768037 
L 579.126794 1114.768037 
L 580.610048 1079.737868 
L 582.093301 1079.737868 
L 583.576555 1104.760864 
L 585.059809 1104.760864 
L 586.543062 1141.715054 
L 588.026316 1141.715054 
L 589.509569 1085.976202 
L 590.992823 1085.976202 
L 592.476077 1118.782255 
L 593.95933 1118.782255 
L 595.442584 1143.659682 
L 596.925837 1044.237654 
L 598.409091 1044.237654 
L 599.892344 1061.204795 
L 601.375598 1061.204795 
L 602.858852 1120.058449 
L 604.342105 1120.058449 
L 605.825359 1135.693405 
L 607.308612 1135.693405 
L 608.791866 1087.937112 
L 610.27512 1087.937112 
L 611.758373 1111.820791 
L 613.241627 1126.450079 
L 614.72488 1126.450079 
L 616.208134 1082.123186 
L 617.691388 1082.123186 
L 619.174641 1142.309921 
L 620.657895 1142.309921 
L 622.141148 1152.200079 
L 623.624402 1071.540219 
L 625.107656 1071.540219 
L 626.590909 1139.395782 
L 628.074163 1139.395782 
L 629.557416 1128.148594 
L 631.04067 1128.148594 
L 632.523923 1100.90645 
L 634.007177 1100.90645 
L 635.490431 1094.610273 
L 636.973684 1094.610273 
L 638.456938 1117.228978 
L 639.940191 1117.228978 
L 641.423445 1142.860379 
L 642.906699 1142.860379 
L 644.389952 1100.4535 
L 645.873206 1100.4535 
L 647.356459 1148.617388 
L 648.839713 1148.617388 
L 650.322967 1077.037757 
L 651.80622 1139.077947 
L 653.289474 1139.077947 
L 654.772727 1077.824861 
L 657.739234 1077.824861 
L 659.222488 1116.140234 
L 660.705742 1116.140234 
L 662.188995 1091.717857 
L 663.672249 1096.045602 
L 665.155502 1096.045602 
L 666.638756 1094.804026 
L 668.12201 1094.804026 
L 669.605263 1129.172224 
L 671.088517 1129.172224 
L 672.57177 1105.599988 
L 674.055024 1101.033395 
L 675.538278 1101.033395 
L 677.021531 1086.411413 
L 678.504785 1086.411413 
L 679.988038 1075.864358 
L 681.471292 1075.864358 
L 682.954545 1089.387393 
L 684.437799 1093.542852 
L 685.921053 1093.542852 
L 687.404306 1145.548887 
L 688.88756 1145.548887 
L 690.370813 1100.904422 
L 691.854067 1100.904422 
L 693.337321 1166.953155 
L 694.820574 1166.953155 
L 696.303828 1124.473358 
L 697.787081 1100.754412 
L 699.270335 1100.754412 
L 700.753589 1112.004755 
L 702.236842 1112.004755 
L 703.720096 1130.871479 
L 705.203349 1130.871479 
L 706.686603 1093.443852 
L 708.169856 1173.049794 
L 709.65311 1173.049794 
L 711.136364 1164.197928 
L 712.619617 1164.197928 
L 714.102871 1119.599592 
L 715.586124 1119.599592 
L 717.069378 1172.31418 
L 718.552632 1172.31418 
L 720.035885 1163.13967 
L 721.519139 1157.171436 
L 723.002392 1157.171436 
L 724.485646 1101.079553 
L 725.9689 1101.079553 
L 727.452153 1088.320544 
L 728.935407 1088.320544 
L 730.41866 1091.872037 
L 731.901914 1091.872037 
L 733.385167 1134.943204 
L 734.868421 1149.773966 
L 736.351675 1149.773966 
L 737.834928 1056.755446 
L 739.318182 1056.755446 
L 740.801435 1100.549944 
L 742.284689 1100.549944 
L 743.767943 1148.90731 
L 745.251196 1148.90731 
L 746.73445 1087.133521 
L 748.217703 1109.891017 
L 749.700957 1109.891017 
L 751.184211 1155.562272 
L 752.667464 1155.562272 
L 754.150718 1089.695588 
L 755.633971 1089.695588 
L 757.117225 1135.585222 
L 758.600478 1135.585222 
L 760.083732 1131.347628 
L 761.566986 1128.365704 
L 763.050239 1128.365704 
L 764.533493 1143.558883 
L 766.016746 1143.558883 
L 767.5 1086.914302 
L 768.983254 1086.914302 
L 770.466507 1064.600057 
L 771.949761 1064.600057 
L 773.433014 1025.343419 
L 774.916268 1025.343419 
L 776.399522 1128.262732 
L 777.882775 1128.262732 
L 779.366029 1119.5956 
L 780.849282 1119.852214 
L 782.332536 1119.852214 
L 783.815789 1155.448809 
L 785.299043 1155.448809 
L 786.782297 1157.508103 
L 788.26555 1157.508103 
L 789.748804 1203.056466 
L 791.232057 1203.056466 
L 792.715311 1077.453054 
L 794.198565 1154.895917 
L 795.681818 1154.895917 
L 797.165072 1209.865817 
L 798.648325 1067.52937 
L 800.131579 1067.52937 
L 801.614833 1144.298378 
L 803.098086 1144.298378 
L 804.58134 1163.814763 
L 806.064593 1163.814763 
L 807.547847 1109.690532 
L 809.0311 1109.690532 
L 810.514354 1106.71504 
L 811.997608 1106.71504 
L 813.480861 1106.070079 
L 814.964115 1106.070079 
L 816.447368 1149.405071 
L 817.930622 1149.405071 
L 819.413876 1163.114268 
L 820.897129 1163.114268 
L 822.380383 1150.998648 
L 823.863636 1150.998648 
L 825.34689 1191.788606 
L 826.830144 1191.788606 
L 828.313397 1104.19822 
L 829.796651 1067.422553 
L 831.279904 1067.422553 
L 832.763158 1118.029362 
L 834.246411 1118.029362 
L 835.729665 1162.178277 
L 837.212919 1162.178277 
L 838.696172 1184.646578 
L 840.179426 1184.646578 
L 841.662679 1110.717798 
L 843.145933 1147.692098 
L 844.629187 1147.692098 
L 846.11244 1194.52024 
L 847.595694 1194.52024 
L 849.078947 1135.110369 
L 850.562201 1135.110369 
L 853.528708 1111.41389 
L 855.011962 1163.505453 
L 856.495215 1163.505453 
L 857.978469 1110.562883 
L 859.461722 1110.562883 
L 860.944976 1132.108661 
L 862.42823 1132.108661 
L 863.911483 1090.65666 
L 865.394737 1131.145551 
L 866.87799 1131.145551 
L 868.361244 1082.142217 
L 869.844498 1082.142217 
L 871.327751 1091.131786 
L 872.811005 1091.131786 
L 874.294258 1077.007559 
L 875.777512 1077.007559 
L 877.260766 1114.199122 
L 878.744019 1231.2 
L 880.227273 1231.2 
L 881.710526 1157.711542 
L 883.19378 1157.711542 
L 884.677033 1224.136172 
L 886.160287 1224.136172 
L 887.643541 1124.496564 
L 889.126794 1099.367423 
L 890.610048 1099.367423 
L 892.093301 1131.648414 
L 893.576555 1131.648414 
L 895.059809 1127.592299 
L 896.543062 1127.283831 
L 898.026316 1127.283831 
L 899.509569 1132.400274 
L 900.992823 1132.400274 
L 902.476077 1156.016451 
L 903.95933 1156.016451 
L 905.442584 1171.049928 
L 906.925837 1171.049928 
L 908.409091 1107.328385 
L 909.892344 1107.328385 
L 911.375598 1151.098892 
L 912.858852 1108.023177 
L 914.342105 1108.023177 
L 915.825359 1139.147022 
L 917.308612 1139.147022 
L 918.791866 1158.216079 
L 920.27512 1158.216079 
L 921.758373 1162.456533 
L 923.241627 1133.843643 
L 924.72488 1133.843643 
L 926.208134 1020.346373 
L 927.691388 1020.346373 
L 929.174641 1196.573015 
L 930.657895 1146.746181 
L 932.141148 1146.746181 
L 933.624402 1165.630742 
L 935.107656 1165.630742 
L 936.590909 1126.876658 
L 938.074163 1126.876658 
L 939.557416 1200.813854 
L 941.04067 1200.813854 
L 942.523923 1121.642504 
L 944.007177 1103.331185 
L 945.490431 1103.331185 
L 946.973684 1139.384085 
L 948.456938 1139.384085 
L 949.940191 1102.332312 
L 951.423445 1102.332312 
L 952.906699 1127.909616 
L 954.389952 1102.339839 
L 955.873206 1102.339839 
L 957.356459 1171.962123 
L 958.839713 1103.91912 
L 960.322967 1103.91912 
L 961.80622 1101.017077 
L 963.289474 1101.017077 
L 964.772727 1146.065276 
L 966.255981 1146.065276 
L 967.739234 1131.135361 
L 969.222488 1195.433662 
L 970.705742 1195.433662 
L 972.188995 1124.979324 
L 973.672249 1124.979324 
L 975.155502 1109.387457 
L 976.638756 1109.387457 
L 978.12201 1114.294669 
L 979.605263 1114.294669 
L 981.088517 1159.684597 
L 982.57177 1159.684597 
L 984.055024 1135.081588 
L 985.538278 1127.806385 
L 987.021531 1127.806385 
L 988.504785 1049.209769 
L 989.988038 1049.209769 
L 991.471292 1106.669963 
L 992.954545 1106.669963 
L 994.437799 1105.666248 
L 995.921053 1023.737811 
L 997.404306 1023.737811 
L 998.88756 1091.100633 
L 1000.370813 1091.100633 
L 1001.854067 1133.145486 
L 1003.337321 1133.145486 
L 1004.820574 1125.505974 
L 1006.303828 1081.254602 
L 1007.787081 1081.254602 
L 1009.270335 1135.175954 
L 1010.753589 1135.175954 
L 1012.236842 1090.723558 
L 1013.720096 1090.723558 
L 1015.203349 1068.285326 
L 1016.686603 1068.285326 
L 1018.169856 1159.178249 
L 1019.65311 1121.948838 
L 1021.136364 1121.948838 
L 1022.619617 1127.971835 
L 1024.102871 1127.971835 
L 1025.586124 1113.810781 
L 1027.069378 1113.810781 
L 1028.552632 1147.178896 
L 1030.035885 1142.266209 
L 1031.519139 1142.266209 
L 1033.002392 1155.560584 
L 1034.485646 1155.560584 
L 1035.9689 1083.736897 
L 1037.452153 1083.736897 
L 1038.935407 1111.463521 
L 1040.41866 1111.463521 
L 1041.901914 1107.904887 
L 1043.385167 1107.904887 
L 1044.868421 1174.167051 
L 1046.351675 1174.167051 
L 1047.834928 1099.481404 
L 1049.318182 1099.481404 
L 1050.801435 1057.864242 
L 1052.284689 1057.864242 
L 1053.767943 1119.976797 
L 1055.251196 1131.240882 
L 1056.73445 1131.240882 
L 1058.217703 1163.65894 
L 1059.700957 1163.65894 
L 1061.184211 1167.440462 
L 1062.667464 1167.440462 
L 1064.150718 1143.212563 
L 1065.633971 1081.066864 
L 1067.117225 1081.066864 
L 1068.600478 1119.726616 
L 1070.083732 1119.726616 
L 1071.566986 1074.20419 
L 1073.050239 1074.20419 
L 1074.533493 1148.153197 
L 1076.016746 1112.782236 
L 1077.5 1112.782236 
L 1078.983254 1103.598093 
L 1080.466507 1103.598093 
L 1081.949761 1090.145056 
L 1083.433014 1090.145056 
L 1084.916268 1181.292533 
L 1086.399522 1181.292533 
L 1087.882775 1083.870494 
L 1089.366029 1101.218932 
L 1090.849282 1101.218932 
L 1092.332536 1143.19351 
L 1093.815789 1143.19351 
L 1095.299043 1169.316535 
L 1096.782297 1169.316535 
L 1098.26555 1117.721825 
L 1099.748804 1117.721825 
L 1101.232057 1127.635505 
L 1102.715311 1111.184872 
L 1104.198565 1111.184872 
L 1105.681818 1098.623213 
L 1107.165072 1098.623213 
L 1108.648325 1153.64143 
L 1110.131579 1153.64143 
L 1111.614833 1147.752892 
L 1113.098086 1147.752892 
L 1114.58134 1112.625963 
L 1116.064593 1130.711802 
L 1117.547847 1130.711802 
L 1119.0311 1105.912669 
L 1120.514354 1105.912669 
L 1121.997608 1124.545048 
L 1123.480861 1124.545048 
L 1124.964115 1099.031022 
L 1126.447368 1077.215677 
L 1127.930622 1077.215677 
L 1129.413876 1111.89279 
L 1130.897129 1111.89279 
L 1132.380383 1126.403802 
L 1133.863636 1126.403802 
L 1135.34689 1103.912587 
L 1136.830144 1103.912587 
L 1138.313397 1104.833674 
L 1142.763158 1104.767599 
L 1144.246411 1169.804014 
L 1145.729665 1169.804014 
L 1147.212919 1117.018601 
L 1148.696172 1117.018601 
L 1150.179426 1092.073341 
L 1151.662679 1126.641304 
L 1153.145933 1126.641304 
L 1154.629187 1106.5739 
L 1156.11244 1106.5739 
L 1157.595694 1128.097728 
L 1159.078947 1128.097728 
L 1160.562201 1101.728688 
L 1162.045455 1101.728688 
L 1163.528708 1153.740855 
L 1165.011962 1153.740855 
L 1166.495215 1148.090471 
L 1167.978469 1148.090471 
L 1169.461722 1089.907084 
L 1170.944976 1089.907084 
L 1172.42823 1134.73533 
L 1173.911483 1134.73533 
L 1175.394737 1141.189293 
L 1176.87799 1157.063082 
L 1178.361244 1157.063082 
L 1179.844498 1080.366152 
L 1181.327751 1080.366152 
L 1182.811005 1125.917791 
L 1184.294258 1125.917791 
L 1185.777512 1094.635965 
L 1187.260766 1094.635965 
L 1188.744019 1107.23877 
L 1190.227273 1107.23877 
L 1191.710526 1159.605725 
L 1193.19378 1094.321769 
L 1194.677033 1094.321769 
L 1196.160287 1129.788027 
L 1197.643541 1129.788027 
L 1199.126794 1111.329468 
L 1200.610048 1111.329468 
L 1202.093301 1086.983318 
L 1203.576555 1100.407923 
L 1205.059809 1100.407923 
L 1206.543062 1123.27574 
L 1208.026316 1123.27574 
L 1209.509569 1140.328051 
L 1210.992823 1140.328051 
L 1212.476077 1142.762904 
L 1213.95933 1142.762904 
L 1215.442584 1127.643812 
L 1218.409091 1127.643812 
L 1219.892344 1139.590959 
L 1221.375598 1139.590959 
L 1222.858852 1081.175595 
L 1224.342105 1081.175595 
L 1225.825359 1071.285917 
L 1227.308612 1071.285917 
L 1228.791866 1130.696801 
L 1230.27512 1130.696801 
L 1231.758373 1113.324277 
L 1233.241627 1129.727595 
L 1234.72488 1129.727595 
L 1236.208134 1124.802589 
L 1237.691388 1124.802589 
L 1239.174641 1135.254276 
L 1240.657895 1135.254276 
L 1242.141148 1086.304335 
L 1243.624402 1086.304335 
L 1245.107656 1120.492879 
L 1246.590909 1135.843095 
L 1248.074163 1135.843095 
L 1249.557416 1146.232367 
L 1251.04067 1146.232367 
L 1252.523923 1132.465579 
L 1254.007177 1132.465579 
L 1255.490431 1098.969306 
L 1256.973684 1098.969306 
L 1258.456938 1123.03874 
L 1259.940191 1123.03874 
L 1261.423445 1086.62506 
L 1262.906699 1102.956484 
L 1264.389952 1102.956484 
L 1265.873206 1081.668009 
L 1267.356459 1081.668009 
L 1268.839713 1150.56068 
L 1270.322967 1150.56068 
L 1271.80622 1074.405728 
L 1273.289474 1074.405728 
L 1274.772727 1117.134294 
L 1276.255981 1117.134294 
L 1277.739234 1117.958791 
L 1279.222488 1117.958791 
L 1280.705742 1095.083744 
L 1282.188995 1154.560903 
L 1283.672249 1154.560903 
L 1285.155502 1096.706086 
L 1286.638756 1096.706086 
L 1288.12201 1117.047595 
L 1289.605263 1117.047595 
L 1291.088517 1086.690572 
L 1292.57177 1086.690572 
L 1294.055024 1083.486902 
L 1295.538278 1083.486902 
L 1297.021531 1071.926483 
L 1298.504785 1071.926483 
L 1299.988038 1100.56853 
L 1301.471292 1100.56853 
L 1302.954545 1136.248255 
L 1304.437799 1136.248255 
L 1305.921053 1118.088223 
L 1307.404306 1118.088223 
L 1308.88756 1128.893071 
L 1310.370813 1128.893071 
L 1311.854067 1115.441794 
L 1313.337321 1115.441794 
L 1314.820574 1132.54615 
L 1316.303828 1132.54615 
L 1317.787081 1107.779801 
L 1319.270335 1107.779801 
L 1320.753589 1138.711674 
L 1322.236842 1138.711674 
L 1323.720096 1121.965855 
L 1325.203349 1121.965855 
L 1326.686603 1152.613816 
L 1328.169856 1152.613816 
L 1329.65311 1084.969397 
L 1331.136364 1084.969397 
L 1332.619617 1121.855125 
L 1334.102871 1121.855125 
L 1335.586124 1083.650214 
L 1337.069378 1083.650214 
L 1338.552632 1080.230303 
L 1340.035885 1076.411458 
L 1341.519139 1076.411458 
L 1343.002392 1143.747747 
L 1344.485646 1143.747747 
L 1345.9689 1099.953621 
L 1348.935407 1099.953621 
L 1350.41866 1099.74955 
L 1351.901914 1129.453619 
L 1353.385167 1129.453619 
L 1354.868421 1089.621502 
L 1356.351675 1089.621502 
L 1357.834928 1140.329413 
L 1359.318182 1140.329413 
L 1360.801435 1078.875035 
L 1362.284689 1078.875035 
L 1363.767943 1121.490894 
L 1365.251196 1121.490894 
L 1366.73445 1127.739003 
L 1368.217703 1127.739003 
L 1369.700957 1115.567055 
L 1371.184211 1115.567055 
L 1372.667464 1117.62384 
L 1374.150718 1093.035036 
L 1377.117225 1093.035036 
L 1378.600478 1114.097288 
L 1380.083732 1133.405615 
L 1381.566986 1133.405615 
L 1383.050239 1128.67123 
L 1384.533493 1128.67123 
L 1386.016746 1095.944367 
L 1387.5 1095.944367 
L 1388.983254 1114.343262 
L 1390.466507 1114.343262 
L 1391.949761 1076.866312 
L 1394.916268 1076.866312 
L 1396.399522 1170.519938 
L 1397.882775 1170.519938 
L 1399.366029 1097.90373 
L 1400.849282 1114.636057 
L 1402.332536 1114.636057 
L 1403.815789 1081.078799 
L 1405.299043 1081.078799 
L 1406.782297 1140.277897 
L 1408.26555 1140.277897 
L 1409.748804 1111.83353 
L 1411.232057 1111.83353 
L 1412.715311 1117.741117 
L 1414.198565 1059.442157 
L 1415.681818 1059.442157 
L 1417.165072 1101.152368 
L 1418.648325 1101.152368 
L 1420.131579 1083.131488 
L 1421.614833 1083.131488 
L 1423.098086 1114.446736 
L 1424.58134 1114.446736 
L 1426.064593 1092.852574 
L 1427.547847 1092.852574 
L 1429.0311 1065.196553 
L 1430.514354 1065.196553 
L 1431.997608 1070.565397 
L 1433.480861 1103.734975 
L 1434.964115 1103.734975 
L 1436.447368 1113.166453 
L 1437.930622 1113.166453 
L 1439.413876 1107.850217 
L 1440.897129 1107.850217 
L 1442.380383 1132.27686 
L 1443.863636 1132.27686 
L 1445.34689 1069.441283 
L 1446.830144 1090.574661 
L 1448.313397 1090.574661 
L 1449.796651 1119.176082 
L 1451.279904 1119.176082 
L 1452.763158 1125.430406 
L 1454.246411 1125.430406 
L 1455.729665 1118.697913 
L 1457.212919 1135.590483 
L 1458.696172 1135.590483 
L 1460.179426 1085.004555 
L 1461.662679 1085.004555 
L 1463.145933 1128.466074 
L 1464.629187 1128.466074 
L 1466.11244 1154.349699 
L 1467.595694 1154.349699 
L 1469.078947 1128.918539 
L 1470.562201 1130.285024 
L 1472.045455 1130.285024 
L 1473.528708 1121.370952 
L 1475.011962 1121.370952 
L 1476.495215 1113.131788 
L 1477.978469 1113.131788 
L 1479.461722 1149.223608 
L 1480.944976 1149.223608 
L 1482.42823 1104.208803 
L 1483.911483 1104.208803 
L 1485.394737 1154.490972 
L 1486.87799 1113.933821 
L 1488.361244 1113.933821 
L 1489.844498 1139.53909 
L 1491.327751 1139.53909 
L 1492.811005 1126.024397 
L 1494.294258 1126.024397 
L 1495.777512 1148.668039 
L 1497.260766 1101.871228 
L 1498.744019 1101.871228 
L 1500.227273 1113.641034 
L 1501.710526 1113.641034 
L 1503.19378 1085.134464 
L 1504.677033 1085.134464 
L 1506.160287 1095.633088 
L 1507.643541 1095.633088 
L 1509.126794 1101.555371 
L 1510.610048 1101.555371 
L 1512.093301 1074.741287 
L 1513.576555 1074.741287 
L 1515.059809 1112.246116 
L 1516.543062 1112.246116 
L 1518.026316 1110.720192 
L 1519.509569 1110.720192 
L 1520.992823 1090.208713 
L 1522.476077 1090.208713 
L 1523.95933 1117.210341 
L 1526.925837 1117.210341 
L 1528.409091 1120.637344 
L 1529.892344 1094.638231 
L 1531.375598 1094.638231 
L 1532.858852 1131.246652 
L 1534.342105 1131.246652 
L 1535.825359 1107.06205 
L 1537.308612 1107.06205 
L 1538.791866 1200.918264 
L 1540.27512 1200.918264 
L 1541.758373 1160.367805 
L 1543.241627 1127.826359 
L 1544.72488 1127.826359 
L 1546.208134 1161.589285 
L 1547.691388 1161.589285 
L 1549.174641 1151.171284 
L 1550.657895 1151.171284 
L 1552.141148 1153.501997 
L 1553.624402 1153.501997 
L 1555.107656 1130.212434 
L 1556.590909 1130.212434 
L 1556.590909 1130.212434 
" style="fill:none;stroke:#000000;stroke-linecap:square;stroke-width:1.5;"/>
   </g>
   <g id="line2d_32">
    <path clip-path="url(#p6e137c5068)" d="M 288.409091 223.2 
L 1556.590909 223.2 
L 1556.590909 223.2 
" style="fill:none;stroke:#ff0000;stroke-linecap:square;stroke-width:1.5;"/>
   </g>
   <g id="patch_4">
    <path d="M 225 1281.6 
L 225 172.8 
" style="fill:none;stroke:#000000;stroke-linecap:square;stroke-linejoin:miter;stroke-width:0.8;"/>
   </g>
   <g id="patch_5">
    <path d="M 1620 1281.6 
L 1620 172.8 
" style="fill:none;stroke:#000000;stroke-linecap:square;stroke-linejoin:miter;stroke-width:0.8;"/>
   </g>
   <g id="patch_6">
    <path d="M 225 1281.6 
L 1620 1281.6 
" style="fill:none;stroke:#000000;stroke-linecap:square;stroke-linejoin:miter;stroke-width:0.8;"/>
   </g>
   <g id="patch_7">
    <path d="M 225 172.8 
L 1620 172.8 
" style="fill:none;stroke:#000000;stroke-linecap:square;stroke-linejoin:miter;stroke-width:0.8;"/>
   </g>
   <g id="legend_1">
    <g id="patch_8">
     <path d="M 232 1276.6 
L 340.154688 1276.6 
Q 342.154688 1276.6 342.154688 1274.6 
L 342.154688 1231.565625 
Q 342.154688 1229.565625 340.154688 1229.565625 
L 232 1229.565625 
Q 230 1229.565625 230 1231.565625 
L 230 1274.6 
Q 230 1276.6 232 1276.6 
z
" style="fill:#ffffff;opacity:0.8;stroke:#cccccc;stroke-linejoin:miter;"/>
    </g>
    <g id="line2d_33">
     <path d="M 234 1237.664062 
L 254 1237.664062 
" style="fill:none;stroke:#000000;stroke-linecap:square;stroke-width:1.5;"/>
    </g>
    <g id="line2d_34"/>
    <g id="text_16">
     <!-- Z position -->
     <defs>
      <path d="M 5.609375 72.90625 
L 62.890625 72.90625 
L 62.890625 65.375 
L 16.796875 8.296875 
L 64.015625 8.296875 
L 64.015625 0 
L 4.5 0 
L 4.5 7.515625 
L 50.59375 64.59375 
L 5.609375 64.59375 
z
" id="DejaVuSans-5a"/>
      <path id="DejaVuSans-20"/>
      <path d="M 18.109375 8.203125 
L 18.109375 -20.796875 
L 9.078125 -20.796875 
L 9.078125 54.6875 
L 18.109375 54.6875 
L 18.109375 46.390625 
Q 20.953125 51.265625 25.265625 53.625 
Q 29.59375 56 35.59375 56 
Q 45.5625 56 51.78125 48.09375 
Q 58.015625 40.1875 58.015625 27.296875 
Q 58.015625 14.40625 51.78125 6.484375 
Q 45.5625 -1.421875 35.59375 -1.421875 
Q 29.59375 -1.421875 25.265625 0.953125 
Q 20.953125 3.328125 18.109375 8.203125 
z
M 48.6875 27.296875 
Q 48.6875 37.203125 44.609375 42.84375 
Q 40.53125 48.484375 33.40625 48.484375 
Q 26.265625 48.484375 22.1875 42.84375 
Q 18.109375 37.203125 18.109375 27.296875 
Q 18.109375 17.390625 22.1875 11.75 
Q 26.265625 6.109375 33.40625 6.109375 
Q 40.53125 6.109375 44.609375 11.75 
Q 48.6875 17.390625 48.6875 27.296875 
z
" id="DejaVuSans-70"/>
      <path d="M 30.609375 48.390625 
Q 23.390625 48.390625 19.1875 42.75 
Q 14.984375 37.109375 14.984375 27.296875 
Q 14.984375 17.484375 19.15625 11.84375 
Q 23.34375 6.203125 30.609375 6.203125 
Q 37.796875 6.203125 41.984375 11.859375 
Q 46.1875 17.53125 46.1875 27.296875 
Q 46.1875 37.015625 41.984375 42.703125 
Q 37.796875 48.390625 30.609375 48.390625 
z
M 30.609375 56 
Q 42.328125 56 49.015625 48.375 
Q 55.71875 40.765625 55.71875 27.296875 
Q 55.71875 13.875 49.015625 6.21875 
Q 42.328125 -1.421875 30.609375 -1.421875 
Q 18.84375 -1.421875 12.171875 6.21875 
Q 5.515625 13.875 5.515625 27.296875 
Q 5.515625 40.765625 12.171875 48.375 
Q 18.84375 56 30.609375 56 
z
" id="DejaVuSans-6f"/>
      <path d="M 44.28125 53.078125 
L 44.28125 44.578125 
Q 40.484375 46.53125 36.375 47.5 
Q 32.28125 48.484375 27.875 48.484375 
Q 21.1875 48.484375 17.84375 46.4375 
Q 14.5 44.390625 14.5 40.28125 
Q 14.5 37.15625 16.890625 35.375 
Q 19.28125 33.59375 26.515625 31.984375 
L 29.59375 31.296875 
Q 39.15625 29.25 43.1875 25.515625 
Q 47.21875 21.78125 47.21875 15.09375 
Q 47.21875 7.46875 41.1875 3.015625 
Q 35.15625 -1.421875 24.609375 -1.421875 
Q 20.21875 -1.421875 15.453125 -0.5625 
Q 10.6875 0.296875 5.421875 2 
L 5.421875 11.28125 
Q 10.40625 8.6875 15.234375 7.390625 
Q 20.0625 6.109375 24.8125 6.109375 
Q 31.15625 6.109375 34.5625 8.28125 
Q 37.984375 10.453125 37.984375 14.40625 
Q 37.984375 18.0625 35.515625 20.015625 
Q 33.0625 21.96875 24.703125 23.78125 
L 21.578125 24.515625 
Q 13.234375 26.265625 9.515625 29.90625 
Q 5.8125 33.546875 5.8125 39.890625 
Q 5.8125 47.609375 11.28125 51.796875 
Q 16.75 56 26.8125 56 
Q 31.78125 56 36.171875 55.265625 
Q 40.578125 54.546875 44.28125 53.078125 
z
" id="DejaVuSans-73"/>
      <path d="M 9.421875 54.6875 
L 18.40625 54.6875 
L 18.40625 0 
L 9.421875 0 
z
M 9.421875 75.984375 
L 18.40625 75.984375 
L 18.40625 64.59375 
L 9.421875 64.59375 
z
" id="DejaVuSans-69"/>
      <path d="M 18.3125 70.21875 
L 18.3125 54.6875 
L 36.8125 54.6875 
L 36.8125 47.703125 
L 18.3125 47.703125 
L 18.3125 18.015625 
Q 18.3125 11.328125 20.140625 9.421875 
Q 21.96875 7.515625 27.59375 7.515625 
L 36.8125 7.515625 
L 36.8125 0 
L 27.59375 0 
Q 17.1875 0 13.234375 3.875 
Q 9.28125 7.765625 9.28125 18.015625 
L 9.28125 47.703125 
L 2.6875 47.703125 
L 2.6875 54.6875 
L 9.28125 54.6875 
L 9.28125 70.21875 
z
" id="DejaVuSans-74"/>
      <path d="M 54.890625 33.015625 
L 54.890625 0 
L 45.90625 0 
L 45.90625 32.71875 
Q 45.90625 40.484375 42.875 44.328125 
Q 39.84375 48.1875 33.796875 48.1875 
Q 26.515625 48.1875 22.3125 43.546875 
Q 18.109375 38.921875 18.109375 30.90625 
L 18.109375 0 
L 9.078125 0 
L 9.078125 54.6875 
L 18.109375 54.6875 
L 18.109375 46.1875 
Q 21.34375 51.125 25.703125 53.5625 
Q 30.078125 56 35.796875 56 
Q 45.21875 56 50.046875 50.171875 
Q 54.890625 44.34375 54.890625 33.015625 
z
" id="DejaVuSans-6e"/>
     </defs>
     <g transform="translate(262 1241.164062)scale(0.1 -0.1)">
      <use xlink:href="#DejaVuSans-5a"/>
      <use x="68.505859" xlink:href="#DejaVuSans-20"/>
      <use x="100.292969" xlink:href="#DejaVuSans-70"/>
      <use x="163.769531" xlink:href="#DejaVuSans-6f"/>
      <use x="224.951172" xlink:href="#DejaVuSans-73"/>
      <use x="277.050781" xlink:href="#DejaVuSans-69"/>
      <use x="304.833984" xlink:href="#DejaVuSans-74"/>
      <use x="344.042969" xlink:href="#DejaVuSans-69"/>
      <use x="371.826172" xlink:href="#DejaVuSans-6f"/>
      <use x="433.007812" xlink:href="#DejaVuSans-6e"/>
     </g>
    </g>
    <g id="line2d_35">
     <path d="M 234 1252.342187 
L 254 1252.342187 
" style="fill:none;stroke:#ff0000;stroke-linecap:square;stroke-width:1.5;"/>
    </g>
    <g id="line2d_36"/>
    <g id="text_17">
     <!-- goal -->
     <defs>
      <path d="M 45.40625 27.984375 
Q 45.40625 37.75 41.375 43.109375 
Q 37.359375 48.484375 30.078125 48.484375 
Q 22.859375 48.484375 18.828125 43.109375 
Q 14.796875 37.75 14.796875 27.984375 
Q 14.796875 18.265625 18.828125 12.890625 
Q 22.859375 7.515625 30.078125 7.515625 
Q 37.359375 7.515625 41.375 12.890625 
Q 45.40625 18.265625 45.40625 27.984375 
z
M 54.390625 6.78125 
Q 54.390625 -7.171875 48.1875 -13.984375 
Q 42 -20.796875 29.203125 -20.796875 
Q 24.46875 -20.796875 20.265625 -20.09375 
Q 16.0625 -19.390625 12.109375 -17.921875 
L 12.109375 -9.1875 
Q 16.0625 -11.328125 19.921875 -12.34375 
Q 23.78125 -13.375 27.78125 -13.375 
Q 36.625 -13.375 41.015625 -8.765625 
Q 45.40625 -4.15625 45.40625 5.171875 
L 45.40625 9.625 
Q 42.625 4.78125 38.28125 2.390625 
Q 33.9375 0 27.875 0 
Q 17.828125 0 11.671875 7.65625 
Q 5.515625 15.328125 5.515625 27.984375 
Q 5.515625 40.671875 11.671875 48.328125 
Q 17.828125 56 27.875 56 
Q 33.9375 56 38.28125 53.609375 
Q 42.625 51.21875 45.40625 46.390625 
L 45.40625 54.6875 
L 54.390625 54.6875 
z
" id="DejaVuSans-67"/>
      <path d="M 34.28125 27.484375 
Q 23.390625 27.484375 19.1875 25 
Q 14.984375 22.515625 14.984375 16.5 
Q 14.984375 11.71875 18.140625 8.90625 
Q 21.296875 6.109375 26.703125 6.109375 
Q 34.1875 6.109375 38.703125 11.40625 
Q 43.21875 16.703125 43.21875 25.484375 
L 43.21875 27.484375 
z
M 52.203125 31.203125 
L 52.203125 0 
L 43.21875 0 
L 43.21875 8.296875 
Q 40.140625 3.328125 35.546875 0.953125 
Q 30.953125 -1.421875 24.3125 -1.421875 
Q 15.921875 -1.421875 10.953125 3.296875 
Q 6 8.015625 6 15.921875 
Q 6 25.140625 12.171875 29.828125 
Q 18.359375 34.515625 30.609375 34.515625 
L 43.21875 34.515625 
L 43.21875 35.40625 
Q 43.21875 41.609375 39.140625 45 
Q 35.0625 48.390625 27.6875 48.390625 
Q 23 48.390625 18.546875 47.265625 
Q 14.109375 46.140625 10.015625 43.890625 
L 10.015625 52.203125 
Q 14.9375 54.109375 19.578125 55.046875 
Q 24.21875 56 28.609375 56 
Q 40.484375 56 46.34375 49.84375 
Q 52.203125 43.703125 52.203125 31.203125 
z
" id="DejaVuSans-61"/>
      <path d="M 9.421875 75.984375 
L 18.40625 75.984375 
L 18.40625 0 
L 9.421875 0 
z
" id="DejaVuSans-6c"/>
     </defs>
     <g transform="translate(262 1255.842187)scale(0.1 -0.1)">
      <use xlink:href="#DejaVuSans-67"/>
      <use x="63.476562" xlink:href="#DejaVuSans-6f"/>
      <use x="124.658203" xlink:href="#DejaVuSans-61"/>
      <use x="185.9375" xlink:href="#DejaVuSans-6c"/>
     </g>
    </g>
    <g id="patch_9">
     <path d="M 234 1270.520313 
L 254 1270.520313 
L 254 1263.520313 
L 234 1263.520313 
z
" style="opacity:0.3;"/>
    </g>
    <g id="text_18">
     <!-- +PITCH motion -->
     <defs>
      <path d="M 46 62.703125 
L 46 35.5 
L 73.1875 35.5 
L 73.1875 27.203125 
L 46 27.203125 
L 46 0 
L 37.796875 0 
L 37.796875 27.203125 
L 10.59375 27.203125 
L 10.59375 35.5 
L 37.796875 35.5 
L 37.796875 62.703125 
z
" id="DejaVuSans-2b"/>
      <path d="M 19.671875 64.796875 
L 19.671875 37.40625 
L 32.078125 37.40625 
Q 38.96875 37.40625 42.71875 40.96875 
Q 46.484375 44.53125 46.484375 51.125 
Q 46.484375 57.671875 42.71875 61.234375 
Q 38.96875 64.796875 32.078125 64.796875 
z
M 9.8125 72.90625 
L 32.078125 72.90625 
Q 44.34375 72.90625 50.609375 67.359375 
Q 56.890625 61.8125 56.890625 51.125 
Q 56.890625 40.328125 50.609375 34.8125 
Q 44.34375 29.296875 32.078125 29.296875 
L 19.671875 29.296875 
L 19.671875 0 
L 9.8125 0 
z
" id="DejaVuSans-50"/>
      <path d="M 9.8125 72.90625 
L 19.671875 72.90625 
L 19.671875 0 
L 9.8125 0 
z
" id="DejaVuSans-49"/>
      <path d="M -0.296875 72.90625 
L 61.375 72.90625 
L 61.375 64.59375 
L 35.5 64.59375 
L 35.5 0 
L 25.59375 0 
L 25.59375 64.59375 
L -0.296875 64.59375 
z
" id="DejaVuSans-54"/>
      <path d="M 64.40625 67.28125 
L 64.40625 56.890625 
Q 59.421875 61.53125 53.78125 63.8125 
Q 48.140625 66.109375 41.796875 66.109375 
Q 29.296875 66.109375 22.65625 58.46875 
Q 16.015625 50.828125 16.015625 36.375 
Q 16.015625 21.96875 22.65625 14.328125 
Q 29.296875 6.6875 41.796875 6.6875 
Q 48.140625 6.6875 53.78125 8.984375 
Q 59.421875 11.28125 64.40625 15.921875 
L 64.40625 5.609375 
Q 59.234375 2.09375 53.4375 0.328125 
Q 47.65625 -1.421875 41.21875 -1.421875 
Q 24.65625 -1.421875 15.125 8.703125 
Q 5.609375 18.84375 5.609375 36.375 
Q 5.609375 53.953125 15.125 64.078125 
Q 24.65625 74.21875 41.21875 74.21875 
Q 47.75 74.21875 53.53125 72.484375 
Q 59.328125 70.75 64.40625 67.28125 
z
" id="DejaVuSans-43"/>
      <path d="M 9.8125 72.90625 
L 19.671875 72.90625 
L 19.671875 43.015625 
L 55.515625 43.015625 
L 55.515625 72.90625 
L 65.375 72.90625 
L 65.375 0 
L 55.515625 0 
L 55.515625 34.71875 
L 19.671875 34.71875 
L 19.671875 0 
L 9.8125 0 
z
" id="DejaVuSans-48"/>
      <path d="M 52 44.1875 
Q 55.375 50.25 60.0625 53.125 
Q 64.75 56 71.09375 56 
Q 79.640625 56 84.28125 50.015625 
Q 88.921875 44.046875 88.921875 33.015625 
L 88.921875 0 
L 79.890625 0 
L 79.890625 32.71875 
Q 79.890625 40.578125 77.09375 44.375 
Q 74.3125 48.1875 68.609375 48.1875 
Q 61.625 48.1875 57.5625 43.546875 
Q 53.515625 38.921875 53.515625 30.90625 
L 53.515625 0 
L 44.484375 0 
L 44.484375 32.71875 
Q 44.484375 40.625 41.703125 44.40625 
Q 38.921875 48.1875 33.109375 48.1875 
Q 26.21875 48.1875 22.15625 43.53125 
Q 18.109375 38.875 18.109375 30.90625 
L 18.109375 0 
L 9.078125 0 
L 9.078125 54.6875 
L 18.109375 54.6875 
L 18.109375 46.1875 
Q 21.1875 51.21875 25.484375 53.609375 
Q 29.78125 56 35.6875 56 
Q 41.65625 56 45.828125 52.96875 
Q 50 49.953125 52 44.1875 
z
" id="DejaVuSans-6d"/>
     </defs>
     <g transform="translate(262 1270.520313)scale(0.1 -0.1)">
      <use xlink:href="#DejaVuSans-2b"/>
      <use x="83.789062" xlink:href="#DejaVuSans-50"/>
      <use x="144.091797" xlink:href="#DejaVuSans-49"/>
      <use x="173.583984" xlink:href="#DejaVuSans-54"/>
      <use x="234.589844" xlink:href="#DejaVuSans-43"/>
      <use x="304.414062" xlink:href="#DejaVuSans-48"/>
      <use x="379.609375" xlink:href="#DejaVuSans-20"/>
      <use x="411.396484" xlink:href="#DejaVuSans-6d"/>
      <use x="508.808594" xlink:href="#DejaVuSans-6f"/>
      <use x="569.990234" xlink:href="#DejaVuSans-74"/>
      <use x="609.199219" xlink:href="#DejaVuSans-69"/>
      <use x="636.982422" xlink:href="#DejaVuSans-6f"/>
      <use x="698.164062" xlink:href="#DejaVuSans-6e"/>
     </g>
    </g>
   </g>
  </g>
 </g>
 <defs>
  <clipPath id="p6e137c5068">
   <rect height="1108.8" width="1395" x="225" y="172.8"/>
  </clipPath>
 </defs>
</svg>
